%TF.GenerationSoftware,KiCad,Pcbnew,7.0.6*%
%TF.CreationDate,2024-06-26T11:04:28+02:00*%
%TF.ProjectId,ToneGenerator,546f6e65-4765-46e6-9572-61746f722e6b,rev?*%
%TF.SameCoordinates,PX791ddc0PY9157080*%
%TF.FileFunction,Copper,L1,Top*%
%TF.FilePolarity,Positive*%
%FSLAX45Y45*%
G04 Gerber Fmt 4.5, Leading zero omitted, Abs format (unit mm)*
G04 Created by KiCad (PCBNEW 7.0.6) date 2024-06-26 11:04:28*
%MOMM*%
%LPD*%
G01*
G04 APERTURE LIST*
G04 Aperture macros list*
%AMRoundRect*
0 Rectangle with rounded corners*
0 $1 Rounding radius*
0 $2 $3 $4 $5 $6 $7 $8 $9 X,Y pos of 4 corners*
0 Add a 4 corners polygon primitive as box body*
4,1,4,$2,$3,$4,$5,$6,$7,$8,$9,$2,$3,0*
0 Add four circle primitives for the rounded corners*
1,1,$1+$1,$2,$3*
1,1,$1+$1,$4,$5*
1,1,$1+$1,$6,$7*
1,1,$1+$1,$8,$9*
0 Add four rect primitives between the rounded corners*
20,1,$1+$1,$2,$3,$4,$5,0*
20,1,$1+$1,$4,$5,$6,$7,0*
20,1,$1+$1,$6,$7,$8,$9,0*
20,1,$1+$1,$8,$9,$2,$3,0*%
%AMRotRect*
0 Rectangle, with rotation*
0 The origin of the aperture is its center*
0 $1 length*
0 $2 width*
0 $3 Rotation angle, in degrees counterclockwise*
0 Add horizontal line*
21,1,$1,$2,0,0,$3*%
%AMFreePoly0*
4,1,24,-1.200000,0.450000,-1.192155,0.533661,-1.147852,0.660271,-1.068198,0.768198,-0.960271,0.847852,-0.833660,0.892154,-0.750000,0.900000,0.750000,0.900001,1.199999,0.450000,1.200000,-0.450000,1.192155,-0.533661,1.147852,-0.660271,1.068198,-0.768198,0.960271,-0.847852,0.833660,-0.892154,0.750000,-0.900000,-0.750000,-0.900001,-0.833660,-0.892155,-0.960271,-0.847852,-1.068198,-0.768198,
-1.147852,-0.660271,-1.192155,-0.533660,-1.199999,-0.450000,-1.200000,0.450000,-1.200000,0.450000,$1*%
G04 Aperture macros list end*
%TA.AperFunction,SMDPad,CuDef*%
%ADD10R,1.143000X1.397000*%
%TD*%
%TA.AperFunction,ComponentPad*%
%ADD11O,2.844800X1.422400*%
%TD*%
%TA.AperFunction,SMDPad,CuDef*%
%ADD12R,1.397000X1.143000*%
%TD*%
%TA.AperFunction,SMDPad,CuDef*%
%ADD13RotRect,1.143000X1.397000X60.000000*%
%TD*%
%TA.AperFunction,ComponentPad*%
%ADD14C,1.930400*%
%TD*%
%TA.AperFunction,SMDPad,CuDef*%
%ADD15RotRect,1.143000X1.397000X150.000000*%
%TD*%
%TA.AperFunction,SMDPad,CuDef*%
%ADD16RotRect,1.143000X1.397000X30.000000*%
%TD*%
%TA.AperFunction,SMDPad,CuDef*%
%ADD17R,1.800000X2.200000*%
%TD*%
%TA.AperFunction,SMDPad,CuDef*%
%ADD18RoundRect,0.190500X0.190500X0.571500X-0.190500X0.571500X-0.190500X-0.571500X0.190500X-0.571500X0*%
%TD*%
%TA.AperFunction,SMDPad,CuDef*%
%ADD19R,2.006600X1.498600*%
%TD*%
%TA.AperFunction,SMDPad,CuDef*%
%ADD20R,2.006600X3.810000*%
%TD*%
%TA.AperFunction,SMDPad,CuDef*%
%ADD21RoundRect,0.190500X0.571500X-0.190500X0.571500X0.190500X-0.571500X0.190500X-0.571500X-0.190500X0*%
%TD*%
%TA.AperFunction,SMDPad,CuDef*%
%ADD22R,0.965200X0.762000*%
%TD*%
%TA.AperFunction,ComponentPad*%
%ADD23C,1.676400*%
%TD*%
%TA.AperFunction,ComponentPad*%
%ADD24FreePoly0,195.000000*%
%TD*%
%TA.AperFunction,ComponentPad*%
%ADD25RoundRect,0.450000X0.212132X0.848528X-0.848528X-0.212132X-0.212132X-0.848528X0.848528X0.212132X0*%
%TD*%
%TA.AperFunction,ComponentPad*%
%ADD26RoundRect,0.450000X-0.240552X0.840913X-0.628781X-0.607976X0.240552X-0.840913X0.628781X0.607976X0*%
%TD*%
%TA.AperFunction,ComponentPad*%
%ADD27RoundRect,0.450000X-0.628781X0.607976X-0.240552X-0.840913X0.628781X-0.607976X0.240552X0.840913X0*%
%TD*%
%TA.AperFunction,ComponentPad*%
%ADD28RoundRect,0.450000X-0.848528X0.212132X0.212132X-0.848528X0.848528X-0.212132X-0.212132X0.848528X0*%
%TD*%
%TA.AperFunction,ComponentPad*%
%ADD29RoundRect,0.450000X-0.840913X-0.240552X0.607976X-0.628781X0.840913X0.240552X-0.607976X0.628781X0*%
%TD*%
%TA.AperFunction,ComponentPad*%
%ADD30RoundRect,0.450000X-0.607976X-0.628781X0.840913X-0.240552X0.607976X0.628781X-0.840913X0.240552X0*%
%TD*%
%TA.AperFunction,ComponentPad*%
%ADD31RoundRect,0.450000X-0.212132X-0.848528X0.848528X0.212132X0.212132X0.848528X-0.848528X-0.212132X0*%
%TD*%
%TA.AperFunction,ComponentPad*%
%ADD32RoundRect,0.450000X0.240552X-0.840913X0.628781X0.607976X-0.240552X0.840913X-0.628781X-0.607976X0*%
%TD*%
%TA.AperFunction,ComponentPad*%
%ADD33RoundRect,0.450000X0.628781X-0.607976X0.240552X0.840913X-0.628781X0.607976X-0.240552X-0.840913X0*%
%TD*%
%TA.AperFunction,ComponentPad*%
%ADD34RoundRect,0.450000X0.848528X-0.212132X-0.212132X0.848528X-0.848528X0.212132X0.212132X-0.848528X0*%
%TD*%
%TA.AperFunction,ComponentPad*%
%ADD35RoundRect,0.450000X0.840913X0.240552X-0.607976X0.628781X-0.840913X-0.240552X0.607976X-0.628781X0*%
%TD*%
%TA.AperFunction,SMDPad,CuDef*%
%ADD36RotRect,1.143000X1.397000X120.000000*%
%TD*%
%TA.AperFunction,SMDPad,CuDef*%
%ADD37R,1.900000X0.800000*%
%TD*%
%TA.AperFunction,SMDPad,CuDef*%
%ADD38R,0.762000X0.965200*%
%TD*%
%TA.AperFunction,WasherPad*%
%ADD39C,1.700000*%
%TD*%
%TA.AperFunction,ComponentPad*%
%ADD40O,1.422400X2.844800*%
%TD*%
%TA.AperFunction,ViaPad*%
%ADD41C,1.016000*%
%TD*%
%TA.AperFunction,ViaPad*%
%ADD42C,1.400000*%
%TD*%
%TA.AperFunction,ViaPad*%
%ADD43C,1.270000*%
%TD*%
%TA.AperFunction,ViaPad*%
%ADD44C,1.219200*%
%TD*%
%TA.AperFunction,Conductor*%
%ADD45C,0.635000*%
%TD*%
%TA.AperFunction,Conductor*%
%ADD46C,0.406400*%
%TD*%
%TA.AperFunction,Conductor*%
%ADD47C,0.400000*%
%TD*%
%TA.AperFunction,Conductor*%
%ADD48C,1.000000*%
%TD*%
G04 APERTURE END LIST*
%TA.AperFunction,EtchedComponent*%
%TO.C,JP2*%
G36*
X2012230Y1680760D02*
G01*
X1989588Y1680760D01*
X1913388Y1756960D01*
X1989588Y1833160D01*
X2012230Y1833160D01*
X2012230Y1680760D01*
G37*
%TD.AperFunction*%
%TA.AperFunction,EtchedComponent*%
G36*
X1878601Y1756960D02*
G01*
X1952173Y1680760D01*
X1854750Y1680760D01*
X1854750Y1833160D01*
X1952173Y1833160D01*
X1878601Y1756960D01*
G37*
%TD.AperFunction*%
%TA.AperFunction,EtchedComponent*%
%TO.C,JP1*%
G36*
X1028700Y532462D02*
G01*
X1028700Y509820D01*
X876300Y509820D01*
X876300Y532462D01*
X952500Y608662D01*
X1028700Y532462D01*
G37*
%TD.AperFunction*%
%TA.AperFunction,EtchedComponent*%
G36*
X1028700Y569877D02*
G01*
X952500Y643449D01*
X876300Y569877D01*
X876300Y667300D01*
X1028700Y667300D01*
X1028700Y569877D01*
G37*
%TD.AperFunction*%
%TD*%
D10*
%TO.P,R7,1,1*%
%TO.N,Net-(ARD1-PadA3)*%
X1581150Y1524000D03*
%TO.P,R7,2,2*%
%TO.N,+9V*%
X1771650Y1524000D03*
%TD*%
%TO.P,C1,1,1*%
%TO.N,Net-(ARD1-PadA5)*%
X2066840Y1193800D03*
%TO.P,C1,2,2*%
%TO.N,GND*%
X2257340Y1193800D03*
%TD*%
D11*
%TO.P,+9V0,1,KL*%
%TO.N,+9V*%
X654120Y639360D03*
%TD*%
D12*
%TO.P,R100,1,1*%
%TO.N,Net-(J100-PadA)*%
X1474846Y5934751D03*
%TO.P,R100,2,2*%
%TO.N,/SIN0*%
X1474846Y5744251D03*
%TD*%
D13*
%TO.P,R108,1,1*%
%TO.N,Net-(J100-Pad9)*%
X678056Y6962199D03*
%TO.P,R108,2,2*%
%TO.N,Net-(J100-Pad8)*%
X773306Y7127177D03*
%TD*%
D14*
%TO.P,Q1,D,D*%
%TO.N,Net-(HP2-KL)*%
X584200Y3632200D03*
%TO.P,Q1,G,G*%
%TO.N,Net-(Q2-G)*%
X838200Y3441700D03*
%TO.P,Q1,S,S*%
%TO.N,GND*%
X584200Y3251200D03*
%TD*%
D15*
%TO.P,R102,1,1*%
%TO.N,GND*%
X1128170Y5807063D03*
%TO.P,R102,2,2*%
%TO.N,Net-(J100-Pad11)*%
X963192Y5902313D03*
%TD*%
D12*
%TO.P,R105,1,1*%
%TO.N,Net-(J100-Pad3)*%
X2325681Y6504187D03*
%TO.P,R105,2,2*%
%TO.N,Net-(J100-Pad4)*%
X2325681Y6694687D03*
%TD*%
D16*
%TO.P,R101,1,1*%
%TO.N,+5V*%
X1830703Y5809438D03*
%TO.P,R101,2,2*%
%TO.N,Net-(J100-Pad2)*%
X1995680Y5904688D03*
%TD*%
D17*
%TO.P,D1,A,A*%
%TO.N,+9V*%
X1688014Y2008713D03*
%TO.P,D1,C,K*%
%TO.N,Net-(D1-K)*%
X2198014Y2008713D03*
%TD*%
D11*
%TO.P,HP2,1,KL*%
%TO.N,Net-(HP2-KL)*%
X647700Y2552700D03*
%TD*%
D18*
%TO.P,JP2,1,1*%
%TO.N,Net-(D1-K)*%
X2035090Y1756960D03*
%TO.P,JP2,2,2*%
%TO.N,+9V*%
X1831890Y1756960D03*
%TD*%
D11*
%TO.P,S-0,1,KL*%
%TO.N,GND*%
X647700Y901700D03*
%TD*%
D19*
%TO.P,IC1,1,VI*%
%TO.N,Net-(D1-K)*%
X1412240Y2639060D03*
%TO.P,IC1,2,VO*%
%TO.N,+5V*%
X1412240Y2867660D03*
%TO.P,IC1,3,ADJ*%
%TO.N,GND*%
X1412240Y3096260D03*
D20*
%TO.P,IC1,4,VO1*%
%TO.N,+5V*%
X2042160Y2870200D03*
%TD*%
D10*
%TO.P,R1,1,1*%
%TO.N,Net-(ARD1-PadA5)*%
X1771650Y1193800D03*
%TO.P,R1,2,2*%
%TO.N,/SIN0*%
X1581150Y1193800D03*
%TD*%
D11*
%TO.P,S+0,1,KL*%
%TO.N,+5V*%
X647700Y1854200D03*
%TD*%
D12*
%TO.P,R106,1,1*%
%TO.N,Net-(J100-Pad10)*%
X605680Y6519438D03*
%TO.P,R106,2,2*%
%TO.N,Net-(J100-Pad9)*%
X605680Y6709938D03*
%TD*%
D21*
%TO.P,JP1,1,1*%
%TO.N,+9V*%
X952500Y486960D03*
%TO.P,JP1,2,2*%
%TO.N,Net-(ARD1-PadRAW)*%
X952500Y690160D03*
%TD*%
D22*
%TO.P,R2,1,1*%
%TO.N,Net-(HP2-KL)*%
X886400Y2508233D03*
%TO.P,R2,2,2*%
%TO.N,+9V*%
X886400Y2350753D03*
%TD*%
D23*
%TO.P,ARD1,A0,A0*%
%TO.N,unconnected-(ARD1-PadA0)*%
X1092200Y2679700D03*
%TO.P,ARD1,A1,A1*%
%TO.N,unconnected-(ARD1-PadA1)*%
X1092200Y2425700D03*
%TO.P,ARD1,A2,A2*%
%TO.N,unconnected-(ARD1-PadA2)*%
X1092200Y2171700D03*
%TO.P,ARD1,A3,A3*%
%TO.N,Net-(ARD1-PadA3)*%
X1092200Y1917700D03*
%TO.P,ARD1,A4,A4*%
%TO.N,unconnected-(ARD1-PadA4)*%
X1346200Y2044700D03*
%TO.P,ARD1,A5,A5*%
%TO.N,Net-(ARD1-PadA5)*%
X1346200Y1790700D03*
%TO.P,ARD1,A6,A6*%
%TO.N,unconnected-(ARD1-PadA6)*%
X1600200Y3695700D03*
%TO.P,ARD1,A7,A7*%
%TO.N,unconnected-(ARD1-PadA7)*%
X1346200Y3695700D03*
%TO.P,ARD1,D2,D2*%
%TO.N,unconnected-(ARD1-PadD2)*%
X2616200Y1917700D03*
%TO.P,ARD1,D3,D3*%
%TO.N,unconnected-(ARD1-PadD3)*%
X2616200Y2171700D03*
%TO.P,ARD1,D4,D4*%
%TO.N,unconnected-(ARD1-PadD4)*%
X2616200Y2425700D03*
%TO.P,ARD1,D5,D5*%
%TO.N,unconnected-(ARD1-PadD5)*%
X2616200Y2679700D03*
%TO.P,ARD1,D6,D6*%
%TO.N,unconnected-(ARD1-PadD6)*%
X2616200Y2933700D03*
%TO.P,ARD1,D7,D7*%
%TO.N,unconnected-(ARD1-PadD7)*%
X2616200Y3187700D03*
%TO.P,ARD1,D8,D8*%
%TO.N,unconnected-(ARD1-PadD8)*%
X2616200Y3441700D03*
%TO.P,ARD1,D9,D9*%
%TO.N,unconnected-(ARD1-PadD9)*%
X2616200Y3695700D03*
%TO.P,ARD1,D10,D10*%
%TO.N,Net-(ARD1-PadD10)*%
X1092200Y3695700D03*
%TO.P,ARD1,D11,D11*%
%TO.N,unconnected-(ARD1-PadD11)*%
X1092200Y3441700D03*
%TO.P,ARD1,D12,D12*%
%TO.N,unconnected-(ARD1-PadD12)*%
X1092200Y3187700D03*
%TO.P,ARD1,D13,D13*%
%TO.N,unconnected-(ARD1-PadD13)*%
X1092200Y2933700D03*
%TO.P,ARD1,GND,GND*%
%TO.N,GND*%
X2616200Y1663700D03*
%TO.P,ARD1,GND@1,GND@1*%
X1092200Y1155700D03*
%TO.P,ARD1,GND@4,GND@4*%
X1854200Y3695700D03*
%TO.P,ARD1,RAW,RAW*%
%TO.N,Net-(ARD1-PadRAW)*%
X1092200Y901700D03*
%TO.P,ARD1,RST,RST@1*%
%TO.N,unconnected-(ARD1A-RST@1-PadRST)*%
X1092200Y1409700D03*
%TO.P,ARD1,RST@1,RST@2*%
%TO.N,unconnected-(ARD1A-RST@2-PadRST@1)*%
X2616200Y1409700D03*
%TO.P,ARD1,RX1@1,RX@1*%
%TO.N,unconnected-(ARD1A-RX@1-PadRX1@1)*%
X2616200Y1155700D03*
%TO.P,ARD1,TX@1,TX@2*%
%TO.N,unconnected-(ARD1A-TX@2-PadTX@1)*%
X2616200Y901700D03*
%TO.P,ARD1,VCC,VCC@2*%
%TO.N,+5V*%
X1092200Y1663700D03*
%TD*%
D15*
%TO.P,R109,1,1*%
%TO.N,Net-(J100-Pad5)*%
X2018170Y7307063D03*
%TO.P,R109,2,2*%
%TO.N,Net-(J100-Pad6)*%
X1853192Y7402313D03*
%TD*%
D24*
%TO.P,J100,1,1*%
%TO.N,+5V*%
X1765300Y5549900D03*
D25*
%TO.P,J100,2,2*%
%TO.N,Net-(J100-Pad2)*%
X2260600Y5829300D03*
D26*
%TO.P,J100,3,3*%
%TO.N,Net-(J100-Pad3)*%
X2540000Y6324600D03*
D27*
%TO.P,J100,4,4*%
%TO.N,Net-(J100-Pad4)*%
X2540000Y6883400D03*
D28*
%TO.P,J100,5,5*%
%TO.N,Net-(J100-Pad5)*%
X2247900Y7378700D03*
D29*
%TO.P,J100,6,6*%
%TO.N,Net-(J100-Pad6)*%
X1765300Y7670800D03*
D30*
%TO.P,J100,7,7*%
%TO.N,Net-(J100-Pad7)*%
X1193800Y7670800D03*
D31*
%TO.P,J100,8,8*%
%TO.N,Net-(J100-Pad8)*%
X685800Y7378700D03*
D32*
%TO.P,J100,9,9*%
%TO.N,Net-(J100-Pad9)*%
X419100Y6883400D03*
D33*
%TO.P,J100,10,10*%
%TO.N,Net-(J100-Pad10)*%
X406400Y6324600D03*
D34*
%TO.P,J100,11,11*%
%TO.N,Net-(J100-Pad11)*%
X685800Y5829300D03*
D35*
%TO.P,J100,12,12*%
%TO.N,GND*%
X1193800Y5537200D03*
D25*
%TO.P,J100,A,A*%
%TO.N,Net-(J100-PadA)*%
X1752600Y6324600D03*
%TD*%
D36*
%TO.P,R107,1,1*%
%TO.N,Net-(J100-Pad4)*%
X2273306Y6952200D03*
%TO.P,R107,2,2*%
%TO.N,Net-(J100-Pad5)*%
X2178056Y7117177D03*
%TD*%
D10*
%TO.P,R8,1,1*%
%TO.N,GND*%
X2255737Y1524000D03*
%TO.P,R8,2,2*%
%TO.N,Net-(ARD1-PadA3)*%
X2065237Y1524000D03*
%TD*%
D11*
%TO.P,SIN0,1,KL*%
%TO.N,/SIN0*%
X647700Y1600200D03*
%TD*%
D36*
%TO.P,R104,1,1*%
%TO.N,Net-(J100-Pad11)*%
X763305Y6112200D03*
%TO.P,R104,2,2*%
%TO.N,Net-(J100-Pad10)*%
X668055Y6277177D03*
%TD*%
D12*
%TO.P,C2,1,1*%
%TO.N,+5V*%
X2365290Y2861860D03*
%TO.P,C2,2,2*%
%TO.N,GND*%
X2365290Y2671360D03*
%TD*%
D13*
%TO.P,R103,1,1*%
%TO.N,Net-(J100-Pad2)*%
X2170431Y6079711D03*
%TO.P,R103,2,2*%
%TO.N,Net-(J100-Pad3)*%
X2265681Y6244689D03*
%TD*%
D11*
%TO.P,GND0,1,KL*%
%TO.N,GND*%
X647700Y1346200D03*
%TD*%
D37*
%TO.P,Q2,1,G*%
%TO.N,Net-(Q2-G)*%
X510400Y3016000D03*
%TO.P,Q2,2,D*%
%TO.N,Net-(HP2-KL)*%
X510400Y2826000D03*
%TO.P,Q2,3,S*%
%TO.N,GND*%
X810400Y2921000D03*
%TD*%
D38*
%TO.P,R3,1,1*%
%TO.N,Net-(Q2-G)*%
X737150Y3788960D03*
%TO.P,R3,2,2*%
%TO.N,Net-(ARD1-PadD10)*%
X894630Y3788960D03*
%TD*%
D11*
%TO.P,HP1,1,KL*%
%TO.N,+9V*%
X647700Y2298700D03*
%TD*%
D39*
%TO.P,CN100,*%
%TO.N,*%
X1226090Y4663839D03*
X1480089Y4663839D03*
X1732592Y4663839D03*
D40*
%TO.P,CN100,1,Pin_1*%
%TO.N,GND*%
X1226090Y4981339D03*
%TO.P,CN100,2,Pin_2*%
%TO.N,/SIN0*%
X1480089Y4981339D03*
%TO.P,CN100,3,Pin_3*%
%TO.N,+5V*%
X1732592Y4981339D03*
%TD*%
D10*
%TO.P,R111,1,1*%
%TO.N,Net-(J100-Pad7)*%
X1400430Y7474688D03*
%TO.P,R111,2,2*%
%TO.N,Net-(J100-Pad6)*%
X1590930Y7474688D03*
%TD*%
D16*
%TO.P,R110,1,1*%
%TO.N,Net-(J100-Pad8)*%
X983191Y7297063D03*
%TO.P,R110,2,2*%
%TO.N,Net-(J100-Pad7)*%
X1148169Y7392313D03*
%TD*%
D41*
%TO.N,+5V*%
X2366909Y3061303D03*
D42*
%TO.N,GND*%
X1412240Y3280960D03*
D43*
X2365290Y2518960D03*
D44*
%TO.N,+5V*%
X1654090Y2366560D03*
%TD*%
D45*
%TO.N,GND*%
X723900Y1155700D02*
X1092200Y1155700D01*
X647700Y1231900D02*
X723900Y1155700D01*
X647700Y1346200D02*
X647700Y1231900D01*
D46*
X965200Y4318000D02*
X965200Y4114800D01*
X1044338Y4981339D02*
X965200Y4902200D01*
X965200Y4902200D02*
X965200Y4318000D01*
X1226090Y4981339D02*
X1044338Y4981339D01*
D47*
%TO.N,+9V*%
X1771650Y1524000D02*
X1771650Y1596988D01*
D45*
X917490Y334560D02*
X952500Y369570D01*
D46*
X1724770Y1756960D02*
X1814430Y1756960D01*
D45*
X952500Y369570D02*
X952500Y458070D01*
D46*
X1188550Y2298700D02*
X1298490Y2188760D01*
D47*
X1814750Y1640088D02*
X1814750Y1756960D01*
D46*
X1188550Y2298700D02*
X932192Y2298700D01*
D45*
X688890Y334560D02*
X917490Y334560D01*
D46*
X1688014Y2008713D02*
X1688014Y1793716D01*
X1421966Y2188760D02*
X1602013Y2008713D01*
D45*
X647700Y647700D02*
X647700Y375750D01*
D46*
X1688014Y1793716D02*
X1724770Y1756960D01*
X895649Y2335243D02*
X859105Y2298700D01*
D45*
X647700Y375750D02*
X688890Y334560D01*
D46*
X859105Y2298700D02*
X647700Y2298700D01*
D47*
X1771650Y1596988D02*
X1814750Y1640088D01*
D46*
X1298490Y2188760D02*
X1421966Y2188760D01*
X1688014Y2008713D02*
X1602013Y2008713D01*
X932192Y2298700D02*
X895649Y2335243D01*
D45*
%TO.N,GND*%
X2365290Y2671360D02*
X2365290Y2518960D01*
D48*
X1412240Y3096260D02*
X1412240Y3280960D01*
D45*
%TO.N,+5V*%
X1028700Y1663700D02*
X838200Y1854200D01*
X1092200Y1663700D02*
X1028700Y1663700D01*
X838200Y1854200D02*
X647700Y1854200D01*
X2039620Y2867660D02*
X2042160Y2870200D01*
X1412240Y2867660D02*
X2039620Y2867660D01*
D46*
%TO.N,Net-(ARD1-PadA3)*%
X1092200Y1917700D02*
X1435100Y1917700D01*
X1581150Y1771650D02*
X1581150Y1524000D01*
D47*
X2065237Y1524000D02*
X2065237Y1430237D01*
D46*
X1435100Y1917700D02*
X1581150Y1771650D01*
D47*
X1581150Y1441450D02*
X1581150Y1524000D01*
X2065237Y1430237D02*
X2032000Y1397000D01*
X2032000Y1397000D02*
X1625600Y1397000D01*
X1625600Y1397000D02*
X1581150Y1441450D01*
%TO.N,Net-(ARD1-PadA5)*%
X1930400Y1193800D02*
X2066840Y1193800D01*
X1771650Y1193800D02*
X1930400Y1193800D01*
X1346200Y1422400D02*
X1447800Y1320800D01*
X1447800Y1320800D02*
X1879600Y1320800D01*
X1879600Y1320800D02*
X1930400Y1270000D01*
X1930400Y1270000D02*
X1930400Y1193800D01*
X1346200Y1790700D02*
X1346200Y1422400D01*
D45*
%TO.N,Net-(ARD1-PadD10)*%
X996950Y3790950D02*
X1092200Y3695700D01*
X896620Y3790950D02*
X894630Y3788960D01*
X996950Y3790950D02*
X896620Y3790950D01*
%TO.N,Net-(ARD1-PadRAW)*%
X1092200Y901700D02*
X1028700Y901700D01*
X952500Y825500D02*
X952500Y711200D01*
X1028700Y901700D02*
X952500Y825500D01*
D46*
%TO.N,GND*%
X1226090Y4981339D02*
X1226090Y5504911D01*
X1193800Y5537200D02*
X1193800Y5741433D01*
X1193800Y5741433D02*
X1128170Y5807063D01*
X1226090Y5504911D02*
X1193800Y5537200D01*
%TO.N,/SIN0*%
X1480089Y5739008D02*
X1474846Y5744251D01*
X1480089Y4981339D02*
X1480089Y5739008D01*
%TO.N,+5V*%
X1732592Y4981339D02*
X1732592Y5517193D01*
X1830703Y5809438D02*
X1743183Y5762555D01*
X1743183Y5762555D02*
X1765300Y5549900D01*
X1732592Y5517193D02*
X1765300Y5549900D01*
D45*
%TO.N,Net-(D1-K)*%
X1412240Y2639060D02*
X1412240Y2329010D01*
X1553350Y2187900D02*
X2162950Y2187900D01*
X1412240Y2329010D02*
X1553350Y2187900D01*
D46*
X2198014Y2008713D02*
X2198014Y1805513D01*
X2149461Y1756960D02*
X2052550Y1756960D01*
X2198014Y1805513D02*
X2149461Y1756960D01*
D45*
X2162950Y2187900D02*
X2198014Y2152836D01*
X2198014Y2152836D02*
X2198014Y2008713D01*
D47*
%TO.N,Net-(HP2-KL)*%
X603000Y2826000D02*
X647700Y2781300D01*
X510400Y2826000D02*
X603000Y2826000D01*
X868692Y2552700D02*
X647700Y2552700D01*
X647700Y2781300D02*
X647700Y2552700D01*
X895649Y2525743D02*
X868692Y2552700D01*
D46*
%TO.N,Net-(J100-Pad2)*%
X2124568Y6002256D02*
X2260600Y5829300D01*
X1995680Y5904688D02*
X2089794Y5955444D01*
X2089794Y5955444D02*
X2260600Y5829300D01*
X2170431Y6079711D02*
X2124568Y6002256D01*
%TO.N,Net-(J100-Pad3)*%
X2325681Y6504187D02*
X2325190Y6419549D01*
X2265681Y6244689D02*
X2309140Y6324588D01*
X2325190Y6419549D02*
X2540000Y6324600D01*
X2309140Y6324588D02*
X2540000Y6324600D01*
%TO.N,Net-(J100-Pad4)*%
X2273306Y6952200D02*
X2322515Y6875628D01*
X2325681Y6694687D02*
X2330540Y6777992D01*
X2330540Y6777992D02*
X2540000Y6883400D01*
X2322515Y6875628D02*
X2540000Y6883400D01*
%TO.N,Net-(J100-Pad5)*%
X2178056Y7117177D02*
X2140232Y7197598D01*
X2140232Y7197598D02*
X2247900Y7378700D01*
X2096541Y7267147D02*
X2247900Y7378700D01*
X2018170Y7307063D02*
X2096541Y7267147D01*
%TO.N,Net-(J100-Pad6)*%
X1775282Y7455165D02*
X1853192Y7402313D01*
X1765300Y7573985D02*
X1775282Y7455165D01*
X1666003Y7474688D02*
X1765300Y7573985D01*
X1590930Y7474688D02*
X1666003Y7474688D01*
X1765300Y7670800D02*
X1765300Y7573985D01*
%TO.N,Net-(J100-Pad7)*%
X1193800Y7670800D02*
X1311656Y7471006D01*
X1311656Y7471006D02*
X1400430Y7474688D01*
X1204658Y7456740D02*
X1202280Y7506078D01*
X1202280Y7506078D02*
X1193800Y7670800D01*
X1148169Y7392313D02*
X1204658Y7456740D01*
%TO.N,Net-(J100-Pad8)*%
X901132Y7251869D02*
X983191Y7297063D01*
X813552Y7206901D02*
X773306Y7127177D01*
X685800Y7378700D02*
X901132Y7251869D01*
X685800Y7378700D02*
X813552Y7206901D01*
%TO.N,Net-(J100-Pad9)*%
X625535Y6895449D02*
X678056Y6962199D01*
X604729Y6790235D02*
X605680Y6709938D01*
X419100Y6883400D02*
X625535Y6895449D01*
X419100Y6883400D02*
X604729Y6790235D01*
%TO.N,Net-(J100-Pad10)*%
X605918Y6432417D02*
X605680Y6519438D01*
X406400Y6324600D02*
X605918Y6432417D01*
X615726Y6346819D02*
X406400Y6324600D01*
X668055Y6277177D02*
X615726Y6346819D01*
%TO.N,Net-(J100-Pad11)*%
X809006Y6032010D02*
X685800Y5829300D01*
X876177Y5947006D02*
X685800Y5829300D01*
X963192Y5902313D02*
X876177Y5947006D01*
X763305Y6112200D02*
X809006Y6032010D01*
%TO.N,Net-(J100-PadA)*%
X1474846Y6046846D02*
X1474846Y5934751D01*
X1752600Y6324600D02*
X1474846Y6046846D01*
D47*
%TO.N,Net-(Q2-G)*%
X838200Y3600450D02*
X838200Y3441700D01*
X362200Y3016000D02*
X330200Y3048000D01*
X510400Y3016000D02*
X362200Y3016000D01*
X330200Y3378200D02*
X393700Y3441700D01*
X393700Y3441700D02*
X838200Y3441700D01*
X330200Y3048000D02*
X330200Y3378200D01*
X737150Y3788960D02*
X737150Y3701500D01*
X737150Y3701500D02*
X838200Y3600450D01*
D46*
%TO.N,/SIN0*%
X1273090Y1452160D02*
X1273090Y1241510D01*
X774700Y1600200D02*
X838200Y1536700D01*
X1273090Y1241510D02*
X1320800Y1193800D01*
X1188550Y1536700D02*
X1273090Y1452160D01*
X838200Y1536700D02*
X1188550Y1536700D01*
D45*
X647700Y1600200D02*
X774700Y1600200D01*
D46*
X1320800Y1193800D02*
X1581150Y1193800D01*
%TD*%
%TA.AperFunction,Conductor*%
%TO.N,+5V*%
G36*
X1258948Y3580082D02*
G01*
X1266714Y3574038D01*
X1266715Y3574037D01*
X1276577Y3568700D01*
X1287823Y3562614D01*
X1287824Y3562614D01*
X1287824Y3562614D01*
X1310524Y3554821D01*
X1310524Y3554821D01*
X1310525Y3554820D01*
X1334199Y3550870D01*
X1334199Y3550870D01*
X1358201Y3550870D01*
X1358201Y3550870D01*
X1381876Y3554820D01*
X1404577Y3562614D01*
X1425686Y3574038D01*
X1433452Y3580082D01*
X1437291Y3581400D01*
X1509109Y3581400D01*
X1512948Y3580082D01*
X1520714Y3574038D01*
X1520714Y3574037D01*
X1530577Y3568700D01*
X1541823Y3562614D01*
X1541824Y3562614D01*
X1541824Y3562614D01*
X1564524Y3554821D01*
X1564524Y3554821D01*
X1564524Y3554820D01*
X1588199Y3550870D01*
X1588199Y3550870D01*
X1612201Y3550870D01*
X1612201Y3550870D01*
X1635875Y3554820D01*
X1658577Y3562614D01*
X1679686Y3574038D01*
X1687452Y3580082D01*
X1691291Y3581400D01*
X1763109Y3581400D01*
X1766948Y3580082D01*
X1774714Y3574038D01*
X1774714Y3574037D01*
X1784577Y3568700D01*
X1795823Y3562614D01*
X1795824Y3562614D01*
X1795824Y3562614D01*
X1818524Y3554821D01*
X1818524Y3554821D01*
X1818524Y3554820D01*
X1842199Y3550870D01*
X1842199Y3550870D01*
X1866201Y3550870D01*
X1866201Y3550870D01*
X1889875Y3554820D01*
X1912577Y3562614D01*
X1933686Y3574038D01*
X1941452Y3580082D01*
X1945291Y3581400D01*
X2495482Y3581400D01*
X2499901Y3579569D01*
X2501732Y3575150D01*
X2501729Y3574984D01*
X2500565Y3531202D01*
X2499549Y3527950D01*
X2488390Y3510868D01*
X2488389Y3510868D01*
X2488389Y3510868D01*
X2478748Y3488887D01*
X2472856Y3465620D01*
X2470874Y3441700D01*
X2472856Y3417780D01*
X2478748Y3394513D01*
X2478748Y3394512D01*
X2488389Y3372532D01*
X2488390Y3372532D01*
X2494967Y3362465D01*
X2495982Y3358880D01*
X2493523Y3266424D01*
X2492508Y3263172D01*
X2488390Y3256868D01*
X2488389Y3256868D01*
X2478748Y3234888D01*
X2478748Y3234887D01*
X2472856Y3211620D01*
X2471529Y3195612D01*
X2470874Y3187700D01*
X2472856Y3163780D01*
X2478748Y3140513D01*
X2488389Y3118532D01*
X2488476Y3118400D01*
X2488492Y3118343D01*
X2488512Y3118305D01*
X2488504Y3118300D01*
X2489491Y3114815D01*
X2486426Y2999541D01*
X2485902Y2997197D01*
X2478748Y2980887D01*
X2472856Y2957620D01*
X2472856Y2957619D01*
X2471418Y2940275D01*
X2469229Y2936022D01*
X2464674Y2934563D01*
X2460770Y2936372D01*
X2452618Y2944524D01*
X2442221Y2949115D01*
X2439679Y2949410D01*
X2380490Y2949410D01*
X2380490Y2877060D01*
X2465540Y2877060D01*
X2465540Y2888529D01*
X2467371Y2892948D01*
X2471790Y2894779D01*
X2476209Y2892948D01*
X2477849Y2890063D01*
X2478237Y2888529D01*
X2478748Y2886512D01*
X2482591Y2877750D01*
X2483116Y2875073D01*
X2480674Y2783252D01*
X2478726Y2778883D01*
X2474260Y2777171D01*
X2471244Y2778039D01*
X2464407Y2782083D01*
X2461534Y2785908D01*
X2461871Y2789987D01*
X2465245Y2797629D01*
X2465540Y2800171D01*
X2465540Y2846660D01*
X2265040Y2846660D01*
X2265040Y2800171D01*
X2265335Y2797629D01*
X2265335Y2797629D01*
X2268709Y2789987D01*
X2268820Y2785204D01*
X2266173Y2782083D01*
X2257749Y2777101D01*
X2246850Y2766201D01*
X2240502Y2755467D01*
X2239256Y2753360D01*
X2239003Y2752932D01*
X2234702Y2738130D01*
X2234702Y2738130D01*
X2234430Y2734672D01*
X2234430Y2608048D01*
X2234702Y2604590D01*
X2234702Y2604590D01*
X2239003Y2589787D01*
X2245037Y2579584D01*
X2246850Y2576519D01*
X2249142Y2574227D01*
X2250973Y2569807D01*
X2250387Y2567166D01*
X2247842Y2561708D01*
X2242203Y2540665D01*
X2242203Y2540663D01*
X2240304Y2518960D01*
X2240304Y2518960D01*
X2242203Y2497257D01*
X2242203Y2497255D01*
X2247842Y2476214D01*
X2247842Y2476212D01*
X2257049Y2456468D01*
X2257049Y2456467D01*
X2269546Y2438621D01*
X2284951Y2423216D01*
X2285446Y2422869D01*
X2302797Y2410719D01*
X2302797Y2410719D01*
X2302798Y2410719D01*
X2317572Y2403830D01*
X2322542Y2401512D01*
X2322543Y2401512D01*
X2322543Y2401512D01*
X2343585Y2395874D01*
X2343586Y2395873D01*
X2343587Y2395873D01*
X2356609Y2394734D01*
X2365290Y2393974D01*
X2365290Y2393974D01*
X2365290Y2393974D01*
X2372524Y2394607D01*
X2386994Y2395873D01*
X2386994Y2395874D01*
X2386995Y2395874D01*
X2408037Y2401512D01*
X2408037Y2401512D01*
X2408038Y2401512D01*
X2427783Y2410719D01*
X2445629Y2423216D01*
X2460711Y2438297D01*
X2465130Y2440128D01*
X2469549Y2438297D01*
X2471380Y2433878D01*
X2471378Y2433711D01*
X2471305Y2430963D01*
X2471295Y2430788D01*
X2470874Y2425700D01*
X2471080Y2423210D01*
X2471089Y2422869D01*
X2467052Y2271044D01*
X2465104Y2266675D01*
X2460804Y2264960D01*
X2217392Y2264960D01*
X2213988Y2265968D01*
X2213748Y2266124D01*
X2207299Y2269410D01*
X2207156Y2269488D01*
X2200887Y2273107D01*
X2199025Y2273712D01*
X2198120Y2274087D01*
X2196376Y2274976D01*
X2196375Y2274976D01*
X2189383Y2276850D01*
X2189227Y2276896D01*
X2183920Y2278620D01*
X2182342Y2279133D01*
X2182342Y2279133D01*
X2180395Y2279338D01*
X2179431Y2279516D01*
X2177540Y2280023D01*
X2173318Y2280244D01*
X2170310Y2280402D01*
X2170150Y2280414D01*
X2167812Y2280660D01*
X2167811Y2280660D01*
X2165460Y2280660D01*
X2165297Y2280664D01*
X2164302Y2280717D01*
X2158069Y2281043D01*
X2156135Y2280737D01*
X2155158Y2280660D01*
X1594361Y2280660D01*
X1589942Y2282491D01*
X1506831Y2365602D01*
X1505000Y2370021D01*
X1505000Y2496870D01*
X1506831Y2501290D01*
X1511250Y2503120D01*
X1518732Y2503120D01*
X1520708Y2503276D01*
X1522190Y2503392D01*
X1536993Y2507693D01*
X1550261Y2515540D01*
X1561160Y2526439D01*
X1569007Y2539707D01*
X1573308Y2554510D01*
X1573580Y2557969D01*
X1573580Y2675161D01*
X1911430Y2675161D01*
X1911725Y2672619D01*
X1911725Y2672619D01*
X1916316Y2662222D01*
X1924352Y2654186D01*
X1934749Y2649595D01*
X1937291Y2649300D01*
X2147029Y2649300D01*
X2149571Y2649595D01*
X2149571Y2649595D01*
X2159968Y2654186D01*
X2168004Y2662222D01*
X2172595Y2672620D01*
X2172890Y2675161D01*
X2172890Y2717974D01*
X2042160Y2848704D01*
X1911430Y2717974D01*
X1911430Y2675161D01*
X1573580Y2675161D01*
X1573580Y2720151D01*
X1573308Y2723610D01*
X1569007Y2738413D01*
X1561160Y2751681D01*
X1561160Y2751681D01*
X1561160Y2751681D01*
X1550261Y2762581D01*
X1550261Y2762581D01*
X1540947Y2768089D01*
X1538075Y2771914D01*
X1538411Y2775993D01*
X1542675Y2785650D01*
X1542970Y2788191D01*
X1542970Y2947129D01*
X1542675Y2949671D01*
X1542675Y2949671D01*
X1538411Y2959327D01*
X1538301Y2964110D01*
X1540947Y2967231D01*
X1550261Y2972739D01*
X1556955Y2979434D01*
X1911430Y2979434D01*
X1911430Y2760966D01*
X2020664Y2870200D01*
X2063656Y2870200D01*
X2172890Y2760966D01*
X2172890Y2760966D01*
X2172890Y2877060D01*
X2265040Y2877060D01*
X2350090Y2877060D01*
X2350090Y2949410D01*
X2290901Y2949410D01*
X2288359Y2949115D01*
X2288359Y2949115D01*
X2277962Y2944524D01*
X2269926Y2936488D01*
X2265335Y2926091D01*
X2265040Y2923549D01*
X2265040Y2877060D01*
X2172890Y2877060D01*
X2172890Y2979434D01*
X2172890Y2979434D01*
X2063656Y2870200D01*
X2063656Y2870200D01*
X2020664Y2870200D01*
X2020664Y2870200D01*
X1911430Y2979434D01*
X1556955Y2979434D01*
X1561160Y2983639D01*
X1569007Y2996907D01*
X1573308Y3011710D01*
X1573580Y3015169D01*
X1573580Y3022426D01*
X1911430Y3022426D01*
X2042160Y2891696D01*
X2172890Y3022426D01*
X2172890Y3065239D01*
X2172595Y3067781D01*
X2172595Y3067781D01*
X2168004Y3078178D01*
X2159968Y3086214D01*
X2149571Y3090805D01*
X2147029Y3091100D01*
X1937291Y3091100D01*
X1934749Y3090805D01*
X1934749Y3090805D01*
X1924352Y3086214D01*
X1916316Y3078178D01*
X1911725Y3067781D01*
X1911430Y3065239D01*
X1911430Y3022426D01*
X1573580Y3022426D01*
X1573580Y3177351D01*
X1573308Y3180810D01*
X1569007Y3195613D01*
X1561160Y3208881D01*
X1561160Y3208881D01*
X1561160Y3208881D01*
X1550261Y3219781D01*
X1550261Y3219781D01*
X1537898Y3227092D01*
X1535025Y3230917D01*
X1535415Y3235113D01*
X1535819Y3235981D01*
X1541556Y3257391D01*
X1541752Y3258122D01*
X1541752Y3258123D01*
X1541752Y3258123D01*
X1543750Y3280960D01*
X1541752Y3303796D01*
X1540261Y3309362D01*
X1535819Y3325939D01*
X1535819Y3325939D01*
X1531697Y3334780D01*
X1526131Y3346715D01*
X1522124Y3352439D01*
X1512983Y3365493D01*
X1496773Y3381703D01*
X1484827Y3390068D01*
X1477995Y3394851D01*
X1477995Y3394851D01*
X1477995Y3394851D01*
X1457219Y3404539D01*
X1457219Y3404540D01*
X1435078Y3410472D01*
X1435076Y3410473D01*
X1412240Y3412470D01*
X1412240Y3412470D01*
X1389404Y3410473D01*
X1389402Y3410472D01*
X1367261Y3404540D01*
X1367261Y3404539D01*
X1346485Y3394851D01*
X1327707Y3381703D01*
X1311497Y3365493D01*
X1298349Y3346715D01*
X1288661Y3325939D01*
X1288660Y3325939D01*
X1282728Y3303798D01*
X1282727Y3303796D01*
X1280730Y3280960D01*
X1280730Y3280960D01*
X1282357Y3262355D01*
X1280919Y3257793D01*
X1276676Y3255584D01*
X1276131Y3255560D01*
X1224248Y3255560D01*
X1219828Y3257391D01*
X1219015Y3258392D01*
X1217445Y3260795D01*
X1216431Y3264018D01*
X1213416Y3360377D01*
X1214430Y3363990D01*
X1220011Y3372532D01*
X1229652Y3394513D01*
X1235544Y3417780D01*
X1237526Y3441700D01*
X1235544Y3465620D01*
X1229652Y3488887D01*
X1220011Y3510868D01*
X1209098Y3527571D01*
X1208083Y3530794D01*
X1206702Y3574955D01*
X1208393Y3579429D01*
X1212753Y3581397D01*
X1212949Y3581400D01*
X1255109Y3581400D01*
X1258948Y3580082D01*
G37*
%TD.AperFunction*%
%TD*%
%TA.AperFunction,Conductor*%
%TO.N,GND*%
G36*
X1194458Y1312138D02*
G01*
X1200187Y1307850D01*
X1202688Y1301145D01*
X1202720Y1300239D01*
X1202720Y1243827D01*
X1202708Y1243443D01*
X1202289Y1236505D01*
X1199862Y1229773D01*
X1194181Y1225422D01*
X1188733Y1224602D01*
X1182997Y1225001D01*
X1136792Y1178796D01*
X1130376Y1188780D01*
X1119510Y1198195D01*
X1115178Y1200174D01*
X1161807Y1246803D01*
X1161328Y1247240D01*
X1161328Y1247240D01*
X1143331Y1258384D01*
X1138957Y1260078D01*
X1133283Y1264438D01*
X1130867Y1271174D01*
X1132476Y1278147D01*
X1137599Y1283143D01*
X1138177Y1283430D01*
X1143367Y1285850D01*
X1159391Y1293322D01*
X1178579Y1306758D01*
X1181040Y1309219D01*
X1187320Y1312649D01*
X1194458Y1312138D01*
G37*
%TD.AperFunction*%
%TA.AperFunction,Conductor*%
G36*
X2374656Y2684544D02*
G01*
X2379342Y2679136D01*
X2380490Y2673860D01*
X2380490Y2583810D01*
X2380490Y2583810D01*
X2439678Y2583810D01*
X2439680Y2583810D01*
X2442220Y2584105D01*
X2442221Y2584105D01*
X2452618Y2588696D01*
X2460654Y2596732D01*
X2465245Y2607130D01*
X2465540Y2609671D01*
X2465540Y2628742D01*
X2467556Y2635608D01*
X2472964Y2640294D01*
X2480047Y2641313D01*
X2486557Y2638340D01*
X2489750Y2634109D01*
X2499822Y2612510D01*
X2499823Y2612509D01*
X2509703Y2598399D01*
X2513258Y2593321D01*
X2529821Y2576758D01*
X2531494Y2575586D01*
X2549322Y2563103D01*
X2553790Y2557514D01*
X2554527Y2550396D01*
X2551298Y2544009D01*
X2549322Y2542297D01*
X2529822Y2528643D01*
X2529822Y2528642D01*
X2513258Y2512078D01*
X2513257Y2512078D01*
X2505367Y2500810D01*
X2499778Y2496342D01*
X2492660Y2495605D01*
X2490104Y2496361D01*
X2488669Y2496955D01*
X2487722Y2497330D01*
X2486873Y2497666D01*
X2486873Y2497667D01*
X2471882Y2501266D01*
X2471881Y2501266D01*
X2456465Y2501024D01*
X2456464Y2501024D01*
X2441593Y2496956D01*
X2441592Y2496956D01*
X2437173Y2495125D01*
X2429399Y2491241D01*
X2417216Y2481790D01*
X2406726Y2471300D01*
X2405030Y2469878D01*
X2397820Y2464830D01*
X2395903Y2463723D01*
X2387927Y2460003D01*
X2385847Y2459246D01*
X2377344Y2456968D01*
X2375164Y2456583D01*
X2366397Y2455816D01*
X2364183Y2455816D01*
X2355416Y2456583D01*
X2353236Y2456968D01*
X2344733Y2459246D01*
X2342653Y2460003D01*
X2334677Y2463722D01*
X2332760Y2464829D01*
X2325550Y2469878D01*
X2323854Y2471301D01*
X2317630Y2477524D01*
X2316208Y2479220D01*
X2311159Y2486430D01*
X2310052Y2488347D01*
X2306333Y2496324D01*
X2305576Y2498403D01*
X2303298Y2506905D01*
X2302913Y2509084D01*
X2302146Y2517854D01*
X2302146Y2520067D01*
X2302913Y2528836D01*
X2303297Y2531015D01*
X2305689Y2539940D01*
X2305931Y2540664D01*
X2306134Y2541170D01*
X2306135Y2541172D01*
X2310439Y2553854D01*
X2311025Y2556495D01*
X2312111Y2563058D01*
X2311988Y2570911D01*
X2313896Y2577808D01*
X2319230Y2582578D01*
X2324686Y2583810D01*
X2350090Y2583810D01*
X2350090Y2583810D01*
X2350090Y2673860D01*
X2352106Y2680726D01*
X2357514Y2685412D01*
X2362790Y2686560D01*
X2367790Y2686560D01*
X2374656Y2684544D01*
G37*
%TD.AperFunction*%
%TA.AperFunction,Conductor*%
G36*
X708880Y3369634D02*
G01*
X712646Y3365896D01*
X722139Y3351366D01*
X724148Y3349184D01*
X738478Y3333618D01*
X738591Y3333495D01*
X751573Y3323391D01*
X757759Y3318576D01*
X779122Y3307015D01*
X802096Y3299128D01*
X826055Y3295130D01*
X826055Y3295130D01*
X850345Y3295130D01*
X850345Y3295130D01*
X874304Y3299128D01*
X897278Y3307015D01*
X918641Y3318576D01*
X937809Y3333495D01*
X954261Y3351366D01*
X962222Y3363553D01*
X967665Y3368198D01*
X974756Y3369163D01*
X981243Y3366142D01*
X983257Y3363891D01*
X987983Y3357143D01*
X989258Y3355321D01*
X1005821Y3338758D01*
X1005822Y3338758D01*
X1005822Y3338757D01*
X1025322Y3325103D01*
X1029790Y3319514D01*
X1030527Y3312396D01*
X1027298Y3306009D01*
X1025322Y3304297D01*
X1005821Y3290642D01*
X989258Y3274078D01*
X989257Y3274078D01*
X975823Y3254891D01*
X975822Y3254890D01*
X965923Y3233662D01*
X965923Y3233661D01*
X965923Y3233661D01*
X964142Y3227015D01*
X959860Y3211035D01*
X959210Y3203606D01*
X957819Y3187700D01*
X957836Y3187498D01*
X959860Y3164365D01*
X962796Y3153410D01*
X965923Y3141739D01*
X965923Y3141738D01*
X965923Y3141738D01*
X975822Y3120510D01*
X975823Y3120509D01*
X984418Y3108233D01*
X989258Y3101321D01*
X1005821Y3084758D01*
X1005822Y3084758D01*
X1005822Y3084757D01*
X1025322Y3071103D01*
X1029790Y3065513D01*
X1030527Y3058395D01*
X1027298Y3052009D01*
X1025322Y3050297D01*
X1005822Y3036643D01*
X1005822Y3036642D01*
X989258Y3020078D01*
X989257Y3020078D01*
X975823Y3000891D01*
X975822Y3000890D01*
X965923Y2979662D01*
X965923Y2979661D01*
X965923Y2979661D01*
X961507Y2963182D01*
X960767Y2960420D01*
X957043Y2954310D01*
X950606Y2951183D01*
X943500Y2952032D01*
X937982Y2956589D01*
X935803Y2963405D01*
X935800Y2963707D01*
X935800Y2965538D01*
X935800Y2965540D01*
X935505Y2968080D01*
X935505Y2968081D01*
X930914Y2978478D01*
X922878Y2986514D01*
X912480Y2991105D01*
X909939Y2991400D01*
X825600Y2991400D01*
X825600Y2991400D01*
X825600Y2850600D01*
X825600Y2850600D01*
X909938Y2850600D01*
X909940Y2850600D01*
X912480Y2850895D01*
X912481Y2850895D01*
X922878Y2855486D01*
X930914Y2863522D01*
X935505Y2873919D01*
X935800Y2876461D01*
X935800Y2903693D01*
X937816Y2910559D01*
X943224Y2915245D01*
X950307Y2916263D01*
X956817Y2913291D01*
X960685Y2907271D01*
X960767Y2906980D01*
X965923Y2887738D01*
X975822Y2866510D01*
X975823Y2866509D01*
X987510Y2849818D01*
X989258Y2847321D01*
X1005821Y2830758D01*
X1005822Y2830758D01*
X1005822Y2830757D01*
X1025322Y2817103D01*
X1029790Y2811513D01*
X1030527Y2804395D01*
X1027298Y2798009D01*
X1025322Y2796297D01*
X1005822Y2782643D01*
X1005822Y2782642D01*
X989258Y2766078D01*
X989257Y2766078D01*
X975823Y2746891D01*
X975822Y2746890D01*
X965923Y2725662D01*
X965923Y2725661D01*
X965923Y2725661D01*
X965277Y2723250D01*
X959860Y2703036D01*
X957819Y2679700D01*
X959860Y2656365D01*
X962796Y2645410D01*
X965923Y2633739D01*
X965923Y2633739D01*
X965923Y2633738D01*
X975822Y2612510D01*
X975823Y2612509D01*
X981022Y2605083D01*
X983309Y2598302D01*
X981567Y2591361D01*
X976349Y2586464D01*
X969312Y2585166D01*
X963008Y2587632D01*
X958893Y2590712D01*
X945408Y2595742D01*
X945408Y2595742D01*
X945408Y2595742D01*
X939448Y2596383D01*
X939447Y2596383D01*
X929336Y2596383D01*
X922470Y2598399D01*
X920356Y2600102D01*
X919856Y2600602D01*
X919593Y2600881D01*
X915485Y2605518D01*
X915457Y2605538D01*
X910384Y2609039D01*
X910077Y2609265D01*
X905198Y2613088D01*
X905198Y2613088D01*
X904298Y2613493D01*
X902297Y2614622D01*
X901485Y2615182D01*
X901485Y2615182D01*
X901485Y2615182D01*
X901485Y2615182D01*
X895692Y2617379D01*
X895337Y2617526D01*
X889685Y2620070D01*
X888714Y2620248D01*
X886501Y2620865D01*
X885580Y2621214D01*
X885579Y2621214D01*
X885579Y2621214D01*
X881961Y2621653D01*
X879429Y2621961D01*
X879050Y2622019D01*
X872953Y2623136D01*
X872952Y2623136D01*
X869549Y2622930D01*
X866767Y2622762D01*
X866384Y2622750D01*
X824055Y2622750D01*
X817189Y2624766D01*
X814126Y2627531D01*
X806755Y2636775D01*
X806755Y2636775D01*
X790330Y2651125D01*
X790329Y2651125D01*
X771606Y2662312D01*
X751186Y2669976D01*
X729724Y2673870D01*
X729310Y2673908D01*
X722653Y2676532D01*
X718471Y2682339D01*
X717750Y2686556D01*
X717750Y2778993D01*
X717762Y2779376D01*
X718136Y2785561D01*
X717019Y2791656D01*
X716961Y2792036D01*
X716214Y2798187D01*
X715864Y2799109D01*
X715247Y2801324D01*
X715069Y2802293D01*
X712525Y2807945D01*
X712379Y2808299D01*
X712112Y2809004D01*
X710182Y2814093D01*
X709621Y2814905D01*
X708492Y2816908D01*
X708088Y2817805D01*
X708088Y2817806D01*
X707008Y2819183D01*
X704265Y2822685D01*
X704039Y2822992D01*
X702713Y2824913D01*
X700518Y2828093D01*
X700518Y2828093D01*
X700518Y2828093D01*
X699949Y2828598D01*
X696146Y2834660D01*
X696225Y2841815D01*
X700159Y2847793D01*
X706701Y2850694D01*
X709834Y2850719D01*
X710860Y2850600D01*
X795200Y2850600D01*
X795200Y2850600D01*
X795200Y2905800D01*
X795200Y2905800D01*
X685000Y2905800D01*
X685000Y2876462D01*
X685000Y2876460D01*
X685178Y2874926D01*
X683966Y2867874D01*
X679134Y2862596D01*
X672215Y2860769D01*
X665406Y2862972D01*
X663582Y2864483D01*
X658398Y2869668D01*
X654968Y2875949D01*
X654903Y2876350D01*
X654809Y2876748D01*
X654809Y2876748D01*
X654809Y2876748D01*
X649780Y2890233D01*
X641155Y2901755D01*
X629633Y2910380D01*
X629633Y2910380D01*
X629027Y2910833D01*
X624739Y2916562D01*
X624228Y2923700D01*
X627658Y2929980D01*
X629027Y2931167D01*
X629633Y2931620D01*
X629633Y2931620D01*
X635751Y2936200D01*
X685000Y2936200D01*
X685000Y2936200D01*
X795200Y2936200D01*
X795200Y2936200D01*
X795200Y2991400D01*
X795200Y2991400D01*
X710862Y2991400D01*
X710860Y2991400D01*
X708320Y2991105D01*
X708319Y2991105D01*
X697922Y2986514D01*
X689886Y2978478D01*
X685295Y2968081D01*
X685000Y2965539D01*
X685000Y2936200D01*
X635751Y2936200D01*
X641155Y2940245D01*
X649780Y2951767D01*
X654809Y2965252D01*
X655450Y2971213D01*
X655450Y3060787D01*
X654809Y3066748D01*
X649780Y3080233D01*
X641155Y3091755D01*
X641154Y3091755D01*
X629633Y3100379D01*
X629633Y3100380D01*
X617559Y3104883D01*
X611830Y3109172D01*
X609329Y3115876D01*
X610850Y3122869D01*
X615910Y3127929D01*
X618710Y3129050D01*
X627775Y3131478D01*
X647902Y3140864D01*
X662687Y3151217D01*
X600175Y3213729D01*
X608385Y3217912D01*
X617488Y3227015D01*
X621671Y3235225D01*
X684183Y3172713D01*
X694536Y3187498D01*
X703921Y3207625D01*
X709669Y3229076D01*
X711605Y3251200D01*
X709669Y3273324D01*
X703921Y3294775D01*
X694536Y3314901D01*
X694536Y3314902D01*
X684183Y3329687D01*
X621671Y3267176D01*
X617488Y3275385D01*
X608385Y3284488D01*
X600175Y3288672D01*
X662687Y3351183D01*
X662483Y3353512D01*
X661984Y3354137D01*
X661248Y3361255D01*
X664476Y3367641D01*
X670645Y3371268D01*
X673737Y3371650D01*
X702014Y3371650D01*
X708880Y3369634D01*
G37*
%TD.AperFunction*%
%TA.AperFunction,Conductor*%
G36*
X501529Y3369634D02*
G01*
X506215Y3364226D01*
X507234Y3357143D01*
X505997Y3354435D01*
X505713Y3351183D01*
X568225Y3288671D01*
X560015Y3284488D01*
X550912Y3275385D01*
X546729Y3267175D01*
X484217Y3329687D01*
X484216Y3329687D01*
X473864Y3314903D01*
X473864Y3314902D01*
X464478Y3294775D01*
X458731Y3273324D01*
X456795Y3251200D01*
X458731Y3229076D01*
X464478Y3207625D01*
X473864Y3187498D01*
X473864Y3187498D01*
X484217Y3172713D01*
X546728Y3235225D01*
X550912Y3227015D01*
X560015Y3217912D01*
X568225Y3213729D01*
X505713Y3151217D01*
X520498Y3140864D01*
X520499Y3140864D01*
X540625Y3131478D01*
X542347Y3131017D01*
X548457Y3127293D01*
X551584Y3120856D01*
X550734Y3113751D01*
X546178Y3108233D01*
X539362Y3106054D01*
X539060Y3106050D01*
X412950Y3106050D01*
X406084Y3108066D01*
X401398Y3113474D01*
X400250Y3118750D01*
X400250Y3343924D01*
X402266Y3350790D01*
X403970Y3352904D01*
X418996Y3367930D01*
X425277Y3371360D01*
X427976Y3371650D01*
X494663Y3371650D01*
X501529Y3369634D01*
G37*
%TD.AperFunction*%
%TA.AperFunction,Conductor*%
G36*
X1423248Y3349762D02*
G01*
X1425427Y3349378D01*
X1434319Y3346996D01*
X1435027Y3346806D01*
X1437108Y3346049D01*
X1446116Y3341848D01*
X1448032Y3340742D01*
X1456175Y3335040D01*
X1457870Y3333618D01*
X1464897Y3326591D01*
X1466320Y3324895D01*
X1472022Y3316752D01*
X1473128Y3314835D01*
X1477328Y3305829D01*
X1478085Y3303748D01*
X1480658Y3294148D01*
X1481042Y3291967D01*
X1481908Y3282067D01*
X1481908Y3279853D01*
X1481042Y3269953D01*
X1480658Y3267772D01*
X1475703Y3249280D01*
X1475785Y3248942D01*
X1475498Y3246798D01*
X1474168Y3240795D01*
X1474167Y3240793D01*
X1473778Y3236599D01*
X1474129Y3222251D01*
X1475390Y3217641D01*
X1475257Y3210486D01*
X1471277Y3204539D01*
X1464714Y3201688D01*
X1463140Y3201590D01*
X1340566Y3201590D01*
X1333700Y3203606D01*
X1329014Y3209014D01*
X1327995Y3216097D01*
X1330710Y3222299D01*
X1333139Y3225289D01*
X1339582Y3239296D01*
X1341021Y3243859D01*
X1343041Y3252308D01*
X1343633Y3267715D01*
X1342571Y3279853D01*
X1342571Y3282066D01*
X1343438Y3291969D01*
X1343822Y3294147D01*
X1346395Y3303749D01*
X1347151Y3305827D01*
X1351352Y3314837D01*
X1352458Y3316752D01*
X1358160Y3324895D01*
X1359582Y3326590D01*
X1366610Y3333618D01*
X1368305Y3335040D01*
X1376448Y3340742D01*
X1378364Y3341848D01*
X1387372Y3346049D01*
X1389451Y3346805D01*
X1399052Y3349378D01*
X1401231Y3349762D01*
X1411133Y3350629D01*
X1413346Y3350629D01*
X1423248Y3349762D01*
G37*
%TD.AperFunction*%
%TA.AperFunction,Conductor*%
G36*
X2940566Y4214384D02*
G01*
X2945252Y4208976D01*
X2946400Y4203700D01*
X2946400Y42750D01*
X2944384Y35884D01*
X2938976Y31198D01*
X2933700Y30050D01*
X42750Y30050D01*
X35884Y32066D01*
X31198Y37474D01*
X30050Y42750D01*
X30050Y643992D01*
X251194Y643992D01*
X252195Y625519D01*
X257144Y607695D01*
X257144Y607694D01*
X257145Y607694D01*
X265810Y591350D01*
X272074Y583975D01*
X277786Y577250D01*
X277787Y577250D01*
X291066Y567155D01*
X292514Y566055D01*
X309303Y558287D01*
X327370Y554310D01*
X327370Y554310D01*
X341232Y554310D01*
X341232Y554310D01*
X355011Y555809D01*
X372542Y561716D01*
X388394Y571253D01*
X401824Y583975D01*
X412206Y599287D01*
X419053Y616473D01*
X422046Y634728D01*
X421044Y653201D01*
X417025Y667678D01*
X416095Y671026D01*
X416095Y671026D01*
X416095Y671026D01*
X407430Y687370D01*
X395454Y701470D01*
X395453Y701470D01*
X380726Y712665D01*
X380726Y712666D01*
X363936Y720433D01*
X350213Y723454D01*
X345870Y724410D01*
X332009Y724410D01*
X332008Y724410D01*
X318229Y722911D01*
X318229Y722911D01*
X300698Y717004D01*
X284847Y707467D01*
X284846Y707466D01*
X271416Y694745D01*
X261034Y679433D01*
X254187Y662248D01*
X254187Y662247D01*
X251194Y643992D01*
X251194Y643992D01*
X30050Y643992D01*
X30050Y906332D01*
X244774Y906332D01*
X245775Y887859D01*
X250724Y870034D01*
X250724Y870034D01*
X250725Y870034D01*
X259390Y853690D01*
X269980Y841222D01*
X271366Y839590D01*
X271367Y839590D01*
X283858Y830094D01*
X286094Y828395D01*
X302883Y820627D01*
X320950Y816650D01*
X320950Y816650D01*
X334812Y816650D01*
X334812Y816650D01*
X336930Y816880D01*
X348591Y818149D01*
X366122Y824056D01*
X381974Y833593D01*
X395404Y846315D01*
X405786Y861627D01*
X412633Y878812D01*
X415626Y897068D01*
X414624Y915541D01*
X409675Y933366D01*
X401010Y949710D01*
X389034Y963810D01*
X389033Y963810D01*
X374306Y975005D01*
X374306Y975006D01*
X357516Y982773D01*
X344549Y985628D01*
X339450Y986750D01*
X325589Y986750D01*
X325588Y986750D01*
X311809Y985251D01*
X311809Y985251D01*
X294278Y979344D01*
X278427Y969807D01*
X278426Y969806D01*
X264996Y957085D01*
X254614Y941773D01*
X247767Y924588D01*
X247767Y924587D01*
X244774Y906332D01*
X244774Y906332D01*
X30050Y906332D01*
X30050Y1350832D01*
X244774Y1350832D01*
X245775Y1332359D01*
X250724Y1314535D01*
X250724Y1314534D01*
X250725Y1314534D01*
X259390Y1298190D01*
X267439Y1288714D01*
X271366Y1284090D01*
X271367Y1284090D01*
X280219Y1277360D01*
X286094Y1272895D01*
X302883Y1265127D01*
X320950Y1261150D01*
X320950Y1261150D01*
X334812Y1261150D01*
X334812Y1261150D01*
X336930Y1261380D01*
X348591Y1262649D01*
X366122Y1268556D01*
X381974Y1278093D01*
X395404Y1290815D01*
X405786Y1306127D01*
X412633Y1323313D01*
X415626Y1341568D01*
X415375Y1346200D01*
X474569Y1346200D01*
X476529Y1326299D01*
X476529Y1326298D01*
X482334Y1307162D01*
X482334Y1307162D01*
X491760Y1289526D01*
X491761Y1289525D01*
X504447Y1274068D01*
X504448Y1274067D01*
X519905Y1261381D01*
X519906Y1261381D01*
X533903Y1253899D01*
X606369Y1326366D01*
X607658Y1323082D01*
X616251Y1312306D01*
X627579Y1304583D01*
X568027Y1245031D01*
X571592Y1244680D01*
X571593Y1244680D01*
X723807Y1244680D01*
X723808Y1244680D01*
X727373Y1245031D01*
X667442Y1304962D01*
X673746Y1307998D01*
X683849Y1317372D01*
X689038Y1326359D01*
X761497Y1253899D01*
X775494Y1261380D01*
X775495Y1261381D01*
X790952Y1274067D01*
X790953Y1274068D01*
X803639Y1289525D01*
X803640Y1289526D01*
X813066Y1307162D01*
X813066Y1307162D01*
X818871Y1326298D01*
X818871Y1326299D01*
X820831Y1346200D01*
X820831Y1346201D01*
X818871Y1366101D01*
X818871Y1366103D01*
X813066Y1385238D01*
X813066Y1385238D01*
X803640Y1402874D01*
X803639Y1402875D01*
X790953Y1418332D01*
X790952Y1418333D01*
X775495Y1431019D01*
X775494Y1431019D01*
X761497Y1438501D01*
X689031Y1366035D01*
X687742Y1369318D01*
X679149Y1380094D01*
X667821Y1387817D01*
X727373Y1447369D01*
X723807Y1447720D01*
X571593Y1447720D01*
X568027Y1447369D01*
X627958Y1387438D01*
X621654Y1384402D01*
X611551Y1375028D01*
X606363Y1366042D01*
X533903Y1438501D01*
X533903Y1438501D01*
X519906Y1431020D01*
X519905Y1431019D01*
X504448Y1418333D01*
X504447Y1418332D01*
X491761Y1402875D01*
X491760Y1402874D01*
X482334Y1385238D01*
X482334Y1385238D01*
X476529Y1366103D01*
X476529Y1366101D01*
X474569Y1346201D01*
X474569Y1346200D01*
X415375Y1346200D01*
X414624Y1360041D01*
X409675Y1377866D01*
X401010Y1394210D01*
X389034Y1408310D01*
X389033Y1408310D01*
X374306Y1419505D01*
X374306Y1419506D01*
X357516Y1427273D01*
X344549Y1430128D01*
X339450Y1431250D01*
X325589Y1431250D01*
X325588Y1431250D01*
X311809Y1429751D01*
X311809Y1429751D01*
X294278Y1423844D01*
X278427Y1414307D01*
X278426Y1414306D01*
X264996Y1401585D01*
X254614Y1386273D01*
X247767Y1369088D01*
X247767Y1369087D01*
X244774Y1350832D01*
X244774Y1350832D01*
X30050Y1350832D01*
X30050Y1604832D01*
X244774Y1604832D01*
X245775Y1586359D01*
X250724Y1568534D01*
X250724Y1568534D01*
X250725Y1568534D01*
X259390Y1552190D01*
X265654Y1544815D01*
X271366Y1538090D01*
X271367Y1538090D01*
X286094Y1526895D01*
X286094Y1526895D01*
X302883Y1519127D01*
X320950Y1515150D01*
X320950Y1515150D01*
X334812Y1515150D01*
X334812Y1515150D01*
X348591Y1516649D01*
X366122Y1522556D01*
X381974Y1532093D01*
X395404Y1544815D01*
X405786Y1560127D01*
X412633Y1577312D01*
X415626Y1595568D01*
X414624Y1614041D01*
X409675Y1631866D01*
X401010Y1648210D01*
X389034Y1662310D01*
X389033Y1662310D01*
X374306Y1673505D01*
X374306Y1673506D01*
X357516Y1681273D01*
X342521Y1684574D01*
X339450Y1685250D01*
X325589Y1685250D01*
X325588Y1685250D01*
X311809Y1683751D01*
X311809Y1683751D01*
X294278Y1677844D01*
X278427Y1668307D01*
X278426Y1668306D01*
X264996Y1655585D01*
X254614Y1640273D01*
X247767Y1623088D01*
X247767Y1623087D01*
X244774Y1604832D01*
X244774Y1604832D01*
X30050Y1604832D01*
X30050Y1858832D01*
X244774Y1858832D01*
X245775Y1840359D01*
X250724Y1822534D01*
X250724Y1822534D01*
X250725Y1822534D01*
X259390Y1806190D01*
X265654Y1798815D01*
X271366Y1792090D01*
X271367Y1792090D01*
X280219Y1785360D01*
X286094Y1780895D01*
X302883Y1773127D01*
X320950Y1769150D01*
X320950Y1769150D01*
X334812Y1769150D01*
X334812Y1769150D01*
X348591Y1770649D01*
X366122Y1776556D01*
X381974Y1786093D01*
X395404Y1798815D01*
X405786Y1814127D01*
X412633Y1831312D01*
X415626Y1849568D01*
X414624Y1868041D01*
X410306Y1883596D01*
X409675Y1885866D01*
X409675Y1885866D01*
X409675Y1885866D01*
X401010Y1902210D01*
X389034Y1916310D01*
X389033Y1916310D01*
X374306Y1927505D01*
X374306Y1927506D01*
X357516Y1935273D01*
X343882Y1938274D01*
X339450Y1939250D01*
X325589Y1939250D01*
X325588Y1939250D01*
X311809Y1937751D01*
X311809Y1937751D01*
X294278Y1931844D01*
X278427Y1922307D01*
X278426Y1922306D01*
X264996Y1909585D01*
X254614Y1894273D01*
X247767Y1877088D01*
X247767Y1877087D01*
X244774Y1858832D01*
X244774Y1858832D01*
X30050Y1858832D01*
X30050Y2303332D01*
X244774Y2303332D01*
X245775Y2284859D01*
X250724Y2267035D01*
X250724Y2267034D01*
X250725Y2267034D01*
X259390Y2250690D01*
X265654Y2243315D01*
X271366Y2236590D01*
X271367Y2236590D01*
X283658Y2227246D01*
X286094Y2225395D01*
X302883Y2217627D01*
X320950Y2213650D01*
X320950Y2213650D01*
X334812Y2213650D01*
X334812Y2213650D01*
X348591Y2215149D01*
X366122Y2221056D01*
X381974Y2230593D01*
X395404Y2243315D01*
X405786Y2258627D01*
X412633Y2275813D01*
X415626Y2294068D01*
X414624Y2312541D01*
X409675Y2330366D01*
X401010Y2346710D01*
X389034Y2360810D01*
X389033Y2360810D01*
X374306Y2372006D01*
X374306Y2372006D01*
X357516Y2379773D01*
X344549Y2382628D01*
X339450Y2383750D01*
X325589Y2383750D01*
X325588Y2383750D01*
X311809Y2382252D01*
X311809Y2382252D01*
X294278Y2376344D01*
X278427Y2366807D01*
X278426Y2366806D01*
X264996Y2354085D01*
X254614Y2338773D01*
X247767Y2321588D01*
X247767Y2321587D01*
X244774Y2303332D01*
X244774Y2303332D01*
X30050Y2303332D01*
X30050Y2557332D01*
X244774Y2557332D01*
X245775Y2538859D01*
X250724Y2521035D01*
X250724Y2521034D01*
X250725Y2521034D01*
X259390Y2504690D01*
X266465Y2496361D01*
X271366Y2490590D01*
X271367Y2490590D01*
X282942Y2481790D01*
X286094Y2479395D01*
X302883Y2471627D01*
X320950Y2467650D01*
X320950Y2467650D01*
X334812Y2467650D01*
X334812Y2467650D01*
X348591Y2469149D01*
X366122Y2475056D01*
X381974Y2484593D01*
X395404Y2497315D01*
X405786Y2512627D01*
X412633Y2529813D01*
X415626Y2548068D01*
X414624Y2566541D01*
X409748Y2584105D01*
X409675Y2584366D01*
X409675Y2584366D01*
X409675Y2584366D01*
X401010Y2600710D01*
X389034Y2614810D01*
X389033Y2614810D01*
X374306Y2626006D01*
X374306Y2626006D01*
X357516Y2633773D01*
X343880Y2636775D01*
X339450Y2637750D01*
X325589Y2637750D01*
X325588Y2637750D01*
X311809Y2636252D01*
X311809Y2636252D01*
X294278Y2630344D01*
X278427Y2620807D01*
X278426Y2620806D01*
X264996Y2608085D01*
X254614Y2592773D01*
X247767Y2575588D01*
X247767Y2575587D01*
X244774Y2557332D01*
X244774Y2557332D01*
X30050Y2557332D01*
X30050Y3043740D01*
X259764Y3043740D01*
X259764Y3043739D01*
X260881Y3037643D01*
X260939Y3037263D01*
X261686Y3031113D01*
X261686Y3031112D01*
X262035Y3030191D01*
X262653Y3027978D01*
X262830Y3027007D01*
X265374Y3021355D01*
X265521Y3021000D01*
X267718Y3015208D01*
X267718Y3015207D01*
X267718Y3015207D01*
X267718Y3015207D01*
X268278Y3014395D01*
X269407Y3012394D01*
X269812Y3011494D01*
X269812Y3011494D01*
X273635Y3006615D01*
X273861Y3006308D01*
X275533Y3003885D01*
X277382Y3001207D01*
X282019Y2997099D01*
X282298Y2996836D01*
X311035Y2968099D01*
X311298Y2967819D01*
X315407Y2963182D01*
X315407Y2963182D01*
X315407Y2963182D01*
X320508Y2959661D01*
X320815Y2959435D01*
X324767Y2956339D01*
X325694Y2955612D01*
X326592Y2955208D01*
X328595Y2954078D01*
X329407Y2953518D01*
X329407Y2953518D01*
X329407Y2953518D01*
X333325Y2952032D01*
X335201Y2951321D01*
X335555Y2951174D01*
X341207Y2948631D01*
X342176Y2948453D01*
X344391Y2947836D01*
X345313Y2947486D01*
X351465Y2946739D01*
X351843Y2946681D01*
X357939Y2945564D01*
X364124Y2945938D01*
X364507Y2945950D01*
X369018Y2945950D01*
X375884Y2943934D01*
X379184Y2940861D01*
X379645Y2940246D01*
X379645Y2940246D01*
X379645Y2940245D01*
X379646Y2940245D01*
X379646Y2940245D01*
X391773Y2931167D01*
X396061Y2925438D01*
X396572Y2918300D01*
X393142Y2912020D01*
X391773Y2910833D01*
X379646Y2901755D01*
X379645Y2901754D01*
X371021Y2890233D01*
X371020Y2890233D01*
X367116Y2879766D01*
X365991Y2876748D01*
X365350Y2870788D01*
X365350Y2781213D01*
X365350Y2781212D01*
X365991Y2775252D01*
X365991Y2775252D01*
X365991Y2775252D01*
X371020Y2761767D01*
X371020Y2761767D01*
X371021Y2761767D01*
X376340Y2754660D01*
X379645Y2750245D01*
X391167Y2741620D01*
X404652Y2736591D01*
X410613Y2735950D01*
X564950Y2735950D01*
X571816Y2733934D01*
X576502Y2728526D01*
X577650Y2723250D01*
X577650Y2686064D01*
X575634Y2679198D01*
X570226Y2674512D01*
X566089Y2673416D01*
X554857Y2672405D01*
X554856Y2672405D01*
X554856Y2672405D01*
X554856Y2672405D01*
X533832Y2666602D01*
X514181Y2657139D01*
X514181Y2657139D01*
X496535Y2644319D01*
X481462Y2628554D01*
X469447Y2610351D01*
X469447Y2610351D01*
X460875Y2590295D01*
X456021Y2569031D01*
X456021Y2569031D01*
X455072Y2547887D01*
X455043Y2547242D01*
X456765Y2534526D01*
X457970Y2525628D01*
X457971Y2525627D01*
X464710Y2504886D01*
X464710Y2504885D01*
X471164Y2492891D01*
X475046Y2485678D01*
X488645Y2468626D01*
X488645Y2468625D01*
X488645Y2468625D01*
X505070Y2454275D01*
X505070Y2454275D01*
X515136Y2448261D01*
X523794Y2443088D01*
X538262Y2437658D01*
X543982Y2433358D01*
X546469Y2426648D01*
X544934Y2419659D01*
X539863Y2414609D01*
X537179Y2413526D01*
X533832Y2412602D01*
X514181Y2403139D01*
X514181Y2403139D01*
X496535Y2390319D01*
X481462Y2374554D01*
X469447Y2356351D01*
X469447Y2356351D01*
X460875Y2336295D01*
X456021Y2315031D01*
X456021Y2315031D01*
X455072Y2293887D01*
X455043Y2293242D01*
X456178Y2284859D01*
X457970Y2271628D01*
X457971Y2271627D01*
X462373Y2258079D01*
X464710Y2250885D01*
X475046Y2231678D01*
X488645Y2214626D01*
X488645Y2214625D01*
X488645Y2214625D01*
X505070Y2200275D01*
X505070Y2200275D01*
X515135Y2194261D01*
X523794Y2189088D01*
X544214Y2181425D01*
X544214Y2181424D01*
X557599Y2178996D01*
X565675Y2177530D01*
X565675Y2177530D01*
X724262Y2177530D01*
X724262Y2177530D01*
X740543Y2178995D01*
X761568Y2184798D01*
X781219Y2194261D01*
X798865Y2207082D01*
X813937Y2222846D01*
X813938Y2222847D01*
X814294Y2223293D01*
X814441Y2223175D01*
X819258Y2227246D01*
X824391Y2228330D01*
X856789Y2228330D01*
X857172Y2228319D01*
X863385Y2227943D01*
X869510Y2229065D01*
X869886Y2229122D01*
X876070Y2229873D01*
X877001Y2230226D01*
X879216Y2230844D01*
X880194Y2231023D01*
X880194Y2231023D01*
X880195Y2231023D01*
X881471Y2231598D01*
X885874Y2233579D01*
X886224Y2233724D01*
X891146Y2235591D01*
X898280Y2236140D01*
X900151Y2235591D01*
X905072Y2233725D01*
X905424Y2233579D01*
X911103Y2231023D01*
X912081Y2230844D01*
X914297Y2230226D01*
X915228Y2229873D01*
X921410Y2229122D01*
X921787Y2229065D01*
X927912Y2227943D01*
X934126Y2228319D01*
X934509Y2228330D01*
X952231Y2228330D01*
X959097Y2226314D01*
X963783Y2220906D01*
X964801Y2213823D01*
X964498Y2212343D01*
X959860Y2195036D01*
X959860Y2195036D01*
X959860Y2195036D01*
X959860Y2195035D01*
X958457Y2178996D01*
X957819Y2171700D01*
X959860Y2148365D01*
X961312Y2142947D01*
X965923Y2125739D01*
X965923Y2125739D01*
X965923Y2125738D01*
X975822Y2104510D01*
X975823Y2104509D01*
X983601Y2093400D01*
X989258Y2085321D01*
X1005821Y2068758D01*
X1005822Y2068758D01*
X1005822Y2068757D01*
X1025322Y2055103D01*
X1029790Y2049514D01*
X1030527Y2042396D01*
X1027298Y2036009D01*
X1025322Y2034297D01*
X1005821Y2020642D01*
X989258Y2004078D01*
X989257Y2004078D01*
X975823Y1984891D01*
X975822Y1984890D01*
X965923Y1963662D01*
X965923Y1963661D01*
X965923Y1963661D01*
X964401Y1957983D01*
X959860Y1941035D01*
X957819Y1917700D01*
X959860Y1894365D01*
X964482Y1877115D01*
X964312Y1869961D01*
X960301Y1864035D01*
X953723Y1861218D01*
X946666Y1862405D01*
X943235Y1864848D01*
X902559Y1905524D01*
X902558Y1905524D01*
X889524Y1918558D01*
X888894Y1918954D01*
X885912Y1920828D01*
X885331Y1921241D01*
X885248Y1921307D01*
X881996Y1923900D01*
X881995Y1923900D01*
X881995Y1923901D01*
X878152Y1925751D01*
X877529Y1926096D01*
X873916Y1928366D01*
X873916Y1928366D01*
X869889Y1929775D01*
X869232Y1930047D01*
X867089Y1931079D01*
X865387Y1931898D01*
X861228Y1932848D01*
X860544Y1933045D01*
X856517Y1934454D01*
X852278Y1934931D01*
X851576Y1935051D01*
X847417Y1936000D01*
X847417Y1936000D01*
X842794Y1936000D01*
X814125Y1936000D01*
X807259Y1938016D01*
X805769Y1939136D01*
X790330Y1952625D01*
X790329Y1952625D01*
X771606Y1963812D01*
X751186Y1971476D01*
X732401Y1974884D01*
X729725Y1975370D01*
X571138Y1975370D01*
X554857Y1973905D01*
X554856Y1973905D01*
X554856Y1973905D01*
X554856Y1973904D01*
X533832Y1968102D01*
X514181Y1958639D01*
X514181Y1958639D01*
X496535Y1945819D01*
X481462Y1930054D01*
X469447Y1911851D01*
X469447Y1911850D01*
X460875Y1891795D01*
X456021Y1870531D01*
X456021Y1870531D01*
X455122Y1850509D01*
X455043Y1848742D01*
X456948Y1834674D01*
X457970Y1827128D01*
X457971Y1827127D01*
X464710Y1806386D01*
X464710Y1806384D01*
X473151Y1790700D01*
X475046Y1787178D01*
X488645Y1770125D01*
X488645Y1770125D01*
X488645Y1770125D01*
X505070Y1755775D01*
X505070Y1755775D01*
X515135Y1749761D01*
X523794Y1744588D01*
X538262Y1739158D01*
X543982Y1734858D01*
X546469Y1728148D01*
X544934Y1721159D01*
X539863Y1716109D01*
X537179Y1715026D01*
X533832Y1714102D01*
X514181Y1704639D01*
X514181Y1704639D01*
X496535Y1691819D01*
X481462Y1676054D01*
X469447Y1657851D01*
X469447Y1657850D01*
X460875Y1637795D01*
X456021Y1616531D01*
X456021Y1616531D01*
X455160Y1597364D01*
X455043Y1594742D01*
X456387Y1584820D01*
X457970Y1573128D01*
X457971Y1573127D01*
X464710Y1552386D01*
X464710Y1552385D01*
X475046Y1533178D01*
X488645Y1516125D01*
X488645Y1516125D01*
X488645Y1516125D01*
X505070Y1501775D01*
X505070Y1501775D01*
X519113Y1493385D01*
X523794Y1490588D01*
X544214Y1482924D01*
X544214Y1482924D01*
X557599Y1480495D01*
X565675Y1479030D01*
X565675Y1479030D01*
X724262Y1479030D01*
X724262Y1479030D01*
X740543Y1480495D01*
X752793Y1483876D01*
X761568Y1486298D01*
X761568Y1486298D01*
X761568Y1486298D01*
X772021Y1491332D01*
X779082Y1492495D01*
X785651Y1489655D01*
X786512Y1488870D01*
X786803Y1488579D01*
X787065Y1488300D01*
X788839Y1486298D01*
X791193Y1483640D01*
X792231Y1482924D01*
X796316Y1480104D01*
X796625Y1479877D01*
X801528Y1476036D01*
X802436Y1475628D01*
X804438Y1474499D01*
X805257Y1473933D01*
X811079Y1471725D01*
X811432Y1471579D01*
X817111Y1469023D01*
X818089Y1468844D01*
X820305Y1468226D01*
X821236Y1467873D01*
X827418Y1467122D01*
X827795Y1467065D01*
X833920Y1465943D01*
X840134Y1466318D01*
X840516Y1466330D01*
X952231Y1466330D01*
X959097Y1464314D01*
X963783Y1458906D01*
X964801Y1451823D01*
X964498Y1450343D01*
X959860Y1433036D01*
X959860Y1433036D01*
X959860Y1433035D01*
X959860Y1433035D01*
X958574Y1418332D01*
X957819Y1409700D01*
X959860Y1386365D01*
X961743Y1379336D01*
X965923Y1363739D01*
X965923Y1363739D01*
X965923Y1363738D01*
X975822Y1342510D01*
X975823Y1342509D01*
X986987Y1326564D01*
X989258Y1323321D01*
X1005821Y1306758D01*
X1025009Y1293322D01*
X1025010Y1293322D01*
X1025010Y1293322D01*
X1046222Y1283430D01*
X1051593Y1278702D01*
X1053555Y1271820D01*
X1051484Y1264970D01*
X1046039Y1260327D01*
X1045443Y1260078D01*
X1041069Y1258384D01*
X1041069Y1258384D01*
X1023072Y1247240D01*
X1022593Y1246803D01*
X1069222Y1200174D01*
X1064890Y1198195D01*
X1054024Y1188780D01*
X1047608Y1178796D01*
X1001403Y1225001D01*
X994672Y1216087D01*
X985237Y1197138D01*
X979444Y1176777D01*
X977491Y1155700D01*
X977491Y1155700D01*
X979444Y1134623D01*
X985237Y1114262D01*
X994672Y1095314D01*
X994672Y1095313D01*
X1001403Y1086400D01*
X1047608Y1132604D01*
X1054024Y1122620D01*
X1064890Y1113205D01*
X1069222Y1111226D01*
X1022593Y1064597D01*
X1023072Y1064160D01*
X1023073Y1064160D01*
X1041069Y1053017D01*
X1045443Y1051322D01*
X1051117Y1046962D01*
X1053533Y1040226D01*
X1051924Y1033253D01*
X1046801Y1028257D01*
X1046223Y1027970D01*
X1025009Y1018078D01*
X1025009Y1018077D01*
X1005822Y1004643D01*
X1005822Y1004642D01*
X989258Y988078D01*
X989257Y988078D01*
X975822Y968891D01*
X975822Y968891D01*
X972936Y962702D01*
X970407Y959090D01*
X901176Y889859D01*
X888141Y876824D01*
X885871Y873212D01*
X885459Y872631D01*
X882800Y869296D01*
X880949Y865452D01*
X880604Y864829D01*
X878335Y861217D01*
X878334Y861216D01*
X876925Y857190D01*
X876653Y856531D01*
X874802Y852688D01*
X874802Y852687D01*
X873852Y848528D01*
X873655Y847844D01*
X872246Y843817D01*
X872246Y843817D01*
X871769Y839579D01*
X871649Y838876D01*
X870700Y834716D01*
X870700Y782216D01*
X868684Y775350D01*
X864570Y771348D01*
X852422Y764004D01*
X840556Y752138D01*
X831875Y737778D01*
X831875Y737778D01*
X830160Y732274D01*
X826192Y726319D01*
X819635Y723454D01*
X812569Y724589D01*
X809679Y726489D01*
X796750Y737785D01*
X796749Y737785D01*
X778026Y748972D01*
X765618Y753629D01*
X759898Y757929D01*
X757411Y764639D01*
X758084Y769688D01*
X758698Y771454D01*
X758698Y771454D01*
X733777Y791760D01*
X733348Y792110D01*
X729299Y798010D01*
X729280Y798623D01*
X667442Y860462D01*
X673746Y863498D01*
X683849Y872872D01*
X689038Y881859D01*
X761497Y809399D01*
X775494Y816880D01*
X775495Y816881D01*
X790952Y829567D01*
X790953Y829568D01*
X803639Y845025D01*
X803640Y845026D01*
X813066Y862662D01*
X813066Y862662D01*
X818871Y881798D01*
X818871Y881799D01*
X820831Y901700D01*
X820831Y901700D01*
X818871Y921601D01*
X818871Y921602D01*
X813066Y940738D01*
X813066Y940738D01*
X803640Y958374D01*
X803639Y958375D01*
X790953Y973832D01*
X790952Y973833D01*
X775495Y986519D01*
X775494Y986519D01*
X761497Y994001D01*
X689031Y921535D01*
X687742Y924818D01*
X679149Y935594D01*
X667821Y943317D01*
X727373Y1002869D01*
X723807Y1003220D01*
X571593Y1003220D01*
X568027Y1002869D01*
X627958Y942938D01*
X621654Y939902D01*
X611551Y930528D01*
X606363Y921541D01*
X533903Y994001D01*
X533903Y994001D01*
X519906Y986520D01*
X519905Y986519D01*
X504448Y973833D01*
X504447Y973832D01*
X491761Y958375D01*
X491760Y958374D01*
X482334Y940738D01*
X482334Y940738D01*
X476529Y921602D01*
X476529Y921601D01*
X474569Y901700D01*
X474569Y901700D01*
X476529Y881799D01*
X476529Y881798D01*
X482334Y862662D01*
X482334Y862662D01*
X491760Y845026D01*
X491761Y845025D01*
X504447Y829568D01*
X504448Y829567D01*
X519905Y816881D01*
X519906Y816881D01*
X533903Y809399D01*
X606369Y881866D01*
X607658Y878582D01*
X616251Y867806D01*
X627579Y860083D01*
X566164Y798668D01*
X563387Y793394D01*
X561890Y791760D01*
X561890Y791760D01*
X561890Y768904D01*
X559874Y762038D01*
X554466Y757351D01*
X552569Y756661D01*
X540252Y753262D01*
X520601Y743799D01*
X520601Y743799D01*
X502955Y730979D01*
X487882Y715214D01*
X475867Y697011D01*
X475867Y697011D01*
X467295Y676955D01*
X463938Y662248D01*
X462441Y655691D01*
X461463Y633902D01*
X462598Y625519D01*
X464390Y612288D01*
X464391Y612287D01*
X471130Y591546D01*
X471130Y591545D01*
X481466Y572338D01*
X495065Y555286D01*
X495065Y555285D01*
X495065Y555285D01*
X511490Y540935D01*
X511490Y540935D01*
X521555Y534921D01*
X530214Y529748D01*
X550634Y522084D01*
X550634Y522084D01*
X554200Y521437D01*
X555467Y521207D01*
X561863Y517998D01*
X565509Y511840D01*
X565900Y508711D01*
X565900Y384967D01*
X565900Y366533D01*
X566849Y362374D01*
X566969Y361671D01*
X567446Y357433D01*
X568855Y353406D01*
X569052Y352721D01*
X570002Y348563D01*
X570645Y347226D01*
X571853Y344718D01*
X572125Y344061D01*
X573534Y340034D01*
X575804Y336421D01*
X576149Y335798D01*
X577999Y331955D01*
X578000Y331955D01*
X578000Y331954D01*
X580593Y328702D01*
X580659Y328619D01*
X581072Y328038D01*
X582494Y325774D01*
X583342Y324426D01*
X596376Y311392D01*
X596376Y311391D01*
X597100Y310668D01*
X597100Y310668D01*
X597100Y310667D01*
X624531Y283236D01*
X624532Y283236D01*
X637566Y270202D01*
X637566Y270202D01*
X637566Y270201D01*
X641179Y267932D01*
X641759Y267520D01*
X645095Y264860D01*
X648937Y263009D01*
X649561Y262665D01*
X653174Y260394D01*
X653174Y260394D01*
X657201Y258985D01*
X657858Y258713D01*
X661702Y256862D01*
X661702Y256862D01*
X661703Y256862D01*
X663528Y256445D01*
X665863Y255912D01*
X666545Y255716D01*
X670573Y254306D01*
X674812Y253829D01*
X675513Y253710D01*
X679673Y252760D01*
X679674Y252760D01*
X698490Y252760D01*
X698491Y252760D01*
X926706Y252760D01*
X926707Y252760D01*
X930866Y253710D01*
X931567Y253829D01*
X935807Y254306D01*
X939834Y255715D01*
X940518Y255912D01*
X944677Y256862D01*
X944678Y256862D01*
X948522Y258713D01*
X949179Y258985D01*
X953206Y260394D01*
X956819Y262665D01*
X957441Y263008D01*
X961286Y264860D01*
X964621Y267520D01*
X965201Y267931D01*
X968814Y270202D01*
X981848Y283236D01*
X981848Y283236D01*
X982893Y284281D01*
X982894Y284282D01*
X1002778Y304166D01*
X1002779Y304167D01*
X1009280Y310668D01*
X1016858Y318246D01*
X1019129Y321859D01*
X1019540Y322439D01*
X1022200Y325774D01*
X1024052Y329619D01*
X1024395Y330241D01*
X1026666Y333854D01*
X1028075Y337882D01*
X1028346Y338537D01*
X1030198Y342382D01*
X1031147Y346541D01*
X1031344Y347226D01*
X1032754Y351253D01*
X1033231Y355493D01*
X1033350Y356194D01*
X1034300Y360353D01*
X1034300Y378787D01*
X1034300Y378787D01*
X1034300Y394904D01*
X1036316Y401770D01*
X1040430Y405772D01*
X1052578Y413116D01*
X1064444Y424982D01*
X1073125Y439342D01*
X1078117Y455363D01*
X1078750Y462325D01*
X1078750Y501145D01*
X1078750Y501146D01*
X1078750Y525716D01*
X1079040Y528416D01*
X1079136Y528855D01*
X1078766Y534024D01*
X1078750Y534477D01*
X1078750Y536042D01*
X1078750Y536043D01*
X1078527Y537592D01*
X1078479Y538039D01*
X1078109Y543210D01*
X1077952Y543632D01*
X1077280Y546263D01*
X1077217Y546708D01*
X1076961Y547580D01*
X1077334Y547689D01*
X1076566Y552953D01*
X1077091Y554721D01*
X1076960Y554759D01*
X1077216Y555631D01*
X1077216Y555631D01*
X1077217Y555631D01*
X1078025Y561253D01*
X1078082Y561585D01*
X1079191Y567155D01*
X1078775Y571823D01*
X1078750Y572387D01*
X1078750Y677022D01*
X1078750Y677023D01*
X1078750Y714794D01*
X1078117Y721757D01*
X1077758Y722911D01*
X1073125Y737778D01*
X1073125Y737778D01*
X1073125Y737778D01*
X1066142Y749329D01*
X1064316Y756248D01*
X1066519Y763056D01*
X1072054Y767592D01*
X1078117Y768551D01*
X1092200Y767319D01*
X1115535Y769360D01*
X1138161Y775423D01*
X1159391Y785322D01*
X1178579Y798758D01*
X1195142Y815321D01*
X1208578Y834509D01*
X1218477Y855739D01*
X1224540Y878365D01*
X1226581Y901700D01*
X1224540Y925035D01*
X1218477Y947661D01*
X1212410Y960673D01*
X1208578Y968890D01*
X1208578Y968890D01*
X1208578Y968891D01*
X1195142Y988079D01*
X1178579Y1004642D01*
X1178578Y1004643D01*
X1159391Y1018077D01*
X1159390Y1018078D01*
X1138177Y1027970D01*
X1132807Y1032699D01*
X1130845Y1039581D01*
X1132916Y1046430D01*
X1138361Y1051074D01*
X1138957Y1051322D01*
X1143330Y1053016D01*
X1161328Y1064160D01*
X1161328Y1064160D01*
X1161807Y1064597D01*
X1115178Y1111226D01*
X1119510Y1113205D01*
X1130376Y1122620D01*
X1136792Y1132604D01*
X1182996Y1086400D01*
X1189728Y1095314D01*
X1189728Y1095314D01*
X1199163Y1114262D01*
X1204956Y1134623D01*
X1206909Y1155700D01*
X1206909Y1155700D01*
X1204956Y1176778D01*
X1204848Y1177355D01*
X1205086Y1177399D01*
X1205136Y1183507D01*
X1209055Y1189495D01*
X1215588Y1192414D01*
X1222663Y1191338D01*
X1226272Y1188809D01*
X1269403Y1145679D01*
X1269666Y1145400D01*
X1271566Y1143254D01*
X1273793Y1140741D01*
X1277213Y1138380D01*
X1278916Y1137205D01*
X1279225Y1136977D01*
X1284128Y1133136D01*
X1285036Y1132728D01*
X1287038Y1131599D01*
X1287857Y1131033D01*
X1293681Y1128824D01*
X1294032Y1128679D01*
X1299711Y1126123D01*
X1300690Y1125944D01*
X1302904Y1125326D01*
X1303836Y1124973D01*
X1310020Y1124222D01*
X1310396Y1124165D01*
X1316520Y1123043D01*
X1316520Y1123043D01*
X1316520Y1123043D01*
X1317736Y1123116D01*
X1322734Y1123419D01*
X1323116Y1123430D01*
X1462125Y1123430D01*
X1468991Y1121414D01*
X1473678Y1116006D01*
X1474485Y1113650D01*
X1474591Y1113202D01*
X1474591Y1113202D01*
X1479620Y1099717D01*
X1479620Y1099717D01*
X1479621Y1099717D01*
X1485900Y1091329D01*
X1488245Y1088195D01*
X1499767Y1079570D01*
X1513252Y1074541D01*
X1519213Y1073900D01*
X1643087Y1073900D01*
X1649048Y1074541D01*
X1662533Y1079570D01*
X1668789Y1084254D01*
X1675494Y1086755D01*
X1682486Y1085234D01*
X1684010Y1084255D01*
X1690267Y1079570D01*
X1703752Y1074541D01*
X1709713Y1073900D01*
X1833587Y1073900D01*
X1839548Y1074541D01*
X1853033Y1079570D01*
X1864555Y1088195D01*
X1873180Y1099717D01*
X1878209Y1113202D01*
X1878209Y1113202D01*
X1878209Y1113202D01*
X1878391Y1113971D01*
X1881932Y1120189D01*
X1888273Y1123506D01*
X1890750Y1123750D01*
X1921894Y1123750D01*
X1926163Y1123750D01*
X1947740Y1123750D01*
X1954606Y1121734D01*
X1959292Y1116326D01*
X1960099Y1113971D01*
X1960281Y1113202D01*
X1960281Y1113202D01*
X1960281Y1113202D01*
X1965310Y1099717D01*
X1965310Y1099717D01*
X1965311Y1099717D01*
X1971590Y1091329D01*
X1973935Y1088195D01*
X1985457Y1079570D01*
X1998942Y1074541D01*
X2004903Y1073900D01*
X2128777Y1073900D01*
X2134738Y1074541D01*
X2148223Y1079570D01*
X2159745Y1088195D01*
X2165300Y1095616D01*
X2171028Y1099905D01*
X2178166Y1100415D01*
X2182644Y1098483D01*
X2182712Y1098436D01*
X2193109Y1093845D01*
X2195651Y1093550D01*
X2242140Y1093550D01*
X2242140Y1093550D01*
X2242140Y1178600D01*
X2272540Y1178600D01*
X2272540Y1093550D01*
X2272540Y1093550D01*
X2319028Y1093550D01*
X2319030Y1093550D01*
X2321570Y1093845D01*
X2321571Y1093845D01*
X2331968Y1098436D01*
X2340004Y1106472D01*
X2344595Y1116870D01*
X2344890Y1119411D01*
X2344890Y1119411D01*
X2344890Y1178600D01*
X2344890Y1178600D01*
X2272540Y1178600D01*
X2242140Y1178600D01*
X2242140Y1294050D01*
X2242140Y1294050D01*
X2272540Y1294050D01*
X2272540Y1209000D01*
X2272540Y1209000D01*
X2344890Y1209000D01*
X2344890Y1209000D01*
X2344890Y1268188D01*
X2344890Y1268190D01*
X2344595Y1270730D01*
X2344595Y1270731D01*
X2340004Y1281128D01*
X2331968Y1289164D01*
X2321571Y1293755D01*
X2319029Y1294050D01*
X2272540Y1294050D01*
X2242140Y1294050D01*
X2195652Y1294050D01*
X2195650Y1294050D01*
X2193110Y1293755D01*
X2193109Y1293755D01*
X2182712Y1289164D01*
X2182643Y1289117D01*
X2182499Y1289070D01*
X2181636Y1288689D01*
X2181597Y1288776D01*
X2175839Y1286900D01*
X2168917Y1288714D01*
X2165300Y1291984D01*
X2159745Y1299404D01*
X2159745Y1299404D01*
X2159745Y1299405D01*
X2148223Y1308030D01*
X2134738Y1313059D01*
X2134738Y1313059D01*
X2134738Y1313059D01*
X2128778Y1313700D01*
X2076063Y1313700D01*
X2069197Y1315716D01*
X2064511Y1321124D01*
X2063493Y1328207D01*
X2066465Y1334717D01*
X2068231Y1336397D01*
X2068505Y1336612D01*
X2068506Y1336612D01*
X2073386Y1340436D01*
X2073692Y1340661D01*
X2078793Y1344182D01*
X2082903Y1348821D01*
X2083164Y1349098D01*
X2113139Y1379073D01*
X2113416Y1379334D01*
X2118055Y1383444D01*
X2121577Y1388547D01*
X2121802Y1388853D01*
X2125625Y1393731D01*
X2126029Y1394630D01*
X2127159Y1396633D01*
X2127719Y1397444D01*
X2128008Y1398206D01*
X2132327Y1403911D01*
X2135444Y1405602D01*
X2146620Y1409770D01*
X2158142Y1418395D01*
X2163697Y1425816D01*
X2169425Y1430104D01*
X2176563Y1430615D01*
X2181041Y1428682D01*
X2181109Y1428636D01*
X2191506Y1424045D01*
X2194048Y1423750D01*
X2240537Y1423750D01*
X2240537Y1423750D01*
X2270937Y1423750D01*
X2270937Y1423750D01*
X2317425Y1423750D01*
X2317427Y1423750D01*
X2319967Y1424045D01*
X2319968Y1424045D01*
X2330365Y1428636D01*
X2338401Y1436672D01*
X2342992Y1447069D01*
X2343287Y1449611D01*
X2343287Y1449611D01*
X2343287Y1508800D01*
X2343287Y1508800D01*
X2270937Y1508800D01*
X2270937Y1508800D01*
X2270937Y1423750D01*
X2240537Y1423750D01*
X2240537Y1539200D01*
X2270937Y1539200D01*
X2270937Y1539200D01*
X2343287Y1539200D01*
X2343287Y1539200D01*
X2343287Y1598388D01*
X2343287Y1598390D01*
X2342992Y1600930D01*
X2342992Y1600931D01*
X2338401Y1611328D01*
X2330365Y1619364D01*
X2319967Y1623955D01*
X2317426Y1624250D01*
X2270937Y1624250D01*
X2270937Y1624250D01*
X2270937Y1539200D01*
X2240537Y1539200D01*
X2240537Y1624250D01*
X2240537Y1624250D01*
X2194049Y1624250D01*
X2194046Y1624250D01*
X2191507Y1623955D01*
X2191506Y1623955D01*
X2181109Y1619364D01*
X2181040Y1619317D01*
X2180896Y1619270D01*
X2180033Y1618889D01*
X2179994Y1618976D01*
X2174236Y1617100D01*
X2167314Y1618914D01*
X2163697Y1622184D01*
X2158142Y1629604D01*
X2158142Y1629604D01*
X2158142Y1629605D01*
X2156818Y1630595D01*
X2152032Y1634178D01*
X2146620Y1638230D01*
X2133135Y1643259D01*
X2133135Y1643259D01*
X2133135Y1643259D01*
X2127175Y1643900D01*
X2127174Y1643900D01*
X2123604Y1643900D01*
X2116738Y1645916D01*
X2112052Y1651324D01*
X2111033Y1658407D01*
X2112735Y1663170D01*
X2113056Y1663700D01*
X2117615Y1671242D01*
X2119618Y1677668D01*
X2123585Y1683624D01*
X2130143Y1686489D01*
X2131743Y1686590D01*
X2147144Y1686590D01*
X2147527Y1686578D01*
X2153741Y1686203D01*
X2159865Y1687325D01*
X2160241Y1687382D01*
X2166425Y1688133D01*
X2167356Y1688486D01*
X2169571Y1689104D01*
X2170550Y1689283D01*
X2170550Y1689283D01*
X2170550Y1689283D01*
X2173111Y1690436D01*
X2176228Y1691839D01*
X2176578Y1691984D01*
X2182403Y1694193D01*
X2183222Y1694758D01*
X2185225Y1695888D01*
X2186133Y1696296D01*
X2191039Y1700140D01*
X2191340Y1700361D01*
X2196467Y1703900D01*
X2200598Y1708563D01*
X2200857Y1708838D01*
X2246136Y1754117D01*
X2246411Y1754376D01*
X2251074Y1758507D01*
X2254610Y1763630D01*
X2254836Y1763937D01*
X2258678Y1768841D01*
X2259086Y1769749D01*
X2260216Y1771752D01*
X2260338Y1771929D01*
X2260781Y1772571D01*
X2262990Y1778396D01*
X2263135Y1778746D01*
X2265691Y1784424D01*
X2265870Y1785403D01*
X2266488Y1787618D01*
X2266841Y1788549D01*
X2267592Y1794734D01*
X2267649Y1795107D01*
X2268772Y1801233D01*
X2268396Y1807447D01*
X2268384Y1807830D01*
X2268384Y1835964D01*
X2270400Y1842830D01*
X2275808Y1847516D01*
X2281084Y1848664D01*
X2292801Y1848664D01*
X2292802Y1848664D01*
X2298762Y1849304D01*
X2312247Y1854334D01*
X2323769Y1862959D01*
X2332394Y1874480D01*
X2337423Y1887965D01*
X2338064Y1893926D01*
X2338064Y2123501D01*
X2337423Y2129462D01*
X2332394Y2142947D01*
X2323769Y2154468D01*
X2312247Y2163093D01*
X2298762Y2168123D01*
X2298762Y2168123D01*
X2298762Y2168123D01*
X2292802Y2168764D01*
X2292801Y2168764D01*
X2288410Y2168764D01*
X2281544Y2170780D01*
X2276858Y2176188D01*
X2276029Y2178638D01*
X2275712Y2180024D01*
X2273861Y2183867D01*
X2273589Y2184526D01*
X2272878Y2186556D01*
X2272514Y2193702D01*
X2276071Y2199912D01*
X2282420Y2203212D01*
X2284866Y2203450D01*
X2460804Y2203450D01*
X2462007Y2203527D01*
X2468661Y2203954D01*
X2468662Y2203954D01*
X2468785Y2203974D01*
X2468848Y2203966D01*
X2469262Y2203993D01*
X2469267Y2203913D01*
X2475884Y2203071D01*
X2481368Y2198473D01*
X2483495Y2191640D01*
X2483448Y2190327D01*
X2481819Y2171700D01*
X2483860Y2148365D01*
X2485312Y2142947D01*
X2489923Y2125739D01*
X2489923Y2125739D01*
X2489923Y2125738D01*
X2499822Y2104510D01*
X2499823Y2104509D01*
X2507601Y2093400D01*
X2513258Y2085321D01*
X2529821Y2068758D01*
X2529822Y2068758D01*
X2529822Y2068757D01*
X2549322Y2055103D01*
X2553790Y2049513D01*
X2554527Y2042395D01*
X2551298Y2036009D01*
X2549322Y2034297D01*
X2529822Y2020643D01*
X2529822Y2020642D01*
X2513258Y2004078D01*
X2513257Y2004078D01*
X2499823Y1984891D01*
X2499822Y1984890D01*
X2489923Y1963662D01*
X2489923Y1963661D01*
X2489923Y1963661D01*
X2488402Y1957983D01*
X2483860Y1941035D01*
X2481819Y1917700D01*
X2483860Y1894365D01*
X2485575Y1887965D01*
X2489923Y1871739D01*
X2489923Y1871738D01*
X2489923Y1871738D01*
X2499822Y1850510D01*
X2499823Y1850509D01*
X2506929Y1840359D01*
X2513258Y1831321D01*
X2529821Y1814758D01*
X2530852Y1814036D01*
X2541779Y1806385D01*
X2549009Y1801322D01*
X2549010Y1801322D01*
X2549010Y1801322D01*
X2570223Y1791430D01*
X2575593Y1786701D01*
X2577555Y1779820D01*
X2575484Y1772970D01*
X2570039Y1768326D01*
X2569443Y1768078D01*
X2565069Y1766383D01*
X2565069Y1766383D01*
X2547073Y1755240D01*
X2546593Y1754803D01*
X2593222Y1708174D01*
X2588890Y1706195D01*
X2578024Y1696780D01*
X2571608Y1686796D01*
X2525403Y1733000D01*
X2518672Y1724087D01*
X2509237Y1705138D01*
X2503444Y1684777D01*
X2501491Y1663700D01*
X2501491Y1663700D01*
X2503444Y1642623D01*
X2509237Y1622262D01*
X2518672Y1603314D01*
X2518672Y1603313D01*
X2525403Y1594400D01*
X2571608Y1640604D01*
X2578024Y1630620D01*
X2588890Y1621205D01*
X2593222Y1619226D01*
X2546593Y1572597D01*
X2547072Y1572160D01*
X2547073Y1572160D01*
X2565069Y1561017D01*
X2569443Y1559322D01*
X2575117Y1554962D01*
X2577533Y1548226D01*
X2575924Y1541253D01*
X2570801Y1536257D01*
X2570223Y1535970D01*
X2549010Y1526078D01*
X2549009Y1526077D01*
X2529822Y1512643D01*
X2529822Y1512642D01*
X2513258Y1496078D01*
X2513257Y1496078D01*
X2499823Y1476891D01*
X2499822Y1476890D01*
X2489923Y1455662D01*
X2489923Y1455661D01*
X2489923Y1455661D01*
X2488302Y1449611D01*
X2483860Y1433035D01*
X2481819Y1409700D01*
X2483860Y1386365D01*
X2485744Y1379336D01*
X2489923Y1363739D01*
X2489923Y1363739D01*
X2489923Y1363738D01*
X2499822Y1342510D01*
X2499823Y1342509D01*
X2510987Y1326564D01*
X2513258Y1323321D01*
X2529821Y1306758D01*
X2532315Y1305012D01*
X2549322Y1293103D01*
X2553790Y1287514D01*
X2554527Y1280396D01*
X2551298Y1274009D01*
X2549322Y1272297D01*
X2529822Y1258643D01*
X2529822Y1258642D01*
X2513258Y1242078D01*
X2513257Y1242078D01*
X2499823Y1222891D01*
X2499822Y1222890D01*
X2489923Y1201662D01*
X2489923Y1201661D01*
X2489923Y1201661D01*
X2488711Y1197138D01*
X2483860Y1179036D01*
X2481819Y1155700D01*
X2483860Y1132365D01*
X2486057Y1124165D01*
X2489923Y1109739D01*
X2489923Y1109739D01*
X2489923Y1109738D01*
X2499822Y1088510D01*
X2499823Y1088509D01*
X2513257Y1069322D01*
X2513258Y1069321D01*
X2529821Y1052758D01*
X2532227Y1051074D01*
X2549322Y1039103D01*
X2553790Y1033513D01*
X2554527Y1026395D01*
X2551298Y1020009D01*
X2549322Y1018297D01*
X2529822Y1004643D01*
X2529822Y1004642D01*
X2513258Y988078D01*
X2513257Y988078D01*
X2499823Y968891D01*
X2499822Y968890D01*
X2489923Y947662D01*
X2489923Y947661D01*
X2489923Y947661D01*
X2488770Y943358D01*
X2483860Y925035D01*
X2481819Y901700D01*
X2483860Y878365D01*
X2486092Y870034D01*
X2489923Y855739D01*
X2489923Y855738D01*
X2489923Y855738D01*
X2499822Y834510D01*
X2499823Y834509D01*
X2509543Y820627D01*
X2513258Y815321D01*
X2529821Y798758D01*
X2549009Y785322D01*
X2549010Y785322D01*
X2549010Y785322D01*
X2570238Y775423D01*
X2570239Y775423D01*
X2592865Y769360D01*
X2616200Y767319D01*
X2639535Y769360D01*
X2662161Y775423D01*
X2683391Y785322D01*
X2702579Y798758D01*
X2719142Y815321D01*
X2732578Y834509D01*
X2742477Y855739D01*
X2748540Y878365D01*
X2750581Y901700D01*
X2748540Y925035D01*
X2742477Y947661D01*
X2736410Y960673D01*
X2732578Y968890D01*
X2732578Y968890D01*
X2732578Y968891D01*
X2719142Y988079D01*
X2702579Y1004642D01*
X2683391Y1018078D01*
X2683078Y1018297D01*
X2678610Y1023886D01*
X2677873Y1031004D01*
X2681102Y1037391D01*
X2683078Y1039103D01*
X2693542Y1046430D01*
X2702579Y1052758D01*
X2719142Y1069321D01*
X2732578Y1088509D01*
X2742477Y1109739D01*
X2748540Y1132365D01*
X2750581Y1155700D01*
X2748540Y1179035D01*
X2742477Y1201661D01*
X2740996Y1204838D01*
X2732578Y1222890D01*
X2732578Y1222890D01*
X2732578Y1222891D01*
X2719142Y1242079D01*
X2702579Y1258642D01*
X2683391Y1272078D01*
X2683078Y1272297D01*
X2678610Y1277887D01*
X2677873Y1285005D01*
X2681102Y1291391D01*
X2683078Y1293103D01*
X2686378Y1295414D01*
X2702579Y1306758D01*
X2719142Y1323321D01*
X2732578Y1342509D01*
X2742477Y1363739D01*
X2748540Y1386365D01*
X2750581Y1409700D01*
X2748540Y1433035D01*
X2742477Y1455661D01*
X2740964Y1458906D01*
X2732578Y1476890D01*
X2732578Y1476890D01*
X2732578Y1476891D01*
X2731080Y1479030D01*
X2725860Y1486485D01*
X2719142Y1496079D01*
X2702579Y1512642D01*
X2698997Y1515150D01*
X2683391Y1526077D01*
X2683390Y1526078D01*
X2662177Y1535970D01*
X2656807Y1540699D01*
X2654845Y1547581D01*
X2656916Y1554430D01*
X2662361Y1559074D01*
X2662957Y1559322D01*
X2667330Y1561016D01*
X2685328Y1572160D01*
X2685328Y1572160D01*
X2685807Y1572597D01*
X2639178Y1619226D01*
X2643510Y1621205D01*
X2654376Y1630620D01*
X2660792Y1640604D01*
X2706996Y1594400D01*
X2713728Y1603314D01*
X2713728Y1603314D01*
X2723163Y1622262D01*
X2728956Y1642623D01*
X2730909Y1663700D01*
X2730909Y1663700D01*
X2728956Y1684777D01*
X2723163Y1705138D01*
X2713728Y1724086D01*
X2713728Y1724087D01*
X2706996Y1733000D01*
X2660792Y1686796D01*
X2654376Y1696780D01*
X2643510Y1706195D01*
X2639178Y1708174D01*
X2685807Y1754803D01*
X2685328Y1755240D01*
X2685328Y1755240D01*
X2667331Y1766383D01*
X2662957Y1768078D01*
X2657283Y1772438D01*
X2654867Y1779174D01*
X2656476Y1786147D01*
X2661599Y1791143D01*
X2662177Y1791430D01*
X2670069Y1795110D01*
X2683391Y1801322D01*
X2702579Y1814758D01*
X2719142Y1831321D01*
X2732578Y1850509D01*
X2742477Y1871739D01*
X2748540Y1894365D01*
X2750581Y1917700D01*
X2748540Y1941035D01*
X2742477Y1963661D01*
X2741407Y1965956D01*
X2732578Y1984890D01*
X2732578Y1984890D01*
X2732578Y1984891D01*
X2719142Y2004079D01*
X2702579Y2020642D01*
X2686702Y2031759D01*
X2683078Y2034297D01*
X2678610Y2039886D01*
X2677873Y2047004D01*
X2681102Y2053391D01*
X2683078Y2055103D01*
X2684058Y2055790D01*
X2702579Y2068758D01*
X2719142Y2085321D01*
X2732578Y2104509D01*
X2742477Y2125739D01*
X2748540Y2148365D01*
X2750581Y2171700D01*
X2748540Y2195035D01*
X2742477Y2217661D01*
X2740059Y2222846D01*
X2732578Y2238890D01*
X2732578Y2238890D01*
X2732578Y2238891D01*
X2719142Y2258079D01*
X2702579Y2274642D01*
X2687987Y2284859D01*
X2683078Y2288297D01*
X2678610Y2293887D01*
X2677873Y2301005D01*
X2681102Y2307391D01*
X2683078Y2309103D01*
X2687987Y2312541D01*
X2702579Y2322758D01*
X2719142Y2339321D01*
X2732578Y2358509D01*
X2742477Y2379739D01*
X2748540Y2402365D01*
X2750581Y2425700D01*
X2748540Y2449035D01*
X2742477Y2471661D01*
X2739743Y2477524D01*
X2732578Y2492890D01*
X2732578Y2492890D01*
X2732578Y2492891D01*
X2731013Y2495125D01*
X2719143Y2512078D01*
X2719142Y2512078D01*
X2719142Y2512079D01*
X2702579Y2528642D01*
X2691877Y2536136D01*
X2683078Y2542297D01*
X2678610Y2547887D01*
X2677873Y2555005D01*
X2681102Y2561391D01*
X2683078Y2563103D01*
X2687987Y2566541D01*
X2702579Y2576758D01*
X2719142Y2593321D01*
X2732578Y2612509D01*
X2742477Y2633739D01*
X2748540Y2656365D01*
X2750581Y2679700D01*
X2748540Y2703035D01*
X2742477Y2725661D01*
X2742477Y2725662D01*
X2732578Y2746890D01*
X2732578Y2746890D01*
X2732578Y2746891D01*
X2719142Y2766079D01*
X2702579Y2782642D01*
X2689436Y2791845D01*
X2683078Y2796297D01*
X2678610Y2801886D01*
X2677873Y2809004D01*
X2681102Y2815391D01*
X2683078Y2817103D01*
X2689181Y2821377D01*
X2702579Y2830758D01*
X2719142Y2847321D01*
X2732578Y2866509D01*
X2742477Y2887739D01*
X2748540Y2910365D01*
X2750581Y2933700D01*
X2748540Y2957035D01*
X2742477Y2979661D01*
X2739282Y2986514D01*
X2732578Y3000890D01*
X2732578Y3000890D01*
X2732578Y3000891D01*
X2719142Y3020079D01*
X2702579Y3036642D01*
X2695854Y3041351D01*
X2683078Y3050297D01*
X2678610Y3055887D01*
X2677873Y3063005D01*
X2681102Y3069391D01*
X2683078Y3071103D01*
X2683390Y3071322D01*
X2683391Y3071322D01*
X2702579Y3084758D01*
X2719142Y3101321D01*
X2732578Y3120509D01*
X2742477Y3141739D01*
X2748540Y3164365D01*
X2750581Y3187700D01*
X2748540Y3211035D01*
X2742477Y3233661D01*
X2739151Y3240795D01*
X2732578Y3254890D01*
X2732578Y3254890D01*
X2732578Y3254891D01*
X2719142Y3274079D01*
X2702579Y3290642D01*
X2683391Y3304078D01*
X2683078Y3304297D01*
X2678610Y3309886D01*
X2677873Y3317004D01*
X2681102Y3323391D01*
X2683078Y3325103D01*
X2689624Y3329687D01*
X2702579Y3338758D01*
X2719142Y3355321D01*
X2732578Y3374509D01*
X2742477Y3395739D01*
X2748540Y3418365D01*
X2750581Y3441700D01*
X2748540Y3465035D01*
X2742477Y3487661D01*
X2739280Y3494518D01*
X2732578Y3508890D01*
X2732578Y3508890D01*
X2732578Y3508891D01*
X2728787Y3514305D01*
X2724906Y3519848D01*
X2719142Y3528079D01*
X2702579Y3544642D01*
X2700556Y3546058D01*
X2683078Y3558297D01*
X2678610Y3563886D01*
X2677873Y3571004D01*
X2681102Y3577391D01*
X2683078Y3579103D01*
X2690707Y3584445D01*
X2702579Y3592758D01*
X2719142Y3609321D01*
X2732578Y3628509D01*
X2742477Y3649739D01*
X2748540Y3672365D01*
X2750581Y3695700D01*
X2748540Y3719035D01*
X2742477Y3741661D01*
X2741308Y3744168D01*
X2732578Y3762890D01*
X2732578Y3762890D01*
X2732578Y3762891D01*
X2719142Y3782079D01*
X2702579Y3798642D01*
X2692027Y3806030D01*
X2683391Y3812077D01*
X2683390Y3812078D01*
X2662162Y3821977D01*
X2662162Y3821977D01*
X2662161Y3821977D01*
X2650490Y3825104D01*
X2639535Y3828040D01*
X2622034Y3829571D01*
X2616200Y3830081D01*
X2616200Y3830081D01*
X2592865Y3828040D01*
X2578258Y3824126D01*
X2570239Y3821977D01*
X2570239Y3821977D01*
X2570238Y3821977D01*
X2549010Y3812078D01*
X2549009Y3812077D01*
X2529822Y3798643D01*
X2529822Y3798642D01*
X2513258Y3782078D01*
X2513257Y3782078D01*
X2499823Y3762891D01*
X2499822Y3762890D01*
X2489923Y3741662D01*
X2489923Y3741661D01*
X2489923Y3741661D01*
X2487964Y3734349D01*
X2483860Y3719035D01*
X2482387Y3702199D01*
X2481819Y3695700D01*
X2483860Y3672365D01*
X2483860Y3672365D01*
X2483860Y3672364D01*
X2483860Y3672364D01*
X2487469Y3658897D01*
X2487299Y3651743D01*
X2483288Y3645817D01*
X2476710Y3643000D01*
X2475202Y3642910D01*
X1974751Y3642910D01*
X1967885Y3644926D01*
X1963198Y3650334D01*
X1962180Y3657417D01*
X1962536Y3659086D01*
X1966956Y3674623D01*
X1968909Y3695700D01*
X1968909Y3695700D01*
X1966956Y3716777D01*
X1961163Y3737138D01*
X1951728Y3756086D01*
X1951728Y3756087D01*
X1944996Y3765000D01*
X1898792Y3718796D01*
X1892376Y3728780D01*
X1881510Y3738195D01*
X1877177Y3740174D01*
X1923807Y3786803D01*
X1923328Y3787240D01*
X1923327Y3787240D01*
X1905331Y3798383D01*
X1905330Y3798384D01*
X1885592Y3806030D01*
X1864784Y3809920D01*
X1843616Y3809920D01*
X1822808Y3806030D01*
X1803069Y3798384D01*
X1803069Y3798383D01*
X1785072Y3787240D01*
X1784593Y3786803D01*
X1831222Y3740174D01*
X1826890Y3738195D01*
X1816024Y3728780D01*
X1809608Y3718796D01*
X1763403Y3765000D01*
X1756672Y3756087D01*
X1749350Y3741381D01*
X1744484Y3736133D01*
X1737554Y3734349D01*
X1730760Y3736595D01*
X1726471Y3741675D01*
X1716578Y3762890D01*
X1716578Y3762890D01*
X1716578Y3762891D01*
X1703142Y3782079D01*
X1686579Y3798642D01*
X1676027Y3806030D01*
X1667391Y3812077D01*
X1667390Y3812078D01*
X1646162Y3821977D01*
X1646161Y3821977D01*
X1646161Y3821977D01*
X1634490Y3825104D01*
X1623535Y3828040D01*
X1600200Y3830081D01*
X1576864Y3828040D01*
X1562258Y3824126D01*
X1554239Y3821977D01*
X1554239Y3821977D01*
X1554238Y3821977D01*
X1533010Y3812078D01*
X1533009Y3812077D01*
X1513822Y3798643D01*
X1513822Y3798642D01*
X1497258Y3782078D01*
X1497257Y3782078D01*
X1483603Y3762578D01*
X1478013Y3758110D01*
X1470895Y3757373D01*
X1464509Y3760602D01*
X1462797Y3762578D01*
X1449142Y3782078D01*
X1449142Y3782078D01*
X1449142Y3782079D01*
X1432579Y3798642D01*
X1422027Y3806030D01*
X1413391Y3812077D01*
X1413390Y3812078D01*
X1392162Y3821977D01*
X1392162Y3821977D01*
X1392161Y3821977D01*
X1380490Y3825104D01*
X1369535Y3828040D01*
X1352034Y3829571D01*
X1346200Y3830081D01*
X1346200Y3830081D01*
X1322865Y3828040D01*
X1308258Y3824126D01*
X1300239Y3821977D01*
X1300239Y3821977D01*
X1300238Y3821977D01*
X1279010Y3812078D01*
X1279009Y3812077D01*
X1259822Y3798643D01*
X1259822Y3798642D01*
X1243258Y3782078D01*
X1243257Y3782078D01*
X1229603Y3762578D01*
X1224014Y3758110D01*
X1216896Y3757373D01*
X1210509Y3760602D01*
X1208797Y3762578D01*
X1195143Y3782078D01*
X1195142Y3782078D01*
X1195142Y3782079D01*
X1178579Y3798642D01*
X1168027Y3806030D01*
X1159391Y3812077D01*
X1159390Y3812078D01*
X1138162Y3821977D01*
X1138162Y3821977D01*
X1138161Y3821977D01*
X1126490Y3825104D01*
X1115535Y3828040D01*
X1098034Y3829571D01*
X1092200Y3830081D01*
X1092200Y3830081D01*
X1080905Y3829093D01*
X1073889Y3830503D01*
X1070818Y3832765D01*
X1061309Y3842274D01*
X1061309Y3842274D01*
X1048274Y3855308D01*
X1047644Y3855704D01*
X1044662Y3857578D01*
X1044081Y3857991D01*
X1043998Y3858057D01*
X1040746Y3860650D01*
X1040745Y3860650D01*
X1040745Y3860651D01*
X1036902Y3862501D01*
X1036279Y3862846D01*
X1032666Y3865116D01*
X1028857Y3866449D01*
X1028639Y3866525D01*
X1027982Y3866797D01*
X1025839Y3867829D01*
X1024137Y3868648D01*
X1019978Y3869598D01*
X1019294Y3869795D01*
X1015267Y3871204D01*
X1011028Y3871681D01*
X1010326Y3871801D01*
X1006167Y3872750D01*
X1006167Y3872750D01*
X1001544Y3872750D01*
X973012Y3872750D01*
X966145Y3874766D01*
X965401Y3875283D01*
X956963Y3881600D01*
X943478Y3886629D01*
X943478Y3886629D01*
X943478Y3886629D01*
X937518Y3887270D01*
X851743Y3887270D01*
X851742Y3887270D01*
X845782Y3886629D01*
X832297Y3881599D01*
X823501Y3875015D01*
X816796Y3872514D01*
X809804Y3874035D01*
X808279Y3875015D01*
X799483Y3881599D01*
X799483Y3881600D01*
X785998Y3886629D01*
X785998Y3886629D01*
X785998Y3886629D01*
X780038Y3887270D01*
X694263Y3887270D01*
X694262Y3887270D01*
X688302Y3886629D01*
X688302Y3886629D01*
X688302Y3886629D01*
X674817Y3881600D01*
X674817Y3881599D01*
X674817Y3881599D01*
X663296Y3872975D01*
X663295Y3872974D01*
X655571Y3862656D01*
X654670Y3861453D01*
X650767Y3850986D01*
X649641Y3847968D01*
X649000Y3842008D01*
X649000Y3782708D01*
X646984Y3775842D01*
X641576Y3771156D01*
X634493Y3770137D01*
X632176Y3770696D01*
X620304Y3774772D01*
X620304Y3774772D01*
X620304Y3774772D01*
X596345Y3778770D01*
X572055Y3778770D01*
X554509Y3775842D01*
X548096Y3774772D01*
X525122Y3766885D01*
X503759Y3755324D01*
X484591Y3740405D01*
X468139Y3722534D01*
X454854Y3702199D01*
X454853Y3702198D01*
X445097Y3679955D01*
X445096Y3679954D01*
X445096Y3679954D01*
X439812Y3659086D01*
X439134Y3656407D01*
X437128Y3632200D01*
X437128Y3632200D01*
X437551Y3627095D01*
X439134Y3607993D01*
X445096Y3584446D01*
X445097Y3584445D01*
X454853Y3562202D01*
X454854Y3562201D01*
X468139Y3541866D01*
X476254Y3533051D01*
X479421Y3526634D01*
X478616Y3519524D01*
X474094Y3513977D01*
X467292Y3511756D01*
X466910Y3511750D01*
X396008Y3511750D01*
X395625Y3511762D01*
X392218Y3511968D01*
X389440Y3512136D01*
X389439Y3512136D01*
X383342Y3511019D01*
X382963Y3510961D01*
X376813Y3510214D01*
X375891Y3509864D01*
X373678Y3509247D01*
X372707Y3509070D01*
X372706Y3509069D01*
X367055Y3506526D01*
X366701Y3506379D01*
X360907Y3504182D01*
X360094Y3503621D01*
X358094Y3502493D01*
X357194Y3502088D01*
X357194Y3502088D01*
X352316Y3498266D01*
X352007Y3498039D01*
X346907Y3494518D01*
X346907Y3494518D01*
X342798Y3489880D01*
X342535Y3489600D01*
X282300Y3429365D01*
X282020Y3429102D01*
X277382Y3424993D01*
X277382Y3424993D01*
X273861Y3419892D01*
X273634Y3419583D01*
X269812Y3414706D01*
X269812Y3414705D01*
X269407Y3413806D01*
X268279Y3411805D01*
X267718Y3410993D01*
X267718Y3410993D01*
X265521Y3405199D01*
X265374Y3404845D01*
X262831Y3399193D01*
X262653Y3398222D01*
X262036Y3396009D01*
X261686Y3395087D01*
X260939Y3388936D01*
X260881Y3388557D01*
X259764Y3382461D01*
X259764Y3382460D01*
X260138Y3376275D01*
X260150Y3375892D01*
X260150Y3050309D01*
X260138Y3049925D01*
X259764Y3043740D01*
X30050Y3043740D01*
X30050Y4203700D01*
X32066Y4210566D01*
X37474Y4215252D01*
X42750Y4216400D01*
X2933700Y4216400D01*
X2940566Y4214384D01*
G37*
%TD.AperFunction*%
%TD*%
%TA.AperFunction,NonConductor*%
G36*
X1711685Y7388675D02*
G01*
X1716705Y7383655D01*
X1718215Y7376717D01*
X1718072Y7375527D01*
X1717415Y7371619D01*
X1719151Y7357100D01*
X1724907Y7343659D01*
X1724907Y7343658D01*
X1734217Y7332383D01*
X1734217Y7332383D01*
X1734217Y7332383D01*
X1739136Y7328791D01*
X1739137Y7328790D01*
X1739137Y7328790D01*
X1846547Y7266777D01*
X1851041Y7264789D01*
X1852118Y7264313D01*
X1866538Y7261888D01*
X1873891Y7262767D01*
X1880892Y7261590D01*
X1886146Y7256814D01*
X1886970Y7255216D01*
X1889885Y7248409D01*
X1889885Y7248408D01*
X1899194Y7237133D01*
X1899195Y7237133D01*
X1899195Y7237133D01*
X1904114Y7233541D01*
X1904115Y7233540D01*
X1904115Y7233540D01*
X2011525Y7171527D01*
X2017095Y7169063D01*
X2017096Y7169063D01*
X2031665Y7166613D01*
X2038051Y7163511D01*
X2041746Y7157448D01*
X2041577Y7150351D01*
X2041158Y7149227D01*
X2039366Y7145042D01*
X2037630Y7130523D01*
X2040055Y7116104D01*
X2040055Y7116103D01*
X2042519Y7110533D01*
X2104532Y7003123D01*
X2104533Y7003122D01*
X2108125Y6998203D01*
X2108125Y6998202D01*
X2114686Y6992785D01*
X2119401Y6988893D01*
X2126209Y6985978D01*
X2131683Y6981457D01*
X2133845Y6974695D01*
X2133760Y6972899D01*
X2132880Y6965545D01*
X2135305Y6951126D01*
X2135305Y6951125D01*
X2137769Y6945555D01*
X2199782Y6838145D01*
X2199783Y6838144D01*
X2203375Y6833225D01*
X2203375Y6833225D01*
X2214651Y6823915D01*
X2214651Y6823915D01*
X2228056Y6818174D01*
X2233531Y6813654D01*
X2235693Y6806892D01*
X2233855Y6800034D01*
X2230647Y6796505D01*
X2219504Y6788163D01*
X2210742Y6776458D01*
X2210742Y6776458D01*
X2205632Y6762758D01*
X2205632Y6762757D01*
X2204981Y6756702D01*
X2204981Y6632673D01*
X2205632Y6626618D01*
X2205632Y6626617D01*
X2210742Y6612917D01*
X2210742Y6612917D01*
X2215180Y6606988D01*
X2217661Y6600336D01*
X2216152Y6593399D01*
X2215180Y6591887D01*
X2210742Y6585958D01*
X2210742Y6585958D01*
X2205632Y6572258D01*
X2205632Y6572257D01*
X2204981Y6566202D01*
X2204981Y6442173D01*
X2205632Y6436118D01*
X2205632Y6436117D01*
X2210742Y6422417D01*
X2210742Y6422417D01*
X2219505Y6410711D01*
X2231280Y6401896D01*
X2235535Y6396213D01*
X2236041Y6389131D01*
X2232639Y6382900D01*
X2226408Y6379497D01*
X2225225Y6379298D01*
X2220467Y6378730D01*
X2207026Y6372974D01*
X2207026Y6372974D01*
X2195751Y6363664D01*
X2195750Y6363664D01*
X2192158Y6358745D01*
X2192158Y6358743D01*
X2130144Y6251333D01*
X2127680Y6245763D01*
X2127680Y6245763D01*
X2125255Y6231343D01*
X2126135Y6223990D01*
X2124957Y6216988D01*
X2120182Y6211735D01*
X2118584Y6210911D01*
X2111776Y6207996D01*
X2111776Y6207996D01*
X2100501Y6198686D01*
X2100500Y6198686D01*
X2096908Y6193767D01*
X2096907Y6193766D01*
X2034894Y6086355D01*
X2032430Y6080786D01*
X2032430Y6080785D01*
X2030005Y6066365D01*
X2030985Y6058170D01*
X2029808Y6051168D01*
X2025032Y6045915D01*
X2018174Y6044077D01*
X2016978Y6044163D01*
X2009026Y6045114D01*
X1994607Y6042689D01*
X1994606Y6042689D01*
X1989036Y6040225D01*
X1881626Y5978211D01*
X1881625Y5978211D01*
X1876705Y5974619D01*
X1876705Y5974618D01*
X1867396Y5963343D01*
X1867396Y5963343D01*
X1864480Y5956535D01*
X1859960Y5951061D01*
X1853198Y5948899D01*
X1851402Y5948984D01*
X1844048Y5949864D01*
X1829629Y5947439D01*
X1829628Y5947439D01*
X1824058Y5944975D01*
X1716648Y5882961D01*
X1716647Y5882961D01*
X1711728Y5879369D01*
X1711727Y5879368D01*
X1702418Y5868093D01*
X1702418Y5868093D01*
X1696662Y5854652D01*
X1696462Y5852981D01*
X1694926Y5840133D01*
X1695325Y5837758D01*
X1697409Y5825369D01*
X1696566Y5818320D01*
X1694485Y5815005D01*
X1692148Y5812321D01*
X1690114Y5809986D01*
X1689380Y5809186D01*
X1684889Y5804289D01*
X1684446Y5803670D01*
X1684416Y5803692D01*
X1684234Y5803431D01*
X1684265Y5803410D01*
X1683838Y5802779D01*
X1680304Y5795906D01*
X1676596Y5789126D01*
X1676313Y5788418D01*
X1676278Y5788432D01*
X1676165Y5788137D01*
X1676200Y5788124D01*
X1675936Y5787409D01*
X1674149Y5779887D01*
X1672172Y5772419D01*
X1672067Y5771664D01*
X1672030Y5771670D01*
X1671990Y5771354D01*
X1672027Y5771350D01*
X1671942Y5770593D01*
X1672007Y5762866D01*
X1671949Y5759474D01*
X1671949Y5759474D01*
X1672013Y5758860D01*
X1672046Y5758262D01*
X1672088Y5753311D01*
X1672706Y5750894D01*
X1673030Y5749079D01*
X1679819Y5683804D01*
X1678534Y5676822D01*
X1673679Y5671642D01*
X1670548Y5670330D01*
X1660020Y5667509D01*
X1651031Y5665100D01*
X1648506Y5664177D01*
X1640247Y5661158D01*
X1640246Y5661158D01*
X1623531Y5651127D01*
X1609177Y5637937D01*
X1609177Y5637937D01*
X1597772Y5622128D01*
X1597772Y5622127D01*
X1589783Y5604346D01*
X1589783Y5604346D01*
X1585537Y5585320D01*
X1585537Y5585320D01*
X1585208Y5565829D01*
X1585208Y5565828D01*
X1587186Y5554517D01*
X1612996Y5458193D01*
X1616243Y5450220D01*
X1616243Y5450220D01*
X1625127Y5438642D01*
X1625144Y5438619D01*
X1630316Y5434700D01*
X1632005Y5433419D01*
X1632007Y5433419D01*
X1655122Y5420073D01*
X1660022Y5414934D01*
X1661422Y5409161D01*
X1661422Y5157776D01*
X1659422Y5150964D01*
X1656678Y5147925D01*
X1647963Y5140974D01*
X1633518Y5124441D01*
X1622257Y5105594D01*
X1622257Y5105593D01*
X1618401Y5095318D01*
X1614134Y5089643D01*
X1607477Y5087176D01*
X1600543Y5088699D01*
X1595533Y5093730D01*
X1594808Y5095318D01*
X1594744Y5095488D01*
X1594744Y5095489D01*
X1585218Y5115270D01*
X1572313Y5133032D01*
X1556444Y5148204D01*
X1556444Y5148204D01*
X1556004Y5148555D01*
X1551925Y5154366D01*
X1551259Y5158406D01*
X1551259Y5626529D01*
X1553260Y5633341D01*
X1558625Y5637990D01*
X1559454Y5638334D01*
X1569317Y5642012D01*
X1581023Y5650775D01*
X1586248Y5657756D01*
X1589785Y5662481D01*
X1589785Y5662481D01*
X1589785Y5662481D01*
X1594895Y5676181D01*
X1595008Y5677231D01*
X1595546Y5682236D01*
X1595546Y5682238D01*
X1595546Y5806265D01*
X1595546Y5806266D01*
X1594895Y5812321D01*
X1594895Y5812322D01*
X1590029Y5825369D01*
X1589785Y5826022D01*
X1589785Y5826022D01*
X1589785Y5826022D01*
X1585347Y5831950D01*
X1582866Y5838602D01*
X1584375Y5845540D01*
X1585347Y5847052D01*
X1589785Y5852980D01*
X1589785Y5852980D01*
X1589785Y5852981D01*
X1594895Y5866681D01*
X1595047Y5868093D01*
X1595546Y5872736D01*
X1595546Y5872738D01*
X1595546Y5996765D01*
X1595546Y5996766D01*
X1594895Y6002821D01*
X1594895Y6002822D01*
X1590958Y6013377D01*
X1589785Y6016522D01*
X1589785Y6016522D01*
X1589785Y6016522D01*
X1581023Y6028227D01*
X1578854Y6029850D01*
X1574600Y6035534D01*
X1574094Y6042616D01*
X1577496Y6048846D01*
X1677973Y6149323D01*
X1684204Y6152726D01*
X1691285Y6152219D01*
X1692997Y6151431D01*
X1693393Y6151211D01*
X1711993Y6145375D01*
X1731387Y6143403D01*
X1750781Y6145375D01*
X1769381Y6151211D01*
X1786425Y6160671D01*
X1795232Y6168040D01*
X1909160Y6281968D01*
X1916529Y6290775D01*
X1925989Y6307819D01*
X1931825Y6326419D01*
X1933797Y6345813D01*
X1931825Y6365207D01*
X1925989Y6383807D01*
X1916529Y6400852D01*
X1909160Y6409658D01*
X1837658Y6481160D01*
X1828852Y6488529D01*
X1828851Y6488529D01*
X1811807Y6497989D01*
X1793207Y6503825D01*
X1780278Y6505140D01*
X1773813Y6505797D01*
X1773813Y6505797D01*
X1754419Y6503825D01*
X1735819Y6497989D01*
X1718775Y6488529D01*
X1713448Y6484071D01*
X1709968Y6481160D01*
X1596040Y6367232D01*
X1593128Y6363752D01*
X1588671Y6358425D01*
X1579211Y6341381D01*
X1573375Y6322781D01*
X1571403Y6303387D01*
X1573375Y6283993D01*
X1579211Y6265393D01*
X1579431Y6264996D01*
X1580987Y6258070D01*
X1578552Y6251401D01*
X1577323Y6249973D01*
X1426178Y6098827D01*
X1425901Y6098567D01*
X1421184Y6094388D01*
X1417604Y6089201D01*
X1417378Y6088895D01*
X1413493Y6083936D01*
X1413493Y6083936D01*
X1413070Y6082996D01*
X1411951Y6081012D01*
X1411366Y6080165D01*
X1411366Y6080164D01*
X1409131Y6074271D01*
X1408985Y6073920D01*
X1406400Y6068175D01*
X1406400Y6068175D01*
X1406214Y6067162D01*
X1405602Y6064967D01*
X1405237Y6064004D01*
X1404478Y6057751D01*
X1404420Y6057374D01*
X1403447Y6052062D01*
X1400252Y6045722D01*
X1394772Y6042491D01*
X1394815Y6042376D01*
X1394166Y6042134D01*
X1394136Y6042116D01*
X1394084Y6042103D01*
X1380376Y6036990D01*
X1380376Y6036990D01*
X1368670Y6028227D01*
X1359908Y6016522D01*
X1359908Y6016522D01*
X1354798Y6002822D01*
X1354797Y6002821D01*
X1354147Y5996766D01*
X1354147Y5872736D01*
X1354797Y5866682D01*
X1354798Y5866681D01*
X1359908Y5852981D01*
X1359908Y5852981D01*
X1360435Y5852277D01*
X1364346Y5847052D01*
X1366827Y5840400D01*
X1365318Y5833463D01*
X1364346Y5831951D01*
X1359908Y5826022D01*
X1359908Y5826022D01*
X1354798Y5812322D01*
X1354797Y5812321D01*
X1354147Y5806266D01*
X1354147Y5682236D01*
X1354797Y5676182D01*
X1354798Y5676181D01*
X1359908Y5662481D01*
X1359908Y5662481D01*
X1368670Y5650775D01*
X1380376Y5642013D01*
X1380376Y5642012D01*
X1380376Y5642012D01*
X1382984Y5641040D01*
X1394076Y5636902D01*
X1394076Y5636902D01*
X1394076Y5636902D01*
X1394077Y5636902D01*
X1397012Y5636587D01*
X1397666Y5636516D01*
X1404225Y5633800D01*
X1408275Y5627968D01*
X1408919Y5623989D01*
X1408919Y5157776D01*
X1406919Y5150964D01*
X1404175Y5147925D01*
X1395460Y5140974D01*
X1381015Y5124441D01*
X1369754Y5105594D01*
X1369754Y5105593D01*
X1365056Y5093074D01*
X1360789Y5087400D01*
X1354132Y5084932D01*
X1347198Y5086455D01*
X1342188Y5091486D01*
X1341113Y5094150D01*
X1340791Y5095318D01*
X1340744Y5095489D01*
X1331218Y5115270D01*
X1318313Y5133032D01*
X1302444Y5148204D01*
X1302444Y5148204D01*
X1302004Y5148555D01*
X1297925Y5154366D01*
X1297260Y5158406D01*
X1297260Y5380464D01*
X1299260Y5387276D01*
X1302488Y5390682D01*
X1302769Y5390885D01*
X1302770Y5390885D01*
X1318579Y5402290D01*
X1331769Y5416644D01*
X1341800Y5433360D01*
X1345743Y5444144D01*
X1345743Y5444144D01*
X1371914Y5541817D01*
X1372520Y5545283D01*
X1373892Y5553129D01*
X1373563Y5572620D01*
X1369317Y5591646D01*
X1361328Y5609427D01*
X1349923Y5625237D01*
X1335569Y5638427D01*
X1335569Y5638427D01*
X1318854Y5648458D01*
X1318853Y5648458D01*
X1310988Y5651333D01*
X1308069Y5652400D01*
X1294042Y5656159D01*
X1274309Y5661447D01*
X1268247Y5665142D01*
X1265144Y5671528D01*
X1264970Y5673617D01*
X1264970Y5739093D01*
X1264982Y5739474D01*
X1264984Y5739508D01*
X1265362Y5745762D01*
X1264226Y5751961D01*
X1264169Y5752334D01*
X1263409Y5758590D01*
X1263044Y5759552D01*
X1262432Y5761750D01*
X1262247Y5762762D01*
X1259660Y5768508D01*
X1259515Y5768860D01*
X1257281Y5774750D01*
X1256696Y5775597D01*
X1255575Y5777584D01*
X1255153Y5778522D01*
X1255153Y5778522D01*
X1255153Y5778522D01*
X1251267Y5783483D01*
X1251043Y5783787D01*
X1249250Y5786385D01*
X1247027Y5793127D01*
X1248708Y5799842D01*
X1259057Y5817767D01*
X1261521Y5823338D01*
X1263946Y5837758D01*
X1262210Y5852277D01*
X1256454Y5865718D01*
X1247144Y5876994D01*
X1242225Y5880586D01*
X1242224Y5880587D01*
X1134814Y5942600D01*
X1129244Y5945064D01*
X1129243Y5945064D01*
X1114824Y5947489D01*
X1107470Y5946609D01*
X1100469Y5947787D01*
X1095215Y5952562D01*
X1094392Y5954160D01*
X1091476Y5960968D01*
X1082167Y5972244D01*
X1077248Y5975836D01*
X1077246Y5975837D01*
X969836Y6037850D01*
X964266Y6040314D01*
X964265Y6040314D01*
X949846Y6042739D01*
X935327Y6041003D01*
X921886Y6035247D01*
X921885Y6035247D01*
X910610Y6025937D01*
X910610Y6025937D01*
X907147Y6021195D01*
X901515Y6016873D01*
X894440Y6016282D01*
X892909Y6016719D01*
X892718Y6016764D01*
X891659Y6016883D01*
X885113Y6019633D01*
X881093Y6025485D01*
X880489Y6028673D01*
X880465Y6029097D01*
X880407Y6030099D01*
X880432Y6031914D01*
X880655Y6034495D01*
X880537Y6035247D01*
X879902Y6039300D01*
X879837Y6039907D01*
X879555Y6044764D01*
X879555Y6044765D01*
X879446Y6045365D01*
X880203Y6052424D01*
X884415Y6057782D01*
X886929Y6059618D01*
X896239Y6070893D01*
X901995Y6084335D01*
X903731Y6098854D01*
X901306Y6113274D01*
X899921Y6116404D01*
X898842Y6118844D01*
X836828Y6226254D01*
X836827Y6226256D01*
X833236Y6231175D01*
X833235Y6231175D01*
X821960Y6240484D01*
X821960Y6240485D01*
X815152Y6243400D01*
X809678Y6247920D01*
X807516Y6254682D01*
X807601Y6256477D01*
X808481Y6263832D01*
X808285Y6264996D01*
X806056Y6278251D01*
X806056Y6278252D01*
X803592Y6283822D01*
X741578Y6391232D01*
X741577Y6391233D01*
X737986Y6396152D01*
X737985Y6396153D01*
X726710Y6405462D01*
X726710Y6405462D01*
X718570Y6408948D01*
X713095Y6413468D01*
X710933Y6420231D01*
X712771Y6427089D01*
X713443Y6428082D01*
X717551Y6433570D01*
X720619Y6437668D01*
X725729Y6451368D01*
X726201Y6455754D01*
X726380Y6457424D01*
X726380Y6457425D01*
X726380Y6581452D01*
X726380Y6581453D01*
X725729Y6587508D01*
X725729Y6587509D01*
X721719Y6598260D01*
X1313650Y6598260D01*
X1317576Y6587474D01*
X1317576Y6587474D01*
X1324955Y6578681D01*
X1334896Y6572941D01*
X1343353Y6571450D01*
X1428050Y6571450D01*
X1434862Y6569450D01*
X1439511Y6564084D01*
X1440650Y6558850D01*
X1440650Y6474153D01*
X1442141Y6465696D01*
X1442141Y6465695D01*
X1447880Y6455755D01*
X1447880Y6455755D01*
X1447881Y6455754D01*
X1456674Y6448376D01*
X1460269Y6447067D01*
X1467460Y6444450D01*
X1467461Y6444450D01*
X1478940Y6444450D01*
X1484333Y6446413D01*
X1489726Y6448376D01*
X1498519Y6455754D01*
X1504259Y6465695D01*
X1505750Y6474152D01*
X1505750Y6558850D01*
X1507750Y6565662D01*
X1513116Y6570311D01*
X1518350Y6571450D01*
X1603047Y6571450D01*
X1603047Y6571450D01*
X1611504Y6572941D01*
X1621445Y6578681D01*
X1628824Y6587474D01*
X1632750Y6598261D01*
X1632750Y6609739D01*
X1632750Y6609740D01*
X1628824Y6620526D01*
X1628824Y6620526D01*
X1622412Y6628168D01*
X1621445Y6629319D01*
X1621445Y6629319D01*
X1611504Y6635059D01*
X1604858Y6636231D01*
X1603047Y6636550D01*
X1603047Y6636550D01*
X1518350Y6636550D01*
X1511538Y6638550D01*
X1506889Y6643916D01*
X1505750Y6649150D01*
X1505750Y6733847D01*
X1504259Y6742304D01*
X1504259Y6742305D01*
X1498520Y6752245D01*
X1498519Y6752246D01*
X1490922Y6758620D01*
X1489726Y6759624D01*
X1489726Y6759624D01*
X1478940Y6763550D01*
X1478939Y6763550D01*
X1467461Y6763550D01*
X1467460Y6763550D01*
X1456674Y6759624D01*
X1456674Y6759624D01*
X1447880Y6752245D01*
X1442141Y6742304D01*
X1440650Y6733847D01*
X1440650Y6649150D01*
X1438650Y6642338D01*
X1433284Y6637689D01*
X1428050Y6636550D01*
X1343353Y6636550D01*
X1342085Y6636326D01*
X1334896Y6635059D01*
X1334895Y6635059D01*
X1324955Y6629320D01*
X1324954Y6629319D01*
X1317576Y6620526D01*
X1313650Y6609740D01*
X1313650Y6598260D01*
X721719Y6598260D01*
X720619Y6601209D01*
X720619Y6601209D01*
X716181Y6607137D01*
X713700Y6613789D01*
X715209Y6620727D01*
X716181Y6622239D01*
X720619Y6628168D01*
X720619Y6628168D01*
X720619Y6628168D01*
X725729Y6641868D01*
X726380Y6647925D01*
X726380Y6771952D01*
X726114Y6774430D01*
X725729Y6778008D01*
X725729Y6778009D01*
X720619Y6791709D01*
X720619Y6791709D01*
X711856Y6803415D01*
X710122Y6804713D01*
X705867Y6810397D01*
X705361Y6817478D01*
X708763Y6823710D01*
X714995Y6827112D01*
X716176Y6827311D01*
X723269Y6828159D01*
X736710Y6833915D01*
X747986Y6843225D01*
X751578Y6848144D01*
X813592Y6955555D01*
X816056Y6961125D01*
X818481Y6975545D01*
X817601Y6982899D01*
X818779Y6989900D01*
X823554Y6995153D01*
X825152Y6995977D01*
X831960Y6998893D01*
X843236Y7008202D01*
X846828Y7013122D01*
X908842Y7120533D01*
X911306Y7126103D01*
X913731Y7140523D01*
X911995Y7155042D01*
X910011Y7159675D01*
X909168Y7166724D01*
X912270Y7173110D01*
X918332Y7176805D01*
X925430Y7176636D01*
X929901Y7173819D01*
X930002Y7173941D01*
X932926Y7171527D01*
X941885Y7164129D01*
X955327Y7158373D01*
X969846Y7156637D01*
X969846Y7156638D01*
X969846Y7156637D01*
X974667Y7157448D01*
X984265Y7159062D01*
X989836Y7161526D01*
X1097247Y7223540D01*
X1102166Y7227132D01*
X1111476Y7238408D01*
X1114391Y7245216D01*
X1118912Y7250690D01*
X1125674Y7252852D01*
X1127469Y7252767D01*
X1134824Y7251887D01*
X1134824Y7251888D01*
X1134824Y7251887D01*
X1140561Y7252852D01*
X1149243Y7254312D01*
X1154814Y7256776D01*
X1262225Y7318790D01*
X1267144Y7322382D01*
X1276454Y7333658D01*
X1282210Y7347100D01*
X1283946Y7361618D01*
X1284053Y7362513D01*
X1284334Y7362480D01*
X1285796Y7367936D01*
X1291050Y7372712D01*
X1298051Y7373889D01*
X1304578Y7371095D01*
X1306642Y7368929D01*
X1306954Y7368512D01*
X1318660Y7359750D01*
X1318660Y7359750D01*
X1318660Y7359750D01*
X1324568Y7357546D01*
X1332360Y7354640D01*
X1332361Y7354639D01*
X1338415Y7353989D01*
X1338416Y7353989D01*
X1338417Y7353988D01*
X1338417Y7353988D01*
X1462444Y7353988D01*
X1462444Y7353988D01*
X1462445Y7353989D01*
X1462445Y7353989D01*
X1468500Y7354639D01*
X1468500Y7354640D01*
X1468500Y7354640D01*
X1482201Y7359750D01*
X1488129Y7364188D01*
X1494781Y7366669D01*
X1501719Y7365160D01*
X1503231Y7364188D01*
X1509159Y7359750D01*
X1509160Y7359750D01*
X1509160Y7359750D01*
X1515068Y7357546D01*
X1522860Y7354640D01*
X1522861Y7354639D01*
X1528915Y7353989D01*
X1528916Y7353989D01*
X1528917Y7353988D01*
X1528917Y7353988D01*
X1652944Y7353988D01*
X1652944Y7353988D01*
X1652945Y7353989D01*
X1652945Y7353989D01*
X1659000Y7354639D01*
X1659000Y7354640D01*
X1659000Y7354640D01*
X1672701Y7359750D01*
X1672833Y7359848D01*
X1684406Y7368512D01*
X1693169Y7380218D01*
X1693169Y7380218D01*
X1693169Y7380218D01*
X1693841Y7382020D01*
X1698096Y7387703D01*
X1704748Y7390184D01*
X1711685Y7388675D01*
G37*
%TD.AperFunction*%
%TA.AperFunction,NonConductor*%
G36*
X1612139Y4873978D02*
G01*
X1617149Y4868948D01*
X1617874Y4867360D01*
X1617938Y4867189D01*
X1627464Y4847408D01*
X1627464Y4847407D01*
X1640369Y4829645D01*
X1640369Y4829645D01*
X1656238Y4814473D01*
X1669892Y4805460D01*
X1674475Y4800038D01*
X1675400Y4792999D01*
X1672371Y4786577D01*
X1668948Y4783863D01*
X1658035Y4777958D01*
X1658035Y4777957D01*
X1640269Y4764129D01*
X1625020Y4747566D01*
X1616889Y4735120D01*
X1611489Y4730511D01*
X1604454Y4729554D01*
X1598018Y4732551D01*
X1595793Y4735120D01*
X1587661Y4747566D01*
X1572413Y4764129D01*
X1564228Y4770500D01*
X1554647Y4777957D01*
X1543796Y4783830D01*
X1538757Y4788831D01*
X1537222Y4795762D01*
X1539678Y4802424D01*
X1543822Y4806006D01*
X1547554Y4808014D01*
X1564719Y4821703D01*
X1579164Y4838237D01*
X1590425Y4857084D01*
X1594281Y4867359D01*
X1598547Y4873034D01*
X1605204Y4875501D01*
X1612139Y4873978D01*
G37*
%TD.AperFunction*%
%TA.AperFunction,NonConductor*%
G36*
X1358981Y4876222D02*
G01*
X1363991Y4871191D01*
X1365066Y4868528D01*
X1365435Y4867188D01*
X1374961Y4847408D01*
X1374962Y4847407D01*
X1387866Y4829645D01*
X1387866Y4829645D01*
X1403735Y4814473D01*
X1417389Y4805460D01*
X1421972Y4800038D01*
X1422897Y4792999D01*
X1419868Y4786577D01*
X1416445Y4783863D01*
X1405532Y4777958D01*
X1405532Y4777957D01*
X1387766Y4764129D01*
X1372517Y4747566D01*
X1363638Y4733974D01*
X1358237Y4729365D01*
X1351203Y4728408D01*
X1344767Y4731406D01*
X1342541Y4733974D01*
X1333662Y4747566D01*
X1318413Y4764129D01*
X1310228Y4770500D01*
X1300647Y4777957D01*
X1289796Y4783830D01*
X1284757Y4788831D01*
X1283222Y4795762D01*
X1285678Y4802424D01*
X1289822Y4806006D01*
X1293554Y4808014D01*
X1310719Y4821703D01*
X1325164Y4838237D01*
X1336425Y4857084D01*
X1341123Y4869603D01*
X1345390Y4875278D01*
X1352047Y4877745D01*
X1358981Y4876222D01*
G37*
%TD.AperFunction*%
%TA.AperFunction,NonConductor*%
G36*
X2961362Y8045150D02*
G01*
X2966011Y8039784D01*
X2967150Y8034550D01*
X2967150Y4356000D01*
X2965150Y4349188D01*
X2959784Y4344539D01*
X2954550Y4343400D01*
X1048970Y4343400D01*
X1042158Y4345400D01*
X1037509Y4350766D01*
X1036370Y4356000D01*
X1036370Y4867502D01*
X1038370Y4874314D01*
X1040060Y4876410D01*
X1070128Y4906478D01*
X1076359Y4909881D01*
X1079037Y4910169D01*
X1092114Y4910169D01*
X1098926Y4908168D01*
X1103576Y4902803D01*
X1104663Y4898698D01*
X1105594Y4888352D01*
X1111435Y4867188D01*
X1120961Y4847408D01*
X1120962Y4847407D01*
X1133866Y4829645D01*
X1133866Y4829645D01*
X1149735Y4814473D01*
X1163389Y4805460D01*
X1167972Y4800038D01*
X1168897Y4792999D01*
X1165869Y4786577D01*
X1162445Y4783863D01*
X1151532Y4777958D01*
X1151532Y4777957D01*
X1133766Y4764129D01*
X1118517Y4747566D01*
X1118517Y4747565D01*
X1106204Y4728718D01*
X1097160Y4708100D01*
X1097160Y4708100D01*
X1091633Y4686276D01*
X1089774Y4663839D01*
X1091633Y4641401D01*
X1097160Y4619577D01*
X1097160Y4619577D01*
X1106204Y4598959D01*
X1118517Y4580112D01*
X1118517Y4580112D01*
X1133766Y4563548D01*
X1139223Y4559300D01*
X1151532Y4549720D01*
X1171332Y4539004D01*
X1171332Y4539004D01*
X1171332Y4539004D01*
X1182512Y4535166D01*
X1192626Y4531694D01*
X1214833Y4527989D01*
X1214833Y4527989D01*
X1237346Y4527989D01*
X1237346Y4527989D01*
X1259553Y4531694D01*
X1280847Y4539004D01*
X1300647Y4549720D01*
X1318414Y4563548D01*
X1333662Y4580112D01*
X1342541Y4593703D01*
X1347942Y4598312D01*
X1354976Y4599269D01*
X1361412Y4596272D01*
X1363638Y4593703D01*
X1366950Y4588633D01*
X1372517Y4580112D01*
X1372517Y4580112D01*
X1387766Y4563548D01*
X1393223Y4559300D01*
X1405532Y4549720D01*
X1425332Y4539004D01*
X1425332Y4539004D01*
X1425332Y4539004D01*
X1436512Y4535166D01*
X1446626Y4531694D01*
X1468833Y4527989D01*
X1468833Y4527989D01*
X1491346Y4527989D01*
X1491346Y4527989D01*
X1513553Y4531694D01*
X1534847Y4539004D01*
X1554647Y4549720D01*
X1572413Y4563548D01*
X1587662Y4580112D01*
X1595793Y4592557D01*
X1601193Y4597166D01*
X1608228Y4598124D01*
X1614664Y4595126D01*
X1616889Y4592557D01*
X1625020Y4580112D01*
X1625020Y4580112D01*
X1640269Y4563548D01*
X1645726Y4559300D01*
X1658035Y4549720D01*
X1677835Y4539004D01*
X1677835Y4539004D01*
X1677835Y4539004D01*
X1689015Y4535166D01*
X1699129Y4531694D01*
X1721336Y4527989D01*
X1721336Y4527989D01*
X1743849Y4527989D01*
X1743849Y4527989D01*
X1766056Y4531694D01*
X1787350Y4539004D01*
X1807150Y4549720D01*
X1824916Y4563548D01*
X1840165Y4580112D01*
X1852478Y4598959D01*
X1861522Y4619577D01*
X1867049Y4641402D01*
X1868908Y4663839D01*
X1867049Y4686275D01*
X1861522Y4708100D01*
X1852478Y4728718D01*
X1851806Y4729746D01*
X1840165Y4747565D01*
X1840164Y4747566D01*
X1824916Y4764129D01*
X1816731Y4770500D01*
X1807150Y4777957D01*
X1796299Y4783830D01*
X1791260Y4788831D01*
X1789725Y4795762D01*
X1792181Y4802424D01*
X1796325Y4806006D01*
X1800057Y4808014D01*
X1817222Y4821703D01*
X1831667Y4838237D01*
X1842928Y4857084D01*
X1850642Y4877639D01*
X1852586Y4888352D01*
X1854562Y4899241D01*
X1854562Y5057936D01*
X1854562Y5057936D01*
X1853087Y5074325D01*
X1853087Y5074325D01*
X1847247Y5095489D01*
X1837721Y5115269D01*
X1837720Y5115270D01*
X1824816Y5133032D01*
X1824816Y5133032D01*
X1808947Y5148204D01*
X1808507Y5148555D01*
X1804428Y5154366D01*
X1803762Y5158406D01*
X1803762Y5404719D01*
X1805763Y5411531D01*
X1811128Y5416181D01*
X1813101Y5416890D01*
X1855915Y5428362D01*
X1879568Y5434699D01*
X1879568Y5434699D01*
X1879569Y5434700D01*
X1879569Y5434700D01*
X1883052Y5435973D01*
X1890353Y5438642D01*
X1890354Y5438642D01*
X1897043Y5442656D01*
X1907069Y5448673D01*
X1921423Y5461863D01*
X1932828Y5477673D01*
X1940817Y5495454D01*
X1945063Y5514480D01*
X1945392Y5533972D01*
X1943414Y5545282D01*
X1943414Y5545283D01*
X1917243Y5642956D01*
X1913300Y5653740D01*
X1913300Y5653740D01*
X1913300Y5653740D01*
X1903269Y5670456D01*
X1890079Y5684810D01*
X1890079Y5684810D01*
X1890079Y5684810D01*
X1889807Y5685052D01*
X1889701Y5685222D01*
X1889647Y5685280D01*
X1889658Y5685290D01*
X1886042Y5691071D01*
X1886130Y5698170D01*
X1890041Y5704095D01*
X1891874Y5705383D01*
X1944758Y5735916D01*
X1949678Y5739508D01*
X1958987Y5750784D01*
X1961903Y5757592D01*
X1966423Y5763066D01*
X1973185Y5765228D01*
X1974980Y5765143D01*
X1982335Y5764263D01*
X1982335Y5764263D01*
X1982335Y5764263D01*
X1988072Y5765228D01*
X1996754Y5766688D01*
X2002325Y5769152D01*
X2062003Y5803607D01*
X2068902Y5805281D01*
X2075612Y5802959D01*
X2080000Y5797378D01*
X2080838Y5793970D01*
X2081375Y5788693D01*
X2087211Y5770093D01*
X2096671Y5753048D01*
X2098145Y5751287D01*
X2104040Y5744242D01*
X2175542Y5672740D01*
X2184348Y5665371D01*
X2201393Y5655911D01*
X2219993Y5650075D01*
X2239387Y5648103D01*
X2258781Y5650075D01*
X2277381Y5655911D01*
X2294425Y5665371D01*
X2303232Y5672740D01*
X2417160Y5786668D01*
X2424529Y5795475D01*
X2433989Y5812519D01*
X2439825Y5831119D01*
X2441797Y5850513D01*
X2439825Y5869907D01*
X2433989Y5888507D01*
X2424529Y5905552D01*
X2417160Y5914358D01*
X2345658Y5985860D01*
X2336852Y5993229D01*
X2336852Y5993229D01*
X2319807Y6002689D01*
X2301207Y6008525D01*
X2289880Y6009677D01*
X2283306Y6012356D01*
X2279223Y6018164D01*
X2278929Y6025258D01*
X2280243Y6028511D01*
X2305967Y6073067D01*
X2308431Y6078637D01*
X2310856Y6093057D01*
X2309977Y6100411D01*
X2311154Y6107412D01*
X2315929Y6112665D01*
X2317527Y6113489D01*
X2324335Y6116404D01*
X2335611Y6125714D01*
X2339203Y6130633D01*
X2380944Y6202931D01*
X2386082Y6207830D01*
X2393053Y6209173D01*
X2399644Y6206535D01*
X2402074Y6204002D01*
X2405090Y6199821D01*
X2419444Y6186631D01*
X2436160Y6176600D01*
X2436160Y6176600D01*
X2436160Y6176599D01*
X2446944Y6172657D01*
X2544617Y6146486D01*
X2544618Y6146486D01*
X2555929Y6144508D01*
X2575420Y6144837D01*
X2594446Y6149083D01*
X2612227Y6157072D01*
X2628037Y6168477D01*
X2641227Y6182831D01*
X2647790Y6193767D01*
X2651258Y6199546D01*
X2651258Y6199547D01*
X2655201Y6210332D01*
X2655201Y6210332D01*
X2696901Y6365959D01*
X2698128Y6372974D01*
X2698879Y6377271D01*
X2698550Y6396762D01*
X2694304Y6415788D01*
X2686315Y6433570D01*
X2674910Y6449379D01*
X2660556Y6462569D01*
X2643841Y6472600D01*
X2643840Y6472600D01*
X2643840Y6472601D01*
X2633056Y6476543D01*
X2535383Y6502714D01*
X2524072Y6504692D01*
X2524072Y6504692D01*
X2524072Y6504692D01*
X2524071Y6504692D01*
X2504580Y6504363D01*
X2504580Y6504363D01*
X2485554Y6500117D01*
X2485554Y6500117D01*
X2467773Y6492128D01*
X2467772Y6492127D01*
X2466352Y6491103D01*
X2459657Y6488740D01*
X2452748Y6490371D01*
X2447817Y6495480D01*
X2446381Y6501322D01*
X2446381Y6566201D01*
X2446381Y6566202D01*
X2445730Y6572257D01*
X2445730Y6572258D01*
X2440620Y6585958D01*
X2440619Y6585958D01*
X2436182Y6591886D01*
X2433700Y6598538D01*
X2435209Y6605476D01*
X2436182Y6606988D01*
X2440619Y6612917D01*
X2440619Y6612917D01*
X2440620Y6612917D01*
X2445730Y6626617D01*
X2445896Y6628168D01*
X2446381Y6632673D01*
X2446381Y6632674D01*
X2446381Y6706678D01*
X2448381Y6713490D01*
X2453747Y6718140D01*
X2460774Y6719150D01*
X2466352Y6716897D01*
X2467773Y6715872D01*
X2480965Y6709945D01*
X2485554Y6707883D01*
X2485554Y6707883D01*
X2504580Y6703637D01*
X2524072Y6703308D01*
X2535382Y6705286D01*
X2535382Y6705286D01*
X2535383Y6705286D01*
X2633056Y6731457D01*
X2633056Y6731457D01*
X2643841Y6735400D01*
X2660556Y6745431D01*
X2674910Y6758621D01*
X2686315Y6774430D01*
X2694304Y6792212D01*
X2698550Y6811238D01*
X2698879Y6830729D01*
X2696901Y6842040D01*
X2696901Y6842041D01*
X2655201Y6997668D01*
X2655201Y6997668D01*
X2654753Y6998893D01*
X2654138Y7000575D01*
X2651258Y7008453D01*
X2651258Y7008454D01*
X2641227Y7025169D01*
X2635501Y7031401D01*
X2628037Y7039523D01*
X2612227Y7050928D01*
X2612227Y7050928D01*
X2594446Y7058917D01*
X2594446Y7058917D01*
X2575420Y7063163D01*
X2555929Y7063492D01*
X2555929Y7063492D01*
X2555929Y7063492D01*
X2555928Y7063492D01*
X2555928Y7063492D01*
X2544617Y7061514D01*
X2446944Y7035343D01*
X2436160Y7031401D01*
X2436159Y7031400D01*
X2419444Y7021369D01*
X2405091Y7008180D01*
X2405090Y7008179D01*
X2402746Y7004930D01*
X2397138Y7000575D01*
X2390067Y6999944D01*
X2383776Y7003236D01*
X2381616Y7006001D01*
X2346829Y7066254D01*
X2346828Y7066256D01*
X2343236Y7071175D01*
X2343236Y7071175D01*
X2331960Y7080484D01*
X2331960Y7080485D01*
X2325152Y7083400D01*
X2319678Y7087920D01*
X2317516Y7094682D01*
X2317601Y7096477D01*
X2318481Y7103832D01*
X2316056Y7118251D01*
X2316056Y7118252D01*
X2313592Y7123822D01*
X2280619Y7180933D01*
X2278945Y7187832D01*
X2281267Y7194542D01*
X2286848Y7198930D01*
X2287908Y7199249D01*
X2287897Y7199284D01*
X2294733Y7201429D01*
X2307107Y7205311D01*
X2324152Y7214771D01*
X2332958Y7222140D01*
X2404460Y7293642D01*
X2411829Y7302448D01*
X2421289Y7319493D01*
X2427125Y7338093D01*
X2429097Y7357487D01*
X2427125Y7376881D01*
X2421289Y7395481D01*
X2411829Y7412525D01*
X2404460Y7421332D01*
X2290532Y7535260D01*
X2281725Y7542629D01*
X2281725Y7542629D01*
X2264681Y7552089D01*
X2246081Y7557925D01*
X2226687Y7559897D01*
X2207293Y7557925D01*
X2188693Y7552089D01*
X2171648Y7542629D01*
X2166321Y7538171D01*
X2162842Y7535260D01*
X2091340Y7463758D01*
X2090072Y7462243D01*
X2083971Y7454952D01*
X2074511Y7437907D01*
X2072842Y7432588D01*
X2068894Y7426688D01*
X2062383Y7423858D01*
X2055375Y7424998D01*
X2054520Y7425449D01*
X2024814Y7442599D01*
X2019244Y7445063D01*
X2019243Y7445064D01*
X2004824Y7447488D01*
X1997470Y7446609D01*
X1990469Y7447786D01*
X1985215Y7452562D01*
X1984392Y7454159D01*
X1981476Y7460968D01*
X1972167Y7472243D01*
X1967247Y7475835D01*
X1967247Y7475836D01*
X1967246Y7475836D01*
X1894388Y7517901D01*
X1889488Y7523039D01*
X1888145Y7530011D01*
X1890783Y7536602D01*
X1891408Y7537336D01*
X1903269Y7550244D01*
X1913300Y7566959D01*
X1917243Y7577744D01*
X1918573Y7582708D01*
X1943414Y7675417D01*
X1943532Y7676092D01*
X1945392Y7686728D01*
X1945063Y7706220D01*
X1940817Y7725246D01*
X1932828Y7743027D01*
X1921423Y7758837D01*
X1907069Y7772027D01*
X1907069Y7772027D01*
X1890354Y7782058D01*
X1890353Y7782058D01*
X1881133Y7785429D01*
X1879569Y7786000D01*
X1879569Y7786000D01*
X1879568Y7786001D01*
X1879568Y7786001D01*
X1723941Y7827701D01*
X1712630Y7829679D01*
X1712630Y7829679D01*
X1712629Y7829679D01*
X1712629Y7829679D01*
X1693138Y7829350D01*
X1693138Y7829350D01*
X1674112Y7825104D01*
X1674112Y7825104D01*
X1656330Y7817115D01*
X1656330Y7817115D01*
X1640521Y7805710D01*
X1640520Y7805709D01*
X1627331Y7791356D01*
X1617300Y7774641D01*
X1617299Y7774640D01*
X1613357Y7763856D01*
X1587186Y7666183D01*
X1585208Y7654872D01*
X1585208Y7654871D01*
X1585537Y7635380D01*
X1585537Y7635380D01*
X1589783Y7616354D01*
X1589783Y7616354D01*
X1591222Y7613152D01*
X1592189Y7606119D01*
X1589200Y7599679D01*
X1583204Y7595877D01*
X1579728Y7595388D01*
X1528915Y7595388D01*
X1522861Y7594738D01*
X1522860Y7594737D01*
X1509160Y7589627D01*
X1509160Y7589627D01*
X1503231Y7585189D01*
X1496579Y7582708D01*
X1489642Y7584217D01*
X1488129Y7585189D01*
X1482201Y7589627D01*
X1482201Y7589627D01*
X1468501Y7594737D01*
X1468500Y7594738D01*
X1462445Y7595388D01*
X1462444Y7595388D01*
X1379372Y7595388D01*
X1372560Y7597389D01*
X1367910Y7602754D01*
X1366900Y7609782D01*
X1367878Y7613152D01*
X1369317Y7616354D01*
X1369317Y7616354D01*
X1373563Y7635380D01*
X1373892Y7654871D01*
X1371914Y7666182D01*
X1371914Y7666183D01*
X1345743Y7763856D01*
X1341801Y7774640D01*
X1341800Y7774640D01*
X1341800Y7774640D01*
X1331769Y7791356D01*
X1318579Y7805710D01*
X1302770Y7817115D01*
X1302770Y7817115D01*
X1284988Y7825104D01*
X1284988Y7825104D01*
X1265962Y7829350D01*
X1246471Y7829679D01*
X1246471Y7829679D01*
X1246471Y7829679D01*
X1246470Y7829679D01*
X1246470Y7829679D01*
X1235159Y7827701D01*
X1079532Y7786001D01*
X1079532Y7786001D01*
X1079531Y7786000D01*
X1079531Y7786000D01*
X1078209Y7785517D01*
X1068747Y7782058D01*
X1068746Y7782058D01*
X1052031Y7772027D01*
X1037677Y7758837D01*
X1037677Y7758837D01*
X1026272Y7743028D01*
X1026272Y7743027D01*
X1018283Y7725246D01*
X1018283Y7725246D01*
X1014037Y7706220D01*
X1014037Y7706220D01*
X1013708Y7686729D01*
X1013708Y7686728D01*
X1015686Y7675417D01*
X1041857Y7577744D01*
X1045799Y7566960D01*
X1045800Y7566960D01*
X1045800Y7566959D01*
X1055831Y7550244D01*
X1069021Y7535890D01*
X1084830Y7524485D01*
X1090975Y7521725D01*
X1096368Y7517109D01*
X1098410Y7510309D01*
X1096452Y7503485D01*
X1092111Y7499320D01*
X1034115Y7465836D01*
X1034114Y7465835D01*
X1029194Y7462243D01*
X1029194Y7462243D01*
X1019885Y7450968D01*
X1019884Y7450967D01*
X1016969Y7444160D01*
X1012449Y7438685D01*
X1005686Y7436523D01*
X1003891Y7436609D01*
X996537Y7437488D01*
X982118Y7435063D01*
X982117Y7435063D01*
X976547Y7432599D01*
X885022Y7379757D01*
X878122Y7378083D01*
X871413Y7380405D01*
X867025Y7385986D01*
X866187Y7391944D01*
X866997Y7399913D01*
X866991Y7399975D01*
X865025Y7419307D01*
X859189Y7437907D01*
X849729Y7454952D01*
X842360Y7463758D01*
X770858Y7535260D01*
X762052Y7542629D01*
X762051Y7542629D01*
X745007Y7552089D01*
X726407Y7557925D01*
X707013Y7559897D01*
X687619Y7557925D01*
X669019Y7552089D01*
X651975Y7542629D01*
X646648Y7538171D01*
X643168Y7535260D01*
X529240Y7421332D01*
X527379Y7419107D01*
X521871Y7412525D01*
X512411Y7395481D01*
X506575Y7376881D01*
X504603Y7357487D01*
X506575Y7338093D01*
X511504Y7322382D01*
X512411Y7319493D01*
X521871Y7302448D01*
X529240Y7293642D01*
X600742Y7222140D01*
X609548Y7214771D01*
X626593Y7205311D01*
X645193Y7199475D01*
X654610Y7198517D01*
X661184Y7195838D01*
X665267Y7190030D01*
X665561Y7182936D01*
X664247Y7179682D01*
X637769Y7133822D01*
X635305Y7128252D01*
X635305Y7128251D01*
X632880Y7113832D01*
X633760Y7106478D01*
X632582Y7099477D01*
X627807Y7094223D01*
X626209Y7093399D01*
X619401Y7090484D01*
X619401Y7090484D01*
X608126Y7081175D01*
X608125Y7081174D01*
X604533Y7076255D01*
X604533Y7076254D01*
X569201Y7015059D01*
X564063Y7010159D01*
X557092Y7008816D01*
X550501Y7011454D01*
X549765Y7012080D01*
X539656Y7021369D01*
X522940Y7031400D01*
X522940Y7031400D01*
X522940Y7031401D01*
X512156Y7035343D01*
X414483Y7061514D01*
X403172Y7063492D01*
X403172Y7063492D01*
X403171Y7063492D01*
X403171Y7063492D01*
X383680Y7063163D01*
X383680Y7063163D01*
X364654Y7058917D01*
X364654Y7058917D01*
X346873Y7050928D01*
X346872Y7050928D01*
X331063Y7039523D01*
X331063Y7039523D01*
X317873Y7025169D01*
X307842Y7008454D01*
X307842Y7008453D01*
X303899Y6997668D01*
X303899Y6997668D01*
X262199Y6842041D01*
X260221Y6830730D01*
X260221Y6830729D01*
X260550Y6811238D01*
X260550Y6811238D01*
X264796Y6792212D01*
X264796Y6792212D01*
X266615Y6788163D01*
X272785Y6774430D01*
X284190Y6758621D01*
X298544Y6745431D01*
X315260Y6735400D01*
X315260Y6735400D01*
X315260Y6735399D01*
X326044Y6731457D01*
X423717Y6705286D01*
X423718Y6705286D01*
X435028Y6703308D01*
X454520Y6703637D01*
X469636Y6707010D01*
X476720Y6706542D01*
X482426Y6702318D01*
X484943Y6695679D01*
X484980Y6694713D01*
X484980Y6647924D01*
X485631Y6641869D01*
X485631Y6641868D01*
X490741Y6628168D01*
X490741Y6628168D01*
X495179Y6622239D01*
X497661Y6615587D01*
X496151Y6608650D01*
X495179Y6607138D01*
X490741Y6601209D01*
X490741Y6601209D01*
X485631Y6587509D01*
X485631Y6587508D01*
X484980Y6581453D01*
X484980Y6508748D01*
X482980Y6501936D01*
X477614Y6497287D01*
X470587Y6496276D01*
X467216Y6497255D01*
X460846Y6500117D01*
X460846Y6500117D01*
X441820Y6504363D01*
X422329Y6504692D01*
X422329Y6504692D01*
X422328Y6504692D01*
X422328Y6504692D01*
X422328Y6504692D01*
X411017Y6502714D01*
X313344Y6476543D01*
X302560Y6472601D01*
X302559Y6472600D01*
X285844Y6462569D01*
X271491Y6449380D01*
X271490Y6449379D01*
X260085Y6433570D01*
X260085Y6433570D01*
X252096Y6415788D01*
X252096Y6415788D01*
X247850Y6396762D01*
X247850Y6396762D01*
X247521Y6377271D01*
X247521Y6377270D01*
X249499Y6365959D01*
X291199Y6210332D01*
X291199Y6210332D01*
X295142Y6199547D01*
X295142Y6199546D01*
X302893Y6186631D01*
X305173Y6182831D01*
X318363Y6168477D01*
X334173Y6157072D01*
X343846Y6152726D01*
X351954Y6149083D01*
X351954Y6149083D01*
X370980Y6144837D01*
X390471Y6144508D01*
X401782Y6146486D01*
X401782Y6146486D01*
X401783Y6146486D01*
X499456Y6172657D01*
X499456Y6172657D01*
X510240Y6176600D01*
X526956Y6186631D01*
X541310Y6199821D01*
X547711Y6208694D01*
X553318Y6213048D01*
X560389Y6213679D01*
X566680Y6210387D01*
X568841Y6207622D01*
X594532Y6163123D01*
X594533Y6163122D01*
X598125Y6158203D01*
X598125Y6158202D01*
X599494Y6157072D01*
X609401Y6148893D01*
X616209Y6145978D01*
X621683Y6141457D01*
X623845Y6134695D01*
X623759Y6132899D01*
X622880Y6125545D01*
X625305Y6111126D01*
X625305Y6111125D01*
X627769Y6105555D01*
X671912Y6029097D01*
X673586Y6022198D01*
X671264Y6015489D01*
X665683Y6011100D01*
X662275Y6010262D01*
X657472Y6009774D01*
X645193Y6008525D01*
X626593Y6002689D01*
X609548Y5993229D01*
X604221Y5988771D01*
X600742Y5985860D01*
X529240Y5914358D01*
X526329Y5910879D01*
X521871Y5905552D01*
X512411Y5888507D01*
X506575Y5869907D01*
X504603Y5850513D01*
X506575Y5831119D01*
X511631Y5815005D01*
X512411Y5812519D01*
X512521Y5812321D01*
X519447Y5799842D01*
X521871Y5795475D01*
X529240Y5786668D01*
X643168Y5672740D01*
X651975Y5665371D01*
X669019Y5655911D01*
X687619Y5650075D01*
X707013Y5648103D01*
X726407Y5650075D01*
X745007Y5655911D01*
X762052Y5665371D01*
X770858Y5672740D01*
X842360Y5744242D01*
X849729Y5753048D01*
X859189Y5770093D01*
X865025Y5788693D01*
X866025Y5798529D01*
X868704Y5805103D01*
X874512Y5809186D01*
X881606Y5809480D01*
X884860Y5808166D01*
X956547Y5766777D01*
X961040Y5764790D01*
X962118Y5764313D01*
X976537Y5761888D01*
X983891Y5762768D01*
X990892Y5761590D01*
X996146Y5756815D01*
X996969Y5755217D01*
X999885Y5748409D01*
X999885Y5748409D01*
X1009194Y5737133D01*
X1009194Y5737133D01*
X1009195Y5737133D01*
X1014114Y5733541D01*
X1065116Y5704095D01*
X1075048Y5698361D01*
X1079947Y5693223D01*
X1081291Y5686251D01*
X1078652Y5679660D01*
X1076119Y5677231D01*
X1069021Y5672110D01*
X1069020Y5672109D01*
X1055831Y5657756D01*
X1045800Y5641041D01*
X1045799Y5641040D01*
X1041857Y5630256D01*
X1015686Y5532583D01*
X1013708Y5521272D01*
X1013708Y5521271D01*
X1014037Y5501780D01*
X1014037Y5501780D01*
X1018283Y5482754D01*
X1018283Y5482754D01*
X1026272Y5464973D01*
X1026272Y5464973D01*
X1037677Y5449163D01*
X1049126Y5438642D01*
X1052031Y5435973D01*
X1068746Y5425942D01*
X1068747Y5425942D01*
X1077240Y5422837D01*
X1079531Y5422000D01*
X1079531Y5422000D01*
X1079532Y5421999D01*
X1079532Y5421999D01*
X1099518Y5416644D01*
X1145581Y5404302D01*
X1151643Y5400607D01*
X1154745Y5394221D01*
X1154920Y5392131D01*
X1154920Y5157776D01*
X1152919Y5150964D01*
X1150176Y5147925D01*
X1141460Y5140974D01*
X1127015Y5124441D01*
X1115754Y5105594D01*
X1115754Y5105594D01*
X1108040Y5085038D01*
X1104018Y5062879D01*
X1103749Y5062928D01*
X1101582Y5057395D01*
X1095831Y5053233D01*
X1091619Y5052509D01*
X1046678Y5052509D01*
X1046298Y5052520D01*
X1040010Y5052900D01*
X1040010Y5052900D01*
X1040010Y5052900D01*
X1033812Y5051765D01*
X1033436Y5051707D01*
X1032804Y5051631D01*
X1027181Y5050948D01*
X1026218Y5050583D01*
X1024022Y5049971D01*
X1023010Y5049785D01*
X1017264Y5047199D01*
X1016912Y5047054D01*
X1011021Y5044819D01*
X1010173Y5044234D01*
X1008188Y5043114D01*
X1007250Y5042692D01*
X1007249Y5042692D01*
X1002291Y5038807D01*
X1001984Y5038582D01*
X996797Y5035001D01*
X992618Y5030284D01*
X992358Y5030007D01*
X916530Y4954180D01*
X916253Y4953919D01*
X911537Y4949741D01*
X907957Y4944555D01*
X907732Y4944249D01*
X903846Y4939289D01*
X903846Y4939289D01*
X903424Y4938350D01*
X902305Y4936366D01*
X901720Y4935518D01*
X901719Y4935517D01*
X899484Y4929625D01*
X899339Y4929273D01*
X896754Y4923529D01*
X896753Y4923529D01*
X896568Y4922516D01*
X895956Y4920321D01*
X895590Y4919357D01*
X894831Y4913104D01*
X894774Y4912728D01*
X893638Y4906529D01*
X894018Y4900240D01*
X894030Y4899859D01*
X894030Y4356000D01*
X892030Y4349188D01*
X886664Y4344539D01*
X881430Y4343400D01*
X42650Y4343400D01*
X35838Y4345400D01*
X31189Y4350766D01*
X30050Y4356000D01*
X30050Y8034550D01*
X32050Y8041362D01*
X37416Y8046011D01*
X42650Y8047150D01*
X2954550Y8047150D01*
X2961362Y8045150D01*
G37*
%TD.AperFunction*%
M02*
