%TF.GenerationSoftware,KiCad,Pcbnew,7.0.6*%
%TF.CreationDate,2024-06-03T16:03:27+02:00*%
%TF.ProjectId,ToneGenerator,546f6e65-4765-46e6-9572-61746f722e6b,rev?*%
%TF.SameCoordinates,PX791ddc0PY9157080*%
%TF.FileFunction,Legend,Top*%
%TF.FilePolarity,Positive*%
%FSLAX45Y45*%
G04 Gerber Fmt 4.5, Leading zero omitted, Abs format (unit mm)*
G04 Created by KiCad (PCBNEW 7.0.6) date 2024-06-03 16:03:27*
%MOMM*%
%LPD*%
G01*
G04 APERTURE LIST*
%ADD10C,0.150000*%
%ADD11C,0.127000*%
%ADD12C,0.190500*%
%ADD13C,0.121920*%
%ADD14C,0.152400*%
%ADD15C,0.100000*%
%ADD16C,0.120000*%
%ADD17C,0.088900*%
%ADD18C,0.200000*%
%ADD19C,0.106680*%
%ADD20C,0.125000*%
%ADD21C,0.304800*%
%ADD22C,0.254000*%
%ADD23C,0.203200*%
G04 APERTURE END LIST*
D10*
X1874618Y4525921D02*
X1079618Y4524145D01*
D11*
X28490Y4267200D02*
X2971800Y4267200D01*
D10*
X1874618Y5320000D02*
X1874618Y4525921D01*
D11*
X2997200Y4267200D02*
X2997200Y29760D01*
D10*
X1079618Y4534758D02*
X1079618Y5315855D01*
D12*
X1687185Y3909902D02*
X1702606Y3904762D01*
X1702606Y3904762D02*
X1728308Y3904762D01*
X1728308Y3904762D02*
X1738589Y3909902D01*
X1738589Y3909902D02*
X1743730Y3915043D01*
X1743730Y3915043D02*
X1748870Y3925324D01*
X1748870Y3925324D02*
X1748870Y3935604D01*
X1748870Y3935604D02*
X1743730Y3945885D01*
X1743730Y3945885D02*
X1738589Y3951026D01*
X1738589Y3951026D02*
X1728308Y3956166D01*
X1728308Y3956166D02*
X1707747Y3961307D01*
X1707747Y3961307D02*
X1697466Y3966447D01*
X1697466Y3966447D02*
X1692325Y3971588D01*
X1692325Y3971588D02*
X1687185Y3981869D01*
X1687185Y3981869D02*
X1687185Y3992150D01*
X1687185Y3992150D02*
X1692325Y4002431D01*
X1692325Y4002431D02*
X1697466Y4007571D01*
X1697466Y4007571D02*
X1707747Y4012712D01*
X1707747Y4012712D02*
X1733449Y4012712D01*
X1733449Y4012712D02*
X1748870Y4007571D01*
X1789994Y4002431D02*
X1795135Y4007571D01*
X1795135Y4007571D02*
X1805416Y4012712D01*
X1805416Y4012712D02*
X1831118Y4012712D01*
X1831118Y4012712D02*
X1841399Y4007571D01*
X1841399Y4007571D02*
X1846539Y4002431D01*
X1846539Y4002431D02*
X1851680Y3992150D01*
X1851680Y3992150D02*
X1851680Y3981869D01*
X1851680Y3981869D02*
X1846539Y3966447D01*
X1846539Y3966447D02*
X1784854Y3904762D01*
X1784854Y3904762D02*
X1851680Y3904762D01*
X1918506Y4012712D02*
X1928787Y4012712D01*
X1928787Y4012712D02*
X1939068Y4007571D01*
X1939068Y4007571D02*
X1944208Y4002431D01*
X1944208Y4002431D02*
X1949349Y3992150D01*
X1949349Y3992150D02*
X1954489Y3971588D01*
X1954489Y3971588D02*
X1954489Y3945885D01*
X1954489Y3945885D02*
X1949349Y3925324D01*
X1949349Y3925324D02*
X1944208Y3915043D01*
X1944208Y3915043D02*
X1939068Y3909902D01*
X1939068Y3909902D02*
X1928787Y3904762D01*
X1928787Y3904762D02*
X1918506Y3904762D01*
X1918506Y3904762D02*
X1908225Y3909902D01*
X1908225Y3909902D02*
X1903085Y3915043D01*
X1903085Y3915043D02*
X1897944Y3925324D01*
X1897944Y3925324D02*
X1892804Y3945885D01*
X1892804Y3945885D02*
X1892804Y3971588D01*
X1892804Y3971588D02*
X1897944Y3992150D01*
X1897944Y3992150D02*
X1903085Y4002431D01*
X1903085Y4002431D02*
X1908225Y4007571D01*
X1908225Y4007571D02*
X1918506Y4012712D01*
X1995613Y4002431D02*
X2000754Y4007571D01*
X2000754Y4007571D02*
X2011035Y4012712D01*
X2011035Y4012712D02*
X2036737Y4012712D01*
X2036737Y4012712D02*
X2047018Y4007571D01*
X2047018Y4007571D02*
X2052158Y4002431D01*
X2052158Y4002431D02*
X2057299Y3992150D01*
X2057299Y3992150D02*
X2057299Y3981869D01*
X2057299Y3981869D02*
X2052158Y3966447D01*
X2052158Y3966447D02*
X1990473Y3904762D01*
X1990473Y3904762D02*
X2057299Y3904762D01*
X2149827Y3976728D02*
X2149827Y3904762D01*
X2124125Y4017852D02*
X2098423Y3940745D01*
X2098423Y3940745D02*
X2165249Y3940745D01*
X2262918Y3904762D02*
X2201232Y3904762D01*
X2232075Y3904762D02*
X2232075Y4012712D01*
X2232075Y4012712D02*
X2221794Y3997290D01*
X2221794Y3997290D02*
X2211513Y3987009D01*
X2211513Y3987009D02*
X2201232Y3981869D01*
X2314323Y3904762D02*
X2334885Y3904762D01*
X2334885Y3904762D02*
X2345166Y3909902D01*
X2345166Y3909902D02*
X2350306Y3915043D01*
X2350306Y3915043D02*
X2360587Y3930464D01*
X2360587Y3930464D02*
X2365727Y3951026D01*
X2365727Y3951026D02*
X2365727Y3992150D01*
X2365727Y3992150D02*
X2360587Y4002431D01*
X2360587Y4002431D02*
X2355446Y4007571D01*
X2355446Y4007571D02*
X2345166Y4012712D01*
X2345166Y4012712D02*
X2324604Y4012712D01*
X2324604Y4012712D02*
X2314323Y4007571D01*
X2314323Y4007571D02*
X2309182Y4002431D01*
X2309182Y4002431D02*
X2304042Y3992150D01*
X2304042Y3992150D02*
X2304042Y3966447D01*
X2304042Y3966447D02*
X2309182Y3956166D01*
X2309182Y3956166D02*
X2314323Y3951026D01*
X2314323Y3951026D02*
X2324604Y3945885D01*
X2324604Y3945885D02*
X2345166Y3945885D01*
X2345166Y3945885D02*
X2355446Y3951026D01*
X2355446Y3951026D02*
X2360587Y3956166D01*
X2360587Y3956166D02*
X2365727Y3966447D01*
X2411992Y3945885D02*
X2494239Y3945885D01*
X2602189Y3904762D02*
X2540504Y3904762D01*
X2571346Y3904762D02*
X2571346Y4012712D01*
X2571346Y4012712D02*
X2561066Y3997290D01*
X2561066Y3997290D02*
X2550785Y3987009D01*
X2550785Y3987009D02*
X2540504Y3981869D01*
D13*
X120082Y1756031D02*
X120082Y1808669D01*
X146401Y1782350D02*
X93762Y1782350D01*
X77313Y1874467D02*
X77313Y1841568D01*
X77313Y1841568D02*
X110212Y1838278D01*
X110212Y1838278D02*
X106922Y1841568D01*
X106922Y1841568D02*
X103632Y1848148D01*
X103632Y1848148D02*
X103632Y1864597D01*
X103632Y1864597D02*
X106922Y1871177D01*
X106922Y1871177D02*
X110212Y1874467D01*
X110212Y1874467D02*
X116792Y1877757D01*
X116792Y1877757D02*
X133241Y1877757D01*
X133241Y1877757D02*
X139821Y1874467D01*
X139821Y1874467D02*
X143111Y1871177D01*
X143111Y1871177D02*
X146401Y1864597D01*
X146401Y1864597D02*
X146401Y1848148D01*
X146401Y1848148D02*
X143111Y1841568D01*
X143111Y1841568D02*
X139821Y1838278D01*
X77313Y1897496D02*
X146401Y1920526D01*
X146401Y1920526D02*
X77313Y1943555D01*
D10*
X1271135Y3412947D02*
X1271135Y3482947D01*
X1344468Y3419613D02*
X1341135Y3416280D01*
X1341135Y3416280D02*
X1331135Y3412947D01*
X1331135Y3412947D02*
X1324468Y3412947D01*
X1324468Y3412947D02*
X1314468Y3416280D01*
X1314468Y3416280D02*
X1307802Y3422947D01*
X1307802Y3422947D02*
X1304468Y3429613D01*
X1304468Y3429613D02*
X1301135Y3442947D01*
X1301135Y3442947D02*
X1301135Y3452947D01*
X1301135Y3452947D02*
X1304468Y3466280D01*
X1304468Y3466280D02*
X1307802Y3472947D01*
X1307802Y3472947D02*
X1314468Y3479613D01*
X1314468Y3479613D02*
X1324468Y3482947D01*
X1324468Y3482947D02*
X1331135Y3482947D01*
X1331135Y3482947D02*
X1341135Y3479613D01*
X1341135Y3479613D02*
X1344468Y3476280D01*
X1411135Y3412947D02*
X1371135Y3412947D01*
X1391135Y3412947D02*
X1391135Y3482947D01*
X1391135Y3482947D02*
X1384468Y3472947D01*
X1384468Y3472947D02*
X1377802Y3466280D01*
X1377802Y3466280D02*
X1371135Y3462947D01*
X1524468Y3459613D02*
X1524468Y3412947D01*
X1494468Y3459613D02*
X1494468Y3422947D01*
X1494468Y3422947D02*
X1497802Y3416280D01*
X1497802Y3416280D02*
X1504468Y3412947D01*
X1504468Y3412947D02*
X1514468Y3412947D01*
X1514468Y3412947D02*
X1521135Y3416280D01*
X1521135Y3416280D02*
X1524468Y3419613D01*
X1554468Y3416280D02*
X1561135Y3412947D01*
X1561135Y3412947D02*
X1574468Y3412947D01*
X1574468Y3412947D02*
X1581135Y3416280D01*
X1581135Y3416280D02*
X1584468Y3422947D01*
X1584468Y3422947D02*
X1584468Y3426280D01*
X1584468Y3426280D02*
X1581135Y3432947D01*
X1581135Y3432947D02*
X1574468Y3436280D01*
X1574468Y3436280D02*
X1564468Y3436280D01*
X1564468Y3436280D02*
X1557802Y3439613D01*
X1557802Y3439613D02*
X1554468Y3446280D01*
X1554468Y3446280D02*
X1554468Y3449613D01*
X1554468Y3449613D02*
X1557802Y3456280D01*
X1557802Y3456280D02*
X1564468Y3459613D01*
X1564468Y3459613D02*
X1574468Y3459613D01*
X1574468Y3459613D02*
X1581135Y3456280D01*
X1641135Y3416280D02*
X1634468Y3412947D01*
X1634468Y3412947D02*
X1621135Y3412947D01*
X1621135Y3412947D02*
X1614468Y3416280D01*
X1614468Y3416280D02*
X1611135Y3422947D01*
X1611135Y3422947D02*
X1611135Y3449613D01*
X1611135Y3449613D02*
X1614468Y3456280D01*
X1614468Y3456280D02*
X1621135Y3459613D01*
X1621135Y3459613D02*
X1634468Y3459613D01*
X1634468Y3459613D02*
X1641135Y3456280D01*
X1641135Y3456280D02*
X1644468Y3449613D01*
X1644468Y3449613D02*
X1644468Y3442947D01*
X1644468Y3442947D02*
X1611135Y3436280D01*
X1704468Y3412947D02*
X1704468Y3482947D01*
X1704468Y3416280D02*
X1697802Y3412947D01*
X1697802Y3412947D02*
X1684468Y3412947D01*
X1684468Y3412947D02*
X1677802Y3416280D01*
X1677802Y3416280D02*
X1674468Y3419613D01*
X1674468Y3419613D02*
X1671135Y3426280D01*
X1671135Y3426280D02*
X1671135Y3446280D01*
X1671135Y3446280D02*
X1674468Y3452947D01*
X1674468Y3452947D02*
X1677802Y3456280D01*
X1677802Y3456280D02*
X1684468Y3459613D01*
X1684468Y3459613D02*
X1697802Y3459613D01*
X1697802Y3459613D02*
X1704468Y3456280D01*
X1801135Y3412947D02*
X1794468Y3416280D01*
X1794468Y3416280D02*
X1791135Y3419613D01*
X1791135Y3419613D02*
X1787802Y3426280D01*
X1787802Y3426280D02*
X1787802Y3446280D01*
X1787802Y3446280D02*
X1791135Y3452947D01*
X1791135Y3452947D02*
X1794468Y3456280D01*
X1794468Y3456280D02*
X1801135Y3459613D01*
X1801135Y3459613D02*
X1811135Y3459613D01*
X1811135Y3459613D02*
X1817802Y3456280D01*
X1817802Y3456280D02*
X1821135Y3452947D01*
X1821135Y3452947D02*
X1824468Y3446280D01*
X1824468Y3446280D02*
X1824468Y3426280D01*
X1824468Y3426280D02*
X1821135Y3419613D01*
X1821135Y3419613D02*
X1817802Y3416280D01*
X1817802Y3416280D02*
X1811135Y3412947D01*
X1811135Y3412947D02*
X1801135Y3412947D01*
X1854468Y3459613D02*
X1854468Y3412947D01*
X1854468Y3452947D02*
X1857802Y3456280D01*
X1857802Y3456280D02*
X1864468Y3459613D01*
X1864468Y3459613D02*
X1874468Y3459613D01*
X1874468Y3459613D02*
X1881135Y3456280D01*
X1881135Y3456280D02*
X1884468Y3449613D01*
X1884468Y3449613D02*
X1884468Y3412947D01*
X1927801Y3412947D02*
X1921135Y3416280D01*
X1921135Y3416280D02*
X1917801Y3422947D01*
X1917801Y3422947D02*
X1917801Y3482947D01*
X1947802Y3459613D02*
X1964468Y3412947D01*
X1981135Y3459613D02*
X1964468Y3412947D01*
X1964468Y3412947D02*
X1957802Y3396280D01*
X1957802Y3396280D02*
X1954468Y3392947D01*
X1954468Y3392947D02*
X1947802Y3389613D01*
X2051135Y3459613D02*
X2077801Y3459613D01*
X2061135Y3412947D02*
X2061135Y3472947D01*
X2061135Y3472947D02*
X2064468Y3479613D01*
X2064468Y3479613D02*
X2071135Y3482947D01*
X2071135Y3482947D02*
X2077801Y3482947D01*
X2111135Y3412947D02*
X2104468Y3416280D01*
X2104468Y3416280D02*
X2101135Y3419613D01*
X2101135Y3419613D02*
X2097802Y3426280D01*
X2097802Y3426280D02*
X2097802Y3446280D01*
X2097802Y3446280D02*
X2101135Y3452947D01*
X2101135Y3452947D02*
X2104468Y3456280D01*
X2104468Y3456280D02*
X2111135Y3459613D01*
X2111135Y3459613D02*
X2121135Y3459613D01*
X2121135Y3459613D02*
X2127802Y3456280D01*
X2127802Y3456280D02*
X2131135Y3452947D01*
X2131135Y3452947D02*
X2134468Y3446280D01*
X2134468Y3446280D02*
X2134468Y3426280D01*
X2134468Y3426280D02*
X2131135Y3419613D01*
X2131135Y3419613D02*
X2127802Y3416280D01*
X2127802Y3416280D02*
X2121135Y3412947D01*
X2121135Y3412947D02*
X2111135Y3412947D01*
X2164468Y3412947D02*
X2164468Y3459613D01*
X2164468Y3446280D02*
X2167802Y3452947D01*
X2167802Y3452947D02*
X2171135Y3456280D01*
X2171135Y3456280D02*
X2177802Y3459613D01*
X2177802Y3459613D02*
X2184468Y3459613D01*
X2297801Y3412947D02*
X2257801Y3412947D01*
X2277801Y3412947D02*
X2277801Y3482947D01*
X2277801Y3482947D02*
X2271135Y3472947D01*
X2271135Y3472947D02*
X2264468Y3466280D01*
X2264468Y3466280D02*
X2257801Y3462947D01*
X2324468Y3476280D02*
X2327801Y3479613D01*
X2327801Y3479613D02*
X2334468Y3482947D01*
X2334468Y3482947D02*
X2351135Y3482947D01*
X2351135Y3482947D02*
X2357801Y3479613D01*
X2357801Y3479613D02*
X2361135Y3476280D01*
X2361135Y3476280D02*
X2364468Y3469613D01*
X2364468Y3469613D02*
X2364468Y3462947D01*
X2364468Y3462947D02*
X2361135Y3452947D01*
X2361135Y3452947D02*
X2321135Y3412947D01*
X2321135Y3412947D02*
X2364468Y3412947D01*
X2384468Y3482947D02*
X2407802Y3412947D01*
X2407802Y3412947D02*
X2431135Y3482947D01*
D14*
X590174Y1166759D02*
X581950Y1170871D01*
X581950Y1170871D02*
X569612Y1170871D01*
X569612Y1170871D02*
X557275Y1166759D01*
X557275Y1166759D02*
X549051Y1158534D01*
X549051Y1158534D02*
X544938Y1150309D01*
X544938Y1150309D02*
X540826Y1133860D01*
X540826Y1133860D02*
X540826Y1121523D01*
X540826Y1121523D02*
X544938Y1105073D01*
X544938Y1105073D02*
X549051Y1096848D01*
X549051Y1096848D02*
X557275Y1088624D01*
X557275Y1088624D02*
X569612Y1084511D01*
X569612Y1084511D02*
X577837Y1084511D01*
X577837Y1084511D02*
X590174Y1088624D01*
X590174Y1088624D02*
X594287Y1092736D01*
X594287Y1092736D02*
X594287Y1121523D01*
X594287Y1121523D02*
X577837Y1121523D01*
X631298Y1084511D02*
X631298Y1170871D01*
X631298Y1170871D02*
X680647Y1084511D01*
X680647Y1084511D02*
X680647Y1170871D01*
X721771Y1084511D02*
X721771Y1170871D01*
X721771Y1170871D02*
X742332Y1170871D01*
X742332Y1170871D02*
X754670Y1166759D01*
X754670Y1166759D02*
X762894Y1158534D01*
X762894Y1158534D02*
X767007Y1150309D01*
X767007Y1150309D02*
X771119Y1133860D01*
X771119Y1133860D02*
X771119Y1121523D01*
X771119Y1121523D02*
X767007Y1105073D01*
X767007Y1105073D02*
X762894Y1096848D01*
X762894Y1096848D02*
X754670Y1088624D01*
X754670Y1088624D02*
X742332Y1084511D01*
X742332Y1084511D02*
X721771Y1084511D01*
D12*
X1956304Y456712D02*
X2017989Y456712D01*
X1987147Y348762D02*
X1987147Y456712D01*
X2069394Y348762D02*
X2059113Y353902D01*
X2059113Y353902D02*
X2053973Y359043D01*
X2053973Y359043D02*
X2048832Y369324D01*
X2048832Y369324D02*
X2048832Y400166D01*
X2048832Y400166D02*
X2053973Y410447D01*
X2053973Y410447D02*
X2059113Y415588D01*
X2059113Y415588D02*
X2069394Y420728D01*
X2069394Y420728D02*
X2084816Y420728D01*
X2084816Y420728D02*
X2095096Y415588D01*
X2095096Y415588D02*
X2100237Y410447D01*
X2100237Y410447D02*
X2105378Y400166D01*
X2105378Y400166D02*
X2105378Y369324D01*
X2105378Y369324D02*
X2100237Y359043D01*
X2100237Y359043D02*
X2095096Y353902D01*
X2095096Y353902D02*
X2084816Y348762D01*
X2084816Y348762D02*
X2069394Y348762D01*
X2151642Y420728D02*
X2151642Y348762D01*
X2151642Y410447D02*
X2156782Y415588D01*
X2156782Y415588D02*
X2167063Y420728D01*
X2167063Y420728D02*
X2182485Y420728D01*
X2182485Y420728D02*
X2192766Y415588D01*
X2192766Y415588D02*
X2197906Y405307D01*
X2197906Y405307D02*
X2197906Y348762D01*
X2290435Y353902D02*
X2280154Y348762D01*
X2280154Y348762D02*
X2259592Y348762D01*
X2259592Y348762D02*
X2249311Y353902D01*
X2249311Y353902D02*
X2244170Y364183D01*
X2244170Y364183D02*
X2244170Y405307D01*
X2244170Y405307D02*
X2249311Y415588D01*
X2249311Y415588D02*
X2259592Y420728D01*
X2259592Y420728D02*
X2280154Y420728D01*
X2280154Y420728D02*
X2290435Y415588D01*
X2290435Y415588D02*
X2295575Y405307D01*
X2295575Y405307D02*
X2295575Y395026D01*
X2295575Y395026D02*
X2244170Y384745D01*
X2398385Y451571D02*
X2388104Y456712D01*
X2388104Y456712D02*
X2372682Y456712D01*
X2372682Y456712D02*
X2357261Y451571D01*
X2357261Y451571D02*
X2346980Y441290D01*
X2346980Y441290D02*
X2341839Y431009D01*
X2341839Y431009D02*
X2336699Y410447D01*
X2336699Y410447D02*
X2336699Y395026D01*
X2336699Y395026D02*
X2341839Y374464D01*
X2341839Y374464D02*
X2346980Y364183D01*
X2346980Y364183D02*
X2357261Y353902D01*
X2357261Y353902D02*
X2372682Y348762D01*
X2372682Y348762D02*
X2382963Y348762D01*
X2382963Y348762D02*
X2398385Y353902D01*
X2398385Y353902D02*
X2403525Y359043D01*
X2403525Y359043D02*
X2403525Y395026D01*
X2403525Y395026D02*
X2382963Y395026D01*
X2490913Y353902D02*
X2480632Y348762D01*
X2480632Y348762D02*
X2460070Y348762D01*
X2460070Y348762D02*
X2449789Y353902D01*
X2449789Y353902D02*
X2444649Y364183D01*
X2444649Y364183D02*
X2444649Y405307D01*
X2444649Y405307D02*
X2449789Y415588D01*
X2449789Y415588D02*
X2460070Y420728D01*
X2460070Y420728D02*
X2480632Y420728D01*
X2480632Y420728D02*
X2490913Y415588D01*
X2490913Y415588D02*
X2496054Y405307D01*
X2496054Y405307D02*
X2496054Y395026D01*
X2496054Y395026D02*
X2444649Y384745D01*
X2542318Y420728D02*
X2542318Y348762D01*
X2542318Y410447D02*
X2547458Y415588D01*
X2547458Y415588D02*
X2557739Y420728D01*
X2557739Y420728D02*
X2573161Y420728D01*
X2573161Y420728D02*
X2583442Y415588D01*
X2583442Y415588D02*
X2588582Y405307D01*
X2588582Y405307D02*
X2588582Y348762D01*
D14*
X80604Y2397891D02*
X80604Y2484251D01*
X80604Y2484251D02*
X113503Y2484251D01*
X113503Y2484251D02*
X121728Y2480139D01*
X121728Y2480139D02*
X125840Y2476026D01*
X125840Y2476026D02*
X129952Y2467801D01*
X129952Y2467801D02*
X129952Y2455464D01*
X129952Y2455464D02*
X125840Y2447239D01*
X125840Y2447239D02*
X121728Y2443127D01*
X121728Y2443127D02*
X113503Y2439015D01*
X113503Y2439015D02*
X80604Y2439015D01*
X166964Y2397891D02*
X166964Y2455464D01*
X166964Y2484251D02*
X162852Y2480139D01*
X162852Y2480139D02*
X166964Y2476026D01*
X166964Y2476026D02*
X171076Y2480139D01*
X171076Y2480139D02*
X166964Y2484251D01*
X166964Y2484251D02*
X166964Y2476026D01*
X240987Y2402003D02*
X232762Y2397891D01*
X232762Y2397891D02*
X216312Y2397891D01*
X216312Y2397891D02*
X208088Y2402003D01*
X208088Y2402003D02*
X203975Y2410228D01*
X203975Y2410228D02*
X203975Y2443127D01*
X203975Y2443127D02*
X208088Y2451352D01*
X208088Y2451352D02*
X216312Y2455464D01*
X216312Y2455464D02*
X232762Y2455464D01*
X232762Y2455464D02*
X240987Y2451352D01*
X240987Y2451352D02*
X245099Y2443127D01*
X245099Y2443127D02*
X245099Y2434902D01*
X245099Y2434902D02*
X203975Y2426678D01*
X273886Y2455464D02*
X319122Y2455464D01*
X319122Y2455464D02*
X273886Y2397891D01*
X273886Y2397891D02*
X319122Y2397891D01*
X364358Y2397891D02*
X356133Y2402003D01*
X356133Y2402003D02*
X352021Y2406116D01*
X352021Y2406116D02*
X347909Y2414340D01*
X347909Y2414340D02*
X347909Y2439015D01*
X347909Y2439015D02*
X352021Y2447239D01*
X352021Y2447239D02*
X356133Y2451352D01*
X356133Y2451352D02*
X364358Y2455464D01*
X364358Y2455464D02*
X376695Y2455464D01*
X376695Y2455464D02*
X384920Y2451352D01*
X384920Y2451352D02*
X389032Y2447239D01*
X389032Y2447239D02*
X393145Y2439015D01*
X393145Y2439015D02*
X393145Y2414340D01*
X393145Y2414340D02*
X389032Y2406116D01*
X389032Y2406116D02*
X384920Y2402003D01*
X384920Y2402003D02*
X376695Y2397891D01*
X376695Y2397891D02*
X364358Y2397891D01*
X80604Y2258851D02*
X80604Y2345211D01*
X80604Y2304088D02*
X129952Y2304088D01*
X129952Y2258851D02*
X129952Y2345211D01*
X171076Y2258851D02*
X171076Y2345211D01*
X171076Y2345211D02*
X203975Y2345211D01*
X203975Y2345211D02*
X212200Y2341099D01*
X212200Y2341099D02*
X216312Y2336987D01*
X216312Y2336987D02*
X220425Y2328762D01*
X220425Y2328762D02*
X220425Y2316425D01*
X220425Y2316425D02*
X216312Y2308200D01*
X216312Y2308200D02*
X212200Y2304088D01*
X212200Y2304088D02*
X203975Y2299975D01*
X203975Y2299975D02*
X171076Y2299975D01*
D10*
X1822701Y2321740D02*
X1828415Y2318883D01*
X1828415Y2318883D02*
X1839844Y2318883D01*
X1839844Y2318883D02*
X1845558Y2321740D01*
X1845558Y2321740D02*
X1848415Y2327454D01*
X1848415Y2327454D02*
X1848415Y2330312D01*
X1848415Y2330312D02*
X1845558Y2336026D01*
X1845558Y2336026D02*
X1839844Y2338883D01*
X1839844Y2338883D02*
X1831273Y2338883D01*
X1831273Y2338883D02*
X1825558Y2341740D01*
X1825558Y2341740D02*
X1822701Y2347454D01*
X1822701Y2347454D02*
X1822701Y2350312D01*
X1822701Y2350312D02*
X1825558Y2356026D01*
X1825558Y2356026D02*
X1831273Y2358883D01*
X1831273Y2358883D02*
X1839844Y2358883D01*
X1839844Y2358883D02*
X1845558Y2356026D01*
X1882701Y2318883D02*
X1876987Y2321740D01*
X1876987Y2321740D02*
X1874130Y2324597D01*
X1874130Y2324597D02*
X1871273Y2330312D01*
X1871273Y2330312D02*
X1871273Y2347454D01*
X1871273Y2347454D02*
X1874130Y2353169D01*
X1874130Y2353169D02*
X1876987Y2356026D01*
X1876987Y2356026D02*
X1882701Y2358883D01*
X1882701Y2358883D02*
X1891273Y2358883D01*
X1891273Y2358883D02*
X1896987Y2356026D01*
X1896987Y2356026D02*
X1899844Y2353169D01*
X1899844Y2353169D02*
X1902701Y2347454D01*
X1902701Y2347454D02*
X1902701Y2330312D01*
X1902701Y2330312D02*
X1899844Y2324597D01*
X1899844Y2324597D02*
X1896987Y2321740D01*
X1896987Y2321740D02*
X1891273Y2318883D01*
X1891273Y2318883D02*
X1882701Y2318883D01*
X1936987Y2318883D02*
X1931273Y2321740D01*
X1931273Y2321740D02*
X1928415Y2327454D01*
X1928415Y2327454D02*
X1928415Y2378883D01*
X1985558Y2318883D02*
X1985558Y2378883D01*
X1985558Y2321740D02*
X1979844Y2318883D01*
X1979844Y2318883D02*
X1968415Y2318883D01*
X1968415Y2318883D02*
X1962701Y2321740D01*
X1962701Y2321740D02*
X1959844Y2324597D01*
X1959844Y2324597D02*
X1956987Y2330312D01*
X1956987Y2330312D02*
X1956987Y2347454D01*
X1956987Y2347454D02*
X1959844Y2353169D01*
X1959844Y2353169D02*
X1962701Y2356026D01*
X1962701Y2356026D02*
X1968415Y2358883D01*
X1968415Y2358883D02*
X1979844Y2358883D01*
X1979844Y2358883D02*
X1985558Y2356026D01*
X2076987Y2378883D02*
X2076987Y2336026D01*
X2076987Y2336026D02*
X2074130Y2327454D01*
X2074130Y2327454D02*
X2068415Y2321740D01*
X2068415Y2321740D02*
X2059844Y2318883D01*
X2059844Y2318883D02*
X2054130Y2318883D01*
X2105558Y2318883D02*
X2105558Y2378883D01*
X2105558Y2378883D02*
X2128416Y2378883D01*
X2128416Y2378883D02*
X2134130Y2376026D01*
X2134130Y2376026D02*
X2136987Y2373169D01*
X2136987Y2373169D02*
X2139844Y2367454D01*
X2139844Y2367454D02*
X2139844Y2358883D01*
X2139844Y2358883D02*
X2136987Y2353169D01*
X2136987Y2353169D02*
X2134130Y2350312D01*
X2134130Y2350312D02*
X2128416Y2347454D01*
X2128416Y2347454D02*
X2105558Y2347454D01*
X2162701Y2373169D02*
X2165558Y2376026D01*
X2165558Y2376026D02*
X2171273Y2378883D01*
X2171273Y2378883D02*
X2185558Y2378883D01*
X2185558Y2378883D02*
X2191273Y2376026D01*
X2191273Y2376026D02*
X2194130Y2373169D01*
X2194130Y2373169D02*
X2196987Y2367454D01*
X2196987Y2367454D02*
X2196987Y2361740D01*
X2196987Y2361740D02*
X2194130Y2353169D01*
X2194130Y2353169D02*
X2159844Y2318883D01*
X2159844Y2318883D02*
X2196987Y2318883D01*
X1779844Y2222283D02*
X1779844Y2262283D01*
X1779844Y2282283D02*
X1776987Y2279426D01*
X1776987Y2279426D02*
X1779844Y2276569D01*
X1779844Y2276569D02*
X1782701Y2279426D01*
X1782701Y2279426D02*
X1779844Y2282283D01*
X1779844Y2282283D02*
X1779844Y2276569D01*
X1799844Y2262283D02*
X1822701Y2262283D01*
X1808415Y2222283D02*
X1808415Y2273712D01*
X1808415Y2273712D02*
X1811273Y2279426D01*
X1811273Y2279426D02*
X1816987Y2282283D01*
X1816987Y2282283D02*
X1822701Y2282283D01*
X1888415Y2262283D02*
X1888415Y2222283D01*
X1888415Y2256569D02*
X1891273Y2259426D01*
X1891273Y2259426D02*
X1896987Y2262283D01*
X1896987Y2262283D02*
X1905558Y2262283D01*
X1905558Y2262283D02*
X1911273Y2259426D01*
X1911273Y2259426D02*
X1914130Y2253712D01*
X1914130Y2253712D02*
X1914130Y2222283D01*
X1951273Y2222283D02*
X1945558Y2225140D01*
X1945558Y2225140D02*
X1942701Y2227997D01*
X1942701Y2227997D02*
X1939844Y2233712D01*
X1939844Y2233712D02*
X1939844Y2250854D01*
X1939844Y2250854D02*
X1942701Y2256569D01*
X1942701Y2256569D02*
X1945558Y2259426D01*
X1945558Y2259426D02*
X1951273Y2262283D01*
X1951273Y2262283D02*
X1959844Y2262283D01*
X1959844Y2262283D02*
X1965558Y2259426D01*
X1965558Y2259426D02*
X1968415Y2256569D01*
X1968415Y2256569D02*
X1971273Y2250854D01*
X1971273Y2250854D02*
X1971273Y2233712D01*
X1971273Y2233712D02*
X1968415Y2227997D01*
X1968415Y2227997D02*
X1965558Y2225140D01*
X1965558Y2225140D02*
X1959844Y2222283D01*
X1959844Y2222283D02*
X1951273Y2222283D01*
X1988415Y2262283D02*
X2011273Y2262283D01*
X1996987Y2282283D02*
X1996987Y2230854D01*
X1996987Y2230854D02*
X1999844Y2225140D01*
X1999844Y2225140D02*
X2005558Y2222283D01*
X2005558Y2222283D02*
X2011273Y2222283D01*
X2076987Y2222283D02*
X2076987Y2282283D01*
X2076987Y2282283D02*
X2091273Y2282283D01*
X2091273Y2282283D02*
X2099844Y2279426D01*
X2099844Y2279426D02*
X2105558Y2273712D01*
X2105558Y2273712D02*
X2108415Y2267997D01*
X2108415Y2267997D02*
X2111273Y2256569D01*
X2111273Y2256569D02*
X2111273Y2247997D01*
X2111273Y2247997D02*
X2108415Y2236569D01*
X2108415Y2236569D02*
X2105558Y2230854D01*
X2105558Y2230854D02*
X2099844Y2225140D01*
X2099844Y2225140D02*
X2091273Y2222283D01*
X2091273Y2222283D02*
X2076987Y2222283D01*
X2168415Y2222283D02*
X2134130Y2222283D01*
X2151273Y2222283D02*
X2151273Y2282283D01*
X2151273Y2282283D02*
X2145558Y2273712D01*
X2145558Y2273712D02*
X2139844Y2267997D01*
X2139844Y2267997D02*
X2134130Y2265140D01*
D14*
X516278Y455020D02*
X582076Y455020D01*
X549177Y422121D02*
X549177Y487919D01*
X627312Y422121D02*
X643762Y422121D01*
X643762Y422121D02*
X651987Y426234D01*
X651987Y426234D02*
X656099Y430346D01*
X656099Y430346D02*
X664324Y442683D01*
X664324Y442683D02*
X668436Y459133D01*
X668436Y459133D02*
X668436Y492032D01*
X668436Y492032D02*
X664324Y500256D01*
X664324Y500256D02*
X660212Y504369D01*
X660212Y504369D02*
X651987Y508481D01*
X651987Y508481D02*
X635537Y508481D01*
X635537Y508481D02*
X627312Y504369D01*
X627312Y504369D02*
X623200Y500256D01*
X623200Y500256D02*
X619088Y492032D01*
X619088Y492032D02*
X619088Y471470D01*
X619088Y471470D02*
X623200Y463245D01*
X623200Y463245D02*
X627312Y459133D01*
X627312Y459133D02*
X635537Y455020D01*
X635537Y455020D02*
X651987Y455020D01*
X651987Y455020D02*
X660212Y459133D01*
X660212Y459133D02*
X664324Y463245D01*
X664324Y463245D02*
X668436Y471470D01*
X693111Y508481D02*
X721897Y422121D01*
X721897Y422121D02*
X750684Y508481D01*
D15*
X1221771Y6571320D02*
X1233200Y6567510D01*
X1233200Y6567510D02*
X1252248Y6567510D01*
X1252248Y6567510D02*
X1259867Y6571320D01*
X1259867Y6571320D02*
X1263676Y6575130D01*
X1263676Y6575130D02*
X1267486Y6582749D01*
X1267486Y6582749D02*
X1267486Y6590368D01*
X1267486Y6590368D02*
X1263676Y6597987D01*
X1263676Y6597987D02*
X1259867Y6601796D01*
X1259867Y6601796D02*
X1252248Y6605606D01*
X1252248Y6605606D02*
X1237009Y6609415D01*
X1237009Y6609415D02*
X1229390Y6613225D01*
X1229390Y6613225D02*
X1225581Y6617034D01*
X1225581Y6617034D02*
X1221771Y6624653D01*
X1221771Y6624653D02*
X1221771Y6632272D01*
X1221771Y6632272D02*
X1225581Y6639891D01*
X1225581Y6639891D02*
X1229390Y6643701D01*
X1229390Y6643701D02*
X1237009Y6647510D01*
X1237009Y6647510D02*
X1256057Y6647510D01*
X1256057Y6647510D02*
X1267486Y6643701D01*
X1297962Y6639891D02*
X1301771Y6643701D01*
X1301771Y6643701D02*
X1309390Y6647510D01*
X1309390Y6647510D02*
X1328438Y6647510D01*
X1328438Y6647510D02*
X1336057Y6643701D01*
X1336057Y6643701D02*
X1339867Y6639891D01*
X1339867Y6639891D02*
X1343676Y6632272D01*
X1343676Y6632272D02*
X1343676Y6624653D01*
X1343676Y6624653D02*
X1339867Y6613225D01*
X1339867Y6613225D02*
X1294152Y6567510D01*
X1294152Y6567510D02*
X1343676Y6567510D01*
X1393200Y6647510D02*
X1400819Y6647510D01*
X1400819Y6647510D02*
X1408438Y6643701D01*
X1408438Y6643701D02*
X1412248Y6639891D01*
X1412248Y6639891D02*
X1416057Y6632272D01*
X1416057Y6632272D02*
X1419867Y6617034D01*
X1419867Y6617034D02*
X1419867Y6597987D01*
X1419867Y6597987D02*
X1416057Y6582749D01*
X1416057Y6582749D02*
X1412248Y6575130D01*
X1412248Y6575130D02*
X1408438Y6571320D01*
X1408438Y6571320D02*
X1400819Y6567510D01*
X1400819Y6567510D02*
X1393200Y6567510D01*
X1393200Y6567510D02*
X1385581Y6571320D01*
X1385581Y6571320D02*
X1381771Y6575130D01*
X1381771Y6575130D02*
X1377962Y6582749D01*
X1377962Y6582749D02*
X1374152Y6597987D01*
X1374152Y6597987D02*
X1374152Y6617034D01*
X1374152Y6617034D02*
X1377962Y6632272D01*
X1377962Y6632272D02*
X1381771Y6639891D01*
X1381771Y6639891D02*
X1385581Y6643701D01*
X1385581Y6643701D02*
X1393200Y6647510D01*
X1450343Y6639891D02*
X1454152Y6643701D01*
X1454152Y6643701D02*
X1461771Y6647510D01*
X1461771Y6647510D02*
X1480819Y6647510D01*
X1480819Y6647510D02*
X1488438Y6643701D01*
X1488438Y6643701D02*
X1492248Y6639891D01*
X1492248Y6639891D02*
X1496057Y6632272D01*
X1496057Y6632272D02*
X1496057Y6624653D01*
X1496057Y6624653D02*
X1492248Y6613225D01*
X1492248Y6613225D02*
X1446533Y6567510D01*
X1446533Y6567510D02*
X1496057Y6567510D01*
X1564629Y6620844D02*
X1564629Y6567510D01*
X1545581Y6651320D02*
X1526533Y6594177D01*
X1526533Y6594177D02*
X1576057Y6594177D01*
X1648438Y6567510D02*
X1602724Y6567510D01*
X1625581Y6567510D02*
X1625581Y6647510D01*
X1625581Y6647510D02*
X1617962Y6636082D01*
X1617962Y6636082D02*
X1610343Y6628463D01*
X1610343Y6628463D02*
X1602724Y6624653D01*
X1686533Y6567510D02*
X1701771Y6567510D01*
X1701771Y6567510D02*
X1709390Y6571320D01*
X1709390Y6571320D02*
X1713200Y6575130D01*
X1713200Y6575130D02*
X1720819Y6586558D01*
X1720819Y6586558D02*
X1724629Y6601796D01*
X1724629Y6601796D02*
X1724629Y6632272D01*
X1724629Y6632272D02*
X1720819Y6639891D01*
X1720819Y6639891D02*
X1717010Y6643701D01*
X1717010Y6643701D02*
X1709390Y6647510D01*
X1709390Y6647510D02*
X1694152Y6647510D01*
X1694152Y6647510D02*
X1686533Y6643701D01*
X1686533Y6643701D02*
X1682724Y6639891D01*
X1682724Y6639891D02*
X1678914Y6632272D01*
X1678914Y6632272D02*
X1678914Y6613225D01*
X1678914Y6613225D02*
X1682724Y6605606D01*
X1682724Y6605606D02*
X1686533Y6601796D01*
X1686533Y6601796D02*
X1694152Y6597987D01*
X1694152Y6597987D02*
X1709390Y6597987D01*
X1709390Y6597987D02*
X1717010Y6601796D01*
X1717010Y6601796D02*
X1720819Y6605606D01*
X1720819Y6605606D02*
X1724629Y6613225D01*
D14*
X141098Y1223424D02*
X144907Y1234853D01*
X144907Y1234853D02*
X144907Y1253901D01*
X144907Y1253901D02*
X141098Y1261520D01*
X141098Y1261520D02*
X137288Y1265329D01*
X137288Y1265329D02*
X129669Y1269139D01*
X129669Y1269139D02*
X122050Y1269139D01*
X122050Y1269139D02*
X114431Y1265329D01*
X114431Y1265329D02*
X110621Y1261520D01*
X110621Y1261520D02*
X106812Y1253901D01*
X106812Y1253901D02*
X103002Y1238663D01*
X103002Y1238663D02*
X99193Y1231044D01*
X99193Y1231044D02*
X95383Y1227234D01*
X95383Y1227234D02*
X87764Y1223424D01*
X87764Y1223424D02*
X80145Y1223424D01*
X80145Y1223424D02*
X72526Y1227234D01*
X72526Y1227234D02*
X68717Y1231044D01*
X68717Y1231044D02*
X64907Y1238663D01*
X64907Y1238663D02*
X64907Y1257710D01*
X64907Y1257710D02*
X68717Y1269139D01*
X141098Y1333901D02*
X144907Y1326282D01*
X144907Y1326282D02*
X144907Y1311044D01*
X144907Y1311044D02*
X141098Y1303425D01*
X141098Y1303425D02*
X133478Y1299615D01*
X133478Y1299615D02*
X103002Y1299615D01*
X103002Y1299615D02*
X95383Y1303425D01*
X95383Y1303425D02*
X91574Y1311044D01*
X91574Y1311044D02*
X91574Y1326282D01*
X91574Y1326282D02*
X95383Y1333901D01*
X95383Y1333901D02*
X103002Y1337710D01*
X103002Y1337710D02*
X110621Y1337710D01*
X110621Y1337710D02*
X118240Y1299615D01*
X144907Y1383424D02*
X141098Y1375805D01*
X141098Y1375805D02*
X133478Y1371996D01*
X133478Y1371996D02*
X64907Y1371996D01*
X141098Y1444377D02*
X144907Y1436758D01*
X144907Y1436758D02*
X144907Y1421520D01*
X144907Y1421520D02*
X141098Y1413901D01*
X141098Y1413901D02*
X133478Y1410091D01*
X133478Y1410091D02*
X103002Y1410091D01*
X103002Y1410091D02*
X95383Y1413901D01*
X95383Y1413901D02*
X91574Y1421520D01*
X91574Y1421520D02*
X91574Y1436758D01*
X91574Y1436758D02*
X95383Y1444377D01*
X95383Y1444377D02*
X103002Y1448186D01*
X103002Y1448186D02*
X110621Y1448186D01*
X110621Y1448186D02*
X118240Y1410091D01*
X141098Y1516758D02*
X144907Y1509139D01*
X144907Y1509139D02*
X144907Y1493901D01*
X144907Y1493901D02*
X141098Y1486282D01*
X141098Y1486282D02*
X137288Y1482472D01*
X137288Y1482472D02*
X129669Y1478662D01*
X129669Y1478662D02*
X106812Y1478662D01*
X106812Y1478662D02*
X99193Y1482472D01*
X99193Y1482472D02*
X95383Y1486282D01*
X95383Y1486282D02*
X91574Y1493901D01*
X91574Y1493901D02*
X91574Y1509139D01*
X91574Y1509139D02*
X95383Y1516758D01*
X91574Y1539615D02*
X91574Y1570091D01*
X64907Y1551043D02*
X133478Y1551043D01*
X133478Y1551043D02*
X141098Y1554853D01*
X141098Y1554853D02*
X144907Y1562472D01*
X144907Y1562472D02*
X144907Y1570091D01*
X144907Y1608186D02*
X141098Y1600567D01*
X141098Y1600567D02*
X137288Y1596758D01*
X137288Y1596758D02*
X129669Y1592948D01*
X129669Y1592948D02*
X106812Y1592948D01*
X106812Y1592948D02*
X99193Y1596758D01*
X99193Y1596758D02*
X95383Y1600567D01*
X95383Y1600567D02*
X91574Y1608186D01*
X91574Y1608186D02*
X91574Y1619615D01*
X91574Y1619615D02*
X95383Y1627234D01*
X95383Y1627234D02*
X99193Y1631043D01*
X99193Y1631043D02*
X106812Y1634853D01*
X106812Y1634853D02*
X129669Y1634853D01*
X129669Y1634853D02*
X137288Y1631043D01*
X137288Y1631043D02*
X141098Y1627234D01*
X141098Y1627234D02*
X144907Y1619615D01*
X144907Y1619615D02*
X144907Y1608186D01*
X144907Y1669139D02*
X91574Y1669139D01*
X106812Y1669139D02*
X99193Y1672948D01*
X99193Y1672948D02*
X95383Y1676758D01*
X95383Y1676758D02*
X91574Y1684377D01*
X91574Y1684377D02*
X91574Y1691996D01*
X153739Y720501D02*
X153739Y736950D01*
X153739Y736950D02*
X149626Y745175D01*
X149626Y745175D02*
X145514Y749287D01*
X145514Y749287D02*
X133177Y757512D01*
X133177Y757512D02*
X116727Y761624D01*
X116727Y761624D02*
X83828Y761624D01*
X83828Y761624D02*
X75604Y757512D01*
X75604Y757512D02*
X71491Y753400D01*
X71491Y753400D02*
X67379Y745175D01*
X67379Y745175D02*
X67379Y728725D01*
X67379Y728725D02*
X71491Y720501D01*
X71491Y720501D02*
X75604Y716388D01*
X75604Y716388D02*
X83828Y712276D01*
X83828Y712276D02*
X104390Y712276D01*
X104390Y712276D02*
X112615Y716388D01*
X112615Y716388D02*
X116727Y720501D01*
X116727Y720501D02*
X120840Y728725D01*
X120840Y728725D02*
X120840Y745175D01*
X120840Y745175D02*
X116727Y753400D01*
X116727Y753400D02*
X112615Y757512D01*
X112615Y757512D02*
X104390Y761624D01*
X67379Y786299D02*
X153739Y815085D01*
X153739Y815085D02*
X67379Y843872D01*
X909389Y1529188D02*
X823029Y1529188D01*
X851815Y1570312D02*
X909389Y1570312D01*
X860040Y1570312D02*
X855928Y1574424D01*
X855928Y1574424D02*
X851815Y1582649D01*
X851815Y1582649D02*
X851815Y1594986D01*
X851815Y1594986D02*
X855928Y1603211D01*
X855928Y1603211D02*
X864152Y1607323D01*
X864152Y1607323D02*
X909389Y1607323D01*
D10*
X1565210Y1907162D02*
X1568543Y1917162D01*
X1568543Y1917162D02*
X1568543Y1933828D01*
X1568543Y1933828D02*
X1565210Y1940495D01*
X1565210Y1940495D02*
X1561877Y1943828D01*
X1561877Y1943828D02*
X1555210Y1947162D01*
X1555210Y1947162D02*
X1548543Y1947162D01*
X1548543Y1947162D02*
X1541877Y1943828D01*
X1541877Y1943828D02*
X1538543Y1940495D01*
X1538543Y1940495D02*
X1535210Y1933828D01*
X1535210Y1933828D02*
X1531877Y1920495D01*
X1531877Y1920495D02*
X1528543Y1913828D01*
X1528543Y1913828D02*
X1525210Y1910495D01*
X1525210Y1910495D02*
X1518543Y1907162D01*
X1518543Y1907162D02*
X1511877Y1907162D01*
X1511877Y1907162D02*
X1505210Y1910495D01*
X1505210Y1910495D02*
X1501877Y1913828D01*
X1501877Y1913828D02*
X1498543Y1920495D01*
X1498543Y1920495D02*
X1498543Y1937162D01*
X1498543Y1937162D02*
X1501877Y1947162D01*
X1568543Y1977162D02*
X1498543Y1977162D01*
X1568543Y2017162D02*
X1528543Y1987162D01*
X1498543Y2017162D02*
X1538543Y1977162D01*
X1498543Y2040495D02*
X1498543Y2083828D01*
X1498543Y2083828D02*
X1525210Y2060495D01*
X1525210Y2060495D02*
X1525210Y2070495D01*
X1525210Y2070495D02*
X1528543Y2077162D01*
X1528543Y2077162D02*
X1531877Y2080495D01*
X1531877Y2080495D02*
X1538543Y2083828D01*
X1538543Y2083828D02*
X1555210Y2083828D01*
X1555210Y2083828D02*
X1561877Y2080495D01*
X1561877Y2080495D02*
X1565210Y2077162D01*
X1565210Y2077162D02*
X1568543Y2070495D01*
X1568543Y2070495D02*
X1568543Y2050495D01*
X1568543Y2050495D02*
X1565210Y2043828D01*
X1565210Y2043828D02*
X1561877Y2040495D01*
X1498543Y2143829D02*
X1498543Y2130495D01*
X1498543Y2130495D02*
X1501877Y2123829D01*
X1501877Y2123829D02*
X1505210Y2120495D01*
X1505210Y2120495D02*
X1515210Y2113829D01*
X1515210Y2113829D02*
X1528543Y2110495D01*
X1528543Y2110495D02*
X1555210Y2110495D01*
X1555210Y2110495D02*
X1561877Y2113829D01*
X1561877Y2113829D02*
X1565210Y2117162D01*
X1565210Y2117162D02*
X1568543Y2123829D01*
X1568543Y2123829D02*
X1568543Y2137162D01*
X1568543Y2137162D02*
X1565210Y2143829D01*
X1565210Y2143829D02*
X1561877Y2147162D01*
X1561877Y2147162D02*
X1555210Y2150495D01*
X1555210Y2150495D02*
X1538543Y2150495D01*
X1538543Y2150495D02*
X1531877Y2147162D01*
X1531877Y2147162D02*
X1528543Y2143829D01*
X1528543Y2143829D02*
X1525210Y2137162D01*
X1525210Y2137162D02*
X1525210Y2123829D01*
X1525210Y2123829D02*
X1528543Y2117162D01*
X1528543Y2117162D02*
X1531877Y2113829D01*
X1531877Y2113829D02*
X1538543Y2110495D01*
D13*
X507070Y2118208D02*
X559709Y2118208D01*
X533390Y2091889D02*
X533390Y2144528D01*
X595898Y2091889D02*
X609058Y2091889D01*
X609058Y2091889D02*
X615637Y2095179D01*
X615637Y2095179D02*
X618927Y2098469D01*
X618927Y2098469D02*
X625507Y2108339D01*
X625507Y2108339D02*
X628797Y2121498D01*
X628797Y2121498D02*
X628797Y2147817D01*
X628797Y2147817D02*
X625507Y2154397D01*
X625507Y2154397D02*
X622217Y2157687D01*
X622217Y2157687D02*
X615637Y2160977D01*
X615637Y2160977D02*
X602478Y2160977D01*
X602478Y2160977D02*
X595898Y2157687D01*
X595898Y2157687D02*
X592608Y2154397D01*
X592608Y2154397D02*
X589318Y2147817D01*
X589318Y2147817D02*
X589318Y2131368D01*
X589318Y2131368D02*
X592608Y2124788D01*
X592608Y2124788D02*
X595898Y2121498D01*
X595898Y2121498D02*
X602478Y2118208D01*
X602478Y2118208D02*
X615637Y2118208D01*
X615637Y2118208D02*
X622217Y2121498D01*
X622217Y2121498D02*
X625507Y2124788D01*
X625507Y2124788D02*
X628797Y2131368D01*
X648536Y2160977D02*
X671566Y2091889D01*
X671566Y2091889D02*
X694595Y2160977D01*
D14*
X1171152Y616962D02*
X1177818Y613629D01*
X1177818Y613629D02*
X1191152Y613629D01*
X1191152Y613629D02*
X1197818Y616962D01*
X1197818Y616962D02*
X1201152Y623629D01*
X1201152Y623629D02*
X1201152Y626962D01*
X1201152Y626962D02*
X1197818Y633629D01*
X1197818Y633629D02*
X1191152Y636962D01*
X1191152Y636962D02*
X1181152Y636962D01*
X1181152Y636962D02*
X1174485Y640295D01*
X1174485Y640295D02*
X1171152Y646962D01*
X1171152Y646962D02*
X1171152Y650295D01*
X1171152Y650295D02*
X1174485Y656962D01*
X1174485Y656962D02*
X1181152Y660295D01*
X1181152Y660295D02*
X1191152Y660295D01*
X1191152Y660295D02*
X1197818Y656962D01*
X1241152Y613629D02*
X1234485Y616962D01*
X1234485Y616962D02*
X1231152Y620295D01*
X1231152Y620295D02*
X1227818Y626962D01*
X1227818Y626962D02*
X1227818Y646962D01*
X1227818Y646962D02*
X1231152Y653629D01*
X1231152Y653629D02*
X1234485Y656962D01*
X1234485Y656962D02*
X1241152Y660295D01*
X1241152Y660295D02*
X1251152Y660295D01*
X1251152Y660295D02*
X1257818Y656962D01*
X1257818Y656962D02*
X1261152Y653629D01*
X1261152Y653629D02*
X1264485Y646962D01*
X1264485Y646962D02*
X1264485Y626962D01*
X1264485Y626962D02*
X1261152Y620295D01*
X1261152Y620295D02*
X1257818Y616962D01*
X1257818Y616962D02*
X1251152Y613629D01*
X1251152Y613629D02*
X1241152Y613629D01*
X1304485Y613629D02*
X1297818Y616962D01*
X1297818Y616962D02*
X1294485Y623629D01*
X1294485Y623629D02*
X1294485Y683629D01*
X1361152Y613629D02*
X1361152Y683629D01*
X1361152Y616962D02*
X1354485Y613629D01*
X1354485Y613629D02*
X1341152Y613629D01*
X1341152Y613629D02*
X1334485Y616962D01*
X1334485Y616962D02*
X1331152Y620295D01*
X1331152Y620295D02*
X1327818Y626962D01*
X1327818Y626962D02*
X1327818Y646962D01*
X1327818Y646962D02*
X1331152Y653629D01*
X1331152Y653629D02*
X1334485Y656962D01*
X1334485Y656962D02*
X1341152Y660295D01*
X1341152Y660295D02*
X1354485Y660295D01*
X1354485Y660295D02*
X1361152Y656962D01*
X1467818Y683629D02*
X1467818Y633629D01*
X1467818Y633629D02*
X1464485Y623629D01*
X1464485Y623629D02*
X1457818Y616962D01*
X1457818Y616962D02*
X1447818Y613629D01*
X1447818Y613629D02*
X1441152Y613629D01*
X1501151Y613629D02*
X1501151Y683629D01*
X1501151Y683629D02*
X1527818Y683629D01*
X1527818Y683629D02*
X1534485Y680295D01*
X1534485Y680295D02*
X1537818Y676962D01*
X1537818Y676962D02*
X1541151Y670295D01*
X1541151Y670295D02*
X1541151Y660295D01*
X1541151Y660295D02*
X1537818Y653629D01*
X1537818Y653629D02*
X1534485Y650295D01*
X1534485Y650295D02*
X1527818Y646962D01*
X1527818Y646962D02*
X1501151Y646962D01*
X1607818Y613629D02*
X1567818Y613629D01*
X1587818Y613629D02*
X1587818Y683629D01*
X1587818Y683629D02*
X1581151Y673629D01*
X1581151Y673629D02*
X1574485Y666962D01*
X1574485Y666962D02*
X1567818Y663629D01*
X1121152Y388229D02*
X1121152Y434895D01*
X1121152Y458229D02*
X1117818Y454895D01*
X1117818Y454895D02*
X1121152Y451562D01*
X1121152Y451562D02*
X1124485Y454895D01*
X1124485Y454895D02*
X1121152Y458229D01*
X1121152Y458229D02*
X1121152Y451562D01*
X1144485Y434895D02*
X1171152Y434895D01*
X1154485Y388229D02*
X1154485Y448229D01*
X1154485Y448229D02*
X1157818Y454895D01*
X1157818Y454895D02*
X1164485Y458229D01*
X1164485Y458229D02*
X1171152Y458229D01*
X1247818Y434895D02*
X1247818Y388229D01*
X1247818Y428229D02*
X1251152Y431562D01*
X1251152Y431562D02*
X1257818Y434895D01*
X1257818Y434895D02*
X1267818Y434895D01*
X1267818Y434895D02*
X1274485Y431562D01*
X1274485Y431562D02*
X1277818Y424895D01*
X1277818Y424895D02*
X1277818Y388229D01*
X1321152Y388229D02*
X1314485Y391562D01*
X1314485Y391562D02*
X1311152Y394895D01*
X1311152Y394895D02*
X1307818Y401562D01*
X1307818Y401562D02*
X1307818Y421562D01*
X1307818Y421562D02*
X1311152Y428229D01*
X1311152Y428229D02*
X1314485Y431562D01*
X1314485Y431562D02*
X1321152Y434895D01*
X1321152Y434895D02*
X1331152Y434895D01*
X1331152Y434895D02*
X1337818Y431562D01*
X1337818Y431562D02*
X1341152Y428229D01*
X1341152Y428229D02*
X1344485Y421562D01*
X1344485Y421562D02*
X1344485Y401562D01*
X1344485Y401562D02*
X1341152Y394895D01*
X1341152Y394895D02*
X1337818Y391562D01*
X1337818Y391562D02*
X1331152Y388229D01*
X1331152Y388229D02*
X1321152Y388229D01*
X1364485Y434895D02*
X1391152Y434895D01*
X1374485Y458229D02*
X1374485Y398229D01*
X1374485Y398229D02*
X1377818Y391562D01*
X1377818Y391562D02*
X1384485Y388229D01*
X1384485Y388229D02*
X1391152Y388229D01*
X1467818Y388229D02*
X1467818Y458229D01*
X1541151Y394895D02*
X1537818Y391562D01*
X1537818Y391562D02*
X1527818Y388229D01*
X1527818Y388229D02*
X1521151Y388229D01*
X1521151Y388229D02*
X1511151Y391562D01*
X1511151Y391562D02*
X1504485Y398229D01*
X1504485Y398229D02*
X1501151Y404895D01*
X1501151Y404895D02*
X1497818Y418229D01*
X1497818Y418229D02*
X1497818Y428229D01*
X1497818Y428229D02*
X1501151Y441562D01*
X1501151Y441562D02*
X1504485Y448229D01*
X1504485Y448229D02*
X1511151Y454895D01*
X1511151Y454895D02*
X1521151Y458229D01*
X1521151Y458229D02*
X1527818Y458229D01*
X1527818Y458229D02*
X1537818Y454895D01*
X1537818Y454895D02*
X1541151Y451562D01*
X1607818Y388229D02*
X1567818Y388229D01*
X1587818Y388229D02*
X1587818Y458229D01*
X1587818Y458229D02*
X1581151Y448229D01*
X1581151Y448229D02*
X1574485Y441562D01*
X1574485Y441562D02*
X1567818Y438229D01*
D16*
X1412696Y1482683D02*
X1388566Y1517155D01*
X1371330Y1482683D02*
X1371330Y1555073D01*
X1371330Y1555073D02*
X1398907Y1555073D01*
X1398907Y1555073D02*
X1405802Y1551626D01*
X1405802Y1551626D02*
X1409249Y1548179D01*
X1409249Y1548179D02*
X1412696Y1541285D01*
X1412696Y1541285D02*
X1412696Y1530943D01*
X1412696Y1530943D02*
X1409249Y1524049D01*
X1409249Y1524049D02*
X1405802Y1520602D01*
X1405802Y1520602D02*
X1398907Y1517155D01*
X1398907Y1517155D02*
X1371330Y1517155D01*
X1436826Y1555073D02*
X1485086Y1555073D01*
X1485086Y1555073D02*
X1454062Y1482683D01*
X1597903Y1384394D02*
X1597903Y1337728D01*
X1581237Y1411061D02*
X1564570Y1361061D01*
X1564570Y1361061D02*
X1607903Y1361061D01*
X1634570Y1344394D02*
X1637903Y1341061D01*
X1637903Y1341061D02*
X1634570Y1337728D01*
X1634570Y1337728D02*
X1631237Y1341061D01*
X1631237Y1341061D02*
X1634570Y1344394D01*
X1634570Y1344394D02*
X1634570Y1337728D01*
X1661237Y1407728D02*
X1707903Y1407728D01*
X1707903Y1407728D02*
X1677903Y1337728D01*
X1734570Y1337728D02*
X1734570Y1407728D01*
X1774570Y1337728D02*
X1744570Y1377728D01*
X1774570Y1407728D02*
X1734570Y1367728D01*
X2404321Y1157576D02*
X2400873Y1154128D01*
X2400873Y1154128D02*
X2390532Y1150681D01*
X2390532Y1150681D02*
X2383638Y1150681D01*
X2383638Y1150681D02*
X2373296Y1154128D01*
X2373296Y1154128D02*
X2366402Y1161023D01*
X2366402Y1161023D02*
X2362955Y1167917D01*
X2362955Y1167917D02*
X2359508Y1181706D01*
X2359508Y1181706D02*
X2359508Y1192047D01*
X2359508Y1192047D02*
X2362955Y1205836D01*
X2362955Y1205836D02*
X2366402Y1212730D01*
X2366402Y1212730D02*
X2373296Y1219624D01*
X2373296Y1219624D02*
X2383638Y1223071D01*
X2383638Y1223071D02*
X2390532Y1223071D01*
X2390532Y1223071D02*
X2400873Y1219624D01*
X2400873Y1219624D02*
X2404321Y1216177D01*
X2473263Y1150681D02*
X2431898Y1150681D01*
X2452581Y1150681D02*
X2452581Y1223071D01*
X2452581Y1223071D02*
X2445686Y1212730D01*
X2445686Y1212730D02*
X2438792Y1205836D01*
X2438792Y1205836D02*
X2431898Y1202388D01*
X2121718Y999791D02*
X2081718Y999791D01*
X2101718Y999791D02*
X2101718Y1069791D01*
X2101718Y1069791D02*
X2095051Y1059791D01*
X2095051Y1059791D02*
X2088385Y1053124D01*
X2088385Y1053124D02*
X2081718Y1049791D01*
X2165051Y1069791D02*
X2171718Y1069791D01*
X2171718Y1069791D02*
X2178385Y1066457D01*
X2178385Y1066457D02*
X2181718Y1063124D01*
X2181718Y1063124D02*
X2185051Y1056457D01*
X2185051Y1056457D02*
X2188385Y1043124D01*
X2188385Y1043124D02*
X2188385Y1026457D01*
X2188385Y1026457D02*
X2185051Y1013124D01*
X2185051Y1013124D02*
X2181718Y1006457D01*
X2181718Y1006457D02*
X2178385Y1003124D01*
X2178385Y1003124D02*
X2171718Y999791D01*
X2171718Y999791D02*
X2165051Y999791D01*
X2165051Y999791D02*
X2158385Y1003124D01*
X2158385Y1003124D02*
X2155051Y1006457D01*
X2155051Y1006457D02*
X2151718Y1013124D01*
X2151718Y1013124D02*
X2148385Y1026457D01*
X2148385Y1026457D02*
X2148385Y1043124D01*
X2148385Y1043124D02*
X2151718Y1056457D01*
X2151718Y1056457D02*
X2155051Y1063124D01*
X2155051Y1063124D02*
X2158385Y1066457D01*
X2158385Y1066457D02*
X2165051Y1069791D01*
X2218385Y1046457D02*
X2218385Y999791D01*
X2218385Y1039791D02*
X2221718Y1043124D01*
X2221718Y1043124D02*
X2228385Y1046457D01*
X2228385Y1046457D02*
X2238385Y1046457D01*
X2238385Y1046457D02*
X2245051Y1043124D01*
X2245051Y1043124D02*
X2248385Y1036457D01*
X2248385Y1036457D02*
X2248385Y999791D01*
X2305051Y1036457D02*
X2281718Y1036457D01*
X2281718Y999791D02*
X2281718Y1069791D01*
X2281718Y1069791D02*
X2315051Y1069791D01*
X1366057Y5772321D02*
X1332723Y5748987D01*
X1366057Y5732321D02*
X1296057Y5732321D01*
X1296057Y5732321D02*
X1296057Y5758987D01*
X1296057Y5758987D02*
X1299390Y5765654D01*
X1299390Y5765654D02*
X1302723Y5768987D01*
X1302723Y5768987D02*
X1309390Y5772321D01*
X1309390Y5772321D02*
X1319390Y5772321D01*
X1319390Y5772321D02*
X1326057Y5768987D01*
X1326057Y5768987D02*
X1329390Y5765654D01*
X1329390Y5765654D02*
X1332723Y5758987D01*
X1332723Y5758987D02*
X1332723Y5732321D01*
X1366057Y5838987D02*
X1366057Y5798987D01*
X1366057Y5818987D02*
X1296057Y5818987D01*
X1296057Y5818987D02*
X1306057Y5812321D01*
X1306057Y5812321D02*
X1312723Y5805654D01*
X1312723Y5805654D02*
X1316057Y5798987D01*
X1296057Y5882321D02*
X1296057Y5888987D01*
X1296057Y5888987D02*
X1299390Y5895654D01*
X1299390Y5895654D02*
X1302723Y5898987D01*
X1302723Y5898987D02*
X1309390Y5902321D01*
X1309390Y5902321D02*
X1322723Y5905654D01*
X1322723Y5905654D02*
X1339390Y5905654D01*
X1339390Y5905654D02*
X1352723Y5902321D01*
X1352723Y5902321D02*
X1359390Y5898987D01*
X1359390Y5898987D02*
X1362723Y5895654D01*
X1362723Y5895654D02*
X1366057Y5888987D01*
X1366057Y5888987D02*
X1366057Y5882321D01*
X1366057Y5882321D02*
X1362723Y5875654D01*
X1362723Y5875654D02*
X1359390Y5872321D01*
X1359390Y5872321D02*
X1352723Y5868987D01*
X1352723Y5868987D02*
X1339390Y5865654D01*
X1339390Y5865654D02*
X1322723Y5865654D01*
X1322723Y5865654D02*
X1309390Y5868987D01*
X1309390Y5868987D02*
X1302723Y5872321D01*
X1302723Y5872321D02*
X1299390Y5875654D01*
X1299390Y5875654D02*
X1296057Y5882321D01*
X1296057Y5948987D02*
X1296057Y5955654D01*
X1296057Y5955654D02*
X1299390Y5962321D01*
X1299390Y5962321D02*
X1302723Y5965654D01*
X1302723Y5965654D02*
X1309390Y5968987D01*
X1309390Y5968987D02*
X1322723Y5972321D01*
X1322723Y5972321D02*
X1339390Y5972321D01*
X1339390Y5972321D02*
X1352723Y5968987D01*
X1352723Y5968987D02*
X1359390Y5965654D01*
X1359390Y5965654D02*
X1362723Y5962321D01*
X1362723Y5962321D02*
X1366057Y5955654D01*
X1366057Y5955654D02*
X1366057Y5948987D01*
X1366057Y5948987D02*
X1362723Y5942321D01*
X1362723Y5942321D02*
X1359390Y5938987D01*
X1359390Y5938987D02*
X1352723Y5935654D01*
X1352723Y5935654D02*
X1339390Y5932321D01*
X1339390Y5932321D02*
X1322723Y5932321D01*
X1322723Y5932321D02*
X1309390Y5935654D01*
X1309390Y5935654D02*
X1302723Y5938987D01*
X1302723Y5938987D02*
X1299390Y5942321D01*
X1299390Y5942321D02*
X1296057Y5948987D01*
X1646359Y5812757D02*
X1646359Y5772757D01*
X1646359Y5792757D02*
X1576359Y5792757D01*
X1576359Y5792757D02*
X1586359Y5786090D01*
X1586359Y5786090D02*
X1593026Y5779423D01*
X1593026Y5779423D02*
X1596359Y5772757D01*
X1646359Y5842757D02*
X1576359Y5842757D01*
X1646359Y5882757D02*
X1606359Y5852757D01*
X1576359Y5882757D02*
X1616359Y5842757D01*
X573035Y7029105D02*
X532501Y7025564D01*
X553035Y6994464D02*
X492413Y7029464D01*
X492413Y7029464D02*
X505747Y7052558D01*
X505747Y7052558D02*
X511967Y7056664D01*
X511967Y7056664D02*
X516520Y7057885D01*
X516520Y7057885D02*
X523960Y7057438D01*
X523960Y7057438D02*
X532621Y7052438D01*
X532621Y7052438D02*
X536727Y7046218D01*
X536727Y7046218D02*
X537948Y7041664D01*
X537948Y7041664D02*
X537501Y7034224D01*
X537501Y7034224D02*
X524168Y7011130D01*
X606368Y7086840D02*
X586368Y7052199D01*
X596368Y7069519D02*
X535747Y7104519D01*
X535747Y7104519D02*
X541074Y7093746D01*
X541074Y7093746D02*
X543514Y7084639D01*
X543514Y7084639D02*
X543067Y7077199D01*
X567413Y7159367D02*
X570747Y7165141D01*
X570747Y7165141D02*
X576967Y7169248D01*
X576967Y7169248D02*
X581520Y7170468D01*
X581520Y7170468D02*
X588960Y7170021D01*
X588960Y7170021D02*
X602174Y7166241D01*
X602174Y7166241D02*
X616608Y7157908D01*
X616608Y7157908D02*
X626488Y7148355D01*
X626488Y7148355D02*
X630595Y7142135D01*
X630595Y7142135D02*
X631815Y7137581D01*
X631815Y7137581D02*
X631368Y7130141D01*
X631368Y7130141D02*
X628035Y7124367D01*
X628035Y7124367D02*
X621815Y7120261D01*
X621815Y7120261D02*
X617262Y7119041D01*
X617262Y7119041D02*
X609821Y7119487D01*
X609821Y7119487D02*
X596608Y7123267D01*
X596608Y7123267D02*
X582174Y7131600D01*
X582174Y7131600D02*
X572294Y7141154D01*
X572294Y7141154D02*
X568187Y7147374D01*
X568187Y7147374D02*
X566967Y7151927D01*
X566967Y7151927D02*
X567413Y7159367D01*
X625061Y7199216D02*
X618841Y7195109D01*
X618841Y7195109D02*
X614287Y7193889D01*
X614287Y7193889D02*
X606847Y7194335D01*
X606847Y7194335D02*
X603960Y7196002D01*
X603960Y7196002D02*
X599854Y7202222D01*
X599854Y7202222D02*
X598633Y7206776D01*
X598633Y7206776D02*
X599080Y7214216D01*
X599080Y7214216D02*
X605747Y7225763D01*
X605747Y7225763D02*
X611967Y7229870D01*
X611967Y7229870D02*
X616520Y7231090D01*
X616520Y7231090D02*
X623960Y7230643D01*
X623960Y7230643D02*
X626847Y7228976D01*
X626847Y7228976D02*
X630954Y7222756D01*
X630954Y7222756D02*
X632174Y7218203D01*
X632174Y7218203D02*
X631727Y7210763D01*
X631727Y7210763D02*
X625061Y7199216D01*
X625061Y7199216D02*
X624614Y7191776D01*
X624614Y7191776D02*
X625834Y7187222D01*
X625834Y7187222D02*
X629941Y7181002D01*
X629941Y7181002D02*
X641488Y7174335D01*
X641488Y7174335D02*
X648928Y7173889D01*
X648928Y7173889D02*
X653482Y7175109D01*
X653482Y7175109D02*
X659702Y7179216D01*
X659702Y7179216D02*
X666368Y7190763D01*
X666368Y7190763D02*
X666815Y7198203D01*
X666815Y7198203D02*
X665595Y7202756D01*
X665595Y7202756D02*
X661488Y7208976D01*
X661488Y7208976D02*
X649941Y7215643D01*
X649941Y7215643D02*
X642501Y7216090D01*
X642501Y7216090D02*
X637948Y7214870D01*
X637948Y7214870D02*
X631727Y7210763D01*
X860855Y6941020D02*
X840855Y6906379D01*
X850855Y6923700D02*
X790233Y6958700D01*
X790233Y6958700D02*
X795560Y6947926D01*
X795560Y6947926D02*
X798000Y6938819D01*
X798000Y6938819D02*
X797553Y6931379D01*
X875855Y6967001D02*
X815233Y7002001D01*
X895855Y7001642D02*
X846214Y6995661D01*
X835233Y7036642D02*
X849874Y6982001D01*
D11*
X639536Y3406432D02*
X631917Y3410241D01*
X631917Y3410241D02*
X624298Y3417860D01*
X624298Y3417860D02*
X612869Y3429289D01*
X612869Y3429289D02*
X605250Y3433098D01*
X605250Y3433098D02*
X597631Y3433098D01*
X601441Y3414051D02*
X593822Y3417860D01*
X593822Y3417860D02*
X586203Y3425479D01*
X586203Y3425479D02*
X582393Y3440718D01*
X582393Y3440718D02*
X582393Y3467384D01*
X582393Y3467384D02*
X586203Y3482622D01*
X586203Y3482622D02*
X593822Y3490241D01*
X593822Y3490241D02*
X601441Y3494051D01*
X601441Y3494051D02*
X616679Y3494051D01*
X616679Y3494051D02*
X624298Y3490241D01*
X624298Y3490241D02*
X631917Y3482622D01*
X631917Y3482622D02*
X635727Y3467384D01*
X635727Y3467384D02*
X635727Y3440718D01*
X635727Y3440718D02*
X631917Y3425479D01*
X631917Y3425479D02*
X624298Y3417860D01*
X624298Y3417860D02*
X616679Y3414051D01*
X616679Y3414051D02*
X601441Y3414051D01*
X711917Y3414051D02*
X666203Y3414051D01*
X689060Y3414051D02*
X689060Y3494051D01*
X689060Y3494051D02*
X681441Y3482622D01*
X681441Y3482622D02*
X673822Y3475003D01*
X673822Y3475003D02*
X666203Y3471194D01*
D17*
X133489Y3490151D02*
X141290Y3487550D01*
X141290Y3487550D02*
X143891Y3484950D01*
X143891Y3484950D02*
X146491Y3479749D01*
X146491Y3479749D02*
X146491Y3471947D01*
X146491Y3471947D02*
X143891Y3466746D01*
X143891Y3466746D02*
X141290Y3464146D01*
X141290Y3464146D02*
X136089Y3461546D01*
X136089Y3461546D02*
X115285Y3461546D01*
X115285Y3461546D02*
X115285Y3516156D01*
X115285Y3516156D02*
X133489Y3516156D01*
X133489Y3516156D02*
X138690Y3513555D01*
X138690Y3513555D02*
X141290Y3510955D01*
X141290Y3510955D02*
X143891Y3505754D01*
X143891Y3505754D02*
X143891Y3500553D01*
X143891Y3500553D02*
X141290Y3495352D01*
X141290Y3495352D02*
X138690Y3492751D01*
X138690Y3492751D02*
X133489Y3490151D01*
X133489Y3490151D02*
X115285Y3490151D01*
X167295Y3464146D02*
X175096Y3461546D01*
X175096Y3461546D02*
X188099Y3461546D01*
X188099Y3461546D02*
X193299Y3464146D01*
X193299Y3464146D02*
X195900Y3466746D01*
X195900Y3466746D02*
X198500Y3471947D01*
X198500Y3471947D02*
X198500Y3477148D01*
X198500Y3477148D02*
X195900Y3482349D01*
X195900Y3482349D02*
X193299Y3484950D01*
X193299Y3484950D02*
X188099Y3487550D01*
X188099Y3487550D02*
X177697Y3490151D01*
X177697Y3490151D02*
X172496Y3492751D01*
X172496Y3492751D02*
X169895Y3495352D01*
X169895Y3495352D02*
X167295Y3500553D01*
X167295Y3500553D02*
X167295Y3505754D01*
X167295Y3505754D02*
X169895Y3510955D01*
X169895Y3510955D02*
X172496Y3513555D01*
X172496Y3513555D02*
X177697Y3516156D01*
X177697Y3516156D02*
X190699Y3516156D01*
X190699Y3516156D02*
X198500Y3513555D01*
X250510Y3461546D02*
X219304Y3461546D01*
X234907Y3461546D02*
X234907Y3516156D01*
X234907Y3516156D02*
X229706Y3508354D01*
X229706Y3508354D02*
X224505Y3503153D01*
X224505Y3503153D02*
X219304Y3500553D01*
X268713Y3516156D02*
X305120Y3516156D01*
X305120Y3516156D02*
X281716Y3461546D01*
X336326Y3516156D02*
X341527Y3516156D01*
X341527Y3516156D02*
X346728Y3513555D01*
X346728Y3513555D02*
X349328Y3510955D01*
X349328Y3510955D02*
X351928Y3505754D01*
X351928Y3505754D02*
X354529Y3495352D01*
X354529Y3495352D02*
X354529Y3482349D01*
X354529Y3482349D02*
X351928Y3471947D01*
X351928Y3471947D02*
X349328Y3466746D01*
X349328Y3466746D02*
X346728Y3464146D01*
X346728Y3464146D02*
X341527Y3461546D01*
X341527Y3461546D02*
X336326Y3461546D01*
X336326Y3461546D02*
X331125Y3464146D01*
X331125Y3464146D02*
X328524Y3466746D01*
X328524Y3466746D02*
X325924Y3471947D01*
X325924Y3471947D02*
X323323Y3482349D01*
X323323Y3482349D02*
X323323Y3495352D01*
X323323Y3495352D02*
X325924Y3505754D01*
X325924Y3505754D02*
X328524Y3510955D01*
X328524Y3510955D02*
X331125Y3513555D01*
X331125Y3513555D02*
X336326Y3516156D01*
X377933Y3482349D02*
X419541Y3482349D01*
X471550Y3461546D02*
X445546Y3461546D01*
X445546Y3461546D02*
X445546Y3516156D01*
D16*
X882336Y5736818D02*
X878796Y5777353D01*
X847695Y5756818D02*
X882695Y5817440D01*
X882695Y5817440D02*
X905789Y5804107D01*
X905789Y5804107D02*
X909896Y5797887D01*
X909896Y5797887D02*
X911116Y5793333D01*
X911116Y5793333D02*
X910670Y5785893D01*
X910670Y5785893D02*
X905670Y5777233D01*
X905670Y5777233D02*
X899450Y5773126D01*
X899450Y5773126D02*
X894896Y5771906D01*
X894896Y5771906D02*
X887456Y5772353D01*
X887456Y5772353D02*
X864362Y5785686D01*
X940071Y5703485D02*
X905430Y5723485D01*
X922751Y5713485D02*
X957751Y5774107D01*
X957751Y5774107D02*
X946977Y5768780D01*
X946977Y5768780D02*
X937870Y5766340D01*
X937870Y5766340D02*
X930430Y5766786D01*
X1012599Y5742440D02*
X1018373Y5739107D01*
X1018373Y5739107D02*
X1022479Y5732887D01*
X1022479Y5732887D02*
X1023700Y5728333D01*
X1023700Y5728333D02*
X1023253Y5720893D01*
X1023253Y5720893D02*
X1019473Y5707680D01*
X1019473Y5707680D02*
X1011140Y5693246D01*
X1011140Y5693246D02*
X1001586Y5683365D01*
X1001586Y5683365D02*
X995366Y5679259D01*
X995366Y5679259D02*
X990813Y5678039D01*
X990813Y5678039D02*
X983373Y5678485D01*
X983373Y5678485D02*
X977599Y5681818D01*
X977599Y5681818D02*
X973492Y5688039D01*
X973492Y5688039D02*
X972272Y5692592D01*
X972272Y5692592D02*
X972719Y5700032D01*
X972719Y5700032D02*
X976499Y5713246D01*
X976499Y5713246D02*
X984832Y5727680D01*
X984832Y5727680D02*
X994385Y5737560D01*
X994385Y5737560D02*
X1000606Y5741667D01*
X1000606Y5741667D02*
X1005159Y5742887D01*
X1005159Y5742887D02*
X1012599Y5742440D01*
X1052567Y5711667D02*
X1057121Y5712887D01*
X1057121Y5712887D02*
X1064561Y5712440D01*
X1064561Y5712440D02*
X1078995Y5704107D01*
X1078995Y5704107D02*
X1083101Y5697887D01*
X1083101Y5697887D02*
X1084321Y5693333D01*
X1084321Y5693333D02*
X1083875Y5685893D01*
X1083875Y5685893D02*
X1080542Y5680120D01*
X1080542Y5680120D02*
X1072655Y5673126D01*
X1072655Y5673126D02*
X1018014Y5658485D01*
X1018014Y5658485D02*
X1055542Y5636818D01*
X1101701Y5951891D02*
X1067060Y5971891D01*
X1084381Y5961891D02*
X1119381Y6022513D01*
X1119381Y6022513D02*
X1108607Y6017186D01*
X1108607Y6017186D02*
X1099501Y6014746D01*
X1099501Y6014746D02*
X1092060Y6015192D01*
X1127682Y5936891D02*
X1162682Y5997513D01*
X1162323Y5916891D02*
X1156343Y5966532D01*
X1197323Y5977513D02*
X1142682Y5962872D01*
X2503853Y6525834D02*
X2470520Y6502501D01*
X2503853Y6485834D02*
X2433853Y6485834D01*
X2433853Y6485834D02*
X2433853Y6512501D01*
X2433853Y6512501D02*
X2437187Y6519167D01*
X2437187Y6519167D02*
X2440520Y6522501D01*
X2440520Y6522501D02*
X2447187Y6525834D01*
X2447187Y6525834D02*
X2457187Y6525834D01*
X2457187Y6525834D02*
X2463853Y6522501D01*
X2463853Y6522501D02*
X2467187Y6519167D01*
X2467187Y6519167D02*
X2470520Y6512501D01*
X2470520Y6512501D02*
X2470520Y6485834D01*
X2503853Y6592501D02*
X2503853Y6552501D01*
X2503853Y6572501D02*
X2433853Y6572501D01*
X2433853Y6572501D02*
X2443853Y6565834D01*
X2443853Y6565834D02*
X2450520Y6559167D01*
X2450520Y6559167D02*
X2453853Y6552501D01*
X2433853Y6635834D02*
X2433853Y6642501D01*
X2433853Y6642501D02*
X2437187Y6649168D01*
X2437187Y6649168D02*
X2440520Y6652501D01*
X2440520Y6652501D02*
X2447187Y6655834D01*
X2447187Y6655834D02*
X2460520Y6659168D01*
X2460520Y6659168D02*
X2477187Y6659168D01*
X2477187Y6659168D02*
X2490520Y6655834D01*
X2490520Y6655834D02*
X2497187Y6652501D01*
X2497187Y6652501D02*
X2500520Y6649168D01*
X2500520Y6649168D02*
X2503853Y6642501D01*
X2503853Y6642501D02*
X2503853Y6635834D01*
X2503853Y6635834D02*
X2500520Y6629168D01*
X2500520Y6629168D02*
X2497187Y6625834D01*
X2497187Y6625834D02*
X2490520Y6622501D01*
X2490520Y6622501D02*
X2477187Y6619168D01*
X2477187Y6619168D02*
X2460520Y6619168D01*
X2460520Y6619168D02*
X2447187Y6622501D01*
X2447187Y6622501D02*
X2440520Y6625834D01*
X2440520Y6625834D02*
X2437187Y6629168D01*
X2437187Y6629168D02*
X2433853Y6635834D01*
X2433853Y6722501D02*
X2433853Y6689168D01*
X2433853Y6689168D02*
X2467187Y6685834D01*
X2467187Y6685834D02*
X2463853Y6689168D01*
X2463853Y6689168D02*
X2460520Y6695834D01*
X2460520Y6695834D02*
X2460520Y6712501D01*
X2460520Y6712501D02*
X2463853Y6719168D01*
X2463853Y6719168D02*
X2467187Y6722501D01*
X2467187Y6722501D02*
X2473853Y6725834D01*
X2473853Y6725834D02*
X2490520Y6725834D01*
X2490520Y6725834D02*
X2497187Y6722501D01*
X2497187Y6722501D02*
X2500520Y6719168D01*
X2500520Y6719168D02*
X2503853Y6712501D01*
X2503853Y6712501D02*
X2503853Y6695834D01*
X2503853Y6695834D02*
X2500520Y6689168D01*
X2500520Y6689168D02*
X2497187Y6685834D01*
X2216916Y6602113D02*
X2216916Y6562113D01*
X2216916Y6582113D02*
X2146916Y6582113D01*
X2146916Y6582113D02*
X2156916Y6575447D01*
X2156916Y6575447D02*
X2163583Y6568780D01*
X2163583Y6568780D02*
X2166916Y6562113D01*
X2216916Y6632113D02*
X2146916Y6632113D01*
X2216916Y6672113D02*
X2176916Y6642113D01*
X2146916Y6672113D02*
X2186916Y6632113D01*
X1937411Y5668898D02*
X1900537Y5686099D01*
X1902770Y5648898D02*
X1867770Y5709520D01*
X1867770Y5709520D02*
X1890864Y5722853D01*
X1890864Y5722853D02*
X1898304Y5723299D01*
X1898304Y5723299D02*
X1902858Y5722079D01*
X1902858Y5722079D02*
X1909078Y5717973D01*
X1909078Y5717973D02*
X1914078Y5709312D01*
X1914078Y5709312D02*
X1914524Y5701872D01*
X1914524Y5701872D02*
X1913304Y5697319D01*
X1913304Y5697319D02*
X1909198Y5691099D01*
X1909198Y5691099D02*
X1886104Y5677765D01*
X1995146Y5702231D02*
X1960505Y5682231D01*
X1977826Y5692231D02*
X1942826Y5752853D01*
X1942826Y5752853D02*
X1942052Y5740859D01*
X1942052Y5740859D02*
X1939612Y5731752D01*
X1939612Y5731752D02*
X1935505Y5725532D01*
X1997674Y5784520D02*
X2003448Y5787853D01*
X2003448Y5787853D02*
X2010888Y5788299D01*
X2010888Y5788299D02*
X2015441Y5787079D01*
X2015441Y5787079D02*
X2021661Y5782973D01*
X2021661Y5782973D02*
X2031215Y5773092D01*
X2031215Y5773092D02*
X2039548Y5758658D01*
X2039548Y5758658D02*
X2043328Y5745445D01*
X2043328Y5745445D02*
X2043774Y5738005D01*
X2043774Y5738005D02*
X2042554Y5733451D01*
X2042554Y5733451D02*
X2038448Y5727231D01*
X2038448Y5727231D02*
X2032674Y5723898D01*
X2032674Y5723898D02*
X2025234Y5723451D01*
X2025234Y5723451D02*
X2020680Y5724671D01*
X2020680Y5724671D02*
X2014460Y5728778D01*
X2014460Y5728778D02*
X2004907Y5738658D01*
X2004907Y5738658D02*
X1996574Y5753092D01*
X1996574Y5753092D02*
X1992794Y5766306D01*
X1992794Y5766306D02*
X1992347Y5773746D01*
X1992347Y5773746D02*
X1993567Y5778299D01*
X1993567Y5778299D02*
X1997674Y5784520D01*
X2110616Y5768898D02*
X2075975Y5748898D01*
X2093296Y5758898D02*
X2058296Y5819520D01*
X2058296Y5819520D02*
X2057522Y5807526D01*
X2057522Y5807526D02*
X2055082Y5798419D01*
X2055082Y5798419D02*
X2050975Y5792199D01*
X1841643Y5939241D02*
X1807002Y5919241D01*
X1824323Y5929241D02*
X1789323Y5989863D01*
X1789323Y5989863D02*
X1788549Y5977869D01*
X1788549Y5977869D02*
X1786109Y5968762D01*
X1786109Y5968762D02*
X1782002Y5962542D01*
X1867624Y5954241D02*
X1832624Y6014863D01*
X1902265Y5974241D02*
X1856284Y5993882D01*
X1867265Y6034863D02*
X1852624Y5980222D01*
D18*
X2346695Y1970990D02*
X2346695Y2050990D01*
X2346695Y2050990D02*
X2365743Y2050990D01*
X2365743Y2050990D02*
X2377172Y2047181D01*
X2377172Y2047181D02*
X2384791Y2039562D01*
X2384791Y2039562D02*
X2388600Y2031943D01*
X2388600Y2031943D02*
X2392410Y2016705D01*
X2392410Y2016705D02*
X2392410Y2005276D01*
X2392410Y2005276D02*
X2388600Y1990038D01*
X2388600Y1990038D02*
X2384791Y1982419D01*
X2384791Y1982419D02*
X2377172Y1974800D01*
X2377172Y1974800D02*
X2365743Y1970990D01*
X2365743Y1970990D02*
X2346695Y1970990D01*
X2468600Y1970990D02*
X2422886Y1970990D01*
X2445743Y1970990D02*
X2445743Y2050990D01*
X2445743Y2050990D02*
X2438124Y2039562D01*
X2438124Y2039562D02*
X2430505Y2031943D01*
X2430505Y2031943D02*
X2422886Y2028133D01*
D19*
X1593835Y1780267D02*
X1593835Y1733458D01*
X1593835Y1733458D02*
X1590714Y1724096D01*
X1590714Y1724096D02*
X1584473Y1717855D01*
X1584473Y1717855D02*
X1575111Y1714735D01*
X1575111Y1714735D02*
X1568870Y1714735D01*
X1625040Y1714735D02*
X1625040Y1780267D01*
X1625040Y1780267D02*
X1650005Y1780267D01*
X1650005Y1780267D02*
X1656246Y1777146D01*
X1656246Y1777146D02*
X1659367Y1774025D01*
X1659367Y1774025D02*
X1662487Y1767784D01*
X1662487Y1767784D02*
X1662487Y1758423D01*
X1662487Y1758423D02*
X1659367Y1752181D01*
X1659367Y1752181D02*
X1656246Y1749061D01*
X1656246Y1749061D02*
X1650005Y1745940D01*
X1650005Y1745940D02*
X1625040Y1745940D01*
X1687452Y1774025D02*
X1690572Y1777146D01*
X1690572Y1777146D02*
X1696813Y1780267D01*
X1696813Y1780267D02*
X1712416Y1780267D01*
X1712416Y1780267D02*
X1718657Y1777146D01*
X1718657Y1777146D02*
X1721778Y1774025D01*
X1721778Y1774025D02*
X1724899Y1767784D01*
X1724899Y1767784D02*
X1724899Y1761543D01*
X1724899Y1761543D02*
X1721778Y1752181D01*
X1721778Y1752181D02*
X1684331Y1714735D01*
X1684331Y1714735D02*
X1724899Y1714735D01*
X1673621Y2853375D02*
X1673621Y2918907D01*
X1742274Y2859616D02*
X1739153Y2856495D01*
X1739153Y2856495D02*
X1729791Y2853375D01*
X1729791Y2853375D02*
X1723550Y2853375D01*
X1723550Y2853375D02*
X1714189Y2856495D01*
X1714189Y2856495D02*
X1707947Y2862736D01*
X1707947Y2862736D02*
X1704827Y2868977D01*
X1704827Y2868977D02*
X1701706Y2881460D01*
X1701706Y2881460D02*
X1701706Y2890821D01*
X1701706Y2890821D02*
X1704827Y2903304D01*
X1704827Y2903304D02*
X1707947Y2909545D01*
X1707947Y2909545D02*
X1714189Y2915786D01*
X1714189Y2915786D02*
X1723550Y2918907D01*
X1723550Y2918907D02*
X1729791Y2918907D01*
X1729791Y2918907D02*
X1739153Y2915786D01*
X1739153Y2915786D02*
X1742274Y2912665D01*
X1804685Y2853375D02*
X1767238Y2853375D01*
X1785962Y2853375D02*
X1785962Y2918907D01*
X1785962Y2918907D02*
X1779721Y2909545D01*
X1779721Y2909545D02*
X1773479Y2903304D01*
X1773479Y2903304D02*
X1767238Y2900183D01*
D17*
X1568740Y3252908D02*
X1594745Y3252908D01*
X1563539Y3237306D02*
X1581743Y3291916D01*
X1581743Y3291916D02*
X1599946Y3237306D01*
X1618149Y3237306D02*
X1618149Y3291916D01*
X1618149Y3291916D02*
X1636353Y3252908D01*
X1636353Y3252908D02*
X1654556Y3291916D01*
X1654556Y3291916D02*
X1654556Y3237306D01*
X1677960Y3239906D02*
X1685762Y3237306D01*
X1685762Y3237306D02*
X1698764Y3237306D01*
X1698764Y3237306D02*
X1703965Y3239906D01*
X1703965Y3239906D02*
X1706566Y3242506D01*
X1706566Y3242506D02*
X1709166Y3247707D01*
X1709166Y3247707D02*
X1709166Y3252908D01*
X1709166Y3252908D02*
X1706566Y3258109D01*
X1706566Y3258109D02*
X1703965Y3260710D01*
X1703965Y3260710D02*
X1698764Y3263310D01*
X1698764Y3263310D02*
X1688362Y3265911D01*
X1688362Y3265911D02*
X1683161Y3268511D01*
X1683161Y3268511D02*
X1680561Y3271112D01*
X1680561Y3271112D02*
X1677960Y3276313D01*
X1677960Y3276313D02*
X1677960Y3281514D01*
X1677960Y3281514D02*
X1680561Y3286715D01*
X1680561Y3286715D02*
X1683161Y3289315D01*
X1683161Y3289315D02*
X1688362Y3291916D01*
X1688362Y3291916D02*
X1701365Y3291916D01*
X1701365Y3291916D02*
X1709166Y3289315D01*
X1761176Y3237306D02*
X1729970Y3237306D01*
X1745573Y3237306D02*
X1745573Y3291916D01*
X1745573Y3291916D02*
X1740372Y3284114D01*
X1740372Y3284114D02*
X1735171Y3278913D01*
X1735171Y3278913D02*
X1729970Y3276313D01*
X1813185Y3237306D02*
X1781979Y3237306D01*
X1797582Y3237306D02*
X1797582Y3291916D01*
X1797582Y3291916D02*
X1792381Y3284114D01*
X1792381Y3284114D02*
X1787180Y3278913D01*
X1787180Y3278913D02*
X1781979Y3276313D01*
X1865195Y3237306D02*
X1833989Y3237306D01*
X1849592Y3237306D02*
X1849592Y3291916D01*
X1849592Y3291916D02*
X1844391Y3284114D01*
X1844391Y3284114D02*
X1839190Y3278913D01*
X1839190Y3278913D02*
X1833989Y3276313D01*
X1883398Y3291916D02*
X1919805Y3291916D01*
X1919805Y3291916D02*
X1896400Y3237306D01*
X1940608Y3258109D02*
X1982216Y3258109D01*
X2034226Y3291916D02*
X2008221Y3291916D01*
X2008221Y3291916D02*
X2005620Y3265911D01*
X2005620Y3265911D02*
X2008221Y3268511D01*
X2008221Y3268511D02*
X2013422Y3271112D01*
X2013422Y3271112D02*
X2026424Y3271112D01*
X2026424Y3271112D02*
X2031625Y3268511D01*
X2031625Y3268511D02*
X2034226Y3265911D01*
X2034226Y3265911D02*
X2036826Y3260710D01*
X2036826Y3260710D02*
X2036826Y3247707D01*
X2036826Y3247707D02*
X2034226Y3242506D01*
X2034226Y3242506D02*
X2031625Y3239906D01*
X2031625Y3239906D02*
X2026424Y3237306D01*
X2026424Y3237306D02*
X2013422Y3237306D01*
X2013422Y3237306D02*
X2008221Y3239906D01*
X2008221Y3239906D02*
X2005620Y3242506D01*
X2052429Y3291916D02*
X2070632Y3237306D01*
X2070632Y3237306D02*
X2088836Y3291916D01*
D16*
X1920696Y1152483D02*
X1896566Y1186955D01*
X1879330Y1152483D02*
X1879330Y1224873D01*
X1879330Y1224873D02*
X1906907Y1224873D01*
X1906907Y1224873D02*
X1913802Y1221426D01*
X1913802Y1221426D02*
X1917249Y1217979D01*
X1917249Y1217979D02*
X1920696Y1211085D01*
X1920696Y1211085D02*
X1920696Y1200743D01*
X1920696Y1200743D02*
X1917249Y1193849D01*
X1917249Y1193849D02*
X1913802Y1190402D01*
X1913802Y1190402D02*
X1906907Y1186955D01*
X1906907Y1186955D02*
X1879330Y1186955D01*
X1989639Y1152483D02*
X1948273Y1152483D01*
X1968956Y1152483D02*
X1968956Y1224873D01*
X1968956Y1224873D02*
X1962062Y1214532D01*
X1962062Y1214532D02*
X1955167Y1207638D01*
X1955167Y1207638D02*
X1948273Y1204190D01*
X1596028Y1063124D02*
X1599361Y1066457D01*
X1599361Y1066457D02*
X1606028Y1069791D01*
X1606028Y1069791D02*
X1622695Y1069791D01*
X1622695Y1069791D02*
X1629361Y1066457D01*
X1629361Y1066457D02*
X1632695Y1063124D01*
X1632695Y1063124D02*
X1636028Y1056457D01*
X1636028Y1056457D02*
X1636028Y1049791D01*
X1636028Y1049791D02*
X1632695Y1039791D01*
X1632695Y1039791D02*
X1592695Y999791D01*
X1592695Y999791D02*
X1636028Y999791D01*
X1662695Y1063124D02*
X1666028Y1066457D01*
X1666028Y1066457D02*
X1672695Y1069791D01*
X1672695Y1069791D02*
X1689361Y1069791D01*
X1689361Y1069791D02*
X1696028Y1066457D01*
X1696028Y1066457D02*
X1699361Y1063124D01*
X1699361Y1063124D02*
X1702695Y1056457D01*
X1702695Y1056457D02*
X1702695Y1049791D01*
X1702695Y1049791D02*
X1699361Y1039791D01*
X1699361Y1039791D02*
X1659361Y999791D01*
X1659361Y999791D02*
X1702695Y999791D01*
X1732695Y999791D02*
X1732695Y1069791D01*
X1772695Y999791D02*
X1742695Y1039791D01*
X1772695Y1069791D02*
X1732695Y1029791D01*
D19*
X421157Y1738857D02*
X421157Y1779425D01*
X421157Y1779425D02*
X446121Y1757581D01*
X446121Y1757581D02*
X446121Y1766942D01*
X446121Y1766942D02*
X449242Y1773184D01*
X449242Y1773184D02*
X452362Y1776304D01*
X452362Y1776304D02*
X458604Y1779425D01*
X458604Y1779425D02*
X474206Y1779425D01*
X474206Y1779425D02*
X480448Y1776304D01*
X480448Y1776304D02*
X483568Y1773184D01*
X483568Y1773184D02*
X486689Y1766942D01*
X486689Y1766942D02*
X486689Y1748219D01*
X486689Y1748219D02*
X483568Y1741978D01*
X483568Y1741978D02*
X480448Y1738857D01*
D16*
X470968Y6525629D02*
X437634Y6502295D01*
X470968Y6485629D02*
X400968Y6485629D01*
X400968Y6485629D02*
X400968Y6512295D01*
X400968Y6512295D02*
X404301Y6518962D01*
X404301Y6518962D02*
X407634Y6522295D01*
X407634Y6522295D02*
X414301Y6525629D01*
X414301Y6525629D02*
X424301Y6525629D01*
X424301Y6525629D02*
X430968Y6522295D01*
X430968Y6522295D02*
X434301Y6518962D01*
X434301Y6518962D02*
X437634Y6512295D01*
X437634Y6512295D02*
X437634Y6485629D01*
X470968Y6592295D02*
X470968Y6552295D01*
X470968Y6572295D02*
X400968Y6572295D01*
X400968Y6572295D02*
X410968Y6565629D01*
X410968Y6565629D02*
X417634Y6558962D01*
X417634Y6558962D02*
X420968Y6552295D01*
X400968Y6635629D02*
X400968Y6642295D01*
X400968Y6642295D02*
X404301Y6648962D01*
X404301Y6648962D02*
X407634Y6652295D01*
X407634Y6652295D02*
X414301Y6655629D01*
X414301Y6655629D02*
X427634Y6658962D01*
X427634Y6658962D02*
X444301Y6658962D01*
X444301Y6658962D02*
X457634Y6655629D01*
X457634Y6655629D02*
X464301Y6652295D01*
X464301Y6652295D02*
X467634Y6648962D01*
X467634Y6648962D02*
X470968Y6642295D01*
X470968Y6642295D02*
X470968Y6635629D01*
X470968Y6635629D02*
X467634Y6628962D01*
X467634Y6628962D02*
X464301Y6625629D01*
X464301Y6625629D02*
X457634Y6622295D01*
X457634Y6622295D02*
X444301Y6618962D01*
X444301Y6618962D02*
X427634Y6618962D01*
X427634Y6618962D02*
X414301Y6622295D01*
X414301Y6622295D02*
X407634Y6625629D01*
X407634Y6625629D02*
X404301Y6628962D01*
X404301Y6628962D02*
X400968Y6635629D01*
X400968Y6718962D02*
X400968Y6705629D01*
X400968Y6705629D02*
X404301Y6698962D01*
X404301Y6698962D02*
X407634Y6695629D01*
X407634Y6695629D02*
X417634Y6688962D01*
X417634Y6688962D02*
X430968Y6685629D01*
X430968Y6685629D02*
X457634Y6685629D01*
X457634Y6685629D02*
X464301Y6688962D01*
X464301Y6688962D02*
X467634Y6692295D01*
X467634Y6692295D02*
X470968Y6698962D01*
X470968Y6698962D02*
X470968Y6712295D01*
X470968Y6712295D02*
X467634Y6718962D01*
X467634Y6718962D02*
X464301Y6722295D01*
X464301Y6722295D02*
X457634Y6725629D01*
X457634Y6725629D02*
X440968Y6725629D01*
X440968Y6725629D02*
X434301Y6722295D01*
X434301Y6722295D02*
X430968Y6718962D01*
X430968Y6718962D02*
X427634Y6712295D01*
X427634Y6712295D02*
X427634Y6698962D01*
X427634Y6698962D02*
X430968Y6692295D01*
X430968Y6692295D02*
X434301Y6688962D01*
X434301Y6688962D02*
X440968Y6685629D01*
X789418Y6609648D02*
X789418Y6569648D01*
X789418Y6589648D02*
X719418Y6589648D01*
X719418Y6589648D02*
X729418Y6582981D01*
X729418Y6582981D02*
X736085Y6576315D01*
X736085Y6576315D02*
X739418Y6569648D01*
X789418Y6639648D02*
X719418Y6639648D01*
X789418Y6679648D02*
X749418Y6649648D01*
X719418Y6679648D02*
X759418Y6639648D01*
D19*
X908035Y387627D02*
X908035Y340818D01*
X908035Y340818D02*
X904914Y331456D01*
X904914Y331456D02*
X898673Y325215D01*
X898673Y325215D02*
X889311Y322095D01*
X889311Y322095D02*
X883070Y322095D01*
X939240Y322095D02*
X939240Y387627D01*
X939240Y387627D02*
X964205Y387627D01*
X964205Y387627D02*
X970446Y384506D01*
X970446Y384506D02*
X973567Y381385D01*
X973567Y381385D02*
X976687Y375144D01*
X976687Y375144D02*
X976687Y365783D01*
X976687Y365783D02*
X973567Y359541D01*
X973567Y359541D02*
X970446Y356421D01*
X970446Y356421D02*
X964205Y353300D01*
X964205Y353300D02*
X939240Y353300D01*
X1039099Y322095D02*
X1001652Y322095D01*
X1020375Y322095D02*
X1020375Y387627D01*
X1020375Y387627D02*
X1014134Y378265D01*
X1014134Y378265D02*
X1007893Y372024D01*
X1007893Y372024D02*
X1001652Y368903D01*
D16*
X874574Y2625683D02*
X850444Y2660155D01*
X833208Y2625683D02*
X833208Y2698073D01*
X833208Y2698073D02*
X860785Y2698073D01*
X860785Y2698073D02*
X867679Y2694626D01*
X867679Y2694626D02*
X871127Y2691179D01*
X871127Y2691179D02*
X874574Y2684285D01*
X874574Y2684285D02*
X874574Y2673943D01*
X874574Y2673943D02*
X871127Y2667049D01*
X871127Y2667049D02*
X867679Y2663602D01*
X867679Y2663602D02*
X860785Y2660155D01*
X860785Y2660155D02*
X833208Y2660155D01*
X902151Y2691179D02*
X905598Y2694626D01*
X905598Y2694626D02*
X912492Y2698073D01*
X912492Y2698073D02*
X929728Y2698073D01*
X929728Y2698073D02*
X936622Y2694626D01*
X936622Y2694626D02*
X940069Y2691179D01*
X940069Y2691179D02*
X943517Y2684285D01*
X943517Y2684285D02*
X943517Y2677390D01*
X943517Y2677390D02*
X940069Y2667049D01*
X940069Y2667049D02*
X898704Y2625683D01*
X898704Y2625683D02*
X943517Y2625683D01*
X861808Y2163590D02*
X821808Y2163590D01*
X841808Y2163590D02*
X841808Y2233590D01*
X841808Y2233590D02*
X835142Y2223590D01*
X835142Y2223590D02*
X828475Y2216923D01*
X828475Y2216923D02*
X821808Y2213590D01*
X891808Y2163590D02*
X891808Y2233590D01*
X931808Y2163590D02*
X901808Y2203590D01*
X931808Y2233590D02*
X891808Y2193590D01*
D10*
X2857100Y820676D02*
X2857100Y868295D01*
X2885672Y811152D02*
X2785672Y844486D01*
X2785672Y844486D02*
X2885672Y877819D01*
X2885672Y968295D02*
X2838053Y934962D01*
X2885672Y911152D02*
X2785672Y911152D01*
X2785672Y911152D02*
X2785672Y949247D01*
X2785672Y949247D02*
X2790434Y958771D01*
X2790434Y958771D02*
X2795196Y963533D01*
X2795196Y963533D02*
X2804719Y968295D01*
X2804719Y968295D02*
X2819005Y968295D01*
X2819005Y968295D02*
X2828529Y963533D01*
X2828529Y963533D02*
X2833291Y958771D01*
X2833291Y958771D02*
X2838053Y949247D01*
X2838053Y949247D02*
X2838053Y911152D01*
X2885672Y1011152D02*
X2785672Y1011152D01*
X2785672Y1011152D02*
X2785672Y1034962D01*
X2785672Y1034962D02*
X2790434Y1049248D01*
X2790434Y1049248D02*
X2799958Y1058771D01*
X2799958Y1058771D02*
X2809481Y1063533D01*
X2809481Y1063533D02*
X2828529Y1068295D01*
X2828529Y1068295D02*
X2842815Y1068295D01*
X2842815Y1068295D02*
X2861862Y1063533D01*
X2861862Y1063533D02*
X2871386Y1058771D01*
X2871386Y1058771D02*
X2880910Y1049248D01*
X2880910Y1049248D02*
X2885672Y1034962D01*
X2885672Y1034962D02*
X2885672Y1011152D01*
X2885672Y1163533D02*
X2885672Y1106390D01*
X2885672Y1134962D02*
X2785672Y1134962D01*
X2785672Y1134962D02*
X2799958Y1125438D01*
X2799958Y1125438D02*
X2809481Y1115914D01*
X2809481Y1115914D02*
X2814243Y1106390D01*
D16*
X1901820Y7498453D02*
X1898279Y7538987D01*
X1867179Y7518453D02*
X1902179Y7579075D01*
X1902179Y7579075D02*
X1925273Y7565741D01*
X1925273Y7565741D02*
X1929380Y7559521D01*
X1929380Y7559521D02*
X1930600Y7554968D01*
X1930600Y7554968D02*
X1930153Y7547528D01*
X1930153Y7547528D02*
X1925153Y7538867D01*
X1925153Y7538867D02*
X1918933Y7534760D01*
X1918933Y7534760D02*
X1914380Y7533540D01*
X1914380Y7533540D02*
X1906939Y7533987D01*
X1906939Y7533987D02*
X1883845Y7547320D01*
X1959555Y7465119D02*
X1924914Y7485119D01*
X1942234Y7475119D02*
X1977234Y7535741D01*
X1977234Y7535741D02*
X1966461Y7530414D01*
X1966461Y7530414D02*
X1957354Y7527974D01*
X1957354Y7527974D02*
X1949914Y7528421D01*
X2032083Y7504075D02*
X2037856Y7500741D01*
X2037856Y7500741D02*
X2041963Y7494521D01*
X2041963Y7494521D02*
X2043183Y7489968D01*
X2043183Y7489968D02*
X2042736Y7482528D01*
X2042736Y7482528D02*
X2038957Y7469314D01*
X2038957Y7469314D02*
X2030623Y7454880D01*
X2030623Y7454880D02*
X2021070Y7445000D01*
X2021070Y7445000D02*
X2014850Y7440893D01*
X2014850Y7440893D02*
X2010296Y7439673D01*
X2010296Y7439673D02*
X2002856Y7440119D01*
X2002856Y7440119D02*
X1997083Y7443453D01*
X1997083Y7443453D02*
X1992976Y7449673D01*
X1992976Y7449673D02*
X1991756Y7454226D01*
X1991756Y7454226D02*
X1992202Y7461666D01*
X1992202Y7461666D02*
X1995982Y7474880D01*
X1995982Y7474880D02*
X2004316Y7489314D01*
X2004316Y7489314D02*
X2013869Y7499194D01*
X2013869Y7499194D02*
X2020089Y7503301D01*
X2020089Y7503301D02*
X2024642Y7504521D01*
X2024642Y7504521D02*
X2032083Y7504075D01*
X2046157Y7415119D02*
X2057704Y7408453D01*
X2057704Y7408453D02*
X2065145Y7408006D01*
X2065145Y7408006D02*
X2069698Y7409226D01*
X2069698Y7409226D02*
X2080472Y7414553D01*
X2080472Y7414553D02*
X2090025Y7424433D01*
X2090025Y7424433D02*
X2103358Y7447528D01*
X2103358Y7447528D02*
X2103805Y7454968D01*
X2103805Y7454968D02*
X2102585Y7459521D01*
X2102585Y7459521D02*
X2098478Y7465741D01*
X2098478Y7465741D02*
X2086931Y7472408D01*
X2086931Y7472408D02*
X2079491Y7472854D01*
X2079491Y7472854D02*
X2074937Y7471634D01*
X2074937Y7471634D02*
X2068717Y7467528D01*
X2068717Y7467528D02*
X2060384Y7453094D01*
X2060384Y7453094D02*
X2059937Y7445654D01*
X2059937Y7445654D02*
X2061157Y7441100D01*
X2061157Y7441100D02*
X2065264Y7434880D01*
X2065264Y7434880D02*
X2076811Y7428213D01*
X2076811Y7428213D02*
X2084251Y7427767D01*
X2084251Y7427767D02*
X2088805Y7428987D01*
X2088805Y7428987D02*
X2095025Y7433094D01*
X1827614Y7216500D02*
X1792973Y7236500D01*
X1810293Y7226500D02*
X1845293Y7287121D01*
X1845293Y7287121D02*
X1834520Y7281794D01*
X1834520Y7281794D02*
X1825413Y7279354D01*
X1825413Y7279354D02*
X1817973Y7279801D01*
X1853594Y7201500D02*
X1888594Y7262121D01*
X1888235Y7181500D02*
X1882255Y7231141D01*
X1923235Y7242121D02*
X1868594Y7227480D01*
X2294543Y7156324D02*
X2311744Y7193198D01*
X2274543Y7190965D02*
X2335165Y7225965D01*
X2335165Y7225965D02*
X2348498Y7202871D01*
X2348498Y7202871D02*
X2348945Y7195431D01*
X2348945Y7195431D02*
X2347725Y7190878D01*
X2347725Y7190878D02*
X2343618Y7184658D01*
X2343618Y7184658D02*
X2334958Y7179658D01*
X2334958Y7179658D02*
X2327518Y7179211D01*
X2327518Y7179211D02*
X2322964Y7180431D01*
X2322964Y7180431D02*
X2316744Y7184538D01*
X2316744Y7184538D02*
X2303411Y7207632D01*
X2327877Y7098589D02*
X2307877Y7133230D01*
X2317877Y7115910D02*
X2378498Y7150910D01*
X2378498Y7150910D02*
X2366505Y7151683D01*
X2366505Y7151683D02*
X2357398Y7154124D01*
X2357398Y7154124D02*
X2351178Y7158230D01*
X2410165Y7096062D02*
X2413498Y7090288D01*
X2413498Y7090288D02*
X2413945Y7082848D01*
X2413945Y7082848D02*
X2412725Y7078295D01*
X2412725Y7078295D02*
X2408618Y7072074D01*
X2408618Y7072074D02*
X2398738Y7062521D01*
X2398738Y7062521D02*
X2384304Y7054188D01*
X2384304Y7054188D02*
X2371090Y7050408D01*
X2371090Y7050408D02*
X2363650Y7049961D01*
X2363650Y7049961D02*
X2359097Y7051181D01*
X2359097Y7051181D02*
X2352877Y7055288D01*
X2352877Y7055288D02*
X2349543Y7061062D01*
X2349543Y7061062D02*
X2349097Y7068502D01*
X2349097Y7068502D02*
X2350317Y7073055D01*
X2350317Y7073055D02*
X2354424Y7079275D01*
X2354424Y7079275D02*
X2364304Y7088829D01*
X2364304Y7088829D02*
X2378738Y7097162D01*
X2378738Y7097162D02*
X2391951Y7100942D01*
X2391951Y7100942D02*
X2399392Y7101389D01*
X2399392Y7101389D02*
X2403945Y7100168D01*
X2403945Y7100168D02*
X2410165Y7096062D01*
X2433498Y7055647D02*
X2456832Y7015233D01*
X2456832Y7015233D02*
X2381210Y7006213D01*
X2067307Y6955204D02*
X2047307Y6989845D01*
X2057307Y6972524D02*
X2117929Y7007524D01*
X2117929Y7007524D02*
X2105936Y7008298D01*
X2105936Y7008298D02*
X2096829Y7010738D01*
X2096829Y7010738D02*
X2090609Y7014845D01*
X2082307Y6929223D02*
X2142929Y6964223D01*
X2102307Y6894582D02*
X2121949Y6940563D01*
X2162929Y6929582D02*
X2108288Y6944223D01*
X2397794Y1487955D02*
X2373664Y1522427D01*
X2356428Y1487955D02*
X2356428Y1560345D01*
X2356428Y1560345D02*
X2384005Y1560345D01*
X2384005Y1560345D02*
X2390899Y1556898D01*
X2390899Y1556898D02*
X2394347Y1553451D01*
X2394347Y1553451D02*
X2397794Y1546557D01*
X2397794Y1546557D02*
X2397794Y1536215D01*
X2397794Y1536215D02*
X2394347Y1529321D01*
X2394347Y1529321D02*
X2390899Y1525874D01*
X2390899Y1525874D02*
X2384005Y1522427D01*
X2384005Y1522427D02*
X2356428Y1522427D01*
X2439159Y1529321D02*
X2432265Y1532768D01*
X2432265Y1532768D02*
X2428818Y1536215D01*
X2428818Y1536215D02*
X2425371Y1543110D01*
X2425371Y1543110D02*
X2425371Y1546557D01*
X2425371Y1546557D02*
X2428818Y1553451D01*
X2428818Y1553451D02*
X2432265Y1556898D01*
X2432265Y1556898D02*
X2439159Y1560345D01*
X2439159Y1560345D02*
X2452948Y1560345D01*
X2452948Y1560345D02*
X2459842Y1556898D01*
X2459842Y1556898D02*
X2463289Y1553451D01*
X2463289Y1553451D02*
X2466737Y1546557D01*
X2466737Y1546557D02*
X2466737Y1543110D01*
X2466737Y1543110D02*
X2463289Y1536215D01*
X2463289Y1536215D02*
X2459842Y1532768D01*
X2459842Y1532768D02*
X2452948Y1529321D01*
X2452948Y1529321D02*
X2439159Y1529321D01*
X2439159Y1529321D02*
X2432265Y1525874D01*
X2432265Y1525874D02*
X2428818Y1522427D01*
X2428818Y1522427D02*
X2425371Y1515532D01*
X2425371Y1515532D02*
X2425371Y1501744D01*
X2425371Y1501744D02*
X2428818Y1494850D01*
X2428818Y1494850D02*
X2432265Y1491402D01*
X2432265Y1491402D02*
X2439159Y1487955D01*
X2439159Y1487955D02*
X2452948Y1487955D01*
X2452948Y1487955D02*
X2459842Y1491402D01*
X2459842Y1491402D02*
X2463289Y1494850D01*
X2463289Y1494850D02*
X2466737Y1501744D01*
X2466737Y1501744D02*
X2466737Y1515532D01*
X2466737Y1515532D02*
X2463289Y1522427D01*
X2463289Y1522427D02*
X2459842Y1525874D01*
X2459842Y1525874D02*
X2452948Y1529321D01*
X2086561Y1376657D02*
X2086561Y1329991D01*
X2069895Y1403324D02*
X2053228Y1353324D01*
X2053228Y1353324D02*
X2096561Y1353324D01*
X2123228Y1336657D02*
X2126561Y1333324D01*
X2126561Y1333324D02*
X2123228Y1329991D01*
X2123228Y1329991D02*
X2119895Y1333324D01*
X2119895Y1333324D02*
X2123228Y1336657D01*
X2123228Y1336657D02*
X2123228Y1329991D01*
X2149895Y1399991D02*
X2196561Y1399991D01*
X2196561Y1399991D02*
X2166561Y1329991D01*
X2223228Y1329991D02*
X2223228Y1399991D01*
X2263228Y1329991D02*
X2233228Y1369991D01*
X2263228Y1399991D02*
X2223228Y1359991D01*
D19*
X417824Y1497061D02*
X414704Y1500181D01*
X414704Y1500181D02*
X411583Y1506422D01*
X411583Y1506422D02*
X411583Y1522025D01*
X411583Y1522025D02*
X414704Y1528266D01*
X414704Y1528266D02*
X417824Y1531387D01*
X417824Y1531387D02*
X424066Y1534508D01*
X424066Y1534508D02*
X430307Y1534508D01*
X430307Y1534508D02*
X439668Y1531387D01*
X439668Y1531387D02*
X477115Y1493940D01*
X477115Y1493940D02*
X477115Y1534508D01*
D16*
X517081Y6149904D02*
X534282Y6186778D01*
X497081Y6184545D02*
X557703Y6219545D01*
X557703Y6219545D02*
X571036Y6196451D01*
X571036Y6196451D02*
X571483Y6189011D01*
X571483Y6189011D02*
X570263Y6184458D01*
X570263Y6184458D02*
X566156Y6178237D01*
X566156Y6178237D02*
X557496Y6173237D01*
X557496Y6173237D02*
X550056Y6172791D01*
X550056Y6172791D02*
X545502Y6174011D01*
X545502Y6174011D02*
X539282Y6178118D01*
X539282Y6178118D02*
X525949Y6201212D01*
X550415Y6092169D02*
X530415Y6126810D01*
X540415Y6109490D02*
X601036Y6144490D01*
X601036Y6144490D02*
X589043Y6145263D01*
X589043Y6145263D02*
X579936Y6147703D01*
X579936Y6147703D02*
X573716Y6151810D01*
X632703Y6089641D02*
X636036Y6083868D01*
X636036Y6083868D02*
X636483Y6076428D01*
X636483Y6076428D02*
X635263Y6071874D01*
X635263Y6071874D02*
X631156Y6065654D01*
X631156Y6065654D02*
X621276Y6056101D01*
X621276Y6056101D02*
X606842Y6047767D01*
X606842Y6047767D02*
X593628Y6043987D01*
X593628Y6043987D02*
X586188Y6043541D01*
X586188Y6043541D02*
X581635Y6044761D01*
X581635Y6044761D02*
X575415Y6048868D01*
X575415Y6048868D02*
X572081Y6054641D01*
X572081Y6054641D02*
X571635Y6062081D01*
X571635Y6062081D02*
X572855Y6066635D01*
X572855Y6066635D02*
X576962Y6072855D01*
X576962Y6072855D02*
X586842Y6082408D01*
X586842Y6082408D02*
X601276Y6090742D01*
X601276Y6090742D02*
X614489Y6094522D01*
X614489Y6094522D02*
X621930Y6094968D01*
X621930Y6094968D02*
X626483Y6093748D01*
X626483Y6093748D02*
X632703Y6089641D01*
X654163Y6005806D02*
X613748Y5982473D01*
X668923Y6033573D02*
X617289Y6023007D01*
X617289Y6023007D02*
X638955Y5985479D01*
X813962Y6264470D02*
X793962Y6299111D01*
X803962Y6281790D02*
X864584Y6316790D01*
X864584Y6316790D02*
X852590Y6317564D01*
X852590Y6317564D02*
X843483Y6320004D01*
X843483Y6320004D02*
X837263Y6324111D01*
X828962Y6238489D02*
X889584Y6273489D01*
X848962Y6203848D02*
X868603Y6249829D01*
X909584Y6238848D02*
X854943Y6253489D01*
X2455593Y3013446D02*
X2459040Y3009999D01*
X2459040Y3009999D02*
X2462487Y2999658D01*
X2462487Y2999658D02*
X2462487Y2992763D01*
X2462487Y2992763D02*
X2459040Y2982422D01*
X2459040Y2982422D02*
X2452145Y2975528D01*
X2452145Y2975528D02*
X2445251Y2972080D01*
X2445251Y2972080D02*
X2431463Y2968633D01*
X2431463Y2968633D02*
X2421121Y2968633D01*
X2421121Y2968633D02*
X2407333Y2972080D01*
X2407333Y2972080D02*
X2400438Y2975528D01*
X2400438Y2975528D02*
X2393544Y2982422D01*
X2393544Y2982422D02*
X2390097Y2992763D01*
X2390097Y2992763D02*
X2390097Y2999658D01*
X2390097Y2999658D02*
X2393544Y3009999D01*
X2393544Y3009999D02*
X2396991Y3013446D01*
X2396991Y3041023D02*
X2393544Y3044470D01*
X2393544Y3044470D02*
X2390097Y3051365D01*
X2390097Y3051365D02*
X2390097Y3068600D01*
X2390097Y3068600D02*
X2393544Y3075495D01*
X2393544Y3075495D02*
X2396991Y3078942D01*
X2396991Y3078942D02*
X2403885Y3082389D01*
X2403885Y3082389D02*
X2410780Y3082389D01*
X2410780Y3082389D02*
X2421121Y3078942D01*
X2421121Y3078942D02*
X2462487Y3037576D01*
X2462487Y3037576D02*
X2462487Y3082389D01*
X2346627Y6017567D02*
X2306093Y6014026D01*
X2326627Y5982926D02*
X2266005Y6017926D01*
X2266005Y6017926D02*
X2279338Y6041020D01*
X2279338Y6041020D02*
X2285559Y6045127D01*
X2285559Y6045127D02*
X2290112Y6046347D01*
X2290112Y6046347D02*
X2297552Y6045900D01*
X2297552Y6045900D02*
X2306212Y6040900D01*
X2306212Y6040900D02*
X2310319Y6034680D01*
X2310319Y6034680D02*
X2311539Y6030127D01*
X2311539Y6030127D02*
X2311093Y6022686D01*
X2311093Y6022686D02*
X2297759Y5999592D01*
X2379960Y6075302D02*
X2359960Y6040661D01*
X2369960Y6057981D02*
X2309338Y6092981D01*
X2309338Y6092981D02*
X2314665Y6082208D01*
X2314665Y6082208D02*
X2317106Y6073101D01*
X2317106Y6073101D02*
X2316659Y6065661D01*
X2341005Y6147830D02*
X2344339Y6153603D01*
X2344339Y6153603D02*
X2350559Y6157710D01*
X2350559Y6157710D02*
X2355112Y6158930D01*
X2355112Y6158930D02*
X2362552Y6158483D01*
X2362552Y6158483D02*
X2375766Y6154703D01*
X2375766Y6154703D02*
X2390200Y6146370D01*
X2390200Y6146370D02*
X2400080Y6136817D01*
X2400080Y6136817D02*
X2404187Y6130597D01*
X2404187Y6130597D02*
X2405407Y6126043D01*
X2405407Y6126043D02*
X2404960Y6118603D01*
X2404960Y6118603D02*
X2401627Y6112830D01*
X2401627Y6112830D02*
X2395407Y6108723D01*
X2395407Y6108723D02*
X2390853Y6107503D01*
X2390853Y6107503D02*
X2383413Y6107949D01*
X2383413Y6107949D02*
X2370200Y6111729D01*
X2370200Y6111729D02*
X2355766Y6120062D01*
X2355766Y6120062D02*
X2345886Y6129616D01*
X2345886Y6129616D02*
X2341779Y6135836D01*
X2341779Y6135836D02*
X2340559Y6140389D01*
X2340559Y6140389D02*
X2341005Y6147830D01*
X2364339Y6188244D02*
X2386005Y6225772D01*
X2386005Y6225772D02*
X2397433Y6192231D01*
X2397433Y6192231D02*
X2402433Y6200892D01*
X2402433Y6200892D02*
X2408653Y6204998D01*
X2408653Y6204998D02*
X2413206Y6206218D01*
X2413206Y6206218D02*
X2420646Y6205772D01*
X2420646Y6205772D02*
X2435080Y6197439D01*
X2435080Y6197439D02*
X2439187Y6191218D01*
X2439187Y6191218D02*
X2440407Y6186665D01*
X2440407Y6186665D02*
X2439960Y6179225D01*
X2439960Y6179225D02*
X2429960Y6161904D01*
X2429960Y6161904D02*
X2423740Y6157798D01*
X2423740Y6157798D02*
X2419187Y6156577D01*
X2111098Y6200443D02*
X2091098Y6165802D01*
X2101098Y6183122D02*
X2040476Y6218122D01*
X2040476Y6218122D02*
X2045803Y6207349D01*
X2045803Y6207349D02*
X2048243Y6198242D01*
X2048243Y6198242D02*
X2047797Y6190802D01*
X2126098Y6226424D02*
X2065476Y6261424D01*
X2146098Y6261065D02*
X2096457Y6255084D01*
X2085476Y6296065D02*
X2100118Y6241424D01*
D19*
X477115Y1280508D02*
X477115Y1243061D01*
X477115Y1261784D02*
X411583Y1261784D01*
X411583Y1261784D02*
X420945Y1255543D01*
X420945Y1255543D02*
X427186Y1249302D01*
X427186Y1249302D02*
X430307Y1243061D01*
D10*
X246381Y2978751D02*
X238762Y2982561D01*
X238762Y2982561D02*
X231143Y2990180D01*
X231143Y2990180D02*
X219714Y3001609D01*
X219714Y3001609D02*
X212095Y3005418D01*
X212095Y3005418D02*
X204476Y3005418D01*
X208286Y2986370D02*
X200667Y2990180D01*
X200667Y2990180D02*
X193048Y2997799D01*
X193048Y2997799D02*
X189238Y3013037D01*
X189238Y3013037D02*
X189238Y3039704D01*
X189238Y3039704D02*
X193048Y3054942D01*
X193048Y3054942D02*
X200667Y3062561D01*
X200667Y3062561D02*
X208286Y3066370D01*
X208286Y3066370D02*
X223524Y3066370D01*
X223524Y3066370D02*
X231143Y3062561D01*
X231143Y3062561D02*
X238762Y3054942D01*
X238762Y3054942D02*
X242571Y3039704D01*
X242571Y3039704D02*
X242571Y3013037D01*
X242571Y3013037D02*
X238762Y2997799D01*
X238762Y2997799D02*
X231143Y2990180D01*
X231143Y2990180D02*
X223524Y2986370D01*
X223524Y2986370D02*
X208286Y2986370D01*
X273048Y3058751D02*
X276857Y3062561D01*
X276857Y3062561D02*
X284476Y3066370D01*
X284476Y3066370D02*
X303524Y3066370D01*
X303524Y3066370D02*
X311143Y3062561D01*
X311143Y3062561D02*
X314952Y3058751D01*
X314952Y3058751D02*
X318762Y3051132D01*
X318762Y3051132D02*
X318762Y3043513D01*
X318762Y3043513D02*
X314952Y3032085D01*
X314952Y3032085D02*
X269238Y2986370D01*
X269238Y2986370D02*
X318762Y2986370D01*
D20*
X110028Y2899607D02*
X107171Y2896750D01*
X107171Y2896750D02*
X98600Y2893893D01*
X98600Y2893893D02*
X92886Y2893893D01*
X92886Y2893893D02*
X84314Y2896750D01*
X84314Y2896750D02*
X78600Y2902464D01*
X78600Y2902464D02*
X75743Y2908179D01*
X75743Y2908179D02*
X72886Y2919607D01*
X72886Y2919607D02*
X72886Y2928179D01*
X72886Y2928179D02*
X75743Y2939607D01*
X75743Y2939607D02*
X78600Y2945321D01*
X78600Y2945321D02*
X84314Y2951036D01*
X84314Y2951036D02*
X92886Y2953893D01*
X92886Y2953893D02*
X98600Y2953893D01*
X98600Y2953893D02*
X107171Y2951036D01*
X107171Y2951036D02*
X110028Y2948179D01*
X152886Y2953893D02*
X152886Y2911036D01*
X152886Y2911036D02*
X150029Y2902464D01*
X150029Y2902464D02*
X144314Y2896750D01*
X144314Y2896750D02*
X135743Y2893893D01*
X135743Y2893893D02*
X130028Y2893893D01*
X178600Y2948179D02*
X181457Y2951036D01*
X181457Y2951036D02*
X187171Y2953893D01*
X187171Y2953893D02*
X201457Y2953893D01*
X201457Y2953893D02*
X207171Y2951036D01*
X207171Y2951036D02*
X210028Y2948179D01*
X210028Y2948179D02*
X212886Y2942464D01*
X212886Y2942464D02*
X212886Y2936750D01*
X212886Y2936750D02*
X210028Y2928179D01*
X210028Y2928179D02*
X175743Y2893893D01*
X175743Y2893893D02*
X212886Y2893893D01*
X232886Y2953893D02*
X270029Y2953893D01*
X270029Y2953893D02*
X250028Y2931036D01*
X250028Y2931036D02*
X258600Y2931036D01*
X258600Y2931036D02*
X264314Y2928179D01*
X264314Y2928179D02*
X267171Y2925321D01*
X267171Y2925321D02*
X270029Y2919607D01*
X270029Y2919607D02*
X270029Y2905321D01*
X270029Y2905321D02*
X267171Y2899607D01*
X267171Y2899607D02*
X264314Y2896750D01*
X264314Y2896750D02*
X258600Y2893893D01*
X258600Y2893893D02*
X241457Y2893893D01*
X241457Y2893893D02*
X235743Y2896750D01*
X235743Y2896750D02*
X232886Y2899607D01*
X327171Y2893893D02*
X292886Y2893893D01*
X310029Y2893893D02*
X310029Y2953893D01*
X310029Y2953893D02*
X304314Y2945321D01*
X304314Y2945321D02*
X298600Y2939607D01*
X298600Y2939607D02*
X292886Y2936750D01*
X364314Y2953893D02*
X370029Y2953893D01*
X370029Y2953893D02*
X375743Y2951036D01*
X375743Y2951036D02*
X378600Y2948179D01*
X378600Y2948179D02*
X381457Y2942464D01*
X381457Y2942464D02*
X384314Y2931036D01*
X384314Y2931036D02*
X384314Y2916750D01*
X384314Y2916750D02*
X381457Y2905321D01*
X381457Y2905321D02*
X378600Y2899607D01*
X378600Y2899607D02*
X375743Y2896750D01*
X375743Y2896750D02*
X370029Y2893893D01*
X370029Y2893893D02*
X364314Y2893893D01*
X364314Y2893893D02*
X358600Y2896750D01*
X358600Y2896750D02*
X355743Y2899607D01*
X355743Y2899607D02*
X352886Y2905321D01*
X352886Y2905321D02*
X350029Y2916750D01*
X350029Y2916750D02*
X350029Y2931036D01*
X350029Y2931036D02*
X352886Y2942464D01*
X352886Y2942464D02*
X355743Y2948179D01*
X355743Y2948179D02*
X358600Y2951036D01*
X358600Y2951036D02*
X364314Y2953893D01*
D16*
X572864Y3773043D02*
X548734Y3807515D01*
X531498Y3773043D02*
X531498Y3845433D01*
X531498Y3845433D02*
X559075Y3845433D01*
X559075Y3845433D02*
X565970Y3841986D01*
X565970Y3841986D02*
X569417Y3838539D01*
X569417Y3838539D02*
X572864Y3831645D01*
X572864Y3831645D02*
X572864Y3821303D01*
X572864Y3821303D02*
X569417Y3814409D01*
X569417Y3814409D02*
X565970Y3810962D01*
X565970Y3810962D02*
X559075Y3807515D01*
X559075Y3807515D02*
X531498Y3807515D01*
X596994Y3845433D02*
X641807Y3845433D01*
X641807Y3845433D02*
X617677Y3817856D01*
X617677Y3817856D02*
X628018Y3817856D01*
X628018Y3817856D02*
X634912Y3814409D01*
X634912Y3814409D02*
X638360Y3810962D01*
X638360Y3810962D02*
X641807Y3804067D01*
X641807Y3804067D02*
X641807Y3786832D01*
X641807Y3786832D02*
X638360Y3779937D01*
X638360Y3779937D02*
X634912Y3776490D01*
X634912Y3776490D02*
X628018Y3773043D01*
X628018Y3773043D02*
X607335Y3773043D01*
X607335Y3773043D02*
X600441Y3776490D01*
X600441Y3776490D02*
X596994Y3779937D01*
X749281Y3873127D02*
X714995Y3873127D01*
X732138Y3873127D02*
X732138Y3933127D01*
X732138Y3933127D02*
X726424Y3924555D01*
X726424Y3924555D02*
X720709Y3918841D01*
X720709Y3918841D02*
X714995Y3915984D01*
X786424Y3933127D02*
X792138Y3933127D01*
X792138Y3933127D02*
X797852Y3930270D01*
X797852Y3930270D02*
X800709Y3927413D01*
X800709Y3927413D02*
X803567Y3921698D01*
X803567Y3921698D02*
X806424Y3910270D01*
X806424Y3910270D02*
X806424Y3895984D01*
X806424Y3895984D02*
X803567Y3884555D01*
X803567Y3884555D02*
X800709Y3878841D01*
X800709Y3878841D02*
X797852Y3875984D01*
X797852Y3875984D02*
X792138Y3873127D01*
X792138Y3873127D02*
X786424Y3873127D01*
X786424Y3873127D02*
X780709Y3875984D01*
X780709Y3875984D02*
X777852Y3878841D01*
X777852Y3878841D02*
X774995Y3884555D01*
X774995Y3884555D02*
X772138Y3895984D01*
X772138Y3895984D02*
X772138Y3910270D01*
X772138Y3910270D02*
X774995Y3921698D01*
X774995Y3921698D02*
X777852Y3927413D01*
X777852Y3927413D02*
X780709Y3930270D01*
X780709Y3930270D02*
X786424Y3933127D01*
X843567Y3933127D02*
X849281Y3933127D01*
X849281Y3933127D02*
X854995Y3930270D01*
X854995Y3930270D02*
X857852Y3927413D01*
X857852Y3927413D02*
X860709Y3921698D01*
X860709Y3921698D02*
X863567Y3910270D01*
X863567Y3910270D02*
X863567Y3895984D01*
X863567Y3895984D02*
X860709Y3884555D01*
X860709Y3884555D02*
X857852Y3878841D01*
X857852Y3878841D02*
X854995Y3875984D01*
X854995Y3875984D02*
X849281Y3873127D01*
X849281Y3873127D02*
X843567Y3873127D01*
X843567Y3873127D02*
X837852Y3875984D01*
X837852Y3875984D02*
X834995Y3878841D01*
X834995Y3878841D02*
X832138Y3884555D01*
X832138Y3884555D02*
X829281Y3895984D01*
X829281Y3895984D02*
X829281Y3910270D01*
X829281Y3910270D02*
X832138Y3921698D01*
X832138Y3921698D02*
X834995Y3927413D01*
X834995Y3927413D02*
X837852Y3930270D01*
X837852Y3930270D02*
X843567Y3933127D01*
X923567Y3873127D02*
X903567Y3901698D01*
X889281Y3873127D02*
X889281Y3933127D01*
X889281Y3933127D02*
X912138Y3933127D01*
X912138Y3933127D02*
X917852Y3930270D01*
X917852Y3930270D02*
X920709Y3927413D01*
X920709Y3927413D02*
X923567Y3921698D01*
X923567Y3921698D02*
X923567Y3913127D01*
X923567Y3913127D02*
X920709Y3907413D01*
X920709Y3907413D02*
X917852Y3904555D01*
X917852Y3904555D02*
X912138Y3901698D01*
X912138Y3901698D02*
X889281Y3901698D01*
D10*
X1316735Y5191565D02*
X1311973Y5186803D01*
X1311973Y5186803D02*
X1297687Y5182041D01*
X1297687Y5182041D02*
X1288163Y5182041D01*
X1288163Y5182041D02*
X1273877Y5186803D01*
X1273877Y5186803D02*
X1264354Y5196326D01*
X1264354Y5196326D02*
X1259592Y5205850D01*
X1259592Y5205850D02*
X1254830Y5224898D01*
X1254830Y5224898D02*
X1254830Y5239184D01*
X1254830Y5239184D02*
X1259592Y5258231D01*
X1259592Y5258231D02*
X1264354Y5267755D01*
X1264354Y5267755D02*
X1273877Y5277279D01*
X1273877Y5277279D02*
X1288163Y5282041D01*
X1288163Y5282041D02*
X1297687Y5282041D01*
X1297687Y5282041D02*
X1311973Y5277279D01*
X1311973Y5277279D02*
X1316735Y5272517D01*
X1359592Y5182041D02*
X1359592Y5282041D01*
X1359592Y5282041D02*
X1416734Y5182041D01*
X1416734Y5182041D02*
X1416734Y5282041D01*
X1516734Y5182041D02*
X1459592Y5182041D01*
X1488163Y5182041D02*
X1488163Y5282041D01*
X1488163Y5282041D02*
X1478639Y5267755D01*
X1478639Y5267755D02*
X1469115Y5258231D01*
X1469115Y5258231D02*
X1459592Y5253469D01*
X1578639Y5282041D02*
X1588163Y5282041D01*
X1588163Y5282041D02*
X1597687Y5277279D01*
X1597687Y5277279D02*
X1602449Y5272517D01*
X1602449Y5272517D02*
X1607211Y5262993D01*
X1607211Y5262993D02*
X1611973Y5243945D01*
X1611973Y5243945D02*
X1611973Y5220136D01*
X1611973Y5220136D02*
X1607211Y5201088D01*
X1607211Y5201088D02*
X1602449Y5191565D01*
X1602449Y5191565D02*
X1597687Y5186803D01*
X1597687Y5186803D02*
X1588163Y5182041D01*
X1588163Y5182041D02*
X1578639Y5182041D01*
X1578639Y5182041D02*
X1569115Y5186803D01*
X1569115Y5186803D02*
X1564354Y5191565D01*
X1564354Y5191565D02*
X1559592Y5201088D01*
X1559592Y5201088D02*
X1554830Y5220136D01*
X1554830Y5220136D02*
X1554830Y5243945D01*
X1554830Y5243945D02*
X1559592Y5262993D01*
X1559592Y5262993D02*
X1564354Y5272517D01*
X1564354Y5272517D02*
X1569115Y5277279D01*
X1569115Y5277279D02*
X1578639Y5282041D01*
X1673877Y5282041D02*
X1683401Y5282041D01*
X1683401Y5282041D02*
X1692925Y5277279D01*
X1692925Y5277279D02*
X1697687Y5272517D01*
X1697687Y5272517D02*
X1702449Y5262993D01*
X1702449Y5262993D02*
X1707211Y5243945D01*
X1707211Y5243945D02*
X1707211Y5220136D01*
X1707211Y5220136D02*
X1702449Y5201088D01*
X1702449Y5201088D02*
X1697687Y5191565D01*
X1697687Y5191565D02*
X1692925Y5186803D01*
X1692925Y5186803D02*
X1683401Y5182041D01*
X1683401Y5182041D02*
X1673877Y5182041D01*
X1673877Y5182041D02*
X1664354Y5186803D01*
X1664354Y5186803D02*
X1659592Y5191565D01*
X1659592Y5191565D02*
X1654830Y5201088D01*
X1654830Y5201088D02*
X1650068Y5220136D01*
X1650068Y5220136D02*
X1650068Y5243945D01*
X1650068Y5243945D02*
X1654830Y5262993D01*
X1654830Y5262993D02*
X1659592Y5272517D01*
X1659592Y5272517D02*
X1664354Y5277279D01*
X1664354Y5277279D02*
X1673877Y5282041D01*
X1446219Y4323318D02*
X1446219Y4423318D01*
X1493838Y4323318D02*
X1493838Y4423318D01*
X1493838Y4423318D02*
X1550981Y4323318D01*
X1550981Y4323318D02*
X1550981Y4423318D01*
D19*
X1173919Y5225513D02*
X1139633Y5225513D01*
X1156776Y5225513D02*
X1156776Y5285513D01*
X1156776Y5285513D02*
X1151062Y5276942D01*
X1151062Y5276942D02*
X1145348Y5271228D01*
X1145348Y5271228D02*
X1139633Y5268371D01*
D16*
X1417141Y7584834D02*
X1393808Y7618168D01*
X1377141Y7584834D02*
X1377141Y7654834D01*
X1377141Y7654834D02*
X1403808Y7654834D01*
X1403808Y7654834D02*
X1410475Y7651501D01*
X1410475Y7651501D02*
X1413808Y7648168D01*
X1413808Y7648168D02*
X1417141Y7641501D01*
X1417141Y7641501D02*
X1417141Y7631501D01*
X1417141Y7631501D02*
X1413808Y7624834D01*
X1413808Y7624834D02*
X1410475Y7621501D01*
X1410475Y7621501D02*
X1403808Y7618168D01*
X1403808Y7618168D02*
X1377141Y7618168D01*
X1483808Y7584834D02*
X1443808Y7584834D01*
X1463808Y7584834D02*
X1463808Y7654834D01*
X1463808Y7654834D02*
X1457141Y7644834D01*
X1457141Y7644834D02*
X1450475Y7638168D01*
X1450475Y7638168D02*
X1443808Y7634834D01*
X1550475Y7584834D02*
X1510475Y7584834D01*
X1530475Y7584834D02*
X1530475Y7654834D01*
X1530475Y7654834D02*
X1523808Y7644834D01*
X1523808Y7644834D02*
X1517141Y7638168D01*
X1517141Y7638168D02*
X1510475Y7634834D01*
X1617141Y7584834D02*
X1577141Y7584834D01*
X1597141Y7584834D02*
X1597141Y7654834D01*
X1597141Y7654834D02*
X1590475Y7644834D01*
X1590475Y7644834D02*
X1583808Y7638168D01*
X1583808Y7638168D02*
X1577141Y7634834D01*
X1483628Y7298991D02*
X1443628Y7298991D01*
X1463628Y7298991D02*
X1463628Y7368991D01*
X1463628Y7368991D02*
X1456961Y7358991D01*
X1456961Y7358991D02*
X1450295Y7352324D01*
X1450295Y7352324D02*
X1443628Y7348991D01*
X1513628Y7298991D02*
X1513628Y7368991D01*
X1553628Y7298991D02*
X1523628Y7338991D01*
X1553628Y7368991D02*
X1513628Y7328991D01*
X924009Y7403583D02*
X887135Y7420784D01*
X889368Y7383583D02*
X854368Y7444205D01*
X854368Y7444205D02*
X877462Y7457539D01*
X877462Y7457539D02*
X884902Y7457985D01*
X884902Y7457985D02*
X889456Y7456765D01*
X889456Y7456765D02*
X895676Y7452658D01*
X895676Y7452658D02*
X900676Y7443998D01*
X900676Y7443998D02*
X901122Y7436558D01*
X901122Y7436558D02*
X899902Y7432004D01*
X899902Y7432004D02*
X895796Y7425784D01*
X895796Y7425784D02*
X872702Y7412451D01*
X981744Y7436917D02*
X947103Y7416917D01*
X964424Y7426917D02*
X929424Y7487539D01*
X929424Y7487539D02*
X928650Y7475545D01*
X928650Y7475545D02*
X926210Y7466438D01*
X926210Y7466438D02*
X922103Y7460218D01*
X1039479Y7470250D02*
X1004838Y7450250D01*
X1022159Y7460250D02*
X987159Y7520872D01*
X987159Y7520872D02*
X986385Y7508878D01*
X986385Y7508878D02*
X983945Y7499771D01*
X983945Y7499771D02*
X979838Y7493551D01*
X1042007Y7552539D02*
X1047781Y7555872D01*
X1047781Y7555872D02*
X1055221Y7556318D01*
X1055221Y7556318D02*
X1059774Y7555098D01*
X1059774Y7555098D02*
X1065994Y7550992D01*
X1065994Y7550992D02*
X1075548Y7541111D01*
X1075548Y7541111D02*
X1083881Y7526677D01*
X1083881Y7526677D02*
X1087661Y7513464D01*
X1087661Y7513464D02*
X1088108Y7506024D01*
X1088108Y7506024D02*
X1086888Y7501470D01*
X1086888Y7501470D02*
X1082781Y7495250D01*
X1082781Y7495250D02*
X1077007Y7491917D01*
X1077007Y7491917D02*
X1069567Y7491470D01*
X1069567Y7491470D02*
X1065014Y7492690D01*
X1065014Y7492690D02*
X1058794Y7496797D01*
X1058794Y7496797D02*
X1049240Y7506677D01*
X1049240Y7506677D02*
X1040907Y7521111D01*
X1040907Y7521111D02*
X1037127Y7534325D01*
X1037127Y7534325D02*
X1036680Y7541765D01*
X1036680Y7541765D02*
X1037900Y7546318D01*
X1037900Y7546318D02*
X1042007Y7552539D01*
X1140630Y7175973D02*
X1105989Y7155973D01*
X1123309Y7165973D02*
X1088309Y7226595D01*
X1088309Y7226595D02*
X1087536Y7214602D01*
X1087536Y7214602D02*
X1085096Y7205495D01*
X1085096Y7205495D02*
X1080989Y7199275D01*
X1166610Y7190973D02*
X1131610Y7251595D01*
X1201252Y7210973D02*
X1155271Y7230614D01*
X1166252Y7271595D02*
X1151610Y7216954D01*
D11*
%TO.C,R7*%
X1655960Y1596390D02*
X1696720Y1596390D01*
X1656080Y1596390D02*
X1655960Y1450340D01*
X1696720Y1596390D02*
X1696720Y1450340D01*
X1696720Y1450340D02*
X1655960Y1450340D01*
%TO.C,C1*%
X2141650Y1266190D02*
X2182410Y1266190D01*
X2141770Y1266190D02*
X2141650Y1120140D01*
X2182410Y1266190D02*
X2182410Y1120140D01*
X2182410Y1120140D02*
X2141650Y1120140D01*
D21*
%TO.C,+9V0*%
X476320Y639360D02*
X438220Y639360D01*
D11*
%TO.C,R100*%
X1547236Y5859941D02*
X1547236Y5819181D01*
X1547236Y5859821D02*
X1401186Y5859941D01*
X1547236Y5819181D02*
X1401186Y5819181D01*
X1401186Y5819181D02*
X1401186Y5859941D01*
%TO.C,R108*%
X652769Y7063182D02*
X673149Y7098481D01*
X652829Y7063286D02*
X779252Y6990157D01*
X673149Y7098481D02*
X799632Y7025456D01*
X799632Y7025456D02*
X779252Y6990157D01*
D16*
%TO.C,Q1*%
X520700Y3517900D02*
X520700Y3365500D01*
X876300Y3556000D02*
G75*
G03*
X697824Y3692319I-228600J-114299D01*
G01*
X699157Y3190300D02*
G75*
G03*
X878602Y3329743I-51457J251400D01*
G01*
D11*
%TO.C,R102*%
X1027187Y5781777D02*
X991888Y5802157D01*
X1027083Y5781837D02*
X1100212Y5908260D01*
X991888Y5802157D02*
X1064913Y5928640D01*
X1064913Y5928640D02*
X1100212Y5908260D01*
%TO.C,R105*%
X2253291Y6578997D02*
X2253291Y6619757D01*
X2253291Y6579117D02*
X2399341Y6578997D01*
X2253291Y6619757D02*
X2399341Y6619757D01*
X2399341Y6619757D02*
X2399341Y6578997D01*
%TO.C,R101*%
X1859295Y5909535D02*
X1894594Y5929915D01*
X1859399Y5909595D02*
X1932320Y5783052D01*
X1894594Y5929915D02*
X1967619Y5803432D01*
X1967619Y5803432D02*
X1932320Y5783052D01*
D22*
%TO.C,D1*%
X2063014Y2008713D02*
X1938014Y1938713D01*
X1938014Y1938713D02*
X1938014Y2078713D01*
X1938014Y2078713D02*
X2063014Y2008713D01*
G36*
X2083014Y1903713D02*
G01*
X2053014Y1903713D01*
X2053014Y2113714D01*
X2083014Y2113714D01*
X2083014Y1903713D01*
G37*
D21*
%TO.C,HP2*%
X469900Y2552700D02*
X431800Y2552700D01*
D23*
%TO.C,JP2*%
X2098590Y1833160D02*
X2098590Y1680760D01*
X2073190Y1655360D02*
X1793790Y1655360D01*
X1793790Y1858560D02*
X2073190Y1858560D01*
X1768390Y1833160D02*
X1768390Y1680760D01*
X2073190Y1655360D02*
G75*
G03*
X2098590Y1680760I0J25400D01*
G01*
X2098590Y1833160D02*
G75*
G03*
X2073190Y1858560I-25400J0D01*
G01*
X1768390Y1680760D02*
G75*
G03*
X1793790Y1655360I25400J0D01*
G01*
X1793790Y1858560D02*
G75*
G03*
X1768390Y1833160I0J-25400D01*
G01*
D21*
%TO.C,S-0*%
X469900Y901700D02*
X431800Y901700D01*
D11*
%TO.C,IC1*%
X1899920Y3182620D02*
X1554480Y3182620D01*
X1899920Y3182620D02*
X1899920Y2557780D01*
X1554480Y2557780D02*
X1554480Y3182620D01*
X1554480Y2557780D02*
X1899920Y2557780D01*
%TO.C,R1*%
X1696840Y1121410D02*
X1656080Y1121410D01*
X1696720Y1121410D02*
X1696840Y1267460D01*
X1656080Y1121410D02*
X1656080Y1267460D01*
X1656080Y1267460D02*
X1696840Y1267460D01*
D21*
%TO.C,S+0*%
X469900Y1854200D02*
X431800Y1854200D01*
D11*
%TO.C,R106*%
X533290Y6594248D02*
X533290Y6635008D01*
X533290Y6594368D02*
X679340Y6594248D01*
X533290Y6635008D02*
X679340Y6635008D01*
X679340Y6635008D02*
X679340Y6594248D01*
D23*
%TO.C,JP1*%
X1028700Y423460D02*
X876300Y423460D01*
X850900Y448860D02*
X850900Y728260D01*
X1054100Y728260D02*
X1054100Y448860D01*
X1028700Y753660D02*
X876300Y753660D01*
X850900Y448860D02*
G75*
G03*
X876300Y423460I25400J0D01*
G01*
X1028700Y423460D02*
G75*
G03*
X1054100Y448860I0J25400D01*
G01*
X876300Y753660D02*
G75*
G03*
X850900Y728260I0J-25400D01*
G01*
X1054100Y728260D02*
G75*
G03*
X1028700Y753660I-25400J0D01*
G01*
D11*
%TO.C,R2*%
X937200Y2449813D02*
X835600Y2450207D01*
X937200Y2449813D02*
X937200Y2409173D01*
X937200Y2409173D02*
X835600Y2409173D01*
X835600Y2409173D02*
X835600Y2450207D01*
%TO.C,ARD1*%
X2743200Y838200D02*
X2743200Y965200D01*
X2743200Y965200D02*
X2679700Y1028700D01*
X2743200Y1092200D02*
X2743200Y1219200D01*
X2743200Y1219200D02*
X2679700Y1282700D01*
X2743200Y1346200D02*
X2743200Y1473200D01*
X2743200Y1473200D02*
X2679700Y1536700D01*
X2743200Y1600200D02*
X2743200Y1727200D01*
X2743200Y1727200D02*
X2679700Y1790700D01*
X2743200Y1854200D02*
X2743200Y1981200D01*
X2743200Y1981200D02*
X2679700Y2044700D01*
X2743200Y2108200D02*
X2743200Y2235200D01*
X2743200Y2235200D02*
X2679700Y2298700D01*
X2743200Y2362200D02*
X2743200Y2489200D01*
X2743200Y2489200D02*
X2679700Y2552700D01*
X2743200Y2616200D02*
X2743200Y2743200D01*
X2743200Y2743200D02*
X2679700Y2806700D01*
X2743200Y2870200D02*
X2743200Y2997200D01*
X2743200Y2997200D02*
X2679700Y3060700D01*
X2743200Y3124200D02*
X2743200Y3251200D01*
X2743200Y3251200D02*
X2679700Y3314700D01*
X2743200Y3378200D02*
X2743200Y3505200D01*
X2743200Y3505200D02*
X2679700Y3568700D01*
X2743200Y3632200D02*
X2743200Y3759200D01*
X2743200Y3759200D02*
X2679700Y3822700D01*
X2679700Y774700D02*
X2743200Y838200D01*
X2679700Y1028700D02*
X2743200Y1092200D01*
X2679700Y1282700D02*
X2743200Y1346200D01*
X2679700Y1536700D02*
X2743200Y1600200D01*
X2679700Y1790700D02*
X2743200Y1854200D01*
X2679700Y2044700D02*
X2743200Y2108200D01*
X2679700Y2298700D02*
X2743200Y2362200D01*
X2679700Y2552700D02*
X2743200Y2616200D01*
X2679700Y2806700D02*
X2743200Y2870200D01*
X2679700Y3060700D02*
X2743200Y3124200D01*
X2679700Y3314700D02*
X2743200Y3378200D01*
X2679700Y3568700D02*
X2743200Y3632200D01*
X2679700Y3822700D02*
X2552700Y3822700D01*
X2616200Y584200D02*
X2552700Y520700D01*
X2616200Y711200D02*
X2616200Y584200D01*
X2552700Y520700D02*
X2425700Y520700D01*
X2552700Y774700D02*
X2679700Y774700D01*
X2552700Y774700D02*
X2616200Y711200D01*
X2552700Y1028700D02*
X2489200Y965200D01*
X2552700Y1282700D02*
X2489200Y1219200D01*
X2552700Y1536700D02*
X2489200Y1473200D01*
X2552700Y1790700D02*
X2489200Y1727200D01*
X2552700Y2044700D02*
X2489200Y1981200D01*
X2552700Y2298700D02*
X2489200Y2235200D01*
X2552700Y2552700D02*
X2489200Y2489200D01*
X2552700Y2806700D02*
X2489200Y2743200D01*
X2552700Y3060700D02*
X2489200Y2997200D01*
X2552700Y3314700D02*
X2489200Y3251200D01*
X2552700Y3568700D02*
X2489200Y3505200D01*
X2552700Y3822700D02*
X2489200Y3759200D01*
X2489200Y838200D02*
X2552700Y774700D01*
X2489200Y965200D02*
X2489200Y838200D01*
X2489200Y1092200D02*
X2552700Y1028700D01*
X2489200Y1219200D02*
X2489200Y1092200D01*
X2489200Y1346200D02*
X2552700Y1282700D01*
X2489200Y1473200D02*
X2489200Y1346200D01*
X2489200Y1600200D02*
X2552700Y1536700D01*
X2489200Y1727200D02*
X2489200Y1600200D01*
X2489200Y1854200D02*
X2552700Y1790700D01*
X2489200Y1981200D02*
X2489200Y1854200D01*
X2489200Y2108200D02*
X2552700Y2044700D01*
X2489200Y2235200D02*
X2489200Y2108200D01*
X2489200Y2362200D02*
X2552700Y2298700D01*
X2489200Y2489200D02*
X2489200Y2362200D01*
X2489200Y2616200D02*
X2552700Y2552700D01*
X2489200Y2743200D02*
X2489200Y2616200D01*
X2489200Y2870200D02*
X2552700Y2806700D01*
X2489200Y2997200D02*
X2489200Y2870200D01*
X2489200Y3124200D02*
X2552700Y3060700D01*
X2489200Y3251200D02*
X2489200Y3124200D01*
X2489200Y3378200D02*
X2552700Y3314700D01*
X2489200Y3505200D02*
X2489200Y3378200D01*
X2489200Y3632200D02*
X2552700Y3568700D01*
X2489200Y3759200D02*
X2489200Y3632200D01*
X2425700Y520700D02*
X2362200Y584200D01*
X2425700Y774700D02*
X2552700Y774700D01*
X2362200Y584200D02*
X2298700Y520700D01*
X2362200Y711200D02*
X2425700Y774700D01*
X2298700Y520700D02*
X2171700Y520700D01*
X2298700Y774700D02*
X2362200Y711200D01*
X2171700Y520700D02*
X2108200Y584200D01*
X2171700Y774700D02*
X2298700Y774700D01*
X2108200Y584200D02*
X2044700Y520700D01*
X2108200Y711200D02*
X2171700Y774700D01*
X2044700Y520700D02*
X1917700Y520700D01*
X2044700Y774700D02*
X2108200Y711200D01*
X1981200Y3632200D02*
X1917700Y3568700D01*
X1981200Y3759200D02*
X1981200Y3632200D01*
X1917700Y520700D02*
X1854200Y584200D01*
X1917700Y774700D02*
X2044700Y774700D01*
X1917700Y3568700D02*
X1790700Y3568700D01*
X1917700Y3822700D02*
X1981200Y3759200D01*
X1854200Y584200D02*
X1790700Y520700D01*
X1854200Y711200D02*
X1917700Y774700D01*
X1790700Y520700D02*
X1663700Y520700D01*
X1790700Y774700D02*
X1854200Y711200D01*
X1790700Y3568700D02*
X1727200Y3632200D01*
X1790700Y3822700D02*
X1917700Y3822700D01*
X1727200Y3759200D02*
X1790700Y3822700D01*
X1663700Y520700D02*
X1600200Y584200D01*
X1663700Y774700D02*
X1790700Y774700D01*
X1663700Y3568700D02*
X1727200Y3632200D01*
X1663700Y3822700D02*
X1727200Y3759200D01*
X1600200Y584200D02*
X1536700Y520700D01*
X1600200Y711200D02*
X1663700Y774700D01*
X1536700Y520700D02*
X1409700Y520700D01*
X1536700Y774700D02*
X1600200Y711200D01*
X1536700Y3568700D02*
X1663700Y3568700D01*
X1536700Y3822700D02*
X1663700Y3822700D01*
X1473200Y1727200D02*
X1473200Y1854200D01*
X1473200Y1854200D02*
X1409700Y1917700D01*
X1473200Y1981200D02*
X1473200Y2108200D01*
X1473200Y2108200D02*
X1409700Y2171700D01*
X1473200Y3632200D02*
X1536700Y3568700D01*
X1473200Y3759200D02*
X1536700Y3822700D01*
X1409700Y520700D02*
X1346200Y584200D01*
X1409700Y774700D02*
X1536700Y774700D01*
X1409700Y1663700D02*
X1473200Y1727200D01*
X1409700Y1663700D02*
X1282700Y1663700D01*
X1409700Y1917700D02*
X1473200Y1981200D01*
X1409700Y2171700D02*
X1282700Y2171700D01*
X1409700Y3568700D02*
X1473200Y3632200D01*
X1409700Y3822700D02*
X1473200Y3759200D01*
X1346200Y584200D02*
X1282700Y520700D01*
X1346200Y711200D02*
X1409700Y774700D01*
X1282700Y520700D02*
X1155700Y520700D01*
X1282700Y774700D02*
X1346200Y711200D01*
X1282700Y2171700D02*
X1219200Y2108200D01*
X1282700Y3568700D02*
X1409700Y3568700D01*
X1282700Y3568700D02*
X1219200Y3632200D01*
X1282700Y3822700D02*
X1409700Y3822700D01*
X1282700Y3822700D02*
X1219200Y3759200D01*
X1219200Y838200D02*
X1155700Y774700D01*
X1219200Y965200D02*
X1219200Y838200D01*
X1219200Y1092200D02*
X1155700Y1028700D01*
X1219200Y1219200D02*
X1219200Y1092200D01*
X1219200Y1346200D02*
X1155700Y1282700D01*
X1219200Y1473200D02*
X1219200Y1346200D01*
X1219200Y1600200D02*
X1155700Y1536700D01*
X1219200Y1727200D02*
X1282700Y1663700D01*
X1219200Y1727200D02*
X1219200Y1600200D01*
X1219200Y2235200D02*
X1219200Y2108200D01*
X1219200Y2362200D02*
X1155700Y2298700D01*
X1219200Y2489200D02*
X1219200Y2362200D01*
X1219200Y2616200D02*
X1155700Y2552700D01*
X1219200Y2743200D02*
X1219200Y2616200D01*
X1219200Y2870200D02*
X1155700Y2806700D01*
X1219200Y2997200D02*
X1219200Y2870200D01*
X1219200Y3124200D02*
X1155700Y3060700D01*
X1219200Y3251200D02*
X1219200Y3124200D01*
X1219200Y3378200D02*
X1155700Y3314700D01*
X1219200Y3505200D02*
X1219200Y3378200D01*
X1219200Y3632200D02*
X1155700Y3568700D01*
X1219200Y3759200D02*
X1155700Y3822700D01*
X1155700Y520700D02*
X1092200Y584200D01*
X1155700Y774700D02*
X1282700Y774700D01*
X1155700Y774700D02*
X1028700Y774700D01*
X1155700Y1028700D02*
X1219200Y965200D01*
X1155700Y1282700D02*
X1219200Y1219200D01*
X1155700Y1536700D02*
X1219200Y1473200D01*
X1155700Y2298700D02*
X1219200Y2235200D01*
X1155700Y2552700D02*
X1219200Y2489200D01*
X1155700Y2806700D02*
X1219200Y2743200D01*
X1155700Y3060700D02*
X1219200Y2997200D01*
X1155700Y3314700D02*
X1219200Y3251200D01*
X1155700Y3568700D02*
X1219200Y3505200D01*
X1092200Y584200D02*
X1092200Y711200D01*
X1092200Y711200D02*
X1155700Y774700D01*
X1028700Y774700D02*
X965200Y838200D01*
X1028700Y1028700D02*
X965200Y1092200D01*
X1028700Y1282700D02*
X965200Y1346200D01*
X1028700Y1536700D02*
X965200Y1600200D01*
X1028700Y1790700D02*
X965200Y1854200D01*
X1028700Y2044700D02*
X965200Y2108200D01*
X1028700Y2298700D02*
X965200Y2362200D01*
X1028700Y2552700D02*
X965200Y2616200D01*
X1028700Y2806700D02*
X965200Y2870200D01*
X1028700Y3060700D02*
X965200Y3124200D01*
X1028700Y3314700D02*
X965200Y3378200D01*
X1028700Y3568700D02*
X965200Y3632200D01*
X1028700Y3822700D02*
X1155700Y3822700D01*
X965200Y838200D02*
X965200Y965200D01*
X965200Y965200D02*
X1028700Y1028700D01*
X965200Y1092200D02*
X965200Y1219200D01*
X965200Y1219200D02*
X1028700Y1282700D01*
X965200Y1346200D02*
X965200Y1473200D01*
X965200Y1473200D02*
X1028700Y1536700D01*
X965200Y1600200D02*
X965200Y1727200D01*
X965200Y1727200D02*
X1028700Y1790700D01*
X965200Y1854200D02*
X965200Y1981200D01*
X965200Y1981200D02*
X1028700Y2044700D01*
X965200Y2108200D02*
X965200Y2235200D01*
X965200Y2235200D02*
X1028700Y2298700D01*
X965200Y2362200D02*
X965200Y2489200D01*
X965200Y2489200D02*
X1028700Y2552700D01*
X965200Y2616200D02*
X965200Y2743200D01*
X965200Y2743200D02*
X1028700Y2806700D01*
X965200Y2870200D02*
X965200Y2997200D01*
X965200Y2997200D02*
X1028700Y3060700D01*
X965200Y3124200D02*
X965200Y3251200D01*
X965200Y3251200D02*
X1028700Y3314700D01*
X965200Y3378200D02*
X965200Y3505200D01*
X965200Y3505200D02*
X1028700Y3568700D01*
X965200Y3632200D02*
X965200Y3759200D01*
X965200Y3759200D02*
X1028700Y3822700D01*
%TO.C,R109*%
X1917187Y7281776D02*
X1881888Y7302156D01*
X1917083Y7281836D02*
X1990212Y7408259D01*
X1881888Y7302156D02*
X1954913Y7428639D01*
X1954913Y7428639D02*
X1990212Y7408259D01*
D16*
%TO.C,J100*%
X965200Y7785100D02*
X1028700Y7607300D01*
X2260600Y7645400D02*
X2133600Y7493000D01*
X1943100Y7607300D02*
X2019300Y7785100D01*
X1028700Y7607300D02*
X825500Y7493000D01*
X2133600Y7493000D02*
X1943100Y7607300D01*
X825500Y7493000D02*
X711200Y7645400D01*
X2133600Y5715000D02*
X1930400Y5600700D01*
X2133600Y5715000D02*
X2247900Y5575300D01*
X825500Y5715000D02*
X1041400Y5588000D01*
X825500Y5715000D02*
X711200Y5549900D01*
X1930400Y5600700D02*
X2006600Y5410200D01*
X1041400Y5588000D02*
X965200Y5410200D01*
X2247900Y5575300D02*
X2133600Y5715000D01*
X2223948Y7596514D02*
G75*
G03*
X1993900Y7734300I-749196J-989923D01*
G01*
X978312Y7746049D02*
G75*
G03*
X736600Y7607300I494888J-1142049D01*
G01*
X1837874Y6438374D02*
G75*
G03*
X1642547Y6241039I-364674J165626D01*
G01*
X1988118Y5473691D02*
G75*
G03*
X2222500Y5613400I-514922J1130314D01*
G01*
X750351Y5589475D02*
G75*
G03*
X977900Y5461000I722845J1014518D01*
G01*
X2773200Y6604000D02*
G75*
G03*
X2773200Y6604000I-1300000J0D01*
G01*
D11*
%TO.C,R107*%
X2173209Y6980792D02*
X2152829Y7016091D01*
X2173149Y6980896D02*
X2299692Y7053817D01*
X2152829Y7016091D02*
X2279312Y7089116D01*
X2279312Y7089116D02*
X2299692Y7053817D01*
%TO.C,R8*%
X2180927Y1451610D02*
X2140167Y1451610D01*
X2180807Y1451610D02*
X2180927Y1597660D01*
X2140167Y1451610D02*
X2140167Y1597660D01*
X2140167Y1597660D02*
X2180927Y1597660D01*
D21*
%TO.C,SIN0*%
X469900Y1600200D02*
X431800Y1600200D01*
D11*
%TO.C,R104*%
X663209Y6140792D02*
X642829Y6176091D01*
X663149Y6140896D02*
X789692Y6213817D01*
X642829Y6176091D02*
X769312Y6249116D01*
X769312Y6249116D02*
X789692Y6213817D01*
%TO.C,C2*%
X2437680Y2787050D02*
X2437680Y2746290D01*
X2437680Y2786930D02*
X2291630Y2787050D01*
X2437680Y2746290D02*
X2291630Y2746290D01*
X2291630Y2746290D02*
X2291630Y2787050D01*
%TO.C,R103*%
X2145144Y6180693D02*
X2165524Y6215993D01*
X2145204Y6180797D02*
X2271627Y6107668D01*
X2165524Y6215993D02*
X2292007Y6142968D01*
X2292007Y6142968D02*
X2271627Y6107668D01*
D21*
%TO.C,GND0*%
X469900Y1346200D02*
X431800Y1346200D01*
D16*
%TO.C,Q2*%
X736400Y3079000D02*
X420400Y3079000D01*
X736400Y3079000D02*
X736400Y2986000D01*
X736400Y2763000D02*
X590400Y2763000D01*
X736400Y2763000D02*
X736400Y2856000D01*
D11*
%TO.C,R3*%
X795570Y3839760D02*
X795175Y3738160D01*
X795570Y3839760D02*
X836210Y3839760D01*
X836210Y3839760D02*
X836210Y3738160D01*
X836210Y3738160D02*
X795175Y3738160D01*
D21*
%TO.C,HP1*%
X469900Y2298700D02*
X431800Y2298700D01*
D16*
%TO.C,CN100*%
X1224593Y4813055D02*
X1224593Y4772415D01*
X1478592Y4818135D02*
X1478592Y4772415D01*
X1732592Y4818135D02*
X1732592Y4772415D01*
D11*
%TO.C,R111*%
X1475240Y7547078D02*
X1516000Y7547078D01*
X1475360Y7547078D02*
X1475240Y7401028D01*
X1516000Y7547078D02*
X1516000Y7401028D01*
X1516000Y7401028D02*
X1475240Y7401028D01*
%TO.C,R110*%
X1011784Y7397159D02*
X1047083Y7417539D01*
X1011888Y7397219D02*
X1084809Y7270676D01*
X1047083Y7417539D02*
X1120108Y7291056D01*
X1120108Y7291056D02*
X1084809Y7270676D01*
%TD*%
M02*
