%TF.GenerationSoftware,KiCad,Pcbnew,7.0.6*%
%TF.CreationDate,2024-06-26T11:04:28+02:00*%
%TF.ProjectId,ToneGenerator,546f6e65-4765-46e6-9572-61746f722e6b,rev?*%
%TF.SameCoordinates,PX791ddc0PY9157080*%
%TF.FileFunction,Soldermask,Top*%
%TF.FilePolarity,Negative*%
%FSLAX45Y45*%
G04 Gerber Fmt 4.5, Leading zero omitted, Abs format (unit mm)*
G04 Created by KiCad (PCBNEW 7.0.6) date 2024-06-26 11:04:28*
%MOMM*%
%LPD*%
G01*
G04 APERTURE LIST*
G04 Aperture macros list*
%AMRoundRect*
0 Rectangle with rounded corners*
0 $1 Rounding radius*
0 $2 $3 $4 $5 $6 $7 $8 $9 X,Y pos of 4 corners*
0 Add a 4 corners polygon primitive as box body*
4,1,4,$2,$3,$4,$5,$6,$7,$8,$9,$2,$3,0*
0 Add four circle primitives for the rounded corners*
1,1,$1+$1,$2,$3*
1,1,$1+$1,$4,$5*
1,1,$1+$1,$6,$7*
1,1,$1+$1,$8,$9*
0 Add four rect primitives between the rounded corners*
20,1,$1+$1,$2,$3,$4,$5,0*
20,1,$1+$1,$4,$5,$6,$7,0*
20,1,$1+$1,$6,$7,$8,$9,0*
20,1,$1+$1,$8,$9,$2,$3,0*%
%AMFreePoly0*
4,1,47,0.799497,0.949497,1.249497,0.499497,1.270000,0.450000,1.270000,-0.451637,1.269847,-0.454906,1.261849,-0.540195,1.258227,-0.556779,1.213924,-0.683390,1.204174,-0.701838,1.124520,-0.809765,1.109765,-0.824520,1.001838,-0.904174,0.983390,-0.913924,0.856779,-0.958226,0.840195,-0.961849,0.754906,-0.969847,0.751637,-0.970000,-0.751637,-0.970000,-0.754906,-0.969847,-0.840195,-0.961849,
-0.856779,-0.958227,-0.983390,-0.913924,-1.001838,-0.904174,-1.109765,-0.824520,-1.124520,-0.809765,-1.204174,-0.701838,-1.213924,-0.683390,-1.258227,-0.556779,-1.261849,-0.540195,-1.269847,-0.454906,-1.270000,-0.451637,-1.270000,0.451637,-1.269847,0.454906,-1.261849,0.540195,-1.258227,0.556779,-1.213924,0.683390,-1.204174,0.701838,-1.124520,0.809765,-1.109765,0.824520,-1.001838,0.904174,
-0.983390,0.913924,-0.856779,0.958226,-0.840195,0.961849,-0.754906,0.969847,-0.751637,0.970000,0.750000,0.970000,0.799497,0.949497,0.799497,0.949497,$1*%
G04 Aperture macros list end*
%ADD10RoundRect,0.101600X-0.571500X-0.698500X0.571500X-0.698500X0.571500X0.698500X-0.571500X0.698500X0*%
%ADD11C,1.340000*%
%ADD12O,3.048000X1.625600*%
%ADD13RoundRect,0.101600X-0.698500X0.571500X-0.698500X-0.571500X0.698500X-0.571500X0.698500X0.571500X0*%
%ADD14RoundRect,0.101600X0.319169X-0.844184X0.890669X0.145684X-0.319169X0.844184X-0.890669X-0.145684X0*%
%ADD15C,2.133600*%
%ADD16RoundRect,0.101600X0.844184X0.319169X-0.145684X0.890669X-0.844184X-0.319169X0.145684X-0.890669X0*%
%ADD17RoundRect,0.101600X0.698500X-0.571500X0.698500X0.571500X-0.698500X0.571500X-0.698500X-0.571500X0*%
%ADD18RoundRect,0.101600X-0.145684X-0.890669X0.844184X-0.319169X0.145684X0.890669X-0.844184X0.319169X0*%
%ADD19RoundRect,0.101600X0.900000X1.100000X-0.900000X1.100000X-0.900000X-1.100000X0.900000X-1.100000X0*%
%ADD20RoundRect,0.101600X-1.003300X0.749300X-1.003300X-0.749300X1.003300X-0.749300X1.003300X0.749300X0*%
%ADD21RoundRect,0.101600X-1.003300X1.905000X-1.003300X-1.905000X1.003300X-1.905000X1.003300X1.905000X0*%
%ADD22RoundRect,0.101600X0.571500X0.698500X-0.571500X0.698500X-0.571500X-0.698500X0.571500X-0.698500X0*%
%ADD23RoundRect,0.101600X-0.482600X0.381000X-0.482600X-0.381000X0.482600X-0.381000X0.482600X0.381000X0*%
%ADD24C,1.879600*%
%ADD25FreePoly0,195.000000*%
%ADD26RoundRect,0.520000X0.212132X0.848528X-0.848528X-0.212132X-0.212132X-0.848528X0.848528X0.212132X0*%
%ADD27RoundRect,0.520000X-0.240552X0.840913X-0.628781X-0.607976X0.240552X-0.840913X0.628781X0.607976X0*%
%ADD28RoundRect,0.520000X-0.628781X0.607976X-0.240552X-0.840913X0.628781X-0.607976X0.240552X0.840913X0*%
%ADD29RoundRect,0.520000X-0.848528X0.212132X0.212132X-0.848528X0.848528X-0.212132X-0.212132X0.848528X0*%
%ADD30RoundRect,0.520000X-0.840913X-0.240552X0.607976X-0.628781X0.840913X0.240552X-0.607976X0.628781X0*%
%ADD31RoundRect,0.520000X-0.607976X-0.628781X0.840913X-0.240552X0.607976X0.628781X-0.840913X0.240552X0*%
%ADD32RoundRect,0.520000X-0.212132X-0.848528X0.848528X0.212132X0.212132X0.848528X-0.848528X-0.212132X0*%
%ADD33RoundRect,0.520000X0.240552X-0.840913X0.628781X0.607976X-0.240552X0.840913X-0.628781X-0.607976X0*%
%ADD34RoundRect,0.520000X0.628781X-0.607976X0.240552X0.840913X-0.628781X0.607976X-0.240552X-0.840913X0*%
%ADD35RoundRect,0.520000X0.848528X-0.212132X-0.212132X0.848528X-0.848528X0.212132X0.212132X-0.848528X0*%
%ADD36RoundRect,0.520000X0.840913X0.240552X-0.607976X0.628781X-0.840913X-0.240552X0.607976X-0.628781X0*%
%ADD37RoundRect,0.101600X0.890669X-0.145684X0.319169X0.844184X-0.890669X0.145684X-0.319169X-0.844184X0*%
%ADD38RoundRect,0.070000X-0.950000X-0.400000X0.950000X-0.400000X0.950000X0.400000X-0.950000X0.400000X0*%
%ADD39RoundRect,0.101600X-0.381000X-0.482600X0.381000X-0.482600X0.381000X0.482600X-0.381000X0.482600X0*%
%ADD40O,1.625600X3.048000*%
G04 APERTURE END LIST*
%TO.C,JP2*%
G36*
X2079540Y1674410D02*
G01*
X1787440Y1674410D01*
X1787440Y1839510D01*
X2079540Y1839510D01*
X2079540Y1674410D01*
G37*
%TO.C,JP1*%
G36*
X1035050Y442510D02*
G01*
X869950Y442510D01*
X869950Y734610D01*
X1035050Y734610D01*
X1035050Y442510D01*
G37*
%TD*%
D10*
%TO.C,R7*%
X1581150Y1524000D03*
X1771650Y1524000D03*
%TD*%
%TO.C,C1*%
X2066840Y1193800D03*
X2257340Y1193800D03*
%TD*%
D11*
%TO.C,+9V0*%
X336620Y639360D03*
D12*
X654120Y639360D03*
%TD*%
D13*
%TO.C,R100*%
X1474846Y5934751D03*
X1474846Y5744251D03*
%TD*%
D14*
%TO.C,R108*%
X678056Y6962199D03*
X773306Y7127177D03*
%TD*%
D15*
%TO.C,Q1*%
X584200Y3632200D03*
X838200Y3441700D03*
X584200Y3251200D03*
%TD*%
D16*
%TO.C,R102*%
X1128170Y5807063D03*
X963192Y5902313D03*
%TD*%
D17*
%TO.C,R105*%
X2325681Y6504187D03*
X2325681Y6694687D03*
%TD*%
D18*
%TO.C,R101*%
X1830703Y5809438D03*
X1995680Y5904688D03*
%TD*%
D19*
%TO.C,D1*%
X1688014Y2008713D03*
X2198014Y2008713D03*
%TD*%
D11*
%TO.C,HP2*%
X330200Y2552700D03*
D12*
X647700Y2552700D03*
%TD*%
D11*
%TO.C,S-0*%
X330200Y901700D03*
D12*
X647700Y901700D03*
%TD*%
D20*
%TO.C,IC1*%
X1412240Y2639060D03*
X1412240Y2867660D03*
X1412240Y3096260D03*
D21*
X2042160Y2870200D03*
%TD*%
D22*
%TO.C,R1*%
X1771650Y1193800D03*
X1581150Y1193800D03*
%TD*%
D11*
%TO.C,S+0*%
X330200Y1854200D03*
D12*
X647700Y1854200D03*
%TD*%
D17*
%TO.C,R106*%
X605680Y6519438D03*
X605680Y6709938D03*
%TD*%
D23*
%TO.C,R2*%
X886400Y2508233D03*
X886400Y2350753D03*
%TD*%
D24*
%TO.C,ARD1*%
X1092200Y2679700D03*
X1092200Y2425700D03*
X1092200Y2171700D03*
X1092200Y1917700D03*
X1346200Y2044700D03*
X1346200Y1790700D03*
X1600200Y3695700D03*
X1346200Y3695700D03*
X2616200Y1917700D03*
X2616200Y2171700D03*
X2616200Y2425700D03*
X2616200Y2679700D03*
X2616200Y2933700D03*
X2616200Y3187700D03*
X2616200Y3441700D03*
X2616200Y3695700D03*
X1092200Y3695700D03*
X1092200Y3441700D03*
X1092200Y3187700D03*
X1092200Y2933700D03*
X2616200Y1663700D03*
X1092200Y1155700D03*
X1854200Y3695700D03*
X1092200Y901700D03*
X1092200Y1409700D03*
X2616200Y1409700D03*
X2616200Y1155700D03*
X2616200Y901700D03*
X1092200Y1663700D03*
%TD*%
D16*
%TO.C,R109*%
X2018170Y7307063D03*
X1853192Y7402313D03*
%TD*%
D25*
%TO.C,J100*%
X1765300Y5549900D03*
D26*
X2260600Y5829300D03*
D27*
X2540000Y6324600D03*
D28*
X2540000Y6883400D03*
D29*
X2247900Y7378700D03*
D30*
X1765300Y7670800D03*
D31*
X1193800Y7670800D03*
D32*
X685800Y7378700D03*
D33*
X419100Y6883400D03*
D34*
X406400Y6324600D03*
D35*
X685800Y5829300D03*
D36*
X1193800Y5537200D03*
D26*
X1752600Y6324600D03*
%TD*%
D37*
%TO.C,R107*%
X2273306Y6952200D03*
X2178056Y7117177D03*
%TD*%
D22*
%TO.C,R8*%
X2255737Y1524000D03*
X2065237Y1524000D03*
%TD*%
D11*
%TO.C,SIN0*%
X330200Y1600200D03*
D12*
X647700Y1600200D03*
%TD*%
D37*
%TO.C,R104*%
X763305Y6112200D03*
X668055Y6277177D03*
%TD*%
D13*
%TO.C,C2*%
X2365290Y2861860D03*
X2365290Y2671360D03*
%TD*%
D14*
%TO.C,R103*%
X2170431Y6079711D03*
X2265681Y6244689D03*
%TD*%
D11*
%TO.C,GND0*%
X330200Y1346200D03*
D12*
X647700Y1346200D03*
%TD*%
D38*
%TO.C,Q2*%
X510400Y3016000D03*
X510400Y2826000D03*
X810400Y2921000D03*
%TD*%
D39*
%TO.C,R3*%
X737150Y3788960D03*
X894630Y3788960D03*
%TD*%
D11*
%TO.C,HP1*%
X330200Y2298700D03*
D12*
X647700Y2298700D03*
%TD*%
D40*
%TO.C,CN100*%
X1226090Y4981339D03*
X1480089Y4981339D03*
X1732592Y4981339D03*
%TD*%
D10*
%TO.C,R111*%
X1400430Y7474688D03*
X1590930Y7474688D03*
%TD*%
D18*
%TO.C,R110*%
X983191Y7297063D03*
X1148169Y7392313D03*
%TD*%
M02*
