%TF.GenerationSoftware,KiCad,Pcbnew,7.0.6*%
%TF.CreationDate,2024-06-04T12:28:42+02:00*%
%TF.ProjectId,ToneGenerator,546f6e65-4765-46e6-9572-61746f722e6b,rev?*%
%TF.SameCoordinates,Original*%
%TF.FileFunction,Legend,Bot*%
%TF.FilePolarity,Positive*%
%FSLAX45Y45*%
G04 Gerber Fmt 4.5, Leading zero omitted, Abs format (unit mm)*
G04 Created by KiCad (PCBNEW 7.0.6) date 2024-06-04 12:28:42*
%MOMM*%
%LPD*%
G01*
G04 APERTURE LIST*
%ADD10C,0.190500*%
%ADD11C,0.089408*%
%ADD12C,0.254000*%
G04 APERTURE END LIST*
D10*
X14800505Y-14915858D02*
X14785084Y-14920998D01*
X14785084Y-14920998D02*
X14759381Y-14920998D01*
X14759381Y-14920998D02*
X14749100Y-14915858D01*
X14749100Y-14915858D02*
X14743960Y-14910717D01*
X14743960Y-14910717D02*
X14738819Y-14900436D01*
X14738819Y-14900436D02*
X14738819Y-14890155D01*
X14738819Y-14890155D02*
X14743960Y-14879874D01*
X14743960Y-14879874D02*
X14749100Y-14874734D01*
X14749100Y-14874734D02*
X14759381Y-14869594D01*
X14759381Y-14869594D02*
X14779943Y-14864453D01*
X14779943Y-14864453D02*
X14790224Y-14859313D01*
X14790224Y-14859313D02*
X14795365Y-14854172D01*
X14795365Y-14854172D02*
X14800505Y-14843891D01*
X14800505Y-14843891D02*
X14800505Y-14833610D01*
X14800505Y-14833610D02*
X14795365Y-14823329D01*
X14795365Y-14823329D02*
X14790224Y-14818189D01*
X14790224Y-14818189D02*
X14779943Y-14813048D01*
X14779943Y-14813048D02*
X14754241Y-14813048D01*
X14754241Y-14813048D02*
X14738819Y-14818189D01*
X14697696Y-14823329D02*
X14692555Y-14818189D01*
X14692555Y-14818189D02*
X14682274Y-14813048D01*
X14682274Y-14813048D02*
X14656572Y-14813048D01*
X14656572Y-14813048D02*
X14646291Y-14818189D01*
X14646291Y-14818189D02*
X14641150Y-14823329D01*
X14641150Y-14823329D02*
X14636010Y-14833610D01*
X14636010Y-14833610D02*
X14636010Y-14843891D01*
X14636010Y-14843891D02*
X14641150Y-14859313D01*
X14641150Y-14859313D02*
X14702836Y-14920998D01*
X14702836Y-14920998D02*
X14636010Y-14920998D01*
X14569184Y-14813048D02*
X14558903Y-14813048D01*
X14558903Y-14813048D02*
X14548622Y-14818189D01*
X14548622Y-14818189D02*
X14543481Y-14823329D01*
X14543481Y-14823329D02*
X14538341Y-14833610D01*
X14538341Y-14833610D02*
X14533200Y-14854172D01*
X14533200Y-14854172D02*
X14533200Y-14879874D01*
X14533200Y-14879874D02*
X14538341Y-14900436D01*
X14538341Y-14900436D02*
X14543481Y-14910717D01*
X14543481Y-14910717D02*
X14548622Y-14915858D01*
X14548622Y-14915858D02*
X14558903Y-14920998D01*
X14558903Y-14920998D02*
X14569184Y-14920998D01*
X14569184Y-14920998D02*
X14579465Y-14915858D01*
X14579465Y-14915858D02*
X14584605Y-14910717D01*
X14584605Y-14910717D02*
X14589746Y-14900436D01*
X14589746Y-14900436D02*
X14594886Y-14879874D01*
X14594886Y-14879874D02*
X14594886Y-14854172D01*
X14594886Y-14854172D02*
X14589746Y-14833610D01*
X14589746Y-14833610D02*
X14584605Y-14823329D01*
X14584605Y-14823329D02*
X14579465Y-14818189D01*
X14579465Y-14818189D02*
X14569184Y-14813048D01*
X14492077Y-14823329D02*
X14486936Y-14818189D01*
X14486936Y-14818189D02*
X14476655Y-14813048D01*
X14476655Y-14813048D02*
X14450953Y-14813048D01*
X14450953Y-14813048D02*
X14440672Y-14818189D01*
X14440672Y-14818189D02*
X14435531Y-14823329D01*
X14435531Y-14823329D02*
X14430391Y-14833610D01*
X14430391Y-14833610D02*
X14430391Y-14843891D01*
X14430391Y-14843891D02*
X14435531Y-14859313D01*
X14435531Y-14859313D02*
X14497217Y-14920998D01*
X14497217Y-14920998D02*
X14430391Y-14920998D01*
X14337862Y-14849032D02*
X14337862Y-14920998D01*
X14363565Y-14807908D02*
X14389267Y-14885015D01*
X14389267Y-14885015D02*
X14322441Y-14885015D01*
X14224772Y-14920998D02*
X14286458Y-14920998D01*
X14255615Y-14920998D02*
X14255615Y-14813048D01*
X14255615Y-14813048D02*
X14265896Y-14828470D01*
X14265896Y-14828470D02*
X14276177Y-14838751D01*
X14276177Y-14838751D02*
X14286458Y-14843891D01*
X14173367Y-14920998D02*
X14152805Y-14920998D01*
X14152805Y-14920998D02*
X14142524Y-14915858D01*
X14142524Y-14915858D02*
X14137384Y-14910717D01*
X14137384Y-14910717D02*
X14127103Y-14895296D01*
X14127103Y-14895296D02*
X14121962Y-14874734D01*
X14121962Y-14874734D02*
X14121962Y-14833610D01*
X14121962Y-14833610D02*
X14127103Y-14823329D01*
X14127103Y-14823329D02*
X14132243Y-14818189D01*
X14132243Y-14818189D02*
X14142524Y-14813048D01*
X14142524Y-14813048D02*
X14163086Y-14813048D01*
X14163086Y-14813048D02*
X14173367Y-14818189D01*
X14173367Y-14818189D02*
X14178508Y-14823329D01*
X14178508Y-14823329D02*
X14183648Y-14833610D01*
X14183648Y-14833610D02*
X14183648Y-14859313D01*
X14183648Y-14859313D02*
X14178508Y-14869594D01*
X14178508Y-14869594D02*
X14173367Y-14874734D01*
X14173367Y-14874734D02*
X14163086Y-14879874D01*
X14163086Y-14879874D02*
X14142524Y-14879874D01*
X14142524Y-14879874D02*
X14132243Y-14874734D01*
X14132243Y-14874734D02*
X14127103Y-14869594D01*
X14127103Y-14869594D02*
X14121962Y-14859313D01*
D11*
X14655539Y-14594214D02*
X14621092Y-14594214D01*
X14662428Y-14614882D02*
X14638315Y-14542543D01*
X14638315Y-14542543D02*
X14614202Y-14614882D01*
X14590089Y-14614882D02*
X14590089Y-14542543D01*
X14590089Y-14542543D02*
X14572866Y-14542543D01*
X14572866Y-14542543D02*
X14562531Y-14545988D01*
X14562531Y-14545988D02*
X14555642Y-14552877D01*
X14555642Y-14552877D02*
X14552197Y-14559766D01*
X14552197Y-14559766D02*
X14548752Y-14573545D01*
X14548752Y-14573545D02*
X14548752Y-14583880D01*
X14548752Y-14583880D02*
X14552197Y-14597658D01*
X14552197Y-14597658D02*
X14555642Y-14604548D01*
X14555642Y-14604548D02*
X14562531Y-14611437D01*
X14562531Y-14611437D02*
X14572866Y-14614882D01*
X14572866Y-14614882D02*
X14590089Y-14614882D01*
X14521195Y-14549432D02*
X14517750Y-14545988D01*
X14517750Y-14545988D02*
X14510861Y-14542543D01*
X14510861Y-14542543D02*
X14493637Y-14542543D01*
X14493637Y-14542543D02*
X14486747Y-14545988D01*
X14486747Y-14545988D02*
X14483303Y-14549432D01*
X14483303Y-14549432D02*
X14479858Y-14556322D01*
X14479858Y-14556322D02*
X14479858Y-14563211D01*
X14479858Y-14563211D02*
X14483303Y-14573545D01*
X14483303Y-14573545D02*
X14524639Y-14614882D01*
X14524639Y-14614882D02*
X14479858Y-14614882D01*
X14435077Y-14542543D02*
X14428187Y-14542543D01*
X14428187Y-14542543D02*
X14421298Y-14545988D01*
X14421298Y-14545988D02*
X14417853Y-14549432D01*
X14417853Y-14549432D02*
X14414408Y-14556322D01*
X14414408Y-14556322D02*
X14410964Y-14570101D01*
X14410964Y-14570101D02*
X14410964Y-14587324D01*
X14410964Y-14587324D02*
X14414408Y-14601103D01*
X14414408Y-14601103D02*
X14417853Y-14607993D01*
X14417853Y-14607993D02*
X14421298Y-14611437D01*
X14421298Y-14611437D02*
X14428187Y-14614882D01*
X14428187Y-14614882D02*
X14435077Y-14614882D01*
X14435077Y-14614882D02*
X14441966Y-14611437D01*
X14441966Y-14611437D02*
X14445411Y-14607993D01*
X14445411Y-14607993D02*
X14448855Y-14601103D01*
X14448855Y-14601103D02*
X14452300Y-14587324D01*
X14452300Y-14587324D02*
X14452300Y-14570101D01*
X14452300Y-14570101D02*
X14448855Y-14556322D01*
X14448855Y-14556322D02*
X14445411Y-14549432D01*
X14445411Y-14549432D02*
X14441966Y-14545988D01*
X14441966Y-14545988D02*
X14435077Y-14542543D01*
X14383406Y-14549432D02*
X14379961Y-14545988D01*
X14379961Y-14545988D02*
X14373072Y-14542543D01*
X14373072Y-14542543D02*
X14355848Y-14542543D01*
X14355848Y-14542543D02*
X14348958Y-14545988D01*
X14348958Y-14545988D02*
X14345514Y-14549432D01*
X14345514Y-14549432D02*
X14342069Y-14556322D01*
X14342069Y-14556322D02*
X14342069Y-14563211D01*
X14342069Y-14563211D02*
X14345514Y-14573545D01*
X14345514Y-14573545D02*
X14386850Y-14614882D01*
X14386850Y-14614882D02*
X14342069Y-14614882D01*
X14280064Y-14566656D02*
X14280064Y-14614882D01*
X14297288Y-14539098D02*
X14314511Y-14590769D01*
X14314511Y-14590769D02*
X14269730Y-14590769D01*
X14325339Y-8168014D02*
X14290892Y-8168014D01*
X14332228Y-8188682D02*
X14308115Y-8116343D01*
X14308115Y-8116343D02*
X14284002Y-8188682D01*
X14259889Y-8188682D02*
X14259889Y-8116343D01*
X14259889Y-8116343D02*
X14242666Y-8116343D01*
X14242666Y-8116343D02*
X14232331Y-8119788D01*
X14232331Y-8119788D02*
X14225442Y-8126677D01*
X14225442Y-8126677D02*
X14221997Y-8133566D01*
X14221997Y-8133566D02*
X14218552Y-8147345D01*
X14218552Y-8147345D02*
X14218552Y-8157680D01*
X14218552Y-8157680D02*
X14221997Y-8171458D01*
X14221997Y-8171458D02*
X14225442Y-8178348D01*
X14225442Y-8178348D02*
X14232331Y-8185237D01*
X14232331Y-8185237D02*
X14242666Y-8188682D01*
X14242666Y-8188682D02*
X14259889Y-8188682D01*
X14190995Y-8123232D02*
X14187550Y-8119788D01*
X14187550Y-8119788D02*
X14180661Y-8116343D01*
X14180661Y-8116343D02*
X14163437Y-8116343D01*
X14163437Y-8116343D02*
X14156547Y-8119788D01*
X14156547Y-8119788D02*
X14153103Y-8123232D01*
X14153103Y-8123232D02*
X14149658Y-8130122D01*
X14149658Y-8130122D02*
X14149658Y-8137011D01*
X14149658Y-8137011D02*
X14153103Y-8147345D01*
X14153103Y-8147345D02*
X14194439Y-8188682D01*
X14194439Y-8188682D02*
X14149658Y-8188682D01*
X14104877Y-8116343D02*
X14097987Y-8116343D01*
X14097987Y-8116343D02*
X14091098Y-8119788D01*
X14091098Y-8119788D02*
X14087653Y-8123232D01*
X14087653Y-8123232D02*
X14084208Y-8130122D01*
X14084208Y-8130122D02*
X14080764Y-8143901D01*
X14080764Y-8143901D02*
X14080764Y-8161124D01*
X14080764Y-8161124D02*
X14084208Y-8174903D01*
X14084208Y-8174903D02*
X14087653Y-8181793D01*
X14087653Y-8181793D02*
X14091098Y-8185237D01*
X14091098Y-8185237D02*
X14097987Y-8188682D01*
X14097987Y-8188682D02*
X14104877Y-8188682D01*
X14104877Y-8188682D02*
X14111766Y-8185237D01*
X14111766Y-8185237D02*
X14115211Y-8181793D01*
X14115211Y-8181793D02*
X14118655Y-8174903D01*
X14118655Y-8174903D02*
X14122100Y-8161124D01*
X14122100Y-8161124D02*
X14122100Y-8143901D01*
X14122100Y-8143901D02*
X14118655Y-8130122D01*
X14118655Y-8130122D02*
X14115211Y-8123232D01*
X14115211Y-8123232D02*
X14111766Y-8119788D01*
X14111766Y-8119788D02*
X14104877Y-8116343D01*
X14053206Y-8123232D02*
X14049761Y-8119788D01*
X14049761Y-8119788D02*
X14042872Y-8116343D01*
X14042872Y-8116343D02*
X14025648Y-8116343D01*
X14025648Y-8116343D02*
X14018758Y-8119788D01*
X14018758Y-8119788D02*
X14015314Y-8123232D01*
X14015314Y-8123232D02*
X14011869Y-8130122D01*
X14011869Y-8130122D02*
X14011869Y-8137011D01*
X14011869Y-8137011D02*
X14015314Y-8147345D01*
X14015314Y-8147345D02*
X14056650Y-8188682D01*
X14056650Y-8188682D02*
X14011869Y-8188682D01*
X13949864Y-8140456D02*
X13949864Y-8188682D01*
X13967088Y-8112898D02*
X13984311Y-8164569D01*
X13984311Y-8164569D02*
X13939530Y-8164569D01*
D12*
%TO.C,REF\u002A\u002A*%
X14742000Y-14581100D02*
X14742000Y-14390600D01*
X14742000Y-14390600D02*
X14551500Y-14390600D01*
X14678500Y-14644600D02*
X14742000Y-14581100D01*
X14678500Y-14517600D02*
X14615000Y-14517600D01*
X14678500Y-14454100D02*
X14678500Y-14517600D01*
X14615000Y-14517600D02*
X14615000Y-14454100D01*
X14615000Y-14454100D02*
X14678500Y-14454100D01*
X14551500Y-14644600D02*
X14678500Y-14644600D01*
X14551500Y-14517600D02*
X14361000Y-14517600D01*
X14551500Y-14390600D02*
X14551500Y-14517600D01*
X14424500Y-14644600D02*
X14551500Y-14644600D01*
X14361000Y-14517600D02*
X14361000Y-14454100D01*
X14361000Y-14517600D02*
X14297500Y-14517600D01*
X14361000Y-14454100D02*
X14297500Y-14454100D01*
X14297500Y-14644600D02*
X14424500Y-14644600D01*
X14297500Y-14517600D02*
X14234000Y-14517600D01*
X14297500Y-14454100D02*
X14297500Y-14517600D01*
X14234000Y-14644600D02*
X14297500Y-14644600D01*
X14234000Y-14517600D02*
X14234000Y-14644600D01*
X14551500Y-14644600D02*
G75*
G03*
X14678500Y-14644600I63500J0D01*
G01*
X14297500Y-14644600D02*
G75*
G03*
X14424500Y-14644600I63500J0D01*
G01*
X14411800Y-8154900D02*
X14411800Y-7964400D01*
X14411800Y-7964400D02*
X14221300Y-7964400D01*
X14348300Y-8218400D02*
X14411800Y-8154900D01*
X14348300Y-8091400D02*
X14284800Y-8091400D01*
X14348300Y-8027900D02*
X14348300Y-8091400D01*
X14284800Y-8091400D02*
X14284800Y-8027900D01*
X14284800Y-8027900D02*
X14348300Y-8027900D01*
X14221300Y-8218400D02*
X14348300Y-8218400D01*
X14221300Y-8091400D02*
X14030800Y-8091400D01*
X14221300Y-7964400D02*
X14221300Y-8091400D01*
X14094300Y-8218400D02*
X14221300Y-8218400D01*
X14030800Y-8091400D02*
X14030800Y-8027900D01*
X14030800Y-8091400D02*
X13967300Y-8091400D01*
X14030800Y-8027900D02*
X13967300Y-8027900D01*
X13967300Y-8218400D02*
X14094300Y-8218400D01*
X13967300Y-8091400D02*
X13903800Y-8091400D01*
X13967300Y-8027900D02*
X13967300Y-8091400D01*
X13903800Y-8218400D02*
X13967300Y-8218400D01*
X13903800Y-8091400D02*
X13903800Y-8218400D01*
X14221300Y-8218400D02*
G75*
G03*
X14348300Y-8218400I63500J0D01*
G01*
X13967300Y-8218400D02*
G75*
G03*
X14094300Y-8218400I63500J0D01*
G01*
%TD*%
M02*
