%TF.GenerationSoftware,KiCad,Pcbnew,7.0.6*%
%TF.CreationDate,2024-06-04T12:28:42+02:00*%
%TF.ProjectId,ToneGenerator,546f6e65-4765-46e6-9572-61746f722e6b,rev?*%
%TF.SameCoordinates,Original*%
%TF.FileFunction,Copper,L1,Top*%
%TF.FilePolarity,Positive*%
%FSLAX45Y45*%
G04 Gerber Fmt 4.5, Leading zero omitted, Abs format (unit mm)*
G04 Created by KiCad (PCBNEW 7.0.6) date 2024-06-04 12:28:42*
%MOMM*%
%LPD*%
G01*
G04 APERTURE LIST*
G04 Aperture macros list*
%AMRoundRect*
0 Rectangle with rounded corners*
0 $1 Rounding radius*
0 $2 $3 $4 $5 $6 $7 $8 $9 X,Y pos of 4 corners*
0 Add a 4 corners polygon primitive as box body*
4,1,4,$2,$3,$4,$5,$6,$7,$8,$9,$2,$3,0*
0 Add four circle primitives for the rounded corners*
1,1,$1+$1,$2,$3*
1,1,$1+$1,$4,$5*
1,1,$1+$1,$6,$7*
1,1,$1+$1,$8,$9*
0 Add four rect primitives between the rounded corners*
20,1,$1+$1,$2,$3,$4,$5,0*
20,1,$1+$1,$4,$5,$6,$7,0*
20,1,$1+$1,$6,$7,$8,$9,0*
20,1,$1+$1,$8,$9,$2,$3,0*%
%AMRotRect*
0 Rectangle, with rotation*
0 The origin of the aperture is its center*
0 $1 length*
0 $2 width*
0 $3 Rotation angle, in degrees counterclockwise*
0 Add horizontal line*
21,1,$1,$2,0,0,$3*%
%AMFreePoly0*
4,1,24,-1.200000,0.450000,-1.192155,0.533661,-1.147852,0.660271,-1.068198,0.768198,-0.960271,0.847852,-0.833660,0.892154,-0.750000,0.900000,0.750000,0.900001,1.199999,0.450000,1.200000,-0.450000,1.192155,-0.533661,1.147852,-0.660271,1.068198,-0.768198,0.960271,-0.847852,0.833660,-0.892154,0.750000,-0.900000,-0.750000,-0.900001,-0.833660,-0.892155,-0.960271,-0.847852,-1.068198,-0.768198,
-1.147852,-0.660271,-1.192155,-0.533660,-1.199999,-0.450000,-1.200000,0.450000,-1.200000,0.450000,$1*%
G04 Aperture macros list end*
%TA.AperFunction,SMDPad,CuDef*%
%ADD10R,1.143000X1.397000*%
%TD*%
%TA.AperFunction,ComponentPad*%
%ADD11O,2.844800X1.422400*%
%TD*%
%TA.AperFunction,SMDPad,CuDef*%
%ADD12R,1.397000X1.143000*%
%TD*%
%TA.AperFunction,SMDPad,CuDef*%
%ADD13RotRect,1.143000X1.397000X60.000000*%
%TD*%
%TA.AperFunction,ComponentPad*%
%ADD14C,1.930400*%
%TD*%
%TA.AperFunction,SMDPad,CuDef*%
%ADD15RotRect,1.143000X1.397000X150.000000*%
%TD*%
%TA.AperFunction,SMDPad,CuDef*%
%ADD16RotRect,1.143000X1.397000X30.000000*%
%TD*%
%TA.AperFunction,SMDPad,CuDef*%
%ADD17R,1.800000X2.200000*%
%TD*%
%TA.AperFunction,SMDPad,CuDef*%
%ADD18RoundRect,0.190500X0.190500X0.571500X-0.190500X0.571500X-0.190500X-0.571500X0.190500X-0.571500X0*%
%TD*%
%TA.AperFunction,SMDPad,CuDef*%
%ADD19R,2.006600X1.498600*%
%TD*%
%TA.AperFunction,SMDPad,CuDef*%
%ADD20R,2.006600X3.810000*%
%TD*%
%TA.AperFunction,SMDPad,CuDef*%
%ADD21RoundRect,0.190500X0.571500X-0.190500X0.571500X0.190500X-0.571500X0.190500X-0.571500X-0.190500X0*%
%TD*%
%TA.AperFunction,SMDPad,CuDef*%
%ADD22R,0.965200X0.762000*%
%TD*%
%TA.AperFunction,ComponentPad*%
%ADD23C,1.676400*%
%TD*%
%TA.AperFunction,ComponentPad*%
%ADD24FreePoly0,195.000000*%
%TD*%
%TA.AperFunction,ComponentPad*%
%ADD25RoundRect,0.450000X0.212132X0.848528X-0.848528X-0.212132X-0.212132X-0.848528X0.848528X0.212132X0*%
%TD*%
%TA.AperFunction,ComponentPad*%
%ADD26RoundRect,0.450000X-0.240552X0.840913X-0.628781X-0.607976X0.240552X-0.840913X0.628781X0.607976X0*%
%TD*%
%TA.AperFunction,ComponentPad*%
%ADD27RoundRect,0.450000X-0.628781X0.607976X-0.240552X-0.840913X0.628781X-0.607976X0.240552X0.840913X0*%
%TD*%
%TA.AperFunction,ComponentPad*%
%ADD28RoundRect,0.450000X-0.848528X0.212132X0.212132X-0.848528X0.848528X-0.212132X-0.212132X0.848528X0*%
%TD*%
%TA.AperFunction,ComponentPad*%
%ADD29RoundRect,0.450000X-0.840913X-0.240552X0.607976X-0.628781X0.840913X0.240552X-0.607976X0.628781X0*%
%TD*%
%TA.AperFunction,ComponentPad*%
%ADD30RoundRect,0.450000X-0.607976X-0.628781X0.840913X-0.240552X0.607976X0.628781X-0.840913X0.240552X0*%
%TD*%
%TA.AperFunction,ComponentPad*%
%ADD31RoundRect,0.450000X-0.212132X-0.848528X0.848528X0.212132X0.212132X0.848528X-0.848528X-0.212132X0*%
%TD*%
%TA.AperFunction,ComponentPad*%
%ADD32RoundRect,0.450000X0.240552X-0.840913X0.628781X0.607976X-0.240552X0.840913X-0.628781X-0.607976X0*%
%TD*%
%TA.AperFunction,ComponentPad*%
%ADD33RoundRect,0.450000X0.628781X-0.607976X0.240552X0.840913X-0.628781X0.607976X-0.240552X-0.840913X0*%
%TD*%
%TA.AperFunction,ComponentPad*%
%ADD34RoundRect,0.450000X0.848528X-0.212132X-0.212132X0.848528X-0.848528X0.212132X0.212132X-0.848528X0*%
%TD*%
%TA.AperFunction,ComponentPad*%
%ADD35RoundRect,0.450000X0.840913X0.240552X-0.607976X0.628781X-0.840913X-0.240552X0.607976X-0.628781X0*%
%TD*%
%TA.AperFunction,SMDPad,CuDef*%
%ADD36RotRect,1.143000X1.397000X120.000000*%
%TD*%
%TA.AperFunction,SMDPad,CuDef*%
%ADD37R,1.900000X0.800000*%
%TD*%
%TA.AperFunction,SMDPad,CuDef*%
%ADD38R,0.762000X0.965200*%
%TD*%
%TA.AperFunction,WasherPad*%
%ADD39C,1.700000*%
%TD*%
%TA.AperFunction,ComponentPad*%
%ADD40O,1.422400X2.844800*%
%TD*%
%TA.AperFunction,ViaPad*%
%ADD41C,1.400000*%
%TD*%
%TA.AperFunction,ViaPad*%
%ADD42C,1.270000*%
%TD*%
%TA.AperFunction,ViaPad*%
%ADD43C,1.219200*%
%TD*%
%TA.AperFunction,Conductor*%
%ADD44C,0.400000*%
%TD*%
%TA.AperFunction,Conductor*%
%ADD45C,0.635000*%
%TD*%
%TA.AperFunction,Conductor*%
%ADD46C,0.406400*%
%TD*%
%TA.AperFunction,Conductor*%
%ADD47C,1.000000*%
%TD*%
G04 APERTURE END LIST*
%TA.AperFunction,EtchedComponent*%
%TO.C,JP2*%
G36*
X14712230Y-13559240D02*
G01*
X14689588Y-13559240D01*
X14613388Y-13483040D01*
X14689588Y-13406840D01*
X14712230Y-13406840D01*
X14712230Y-13559240D01*
G37*
%TD.AperFunction*%
%TA.AperFunction,EtchedComponent*%
G36*
X14578601Y-13483040D02*
G01*
X14652173Y-13559240D01*
X14554750Y-13559240D01*
X14554750Y-13406840D01*
X14652173Y-13406840D01*
X14578601Y-13483040D01*
G37*
%TD.AperFunction*%
%TA.AperFunction,EtchedComponent*%
%TO.C,JP1*%
G36*
X13728700Y-14707538D02*
G01*
X13728700Y-14730180D01*
X13576300Y-14730180D01*
X13576300Y-14707538D01*
X13652500Y-14631338D01*
X13728700Y-14707538D01*
G37*
%TD.AperFunction*%
%TA.AperFunction,EtchedComponent*%
G36*
X13728700Y-14670123D02*
G01*
X13652500Y-14596551D01*
X13576300Y-14670123D01*
X13576300Y-14572700D01*
X13728700Y-14572700D01*
X13728700Y-14670123D01*
G37*
%TD.AperFunction*%
%TD*%
D10*
%TO.P,R7,1,1*%
%TO.N,Net-(ARD1-PadA3)*%
X14281150Y-13716000D03*
%TO.P,R7,2,2*%
%TO.N,+9V*%
X14471650Y-13716000D03*
%TD*%
%TO.P,C1,1,1*%
%TO.N,Net-(ARD1-PadA5)*%
X14766840Y-14046200D03*
%TO.P,C1,2,2*%
%TO.N,GND*%
X14957340Y-14046200D03*
%TD*%
D11*
%TO.P,+9V0,1,KL*%
%TO.N,+9V*%
X13354120Y-14600640D03*
%TD*%
D12*
%TO.P,R100,1,1*%
%TO.N,Net-(J100-PadA)*%
X14174846Y-9305249D03*
%TO.P,R100,2,2*%
%TO.N,Net-(CN100-Pin_2)*%
X14174846Y-9495749D03*
%TD*%
D13*
%TO.P,R108,1,1*%
%TO.N,Net-(J100-Pad9)*%
X13378056Y-8277800D03*
%TO.P,R108,2,2*%
%TO.N,Net-(J100-Pad8)*%
X13473306Y-8112823D03*
%TD*%
D14*
%TO.P,Q1,D,D*%
%TO.N,Net-(HP2-KL)*%
X13284200Y-11607800D03*
%TO.P,Q1,G,G*%
%TO.N,Net-(Q2-G)*%
X13538200Y-11798300D03*
%TO.P,Q1,S,S*%
%TO.N,GND*%
X13284200Y-11988800D03*
%TD*%
D15*
%TO.P,R102,1,1*%
%TO.N,Net-(CN100-Pin_1)*%
X13828169Y-9432937D03*
%TO.P,R102,2,2*%
%TO.N,Net-(J100-Pad11)*%
X13663192Y-9337687D03*
%TD*%
D12*
%TO.P,R105,1,1*%
%TO.N,Net-(J100-Pad3)*%
X15025681Y-8735813D03*
%TO.P,R105,2,2*%
%TO.N,Net-(J100-Pad4)*%
X15025681Y-8545313D03*
%TD*%
D16*
%TO.P,R101,1,1*%
%TO.N,Net-(CN100-Pin_3)*%
X14530703Y-9430562D03*
%TO.P,R101,2,2*%
%TO.N,Net-(J100-Pad2)*%
X14695680Y-9335312D03*
%TD*%
D17*
%TO.P,D1,A,A*%
%TO.N,+9V*%
X14388014Y-13231286D03*
%TO.P,D1,C,K*%
%TO.N,Net-(D1-K)*%
X14898014Y-13231286D03*
%TD*%
D11*
%TO.P,HP2,1,KL*%
%TO.N,Net-(HP2-KL)*%
X13347700Y-12687300D03*
%TD*%
D18*
%TO.P,JP2,1,1*%
%TO.N,Net-(D1-K)*%
X14735090Y-13483040D03*
%TO.P,JP2,2,2*%
%TO.N,+9V*%
X14531890Y-13483040D03*
%TD*%
D11*
%TO.P,S-0,1,KL*%
%TO.N,GND*%
X13347700Y-14338300D03*
%TD*%
D19*
%TO.P,IC1,1,VI*%
%TO.N,Net-(D1-K)*%
X14112240Y-12600940D03*
%TO.P,IC1,2,VO*%
%TO.N,+5V*%
X14112240Y-12372340D03*
%TO.P,IC1,3,ADJ*%
%TO.N,GND*%
X14112240Y-12143740D03*
D20*
%TO.P,IC1,4,VO1*%
%TO.N,+5V*%
X14742160Y-12369800D03*
%TD*%
D10*
%TO.P,R1,1,1*%
%TO.N,Net-(ARD1-PadA5)*%
X14471650Y-14046200D03*
%TO.P,R1,2,2*%
%TO.N,Net-(SIN0-KL)*%
X14281150Y-14046200D03*
%TD*%
D11*
%TO.P,S+0,1,KL*%
%TO.N,+5V*%
X13347700Y-13385800D03*
%TD*%
D12*
%TO.P,R106,1,1*%
%TO.N,Net-(J100-Pad10)*%
X13305680Y-8720562D03*
%TO.P,R106,2,2*%
%TO.N,Net-(J100-Pad9)*%
X13305680Y-8530062D03*
%TD*%
D21*
%TO.P,JP1,1,1*%
%TO.N,+9V*%
X13652500Y-14753040D03*
%TO.P,JP1,2,2*%
%TO.N,Net-(ARD1-PadRAW)*%
X13652500Y-14549840D03*
%TD*%
D22*
%TO.P,R2,1,1*%
%TO.N,Net-(HP2-KL)*%
X13586400Y-12731767D03*
%TO.P,R2,2,2*%
%TO.N,+9V*%
X13586400Y-12889247D03*
%TD*%
D23*
%TO.P,ARD1,A0,A0*%
%TO.N,unconnected-(ARD1-PadA0)*%
X13792200Y-12560300D03*
%TO.P,ARD1,A1,A1*%
%TO.N,unconnected-(ARD1-PadA1)*%
X13792200Y-12814300D03*
%TO.P,ARD1,A2,A2*%
%TO.N,unconnected-(ARD1-PadA2)*%
X13792200Y-13068300D03*
%TO.P,ARD1,A3,A3*%
%TO.N,Net-(ARD1-PadA3)*%
X13792200Y-13322300D03*
%TO.P,ARD1,A4,A4*%
%TO.N,unconnected-(ARD1-PadA4)*%
X14046200Y-13195300D03*
%TO.P,ARD1,A5,A5*%
%TO.N,Net-(ARD1-PadA5)*%
X14046200Y-13449300D03*
%TO.P,ARD1,A6,A6*%
%TO.N,unconnected-(ARD1-PadA6)*%
X14300200Y-11544300D03*
%TO.P,ARD1,A7,A7*%
%TO.N,unconnected-(ARD1-PadA7)*%
X14046200Y-11544300D03*
%TO.P,ARD1,D2,D2*%
%TO.N,unconnected-(ARD1-PadD2)*%
X15316200Y-13322300D03*
%TO.P,ARD1,D3,D3*%
%TO.N,unconnected-(ARD1-PadD3)*%
X15316200Y-13068300D03*
%TO.P,ARD1,D4,D4*%
%TO.N,unconnected-(ARD1-PadD4)*%
X15316200Y-12814300D03*
%TO.P,ARD1,D5,D5*%
%TO.N,unconnected-(ARD1-PadD5)*%
X15316200Y-12560300D03*
%TO.P,ARD1,D6,D6*%
%TO.N,unconnected-(ARD1-PadD6)*%
X15316200Y-12306300D03*
%TO.P,ARD1,D7,D7*%
%TO.N,unconnected-(ARD1-PadD7)*%
X15316200Y-12052300D03*
%TO.P,ARD1,D8,D8*%
%TO.N,unconnected-(ARD1-PadD8)*%
X15316200Y-11798300D03*
%TO.P,ARD1,D9,D9*%
%TO.N,unconnected-(ARD1-PadD9)*%
X15316200Y-11544300D03*
%TO.P,ARD1,D10,D10*%
%TO.N,Net-(ARD1-PadD10)*%
X13792200Y-11544300D03*
%TO.P,ARD1,D11,D11*%
%TO.N,unconnected-(ARD1-PadD11)*%
X13792200Y-11798300D03*
%TO.P,ARD1,D12,D12*%
%TO.N,unconnected-(ARD1-PadD12)*%
X13792200Y-12052300D03*
%TO.P,ARD1,D13,D13*%
%TO.N,unconnected-(ARD1-PadD13)*%
X13792200Y-12306300D03*
%TO.P,ARD1,GND,GND*%
%TO.N,GND*%
X15316200Y-13576300D03*
%TO.P,ARD1,GND@1,GND@1*%
X13792200Y-14084300D03*
%TO.P,ARD1,GND@4,GND@4*%
X14554200Y-11544300D03*
%TO.P,ARD1,RAW,RAW*%
%TO.N,Net-(ARD1-PadRAW)*%
X13792200Y-14338300D03*
%TO.P,ARD1,RST,RST@1*%
%TO.N,unconnected-(ARD1A-RST@1-PadRST)*%
X13792200Y-13830300D03*
%TO.P,ARD1,RST@1,RST@2*%
%TO.N,unconnected-(ARD1A-RST@2-PadRST@1)*%
X15316200Y-13830300D03*
%TO.P,ARD1,RX1@1,RX@1*%
%TO.N,unconnected-(ARD1A-RX@1-PadRX1@1)*%
X15316200Y-14084300D03*
%TO.P,ARD1,TX@1,TX@2*%
%TO.N,unconnected-(ARD1A-TX@2-PadTX@1)*%
X15316200Y-14338300D03*
%TO.P,ARD1,VCC,VCC@2*%
%TO.N,+5V*%
X13792200Y-13576300D03*
%TD*%
D15*
%TO.P,R109,1,1*%
%TO.N,Net-(J100-Pad5)*%
X14718170Y-7932937D03*
%TO.P,R109,2,2*%
%TO.N,Net-(J100-Pad6)*%
X14553192Y-7837687D03*
%TD*%
D24*
%TO.P,J100,1,1*%
%TO.N,Net-(CN100-Pin_3)*%
X14465300Y-9690100D03*
D25*
%TO.P,J100,2,2*%
%TO.N,Net-(J100-Pad2)*%
X14960600Y-9410700D03*
D26*
%TO.P,J100,3,3*%
%TO.N,Net-(J100-Pad3)*%
X15240000Y-8915400D03*
D27*
%TO.P,J100,4,4*%
%TO.N,Net-(J100-Pad4)*%
X15240000Y-8356600D03*
D28*
%TO.P,J100,5,5*%
%TO.N,Net-(J100-Pad5)*%
X14947900Y-7861300D03*
D29*
%TO.P,J100,6,6*%
%TO.N,Net-(J100-Pad6)*%
X14465300Y-7569200D03*
D30*
%TO.P,J100,7,7*%
%TO.N,Net-(J100-Pad7)*%
X13893800Y-7569200D03*
D31*
%TO.P,J100,8,8*%
%TO.N,Net-(J100-Pad8)*%
X13385800Y-7861300D03*
D32*
%TO.P,J100,9,9*%
%TO.N,Net-(J100-Pad9)*%
X13119100Y-8356600D03*
D33*
%TO.P,J100,10,10*%
%TO.N,Net-(J100-Pad10)*%
X13106400Y-8915400D03*
D34*
%TO.P,J100,11,11*%
%TO.N,Net-(J100-Pad11)*%
X13385800Y-9410700D03*
D35*
%TO.P,J100,12,12*%
%TO.N,Net-(CN100-Pin_1)*%
X13893800Y-9702800D03*
D25*
%TO.P,J100,A,A*%
%TO.N,Net-(J100-PadA)*%
X14452600Y-8915400D03*
%TD*%
D36*
%TO.P,R107,1,1*%
%TO.N,Net-(J100-Pad4)*%
X14973305Y-8287800D03*
%TO.P,R107,2,2*%
%TO.N,Net-(J100-Pad5)*%
X14878055Y-8122822D03*
%TD*%
D10*
%TO.P,R8,1,1*%
%TO.N,GND*%
X14955737Y-13716000D03*
%TO.P,R8,2,2*%
%TO.N,Net-(ARD1-PadA3)*%
X14765237Y-13716000D03*
%TD*%
D11*
%TO.P,SIN0,1,KL*%
%TO.N,Net-(SIN0-KL)*%
X13347700Y-13639800D03*
%TD*%
D36*
%TO.P,R104,1,1*%
%TO.N,Net-(J100-Pad11)*%
X13463305Y-9127800D03*
%TO.P,R104,2,2*%
%TO.N,Net-(J100-Pad10)*%
X13368055Y-8962823D03*
%TD*%
D12*
%TO.P,C2,1,1*%
%TO.N,+5V*%
X15065290Y-12378140D03*
%TO.P,C2,2,2*%
%TO.N,GND*%
X15065290Y-12568640D03*
%TD*%
D13*
%TO.P,R103,1,1*%
%TO.N,Net-(J100-Pad2)*%
X14870431Y-9160289D03*
%TO.P,R103,2,2*%
%TO.N,Net-(J100-Pad3)*%
X14965681Y-8995311D03*
%TD*%
D11*
%TO.P,GND0,1,KL*%
%TO.N,GND*%
X13347700Y-13893800D03*
%TD*%
D37*
%TO.P,Q2,1,G*%
%TO.N,Net-(Q2-G)*%
X13210400Y-12224000D03*
%TO.P,Q2,2,D*%
%TO.N,Net-(HP2-KL)*%
X13210400Y-12414000D03*
%TO.P,Q2,3,S*%
%TO.N,GND*%
X13510400Y-12319000D03*
%TD*%
D38*
%TO.P,R3,1,1*%
%TO.N,Net-(Q2-G)*%
X13437150Y-11451040D03*
%TO.P,R3,2,2*%
%TO.N,Net-(ARD1-PadD10)*%
X13594630Y-11451040D03*
%TD*%
D11*
%TO.P,HP1,1,KL*%
%TO.N,+9V*%
X13347700Y-12941300D03*
%TD*%
D39*
%TO.P,CN100,*%
%TO.N,*%
X13926089Y-10576162D03*
X14180089Y-10576162D03*
X14432592Y-10576162D03*
D40*
%TO.P,CN100,1,Pin_1*%
%TO.N,Net-(CN100-Pin_1)*%
X13926089Y-10258662D03*
%TO.P,CN100,2,Pin_2*%
%TO.N,Net-(CN100-Pin_2)*%
X14180089Y-10258662D03*
%TO.P,CN100,3,Pin_3*%
%TO.N,Net-(CN100-Pin_3)*%
X14432592Y-10258662D03*
%TD*%
D10*
%TO.P,R111,1,1*%
%TO.N,Net-(J100-Pad7)*%
X14100430Y-7765311D03*
%TO.P,R111,2,2*%
%TO.N,Net-(J100-Pad6)*%
X14290930Y-7765311D03*
%TD*%
D16*
%TO.P,R110,1,1*%
%TO.N,Net-(J100-Pad8)*%
X13683191Y-7942937D03*
%TO.P,R110,2,2*%
%TO.N,Net-(J100-Pad7)*%
X13848169Y-7847687D03*
%TD*%
D41*
%TO.N,GND*%
X14112240Y-11959040D03*
D42*
X15065290Y-12721040D03*
D43*
%TO.N,+5V*%
X14354090Y-12873440D03*
%TD*%
D44*
%TO.N,+9V*%
X14471650Y-13716000D02*
X14471650Y-13643012D01*
D45*
X13617490Y-14905440D02*
X13652500Y-14870430D01*
D46*
X14424770Y-13483040D02*
X14514430Y-13483040D01*
D45*
X13652500Y-14870430D02*
X13652500Y-14781930D01*
D46*
X13888550Y-12941300D02*
X13998490Y-13051240D01*
D44*
X14514750Y-13599912D02*
X14514750Y-13483040D01*
D46*
X13888550Y-12941300D02*
X13632192Y-12941300D01*
D45*
X13388890Y-14905440D02*
X13617490Y-14905440D01*
D46*
X14388014Y-13231286D02*
X14388014Y-13446284D01*
X14121966Y-13051240D02*
X14302013Y-13231286D01*
D45*
X13347700Y-14592300D02*
X13347700Y-14864250D01*
D46*
X14388014Y-13446284D02*
X14424770Y-13483040D01*
X13595649Y-12904757D02*
X13559105Y-12941300D01*
D45*
X13347700Y-14864250D02*
X13388890Y-14905440D01*
D46*
X13559105Y-12941300D02*
X13347700Y-12941300D01*
D44*
X14471650Y-13643012D02*
X14514750Y-13599912D01*
D46*
X13998490Y-13051240D02*
X14121966Y-13051240D01*
X14388014Y-13231286D02*
X14302013Y-13231286D01*
X13632192Y-12941300D02*
X13595649Y-12904757D01*
D45*
%TO.N,GND*%
X15065290Y-12568640D02*
X15065290Y-12721040D01*
D47*
X14112240Y-12143740D02*
X14112240Y-11959040D01*
D45*
%TO.N,+5V*%
X13728700Y-13576300D02*
X13538200Y-13385800D01*
X13792200Y-13576300D02*
X13728700Y-13576300D01*
X13538200Y-13385800D02*
X13347700Y-13385800D01*
X14739620Y-12372340D02*
X14742160Y-12369800D01*
X14112240Y-12372340D02*
X14739620Y-12372340D01*
D46*
%TO.N,Net-(ARD1-PadA3)*%
X13792200Y-13322300D02*
X14135100Y-13322300D01*
X14281150Y-13468350D02*
X14281150Y-13716000D01*
D44*
X14765237Y-13716000D02*
X14765237Y-13809763D01*
D46*
X14135100Y-13322300D02*
X14281150Y-13468350D01*
D44*
X14281150Y-13798550D02*
X14281150Y-13716000D01*
X14765237Y-13809763D02*
X14732000Y-13843000D01*
X14732000Y-13843000D02*
X14325600Y-13843000D01*
X14325600Y-13843000D02*
X14281150Y-13798550D01*
%TO.N,Net-(ARD1-PadA5)*%
X14630400Y-14046200D02*
X14766840Y-14046200D01*
X14471650Y-14046200D02*
X14630400Y-14046200D01*
X14046200Y-13817600D02*
X14147800Y-13919200D01*
X14147800Y-13919200D02*
X14579600Y-13919200D01*
X14579600Y-13919200D02*
X14630400Y-13970000D01*
X14630400Y-13970000D02*
X14630400Y-14046200D01*
X14046200Y-13449300D02*
X14046200Y-13817600D01*
D45*
%TO.N,Net-(ARD1-PadD10)*%
X13696950Y-11449050D02*
X13792200Y-11544300D01*
X13596620Y-11449050D02*
X13594630Y-11451040D01*
X13696950Y-11449050D02*
X13596620Y-11449050D01*
%TO.N,Net-(ARD1-PadRAW)*%
X13792200Y-14338300D02*
X13728700Y-14338300D01*
X13652500Y-14414500D02*
X13652500Y-14528800D01*
X13728700Y-14338300D02*
X13652500Y-14414500D01*
D46*
%TO.N,Net-(CN100-Pin_1)*%
X13926089Y-10258662D02*
X13926089Y-9735090D01*
X13893800Y-9702800D02*
X13893800Y-9498567D01*
X13893800Y-9498567D02*
X13828169Y-9432937D01*
X13926089Y-9735090D02*
X13893800Y-9702800D01*
%TO.N,Net-(CN100-Pin_2)*%
X14180089Y-9500992D02*
X14174846Y-9495749D01*
X14180089Y-10258662D02*
X14180089Y-9500992D01*
%TO.N,Net-(CN100-Pin_3)*%
X14432592Y-10258662D02*
X14432592Y-9722808D01*
X14530703Y-9430562D02*
X14443183Y-9477445D01*
X14443183Y-9477445D02*
X14465300Y-9690100D01*
X14432592Y-9722808D02*
X14465300Y-9690100D01*
D45*
%TO.N,Net-(D1-K)*%
X14112240Y-12600940D02*
X14112240Y-12910990D01*
X14253350Y-13052100D02*
X14862950Y-13052100D01*
X14112240Y-12910990D02*
X14253350Y-13052100D01*
D46*
X14898014Y-13231286D02*
X14898014Y-13434486D01*
X14849461Y-13483040D02*
X14752550Y-13483040D01*
X14898014Y-13434486D02*
X14849461Y-13483040D01*
D45*
X14862950Y-13052100D02*
X14898014Y-13087164D01*
X14898014Y-13087164D02*
X14898014Y-13231286D01*
D44*
%TO.N,Net-(HP2-KL)*%
X13303000Y-12414000D02*
X13347700Y-12458700D01*
X13210400Y-12414000D02*
X13303000Y-12414000D01*
X13568692Y-12687300D02*
X13347700Y-12687300D01*
X13347700Y-12458700D02*
X13347700Y-12687300D01*
X13595649Y-12714257D02*
X13568692Y-12687300D01*
D46*
%TO.N,Net-(J100-Pad2)*%
X14824568Y-9237744D02*
X14960600Y-9410700D01*
X14695680Y-9335312D02*
X14789794Y-9284556D01*
X14789794Y-9284556D02*
X14960600Y-9410700D01*
X14870431Y-9160289D02*
X14824568Y-9237744D01*
%TO.N,Net-(J100-Pad3)*%
X15025681Y-8735813D02*
X15025190Y-8820451D01*
X14965681Y-8995311D02*
X15009140Y-8915412D01*
X15025190Y-8820451D02*
X15240000Y-8915400D01*
X15009140Y-8915412D02*
X15240000Y-8915400D01*
%TO.N,Net-(J100-Pad4)*%
X14973305Y-8287800D02*
X15022515Y-8364372D01*
X15025681Y-8545313D02*
X15030540Y-8462008D01*
X15030540Y-8462008D02*
X15240000Y-8356600D01*
X15022515Y-8364372D02*
X15240000Y-8356600D01*
%TO.N,Net-(J100-Pad5)*%
X14878055Y-8122822D02*
X14840232Y-8042401D01*
X14840232Y-8042401D02*
X14947900Y-7861300D01*
X14796541Y-7972853D02*
X14947900Y-7861300D01*
X14718170Y-7932937D02*
X14796541Y-7972853D01*
%TO.N,Net-(J100-Pad6)*%
X14475282Y-7784835D02*
X14553192Y-7837687D01*
X14465300Y-7666015D02*
X14475282Y-7784835D01*
X14366003Y-7765311D02*
X14465300Y-7666015D01*
X14290930Y-7765311D02*
X14366003Y-7765311D01*
X14465300Y-7569200D02*
X14465300Y-7666015D01*
%TO.N,Net-(J100-Pad7)*%
X13893800Y-7569200D02*
X14011656Y-7768994D01*
X14011656Y-7768994D02*
X14100430Y-7765311D01*
X13904658Y-7783260D02*
X13902280Y-7733922D01*
X13902280Y-7733922D02*
X13893800Y-7569200D01*
X13848169Y-7847687D02*
X13904658Y-7783260D01*
%TO.N,Net-(J100-Pad8)*%
X13601132Y-7988131D02*
X13683191Y-7942937D01*
X13513552Y-8033099D02*
X13473306Y-8112823D01*
X13385800Y-7861300D02*
X13601132Y-7988131D01*
X13385800Y-7861300D02*
X13513552Y-8033099D01*
%TO.N,Net-(J100-Pad9)*%
X13325534Y-8344551D02*
X13378056Y-8277800D01*
X13304729Y-8449765D02*
X13305680Y-8530062D01*
X13119100Y-8356600D02*
X13325534Y-8344551D01*
X13119100Y-8356600D02*
X13304729Y-8449765D01*
%TO.N,Net-(J100-Pad10)*%
X13305918Y-8807583D02*
X13305680Y-8720562D01*
X13106400Y-8915400D02*
X13305918Y-8807583D01*
X13315726Y-8893181D02*
X13106400Y-8915400D01*
X13368055Y-8962823D02*
X13315726Y-8893181D01*
%TO.N,Net-(J100-Pad11)*%
X13509006Y-9207990D02*
X13385800Y-9410700D01*
X13576177Y-9292994D02*
X13385800Y-9410700D01*
X13663192Y-9337687D02*
X13576177Y-9292994D01*
X13463305Y-9127800D02*
X13509006Y-9207990D01*
%TO.N,Net-(J100-PadA)*%
X14174846Y-9193154D02*
X14174846Y-9305249D01*
X14452600Y-8915400D02*
X14174846Y-9193154D01*
D44*
%TO.N,Net-(Q2-G)*%
X13538200Y-11639550D02*
X13538200Y-11798300D01*
X13062200Y-12224000D02*
X13030200Y-12192000D01*
X13210400Y-12224000D02*
X13062200Y-12224000D01*
X13030200Y-11861800D02*
X13093700Y-11798300D01*
X13093700Y-11798300D02*
X13538200Y-11798300D01*
X13030200Y-12192000D02*
X13030200Y-11861800D01*
X13437150Y-11451040D02*
X13437150Y-11538500D01*
X13437150Y-11538500D02*
X13538200Y-11639550D01*
D46*
%TO.N,Net-(SIN0-KL)*%
X13973090Y-13787840D02*
X13973090Y-13998490D01*
X13474700Y-13639800D02*
X13538200Y-13703300D01*
X13973090Y-13998490D02*
X14020800Y-14046200D01*
X13888550Y-13703300D02*
X13973090Y-13787840D01*
X13538200Y-13703300D02*
X13888550Y-13703300D01*
D45*
X13347700Y-13639800D02*
X13474700Y-13639800D01*
D46*
X14020800Y-14046200D02*
X14281150Y-14046200D01*
%TD*%
%TA.AperFunction,Conductor*%
%TO.N,+5V*%
G36*
X13958948Y-11659918D02*
G01*
X13966714Y-11665962D01*
X13966714Y-11665963D01*
X13976577Y-11671300D01*
X13987823Y-11677386D01*
X13987824Y-11677386D01*
X13987824Y-11677386D01*
X14010524Y-11685179D01*
X14010524Y-11685179D01*
X14010524Y-11685179D01*
X14034199Y-11689130D01*
X14034199Y-11689130D01*
X14058201Y-11689130D01*
X14058201Y-11689130D01*
X14081875Y-11685179D01*
X14104577Y-11677386D01*
X14125686Y-11665962D01*
X14133452Y-11659918D01*
X14137291Y-11658600D01*
X14209109Y-11658600D01*
X14212948Y-11659918D01*
X14220714Y-11665962D01*
X14220714Y-11665963D01*
X14230577Y-11671300D01*
X14241823Y-11677386D01*
X14241824Y-11677386D01*
X14241824Y-11677386D01*
X14264524Y-11685179D01*
X14264524Y-11685179D01*
X14264524Y-11685179D01*
X14288199Y-11689130D01*
X14288199Y-11689130D01*
X14312201Y-11689130D01*
X14312201Y-11689130D01*
X14335875Y-11685179D01*
X14358577Y-11677386D01*
X14379686Y-11665962D01*
X14387452Y-11659918D01*
X14391291Y-11658600D01*
X14463109Y-11658600D01*
X14466948Y-11659918D01*
X14474714Y-11665962D01*
X14474714Y-11665963D01*
X14484577Y-11671300D01*
X14495823Y-11677386D01*
X14495824Y-11677386D01*
X14495824Y-11677386D01*
X14518524Y-11685179D01*
X14518524Y-11685179D01*
X14518524Y-11685179D01*
X14542199Y-11689130D01*
X14542199Y-11689130D01*
X14566201Y-11689130D01*
X14566201Y-11689130D01*
X14589875Y-11685179D01*
X14612577Y-11677386D01*
X14633686Y-11665962D01*
X14641452Y-11659918D01*
X14645291Y-11658600D01*
X15195482Y-11658600D01*
X15199901Y-11660431D01*
X15201732Y-11664850D01*
X15201729Y-11665016D01*
X15200565Y-11708798D01*
X15199549Y-11712050D01*
X15188389Y-11729132D01*
X15188389Y-11729132D01*
X15188389Y-11729132D01*
X15178748Y-11751113D01*
X15172856Y-11774380D01*
X15170874Y-11798300D01*
X15172856Y-11822220D01*
X15178748Y-11845487D01*
X15178748Y-11845488D01*
X15188389Y-11867468D01*
X15188389Y-11867468D01*
X15194967Y-11877535D01*
X15195982Y-11881120D01*
X15193523Y-11973576D01*
X15192508Y-11976828D01*
X15188389Y-11983132D01*
X15188389Y-11983132D01*
X15178748Y-12005112D01*
X15178748Y-12005113D01*
X15172856Y-12028380D01*
X15171529Y-12044388D01*
X15170874Y-12052300D01*
X15172856Y-12076220D01*
X15178748Y-12099487D01*
X15188389Y-12121468D01*
X15188475Y-12121600D01*
X15188492Y-12121657D01*
X15188512Y-12121695D01*
X15188504Y-12121700D01*
X15189491Y-12125185D01*
X15186426Y-12240459D01*
X15185901Y-12242803D01*
X15178748Y-12259112D01*
X15172856Y-12282380D01*
X15172855Y-12282381D01*
X15171418Y-12299725D01*
X15169229Y-12303978D01*
X15164673Y-12305437D01*
X15160770Y-12303628D01*
X15152618Y-12295476D01*
X15142220Y-12290885D01*
X15139679Y-12290590D01*
X15080490Y-12290590D01*
X15080490Y-12362940D01*
X15165540Y-12362940D01*
X15165540Y-12351471D01*
X15167370Y-12347052D01*
X15171790Y-12345221D01*
X15176209Y-12347052D01*
X15177849Y-12349936D01*
X15178237Y-12351471D01*
X15178748Y-12353487D01*
X15182591Y-12362250D01*
X15183115Y-12364927D01*
X15180674Y-12456748D01*
X15178726Y-12461117D01*
X15174260Y-12462829D01*
X15171244Y-12461961D01*
X15164406Y-12457917D01*
X15161534Y-12454092D01*
X15161870Y-12450013D01*
X15165245Y-12442370D01*
X15165540Y-12439829D01*
X15165540Y-12393340D01*
X14965040Y-12393340D01*
X14965040Y-12439829D01*
X14965335Y-12442371D01*
X14965335Y-12442371D01*
X14968709Y-12450013D01*
X14968820Y-12454796D01*
X14966173Y-12457917D01*
X14957749Y-12462899D01*
X14946850Y-12473799D01*
X14940501Y-12484533D01*
X14939256Y-12486640D01*
X14939003Y-12487068D01*
X14934702Y-12501870D01*
X14934702Y-12501870D01*
X14934430Y-12505328D01*
X14934430Y-12631952D01*
X14934702Y-12635410D01*
X14934702Y-12635410D01*
X14939003Y-12650213D01*
X14945037Y-12660416D01*
X14946850Y-12663481D01*
X14949142Y-12665773D01*
X14950973Y-12670193D01*
X14950387Y-12672834D01*
X14947842Y-12678292D01*
X14942203Y-12699335D01*
X14942203Y-12699337D01*
X14940304Y-12721040D01*
X14940304Y-12721040D01*
X14942203Y-12742743D01*
X14942203Y-12742745D01*
X14947842Y-12763786D01*
X14947842Y-12763788D01*
X14957049Y-12783532D01*
X14957049Y-12783533D01*
X14969545Y-12801379D01*
X14984951Y-12816784D01*
X14985446Y-12817131D01*
X15002797Y-12829281D01*
X15002797Y-12829281D01*
X15002797Y-12829281D01*
X15017572Y-12836170D01*
X15022542Y-12838488D01*
X15022543Y-12838488D01*
X15022543Y-12838488D01*
X15043585Y-12844126D01*
X15043586Y-12844127D01*
X15043586Y-12844127D01*
X15056608Y-12845266D01*
X15065290Y-12846026D01*
X15065290Y-12846026D01*
X15065290Y-12846026D01*
X15072524Y-12845393D01*
X15086993Y-12844127D01*
X15086994Y-12844126D01*
X15086995Y-12844126D01*
X15108036Y-12838488D01*
X15108036Y-12838488D01*
X15108038Y-12838488D01*
X15127783Y-12829281D01*
X15145629Y-12816784D01*
X15160710Y-12801703D01*
X15165130Y-12799872D01*
X15169549Y-12801703D01*
X15171380Y-12806122D01*
X15171378Y-12806289D01*
X15171305Y-12809037D01*
X15171295Y-12809212D01*
X15170874Y-12814300D01*
X15171080Y-12816790D01*
X15171089Y-12817131D01*
X15167052Y-12968956D01*
X15165104Y-12973325D01*
X15160804Y-12975040D01*
X14917392Y-12975040D01*
X14913988Y-12974032D01*
X14913748Y-12973876D01*
X14907299Y-12970590D01*
X14907156Y-12970512D01*
X14900887Y-12966893D01*
X14899025Y-12966288D01*
X14898120Y-12965913D01*
X14896376Y-12965024D01*
X14896375Y-12965024D01*
X14889383Y-12963150D01*
X14889227Y-12963104D01*
X14883920Y-12961380D01*
X14882342Y-12960867D01*
X14882342Y-12960867D01*
X14880395Y-12960662D01*
X14879431Y-12960484D01*
X14877540Y-12959977D01*
X14873318Y-12959756D01*
X14870310Y-12959598D01*
X14870150Y-12959586D01*
X14867811Y-12959340D01*
X14867811Y-12959340D01*
X14865460Y-12959340D01*
X14865297Y-12959336D01*
X14864302Y-12959283D01*
X14858069Y-12958957D01*
X14856135Y-12959263D01*
X14855158Y-12959340D01*
X14294361Y-12959340D01*
X14289942Y-12957509D01*
X14206831Y-12874398D01*
X14205000Y-12869979D01*
X14205000Y-12743130D01*
X14206831Y-12738710D01*
X14211250Y-12736880D01*
X14218732Y-12736880D01*
X14220708Y-12736724D01*
X14222190Y-12736608D01*
X14236993Y-12732307D01*
X14250261Y-12724460D01*
X14261160Y-12713561D01*
X14269007Y-12700293D01*
X14273308Y-12685490D01*
X14273580Y-12682031D01*
X14273580Y-12564839D01*
X14611430Y-12564839D01*
X14611725Y-12567381D01*
X14611725Y-12567381D01*
X14616316Y-12577778D01*
X14624352Y-12585814D01*
X14634749Y-12590405D01*
X14637291Y-12590700D01*
X14847029Y-12590700D01*
X14849571Y-12590405D01*
X14849571Y-12590405D01*
X14859968Y-12585814D01*
X14868004Y-12577778D01*
X14872595Y-12567380D01*
X14872890Y-12564839D01*
X14872890Y-12522026D01*
X14742160Y-12391296D01*
X14611430Y-12522026D01*
X14611430Y-12564839D01*
X14273580Y-12564839D01*
X14273580Y-12519849D01*
X14273308Y-12516390D01*
X14269007Y-12501587D01*
X14261160Y-12488319D01*
X14261160Y-12488319D01*
X14261160Y-12488319D01*
X14250261Y-12477419D01*
X14250261Y-12477419D01*
X14240947Y-12471911D01*
X14238075Y-12468086D01*
X14238411Y-12464007D01*
X14242675Y-12454350D01*
X14242970Y-12451809D01*
X14242970Y-12292871D01*
X14242675Y-12290329D01*
X14242675Y-12290329D01*
X14238411Y-12280672D01*
X14238301Y-12275890D01*
X14240947Y-12272768D01*
X14250261Y-12267260D01*
X14256955Y-12260566D01*
X14611430Y-12260566D01*
X14611430Y-12479034D01*
X14720664Y-12369800D01*
X14763656Y-12369800D01*
X14872890Y-12479034D01*
X14872890Y-12479034D01*
X14872890Y-12362940D01*
X14965040Y-12362940D01*
X15050090Y-12362940D01*
X15050090Y-12290590D01*
X14990901Y-12290590D01*
X14988359Y-12290885D01*
X14988359Y-12290885D01*
X14977962Y-12295476D01*
X14969926Y-12303512D01*
X14965335Y-12313909D01*
X14965040Y-12316451D01*
X14965040Y-12362940D01*
X14872890Y-12362940D01*
X14872890Y-12260566D01*
X14872890Y-12260566D01*
X14763656Y-12369800D01*
X14763656Y-12369800D01*
X14720664Y-12369800D01*
X14720664Y-12369800D01*
X14611430Y-12260566D01*
X14256955Y-12260566D01*
X14261160Y-12256361D01*
X14269007Y-12243093D01*
X14273308Y-12228290D01*
X14273580Y-12224831D01*
X14273580Y-12217574D01*
X14611430Y-12217574D01*
X14742160Y-12348304D01*
X14872890Y-12217574D01*
X14872890Y-12174761D01*
X14872595Y-12172219D01*
X14872595Y-12172219D01*
X14868004Y-12161822D01*
X14859968Y-12153786D01*
X14849570Y-12149195D01*
X14847029Y-12148900D01*
X14637291Y-12148900D01*
X14634749Y-12149195D01*
X14634749Y-12149195D01*
X14624352Y-12153786D01*
X14616316Y-12161822D01*
X14611725Y-12172219D01*
X14611430Y-12174761D01*
X14611430Y-12217574D01*
X14273580Y-12217574D01*
X14273580Y-12062649D01*
X14273308Y-12059190D01*
X14269007Y-12044387D01*
X14261160Y-12031119D01*
X14261160Y-12031119D01*
X14261160Y-12031119D01*
X14250261Y-12020219D01*
X14250261Y-12020219D01*
X14237898Y-12012908D01*
X14235025Y-12009083D01*
X14235415Y-12004887D01*
X14235819Y-12004019D01*
X14241556Y-11982609D01*
X14241752Y-11981878D01*
X14241752Y-11981877D01*
X14241752Y-11981876D01*
X14243750Y-11959040D01*
X14241752Y-11936203D01*
X14240261Y-11930638D01*
X14235819Y-11914061D01*
X14235819Y-11914061D01*
X14231697Y-11905220D01*
X14226131Y-11893285D01*
X14222124Y-11887561D01*
X14212983Y-11874506D01*
X14196773Y-11858297D01*
X14184827Y-11849932D01*
X14177995Y-11845149D01*
X14177995Y-11845149D01*
X14177995Y-11845149D01*
X14157219Y-11835460D01*
X14157219Y-11835460D01*
X14135078Y-11829528D01*
X14135076Y-11829527D01*
X14112240Y-11827530D01*
X14112240Y-11827530D01*
X14089404Y-11829527D01*
X14089402Y-11829528D01*
X14067261Y-11835460D01*
X14067261Y-11835460D01*
X14046485Y-11845149D01*
X14027706Y-11858297D01*
X14011497Y-11874506D01*
X13998349Y-11893285D01*
X13988660Y-11914061D01*
X13988660Y-11914061D01*
X13982728Y-11936202D01*
X13982727Y-11936204D01*
X13980730Y-11959040D01*
X13980730Y-11959040D01*
X13982357Y-11977645D01*
X13980919Y-11982207D01*
X13976676Y-11984416D01*
X13976131Y-11984440D01*
X13924247Y-11984440D01*
X13919828Y-11982609D01*
X13919015Y-11981608D01*
X13917445Y-11979205D01*
X13916430Y-11975982D01*
X13913415Y-11879623D01*
X13914430Y-11876010D01*
X13920011Y-11867468D01*
X13929652Y-11845487D01*
X13935544Y-11822220D01*
X13937526Y-11798300D01*
X13935544Y-11774380D01*
X13929652Y-11751113D01*
X13920011Y-11729132D01*
X13909098Y-11712429D01*
X13908083Y-11709206D01*
X13906702Y-11665045D01*
X13908393Y-11660571D01*
X13912753Y-11658603D01*
X13912949Y-11658600D01*
X13955109Y-11658600D01*
X13958948Y-11659918D01*
G37*
%TD.AperFunction*%
%TD*%
%TA.AperFunction,Conductor*%
%TO.N,GND*%
G36*
X13894458Y-13927862D02*
G01*
X13900187Y-13932150D01*
X13902688Y-13938855D01*
X13902720Y-13939761D01*
X13902720Y-13996173D01*
X13902708Y-13996557D01*
X13902289Y-14003495D01*
X13899862Y-14010227D01*
X13894180Y-14014578D01*
X13888732Y-14015398D01*
X13882996Y-14014999D01*
X13836792Y-14061204D01*
X13830376Y-14051220D01*
X13819510Y-14041805D01*
X13815177Y-14039826D01*
X13861807Y-13993197D01*
X13861328Y-13992760D01*
X13861327Y-13992760D01*
X13843331Y-13981616D01*
X13838957Y-13979922D01*
X13833283Y-13975562D01*
X13830866Y-13968826D01*
X13832476Y-13961853D01*
X13837599Y-13956857D01*
X13838177Y-13956570D01*
X13843367Y-13954150D01*
X13859391Y-13946678D01*
X13878579Y-13933242D01*
X13881040Y-13930781D01*
X13887320Y-13927351D01*
X13894458Y-13927862D01*
G37*
%TD.AperFunction*%
%TA.AperFunction,Conductor*%
G36*
X15074656Y-12555456D02*
G01*
X15079342Y-12560864D01*
X15080490Y-12566140D01*
X15080490Y-12656190D01*
X15080490Y-12656190D01*
X15139678Y-12656190D01*
X15139680Y-12656190D01*
X15142220Y-12655895D01*
X15142221Y-12655895D01*
X15152618Y-12651304D01*
X15160654Y-12643268D01*
X15165245Y-12632870D01*
X15165540Y-12630329D01*
X15165540Y-12611258D01*
X15167556Y-12604392D01*
X15172964Y-12599706D01*
X15180047Y-12598687D01*
X15186557Y-12601660D01*
X15189750Y-12605891D01*
X15199822Y-12627490D01*
X15199823Y-12627491D01*
X15209703Y-12641601D01*
X15213258Y-12646679D01*
X15229821Y-12663242D01*
X15231494Y-12664414D01*
X15249322Y-12676897D01*
X15253790Y-12682486D01*
X15254527Y-12689604D01*
X15251298Y-12695991D01*
X15249322Y-12697703D01*
X15229822Y-12711357D01*
X15229822Y-12711358D01*
X15213258Y-12727922D01*
X15213257Y-12727922D01*
X15205367Y-12739190D01*
X15199777Y-12743658D01*
X15192659Y-12744395D01*
X15190104Y-12743639D01*
X15188669Y-12743045D01*
X15187722Y-12742670D01*
X15186873Y-12742334D01*
X15186872Y-12742333D01*
X15171881Y-12738734D01*
X15171880Y-12738734D01*
X15156465Y-12738976D01*
X15156464Y-12738976D01*
X15141593Y-12743044D01*
X15141592Y-12743044D01*
X15137173Y-12744875D01*
X15129399Y-12748759D01*
X15117215Y-12758210D01*
X15106725Y-12768700D01*
X15105030Y-12770122D01*
X15097820Y-12775170D01*
X15095903Y-12776277D01*
X15087927Y-12779997D01*
X15085847Y-12780754D01*
X15077344Y-12783032D01*
X15075164Y-12783417D01*
X15066397Y-12784184D01*
X15064183Y-12784184D01*
X15055416Y-12783417D01*
X15053236Y-12783032D01*
X15044733Y-12780754D01*
X15042653Y-12779997D01*
X15034677Y-12776278D01*
X15032759Y-12775171D01*
X15025550Y-12770122D01*
X15023854Y-12768699D01*
X15017630Y-12762476D01*
X15016207Y-12760780D01*
X15011159Y-12753570D01*
X15010052Y-12751653D01*
X15006332Y-12743676D01*
X15005576Y-12741597D01*
X15003298Y-12733095D01*
X15002913Y-12730916D01*
X15002146Y-12722146D01*
X15002146Y-12719933D01*
X15002913Y-12711164D01*
X15003297Y-12708985D01*
X15005689Y-12700060D01*
X15005930Y-12699336D01*
X15006134Y-12698830D01*
X15006134Y-12698828D01*
X15010439Y-12686146D01*
X15011025Y-12683505D01*
X15012111Y-12676942D01*
X15011988Y-12669089D01*
X15013896Y-12662192D01*
X15019229Y-12657422D01*
X15024686Y-12656190D01*
X15050090Y-12656190D01*
X15050090Y-12656190D01*
X15050090Y-12566140D01*
X15052106Y-12559274D01*
X15057514Y-12554588D01*
X15062790Y-12553440D01*
X15067790Y-12553440D01*
X15074656Y-12555456D01*
G37*
%TD.AperFunction*%
%TA.AperFunction,Conductor*%
G36*
X13408880Y-11870366D02*
G01*
X13412646Y-11874104D01*
X13422139Y-11888633D01*
X13424148Y-11890816D01*
X13438478Y-11906382D01*
X13438591Y-11906505D01*
X13451573Y-11916609D01*
X13457759Y-11921424D01*
X13479122Y-11932985D01*
X13502096Y-11940872D01*
X13526055Y-11944870D01*
X13526055Y-11944870D01*
X13550345Y-11944870D01*
X13550345Y-11944870D01*
X13574304Y-11940872D01*
X13597278Y-11932985D01*
X13618641Y-11921424D01*
X13637809Y-11906505D01*
X13654261Y-11888634D01*
X13662222Y-11876447D01*
X13667665Y-11871802D01*
X13674756Y-11870837D01*
X13681243Y-11873858D01*
X13683257Y-11876109D01*
X13687983Y-11882857D01*
X13689258Y-11884679D01*
X13705821Y-11901242D01*
X13705822Y-11901242D01*
X13705822Y-11901242D01*
X13725322Y-11914897D01*
X13729790Y-11920486D01*
X13730527Y-11927604D01*
X13727298Y-11933991D01*
X13725322Y-11935703D01*
X13705821Y-11949358D01*
X13689258Y-11965922D01*
X13689257Y-11965922D01*
X13675823Y-11985109D01*
X13675822Y-11985110D01*
X13665923Y-12006338D01*
X13665923Y-12006339D01*
X13665923Y-12006339D01*
X13664142Y-12012985D01*
X13659860Y-12028964D01*
X13659210Y-12036394D01*
X13657819Y-12052300D01*
X13657836Y-12052502D01*
X13659860Y-12075635D01*
X13662796Y-12086590D01*
X13665923Y-12098261D01*
X13665923Y-12098261D01*
X13665923Y-12098262D01*
X13675822Y-12119490D01*
X13675823Y-12119491D01*
X13684418Y-12131767D01*
X13689258Y-12138679D01*
X13705821Y-12155242D01*
X13705822Y-12155242D01*
X13705822Y-12155242D01*
X13725322Y-12168897D01*
X13729790Y-12174486D01*
X13730527Y-12181604D01*
X13727298Y-12187991D01*
X13725322Y-12189703D01*
X13705822Y-12203357D01*
X13705822Y-12203358D01*
X13689258Y-12219922D01*
X13689257Y-12219922D01*
X13675823Y-12239109D01*
X13675822Y-12239110D01*
X13665923Y-12260338D01*
X13665923Y-12260339D01*
X13665923Y-12260339D01*
X13661507Y-12276818D01*
X13660767Y-12279580D01*
X13657043Y-12285690D01*
X13650606Y-12288817D01*
X13643500Y-12287968D01*
X13637982Y-12283411D01*
X13635803Y-12276595D01*
X13635800Y-12276293D01*
X13635800Y-12274462D01*
X13635800Y-12274460D01*
X13635505Y-12271920D01*
X13635505Y-12271919D01*
X13630914Y-12261522D01*
X13622878Y-12253486D01*
X13612480Y-12248895D01*
X13609939Y-12248600D01*
X13525600Y-12248600D01*
X13525600Y-12248600D01*
X13525600Y-12389400D01*
X13525600Y-12389400D01*
X13609938Y-12389400D01*
X13609940Y-12389400D01*
X13612480Y-12389105D01*
X13612481Y-12389105D01*
X13622878Y-12384514D01*
X13630914Y-12376478D01*
X13635505Y-12366080D01*
X13635800Y-12363539D01*
X13635800Y-12336307D01*
X13637816Y-12329441D01*
X13643224Y-12324755D01*
X13650307Y-12323736D01*
X13656817Y-12326709D01*
X13660685Y-12332729D01*
X13660767Y-12333020D01*
X13665923Y-12352261D01*
X13675822Y-12373490D01*
X13675823Y-12373491D01*
X13687510Y-12390182D01*
X13689258Y-12392679D01*
X13705821Y-12409242D01*
X13705822Y-12409242D01*
X13705822Y-12409242D01*
X13725322Y-12422897D01*
X13729790Y-12428486D01*
X13730527Y-12435604D01*
X13727298Y-12441991D01*
X13725322Y-12443703D01*
X13705822Y-12457357D01*
X13705822Y-12457358D01*
X13689258Y-12473922D01*
X13689257Y-12473922D01*
X13675823Y-12493109D01*
X13675822Y-12493110D01*
X13665923Y-12514338D01*
X13665923Y-12514339D01*
X13665923Y-12514339D01*
X13665277Y-12516750D01*
X13659860Y-12536964D01*
X13657819Y-12560300D01*
X13659860Y-12583635D01*
X13662796Y-12594590D01*
X13665923Y-12606261D01*
X13665923Y-12606261D01*
X13665923Y-12606262D01*
X13675822Y-12627490D01*
X13675823Y-12627491D01*
X13681022Y-12634917D01*
X13683309Y-12641698D01*
X13681567Y-12648639D01*
X13676349Y-12653536D01*
X13669312Y-12654834D01*
X13663008Y-12652368D01*
X13658893Y-12649288D01*
X13645408Y-12644258D01*
X13645408Y-12644258D01*
X13645408Y-12644258D01*
X13639448Y-12643617D01*
X13639447Y-12643617D01*
X13629336Y-12643617D01*
X13622470Y-12641601D01*
X13620356Y-12639898D01*
X13619856Y-12639398D01*
X13619593Y-12639119D01*
X13615485Y-12634482D01*
X13615457Y-12634462D01*
X13610384Y-12630961D01*
X13610077Y-12630735D01*
X13605198Y-12626912D01*
X13605198Y-12626912D01*
X13604298Y-12626507D01*
X13602297Y-12625378D01*
X13601485Y-12624818D01*
X13601485Y-12624818D01*
X13601485Y-12624818D01*
X13601485Y-12624818D01*
X13595692Y-12622621D01*
X13595337Y-12622474D01*
X13589685Y-12619930D01*
X13588714Y-12619752D01*
X13586501Y-12619135D01*
X13585580Y-12618786D01*
X13585579Y-12618786D01*
X13585579Y-12618786D01*
X13581961Y-12618347D01*
X13579429Y-12618039D01*
X13579050Y-12617981D01*
X13572953Y-12616864D01*
X13572952Y-12616864D01*
X13569549Y-12617070D01*
X13566767Y-12617238D01*
X13566384Y-12617250D01*
X13524055Y-12617250D01*
X13517189Y-12615234D01*
X13514126Y-12612469D01*
X13506755Y-12603225D01*
X13506755Y-12603225D01*
X13490330Y-12588875D01*
X13490329Y-12588875D01*
X13471606Y-12577688D01*
X13451186Y-12570024D01*
X13429724Y-12566130D01*
X13429310Y-12566092D01*
X13422653Y-12563468D01*
X13418471Y-12557661D01*
X13417750Y-12553444D01*
X13417750Y-12461007D01*
X13417762Y-12460624D01*
X13418136Y-12454439D01*
X13417019Y-12448344D01*
X13416961Y-12447964D01*
X13416214Y-12441813D01*
X13415864Y-12440891D01*
X13415247Y-12438676D01*
X13415069Y-12437707D01*
X13412525Y-12432055D01*
X13412379Y-12431701D01*
X13412112Y-12430995D01*
X13410182Y-12425907D01*
X13409621Y-12425095D01*
X13408492Y-12423092D01*
X13408088Y-12422194D01*
X13408088Y-12422194D01*
X13407008Y-12420817D01*
X13404265Y-12417315D01*
X13404039Y-12417008D01*
X13402713Y-12415087D01*
X13400518Y-12411907D01*
X13400518Y-12411907D01*
X13400518Y-12411907D01*
X13399949Y-12411402D01*
X13396146Y-12405340D01*
X13396225Y-12398185D01*
X13400159Y-12392207D01*
X13406701Y-12389306D01*
X13409834Y-12389281D01*
X13410860Y-12389400D01*
X13495200Y-12389400D01*
X13495200Y-12389400D01*
X13495200Y-12334200D01*
X13495200Y-12334200D01*
X13385000Y-12334200D01*
X13385000Y-12363538D01*
X13385000Y-12363540D01*
X13385178Y-12365074D01*
X13383966Y-12372126D01*
X13379133Y-12377404D01*
X13372215Y-12379231D01*
X13365406Y-12377028D01*
X13363582Y-12375516D01*
X13358398Y-12370332D01*
X13354968Y-12364051D01*
X13354903Y-12363650D01*
X13354809Y-12363252D01*
X13354809Y-12363252D01*
X13354809Y-12363252D01*
X13349780Y-12349767D01*
X13341155Y-12338245D01*
X13329633Y-12329620D01*
X13329633Y-12329620D01*
X13329027Y-12329167D01*
X13324739Y-12323438D01*
X13324228Y-12316300D01*
X13327658Y-12310020D01*
X13329027Y-12308833D01*
X13329633Y-12308380D01*
X13329633Y-12308380D01*
X13335751Y-12303800D01*
X13385000Y-12303800D01*
X13385000Y-12303800D01*
X13495200Y-12303800D01*
X13495200Y-12303800D01*
X13495200Y-12248600D01*
X13495200Y-12248600D01*
X13410862Y-12248600D01*
X13410860Y-12248600D01*
X13408320Y-12248895D01*
X13408319Y-12248895D01*
X13397922Y-12253486D01*
X13389886Y-12261522D01*
X13385295Y-12271919D01*
X13385000Y-12274461D01*
X13385000Y-12303800D01*
X13335751Y-12303800D01*
X13341155Y-12299755D01*
X13349780Y-12288233D01*
X13354809Y-12274748D01*
X13355450Y-12268787D01*
X13355450Y-12179213D01*
X13354809Y-12173252D01*
X13349780Y-12159767D01*
X13341155Y-12148245D01*
X13341154Y-12148245D01*
X13329633Y-12139620D01*
X13329633Y-12139620D01*
X13317559Y-12135117D01*
X13311830Y-12130828D01*
X13309329Y-12124124D01*
X13310850Y-12117131D01*
X13315910Y-12112071D01*
X13318710Y-12110950D01*
X13327775Y-12108521D01*
X13347902Y-12099136D01*
X13362687Y-12088783D01*
X13300175Y-12026271D01*
X13308385Y-12022088D01*
X13317488Y-12012985D01*
X13321671Y-12004775D01*
X13384183Y-12067287D01*
X13394536Y-12052502D01*
X13403921Y-12032375D01*
X13409669Y-12010924D01*
X13411605Y-11988800D01*
X13409669Y-11966676D01*
X13403921Y-11945225D01*
X13394536Y-11925099D01*
X13394536Y-11925098D01*
X13384183Y-11910313D01*
X13321671Y-11972824D01*
X13317488Y-11964615D01*
X13308385Y-11955512D01*
X13300175Y-11951328D01*
X13362687Y-11888817D01*
X13362483Y-11886488D01*
X13361984Y-11885863D01*
X13361248Y-11878745D01*
X13364476Y-11872359D01*
X13370645Y-11868732D01*
X13373737Y-11868350D01*
X13402014Y-11868350D01*
X13408880Y-11870366D01*
G37*
%TD.AperFunction*%
%TA.AperFunction,Conductor*%
G36*
X13201529Y-11870366D02*
G01*
X13206215Y-11875774D01*
X13207234Y-11882857D01*
X13205997Y-11885565D01*
X13205713Y-11888817D01*
X13268225Y-11951328D01*
X13260015Y-11955512D01*
X13250912Y-11964615D01*
X13246728Y-11972825D01*
X13184217Y-11910313D01*
X13184216Y-11910313D01*
X13173864Y-11925097D01*
X13173864Y-11925098D01*
X13164478Y-11945225D01*
X13158731Y-11966676D01*
X13156795Y-11988800D01*
X13158731Y-12010924D01*
X13164478Y-12032375D01*
X13173864Y-12052502D01*
X13173864Y-12052502D01*
X13184217Y-12067287D01*
X13246728Y-12004775D01*
X13250912Y-12012985D01*
X13260015Y-12022088D01*
X13268224Y-12026271D01*
X13205713Y-12088783D01*
X13220498Y-12099136D01*
X13220499Y-12099136D01*
X13240625Y-12108521D01*
X13242346Y-12108983D01*
X13248457Y-12112707D01*
X13251584Y-12119144D01*
X13250734Y-12126249D01*
X13246178Y-12131767D01*
X13239362Y-12133946D01*
X13239060Y-12133950D01*
X13112950Y-12133950D01*
X13106084Y-12131934D01*
X13101398Y-12126526D01*
X13100250Y-12121250D01*
X13100250Y-11896076D01*
X13102266Y-11889210D01*
X13103970Y-11887096D01*
X13118996Y-11872070D01*
X13125277Y-11868640D01*
X13127976Y-11868350D01*
X13194663Y-11868350D01*
X13201529Y-11870366D01*
G37*
%TD.AperFunction*%
%TA.AperFunction,Conductor*%
G36*
X14123248Y-11890238D02*
G01*
X14125427Y-11890622D01*
X14134319Y-11893004D01*
X14135027Y-11893194D01*
X14137108Y-11893951D01*
X14146116Y-11898152D01*
X14148032Y-11899258D01*
X14156175Y-11904959D01*
X14157870Y-11906382D01*
X14164897Y-11913409D01*
X14166320Y-11915105D01*
X14172022Y-11923248D01*
X14173128Y-11925165D01*
X14177328Y-11934171D01*
X14178085Y-11936252D01*
X14180658Y-11945852D01*
X14181042Y-11948033D01*
X14181908Y-11957933D01*
X14181908Y-11960147D01*
X14181042Y-11970047D01*
X14180658Y-11972227D01*
X14175703Y-11990720D01*
X14175785Y-11991058D01*
X14175498Y-11993202D01*
X14174168Y-11999205D01*
X14174167Y-11999207D01*
X14173778Y-12003401D01*
X14174129Y-12017749D01*
X14175390Y-12022359D01*
X14175257Y-12029514D01*
X14171277Y-12035461D01*
X14164714Y-12038312D01*
X14163140Y-12038410D01*
X14040566Y-12038410D01*
X14033700Y-12036394D01*
X14029014Y-12030986D01*
X14027995Y-12023903D01*
X14030710Y-12017700D01*
X14033139Y-12014711D01*
X14039582Y-12000703D01*
X14041020Y-11996141D01*
X14043041Y-11987692D01*
X14043633Y-11972284D01*
X14042571Y-11960147D01*
X14042571Y-11957934D01*
X14043438Y-11948031D01*
X14043822Y-11945853D01*
X14046394Y-11936251D01*
X14047151Y-11934173D01*
X14051352Y-11925163D01*
X14052458Y-11923248D01*
X14058160Y-11915105D01*
X14059581Y-11913410D01*
X14066610Y-11906382D01*
X14068304Y-11904960D01*
X14076448Y-11899258D01*
X14078364Y-11898152D01*
X14087372Y-11893951D01*
X14089451Y-11893194D01*
X14099052Y-11890622D01*
X14101231Y-11890238D01*
X14111133Y-11889371D01*
X14113346Y-11889371D01*
X14123248Y-11890238D01*
G37*
%TD.AperFunction*%
%TA.AperFunction,Conductor*%
G36*
X15640566Y-11025616D02*
G01*
X15645252Y-11031024D01*
X15646400Y-11036300D01*
X15646400Y-15197250D01*
X15644384Y-15204116D01*
X15638976Y-15208802D01*
X15633700Y-15209950D01*
X12742750Y-15209950D01*
X12735884Y-15207934D01*
X12731198Y-15202526D01*
X12730050Y-15197250D01*
X12730050Y-14596008D01*
X12951194Y-14596008D01*
X12952195Y-14614481D01*
X12957144Y-14632305D01*
X12957144Y-14632306D01*
X12957145Y-14632306D01*
X12965810Y-14648650D01*
X12972074Y-14656025D01*
X12977786Y-14662750D01*
X12977787Y-14662750D01*
X12991066Y-14672845D01*
X12992514Y-14673945D01*
X13009303Y-14681713D01*
X13027370Y-14685690D01*
X13027370Y-14685690D01*
X13041232Y-14685690D01*
X13041232Y-14685690D01*
X13055011Y-14684191D01*
X13072542Y-14678284D01*
X13088394Y-14668747D01*
X13101824Y-14656025D01*
X13112206Y-14640713D01*
X13119053Y-14623527D01*
X13122046Y-14605272D01*
X13121044Y-14586799D01*
X13117025Y-14572322D01*
X13116095Y-14568974D01*
X13116095Y-14568974D01*
X13116095Y-14568974D01*
X13107430Y-14552630D01*
X13095454Y-14538530D01*
X13095453Y-14538530D01*
X13080726Y-14527334D01*
X13080726Y-14527334D01*
X13063936Y-14519567D01*
X13050213Y-14516546D01*
X13045870Y-14515590D01*
X13032009Y-14515590D01*
X13032008Y-14515590D01*
X13018229Y-14517088D01*
X13018229Y-14517088D01*
X13000698Y-14522996D01*
X12984847Y-14532533D01*
X12984846Y-14532534D01*
X12971416Y-14545255D01*
X12961034Y-14560567D01*
X12954187Y-14577752D01*
X12954187Y-14577753D01*
X12951194Y-14596008D01*
X12951194Y-14596008D01*
X12730050Y-14596008D01*
X12730050Y-14333668D01*
X12944774Y-14333668D01*
X12945775Y-14352141D01*
X12950724Y-14369965D01*
X12950724Y-14369966D01*
X12950725Y-14369966D01*
X12959390Y-14386310D01*
X12969980Y-14398778D01*
X12971366Y-14400410D01*
X12971367Y-14400410D01*
X12983858Y-14409906D01*
X12986094Y-14411605D01*
X13002883Y-14419373D01*
X13020950Y-14423350D01*
X13020950Y-14423350D01*
X13034812Y-14423350D01*
X13034812Y-14423350D01*
X13036930Y-14423120D01*
X13048591Y-14421851D01*
X13066122Y-14415944D01*
X13081974Y-14406407D01*
X13095404Y-14393685D01*
X13105786Y-14378373D01*
X13112633Y-14361187D01*
X13115626Y-14342932D01*
X13114624Y-14324459D01*
X13109675Y-14306634D01*
X13101010Y-14290290D01*
X13089034Y-14276190D01*
X13089033Y-14276190D01*
X13074306Y-14264994D01*
X13074306Y-14264994D01*
X13057516Y-14257227D01*
X13044549Y-14254372D01*
X13039450Y-14253250D01*
X13025589Y-14253250D01*
X13025588Y-14253250D01*
X13011809Y-14254748D01*
X13011809Y-14254748D01*
X12994278Y-14260656D01*
X12978427Y-14270193D01*
X12978426Y-14270194D01*
X12964996Y-14282915D01*
X12954614Y-14298227D01*
X12947767Y-14315412D01*
X12947767Y-14315413D01*
X12944774Y-14333668D01*
X12944774Y-14333668D01*
X12730050Y-14333668D01*
X12730050Y-13889168D01*
X12944774Y-13889168D01*
X12945775Y-13907641D01*
X12950724Y-13925465D01*
X12950724Y-13925466D01*
X12950725Y-13925466D01*
X12959390Y-13941810D01*
X12967439Y-13951286D01*
X12971366Y-13955910D01*
X12971367Y-13955910D01*
X12980219Y-13962640D01*
X12986094Y-13967105D01*
X13002883Y-13974873D01*
X13020950Y-13978850D01*
X13020950Y-13978850D01*
X13034812Y-13978850D01*
X13034812Y-13978850D01*
X13036930Y-13978620D01*
X13048591Y-13977351D01*
X13066122Y-13971444D01*
X13081974Y-13961907D01*
X13095404Y-13949185D01*
X13105786Y-13933873D01*
X13112633Y-13916687D01*
X13115626Y-13898432D01*
X13115375Y-13893800D01*
X13174569Y-13893800D01*
X13176529Y-13913701D01*
X13176529Y-13913702D01*
X13182334Y-13932838D01*
X13182334Y-13932838D01*
X13191760Y-13950474D01*
X13191761Y-13950475D01*
X13204447Y-13965932D01*
X13204448Y-13965933D01*
X13219905Y-13978619D01*
X13219906Y-13978619D01*
X13233903Y-13986101D01*
X13306369Y-13913634D01*
X13307658Y-13916918D01*
X13316251Y-13927694D01*
X13327579Y-13935417D01*
X13268027Y-13994969D01*
X13271592Y-13995320D01*
X13271593Y-13995320D01*
X13423807Y-13995320D01*
X13423808Y-13995320D01*
X13427373Y-13994969D01*
X13367442Y-13935038D01*
X13373746Y-13932002D01*
X13383849Y-13922628D01*
X13389037Y-13913641D01*
X13461497Y-13986101D01*
X13475494Y-13978620D01*
X13475495Y-13978619D01*
X13490952Y-13965933D01*
X13490953Y-13965932D01*
X13503639Y-13950475D01*
X13503640Y-13950474D01*
X13513066Y-13932838D01*
X13513066Y-13932838D01*
X13518871Y-13913702D01*
X13518871Y-13913701D01*
X13520831Y-13893800D01*
X13520831Y-13893799D01*
X13518871Y-13873899D01*
X13518871Y-13873897D01*
X13513066Y-13854762D01*
X13513066Y-13854762D01*
X13503640Y-13837126D01*
X13503639Y-13837125D01*
X13490953Y-13821668D01*
X13490952Y-13821667D01*
X13475495Y-13808981D01*
X13475494Y-13808981D01*
X13461497Y-13801499D01*
X13389030Y-13873965D01*
X13387742Y-13870682D01*
X13379149Y-13859906D01*
X13367821Y-13852183D01*
X13427373Y-13792631D01*
X13423807Y-13792280D01*
X13271593Y-13792280D01*
X13268027Y-13792631D01*
X13327958Y-13852562D01*
X13321654Y-13855598D01*
X13311551Y-13864972D01*
X13306362Y-13873958D01*
X13233903Y-13801499D01*
X13233903Y-13801499D01*
X13219906Y-13808980D01*
X13219905Y-13808981D01*
X13204448Y-13821667D01*
X13204447Y-13821668D01*
X13191761Y-13837125D01*
X13191760Y-13837126D01*
X13182334Y-13854762D01*
X13182334Y-13854762D01*
X13176529Y-13873897D01*
X13176529Y-13873899D01*
X13174569Y-13893799D01*
X13174569Y-13893800D01*
X13115375Y-13893800D01*
X13114624Y-13879959D01*
X13109675Y-13862134D01*
X13101010Y-13845790D01*
X13089034Y-13831690D01*
X13089033Y-13831690D01*
X13074306Y-13820494D01*
X13074306Y-13820494D01*
X13057516Y-13812727D01*
X13044549Y-13809872D01*
X13039450Y-13808750D01*
X13025589Y-13808750D01*
X13025588Y-13808750D01*
X13011809Y-13810248D01*
X13011809Y-13810248D01*
X12994278Y-13816156D01*
X12978427Y-13825693D01*
X12978426Y-13825694D01*
X12964996Y-13838415D01*
X12954614Y-13853727D01*
X12947767Y-13870912D01*
X12947767Y-13870913D01*
X12944774Y-13889168D01*
X12944774Y-13889168D01*
X12730050Y-13889168D01*
X12730050Y-13635168D01*
X12944774Y-13635168D01*
X12945775Y-13653641D01*
X12950724Y-13671465D01*
X12950724Y-13671466D01*
X12950725Y-13671466D01*
X12959390Y-13687810D01*
X12965654Y-13695185D01*
X12971366Y-13701910D01*
X12971367Y-13701910D01*
X12986093Y-13713105D01*
X12986094Y-13713105D01*
X13002883Y-13720873D01*
X13020950Y-13724850D01*
X13020950Y-13724850D01*
X13034812Y-13724850D01*
X13034812Y-13724850D01*
X13048591Y-13723351D01*
X13066122Y-13717444D01*
X13081974Y-13707907D01*
X13095404Y-13695185D01*
X13105786Y-13679873D01*
X13112633Y-13662687D01*
X13115626Y-13644432D01*
X13114624Y-13625959D01*
X13109675Y-13608134D01*
X13101010Y-13591790D01*
X13089034Y-13577690D01*
X13089033Y-13577690D01*
X13074306Y-13566494D01*
X13074306Y-13566494D01*
X13057516Y-13558727D01*
X13042521Y-13555426D01*
X13039450Y-13554750D01*
X13025589Y-13554750D01*
X13025588Y-13554750D01*
X13011809Y-13556248D01*
X13011809Y-13556248D01*
X12994278Y-13562156D01*
X12978427Y-13571693D01*
X12978426Y-13571694D01*
X12964996Y-13584415D01*
X12954614Y-13599727D01*
X12947767Y-13616912D01*
X12947767Y-13616913D01*
X12944774Y-13635168D01*
X12944774Y-13635168D01*
X12730050Y-13635168D01*
X12730050Y-13381168D01*
X12944774Y-13381168D01*
X12945775Y-13399641D01*
X12950724Y-13417465D01*
X12950724Y-13417466D01*
X12950725Y-13417466D01*
X12959390Y-13433810D01*
X12965654Y-13441185D01*
X12971366Y-13447910D01*
X12971367Y-13447910D01*
X12980219Y-13454640D01*
X12986094Y-13459105D01*
X13002883Y-13466873D01*
X13020950Y-13470850D01*
X13020950Y-13470850D01*
X13034812Y-13470850D01*
X13034812Y-13470850D01*
X13048591Y-13469351D01*
X13066122Y-13463444D01*
X13081974Y-13453907D01*
X13095404Y-13441185D01*
X13105786Y-13425873D01*
X13112633Y-13408687D01*
X13115626Y-13390432D01*
X13114624Y-13371959D01*
X13110306Y-13356404D01*
X13109675Y-13354134D01*
X13109675Y-13354134D01*
X13109675Y-13354134D01*
X13101010Y-13337790D01*
X13089034Y-13323690D01*
X13089033Y-13323690D01*
X13074306Y-13312494D01*
X13074306Y-13312494D01*
X13057516Y-13304727D01*
X13043881Y-13301725D01*
X13039450Y-13300750D01*
X13025589Y-13300750D01*
X13025588Y-13300750D01*
X13011809Y-13302248D01*
X13011809Y-13302248D01*
X12994278Y-13308156D01*
X12978427Y-13317693D01*
X12978426Y-13317694D01*
X12964996Y-13330415D01*
X12954614Y-13345727D01*
X12947767Y-13362912D01*
X12947767Y-13362913D01*
X12944774Y-13381168D01*
X12944774Y-13381168D01*
X12730050Y-13381168D01*
X12730050Y-12936668D01*
X12944774Y-12936668D01*
X12945775Y-12955141D01*
X12950724Y-12972965D01*
X12950724Y-12972966D01*
X12950725Y-12972966D01*
X12959390Y-12989310D01*
X12965654Y-12996685D01*
X12971366Y-13003410D01*
X12971367Y-13003410D01*
X12983658Y-13012754D01*
X12986094Y-13014605D01*
X13002883Y-13022373D01*
X13020950Y-13026350D01*
X13020950Y-13026350D01*
X13034812Y-13026350D01*
X13034812Y-13026350D01*
X13048591Y-13024851D01*
X13066122Y-13018944D01*
X13081974Y-13009407D01*
X13095404Y-12996685D01*
X13105786Y-12981373D01*
X13112633Y-12964187D01*
X13115626Y-12945932D01*
X13114624Y-12927459D01*
X13109675Y-12909634D01*
X13101010Y-12893290D01*
X13089034Y-12879190D01*
X13089033Y-12879190D01*
X13074306Y-12867994D01*
X13074306Y-12867994D01*
X13057516Y-12860227D01*
X13044549Y-12857372D01*
X13039450Y-12856250D01*
X13025589Y-12856250D01*
X13025588Y-12856250D01*
X13011809Y-12857748D01*
X13011809Y-12857748D01*
X12994278Y-12863656D01*
X12978427Y-12873193D01*
X12978426Y-12873194D01*
X12964996Y-12885915D01*
X12954614Y-12901227D01*
X12947767Y-12918412D01*
X12947767Y-12918413D01*
X12944774Y-12936668D01*
X12944774Y-12936668D01*
X12730050Y-12936668D01*
X12730050Y-12682668D01*
X12944774Y-12682668D01*
X12945775Y-12701141D01*
X12950724Y-12718965D01*
X12950724Y-12718966D01*
X12950725Y-12718966D01*
X12959390Y-12735310D01*
X12966464Y-12743639D01*
X12971366Y-12749410D01*
X12971367Y-12749410D01*
X12982942Y-12758210D01*
X12986094Y-12760605D01*
X13002883Y-12768373D01*
X13020950Y-12772350D01*
X13020950Y-12772350D01*
X13034812Y-12772350D01*
X13034812Y-12772350D01*
X13048591Y-12770851D01*
X13066122Y-12764944D01*
X13081974Y-12755407D01*
X13095404Y-12742685D01*
X13105786Y-12727373D01*
X13112633Y-12710187D01*
X13115626Y-12691932D01*
X13114624Y-12673459D01*
X13109748Y-12655895D01*
X13109675Y-12655634D01*
X13109675Y-12655634D01*
X13109675Y-12655634D01*
X13101010Y-12639290D01*
X13089034Y-12625190D01*
X13089033Y-12625190D01*
X13074306Y-12613994D01*
X13074306Y-12613994D01*
X13057516Y-12606227D01*
X13043880Y-12603225D01*
X13039450Y-12602250D01*
X13025589Y-12602250D01*
X13025588Y-12602250D01*
X13011809Y-12603748D01*
X13011809Y-12603748D01*
X12994278Y-12609656D01*
X12978427Y-12619193D01*
X12978426Y-12619194D01*
X12964996Y-12631915D01*
X12954614Y-12647227D01*
X12947767Y-12664412D01*
X12947767Y-12664413D01*
X12944774Y-12682668D01*
X12944774Y-12682668D01*
X12730050Y-12682668D01*
X12730050Y-12196260D01*
X12959764Y-12196260D01*
X12959764Y-12196261D01*
X12960881Y-12202357D01*
X12960939Y-12202736D01*
X12961686Y-12208887D01*
X12961686Y-12208888D01*
X12962035Y-12209809D01*
X12962652Y-12212022D01*
X12962830Y-12212993D01*
X12965374Y-12218645D01*
X12965521Y-12218999D01*
X12967718Y-12224792D01*
X12967718Y-12224792D01*
X12967718Y-12224793D01*
X12967718Y-12224793D01*
X12968278Y-12225605D01*
X12969407Y-12227606D01*
X12969812Y-12228506D01*
X12969812Y-12228506D01*
X12973635Y-12233385D01*
X12973861Y-12233692D01*
X12975533Y-12236115D01*
X12977382Y-12238793D01*
X12982019Y-12242901D01*
X12982298Y-12243164D01*
X13011035Y-12271901D01*
X13011298Y-12272180D01*
X13015407Y-12276818D01*
X13015407Y-12276818D01*
X13015407Y-12276818D01*
X13020508Y-12280339D01*
X13020815Y-12280565D01*
X13024767Y-12283661D01*
X13025694Y-12284388D01*
X13026592Y-12284792D01*
X13028595Y-12285921D01*
X13029407Y-12286482D01*
X13029407Y-12286482D01*
X13029407Y-12286482D01*
X13033325Y-12287968D01*
X13035201Y-12288679D01*
X13035555Y-12288825D01*
X13041207Y-12291369D01*
X13042176Y-12291547D01*
X13044391Y-12292164D01*
X13045313Y-12292514D01*
X13051465Y-12293261D01*
X13051843Y-12293318D01*
X13057939Y-12294436D01*
X13064124Y-12294061D01*
X13064507Y-12294050D01*
X13069018Y-12294050D01*
X13075884Y-12296066D01*
X13079184Y-12299139D01*
X13079645Y-12299754D01*
X13079645Y-12299754D01*
X13079645Y-12299755D01*
X13079646Y-12299755D01*
X13079646Y-12299755D01*
X13091773Y-12308833D01*
X13096061Y-12314562D01*
X13096572Y-12321700D01*
X13093142Y-12327980D01*
X13091773Y-12329167D01*
X13079646Y-12338245D01*
X13079645Y-12338246D01*
X13071021Y-12349766D01*
X13071020Y-12349767D01*
X13067116Y-12360234D01*
X13065991Y-12363252D01*
X13065350Y-12369212D01*
X13065350Y-12458787D01*
X13065350Y-12458788D01*
X13065991Y-12464748D01*
X13065991Y-12464748D01*
X13065991Y-12464748D01*
X13071020Y-12478233D01*
X13071020Y-12478233D01*
X13071021Y-12478233D01*
X13076340Y-12485340D01*
X13079645Y-12489755D01*
X13091167Y-12498380D01*
X13104652Y-12503409D01*
X13110613Y-12504050D01*
X13264950Y-12504050D01*
X13271816Y-12506066D01*
X13276502Y-12511474D01*
X13277650Y-12516750D01*
X13277650Y-12553936D01*
X13275634Y-12560802D01*
X13270226Y-12565488D01*
X13266089Y-12566584D01*
X13254857Y-12567595D01*
X13254856Y-12567595D01*
X13254856Y-12567595D01*
X13254856Y-12567595D01*
X13233832Y-12573398D01*
X13214181Y-12582861D01*
X13214181Y-12582861D01*
X13196535Y-12595681D01*
X13181462Y-12611446D01*
X13169447Y-12629649D01*
X13169447Y-12629649D01*
X13160875Y-12649705D01*
X13156021Y-12670969D01*
X13156021Y-12670969D01*
X13155072Y-12692113D01*
X13155043Y-12692758D01*
X13156765Y-12705474D01*
X13157970Y-12714372D01*
X13157971Y-12714373D01*
X13164710Y-12735114D01*
X13164710Y-12735115D01*
X13171164Y-12747109D01*
X13175046Y-12754322D01*
X13188645Y-12771374D01*
X13188645Y-12771375D01*
X13188645Y-12771375D01*
X13205070Y-12785725D01*
X13205070Y-12785725D01*
X13215136Y-12791739D01*
X13223794Y-12796912D01*
X13238262Y-12802342D01*
X13243982Y-12806642D01*
X13246469Y-12813352D01*
X13244934Y-12820341D01*
X13239863Y-12825391D01*
X13237178Y-12826474D01*
X13233832Y-12827398D01*
X13214181Y-12836861D01*
X13214181Y-12836861D01*
X13196535Y-12849681D01*
X13181462Y-12865446D01*
X13169447Y-12883649D01*
X13169447Y-12883649D01*
X13160875Y-12903705D01*
X13156021Y-12924969D01*
X13156021Y-12924969D01*
X13155072Y-12946113D01*
X13155043Y-12946758D01*
X13156178Y-12955141D01*
X13157970Y-12968372D01*
X13157971Y-12968373D01*
X13162373Y-12981921D01*
X13164710Y-12989115D01*
X13175046Y-13008322D01*
X13188645Y-13025374D01*
X13188645Y-13025375D01*
X13188645Y-13025375D01*
X13205070Y-13039725D01*
X13205070Y-13039725D01*
X13215135Y-13045739D01*
X13223794Y-13050912D01*
X13244214Y-13058575D01*
X13244214Y-13058576D01*
X13257599Y-13061004D01*
X13265674Y-13062470D01*
X13265675Y-13062470D01*
X13424262Y-13062470D01*
X13424262Y-13062470D01*
X13440543Y-13061005D01*
X13461568Y-13055202D01*
X13481219Y-13045739D01*
X13498865Y-13032918D01*
X13513937Y-13017154D01*
X13513938Y-13017153D01*
X13514294Y-13016707D01*
X13514441Y-13016825D01*
X13519258Y-13012754D01*
X13524391Y-13011670D01*
X13556789Y-13011670D01*
X13557172Y-13011681D01*
X13563385Y-13012057D01*
X13569510Y-13010935D01*
X13569886Y-13010878D01*
X13576070Y-13010127D01*
X13577001Y-13009774D01*
X13579216Y-13009156D01*
X13580194Y-13008977D01*
X13580194Y-13008977D01*
X13580195Y-13008977D01*
X13581471Y-13008402D01*
X13585874Y-13006421D01*
X13586224Y-13006276D01*
X13591146Y-13004409D01*
X13598280Y-13003860D01*
X13600151Y-13004409D01*
X13605072Y-13006275D01*
X13605424Y-13006421D01*
X13611103Y-13008977D01*
X13612081Y-13009156D01*
X13614297Y-13009774D01*
X13615228Y-13010127D01*
X13621410Y-13010878D01*
X13621787Y-13010935D01*
X13627912Y-13012057D01*
X13634126Y-13011681D01*
X13634509Y-13011670D01*
X13652231Y-13011670D01*
X13659097Y-13013686D01*
X13663783Y-13019094D01*
X13664801Y-13026177D01*
X13664498Y-13027657D01*
X13659860Y-13044964D01*
X13659860Y-13044964D01*
X13659860Y-13044964D01*
X13659860Y-13044965D01*
X13658457Y-13061004D01*
X13657819Y-13068300D01*
X13659860Y-13091635D01*
X13661312Y-13097053D01*
X13665923Y-13114261D01*
X13665923Y-13114261D01*
X13665923Y-13114262D01*
X13675822Y-13135490D01*
X13675823Y-13135491D01*
X13683601Y-13146600D01*
X13689258Y-13154679D01*
X13705821Y-13171242D01*
X13705822Y-13171242D01*
X13705822Y-13171242D01*
X13725322Y-13184897D01*
X13729790Y-13190486D01*
X13730527Y-13197604D01*
X13727298Y-13203991D01*
X13725322Y-13205703D01*
X13705821Y-13219358D01*
X13689258Y-13235922D01*
X13689257Y-13235922D01*
X13675823Y-13255109D01*
X13675822Y-13255110D01*
X13665923Y-13276338D01*
X13665923Y-13276339D01*
X13665923Y-13276339D01*
X13664401Y-13282016D01*
X13659860Y-13298964D01*
X13657819Y-13322300D01*
X13659860Y-13345635D01*
X13664482Y-13362885D01*
X13664312Y-13370039D01*
X13660301Y-13375965D01*
X13653723Y-13378782D01*
X13646666Y-13377595D01*
X13643235Y-13375152D01*
X13602559Y-13334476D01*
X13602558Y-13334476D01*
X13589524Y-13321441D01*
X13588894Y-13321045D01*
X13585912Y-13319171D01*
X13585331Y-13318759D01*
X13585248Y-13318693D01*
X13581996Y-13316100D01*
X13581995Y-13316099D01*
X13581995Y-13316099D01*
X13578152Y-13314249D01*
X13577529Y-13313904D01*
X13573916Y-13311634D01*
X13573916Y-13311634D01*
X13569889Y-13310225D01*
X13569232Y-13309953D01*
X13567089Y-13308921D01*
X13565387Y-13308102D01*
X13561228Y-13307152D01*
X13560544Y-13306955D01*
X13556517Y-13305546D01*
X13552278Y-13305069D01*
X13551576Y-13304949D01*
X13547417Y-13304000D01*
X13547417Y-13304000D01*
X13542794Y-13304000D01*
X13514125Y-13304000D01*
X13507259Y-13301984D01*
X13505769Y-13300864D01*
X13490330Y-13287375D01*
X13490329Y-13287375D01*
X13471606Y-13276188D01*
X13451186Y-13268524D01*
X13432401Y-13265115D01*
X13429725Y-13264630D01*
X13271138Y-13264630D01*
X13254857Y-13266095D01*
X13254856Y-13266095D01*
X13254856Y-13266095D01*
X13254856Y-13266095D01*
X13233832Y-13271898D01*
X13214181Y-13281361D01*
X13214181Y-13281361D01*
X13196535Y-13294181D01*
X13181462Y-13309946D01*
X13169447Y-13328149D01*
X13169447Y-13328149D01*
X13160875Y-13348205D01*
X13156021Y-13369469D01*
X13156021Y-13369469D01*
X13155122Y-13389491D01*
X13155043Y-13391258D01*
X13156948Y-13405326D01*
X13157970Y-13412872D01*
X13157971Y-13412873D01*
X13164710Y-13433614D01*
X13164710Y-13433615D01*
X13173151Y-13449300D01*
X13175046Y-13452822D01*
X13188645Y-13469874D01*
X13188645Y-13469875D01*
X13188645Y-13469875D01*
X13205070Y-13484225D01*
X13205070Y-13484225D01*
X13215135Y-13490239D01*
X13223794Y-13495412D01*
X13238262Y-13500842D01*
X13243982Y-13505142D01*
X13246469Y-13511852D01*
X13244934Y-13518841D01*
X13239863Y-13523891D01*
X13237178Y-13524974D01*
X13233832Y-13525898D01*
X13214181Y-13535361D01*
X13214181Y-13535361D01*
X13196535Y-13548181D01*
X13181462Y-13563946D01*
X13169447Y-13582149D01*
X13169447Y-13582149D01*
X13160875Y-13602205D01*
X13156021Y-13623469D01*
X13156021Y-13623469D01*
X13155160Y-13642636D01*
X13155043Y-13645258D01*
X13156387Y-13655180D01*
X13157970Y-13666872D01*
X13157971Y-13666873D01*
X13164710Y-13687614D01*
X13164710Y-13687615D01*
X13175046Y-13706822D01*
X13188645Y-13723874D01*
X13188645Y-13723875D01*
X13188645Y-13723875D01*
X13205070Y-13738225D01*
X13205070Y-13738225D01*
X13219113Y-13746615D01*
X13223794Y-13749412D01*
X13244214Y-13757075D01*
X13244214Y-13757076D01*
X13257599Y-13759504D01*
X13265674Y-13760970D01*
X13265675Y-13760970D01*
X13424262Y-13760970D01*
X13424262Y-13760970D01*
X13440543Y-13759505D01*
X13452793Y-13756124D01*
X13461568Y-13753702D01*
X13461568Y-13753702D01*
X13461568Y-13753702D01*
X13472021Y-13748668D01*
X13479082Y-13747505D01*
X13485651Y-13750345D01*
X13486512Y-13751130D01*
X13486803Y-13751421D01*
X13487065Y-13751700D01*
X13488839Y-13753702D01*
X13491193Y-13756359D01*
X13492231Y-13757076D01*
X13496316Y-13759895D01*
X13496625Y-13760123D01*
X13501528Y-13763964D01*
X13502436Y-13764372D01*
X13504438Y-13765501D01*
X13505257Y-13766067D01*
X13511079Y-13768275D01*
X13511432Y-13768421D01*
X13517111Y-13770977D01*
X13518089Y-13771156D01*
X13520305Y-13771774D01*
X13521236Y-13772127D01*
X13527418Y-13772878D01*
X13527795Y-13772935D01*
X13533920Y-13774057D01*
X13540134Y-13773681D01*
X13540516Y-13773670D01*
X13652231Y-13773670D01*
X13659097Y-13775686D01*
X13663783Y-13781094D01*
X13664801Y-13788177D01*
X13664498Y-13789657D01*
X13659860Y-13806964D01*
X13659860Y-13806964D01*
X13659860Y-13806964D01*
X13659860Y-13806965D01*
X13658574Y-13821668D01*
X13657819Y-13830300D01*
X13659860Y-13853635D01*
X13661743Y-13860664D01*
X13665923Y-13876261D01*
X13665923Y-13876261D01*
X13665923Y-13876262D01*
X13675822Y-13897490D01*
X13675823Y-13897491D01*
X13686987Y-13913436D01*
X13689258Y-13916679D01*
X13705821Y-13933242D01*
X13725009Y-13946678D01*
X13725010Y-13946678D01*
X13725010Y-13946678D01*
X13746222Y-13956570D01*
X13751593Y-13961298D01*
X13753555Y-13968180D01*
X13751484Y-13975030D01*
X13746039Y-13979673D01*
X13745443Y-13979922D01*
X13741069Y-13981616D01*
X13741069Y-13981616D01*
X13723072Y-13992760D01*
X13722593Y-13993197D01*
X13769222Y-14039826D01*
X13764890Y-14041805D01*
X13754024Y-14051220D01*
X13747608Y-14061204D01*
X13701403Y-14014999D01*
X13694672Y-14023913D01*
X13685237Y-14042862D01*
X13679444Y-14063223D01*
X13677491Y-14084300D01*
X13677491Y-14084300D01*
X13679444Y-14105377D01*
X13685237Y-14125738D01*
X13694672Y-14144686D01*
X13694672Y-14144687D01*
X13701403Y-14153600D01*
X13747608Y-14107396D01*
X13754024Y-14117380D01*
X13764890Y-14126795D01*
X13769222Y-14128774D01*
X13722593Y-14175403D01*
X13723072Y-14175840D01*
X13723073Y-14175840D01*
X13741069Y-14186983D01*
X13745443Y-14188678D01*
X13751117Y-14193038D01*
X13753533Y-14199774D01*
X13751924Y-14206746D01*
X13746801Y-14211742D01*
X13746223Y-14212030D01*
X13725009Y-14221922D01*
X13725009Y-14221923D01*
X13705822Y-14235357D01*
X13705822Y-14235358D01*
X13689258Y-14251922D01*
X13689257Y-14251922D01*
X13675822Y-14271109D01*
X13675822Y-14271109D01*
X13672936Y-14277298D01*
X13670407Y-14280910D01*
X13601176Y-14350141D01*
X13588141Y-14363176D01*
X13585871Y-14366788D01*
X13585459Y-14367369D01*
X13582800Y-14370704D01*
X13580949Y-14374548D01*
X13580604Y-14375171D01*
X13578335Y-14378783D01*
X13578334Y-14378784D01*
X13576925Y-14382810D01*
X13576653Y-14383468D01*
X13574802Y-14387312D01*
X13574802Y-14387313D01*
X13573852Y-14391472D01*
X13573655Y-14392156D01*
X13572246Y-14396182D01*
X13572246Y-14396183D01*
X13571769Y-14400421D01*
X13571649Y-14401124D01*
X13570700Y-14405283D01*
X13570700Y-14457784D01*
X13568684Y-14464650D01*
X13564570Y-14468652D01*
X13552422Y-14475996D01*
X13540556Y-14487862D01*
X13531875Y-14502222D01*
X13531875Y-14502222D01*
X13530160Y-14507726D01*
X13526192Y-14513681D01*
X13519635Y-14516546D01*
X13512569Y-14515411D01*
X13509679Y-14513511D01*
X13496750Y-14502215D01*
X13496749Y-14502215D01*
X13478026Y-14491028D01*
X13465618Y-14486371D01*
X13459898Y-14482071D01*
X13457411Y-14475361D01*
X13458084Y-14470312D01*
X13458698Y-14468546D01*
X13458698Y-14468546D01*
X13433777Y-14448240D01*
X13433348Y-14447890D01*
X13429299Y-14441990D01*
X13429280Y-14441376D01*
X13367442Y-14379538D01*
X13373746Y-14376502D01*
X13383849Y-14367128D01*
X13389037Y-14358141D01*
X13461497Y-14430601D01*
X13475494Y-14423120D01*
X13475495Y-14423119D01*
X13490952Y-14410433D01*
X13490953Y-14410432D01*
X13503639Y-14394975D01*
X13503640Y-14394974D01*
X13513066Y-14377338D01*
X13513066Y-14377338D01*
X13518871Y-14358202D01*
X13518871Y-14358201D01*
X13520831Y-14338300D01*
X13520831Y-14338299D01*
X13518871Y-14318399D01*
X13518871Y-14318397D01*
X13513066Y-14299262D01*
X13513066Y-14299262D01*
X13503640Y-14281626D01*
X13503639Y-14281625D01*
X13490953Y-14266168D01*
X13490952Y-14266167D01*
X13475495Y-14253481D01*
X13475494Y-14253481D01*
X13461497Y-14245999D01*
X13389030Y-14318465D01*
X13387742Y-14315182D01*
X13379149Y-14304406D01*
X13367821Y-14296683D01*
X13427373Y-14237131D01*
X13423807Y-14236780D01*
X13271593Y-14236780D01*
X13268027Y-14237131D01*
X13327958Y-14297062D01*
X13321654Y-14300098D01*
X13311551Y-14309472D01*
X13306362Y-14318458D01*
X13233903Y-14245999D01*
X13233903Y-14245999D01*
X13219906Y-14253480D01*
X13219905Y-14253481D01*
X13204448Y-14266167D01*
X13204447Y-14266168D01*
X13191761Y-14281625D01*
X13191760Y-14281626D01*
X13182334Y-14299262D01*
X13182334Y-14299262D01*
X13176529Y-14318397D01*
X13176529Y-14318399D01*
X13174569Y-14338299D01*
X13174569Y-14338300D01*
X13176529Y-14358201D01*
X13176529Y-14358202D01*
X13182334Y-14377338D01*
X13182334Y-14377338D01*
X13191760Y-14394974D01*
X13191761Y-14394975D01*
X13204447Y-14410432D01*
X13204448Y-14410433D01*
X13219905Y-14423119D01*
X13219906Y-14423119D01*
X13233903Y-14430601D01*
X13306369Y-14358134D01*
X13307658Y-14361418D01*
X13316251Y-14372194D01*
X13327579Y-14379917D01*
X13266163Y-14441332D01*
X13263387Y-14446606D01*
X13261890Y-14448240D01*
X13261890Y-14448240D01*
X13261890Y-14471096D01*
X13259874Y-14477962D01*
X13254466Y-14482648D01*
X13252569Y-14483338D01*
X13240252Y-14486738D01*
X13220601Y-14496201D01*
X13220601Y-14496201D01*
X13202955Y-14509021D01*
X13187882Y-14524786D01*
X13175867Y-14542989D01*
X13175867Y-14542989D01*
X13167295Y-14563045D01*
X13163938Y-14577752D01*
X13162441Y-14584309D01*
X13161463Y-14606098D01*
X13162598Y-14614481D01*
X13164390Y-14627712D01*
X13164391Y-14627713D01*
X13171130Y-14648454D01*
X13171130Y-14648455D01*
X13181466Y-14667662D01*
X13195065Y-14684714D01*
X13195065Y-14684715D01*
X13195065Y-14684715D01*
X13211490Y-14699065D01*
X13211490Y-14699065D01*
X13221555Y-14705079D01*
X13230214Y-14710252D01*
X13250634Y-14717915D01*
X13250634Y-14717916D01*
X13254200Y-14718563D01*
X13255467Y-14718793D01*
X13261863Y-14722002D01*
X13265508Y-14728160D01*
X13265900Y-14731288D01*
X13265900Y-14855033D01*
X13265900Y-14873467D01*
X13266849Y-14877626D01*
X13266969Y-14878328D01*
X13267446Y-14882567D01*
X13268855Y-14886594D01*
X13269052Y-14887278D01*
X13270002Y-14891437D01*
X13270645Y-14892774D01*
X13271853Y-14895282D01*
X13272125Y-14895939D01*
X13273534Y-14899966D01*
X13275804Y-14903579D01*
X13276149Y-14904202D01*
X13277999Y-14908045D01*
X13277999Y-14908045D01*
X13278000Y-14908046D01*
X13280593Y-14911298D01*
X13280659Y-14911381D01*
X13281071Y-14911962D01*
X13282494Y-14914226D01*
X13283341Y-14915574D01*
X13296376Y-14928608D01*
X13296376Y-14928609D01*
X13297100Y-14929332D01*
X13297100Y-14929332D01*
X13297100Y-14929333D01*
X13324531Y-14956764D01*
X13324532Y-14956764D01*
X13337566Y-14969798D01*
X13337566Y-14969798D01*
X13337566Y-14969799D01*
X13341178Y-14972068D01*
X13341759Y-14972480D01*
X13345094Y-14975140D01*
X13348937Y-14976991D01*
X13349561Y-14977335D01*
X13353173Y-14979605D01*
X13353174Y-14979606D01*
X13357201Y-14981015D01*
X13357858Y-14981287D01*
X13361702Y-14983138D01*
X13361702Y-14983138D01*
X13361703Y-14983138D01*
X13363528Y-14983555D01*
X13365863Y-14984088D01*
X13366545Y-14984284D01*
X13370573Y-14985694D01*
X13374812Y-14986171D01*
X13375513Y-14986290D01*
X13379673Y-14987240D01*
X13379674Y-14987240D01*
X13398490Y-14987240D01*
X13398491Y-14987240D01*
X13626706Y-14987240D01*
X13626707Y-14987240D01*
X13630866Y-14986290D01*
X13631567Y-14986171D01*
X13635807Y-14985694D01*
X13639834Y-14984285D01*
X13640518Y-14984087D01*
X13644677Y-14983138D01*
X13644678Y-14983138D01*
X13648522Y-14981287D01*
X13649179Y-14981015D01*
X13653206Y-14979606D01*
X13656819Y-14977335D01*
X13657441Y-14976992D01*
X13661286Y-14975140D01*
X13664621Y-14972480D01*
X13665201Y-14972069D01*
X13668814Y-14969798D01*
X13681848Y-14956764D01*
X13681848Y-14956764D01*
X13682893Y-14955719D01*
X13682894Y-14955718D01*
X13702778Y-14935834D01*
X13702779Y-14935833D01*
X13709280Y-14929332D01*
X13716858Y-14921754D01*
X13719129Y-14918141D01*
X13719540Y-14917561D01*
X13722200Y-14914226D01*
X13724052Y-14910381D01*
X13724395Y-14909759D01*
X13726666Y-14906146D01*
X13728075Y-14902118D01*
X13728346Y-14901463D01*
X13730198Y-14897618D01*
X13731147Y-14893459D01*
X13731344Y-14892774D01*
X13732754Y-14888747D01*
X13733231Y-14884507D01*
X13733350Y-14883806D01*
X13734300Y-14879647D01*
X13734300Y-14861213D01*
X13734300Y-14861213D01*
X13734300Y-14845096D01*
X13736316Y-14838230D01*
X13740430Y-14834228D01*
X13752578Y-14826884D01*
X13764444Y-14815018D01*
X13773125Y-14800658D01*
X13778117Y-14784637D01*
X13778750Y-14777675D01*
X13778750Y-14738855D01*
X13778750Y-14738854D01*
X13778750Y-14714284D01*
X13779040Y-14711584D01*
X13779136Y-14711145D01*
X13778766Y-14705976D01*
X13778750Y-14705523D01*
X13778750Y-14703958D01*
X13778750Y-14703957D01*
X13778527Y-14702408D01*
X13778479Y-14701961D01*
X13778109Y-14696790D01*
X13777952Y-14696368D01*
X13777280Y-14693737D01*
X13777216Y-14693292D01*
X13776960Y-14692420D01*
X13777333Y-14692311D01*
X13776566Y-14687047D01*
X13777091Y-14685279D01*
X13776960Y-14685241D01*
X13777216Y-14684369D01*
X13777216Y-14684369D01*
X13777216Y-14684369D01*
X13778025Y-14678747D01*
X13778082Y-14678415D01*
X13779191Y-14672845D01*
X13778775Y-14668177D01*
X13778750Y-14667613D01*
X13778750Y-14562978D01*
X13778750Y-14562977D01*
X13778750Y-14525206D01*
X13778117Y-14518243D01*
X13777758Y-14517089D01*
X13773125Y-14502222D01*
X13773125Y-14502222D01*
X13773125Y-14502222D01*
X13766142Y-14490671D01*
X13764315Y-14483752D01*
X13766519Y-14476944D01*
X13772054Y-14472408D01*
X13778117Y-14471449D01*
X13792200Y-14472681D01*
X13815535Y-14470640D01*
X13838161Y-14464577D01*
X13859391Y-14454678D01*
X13878579Y-14441242D01*
X13895142Y-14424679D01*
X13908578Y-14405491D01*
X13918477Y-14384261D01*
X13924540Y-14361635D01*
X13926581Y-14338300D01*
X13924540Y-14314965D01*
X13918477Y-14292339D01*
X13912410Y-14279327D01*
X13908578Y-14271110D01*
X13908578Y-14271110D01*
X13908578Y-14271109D01*
X13895142Y-14251921D01*
X13878579Y-14235358D01*
X13878578Y-14235357D01*
X13859391Y-14221923D01*
X13859390Y-14221922D01*
X13838177Y-14212030D01*
X13832806Y-14207301D01*
X13830845Y-14200419D01*
X13832915Y-14193569D01*
X13838361Y-14188926D01*
X13838957Y-14188678D01*
X13843330Y-14186984D01*
X13861328Y-14175840D01*
X13861328Y-14175840D01*
X13861807Y-14175403D01*
X13815178Y-14128774D01*
X13819510Y-14126795D01*
X13830376Y-14117380D01*
X13836792Y-14107396D01*
X13882996Y-14153600D01*
X13889728Y-14144686D01*
X13889728Y-14144686D01*
X13899163Y-14125738D01*
X13904956Y-14105377D01*
X13906909Y-14084300D01*
X13906909Y-14084300D01*
X13904956Y-14063222D01*
X13904848Y-14062645D01*
X13905086Y-14062601D01*
X13905136Y-14056493D01*
X13909055Y-14050505D01*
X13915588Y-14047586D01*
X13922663Y-14048662D01*
X13926272Y-14051191D01*
X13969403Y-14094321D01*
X13969665Y-14094600D01*
X13971566Y-14096746D01*
X13973793Y-14099259D01*
X13977213Y-14101620D01*
X13978916Y-14102795D01*
X13979225Y-14103023D01*
X13984127Y-14106864D01*
X13985036Y-14107272D01*
X13987038Y-14108401D01*
X13987857Y-14108967D01*
X13993681Y-14111176D01*
X13994032Y-14111321D01*
X13999711Y-14113877D01*
X14000690Y-14114056D01*
X14002904Y-14114674D01*
X14003836Y-14115027D01*
X14010020Y-14115778D01*
X14010396Y-14115835D01*
X14016520Y-14116957D01*
X14016520Y-14116957D01*
X14016520Y-14116957D01*
X14017736Y-14116884D01*
X14022734Y-14116581D01*
X14023116Y-14116570D01*
X14162125Y-14116570D01*
X14168991Y-14118586D01*
X14173678Y-14123994D01*
X14174485Y-14126350D01*
X14174591Y-14126798D01*
X14174591Y-14126798D01*
X14179620Y-14140283D01*
X14179620Y-14140283D01*
X14179621Y-14140283D01*
X14185900Y-14148671D01*
X14188245Y-14151805D01*
X14199767Y-14160430D01*
X14213252Y-14165459D01*
X14219213Y-14166100D01*
X14343087Y-14166100D01*
X14349048Y-14165459D01*
X14362533Y-14160430D01*
X14368789Y-14155746D01*
X14375494Y-14153245D01*
X14382486Y-14154766D01*
X14384010Y-14155745D01*
X14390267Y-14160430D01*
X14403752Y-14165459D01*
X14409713Y-14166100D01*
X14533587Y-14166100D01*
X14539548Y-14165459D01*
X14553033Y-14160430D01*
X14564555Y-14151805D01*
X14573180Y-14140283D01*
X14578209Y-14126798D01*
X14578209Y-14126798D01*
X14578209Y-14126798D01*
X14578391Y-14126029D01*
X14581932Y-14119811D01*
X14588273Y-14116494D01*
X14590750Y-14116250D01*
X14621894Y-14116250D01*
X14626163Y-14116250D01*
X14647740Y-14116250D01*
X14654606Y-14118266D01*
X14659292Y-14123674D01*
X14660099Y-14126029D01*
X14660281Y-14126798D01*
X14660281Y-14126798D01*
X14660281Y-14126798D01*
X14665310Y-14140283D01*
X14665310Y-14140283D01*
X14665311Y-14140283D01*
X14671590Y-14148671D01*
X14673935Y-14151805D01*
X14685457Y-14160430D01*
X14698942Y-14165459D01*
X14704903Y-14166100D01*
X14828777Y-14166100D01*
X14834738Y-14165459D01*
X14848223Y-14160430D01*
X14859745Y-14151805D01*
X14865300Y-14144384D01*
X14871028Y-14140095D01*
X14878166Y-14139585D01*
X14882644Y-14141517D01*
X14882712Y-14141564D01*
X14893109Y-14146155D01*
X14895651Y-14146450D01*
X14942140Y-14146450D01*
X14942140Y-14146450D01*
X14942140Y-14061400D01*
X14972540Y-14061400D01*
X14972540Y-14146450D01*
X14972540Y-14146450D01*
X15019028Y-14146450D01*
X15019030Y-14146450D01*
X15021570Y-14146155D01*
X15021571Y-14146155D01*
X15031968Y-14141564D01*
X15040004Y-14133528D01*
X15044595Y-14123130D01*
X15044890Y-14120589D01*
X15044890Y-14120589D01*
X15044890Y-14061400D01*
X15044890Y-14061400D01*
X14972540Y-14061400D01*
X14942140Y-14061400D01*
X14942140Y-13945950D01*
X14942140Y-13945950D01*
X14972540Y-13945950D01*
X14972540Y-14031000D01*
X14972540Y-14031000D01*
X15044890Y-14031000D01*
X15044890Y-14031000D01*
X15044890Y-13971812D01*
X15044890Y-13971810D01*
X15044595Y-13969270D01*
X15044595Y-13969269D01*
X15040004Y-13958872D01*
X15031968Y-13950836D01*
X15021570Y-13946245D01*
X15019029Y-13945950D01*
X14972540Y-13945950D01*
X14942140Y-13945950D01*
X14895652Y-13945950D01*
X14895649Y-13945950D01*
X14893110Y-13946245D01*
X14893109Y-13946245D01*
X14882712Y-13950836D01*
X14882643Y-13950883D01*
X14882499Y-13950930D01*
X14881636Y-13951311D01*
X14881597Y-13951224D01*
X14875839Y-13953100D01*
X14868917Y-13951286D01*
X14865300Y-13948016D01*
X14859745Y-13940596D01*
X14859745Y-13940596D01*
X14859745Y-13940595D01*
X14848223Y-13931970D01*
X14834738Y-13926941D01*
X14834738Y-13926941D01*
X14834738Y-13926941D01*
X14828778Y-13926300D01*
X14776063Y-13926300D01*
X14769197Y-13924284D01*
X14764511Y-13918876D01*
X14763493Y-13911793D01*
X14766465Y-13905283D01*
X14768231Y-13903603D01*
X14768505Y-13903388D01*
X14768506Y-13903388D01*
X14773386Y-13899564D01*
X14773692Y-13899339D01*
X14778793Y-13895818D01*
X14782903Y-13891179D01*
X14783164Y-13890902D01*
X14813139Y-13860927D01*
X14813416Y-13860666D01*
X14818055Y-13856556D01*
X14821577Y-13851453D01*
X14821802Y-13851147D01*
X14825625Y-13846269D01*
X14826029Y-13845370D01*
X14827159Y-13843367D01*
X14827719Y-13842556D01*
X14828008Y-13841794D01*
X14832327Y-13836089D01*
X14835444Y-13834398D01*
X14846620Y-13830230D01*
X14858141Y-13821605D01*
X14863697Y-13814184D01*
X14869425Y-13809895D01*
X14876563Y-13809385D01*
X14881041Y-13811317D01*
X14881109Y-13811364D01*
X14891506Y-13815955D01*
X14894048Y-13816250D01*
X14940537Y-13816250D01*
X14940537Y-13816250D01*
X14970937Y-13816250D01*
X14970937Y-13816250D01*
X15017425Y-13816250D01*
X15017427Y-13816250D01*
X15019967Y-13815955D01*
X15019968Y-13815955D01*
X15030364Y-13811364D01*
X15038401Y-13803328D01*
X15042992Y-13792930D01*
X15043287Y-13790389D01*
X15043287Y-13790389D01*
X15043287Y-13731200D01*
X15043287Y-13731200D01*
X14970937Y-13731200D01*
X14970937Y-13731200D01*
X14970937Y-13816250D01*
X14940537Y-13816250D01*
X14940537Y-13700800D01*
X14970937Y-13700800D01*
X14970937Y-13700800D01*
X15043287Y-13700800D01*
X15043287Y-13700800D01*
X15043287Y-13641612D01*
X15043287Y-13641610D01*
X15042992Y-13639070D01*
X15042992Y-13639069D01*
X15038401Y-13628672D01*
X15030364Y-13620636D01*
X15019967Y-13616045D01*
X15017426Y-13615750D01*
X14970937Y-13615750D01*
X14970937Y-13615750D01*
X14970937Y-13700800D01*
X14940537Y-13700800D01*
X14940537Y-13615750D01*
X14940537Y-13615750D01*
X14894049Y-13615750D01*
X14894046Y-13615750D01*
X14891507Y-13616045D01*
X14891506Y-13616045D01*
X14881109Y-13620636D01*
X14881040Y-13620683D01*
X14880896Y-13620730D01*
X14880033Y-13621111D01*
X14879994Y-13621024D01*
X14874236Y-13622900D01*
X14867314Y-13621086D01*
X14863697Y-13617816D01*
X14858142Y-13610396D01*
X14858142Y-13610396D01*
X14858141Y-13610395D01*
X14856818Y-13609404D01*
X14852032Y-13605822D01*
X14846620Y-13601770D01*
X14833135Y-13596741D01*
X14833135Y-13596741D01*
X14833135Y-13596741D01*
X14827175Y-13596100D01*
X14827174Y-13596100D01*
X14823604Y-13596100D01*
X14816738Y-13594084D01*
X14812051Y-13588676D01*
X14811033Y-13581593D01*
X14812735Y-13576830D01*
X14813056Y-13576300D01*
X14817615Y-13568758D01*
X14819617Y-13562332D01*
X14823585Y-13556376D01*
X14830142Y-13553511D01*
X14831742Y-13553410D01*
X14847144Y-13553410D01*
X14847527Y-13553421D01*
X14853741Y-13553797D01*
X14859865Y-13552675D01*
X14860241Y-13552618D01*
X14866425Y-13551867D01*
X14867356Y-13551514D01*
X14869571Y-13550896D01*
X14870550Y-13550717D01*
X14870550Y-13550717D01*
X14870550Y-13550717D01*
X14873111Y-13549564D01*
X14876228Y-13548161D01*
X14876578Y-13548016D01*
X14882403Y-13545807D01*
X14883222Y-13545242D01*
X14885225Y-13544112D01*
X14886133Y-13543704D01*
X14891039Y-13539860D01*
X14891340Y-13539638D01*
X14896467Y-13536099D01*
X14900598Y-13531437D01*
X14900857Y-13531162D01*
X14946136Y-13485883D01*
X14946411Y-13485623D01*
X14951074Y-13481493D01*
X14954610Y-13476370D01*
X14954836Y-13476063D01*
X14958678Y-13471159D01*
X14959086Y-13470251D01*
X14960216Y-13468248D01*
X14960338Y-13468071D01*
X14960781Y-13467429D01*
X14962990Y-13461604D01*
X14963135Y-13461254D01*
X14965691Y-13455575D01*
X14965870Y-13454596D01*
X14966488Y-13452382D01*
X14966841Y-13451451D01*
X14967592Y-13445266D01*
X14967649Y-13444893D01*
X14968771Y-13438767D01*
X14968396Y-13432553D01*
X14968384Y-13432170D01*
X14968384Y-13404036D01*
X14970400Y-13397170D01*
X14975808Y-13392484D01*
X14981084Y-13391336D01*
X14992801Y-13391336D01*
X14992801Y-13391336D01*
X14998762Y-13390696D01*
X15012247Y-13385666D01*
X15023769Y-13377041D01*
X15032394Y-13365520D01*
X15037423Y-13352035D01*
X15038064Y-13346074D01*
X15038064Y-13116499D01*
X15037423Y-13110538D01*
X15032394Y-13097053D01*
X15023769Y-13085532D01*
X15012247Y-13076907D01*
X14998762Y-13071877D01*
X14998762Y-13071877D01*
X14998762Y-13071877D01*
X14992802Y-13071236D01*
X14992801Y-13071236D01*
X14988410Y-13071236D01*
X14981544Y-13069220D01*
X14976858Y-13063812D01*
X14976029Y-13061362D01*
X14975712Y-13059976D01*
X14973861Y-13056133D01*
X14973589Y-13055474D01*
X14972878Y-13053444D01*
X14972514Y-13046298D01*
X14976071Y-13040088D01*
X14982420Y-13036788D01*
X14984866Y-13036550D01*
X15160804Y-13036550D01*
X15162007Y-13036473D01*
X15168661Y-13036046D01*
X15168662Y-13036046D01*
X15168785Y-13036026D01*
X15168848Y-13036034D01*
X15169262Y-13036007D01*
X15169267Y-13036087D01*
X15175884Y-13036929D01*
X15181368Y-13041527D01*
X15183495Y-13048360D01*
X15183448Y-13049673D01*
X15181819Y-13068300D01*
X15183860Y-13091635D01*
X15185312Y-13097053D01*
X15189923Y-13114261D01*
X15189923Y-13114261D01*
X15189923Y-13114262D01*
X15199822Y-13135490D01*
X15199823Y-13135491D01*
X15207601Y-13146600D01*
X15213258Y-13154679D01*
X15229821Y-13171242D01*
X15229822Y-13171242D01*
X15229822Y-13171242D01*
X15249322Y-13184897D01*
X15253790Y-13190486D01*
X15254527Y-13197604D01*
X15251298Y-13203991D01*
X15249322Y-13205703D01*
X15229822Y-13219357D01*
X15229822Y-13219358D01*
X15213258Y-13235922D01*
X15213257Y-13235922D01*
X15199823Y-13255109D01*
X15199822Y-13255110D01*
X15189923Y-13276338D01*
X15189923Y-13276339D01*
X15189923Y-13276339D01*
X15188401Y-13282016D01*
X15183860Y-13298964D01*
X15181819Y-13322300D01*
X15183860Y-13345635D01*
X15185575Y-13352034D01*
X15189923Y-13368261D01*
X15189923Y-13368261D01*
X15189923Y-13368262D01*
X15199822Y-13389490D01*
X15199823Y-13389491D01*
X15206929Y-13399641D01*
X15213258Y-13408679D01*
X15229821Y-13425242D01*
X15230852Y-13425964D01*
X15241779Y-13433615D01*
X15249009Y-13438678D01*
X15249010Y-13438678D01*
X15249010Y-13438678D01*
X15270222Y-13448570D01*
X15275593Y-13453298D01*
X15277555Y-13460180D01*
X15275484Y-13467030D01*
X15270039Y-13471673D01*
X15269443Y-13471922D01*
X15265069Y-13473616D01*
X15265069Y-13473616D01*
X15247072Y-13484760D01*
X15246593Y-13485197D01*
X15293222Y-13531826D01*
X15288890Y-13533805D01*
X15278024Y-13543220D01*
X15271608Y-13553204D01*
X15225403Y-13506999D01*
X15218672Y-13515913D01*
X15209237Y-13534862D01*
X15203444Y-13555223D01*
X15201491Y-13576300D01*
X15201491Y-13576300D01*
X15203444Y-13597377D01*
X15209237Y-13617738D01*
X15218672Y-13636686D01*
X15218672Y-13636687D01*
X15225403Y-13645600D01*
X15271608Y-13599396D01*
X15278024Y-13609380D01*
X15288890Y-13618795D01*
X15293222Y-13620774D01*
X15246593Y-13667403D01*
X15247072Y-13667840D01*
X15247073Y-13667840D01*
X15265069Y-13678983D01*
X15269443Y-13680678D01*
X15275117Y-13685038D01*
X15277533Y-13691774D01*
X15275924Y-13698746D01*
X15270801Y-13703742D01*
X15270223Y-13704030D01*
X15249009Y-13713922D01*
X15249009Y-13713923D01*
X15229822Y-13727357D01*
X15229822Y-13727358D01*
X15213258Y-13743922D01*
X15213257Y-13743922D01*
X15199823Y-13763109D01*
X15199822Y-13763110D01*
X15189923Y-13784338D01*
X15189923Y-13784339D01*
X15189923Y-13784339D01*
X15188302Y-13790389D01*
X15183860Y-13806964D01*
X15181819Y-13830300D01*
X15183860Y-13853635D01*
X15185743Y-13860664D01*
X15189923Y-13876261D01*
X15189923Y-13876261D01*
X15189923Y-13876262D01*
X15199822Y-13897490D01*
X15199823Y-13897491D01*
X15210987Y-13913436D01*
X15213258Y-13916679D01*
X15229821Y-13933242D01*
X15232315Y-13934988D01*
X15249322Y-13946897D01*
X15253790Y-13952486D01*
X15254527Y-13959604D01*
X15251298Y-13965991D01*
X15249322Y-13967703D01*
X15229822Y-13981357D01*
X15229822Y-13981358D01*
X15213258Y-13997922D01*
X15213257Y-13997922D01*
X15199823Y-14017109D01*
X15199822Y-14017110D01*
X15189923Y-14038338D01*
X15189923Y-14038339D01*
X15189923Y-14038339D01*
X15188711Y-14042862D01*
X15183860Y-14060964D01*
X15181819Y-14084300D01*
X15183860Y-14107635D01*
X15186057Y-14115835D01*
X15189923Y-14130261D01*
X15189923Y-14130261D01*
X15189923Y-14130262D01*
X15199822Y-14151490D01*
X15199823Y-14151491D01*
X15213257Y-14170678D01*
X15213258Y-14170679D01*
X15229821Y-14187242D01*
X15232227Y-14188926D01*
X15249322Y-14200897D01*
X15253790Y-14206486D01*
X15254527Y-14213604D01*
X15251298Y-14219991D01*
X15249322Y-14221703D01*
X15229822Y-14235357D01*
X15229822Y-14235358D01*
X15213258Y-14251922D01*
X15213257Y-14251922D01*
X15199823Y-14271109D01*
X15199822Y-14271110D01*
X15189923Y-14292338D01*
X15189923Y-14292339D01*
X15189923Y-14292339D01*
X15188770Y-14296642D01*
X15183860Y-14314964D01*
X15181819Y-14338300D01*
X15183860Y-14361635D01*
X15186092Y-14369965D01*
X15189923Y-14384261D01*
X15189923Y-14384261D01*
X15189923Y-14384262D01*
X15199822Y-14405490D01*
X15199823Y-14405491D01*
X15209543Y-14419373D01*
X15213258Y-14424679D01*
X15229821Y-14441242D01*
X15249009Y-14454678D01*
X15249010Y-14454678D01*
X15249010Y-14454678D01*
X15270238Y-14464577D01*
X15270239Y-14464577D01*
X15292865Y-14470640D01*
X15316200Y-14472681D01*
X15339535Y-14470640D01*
X15362161Y-14464577D01*
X15383391Y-14454678D01*
X15402579Y-14441242D01*
X15419142Y-14424679D01*
X15432578Y-14405491D01*
X15442477Y-14384261D01*
X15448540Y-14361635D01*
X15450581Y-14338300D01*
X15448540Y-14314965D01*
X15442477Y-14292339D01*
X15436410Y-14279327D01*
X15432578Y-14271110D01*
X15432578Y-14271110D01*
X15432578Y-14271109D01*
X15419142Y-14251921D01*
X15402579Y-14235358D01*
X15383391Y-14221922D01*
X15383078Y-14221703D01*
X15378610Y-14216113D01*
X15377873Y-14208995D01*
X15381101Y-14202609D01*
X15383078Y-14200897D01*
X15393542Y-14193569D01*
X15402579Y-14187242D01*
X15419142Y-14170679D01*
X15432578Y-14151491D01*
X15442477Y-14130261D01*
X15448540Y-14107635D01*
X15450581Y-14084300D01*
X15448540Y-14060965D01*
X15442477Y-14038339D01*
X15440996Y-14035162D01*
X15432578Y-14017110D01*
X15432578Y-14017110D01*
X15432578Y-14017109D01*
X15419142Y-13997921D01*
X15402579Y-13981358D01*
X15383391Y-13967922D01*
X15383078Y-13967703D01*
X15378610Y-13962113D01*
X15377873Y-13954995D01*
X15381101Y-13948609D01*
X15383078Y-13946897D01*
X15386377Y-13944586D01*
X15402579Y-13933242D01*
X15419142Y-13916679D01*
X15432578Y-13897491D01*
X15442477Y-13876261D01*
X15448540Y-13853635D01*
X15450581Y-13830300D01*
X15448540Y-13806965D01*
X15442477Y-13784339D01*
X15440964Y-13781094D01*
X15432578Y-13763110D01*
X15432578Y-13763110D01*
X15432578Y-13763109D01*
X15431080Y-13760970D01*
X15425860Y-13753515D01*
X15419142Y-13743921D01*
X15402579Y-13727358D01*
X15398997Y-13724850D01*
X15383391Y-13713923D01*
X15383390Y-13713922D01*
X15362177Y-13704030D01*
X15356806Y-13699301D01*
X15354845Y-13692419D01*
X15356915Y-13685569D01*
X15362361Y-13680926D01*
X15362957Y-13680678D01*
X15367330Y-13678984D01*
X15385328Y-13667840D01*
X15385328Y-13667840D01*
X15385807Y-13667403D01*
X15339178Y-13620774D01*
X15343510Y-13618795D01*
X15354376Y-13609380D01*
X15360792Y-13599396D01*
X15406996Y-13645600D01*
X15413728Y-13636686D01*
X15413728Y-13636686D01*
X15423163Y-13617738D01*
X15428956Y-13597377D01*
X15430909Y-13576300D01*
X15430909Y-13576300D01*
X15428956Y-13555223D01*
X15423163Y-13534862D01*
X15413728Y-13515913D01*
X15413728Y-13515913D01*
X15406996Y-13506999D01*
X15360792Y-13553204D01*
X15354376Y-13543220D01*
X15343510Y-13533805D01*
X15339177Y-13531826D01*
X15385807Y-13485197D01*
X15385328Y-13484760D01*
X15385327Y-13484760D01*
X15367331Y-13473616D01*
X15362957Y-13471922D01*
X15357283Y-13467562D01*
X15354866Y-13460826D01*
X15356476Y-13453853D01*
X15361599Y-13448857D01*
X15362177Y-13448570D01*
X15370069Y-13444889D01*
X15383391Y-13438678D01*
X15402579Y-13425242D01*
X15419142Y-13408679D01*
X15432578Y-13389491D01*
X15442477Y-13368261D01*
X15448540Y-13345635D01*
X15450581Y-13322300D01*
X15448540Y-13298965D01*
X15442477Y-13276339D01*
X15441407Y-13274044D01*
X15432578Y-13255110D01*
X15432578Y-13255110D01*
X15432578Y-13255109D01*
X15419142Y-13235921D01*
X15402579Y-13219358D01*
X15386702Y-13208241D01*
X15383078Y-13205703D01*
X15378610Y-13200113D01*
X15377873Y-13192995D01*
X15381101Y-13186609D01*
X15383078Y-13184897D01*
X15384058Y-13184210D01*
X15402579Y-13171242D01*
X15419142Y-13154679D01*
X15432578Y-13135491D01*
X15442477Y-13114261D01*
X15448540Y-13091635D01*
X15450581Y-13068300D01*
X15448540Y-13044965D01*
X15442477Y-13022339D01*
X15440059Y-13017154D01*
X15432578Y-13001110D01*
X15432578Y-13001110D01*
X15432578Y-13001109D01*
X15419142Y-12981921D01*
X15402579Y-12965358D01*
X15387987Y-12955141D01*
X15383078Y-12951703D01*
X15378610Y-12946113D01*
X15377873Y-12938995D01*
X15381101Y-12932609D01*
X15383078Y-12930897D01*
X15387987Y-12927459D01*
X15402579Y-12917242D01*
X15419142Y-12900679D01*
X15432578Y-12881491D01*
X15442477Y-12860261D01*
X15448540Y-12837635D01*
X15450581Y-12814300D01*
X15448540Y-12790965D01*
X15442477Y-12768339D01*
X15439743Y-12762476D01*
X15432578Y-12747110D01*
X15432578Y-12747110D01*
X15432578Y-12747109D01*
X15431013Y-12744875D01*
X15419142Y-12727922D01*
X15419142Y-12727922D01*
X15419142Y-12727921D01*
X15402579Y-12711358D01*
X15391877Y-12703864D01*
X15383078Y-12697703D01*
X15378610Y-12692113D01*
X15377873Y-12684995D01*
X15381101Y-12678609D01*
X15383078Y-12676897D01*
X15387987Y-12673459D01*
X15402579Y-12663242D01*
X15419142Y-12646679D01*
X15432578Y-12627491D01*
X15442477Y-12606261D01*
X15448540Y-12583635D01*
X15450581Y-12560300D01*
X15448540Y-12536965D01*
X15442477Y-12514339D01*
X15442477Y-12514338D01*
X15432578Y-12493110D01*
X15432578Y-12493110D01*
X15432578Y-12493109D01*
X15419142Y-12473921D01*
X15402579Y-12457358D01*
X15389436Y-12448155D01*
X15383078Y-12443703D01*
X15378610Y-12438113D01*
X15377873Y-12430995D01*
X15381101Y-12424609D01*
X15383078Y-12422897D01*
X15389181Y-12418623D01*
X15402579Y-12409242D01*
X15419142Y-12392679D01*
X15432578Y-12373491D01*
X15442477Y-12352261D01*
X15448540Y-12329635D01*
X15450581Y-12306300D01*
X15448540Y-12282965D01*
X15442477Y-12260339D01*
X15439281Y-12253486D01*
X15432578Y-12239110D01*
X15432578Y-12239110D01*
X15432578Y-12239109D01*
X15419142Y-12219921D01*
X15402579Y-12203358D01*
X15395854Y-12198649D01*
X15383078Y-12189703D01*
X15378610Y-12184113D01*
X15377873Y-12176995D01*
X15381102Y-12170609D01*
X15383078Y-12168897D01*
X15383390Y-12168678D01*
X15383391Y-12168678D01*
X15402579Y-12155242D01*
X15419142Y-12138679D01*
X15432578Y-12119491D01*
X15442477Y-12098261D01*
X15448540Y-12075635D01*
X15450581Y-12052300D01*
X15448540Y-12028965D01*
X15442477Y-12006339D01*
X15439150Y-11999205D01*
X15432578Y-11985110D01*
X15432578Y-11985110D01*
X15432578Y-11985109D01*
X15419142Y-11965921D01*
X15402579Y-11949358D01*
X15383391Y-11935922D01*
X15383078Y-11935703D01*
X15378610Y-11930113D01*
X15377873Y-11922995D01*
X15381101Y-11916609D01*
X15383078Y-11914897D01*
X15389624Y-11910313D01*
X15402579Y-11901242D01*
X15419142Y-11884679D01*
X15432578Y-11865491D01*
X15442477Y-11844261D01*
X15448540Y-11821635D01*
X15450581Y-11798300D01*
X15448540Y-11774965D01*
X15442477Y-11752339D01*
X15439280Y-11745482D01*
X15432578Y-11731110D01*
X15432578Y-11731110D01*
X15432578Y-11731109D01*
X15428787Y-11725695D01*
X15424906Y-11720152D01*
X15419142Y-11711921D01*
X15402579Y-11695358D01*
X15400556Y-11693942D01*
X15383078Y-11681703D01*
X15378610Y-11676113D01*
X15377873Y-11668995D01*
X15381101Y-11662609D01*
X15383078Y-11660897D01*
X15390707Y-11655555D01*
X15402579Y-11647242D01*
X15419142Y-11630679D01*
X15432578Y-11611491D01*
X15442477Y-11590261D01*
X15448540Y-11567635D01*
X15450581Y-11544300D01*
X15448540Y-11520965D01*
X15442477Y-11498339D01*
X15441308Y-11495832D01*
X15432578Y-11477110D01*
X15432578Y-11477110D01*
X15432578Y-11477109D01*
X15419142Y-11457921D01*
X15402579Y-11441358D01*
X15392027Y-11433970D01*
X15383391Y-11427923D01*
X15383390Y-11427922D01*
X15362162Y-11418023D01*
X15362161Y-11418023D01*
X15362161Y-11418023D01*
X15350490Y-11414896D01*
X15339535Y-11411960D01*
X15322034Y-11410429D01*
X15316200Y-11409919D01*
X15316200Y-11409919D01*
X15292864Y-11411960D01*
X15278258Y-11415874D01*
X15270239Y-11418023D01*
X15270239Y-11418023D01*
X15270238Y-11418023D01*
X15249010Y-11427922D01*
X15249009Y-11427923D01*
X15229822Y-11441357D01*
X15229822Y-11441358D01*
X15213258Y-11457922D01*
X15213257Y-11457922D01*
X15199823Y-11477109D01*
X15199822Y-11477110D01*
X15189923Y-11498338D01*
X15189923Y-11498339D01*
X15189923Y-11498339D01*
X15187964Y-11505651D01*
X15183860Y-11520964D01*
X15182387Y-11537801D01*
X15181819Y-11544300D01*
X15183860Y-11567635D01*
X15183860Y-11567635D01*
X15183860Y-11567636D01*
X15183860Y-11567636D01*
X15187469Y-11581103D01*
X15187299Y-11588257D01*
X15183288Y-11594183D01*
X15176709Y-11597000D01*
X15175202Y-11597090D01*
X14674751Y-11597090D01*
X14667885Y-11595074D01*
X14663198Y-11589666D01*
X14662180Y-11582583D01*
X14662536Y-11580914D01*
X14666956Y-11565377D01*
X14668909Y-11544300D01*
X14668909Y-11544300D01*
X14666956Y-11523223D01*
X14661163Y-11502862D01*
X14651728Y-11483913D01*
X14651728Y-11483913D01*
X14644996Y-11474999D01*
X14598792Y-11521204D01*
X14592376Y-11511220D01*
X14581510Y-11501805D01*
X14577177Y-11499826D01*
X14623807Y-11453197D01*
X14623328Y-11452760D01*
X14623327Y-11452760D01*
X14605331Y-11441616D01*
X14605330Y-11441616D01*
X14585592Y-11433970D01*
X14564784Y-11430080D01*
X14543616Y-11430080D01*
X14522808Y-11433970D01*
X14503069Y-11441616D01*
X14503069Y-11441616D01*
X14485072Y-11452760D01*
X14484593Y-11453197D01*
X14531222Y-11499826D01*
X14526890Y-11501805D01*
X14516024Y-11511220D01*
X14509608Y-11521204D01*
X14463403Y-11474999D01*
X14456672Y-11483913D01*
X14449350Y-11498619D01*
X14444484Y-11503867D01*
X14437554Y-11505651D01*
X14430760Y-11503405D01*
X14426471Y-11498325D01*
X14416578Y-11477110D01*
X14416578Y-11477110D01*
X14416578Y-11477109D01*
X14403142Y-11457921D01*
X14386579Y-11441358D01*
X14376027Y-11433970D01*
X14367391Y-11427923D01*
X14367390Y-11427922D01*
X14346162Y-11418023D01*
X14346161Y-11418023D01*
X14346161Y-11418023D01*
X14334490Y-11414896D01*
X14323535Y-11411960D01*
X14300200Y-11409919D01*
X14276864Y-11411960D01*
X14262258Y-11415874D01*
X14254239Y-11418023D01*
X14254239Y-11418023D01*
X14254238Y-11418023D01*
X14233010Y-11427922D01*
X14233009Y-11427923D01*
X14213822Y-11441357D01*
X14213822Y-11441358D01*
X14197258Y-11457922D01*
X14197257Y-11457922D01*
X14183603Y-11477422D01*
X14178013Y-11481890D01*
X14170895Y-11482627D01*
X14164509Y-11479398D01*
X14162797Y-11477422D01*
X14149142Y-11457922D01*
X14149142Y-11457922D01*
X14149142Y-11457921D01*
X14132579Y-11441358D01*
X14122027Y-11433970D01*
X14113391Y-11427923D01*
X14113390Y-11427922D01*
X14092162Y-11418023D01*
X14092161Y-11418023D01*
X14092161Y-11418023D01*
X14080490Y-11414896D01*
X14069535Y-11411960D01*
X14052034Y-11410429D01*
X14046200Y-11409919D01*
X14046200Y-11409919D01*
X14022864Y-11411960D01*
X14008258Y-11415874D01*
X14000239Y-11418023D01*
X14000239Y-11418023D01*
X14000238Y-11418023D01*
X13979010Y-11427922D01*
X13979009Y-11427923D01*
X13959822Y-11441357D01*
X13959822Y-11441358D01*
X13943258Y-11457922D01*
X13943257Y-11457922D01*
X13929603Y-11477422D01*
X13924013Y-11481890D01*
X13916895Y-11482627D01*
X13910509Y-11479398D01*
X13908797Y-11477422D01*
X13895142Y-11457922D01*
X13895142Y-11457922D01*
X13895142Y-11457921D01*
X13878579Y-11441358D01*
X13868027Y-11433970D01*
X13859391Y-11427923D01*
X13859390Y-11427922D01*
X13838162Y-11418023D01*
X13838161Y-11418023D01*
X13838161Y-11418023D01*
X13826490Y-11414896D01*
X13815535Y-11411960D01*
X13798034Y-11410429D01*
X13792200Y-11409919D01*
X13792200Y-11409919D01*
X13780905Y-11410907D01*
X13773889Y-11409497D01*
X13770818Y-11407235D01*
X13761309Y-11397726D01*
X13761308Y-11397726D01*
X13748274Y-11384691D01*
X13747644Y-11384295D01*
X13744662Y-11382421D01*
X13744081Y-11382009D01*
X13743998Y-11381943D01*
X13740746Y-11379350D01*
X13740745Y-11379349D01*
X13740745Y-11379349D01*
X13736902Y-11377499D01*
X13736279Y-11377154D01*
X13732666Y-11374884D01*
X13728857Y-11373551D01*
X13728639Y-11373475D01*
X13727982Y-11373203D01*
X13725839Y-11372171D01*
X13724137Y-11371352D01*
X13719978Y-11370402D01*
X13719294Y-11370205D01*
X13715267Y-11368796D01*
X13711028Y-11368319D01*
X13710326Y-11368199D01*
X13706167Y-11367250D01*
X13706167Y-11367250D01*
X13701544Y-11367250D01*
X13673012Y-11367250D01*
X13666145Y-11365234D01*
X13665401Y-11364717D01*
X13656963Y-11358400D01*
X13643478Y-11353371D01*
X13643478Y-11353371D01*
X13643478Y-11353371D01*
X13637518Y-11352730D01*
X13551743Y-11352730D01*
X13551742Y-11352730D01*
X13545782Y-11353371D01*
X13532297Y-11358400D01*
X13523501Y-11364985D01*
X13516796Y-11367486D01*
X13509804Y-11365965D01*
X13508279Y-11364985D01*
X13499483Y-11358400D01*
X13499483Y-11358400D01*
X13485998Y-11353371D01*
X13485998Y-11353371D01*
X13485998Y-11353371D01*
X13480038Y-11352730D01*
X13394263Y-11352730D01*
X13394262Y-11352730D01*
X13388302Y-11353371D01*
X13388302Y-11353371D01*
X13388302Y-11353371D01*
X13374817Y-11358400D01*
X13374817Y-11358400D01*
X13374816Y-11358401D01*
X13363296Y-11367025D01*
X13363295Y-11367026D01*
X13355571Y-11377344D01*
X13354670Y-11378547D01*
X13350766Y-11389014D01*
X13349641Y-11392032D01*
X13349000Y-11397992D01*
X13349000Y-11457292D01*
X13346984Y-11464158D01*
X13341576Y-11468844D01*
X13334493Y-11469863D01*
X13332176Y-11469304D01*
X13320304Y-11465228D01*
X13320304Y-11465228D01*
X13320304Y-11465228D01*
X13296345Y-11461230D01*
X13272055Y-11461230D01*
X13254509Y-11464158D01*
X13248096Y-11465228D01*
X13225121Y-11473115D01*
X13203759Y-11484676D01*
X13184591Y-11499595D01*
X13168139Y-11517466D01*
X13154854Y-11537801D01*
X13154853Y-11537802D01*
X13145097Y-11560045D01*
X13145096Y-11560046D01*
X13145096Y-11560046D01*
X13139812Y-11580914D01*
X13139134Y-11583593D01*
X13137128Y-11607800D01*
X13137128Y-11607800D01*
X13137551Y-11612905D01*
X13139134Y-11632007D01*
X13145096Y-11655554D01*
X13145097Y-11655555D01*
X13154853Y-11677798D01*
X13154854Y-11677799D01*
X13168139Y-11698133D01*
X13176254Y-11706948D01*
X13179421Y-11713366D01*
X13178616Y-11720476D01*
X13174094Y-11726023D01*
X13167292Y-11728244D01*
X13166910Y-11728250D01*
X13096008Y-11728250D01*
X13095625Y-11728238D01*
X13092218Y-11728032D01*
X13089440Y-11727864D01*
X13089439Y-11727864D01*
X13083342Y-11728981D01*
X13082963Y-11729039D01*
X13076813Y-11729786D01*
X13075891Y-11730136D01*
X13073678Y-11730752D01*
X13072707Y-11730930D01*
X13072706Y-11730931D01*
X13067055Y-11733474D01*
X13066701Y-11733621D01*
X13060907Y-11735818D01*
X13060094Y-11736379D01*
X13058094Y-11737507D01*
X13057194Y-11737912D01*
X13057194Y-11737912D01*
X13052316Y-11741734D01*
X13052007Y-11741961D01*
X13046907Y-11745481D01*
X13046907Y-11745482D01*
X13042798Y-11750120D01*
X13042535Y-11750400D01*
X12982299Y-11810635D01*
X12982020Y-11810897D01*
X12977382Y-11815007D01*
X12977381Y-11815007D01*
X12973861Y-11820108D01*
X12973633Y-11820417D01*
X12969812Y-11825294D01*
X12969812Y-11825295D01*
X12969407Y-11826194D01*
X12968279Y-11828195D01*
X12967718Y-11829007D01*
X12967718Y-11829007D01*
X12965521Y-11834801D01*
X12965374Y-11835155D01*
X12962830Y-11840807D01*
X12962653Y-11841778D01*
X12962036Y-11843991D01*
X12961686Y-11844913D01*
X12960939Y-11851063D01*
X12960881Y-11851443D01*
X12959764Y-11857539D01*
X12959764Y-11857539D01*
X12960138Y-11863725D01*
X12960150Y-11864108D01*
X12960150Y-12189691D01*
X12960138Y-12190075D01*
X12959764Y-12196260D01*
X12730050Y-12196260D01*
X12730050Y-11036300D01*
X12732066Y-11029434D01*
X12737474Y-11024748D01*
X12742750Y-11023600D01*
X15633700Y-11023600D01*
X15640566Y-11025616D01*
G37*
%TD.AperFunction*%
%TD*%
%TA.AperFunction,NonConductor*%
G36*
X14411685Y-7851325D02*
G01*
X14416705Y-7856345D01*
X14418215Y-7863283D01*
X14418072Y-7864473D01*
X14417415Y-7868381D01*
X14419151Y-7882900D01*
X14424907Y-7896341D01*
X14424907Y-7896342D01*
X14434217Y-7907617D01*
X14434217Y-7907617D01*
X14434217Y-7907617D01*
X14439136Y-7911209D01*
X14439137Y-7911210D01*
X14439137Y-7911210D01*
X14546547Y-7973223D01*
X14551041Y-7975211D01*
X14552118Y-7975687D01*
X14566538Y-7978112D01*
X14573891Y-7977233D01*
X14580892Y-7978410D01*
X14586146Y-7983186D01*
X14586970Y-7984784D01*
X14589885Y-7991591D01*
X14589885Y-7991592D01*
X14599194Y-8002867D01*
X14599195Y-8002867D01*
X14599195Y-8002867D01*
X14604114Y-8006459D01*
X14604115Y-8006460D01*
X14604115Y-8006460D01*
X14711525Y-8068473D01*
X14717095Y-8070937D01*
X14717096Y-8070937D01*
X14731665Y-8073387D01*
X14738051Y-8076489D01*
X14741746Y-8082552D01*
X14741577Y-8089649D01*
X14741158Y-8090773D01*
X14739366Y-8094958D01*
X14737630Y-8109477D01*
X14740055Y-8123896D01*
X14740055Y-8123897D01*
X14742519Y-8129467D01*
X14804532Y-8236877D01*
X14804533Y-8236878D01*
X14808125Y-8241797D01*
X14808125Y-8241798D01*
X14814686Y-8247215D01*
X14819401Y-8251107D01*
X14826209Y-8254022D01*
X14831683Y-8258542D01*
X14833845Y-8265305D01*
X14833759Y-8267101D01*
X14832880Y-8274454D01*
X14835305Y-8288874D01*
X14835305Y-8288875D01*
X14837769Y-8294445D01*
X14899782Y-8401855D01*
X14899783Y-8401856D01*
X14903375Y-8406775D01*
X14903375Y-8406775D01*
X14914651Y-8416085D01*
X14914651Y-8416085D01*
X14928056Y-8421826D01*
X14933531Y-8426346D01*
X14935693Y-8433108D01*
X14933855Y-8439966D01*
X14930647Y-8443495D01*
X14919504Y-8451837D01*
X14910742Y-8463542D01*
X14910742Y-8463542D01*
X14905632Y-8477242D01*
X14905632Y-8477243D01*
X14904981Y-8483298D01*
X14904981Y-8607327D01*
X14905632Y-8613382D01*
X14905632Y-8613383D01*
X14910742Y-8627083D01*
X14910742Y-8627083D01*
X14915180Y-8633012D01*
X14917661Y-8639664D01*
X14916152Y-8646601D01*
X14915180Y-8648113D01*
X14910742Y-8654042D01*
X14910742Y-8654042D01*
X14905632Y-8667742D01*
X14905632Y-8667743D01*
X14904981Y-8673798D01*
X14904981Y-8797827D01*
X14905632Y-8803882D01*
X14905632Y-8803883D01*
X14910742Y-8817583D01*
X14910742Y-8817583D01*
X14919504Y-8829289D01*
X14931280Y-8838104D01*
X14935535Y-8843787D01*
X14936041Y-8850869D01*
X14932639Y-8857100D01*
X14926408Y-8860503D01*
X14925225Y-8860702D01*
X14920467Y-8861270D01*
X14907026Y-8867026D01*
X14907026Y-8867026D01*
X14895750Y-8876336D01*
X14895750Y-8876336D01*
X14892158Y-8881255D01*
X14892157Y-8881257D01*
X14830144Y-8988667D01*
X14827680Y-8994237D01*
X14827680Y-8994237D01*
X14825255Y-9008657D01*
X14826135Y-9016010D01*
X14824957Y-9023012D01*
X14820182Y-9028265D01*
X14818584Y-9029089D01*
X14811776Y-9032004D01*
X14811776Y-9032004D01*
X14800500Y-9041314D01*
X14800500Y-9041314D01*
X14796908Y-9046233D01*
X14796907Y-9046234D01*
X14734894Y-9153645D01*
X14732430Y-9159214D01*
X14732430Y-9159215D01*
X14730005Y-9173635D01*
X14730985Y-9181830D01*
X14729808Y-9188832D01*
X14725032Y-9194085D01*
X14718174Y-9195923D01*
X14716978Y-9195837D01*
X14709026Y-9194886D01*
X14694607Y-9197311D01*
X14694606Y-9197311D01*
X14689036Y-9199775D01*
X14581626Y-9261789D01*
X14581625Y-9261789D01*
X14576705Y-9265381D01*
X14576705Y-9265382D01*
X14567396Y-9276657D01*
X14567396Y-9276657D01*
X14564480Y-9283465D01*
X14559960Y-9288939D01*
X14553198Y-9291101D01*
X14551402Y-9291016D01*
X14544048Y-9290136D01*
X14529629Y-9292561D01*
X14529628Y-9292561D01*
X14524058Y-9295025D01*
X14416648Y-9357039D01*
X14416647Y-9357039D01*
X14411728Y-9360631D01*
X14411727Y-9360632D01*
X14402418Y-9371907D01*
X14402418Y-9371907D01*
X14396662Y-9385348D01*
X14396462Y-9387019D01*
X14394926Y-9399867D01*
X14395325Y-9402242D01*
X14397409Y-9414631D01*
X14396566Y-9421680D01*
X14394485Y-9424995D01*
X14392148Y-9427679D01*
X14390114Y-9430014D01*
X14389380Y-9430814D01*
X14384889Y-9435711D01*
X14384446Y-9436330D01*
X14384416Y-9436308D01*
X14384234Y-9436569D01*
X14384265Y-9436590D01*
X14383838Y-9437221D01*
X14380304Y-9444094D01*
X14376596Y-9450874D01*
X14376313Y-9451582D01*
X14376278Y-9451568D01*
X14376165Y-9451863D01*
X14376200Y-9451876D01*
X14375936Y-9452591D01*
X14374149Y-9460113D01*
X14372172Y-9467581D01*
X14372067Y-9468336D01*
X14372030Y-9468330D01*
X14371990Y-9468646D01*
X14372027Y-9468650D01*
X14371942Y-9469407D01*
X14372007Y-9477134D01*
X14371949Y-9480526D01*
X14371949Y-9480526D01*
X14372013Y-9481140D01*
X14372046Y-9481738D01*
X14372088Y-9486689D01*
X14372706Y-9489106D01*
X14373030Y-9490921D01*
X14379819Y-9556196D01*
X14378534Y-9563178D01*
X14373679Y-9568358D01*
X14370548Y-9569670D01*
X14360020Y-9572491D01*
X14351031Y-9574900D01*
X14348506Y-9575823D01*
X14340247Y-9578842D01*
X14340246Y-9578842D01*
X14323531Y-9588873D01*
X14309177Y-9602063D01*
X14309177Y-9602063D01*
X14297772Y-9617872D01*
X14297772Y-9617873D01*
X14289783Y-9635654D01*
X14289783Y-9635654D01*
X14285537Y-9654680D01*
X14285537Y-9654680D01*
X14285208Y-9674171D01*
X14285208Y-9674172D01*
X14287186Y-9685483D01*
X14312996Y-9781807D01*
X14316243Y-9789780D01*
X14316243Y-9789780D01*
X14325127Y-9801358D01*
X14325144Y-9801381D01*
X14330316Y-9805300D01*
X14332005Y-9806581D01*
X14332007Y-9806582D01*
X14355122Y-9819927D01*
X14360022Y-9825066D01*
X14361422Y-9830839D01*
X14361422Y-10082224D01*
X14359422Y-10089036D01*
X14356678Y-10092075D01*
X14347963Y-10099026D01*
X14333518Y-10115559D01*
X14322257Y-10134406D01*
X14322257Y-10134407D01*
X14318401Y-10144682D01*
X14314134Y-10150357D01*
X14307477Y-10152824D01*
X14300543Y-10151301D01*
X14295533Y-10146270D01*
X14294808Y-10144682D01*
X14294744Y-10144512D01*
X14294744Y-10144511D01*
X14285218Y-10124730D01*
X14272313Y-10106968D01*
X14256444Y-10091796D01*
X14256444Y-10091796D01*
X14256004Y-10091445D01*
X14251925Y-10085634D01*
X14251259Y-10081594D01*
X14251259Y-9613471D01*
X14253260Y-9606659D01*
X14258625Y-9602010D01*
X14259454Y-9601666D01*
X14269317Y-9597988D01*
X14281023Y-9589225D01*
X14286248Y-9582244D01*
X14289785Y-9577519D01*
X14289785Y-9577519D01*
X14289785Y-9577519D01*
X14294895Y-9563819D01*
X14295008Y-9562769D01*
X14295546Y-9557764D01*
X14295546Y-9557762D01*
X14295546Y-9433735D01*
X14295546Y-9433734D01*
X14294895Y-9427679D01*
X14294895Y-9427678D01*
X14290029Y-9414631D01*
X14289785Y-9413978D01*
X14289785Y-9413978D01*
X14289785Y-9413978D01*
X14285347Y-9408050D01*
X14282866Y-9401398D01*
X14284375Y-9394460D01*
X14285347Y-9392948D01*
X14289785Y-9387020D01*
X14289785Y-9387020D01*
X14289785Y-9387019D01*
X14294895Y-9373319D01*
X14295047Y-9371907D01*
X14295546Y-9367264D01*
X14295546Y-9367262D01*
X14295546Y-9243235D01*
X14295546Y-9243234D01*
X14294895Y-9237179D01*
X14294895Y-9237178D01*
X14290958Y-9226623D01*
X14289785Y-9223478D01*
X14289785Y-9223478D01*
X14289785Y-9223478D01*
X14281023Y-9211773D01*
X14278854Y-9210150D01*
X14274600Y-9204466D01*
X14274094Y-9197384D01*
X14277496Y-9191154D01*
X14377973Y-9090677D01*
X14384204Y-9087274D01*
X14391285Y-9087781D01*
X14392997Y-9088569D01*
X14393393Y-9088789D01*
X14411993Y-9094625D01*
X14431387Y-9096597D01*
X14450781Y-9094625D01*
X14469381Y-9088789D01*
X14486425Y-9079329D01*
X14495232Y-9071960D01*
X14609160Y-8958032D01*
X14616529Y-8949225D01*
X14625989Y-8932181D01*
X14631825Y-8913581D01*
X14633797Y-8894187D01*
X14631825Y-8874793D01*
X14625989Y-8856193D01*
X14616529Y-8839148D01*
X14609160Y-8830342D01*
X14537658Y-8758840D01*
X14528852Y-8751471D01*
X14528851Y-8751471D01*
X14511807Y-8742011D01*
X14493207Y-8736175D01*
X14480278Y-8734860D01*
X14473813Y-8734203D01*
X14473813Y-8734203D01*
X14454419Y-8736175D01*
X14435819Y-8742011D01*
X14418775Y-8751471D01*
X14413448Y-8755929D01*
X14409968Y-8758840D01*
X14296040Y-8872768D01*
X14293128Y-8876248D01*
X14288671Y-8881575D01*
X14279211Y-8898619D01*
X14273375Y-8917219D01*
X14271403Y-8936613D01*
X14273375Y-8956007D01*
X14279211Y-8974607D01*
X14279431Y-8975004D01*
X14280987Y-8981930D01*
X14278552Y-8988599D01*
X14277323Y-8990027D01*
X14126178Y-9141173D01*
X14125901Y-9141433D01*
X14121184Y-9145612D01*
X14117604Y-9150799D01*
X14117378Y-9151105D01*
X14113493Y-9156064D01*
X14113493Y-9156064D01*
X14113070Y-9157004D01*
X14111951Y-9158988D01*
X14111366Y-9159835D01*
X14111366Y-9159836D01*
X14109131Y-9165729D01*
X14108985Y-9166080D01*
X14106400Y-9171825D01*
X14106400Y-9171825D01*
X14106214Y-9172838D01*
X14105602Y-9175033D01*
X14105237Y-9175996D01*
X14104478Y-9182249D01*
X14104420Y-9182626D01*
X14103447Y-9187938D01*
X14100252Y-9194278D01*
X14094772Y-9197509D01*
X14094815Y-9197624D01*
X14094166Y-9197866D01*
X14094136Y-9197884D01*
X14094084Y-9197897D01*
X14080376Y-9203010D01*
X14080376Y-9203010D01*
X14068670Y-9211773D01*
X14059908Y-9223478D01*
X14059907Y-9223478D01*
X14054798Y-9237178D01*
X14054797Y-9237179D01*
X14054146Y-9243234D01*
X14054146Y-9367264D01*
X14054797Y-9373318D01*
X14054798Y-9373319D01*
X14059907Y-9387019D01*
X14059907Y-9387019D01*
X14060435Y-9387723D01*
X14064346Y-9392948D01*
X14066827Y-9399600D01*
X14065318Y-9406537D01*
X14064346Y-9408049D01*
X14059908Y-9413978D01*
X14059907Y-9413978D01*
X14054798Y-9427678D01*
X14054797Y-9427679D01*
X14054146Y-9433734D01*
X14054146Y-9557764D01*
X14054797Y-9563818D01*
X14054798Y-9563819D01*
X14059907Y-9577519D01*
X14059908Y-9577519D01*
X14068670Y-9589225D01*
X14080376Y-9597987D01*
X14080376Y-9597988D01*
X14080376Y-9597988D01*
X14082984Y-9598960D01*
X14094076Y-9603098D01*
X14094076Y-9603098D01*
X14094076Y-9603098D01*
X14094077Y-9603098D01*
X14097012Y-9603413D01*
X14097666Y-9603484D01*
X14104225Y-9606200D01*
X14108275Y-9612032D01*
X14108919Y-9616011D01*
X14108919Y-10082224D01*
X14106919Y-10089036D01*
X14104175Y-10092075D01*
X14095460Y-10099026D01*
X14081015Y-10115559D01*
X14069754Y-10134406D01*
X14069754Y-10134407D01*
X14065056Y-10146926D01*
X14060789Y-10152601D01*
X14054132Y-10155068D01*
X14047198Y-10153545D01*
X14042188Y-10148514D01*
X14041113Y-10145850D01*
X14040791Y-10144682D01*
X14040744Y-10144511D01*
X14031218Y-10124730D01*
X14018313Y-10106968D01*
X14002444Y-10091796D01*
X14002444Y-10091796D01*
X14002004Y-10091445D01*
X13997925Y-10085634D01*
X13997259Y-10081594D01*
X13997259Y-9859537D01*
X13999260Y-9852724D01*
X14002488Y-9849318D01*
X14002769Y-9849115D01*
X14002770Y-9849115D01*
X14018579Y-9837710D01*
X14031769Y-9823356D01*
X14041800Y-9806641D01*
X14045743Y-9795856D01*
X14045743Y-9795856D01*
X14071914Y-9698183D01*
X14072520Y-9694717D01*
X14073892Y-9686872D01*
X14073563Y-9667380D01*
X14069317Y-9648354D01*
X14061328Y-9630573D01*
X14049923Y-9614763D01*
X14035569Y-9601573D01*
X14035569Y-9601573D01*
X14018854Y-9591542D01*
X14018853Y-9591542D01*
X14010988Y-9588667D01*
X14008069Y-9587600D01*
X13994042Y-9583841D01*
X13974309Y-9578553D01*
X13968247Y-9574858D01*
X13965144Y-9568472D01*
X13964970Y-9566383D01*
X13964970Y-9500907D01*
X13964981Y-9500526D01*
X13964984Y-9500492D01*
X13965362Y-9494238D01*
X13964226Y-9488039D01*
X13964169Y-9487666D01*
X13963409Y-9481410D01*
X13963044Y-9480448D01*
X13962432Y-9478250D01*
X13962246Y-9477238D01*
X13959660Y-9471492D01*
X13959515Y-9471140D01*
X13957281Y-9465250D01*
X13956696Y-9464403D01*
X13955575Y-9462416D01*
X13955153Y-9461478D01*
X13955153Y-9461478D01*
X13955153Y-9461478D01*
X13951267Y-9456517D01*
X13951043Y-9456213D01*
X13949250Y-9453615D01*
X13947026Y-9446873D01*
X13948708Y-9440158D01*
X13959057Y-9422233D01*
X13961521Y-9416662D01*
X13963946Y-9402242D01*
X13962210Y-9387723D01*
X13956454Y-9374282D01*
X13947144Y-9363006D01*
X13942225Y-9359414D01*
X13942224Y-9359413D01*
X13834814Y-9297400D01*
X13829244Y-9294936D01*
X13829243Y-9294936D01*
X13814824Y-9292511D01*
X13807470Y-9293391D01*
X13800469Y-9292213D01*
X13795215Y-9287438D01*
X13794392Y-9285840D01*
X13791476Y-9279032D01*
X13782167Y-9267756D01*
X13777247Y-9264164D01*
X13777246Y-9264163D01*
X13669836Y-9202150D01*
X13664266Y-9199686D01*
X13664265Y-9199686D01*
X13649846Y-9197261D01*
X13635327Y-9198997D01*
X13621886Y-9204753D01*
X13621885Y-9204753D01*
X13610610Y-9214063D01*
X13610610Y-9214063D01*
X13607147Y-9218805D01*
X13601515Y-9223127D01*
X13594440Y-9223718D01*
X13592909Y-9223281D01*
X13592718Y-9223236D01*
X13591659Y-9223117D01*
X13585113Y-9220367D01*
X13581093Y-9214515D01*
X13580489Y-9211327D01*
X13580465Y-9210903D01*
X13580407Y-9209901D01*
X13580432Y-9208086D01*
X13580655Y-9205505D01*
X13580537Y-9204753D01*
X13579902Y-9200700D01*
X13579837Y-9200093D01*
X13579555Y-9195236D01*
X13579555Y-9195235D01*
X13579446Y-9194635D01*
X13580203Y-9187576D01*
X13584415Y-9182218D01*
X13586929Y-9180382D01*
X13596239Y-9169107D01*
X13601995Y-9155665D01*
X13603731Y-9141146D01*
X13601306Y-9126726D01*
X13599921Y-9123596D01*
X13598842Y-9121156D01*
X13536828Y-9013746D01*
X13536827Y-9013744D01*
X13533236Y-9008825D01*
X13533235Y-9008825D01*
X13521960Y-8999516D01*
X13521960Y-8999515D01*
X13515152Y-8996600D01*
X13509678Y-8992080D01*
X13507516Y-8985318D01*
X13507601Y-8983523D01*
X13508481Y-8976168D01*
X13508285Y-8975004D01*
X13506056Y-8961749D01*
X13506056Y-8961748D01*
X13503592Y-8956178D01*
X13441578Y-8848768D01*
X13441577Y-8848767D01*
X13437986Y-8843848D01*
X13437985Y-8843847D01*
X13426710Y-8834538D01*
X13426710Y-8834538D01*
X13418570Y-8831052D01*
X13413095Y-8826532D01*
X13410933Y-8819769D01*
X13412771Y-8812911D01*
X13413443Y-8811918D01*
X13417551Y-8806430D01*
X13420619Y-8802332D01*
X13425729Y-8788632D01*
X13426201Y-8784246D01*
X13426380Y-8782576D01*
X13426380Y-8782575D01*
X13426380Y-8658548D01*
X13426380Y-8658547D01*
X13425729Y-8652492D01*
X13425729Y-8652491D01*
X13421719Y-8641740D01*
X14013650Y-8641740D01*
X14017576Y-8652526D01*
X14017576Y-8652526D01*
X14024954Y-8661319D01*
X14034895Y-8667059D01*
X14043352Y-8668550D01*
X14128050Y-8668550D01*
X14134862Y-8670550D01*
X14139511Y-8675916D01*
X14140650Y-8681150D01*
X14140650Y-8765847D01*
X14142141Y-8774304D01*
X14142141Y-8774305D01*
X14147880Y-8784245D01*
X14147880Y-8784245D01*
X14147881Y-8784246D01*
X14156674Y-8791624D01*
X14160269Y-8792933D01*
X14167460Y-8795550D01*
X14167461Y-8795550D01*
X14178940Y-8795550D01*
X14184333Y-8793587D01*
X14189726Y-8791624D01*
X14198519Y-8784246D01*
X14204259Y-8774305D01*
X14205750Y-8765848D01*
X14205750Y-8681150D01*
X14207750Y-8674338D01*
X14213116Y-8669689D01*
X14218350Y-8668550D01*
X14303047Y-8668550D01*
X14303047Y-8668550D01*
X14311504Y-8667059D01*
X14321445Y-8661319D01*
X14328824Y-8652526D01*
X14332750Y-8641739D01*
X14332750Y-8630261D01*
X14332750Y-8630260D01*
X14328824Y-8619474D01*
X14328824Y-8619474D01*
X14322412Y-8611832D01*
X14321445Y-8610681D01*
X14321445Y-8610681D01*
X14311504Y-8604941D01*
X14304858Y-8603769D01*
X14303047Y-8603450D01*
X14303047Y-8603450D01*
X14218350Y-8603450D01*
X14211538Y-8601450D01*
X14206889Y-8596084D01*
X14205750Y-8590850D01*
X14205750Y-8506153D01*
X14204259Y-8497696D01*
X14204259Y-8497695D01*
X14198520Y-8487755D01*
X14198519Y-8487754D01*
X14190922Y-8481380D01*
X14189726Y-8480376D01*
X14189726Y-8480376D01*
X14178940Y-8476450D01*
X14178939Y-8476450D01*
X14167461Y-8476450D01*
X14167460Y-8476450D01*
X14156674Y-8480376D01*
X14156674Y-8480376D01*
X14147880Y-8487755D01*
X14142141Y-8497696D01*
X14140650Y-8506153D01*
X14140650Y-8590850D01*
X14138650Y-8597662D01*
X14133284Y-8602311D01*
X14128050Y-8603450D01*
X14043352Y-8603450D01*
X14042085Y-8603674D01*
X14034895Y-8604941D01*
X14034895Y-8604941D01*
X14024955Y-8610680D01*
X14024954Y-8610681D01*
X14017576Y-8619474D01*
X14013650Y-8630260D01*
X14013650Y-8641740D01*
X13421719Y-8641740D01*
X13420619Y-8638791D01*
X13420619Y-8638791D01*
X13416181Y-8632863D01*
X13413700Y-8626211D01*
X13415209Y-8619273D01*
X13416181Y-8617761D01*
X13420619Y-8611832D01*
X13420619Y-8611832D01*
X13420619Y-8611832D01*
X13425729Y-8598132D01*
X13426380Y-8592075D01*
X13426380Y-8468048D01*
X13426114Y-8465570D01*
X13425729Y-8461992D01*
X13425729Y-8461991D01*
X13420619Y-8448291D01*
X13420619Y-8448291D01*
X13411856Y-8436585D01*
X13410122Y-8435287D01*
X13405867Y-8429603D01*
X13405361Y-8422522D01*
X13408763Y-8416290D01*
X13414995Y-8412888D01*
X13416176Y-8412689D01*
X13423269Y-8411841D01*
X13436710Y-8406085D01*
X13447986Y-8396775D01*
X13451578Y-8391856D01*
X13513592Y-8284445D01*
X13516056Y-8278874D01*
X13518481Y-8264455D01*
X13517601Y-8257101D01*
X13518779Y-8250100D01*
X13523554Y-8244846D01*
X13525152Y-8244023D01*
X13531960Y-8241107D01*
X13543236Y-8231798D01*
X13546828Y-8226878D01*
X13608842Y-8119467D01*
X13611306Y-8113897D01*
X13613731Y-8099477D01*
X13611995Y-8084958D01*
X13610011Y-8080325D01*
X13609168Y-8073276D01*
X13612270Y-8066890D01*
X13618332Y-8063195D01*
X13625430Y-8063364D01*
X13629901Y-8066181D01*
X13630002Y-8066059D01*
X13632926Y-8068473D01*
X13641885Y-8075870D01*
X13655327Y-8081626D01*
X13669846Y-8083362D01*
X13669846Y-8083362D01*
X13669846Y-8083362D01*
X13674667Y-8082552D01*
X13684265Y-8080938D01*
X13689836Y-8078473D01*
X13797247Y-8016460D01*
X13802166Y-8012868D01*
X13811476Y-8001592D01*
X13814391Y-7994784D01*
X13818911Y-7989310D01*
X13825674Y-7987148D01*
X13827469Y-7987233D01*
X13834823Y-7988112D01*
X13834823Y-7988112D01*
X13834824Y-7988112D01*
X13840561Y-7987148D01*
X13849243Y-7985688D01*
X13854814Y-7983223D01*
X13962225Y-7921210D01*
X13967144Y-7917618D01*
X13976454Y-7906342D01*
X13982210Y-7892900D01*
X13983946Y-7878382D01*
X13984053Y-7877487D01*
X13984334Y-7877520D01*
X13985796Y-7872064D01*
X13991050Y-7867288D01*
X13998051Y-7866111D01*
X14004577Y-7868905D01*
X14006642Y-7871071D01*
X14006954Y-7871488D01*
X14018660Y-7880250D01*
X14018660Y-7880250D01*
X14018660Y-7880250D01*
X14024568Y-7882454D01*
X14032360Y-7885360D01*
X14032361Y-7885360D01*
X14038415Y-7886011D01*
X14038416Y-7886011D01*
X14038417Y-7886011D01*
X14038417Y-7886011D01*
X14162444Y-7886011D01*
X14162444Y-7886011D01*
X14162445Y-7886011D01*
X14162445Y-7886011D01*
X14168500Y-7885360D01*
X14168500Y-7885360D01*
X14168500Y-7885360D01*
X14182201Y-7880250D01*
X14188129Y-7875812D01*
X14194781Y-7873331D01*
X14201719Y-7874840D01*
X14203231Y-7875812D01*
X14209159Y-7880250D01*
X14209160Y-7880250D01*
X14209160Y-7880250D01*
X14215068Y-7882454D01*
X14222860Y-7885360D01*
X14222861Y-7885360D01*
X14228915Y-7886011D01*
X14228916Y-7886011D01*
X14228917Y-7886011D01*
X14228917Y-7886011D01*
X14352944Y-7886011D01*
X14352944Y-7886011D01*
X14352945Y-7886011D01*
X14352945Y-7886011D01*
X14359000Y-7885360D01*
X14359000Y-7885360D01*
X14359000Y-7885360D01*
X14372701Y-7880250D01*
X14372833Y-7880152D01*
X14384406Y-7871488D01*
X14393169Y-7859782D01*
X14393169Y-7859782D01*
X14393169Y-7859782D01*
X14393841Y-7857980D01*
X14398096Y-7852297D01*
X14404748Y-7849816D01*
X14411685Y-7851325D01*
G37*
%TD.AperFunction*%
%TA.AperFunction,NonConductor*%
G36*
X14312139Y-10366022D02*
G01*
X14317149Y-10371052D01*
X14317874Y-10372640D01*
X14317938Y-10372811D01*
X14327464Y-10392592D01*
X14327464Y-10392593D01*
X14340369Y-10410355D01*
X14340369Y-10410355D01*
X14356238Y-10425527D01*
X14369892Y-10434540D01*
X14374475Y-10439962D01*
X14375400Y-10447001D01*
X14372371Y-10453423D01*
X14368948Y-10456137D01*
X14358035Y-10462043D01*
X14358035Y-10462043D01*
X14340269Y-10475871D01*
X14325020Y-10492434D01*
X14316889Y-10504880D01*
X14311489Y-10509489D01*
X14304454Y-10510446D01*
X14298018Y-10507449D01*
X14295793Y-10504880D01*
X14287661Y-10492434D01*
X14272413Y-10475871D01*
X14264228Y-10469500D01*
X14254647Y-10462043D01*
X14243796Y-10456171D01*
X14238757Y-10451169D01*
X14237222Y-10444238D01*
X14239678Y-10437576D01*
X14243822Y-10433994D01*
X14247554Y-10431986D01*
X14264719Y-10418297D01*
X14279164Y-10401763D01*
X14290425Y-10382916D01*
X14294281Y-10372641D01*
X14298547Y-10366966D01*
X14305204Y-10364499D01*
X14312139Y-10366022D01*
G37*
%TD.AperFunction*%
%TA.AperFunction,NonConductor*%
G36*
X14058981Y-10363778D02*
G01*
X14063991Y-10368809D01*
X14065066Y-10371473D01*
X14065435Y-10372812D01*
X14074961Y-10392592D01*
X14074961Y-10392593D01*
X14087866Y-10410355D01*
X14087866Y-10410355D01*
X14103735Y-10425527D01*
X14117389Y-10434540D01*
X14121972Y-10439962D01*
X14122897Y-10447001D01*
X14119868Y-10453423D01*
X14116445Y-10456137D01*
X14105532Y-10462043D01*
X14105532Y-10462043D01*
X14087766Y-10475871D01*
X14072517Y-10492434D01*
X14063638Y-10506026D01*
X14058237Y-10510635D01*
X14051203Y-10511592D01*
X14044767Y-10508594D01*
X14042541Y-10506026D01*
X14033661Y-10492434D01*
X14018413Y-10475871D01*
X14010228Y-10469500D01*
X14000647Y-10462043D01*
X13989796Y-10456171D01*
X13984757Y-10451169D01*
X13983222Y-10444238D01*
X13985678Y-10437576D01*
X13989822Y-10433994D01*
X13993554Y-10431986D01*
X14010719Y-10418297D01*
X14025164Y-10401763D01*
X14036425Y-10382916D01*
X14041123Y-10370397D01*
X14045389Y-10364723D01*
X14052046Y-10362255D01*
X14058981Y-10363778D01*
G37*
%TD.AperFunction*%
%TA.AperFunction,NonConductor*%
G36*
X14061412Y-10643728D02*
G01*
X14063637Y-10646297D01*
X14066950Y-10651367D01*
X14072517Y-10659888D01*
X14072517Y-10659889D01*
X14087766Y-10676452D01*
X14093223Y-10680700D01*
X14105532Y-10690280D01*
X14110202Y-10692808D01*
X14115241Y-10697809D01*
X14116776Y-10704740D01*
X14114320Y-10711402D01*
X14108652Y-10715678D01*
X14104183Y-10716489D01*
X14002270Y-10716318D01*
X13995461Y-10714306D01*
X13990821Y-10708933D01*
X13989822Y-10701903D01*
X13992782Y-10695450D01*
X13996294Y-10692636D01*
X14000647Y-10690280D01*
X14018413Y-10676452D01*
X14033662Y-10659888D01*
X14042541Y-10646297D01*
X14047941Y-10641688D01*
X14054976Y-10640731D01*
X14061412Y-10643728D01*
G37*
%TD.AperFunction*%
%TA.AperFunction,NonConductor*%
G36*
X14314664Y-10644874D02*
G01*
X14316889Y-10647443D01*
X14325020Y-10659888D01*
X14325020Y-10659889D01*
X14340269Y-10676452D01*
X14345726Y-10680700D01*
X14358035Y-10690280D01*
X14363491Y-10693233D01*
X14368530Y-10698234D01*
X14370065Y-10705166D01*
X14367609Y-10711827D01*
X14361942Y-10716103D01*
X14357473Y-10716915D01*
X14255483Y-10716743D01*
X14248674Y-10714731D01*
X14244034Y-10709358D01*
X14243036Y-10702329D01*
X14245996Y-10695876D01*
X14249507Y-10693062D01*
X14254647Y-10690280D01*
X14272413Y-10676452D01*
X14287662Y-10659888D01*
X14295793Y-10647443D01*
X14301193Y-10642834D01*
X14308228Y-10641877D01*
X14314664Y-10644874D01*
G37*
%TD.AperFunction*%
%TA.AperFunction,NonConductor*%
G36*
X15522719Y-7354302D02*
G01*
X15529514Y-7356360D01*
X15534119Y-7361764D01*
X15535214Y-7366851D01*
X15541085Y-8834775D01*
X15527717Y-10706350D01*
X15525668Y-10713148D01*
X15520270Y-10717759D01*
X15515096Y-10718860D01*
X14507204Y-10717166D01*
X14500396Y-10715154D01*
X14495756Y-10709781D01*
X14494757Y-10702752D01*
X14497717Y-10696299D01*
X14501228Y-10693485D01*
X14507150Y-10690280D01*
X14524916Y-10676452D01*
X14540165Y-10659888D01*
X14552478Y-10641041D01*
X14561522Y-10620423D01*
X14567049Y-10598598D01*
X14568908Y-10576162D01*
X14567049Y-10553725D01*
X14561522Y-10531900D01*
X14552478Y-10511282D01*
X14551806Y-10510254D01*
X14540165Y-10492435D01*
X14540164Y-10492434D01*
X14524916Y-10475871D01*
X14516731Y-10469500D01*
X14507150Y-10462043D01*
X14496299Y-10456171D01*
X14491260Y-10451169D01*
X14489725Y-10444238D01*
X14492181Y-10437576D01*
X14496325Y-10433994D01*
X14500057Y-10431986D01*
X14517222Y-10418297D01*
X14531667Y-10401763D01*
X14542928Y-10382916D01*
X14550642Y-10362361D01*
X14552586Y-10351648D01*
X14554562Y-10340759D01*
X14554562Y-10182064D01*
X14554562Y-10182064D01*
X14553087Y-10165675D01*
X14553087Y-10165675D01*
X14547247Y-10144511D01*
X14537721Y-10124731D01*
X14537720Y-10124730D01*
X14524816Y-10106968D01*
X14524816Y-10106968D01*
X14508947Y-10091796D01*
X14508507Y-10091445D01*
X14504428Y-10085634D01*
X14503762Y-10081594D01*
X14503762Y-9835281D01*
X14505763Y-9828469D01*
X14511128Y-9823820D01*
X14513101Y-9823110D01*
X14555915Y-9811639D01*
X14579568Y-9805301D01*
X14579568Y-9805301D01*
X14579569Y-9805300D01*
X14579569Y-9805300D01*
X14583052Y-9804027D01*
X14590353Y-9801358D01*
X14590354Y-9801358D01*
X14597043Y-9797344D01*
X14607069Y-9791327D01*
X14621423Y-9778137D01*
X14632828Y-9762327D01*
X14640817Y-9744546D01*
X14645063Y-9725520D01*
X14645392Y-9706029D01*
X14643414Y-9694718D01*
X14643414Y-9694717D01*
X14617243Y-9597044D01*
X14613300Y-9586260D01*
X14613300Y-9586260D01*
X14613300Y-9586260D01*
X14603269Y-9569544D01*
X14590079Y-9555190D01*
X14590079Y-9555190D01*
X14590079Y-9555190D01*
X14589807Y-9554948D01*
X14589701Y-9554778D01*
X14589647Y-9554720D01*
X14589658Y-9554710D01*
X14586042Y-9548929D01*
X14586130Y-9541830D01*
X14590041Y-9535905D01*
X14591874Y-9534617D01*
X14644758Y-9504084D01*
X14649678Y-9500492D01*
X14658987Y-9489216D01*
X14661903Y-9482408D01*
X14666423Y-9476934D01*
X14673185Y-9474772D01*
X14674980Y-9474857D01*
X14682335Y-9475737D01*
X14682335Y-9475737D01*
X14682335Y-9475737D01*
X14688072Y-9474772D01*
X14696754Y-9473312D01*
X14702325Y-9470848D01*
X14762003Y-9436393D01*
X14768902Y-9434719D01*
X14775612Y-9437041D01*
X14780000Y-9442622D01*
X14780838Y-9446030D01*
X14781375Y-9451307D01*
X14787211Y-9469907D01*
X14796671Y-9486952D01*
X14798145Y-9488713D01*
X14804040Y-9495758D01*
X14875542Y-9567260D01*
X14884348Y-9574629D01*
X14901393Y-9584089D01*
X14919993Y-9589925D01*
X14939387Y-9591897D01*
X14958781Y-9589925D01*
X14977381Y-9584089D01*
X14994425Y-9574629D01*
X15003232Y-9567260D01*
X15117160Y-9453332D01*
X15124529Y-9444525D01*
X15133989Y-9427481D01*
X15139825Y-9408881D01*
X15141797Y-9389487D01*
X15139825Y-9370093D01*
X15133989Y-9351493D01*
X15124529Y-9334448D01*
X15117160Y-9325642D01*
X15045658Y-9254140D01*
X15036852Y-9246771D01*
X15036851Y-9246771D01*
X15019807Y-9237311D01*
X15001207Y-9231475D01*
X14989880Y-9230323D01*
X14983305Y-9227644D01*
X14979223Y-9221836D01*
X14978929Y-9214742D01*
X14980243Y-9211489D01*
X15005967Y-9166933D01*
X15008431Y-9161363D01*
X15010856Y-9146943D01*
X15009976Y-9139589D01*
X15011154Y-9132588D01*
X15015929Y-9127335D01*
X15017527Y-9126511D01*
X15024335Y-9123596D01*
X15035611Y-9114286D01*
X15039203Y-9109367D01*
X15080944Y-9037069D01*
X15086082Y-9032170D01*
X15093053Y-9030827D01*
X15099644Y-9033465D01*
X15102074Y-9035998D01*
X15105090Y-9040179D01*
X15119444Y-9053369D01*
X15136159Y-9063400D01*
X15136160Y-9063400D01*
X15136160Y-9063401D01*
X15146944Y-9067343D01*
X15244617Y-9093514D01*
X15244618Y-9093514D01*
X15255928Y-9095492D01*
X15275420Y-9095163D01*
X15294446Y-9090917D01*
X15312227Y-9082928D01*
X15328037Y-9071523D01*
X15341227Y-9057169D01*
X15347790Y-9046233D01*
X15351258Y-9040454D01*
X15351258Y-9040453D01*
X15355201Y-9029668D01*
X15355201Y-9029668D01*
X15396901Y-8874041D01*
X15398127Y-8867026D01*
X15398879Y-8862729D01*
X15398550Y-8843238D01*
X15394304Y-8824212D01*
X15386315Y-8806430D01*
X15374910Y-8790621D01*
X15360556Y-8777431D01*
X15343840Y-8767400D01*
X15343840Y-8767400D01*
X15343840Y-8767399D01*
X15333056Y-8763457D01*
X15235383Y-8737286D01*
X15224072Y-8735308D01*
X15224072Y-8735308D01*
X15224071Y-8735308D01*
X15224071Y-8735308D01*
X15204580Y-8735637D01*
X15204580Y-8735637D01*
X15185554Y-8739883D01*
X15185554Y-8739883D01*
X15167772Y-8747872D01*
X15167772Y-8747873D01*
X15166352Y-8748897D01*
X15159657Y-8751260D01*
X15152748Y-8749629D01*
X15147817Y-8744520D01*
X15146381Y-8738678D01*
X15146381Y-8673799D01*
X15146381Y-8673798D01*
X15145730Y-8667743D01*
X15145729Y-8667742D01*
X15140620Y-8654042D01*
X15140619Y-8654042D01*
X15136181Y-8648114D01*
X15133700Y-8641462D01*
X15135209Y-8634524D01*
X15136181Y-8633012D01*
X15140619Y-8627083D01*
X15140619Y-8627083D01*
X15140620Y-8627083D01*
X15145730Y-8613383D01*
X15145896Y-8611832D01*
X15146381Y-8607327D01*
X15146381Y-8607326D01*
X15146381Y-8533322D01*
X15148381Y-8526510D01*
X15153746Y-8521860D01*
X15160774Y-8520850D01*
X15166352Y-8523103D01*
X15167773Y-8524128D01*
X15180965Y-8530055D01*
X15185554Y-8532117D01*
X15185554Y-8532117D01*
X15204580Y-8536363D01*
X15224071Y-8536692D01*
X15235382Y-8534714D01*
X15235382Y-8534714D01*
X15235383Y-8534714D01*
X15333056Y-8508543D01*
X15333056Y-8508543D01*
X15343840Y-8504600D01*
X15360556Y-8494569D01*
X15374910Y-8481379D01*
X15386315Y-8465570D01*
X15394304Y-8447788D01*
X15398550Y-8428762D01*
X15398879Y-8409271D01*
X15396901Y-8397960D01*
X15396901Y-8397959D01*
X15355201Y-8242332D01*
X15355201Y-8242332D01*
X15354753Y-8241107D01*
X15354138Y-8239425D01*
X15351258Y-8231547D01*
X15351258Y-8231546D01*
X15341227Y-8214831D01*
X15335501Y-8208599D01*
X15328037Y-8200477D01*
X15312227Y-8189072D01*
X15312227Y-8189072D01*
X15294446Y-8181083D01*
X15294446Y-8181083D01*
X15275420Y-8176837D01*
X15255929Y-8176508D01*
X15255929Y-8176508D01*
X15255928Y-8176508D01*
X15255928Y-8176508D01*
X15255928Y-8176508D01*
X15244617Y-8178486D01*
X15146944Y-8204657D01*
X15136160Y-8208599D01*
X15136159Y-8208600D01*
X15119444Y-8218631D01*
X15105090Y-8231820D01*
X15105090Y-8231821D01*
X15102746Y-8235070D01*
X15097138Y-8239425D01*
X15090067Y-8240056D01*
X15083776Y-8236764D01*
X15081615Y-8233999D01*
X15046828Y-8173746D01*
X15046828Y-8173744D01*
X15043236Y-8168825D01*
X15043235Y-8168825D01*
X15031960Y-8159516D01*
X15031960Y-8159515D01*
X15025152Y-8156600D01*
X15019678Y-8152080D01*
X15017516Y-8145318D01*
X15017601Y-8143523D01*
X15018481Y-8136168D01*
X15016056Y-8121748D01*
X15016056Y-8121748D01*
X15013592Y-8116178D01*
X14980619Y-8059067D01*
X14978945Y-8052167D01*
X14981267Y-8045458D01*
X14986847Y-8041070D01*
X14987908Y-8040751D01*
X14987897Y-8040716D01*
X14994733Y-8038571D01*
X15007107Y-8034689D01*
X15024152Y-8025229D01*
X15032958Y-8017860D01*
X15104460Y-7946358D01*
X15111829Y-7937552D01*
X15121289Y-7920507D01*
X15127125Y-7901907D01*
X15129097Y-7882513D01*
X15127125Y-7863119D01*
X15121289Y-7844519D01*
X15111829Y-7827475D01*
X15104460Y-7818668D01*
X14990532Y-7704740D01*
X14981725Y-7697371D01*
X14981725Y-7697371D01*
X14964680Y-7687911D01*
X14946081Y-7682075D01*
X14926687Y-7680103D01*
X14907292Y-7682075D01*
X14888693Y-7687911D01*
X14871648Y-7697371D01*
X14866321Y-7701828D01*
X14862842Y-7704740D01*
X14791340Y-7776242D01*
X14790072Y-7777757D01*
X14783971Y-7785048D01*
X14774511Y-7802093D01*
X14772842Y-7807412D01*
X14768894Y-7813312D01*
X14762383Y-7816142D01*
X14755375Y-7815002D01*
X14754520Y-7814551D01*
X14724814Y-7797400D01*
X14719244Y-7794937D01*
X14719243Y-7794936D01*
X14704824Y-7792512D01*
X14697470Y-7793391D01*
X14690469Y-7792214D01*
X14685215Y-7787438D01*
X14684392Y-7785841D01*
X14681476Y-7779032D01*
X14672167Y-7767757D01*
X14667247Y-7764164D01*
X14667247Y-7764164D01*
X14667246Y-7764164D01*
X14594388Y-7722099D01*
X14589488Y-7716961D01*
X14588145Y-7709989D01*
X14590783Y-7703398D01*
X14591408Y-7702664D01*
X14603269Y-7689756D01*
X14613300Y-7673040D01*
X14617243Y-7662256D01*
X14618573Y-7657292D01*
X14643414Y-7564583D01*
X14643532Y-7563908D01*
X14645392Y-7553271D01*
X14645063Y-7533780D01*
X14640817Y-7514754D01*
X14632828Y-7496973D01*
X14621423Y-7481163D01*
X14607069Y-7467973D01*
X14607069Y-7467973D01*
X14590354Y-7457942D01*
X14590353Y-7457942D01*
X14581133Y-7454571D01*
X14579569Y-7454000D01*
X14579569Y-7454000D01*
X14579568Y-7453999D01*
X14579568Y-7453999D01*
X14423941Y-7412299D01*
X14412630Y-7410321D01*
X14412630Y-7410321D01*
X14412629Y-7410321D01*
X14412629Y-7410321D01*
X14393138Y-7410650D01*
X14393138Y-7410650D01*
X14374112Y-7414896D01*
X14374112Y-7414896D01*
X14356330Y-7422885D01*
X14356330Y-7422885D01*
X14340521Y-7434290D01*
X14340520Y-7434290D01*
X14327331Y-7448644D01*
X14317300Y-7465359D01*
X14317299Y-7465360D01*
X14313357Y-7476144D01*
X14287186Y-7573817D01*
X14285208Y-7585128D01*
X14285208Y-7585129D01*
X14285537Y-7604620D01*
X14285537Y-7604620D01*
X14289783Y-7623646D01*
X14289783Y-7623646D01*
X14291222Y-7626848D01*
X14292189Y-7633881D01*
X14289200Y-7640321D01*
X14283204Y-7644123D01*
X14279728Y-7644611D01*
X14228915Y-7644611D01*
X14222861Y-7645262D01*
X14222860Y-7645263D01*
X14209160Y-7650372D01*
X14209160Y-7650373D01*
X14203231Y-7654811D01*
X14196579Y-7657292D01*
X14189642Y-7655783D01*
X14188129Y-7654811D01*
X14182201Y-7650373D01*
X14182201Y-7650372D01*
X14168501Y-7645263D01*
X14168500Y-7645262D01*
X14162445Y-7644611D01*
X14162444Y-7644611D01*
X14079372Y-7644611D01*
X14072560Y-7642611D01*
X14067910Y-7637246D01*
X14066900Y-7630218D01*
X14067878Y-7626848D01*
X14069317Y-7623646D01*
X14069317Y-7623646D01*
X14073563Y-7604620D01*
X14073892Y-7585128D01*
X14071914Y-7573818D01*
X14071914Y-7573817D01*
X14045743Y-7476144D01*
X14041800Y-7465360D01*
X14041800Y-7465360D01*
X14041800Y-7465359D01*
X14031769Y-7448644D01*
X14018579Y-7434290D01*
X14002770Y-7422885D01*
X14002770Y-7422885D01*
X13984988Y-7414896D01*
X13984988Y-7414896D01*
X13965962Y-7410650D01*
X13946471Y-7410321D01*
X13946471Y-7410321D01*
X13946471Y-7410321D01*
X13946470Y-7410321D01*
X13946470Y-7410321D01*
X13935159Y-7412299D01*
X13779532Y-7453999D01*
X13779532Y-7453999D01*
X13779531Y-7454000D01*
X13779531Y-7454000D01*
X13778209Y-7454483D01*
X13768747Y-7457942D01*
X13768746Y-7457942D01*
X13752031Y-7467973D01*
X13737677Y-7481163D01*
X13737677Y-7481163D01*
X13726272Y-7496972D01*
X13726272Y-7496972D01*
X13718283Y-7514754D01*
X13718283Y-7514754D01*
X13714037Y-7533780D01*
X13714037Y-7533780D01*
X13713708Y-7553271D01*
X13713708Y-7553272D01*
X13715686Y-7564583D01*
X13741857Y-7662256D01*
X13745799Y-7673040D01*
X13745800Y-7673040D01*
X13745800Y-7673040D01*
X13755831Y-7689756D01*
X13769021Y-7704110D01*
X13784830Y-7715515D01*
X13790974Y-7718275D01*
X13796368Y-7722891D01*
X13798410Y-7729691D01*
X13796452Y-7736515D01*
X13792111Y-7740680D01*
X13734115Y-7774164D01*
X13734114Y-7774165D01*
X13729194Y-7777757D01*
X13729194Y-7777757D01*
X13719885Y-7789032D01*
X13719884Y-7789033D01*
X13716969Y-7795840D01*
X13712449Y-7801315D01*
X13705686Y-7803477D01*
X13703891Y-7803391D01*
X13696537Y-7802512D01*
X13682118Y-7804937D01*
X13682117Y-7804937D01*
X13676547Y-7807401D01*
X13585022Y-7860243D01*
X13578122Y-7861917D01*
X13571413Y-7859595D01*
X13567025Y-7854014D01*
X13566187Y-7848056D01*
X13566997Y-7840087D01*
X13566991Y-7840025D01*
X13565025Y-7820693D01*
X13559189Y-7802093D01*
X13549729Y-7785048D01*
X13542360Y-7776242D01*
X13470858Y-7704740D01*
X13462052Y-7697371D01*
X13462051Y-7697371D01*
X13445007Y-7687911D01*
X13426407Y-7682075D01*
X13407013Y-7680103D01*
X13387619Y-7682075D01*
X13369019Y-7687911D01*
X13351975Y-7697371D01*
X13346648Y-7701828D01*
X13343168Y-7704740D01*
X13229240Y-7818668D01*
X13227378Y-7820893D01*
X13221871Y-7827475D01*
X13212411Y-7844519D01*
X13206575Y-7863119D01*
X13204603Y-7882513D01*
X13206575Y-7901907D01*
X13211504Y-7917618D01*
X13212411Y-7920507D01*
X13221871Y-7937552D01*
X13229240Y-7946358D01*
X13300742Y-8017860D01*
X13309548Y-8025229D01*
X13326593Y-8034689D01*
X13345193Y-8040525D01*
X13354610Y-8041482D01*
X13361184Y-8044162D01*
X13365267Y-8049970D01*
X13365561Y-8057064D01*
X13364247Y-8060318D01*
X13337769Y-8106178D01*
X13335305Y-8111748D01*
X13335305Y-8111749D01*
X13332880Y-8126168D01*
X13333760Y-8133522D01*
X13332582Y-8140523D01*
X13327807Y-8145777D01*
X13326209Y-8146600D01*
X13319401Y-8149516D01*
X13319401Y-8149516D01*
X13308125Y-8158825D01*
X13308125Y-8158825D01*
X13304533Y-8163745D01*
X13304532Y-8163746D01*
X13269201Y-8224941D01*
X13264063Y-8229841D01*
X13257092Y-8231184D01*
X13250501Y-8228546D01*
X13249764Y-8227920D01*
X13239656Y-8218631D01*
X13222940Y-8208600D01*
X13222940Y-8208600D01*
X13222940Y-8208599D01*
X13212156Y-8204657D01*
X13114483Y-8178486D01*
X13103172Y-8176508D01*
X13103172Y-8176508D01*
X13103171Y-8176508D01*
X13103171Y-8176508D01*
X13083680Y-8176837D01*
X13083680Y-8176837D01*
X13064654Y-8181083D01*
X13064654Y-8181083D01*
X13046872Y-8189072D01*
X13046872Y-8189072D01*
X13031063Y-8200477D01*
X13031063Y-8200477D01*
X13017873Y-8214831D01*
X13007842Y-8231546D01*
X13007842Y-8231547D01*
X13003899Y-8242332D01*
X13003899Y-8242332D01*
X12962199Y-8397959D01*
X12960221Y-8409270D01*
X12960221Y-8409271D01*
X12960550Y-8428762D01*
X12960550Y-8428762D01*
X12964796Y-8447788D01*
X12964796Y-8447788D01*
X12966615Y-8451837D01*
X12972785Y-8465570D01*
X12984190Y-8481379D01*
X12998544Y-8494569D01*
X13015259Y-8504600D01*
X13015260Y-8504600D01*
X13015260Y-8504601D01*
X13026044Y-8508543D01*
X13123717Y-8534714D01*
X13123718Y-8534714D01*
X13135028Y-8536692D01*
X13154520Y-8536363D01*
X13169636Y-8532990D01*
X13176720Y-8533458D01*
X13182426Y-8537682D01*
X13184943Y-8544321D01*
X13184980Y-8545287D01*
X13184980Y-8592076D01*
X13185631Y-8598131D01*
X13185631Y-8598132D01*
X13190741Y-8611832D01*
X13190741Y-8611832D01*
X13195179Y-8617761D01*
X13197661Y-8624413D01*
X13196151Y-8631350D01*
X13195179Y-8632862D01*
X13190741Y-8638791D01*
X13190741Y-8638791D01*
X13185631Y-8652491D01*
X13185631Y-8652492D01*
X13184980Y-8658547D01*
X13184980Y-8731252D01*
X13182980Y-8738064D01*
X13177614Y-8742713D01*
X13170587Y-8743724D01*
X13167216Y-8742745D01*
X13160846Y-8739883D01*
X13160846Y-8739883D01*
X13141820Y-8735637D01*
X13122329Y-8735308D01*
X13122329Y-8735308D01*
X13122328Y-8735308D01*
X13122328Y-8735308D01*
X13122328Y-8735308D01*
X13111017Y-8737286D01*
X13013344Y-8763457D01*
X13002560Y-8767399D01*
X13002559Y-8767400D01*
X12985844Y-8777431D01*
X12971490Y-8790620D01*
X12971490Y-8790621D01*
X12960085Y-8806430D01*
X12960085Y-8806430D01*
X12952096Y-8824212D01*
X12952096Y-8824212D01*
X12947850Y-8843238D01*
X12947850Y-8843238D01*
X12947521Y-8862729D01*
X12947521Y-8862730D01*
X12949499Y-8874041D01*
X12991199Y-9029668D01*
X12991199Y-9029668D01*
X12995142Y-9040453D01*
X12995142Y-9040454D01*
X13002893Y-9053369D01*
X13005173Y-9057169D01*
X13018363Y-9071523D01*
X13034173Y-9082928D01*
X13043846Y-9087274D01*
X13051954Y-9090917D01*
X13051954Y-9090917D01*
X13070980Y-9095163D01*
X13090471Y-9095492D01*
X13101782Y-9093514D01*
X13101782Y-9093514D01*
X13101783Y-9093514D01*
X13199456Y-9067343D01*
X13199456Y-9067343D01*
X13210240Y-9063400D01*
X13226956Y-9053369D01*
X13241310Y-9040179D01*
X13247710Y-9031306D01*
X13253318Y-9026952D01*
X13260389Y-9026321D01*
X13266680Y-9029613D01*
X13268841Y-9032378D01*
X13294532Y-9076877D01*
X13294533Y-9076878D01*
X13298125Y-9081797D01*
X13298125Y-9081798D01*
X13299494Y-9082928D01*
X13309401Y-9091107D01*
X13316208Y-9094022D01*
X13321683Y-9098543D01*
X13323845Y-9105305D01*
X13323759Y-9107101D01*
X13322880Y-9114455D01*
X13325305Y-9128874D01*
X13325305Y-9128875D01*
X13327769Y-9134445D01*
X13371912Y-9210903D01*
X13373586Y-9217802D01*
X13371264Y-9224511D01*
X13365683Y-9228900D01*
X13362275Y-9229738D01*
X13357472Y-9230226D01*
X13345192Y-9231475D01*
X13326593Y-9237311D01*
X13309548Y-9246771D01*
X13304221Y-9251229D01*
X13300742Y-9254140D01*
X13229240Y-9325642D01*
X13226328Y-9329121D01*
X13221871Y-9334448D01*
X13212411Y-9351493D01*
X13206575Y-9370093D01*
X13204603Y-9389487D01*
X13206575Y-9408881D01*
X13211631Y-9424995D01*
X13212411Y-9427481D01*
X13212521Y-9427679D01*
X13219447Y-9440158D01*
X13221871Y-9444525D01*
X13229240Y-9453332D01*
X13343168Y-9567260D01*
X13351975Y-9574629D01*
X13369019Y-9584089D01*
X13387619Y-9589925D01*
X13407013Y-9591897D01*
X13426407Y-9589925D01*
X13445007Y-9584089D01*
X13462052Y-9574629D01*
X13470858Y-9567260D01*
X13542360Y-9495758D01*
X13549729Y-9486952D01*
X13559189Y-9469907D01*
X13565025Y-9451307D01*
X13566025Y-9441471D01*
X13568704Y-9434897D01*
X13574512Y-9430814D01*
X13581606Y-9430520D01*
X13584860Y-9431834D01*
X13656547Y-9473223D01*
X13661040Y-9475210D01*
X13662118Y-9475687D01*
X13676537Y-9478112D01*
X13683891Y-9477232D01*
X13690892Y-9478410D01*
X13696146Y-9483185D01*
X13696969Y-9484783D01*
X13699885Y-9491591D01*
X13699885Y-9491591D01*
X13709194Y-9502867D01*
X13709194Y-9502867D01*
X13709195Y-9502867D01*
X13714114Y-9506459D01*
X13765116Y-9535905D01*
X13775048Y-9541639D01*
X13779947Y-9546777D01*
X13781290Y-9553749D01*
X13778652Y-9560340D01*
X13776119Y-9562769D01*
X13769021Y-9567890D01*
X13769020Y-9567891D01*
X13755831Y-9582244D01*
X13745800Y-9598959D01*
X13745799Y-9598960D01*
X13741857Y-9609744D01*
X13715686Y-9707417D01*
X13713708Y-9718728D01*
X13713708Y-9718729D01*
X13714037Y-9738220D01*
X13714037Y-9738220D01*
X13718283Y-9757246D01*
X13718283Y-9757246D01*
X13726272Y-9775027D01*
X13726272Y-9775027D01*
X13737677Y-9790837D01*
X13749126Y-9801358D01*
X13752031Y-9804027D01*
X13768746Y-9814058D01*
X13768747Y-9814058D01*
X13777240Y-9817163D01*
X13779531Y-9818000D01*
X13779531Y-9818000D01*
X13779532Y-9818001D01*
X13779532Y-9818001D01*
X13799518Y-9823356D01*
X13845581Y-9835698D01*
X13851643Y-9839393D01*
X13854745Y-9845779D01*
X13854919Y-9847869D01*
X13854919Y-10082224D01*
X13852919Y-10089036D01*
X13850175Y-10092075D01*
X13841460Y-10099026D01*
X13827015Y-10115559D01*
X13815754Y-10134406D01*
X13815754Y-10134407D01*
X13808039Y-10154962D01*
X13804119Y-10176564D01*
X13804119Y-10335259D01*
X13805594Y-10351648D01*
X13811435Y-10372812D01*
X13820961Y-10392592D01*
X13820961Y-10392593D01*
X13833866Y-10410355D01*
X13833866Y-10410355D01*
X13849735Y-10425527D01*
X13863389Y-10434540D01*
X13867972Y-10439962D01*
X13868897Y-10447001D01*
X13865868Y-10453423D01*
X13862445Y-10456137D01*
X13851532Y-10462043D01*
X13851532Y-10462043D01*
X13833766Y-10475871D01*
X13818517Y-10492434D01*
X13818517Y-10492435D01*
X13806204Y-10511282D01*
X13797160Y-10531900D01*
X13797160Y-10531900D01*
X13791633Y-10553724D01*
X13789774Y-10576162D01*
X13791633Y-10598599D01*
X13797160Y-10620423D01*
X13797160Y-10620423D01*
X13806204Y-10641041D01*
X13818517Y-10659888D01*
X13818517Y-10659889D01*
X13833766Y-10676452D01*
X13839223Y-10680700D01*
X13851532Y-10690280D01*
X13855410Y-10692379D01*
X13860449Y-10697381D01*
X13861984Y-10704312D01*
X13859528Y-10710974D01*
X13853861Y-10715250D01*
X13849392Y-10716061D01*
X12871056Y-10714416D01*
X12864248Y-10712405D01*
X12859608Y-10707031D01*
X12858478Y-10701816D01*
X12858478Y-7344683D01*
X12860478Y-7337871D01*
X12865843Y-7333221D01*
X12871183Y-7332083D01*
X15522719Y-7354302D01*
G37*
%TD.AperFunction*%
M02*
