%TF.GenerationSoftware,KiCad,Pcbnew,7.0.6*%
%TF.CreationDate,2024-06-04T12:28:42+02:00*%
%TF.ProjectId,ToneGenerator,546f6e65-4765-46e6-9572-61746f722e6b,rev?*%
%TF.SameCoordinates,Original*%
%TF.FileFunction,Paste,Top*%
%TF.FilePolarity,Positive*%
%FSLAX45Y45*%
G04 Gerber Fmt 4.5, Leading zero omitted, Abs format (unit mm)*
G04 Created by KiCad (PCBNEW 7.0.6) date 2024-06-04 12:28:42*
%MOMM*%
%LPD*%
G01*
G04 APERTURE LIST*
G04 Aperture macros list*
%AMRotRect*
0 Rectangle, with rotation*
0 The origin of the aperture is its center*
0 $1 length*
0 $2 width*
0 $3 Rotation angle, in degrees counterclockwise*
0 Add horizontal line*
21,1,$1,$2,0,0,$3*%
G04 Aperture macros list end*
%ADD10R,1.143000X1.397000*%
%ADD11R,1.397000X1.143000*%
%ADD12RotRect,1.143000X1.397000X60.000000*%
%ADD13RotRect,1.143000X1.397000X150.000000*%
%ADD14RotRect,1.143000X1.397000X30.000000*%
%ADD15R,1.800000X2.200000*%
%ADD16R,2.006600X1.498600*%
%ADD17R,2.006600X3.810000*%
%ADD18R,0.965200X0.762000*%
%ADD19RotRect,1.143000X1.397000X120.000000*%
%ADD20R,1.900000X0.800000*%
%ADD21R,0.762000X0.965200*%
G04 APERTURE END LIST*
D10*
%TO.C,R7*%
X14281150Y-13716000D03*
X14471650Y-13716000D03*
%TD*%
%TO.C,C1*%
X14766840Y-14046200D03*
X14957340Y-14046200D03*
%TD*%
D11*
%TO.C,R100*%
X14174846Y-9305249D03*
X14174846Y-9495749D03*
%TD*%
D12*
%TO.C,R108*%
X13378056Y-8277800D03*
X13473306Y-8112823D03*
%TD*%
D13*
%TO.C,R102*%
X13828169Y-9432937D03*
X13663192Y-9337687D03*
%TD*%
D11*
%TO.C,R105*%
X15025681Y-8735813D03*
X15025681Y-8545313D03*
%TD*%
D14*
%TO.C,R101*%
X14530703Y-9430562D03*
X14695680Y-9335312D03*
%TD*%
D15*
%TO.C,D1*%
X14388014Y-13231286D03*
X14898014Y-13231286D03*
%TD*%
D16*
%TO.C,IC1*%
X14112240Y-12600940D03*
X14112240Y-12372340D03*
X14112240Y-12143740D03*
D17*
X14742160Y-12369800D03*
%TD*%
D10*
%TO.C,R1*%
X14471650Y-14046200D03*
X14281150Y-14046200D03*
%TD*%
D11*
%TO.C,R106*%
X13305680Y-8720562D03*
X13305680Y-8530062D03*
%TD*%
D18*
%TO.C,R2*%
X13586400Y-12731767D03*
X13586400Y-12889247D03*
%TD*%
D13*
%TO.C,R109*%
X14718170Y-7932937D03*
X14553192Y-7837687D03*
%TD*%
D19*
%TO.C,R107*%
X14973305Y-8287800D03*
X14878055Y-8122822D03*
%TD*%
D10*
%TO.C,R8*%
X14955737Y-13716000D03*
X14765237Y-13716000D03*
%TD*%
D19*
%TO.C,R104*%
X13463305Y-9127800D03*
X13368055Y-8962823D03*
%TD*%
D11*
%TO.C,C2*%
X15065290Y-12378140D03*
X15065290Y-12568640D03*
%TD*%
D12*
%TO.C,R103*%
X14870431Y-9160289D03*
X14965681Y-8995311D03*
%TD*%
D20*
%TO.C,Q2*%
X13210400Y-12224000D03*
X13210400Y-12414000D03*
X13510400Y-12319000D03*
%TD*%
D21*
%TO.C,R3*%
X13437150Y-11451040D03*
X13594630Y-11451040D03*
%TD*%
D10*
%TO.C,R111*%
X14100430Y-7765311D03*
X14290930Y-7765311D03*
%TD*%
D14*
%TO.C,R110*%
X13683191Y-7942937D03*
X13848169Y-7847687D03*
%TD*%
M02*
