%TF.GenerationSoftware,KiCad,Pcbnew,7.0.6*%
%TF.CreationDate,2024-06-03T16:03:27+02:00*%
%TF.ProjectId,ToneGenerator,546f6e65-4765-46e6-9572-61746f722e6b,rev?*%
%TF.SameCoordinates,PX791ddc0PY9157080*%
%TF.FileFunction,Paste,Top*%
%TF.FilePolarity,Positive*%
%FSLAX45Y45*%
G04 Gerber Fmt 4.5, Leading zero omitted, Abs format (unit mm)*
G04 Created by KiCad (PCBNEW 7.0.6) date 2024-06-03 16:03:27*
%MOMM*%
%LPD*%
G01*
G04 APERTURE LIST*
G04 Aperture macros list*
%AMRotRect*
0 Rectangle, with rotation*
0 The origin of the aperture is its center*
0 $1 length*
0 $2 width*
0 $3 Rotation angle, in degrees counterclockwise*
0 Add horizontal line*
21,1,$1,$2,0,0,$3*%
G04 Aperture macros list end*
%ADD10R,1.143000X1.397000*%
%ADD11R,1.397000X1.143000*%
%ADD12RotRect,1.143000X1.397000X60.000000*%
%ADD13RotRect,1.143000X1.397000X150.000000*%
%ADD14RotRect,1.143000X1.397000X30.000000*%
%ADD15R,1.800000X2.200000*%
%ADD16R,2.006600X1.498600*%
%ADD17R,2.006600X3.810000*%
%ADD18R,0.965200X0.762000*%
%ADD19RotRect,1.143000X1.397000X120.000000*%
%ADD20R,1.900000X0.800000*%
%ADD21R,0.762000X0.965200*%
G04 APERTURE END LIST*
D10*
%TO.C,R7*%
X1581150Y1524000D03*
X1771650Y1524000D03*
%TD*%
%TO.C,C1*%
X2066840Y1193800D03*
X2257340Y1193800D03*
%TD*%
D11*
%TO.C,R100*%
X1474846Y5934751D03*
X1474846Y5744251D03*
%TD*%
D12*
%TO.C,R108*%
X678056Y6962199D03*
X773306Y7127177D03*
%TD*%
D13*
%TO.C,R102*%
X1128170Y5807063D03*
X963192Y5902313D03*
%TD*%
D11*
%TO.C,R105*%
X2325681Y6504187D03*
X2325681Y6694687D03*
%TD*%
D14*
%TO.C,R101*%
X1830703Y5809438D03*
X1995680Y5904688D03*
%TD*%
D15*
%TO.C,D1*%
X1688014Y2008713D03*
X2198014Y2008713D03*
%TD*%
D16*
%TO.C,IC1*%
X1412240Y2639060D03*
X1412240Y2867660D03*
X1412240Y3096260D03*
D17*
X2042160Y2870200D03*
%TD*%
D10*
%TO.C,R1*%
X1771650Y1193800D03*
X1581150Y1193800D03*
%TD*%
D11*
%TO.C,R106*%
X605680Y6519438D03*
X605680Y6709938D03*
%TD*%
D18*
%TO.C,R2*%
X886400Y2508233D03*
X886400Y2350753D03*
%TD*%
D13*
%TO.C,R109*%
X2018170Y7307063D03*
X1853192Y7402313D03*
%TD*%
D19*
%TO.C,R107*%
X2273306Y6952200D03*
X2178056Y7117177D03*
%TD*%
D10*
%TO.C,R8*%
X2255737Y1524000D03*
X2065237Y1524000D03*
%TD*%
D19*
%TO.C,R104*%
X763305Y6112200D03*
X668055Y6277177D03*
%TD*%
D11*
%TO.C,C2*%
X2365290Y2861860D03*
X2365290Y2671360D03*
%TD*%
D12*
%TO.C,R103*%
X2170431Y6079711D03*
X2265681Y6244689D03*
%TD*%
D20*
%TO.C,Q2*%
X510400Y3016000D03*
X510400Y2826000D03*
X810400Y2921000D03*
%TD*%
D21*
%TO.C,R3*%
X737150Y3788960D03*
X894630Y3788960D03*
%TD*%
D10*
%TO.C,R111*%
X1400430Y7474688D03*
X1590930Y7474688D03*
%TD*%
D14*
%TO.C,R110*%
X983191Y7297063D03*
X1148169Y7392313D03*
%TD*%
M02*
