%TF.GenerationSoftware,KiCad,Pcbnew,7.0.6*%
%TF.CreationDate,2024-06-04T12:28:42+02:00*%
%TF.ProjectId,ToneGenerator,546f6e65-4765-46e6-9572-61746f722e6b,rev?*%
%TF.SameCoordinates,Original*%
%TF.FileFunction,Soldermask,Bot*%
%TF.FilePolarity,Negative*%
%FSLAX45Y45*%
G04 Gerber Fmt 4.5, Leading zero omitted, Abs format (unit mm)*
G04 Created by KiCad (PCBNEW 7.0.6) date 2024-06-04 12:28:42*
%MOMM*%
%LPD*%
G01*
G04 APERTURE LIST*
G04 Aperture macros list*
%AMRoundRect*
0 Rectangle with rounded corners*
0 $1 Rounding radius*
0 $2 $3 $4 $5 $6 $7 $8 $9 X,Y pos of 4 corners*
0 Add a 4 corners polygon primitive as box body*
4,1,4,$2,$3,$4,$5,$6,$7,$8,$9,$2,$3,0*
0 Add four circle primitives for the rounded corners*
1,1,$1+$1,$2,$3*
1,1,$1+$1,$4,$5*
1,1,$1+$1,$6,$7*
1,1,$1+$1,$8,$9*
0 Add four rect primitives between the rounded corners*
20,1,$1+$1,$2,$3,$4,$5,0*
20,1,$1+$1,$4,$5,$6,$7,0*
20,1,$1+$1,$6,$7,$8,$9,0*
20,1,$1+$1,$8,$9,$2,$3,0*%
%AMFreePoly0*
4,1,47,0.799497,0.949497,1.249497,0.499497,1.270000,0.450000,1.270000,-0.451637,1.269847,-0.454906,1.261849,-0.540195,1.258227,-0.556779,1.213924,-0.683390,1.204174,-0.701838,1.124520,-0.809765,1.109765,-0.824520,1.001838,-0.904174,0.983390,-0.913924,0.856779,-0.958226,0.840195,-0.961849,0.754906,-0.969847,0.751637,-0.970000,-0.751637,-0.970000,-0.754906,-0.969847,-0.840195,-0.961849,
-0.856779,-0.958227,-0.983390,-0.913924,-1.001838,-0.904174,-1.109765,-0.824520,-1.124520,-0.809765,-1.204174,-0.701838,-1.213924,-0.683390,-1.258227,-0.556779,-1.261849,-0.540195,-1.269847,-0.454906,-1.270000,-0.451637,-1.270000,0.451637,-1.269847,0.454906,-1.261849,0.540195,-1.258227,0.556779,-1.213924,0.683390,-1.204174,0.701838,-1.124520,0.809765,-1.109765,0.824520,-1.001838,0.904174,
-0.983390,0.913924,-0.856779,0.958226,-0.840195,0.961849,-0.754906,0.969847,-0.751637,0.970000,0.750000,0.970000,0.799497,0.949497,0.799497,0.949497,$1*%
G04 Aperture macros list end*
%ADD10C,1.340000*%
%ADD11O,3.048000X1.625600*%
%ADD12C,2.133600*%
%ADD13C,1.879600*%
%ADD14FreePoly0,195.000000*%
%ADD15RoundRect,0.520000X0.212132X0.848528X-0.848528X-0.212132X-0.212132X-0.848528X0.848528X0.212132X0*%
%ADD16RoundRect,0.520000X-0.240552X0.840913X-0.628781X-0.607976X0.240552X-0.840913X0.628781X0.607976X0*%
%ADD17RoundRect,0.520000X-0.628781X0.607976X-0.240552X-0.840913X0.628781X-0.607976X0.240552X0.840913X0*%
%ADD18RoundRect,0.520000X-0.848528X0.212132X0.212132X-0.848528X0.848528X-0.212132X-0.212132X0.848528X0*%
%ADD19RoundRect,0.520000X-0.840913X-0.240552X0.607976X-0.628781X0.840913X0.240552X-0.607976X0.628781X0*%
%ADD20RoundRect,0.520000X-0.607976X-0.628781X0.840913X-0.240552X0.607976X0.628781X-0.840913X0.240552X0*%
%ADD21RoundRect,0.520000X-0.212132X-0.848528X0.848528X0.212132X0.212132X0.848528X-0.848528X-0.212132X0*%
%ADD22RoundRect,0.520000X0.240552X-0.840913X0.628781X0.607976X-0.240552X0.840913X-0.628781X-0.607976X0*%
%ADD23RoundRect,0.520000X0.628781X-0.607976X0.240552X0.840913X-0.628781X0.607976X-0.240552X-0.840913X0*%
%ADD24RoundRect,0.520000X0.848528X-0.212132X-0.212132X0.848528X-0.848528X0.212132X0.212132X-0.848528X0*%
%ADD25RoundRect,0.520000X0.840913X0.240552X-0.607976X0.628781X-0.840913X-0.240552X0.607976X-0.628781X0*%
%ADD26O,1.625600X3.048000*%
G04 APERTURE END LIST*
D10*
%TO.C,+9V0*%
X13036620Y-14600640D03*
D11*
X13354120Y-14600640D03*
%TD*%
D12*
%TO.C,Q1*%
X13284200Y-11607800D03*
X13538200Y-11798300D03*
X13284200Y-11988800D03*
%TD*%
D10*
%TO.C,HP2*%
X13030200Y-12687300D03*
D11*
X13347700Y-12687300D03*
%TD*%
D10*
%TO.C,S-0*%
X13030200Y-14338300D03*
D11*
X13347700Y-14338300D03*
%TD*%
D10*
%TO.C,S+0*%
X13030200Y-13385800D03*
D11*
X13347700Y-13385800D03*
%TD*%
D13*
%TO.C,ARD1*%
X13792200Y-12560300D03*
X13792200Y-12814300D03*
X13792200Y-13068300D03*
X13792200Y-13322300D03*
X14046200Y-13195300D03*
X14046200Y-13449300D03*
X14300200Y-11544300D03*
X14046200Y-11544300D03*
X15316200Y-13322300D03*
X15316200Y-13068300D03*
X15316200Y-12814300D03*
X15316200Y-12560300D03*
X15316200Y-12306300D03*
X15316200Y-12052300D03*
X15316200Y-11798300D03*
X15316200Y-11544300D03*
X13792200Y-11544300D03*
X13792200Y-11798300D03*
X13792200Y-12052300D03*
X13792200Y-12306300D03*
X15316200Y-13576300D03*
X13792200Y-14084300D03*
X14554200Y-11544300D03*
X13792200Y-14338300D03*
X13792200Y-13830300D03*
X15316200Y-13830300D03*
X15316200Y-14084300D03*
X15316200Y-14338300D03*
X13792200Y-13576300D03*
%TD*%
D14*
%TO.C,J100*%
X14465300Y-9690100D03*
D15*
X14960600Y-9410700D03*
D16*
X15240000Y-8915400D03*
D17*
X15240000Y-8356600D03*
D18*
X14947900Y-7861300D03*
D19*
X14465300Y-7569200D03*
D20*
X13893800Y-7569200D03*
D21*
X13385800Y-7861300D03*
D22*
X13119100Y-8356600D03*
D23*
X13106400Y-8915400D03*
D24*
X13385800Y-9410700D03*
D25*
X13893800Y-9702800D03*
D15*
X14452600Y-8915400D03*
%TD*%
D10*
%TO.C,SIN0*%
X13030200Y-13639800D03*
D11*
X13347700Y-13639800D03*
%TD*%
D10*
%TO.C,GND0*%
X13030200Y-13893800D03*
D11*
X13347700Y-13893800D03*
%TD*%
D10*
%TO.C,HP1*%
X13030200Y-12941300D03*
D11*
X13347700Y-12941300D03*
%TD*%
D26*
%TO.C,CN100*%
X13926089Y-10258662D03*
X14180089Y-10258662D03*
X14432592Y-10258662D03*
%TD*%
M02*
