%TF.GenerationSoftware,KiCad,Pcbnew,7.0.6*%
%TF.CreationDate,2024-06-04T12:28:42+02:00*%
%TF.ProjectId,ToneGenerator,546f6e65-4765-46e6-9572-61746f722e6b,rev?*%
%TF.SameCoordinates,Original*%
%TF.FileFunction,Legend,Top*%
%TF.FilePolarity,Positive*%
%FSLAX45Y45*%
G04 Gerber Fmt 4.5, Leading zero omitted, Abs format (unit mm)*
G04 Created by KiCad (PCBNEW 7.0.6) date 2024-06-04 12:28:42*
%MOMM*%
%LPD*%
G01*
G04 APERTURE LIST*
%ADD10C,0.150000*%
%ADD11C,0.127000*%
%ADD12C,0.190500*%
%ADD13C,0.121920*%
%ADD14C,0.152400*%
%ADD15C,0.100000*%
%ADD16C,0.120000*%
%ADD17C,0.088900*%
%ADD18C,0.200000*%
%ADD19C,0.106680*%
%ADD20C,0.125000*%
%ADD21C,0.304800*%
%ADD22C,0.254000*%
%ADD23C,0.203200*%
G04 APERTURE END LIST*
D10*
X14574618Y-10714079D02*
X13779618Y-10715855D01*
D11*
X12728490Y-10972800D02*
X15671800Y-10972800D01*
D10*
X14574618Y-9920000D02*
X14574618Y-10714079D01*
D11*
X15697200Y-10972800D02*
X15697200Y-15210240D01*
D10*
X13779618Y-10705242D02*
X13779618Y-9924145D01*
D12*
X14387185Y-11330098D02*
X14402606Y-11335238D01*
X14402606Y-11335238D02*
X14428308Y-11335238D01*
X14428308Y-11335238D02*
X14438589Y-11330098D01*
X14438589Y-11330098D02*
X14443730Y-11324957D01*
X14443730Y-11324957D02*
X14448870Y-11314676D01*
X14448870Y-11314676D02*
X14448870Y-11304395D01*
X14448870Y-11304395D02*
X14443730Y-11294114D01*
X14443730Y-11294114D02*
X14438589Y-11288974D01*
X14438589Y-11288974D02*
X14428308Y-11283834D01*
X14428308Y-11283834D02*
X14407747Y-11278693D01*
X14407747Y-11278693D02*
X14397466Y-11273553D01*
X14397466Y-11273553D02*
X14392325Y-11268412D01*
X14392325Y-11268412D02*
X14387185Y-11258131D01*
X14387185Y-11258131D02*
X14387185Y-11247850D01*
X14387185Y-11247850D02*
X14392325Y-11237569D01*
X14392325Y-11237569D02*
X14397466Y-11232429D01*
X14397466Y-11232429D02*
X14407747Y-11227288D01*
X14407747Y-11227288D02*
X14433449Y-11227288D01*
X14433449Y-11227288D02*
X14448870Y-11232429D01*
X14489994Y-11237569D02*
X14495135Y-11232429D01*
X14495135Y-11232429D02*
X14505416Y-11227288D01*
X14505416Y-11227288D02*
X14531118Y-11227288D01*
X14531118Y-11227288D02*
X14541399Y-11232429D01*
X14541399Y-11232429D02*
X14546539Y-11237569D01*
X14546539Y-11237569D02*
X14551680Y-11247850D01*
X14551680Y-11247850D02*
X14551680Y-11258131D01*
X14551680Y-11258131D02*
X14546539Y-11273553D01*
X14546539Y-11273553D02*
X14484854Y-11335238D01*
X14484854Y-11335238D02*
X14551680Y-11335238D01*
X14618506Y-11227288D02*
X14628787Y-11227288D01*
X14628787Y-11227288D02*
X14639068Y-11232429D01*
X14639068Y-11232429D02*
X14644208Y-11237569D01*
X14644208Y-11237569D02*
X14649349Y-11247850D01*
X14649349Y-11247850D02*
X14654489Y-11268412D01*
X14654489Y-11268412D02*
X14654489Y-11294114D01*
X14654489Y-11294114D02*
X14649349Y-11314676D01*
X14649349Y-11314676D02*
X14644208Y-11324957D01*
X14644208Y-11324957D02*
X14639068Y-11330098D01*
X14639068Y-11330098D02*
X14628787Y-11335238D01*
X14628787Y-11335238D02*
X14618506Y-11335238D01*
X14618506Y-11335238D02*
X14608225Y-11330098D01*
X14608225Y-11330098D02*
X14603085Y-11324957D01*
X14603085Y-11324957D02*
X14597944Y-11314676D01*
X14597944Y-11314676D02*
X14592804Y-11294114D01*
X14592804Y-11294114D02*
X14592804Y-11268412D01*
X14592804Y-11268412D02*
X14597944Y-11247850D01*
X14597944Y-11247850D02*
X14603085Y-11237569D01*
X14603085Y-11237569D02*
X14608225Y-11232429D01*
X14608225Y-11232429D02*
X14618506Y-11227288D01*
X14695613Y-11237569D02*
X14700754Y-11232429D01*
X14700754Y-11232429D02*
X14711035Y-11227288D01*
X14711035Y-11227288D02*
X14736737Y-11227288D01*
X14736737Y-11227288D02*
X14747018Y-11232429D01*
X14747018Y-11232429D02*
X14752158Y-11237569D01*
X14752158Y-11237569D02*
X14757299Y-11247850D01*
X14757299Y-11247850D02*
X14757299Y-11258131D01*
X14757299Y-11258131D02*
X14752158Y-11273553D01*
X14752158Y-11273553D02*
X14690473Y-11335238D01*
X14690473Y-11335238D02*
X14757299Y-11335238D01*
X14849827Y-11263272D02*
X14849827Y-11335238D01*
X14824125Y-11222148D02*
X14798423Y-11299255D01*
X14798423Y-11299255D02*
X14865249Y-11299255D01*
X14962918Y-11335238D02*
X14901232Y-11335238D01*
X14932075Y-11335238D02*
X14932075Y-11227288D01*
X14932075Y-11227288D02*
X14921794Y-11242710D01*
X14921794Y-11242710D02*
X14911513Y-11252991D01*
X14911513Y-11252991D02*
X14901232Y-11258131D01*
X15014323Y-11335238D02*
X15034884Y-11335238D01*
X15034884Y-11335238D02*
X15045165Y-11330098D01*
X15045165Y-11330098D02*
X15050306Y-11324957D01*
X15050306Y-11324957D02*
X15060587Y-11309536D01*
X15060587Y-11309536D02*
X15065727Y-11288974D01*
X15065727Y-11288974D02*
X15065727Y-11247850D01*
X15065727Y-11247850D02*
X15060587Y-11237569D01*
X15060587Y-11237569D02*
X15055446Y-11232429D01*
X15055446Y-11232429D02*
X15045165Y-11227288D01*
X15045165Y-11227288D02*
X15024604Y-11227288D01*
X15024604Y-11227288D02*
X15014323Y-11232429D01*
X15014323Y-11232429D02*
X15009182Y-11237569D01*
X15009182Y-11237569D02*
X15004042Y-11247850D01*
X15004042Y-11247850D02*
X15004042Y-11273553D01*
X15004042Y-11273553D02*
X15009182Y-11283834D01*
X15009182Y-11283834D02*
X15014323Y-11288974D01*
X15014323Y-11288974D02*
X15024604Y-11294114D01*
X15024604Y-11294114D02*
X15045165Y-11294114D01*
X15045165Y-11294114D02*
X15055446Y-11288974D01*
X15055446Y-11288974D02*
X15060587Y-11283834D01*
X15060587Y-11283834D02*
X15065727Y-11273553D01*
X15111992Y-11294114D02*
X15194239Y-11294114D01*
X15302189Y-11335238D02*
X15240504Y-11335238D01*
X15271346Y-11335238D02*
X15271346Y-11227288D01*
X15271346Y-11227288D02*
X15261065Y-11242710D01*
X15261065Y-11242710D02*
X15250784Y-11252991D01*
X15250784Y-11252991D02*
X15240504Y-11258131D01*
D13*
X12820082Y-13483969D02*
X12820082Y-13431331D01*
X12846401Y-13457650D02*
X12793762Y-13457650D01*
X12777313Y-13365533D02*
X12777313Y-13398432D01*
X12777313Y-13398432D02*
X12810212Y-13401722D01*
X12810212Y-13401722D02*
X12806922Y-13398432D01*
X12806922Y-13398432D02*
X12803632Y-13391852D01*
X12803632Y-13391852D02*
X12803632Y-13375403D01*
X12803632Y-13375403D02*
X12806922Y-13368823D01*
X12806922Y-13368823D02*
X12810212Y-13365533D01*
X12810212Y-13365533D02*
X12816792Y-13362243D01*
X12816792Y-13362243D02*
X12833241Y-13362243D01*
X12833241Y-13362243D02*
X12839821Y-13365533D01*
X12839821Y-13365533D02*
X12843111Y-13368823D01*
X12843111Y-13368823D02*
X12846401Y-13375403D01*
X12846401Y-13375403D02*
X12846401Y-13391852D01*
X12846401Y-13391852D02*
X12843111Y-13398432D01*
X12843111Y-13398432D02*
X12839821Y-13401722D01*
X12777313Y-13342503D02*
X12846401Y-13319474D01*
X12846401Y-13319474D02*
X12777313Y-13296445D01*
D10*
X13971135Y-11827053D02*
X13971135Y-11757053D01*
X14044468Y-11820387D02*
X14041135Y-11823720D01*
X14041135Y-11823720D02*
X14031135Y-11827053D01*
X14031135Y-11827053D02*
X14024468Y-11827053D01*
X14024468Y-11827053D02*
X14014468Y-11823720D01*
X14014468Y-11823720D02*
X14007802Y-11817053D01*
X14007802Y-11817053D02*
X14004468Y-11810387D01*
X14004468Y-11810387D02*
X14001135Y-11797053D01*
X14001135Y-11797053D02*
X14001135Y-11787053D01*
X14001135Y-11787053D02*
X14004468Y-11773720D01*
X14004468Y-11773720D02*
X14007802Y-11767053D01*
X14007802Y-11767053D02*
X14014468Y-11760387D01*
X14014468Y-11760387D02*
X14024468Y-11757053D01*
X14024468Y-11757053D02*
X14031135Y-11757053D01*
X14031135Y-11757053D02*
X14041135Y-11760387D01*
X14041135Y-11760387D02*
X14044468Y-11763720D01*
X14111135Y-11827053D02*
X14071135Y-11827053D01*
X14091135Y-11827053D02*
X14091135Y-11757053D01*
X14091135Y-11757053D02*
X14084468Y-11767053D01*
X14084468Y-11767053D02*
X14077802Y-11773720D01*
X14077802Y-11773720D02*
X14071135Y-11777053D01*
X14224468Y-11780387D02*
X14224468Y-11827053D01*
X14194468Y-11780387D02*
X14194468Y-11817053D01*
X14194468Y-11817053D02*
X14197802Y-11823720D01*
X14197802Y-11823720D02*
X14204468Y-11827053D01*
X14204468Y-11827053D02*
X14214468Y-11827053D01*
X14214468Y-11827053D02*
X14221135Y-11823720D01*
X14221135Y-11823720D02*
X14224468Y-11820387D01*
X14254468Y-11823720D02*
X14261135Y-11827053D01*
X14261135Y-11827053D02*
X14274468Y-11827053D01*
X14274468Y-11827053D02*
X14281135Y-11823720D01*
X14281135Y-11823720D02*
X14284468Y-11817053D01*
X14284468Y-11817053D02*
X14284468Y-11813720D01*
X14284468Y-11813720D02*
X14281135Y-11807053D01*
X14281135Y-11807053D02*
X14274468Y-11803720D01*
X14274468Y-11803720D02*
X14264468Y-11803720D01*
X14264468Y-11803720D02*
X14257802Y-11800387D01*
X14257802Y-11800387D02*
X14254468Y-11793720D01*
X14254468Y-11793720D02*
X14254468Y-11790387D01*
X14254468Y-11790387D02*
X14257802Y-11783720D01*
X14257802Y-11783720D02*
X14264468Y-11780387D01*
X14264468Y-11780387D02*
X14274468Y-11780387D01*
X14274468Y-11780387D02*
X14281135Y-11783720D01*
X14341135Y-11823720D02*
X14334468Y-11827053D01*
X14334468Y-11827053D02*
X14321135Y-11827053D01*
X14321135Y-11827053D02*
X14314468Y-11823720D01*
X14314468Y-11823720D02*
X14311135Y-11817053D01*
X14311135Y-11817053D02*
X14311135Y-11790387D01*
X14311135Y-11790387D02*
X14314468Y-11783720D01*
X14314468Y-11783720D02*
X14321135Y-11780387D01*
X14321135Y-11780387D02*
X14334468Y-11780387D01*
X14334468Y-11780387D02*
X14341135Y-11783720D01*
X14341135Y-11783720D02*
X14344468Y-11790387D01*
X14344468Y-11790387D02*
X14344468Y-11797053D01*
X14344468Y-11797053D02*
X14311135Y-11803720D01*
X14404468Y-11827053D02*
X14404468Y-11757053D01*
X14404468Y-11823720D02*
X14397802Y-11827053D01*
X14397802Y-11827053D02*
X14384468Y-11827053D01*
X14384468Y-11827053D02*
X14377802Y-11823720D01*
X14377802Y-11823720D02*
X14374468Y-11820387D01*
X14374468Y-11820387D02*
X14371135Y-11813720D01*
X14371135Y-11813720D02*
X14371135Y-11793720D01*
X14371135Y-11793720D02*
X14374468Y-11787053D01*
X14374468Y-11787053D02*
X14377802Y-11783720D01*
X14377802Y-11783720D02*
X14384468Y-11780387D01*
X14384468Y-11780387D02*
X14397802Y-11780387D01*
X14397802Y-11780387D02*
X14404468Y-11783720D01*
X14501135Y-11827053D02*
X14494468Y-11823720D01*
X14494468Y-11823720D02*
X14491135Y-11820387D01*
X14491135Y-11820387D02*
X14487802Y-11813720D01*
X14487802Y-11813720D02*
X14487802Y-11793720D01*
X14487802Y-11793720D02*
X14491135Y-11787053D01*
X14491135Y-11787053D02*
X14494468Y-11783720D01*
X14494468Y-11783720D02*
X14501135Y-11780387D01*
X14501135Y-11780387D02*
X14511135Y-11780387D01*
X14511135Y-11780387D02*
X14517802Y-11783720D01*
X14517802Y-11783720D02*
X14521135Y-11787053D01*
X14521135Y-11787053D02*
X14524468Y-11793720D01*
X14524468Y-11793720D02*
X14524468Y-11813720D01*
X14524468Y-11813720D02*
X14521135Y-11820387D01*
X14521135Y-11820387D02*
X14517802Y-11823720D01*
X14517802Y-11823720D02*
X14511135Y-11827053D01*
X14511135Y-11827053D02*
X14501135Y-11827053D01*
X14554468Y-11780387D02*
X14554468Y-11827053D01*
X14554468Y-11787053D02*
X14557802Y-11783720D01*
X14557802Y-11783720D02*
X14564468Y-11780387D01*
X14564468Y-11780387D02*
X14574468Y-11780387D01*
X14574468Y-11780387D02*
X14581135Y-11783720D01*
X14581135Y-11783720D02*
X14584468Y-11790387D01*
X14584468Y-11790387D02*
X14584468Y-11827053D01*
X14627801Y-11827053D02*
X14621135Y-11823720D01*
X14621135Y-11823720D02*
X14617801Y-11817053D01*
X14617801Y-11817053D02*
X14617801Y-11757053D01*
X14647802Y-11780387D02*
X14664468Y-11827053D01*
X14681135Y-11780387D02*
X14664468Y-11827053D01*
X14664468Y-11827053D02*
X14657802Y-11843720D01*
X14657802Y-11843720D02*
X14654468Y-11847053D01*
X14654468Y-11847053D02*
X14647802Y-11850387D01*
X14751135Y-11780387D02*
X14777801Y-11780387D01*
X14761135Y-11827053D02*
X14761135Y-11767053D01*
X14761135Y-11767053D02*
X14764468Y-11760387D01*
X14764468Y-11760387D02*
X14771135Y-11757053D01*
X14771135Y-11757053D02*
X14777801Y-11757053D01*
X14811135Y-11827053D02*
X14804468Y-11823720D01*
X14804468Y-11823720D02*
X14801135Y-11820387D01*
X14801135Y-11820387D02*
X14797801Y-11813720D01*
X14797801Y-11813720D02*
X14797801Y-11793720D01*
X14797801Y-11793720D02*
X14801135Y-11787053D01*
X14801135Y-11787053D02*
X14804468Y-11783720D01*
X14804468Y-11783720D02*
X14811135Y-11780387D01*
X14811135Y-11780387D02*
X14821135Y-11780387D01*
X14821135Y-11780387D02*
X14827801Y-11783720D01*
X14827801Y-11783720D02*
X14831135Y-11787053D01*
X14831135Y-11787053D02*
X14834468Y-11793720D01*
X14834468Y-11793720D02*
X14834468Y-11813720D01*
X14834468Y-11813720D02*
X14831135Y-11820387D01*
X14831135Y-11820387D02*
X14827801Y-11823720D01*
X14827801Y-11823720D02*
X14821135Y-11827053D01*
X14821135Y-11827053D02*
X14811135Y-11827053D01*
X14864468Y-11827053D02*
X14864468Y-11780387D01*
X14864468Y-11793720D02*
X14867801Y-11787053D01*
X14867801Y-11787053D02*
X14871135Y-11783720D01*
X14871135Y-11783720D02*
X14877801Y-11780387D01*
X14877801Y-11780387D02*
X14884468Y-11780387D01*
X14997801Y-11827053D02*
X14957801Y-11827053D01*
X14977801Y-11827053D02*
X14977801Y-11757053D01*
X14977801Y-11757053D02*
X14971135Y-11767053D01*
X14971135Y-11767053D02*
X14964468Y-11773720D01*
X14964468Y-11773720D02*
X14957801Y-11777053D01*
X15024468Y-11763720D02*
X15027801Y-11760387D01*
X15027801Y-11760387D02*
X15034468Y-11757053D01*
X15034468Y-11757053D02*
X15051135Y-11757053D01*
X15051135Y-11757053D02*
X15057801Y-11760387D01*
X15057801Y-11760387D02*
X15061135Y-11763720D01*
X15061135Y-11763720D02*
X15064468Y-11770387D01*
X15064468Y-11770387D02*
X15064468Y-11777053D01*
X15064468Y-11777053D02*
X15061135Y-11787053D01*
X15061135Y-11787053D02*
X15021135Y-11827053D01*
X15021135Y-11827053D02*
X15064468Y-11827053D01*
X15084468Y-11757053D02*
X15107801Y-11827053D01*
X15107801Y-11827053D02*
X15131135Y-11757053D01*
D14*
X13290174Y-14073241D02*
X13281950Y-14069129D01*
X13281950Y-14069129D02*
X13269612Y-14069129D01*
X13269612Y-14069129D02*
X13257275Y-14073241D01*
X13257275Y-14073241D02*
X13249050Y-14081466D01*
X13249050Y-14081466D02*
X13244938Y-14089691D01*
X13244938Y-14089691D02*
X13240826Y-14106140D01*
X13240826Y-14106140D02*
X13240826Y-14118477D01*
X13240826Y-14118477D02*
X13244938Y-14134927D01*
X13244938Y-14134927D02*
X13249050Y-14143152D01*
X13249050Y-14143152D02*
X13257275Y-14151376D01*
X13257275Y-14151376D02*
X13269612Y-14155489D01*
X13269612Y-14155489D02*
X13277837Y-14155489D01*
X13277837Y-14155489D02*
X13290174Y-14151376D01*
X13290174Y-14151376D02*
X13294287Y-14147264D01*
X13294287Y-14147264D02*
X13294287Y-14118477D01*
X13294287Y-14118477D02*
X13277837Y-14118477D01*
X13331298Y-14155489D02*
X13331298Y-14069129D01*
X13331298Y-14069129D02*
X13380647Y-14155489D01*
X13380647Y-14155489D02*
X13380647Y-14069129D01*
X13421771Y-14155489D02*
X13421771Y-14069129D01*
X13421771Y-14069129D02*
X13442332Y-14069129D01*
X13442332Y-14069129D02*
X13454670Y-14073241D01*
X13454670Y-14073241D02*
X13462894Y-14081466D01*
X13462894Y-14081466D02*
X13467007Y-14089691D01*
X13467007Y-14089691D02*
X13471119Y-14106140D01*
X13471119Y-14106140D02*
X13471119Y-14118477D01*
X13471119Y-14118477D02*
X13467007Y-14134927D01*
X13467007Y-14134927D02*
X13462894Y-14143152D01*
X13462894Y-14143152D02*
X13454670Y-14151376D01*
X13454670Y-14151376D02*
X13442332Y-14155489D01*
X13442332Y-14155489D02*
X13421771Y-14155489D01*
D12*
X14656304Y-14783288D02*
X14717989Y-14783288D01*
X14687147Y-14891238D02*
X14687147Y-14783288D01*
X14769394Y-14891238D02*
X14759113Y-14886098D01*
X14759113Y-14886098D02*
X14753973Y-14880957D01*
X14753973Y-14880957D02*
X14748832Y-14870676D01*
X14748832Y-14870676D02*
X14748832Y-14839834D01*
X14748832Y-14839834D02*
X14753973Y-14829553D01*
X14753973Y-14829553D02*
X14759113Y-14824412D01*
X14759113Y-14824412D02*
X14769394Y-14819272D01*
X14769394Y-14819272D02*
X14784816Y-14819272D01*
X14784816Y-14819272D02*
X14795096Y-14824412D01*
X14795096Y-14824412D02*
X14800237Y-14829553D01*
X14800237Y-14829553D02*
X14805377Y-14839834D01*
X14805377Y-14839834D02*
X14805377Y-14870676D01*
X14805377Y-14870676D02*
X14800237Y-14880957D01*
X14800237Y-14880957D02*
X14795096Y-14886098D01*
X14795096Y-14886098D02*
X14784816Y-14891238D01*
X14784816Y-14891238D02*
X14769394Y-14891238D01*
X14851642Y-14819272D02*
X14851642Y-14891238D01*
X14851642Y-14829553D02*
X14856782Y-14824412D01*
X14856782Y-14824412D02*
X14867063Y-14819272D01*
X14867063Y-14819272D02*
X14882485Y-14819272D01*
X14882485Y-14819272D02*
X14892765Y-14824412D01*
X14892765Y-14824412D02*
X14897906Y-14834693D01*
X14897906Y-14834693D02*
X14897906Y-14891238D01*
X14990434Y-14886098D02*
X14980154Y-14891238D01*
X14980154Y-14891238D02*
X14959592Y-14891238D01*
X14959592Y-14891238D02*
X14949311Y-14886098D01*
X14949311Y-14886098D02*
X14944170Y-14875817D01*
X14944170Y-14875817D02*
X14944170Y-14834693D01*
X14944170Y-14834693D02*
X14949311Y-14824412D01*
X14949311Y-14824412D02*
X14959592Y-14819272D01*
X14959592Y-14819272D02*
X14980154Y-14819272D01*
X14980154Y-14819272D02*
X14990434Y-14824412D01*
X14990434Y-14824412D02*
X14995575Y-14834693D01*
X14995575Y-14834693D02*
X14995575Y-14844974D01*
X14995575Y-14844974D02*
X14944170Y-14855255D01*
X15098385Y-14788429D02*
X15088104Y-14783288D01*
X15088104Y-14783288D02*
X15072682Y-14783288D01*
X15072682Y-14783288D02*
X15057261Y-14788429D01*
X15057261Y-14788429D02*
X15046980Y-14798710D01*
X15046980Y-14798710D02*
X15041839Y-14808991D01*
X15041839Y-14808991D02*
X15036699Y-14829553D01*
X15036699Y-14829553D02*
X15036699Y-14844974D01*
X15036699Y-14844974D02*
X15041839Y-14865536D01*
X15041839Y-14865536D02*
X15046980Y-14875817D01*
X15046980Y-14875817D02*
X15057261Y-14886098D01*
X15057261Y-14886098D02*
X15072682Y-14891238D01*
X15072682Y-14891238D02*
X15082963Y-14891238D01*
X15082963Y-14891238D02*
X15098385Y-14886098D01*
X15098385Y-14886098D02*
X15103525Y-14880957D01*
X15103525Y-14880957D02*
X15103525Y-14844974D01*
X15103525Y-14844974D02*
X15082963Y-14844974D01*
X15190913Y-14886098D02*
X15180632Y-14891238D01*
X15180632Y-14891238D02*
X15160070Y-14891238D01*
X15160070Y-14891238D02*
X15149789Y-14886098D01*
X15149789Y-14886098D02*
X15144649Y-14875817D01*
X15144649Y-14875817D02*
X15144649Y-14834693D01*
X15144649Y-14834693D02*
X15149789Y-14824412D01*
X15149789Y-14824412D02*
X15160070Y-14819272D01*
X15160070Y-14819272D02*
X15180632Y-14819272D01*
X15180632Y-14819272D02*
X15190913Y-14824412D01*
X15190913Y-14824412D02*
X15196054Y-14834693D01*
X15196054Y-14834693D02*
X15196054Y-14844974D01*
X15196054Y-14844974D02*
X15144649Y-14855255D01*
X15242318Y-14819272D02*
X15242318Y-14891238D01*
X15242318Y-14829553D02*
X15247458Y-14824412D01*
X15247458Y-14824412D02*
X15257739Y-14819272D01*
X15257739Y-14819272D02*
X15273161Y-14819272D01*
X15273161Y-14819272D02*
X15283442Y-14824412D01*
X15283442Y-14824412D02*
X15288582Y-14834693D01*
X15288582Y-14834693D02*
X15288582Y-14891238D01*
D14*
X12780604Y-12842109D02*
X12780604Y-12755749D01*
X12780604Y-12755749D02*
X12813503Y-12755749D01*
X12813503Y-12755749D02*
X12821728Y-12759861D01*
X12821728Y-12759861D02*
X12825840Y-12763974D01*
X12825840Y-12763974D02*
X12829952Y-12772199D01*
X12829952Y-12772199D02*
X12829952Y-12784536D01*
X12829952Y-12784536D02*
X12825840Y-12792761D01*
X12825840Y-12792761D02*
X12821728Y-12796873D01*
X12821728Y-12796873D02*
X12813503Y-12800985D01*
X12813503Y-12800985D02*
X12780604Y-12800985D01*
X12866964Y-12842109D02*
X12866964Y-12784536D01*
X12866964Y-12755749D02*
X12862851Y-12759861D01*
X12862851Y-12759861D02*
X12866964Y-12763974D01*
X12866964Y-12763974D02*
X12871076Y-12759861D01*
X12871076Y-12759861D02*
X12866964Y-12755749D01*
X12866964Y-12755749D02*
X12866964Y-12763974D01*
X12940987Y-12837997D02*
X12932762Y-12842109D01*
X12932762Y-12842109D02*
X12916312Y-12842109D01*
X12916312Y-12842109D02*
X12908088Y-12837997D01*
X12908088Y-12837997D02*
X12903975Y-12829772D01*
X12903975Y-12829772D02*
X12903975Y-12796873D01*
X12903975Y-12796873D02*
X12908088Y-12788648D01*
X12908088Y-12788648D02*
X12916312Y-12784536D01*
X12916312Y-12784536D02*
X12932762Y-12784536D01*
X12932762Y-12784536D02*
X12940987Y-12788648D01*
X12940987Y-12788648D02*
X12945099Y-12796873D01*
X12945099Y-12796873D02*
X12945099Y-12805098D01*
X12945099Y-12805098D02*
X12903975Y-12813322D01*
X12973886Y-12784536D02*
X13019122Y-12784536D01*
X13019122Y-12784536D02*
X12973886Y-12842109D01*
X12973886Y-12842109D02*
X13019122Y-12842109D01*
X13064358Y-12842109D02*
X13056133Y-12837997D01*
X13056133Y-12837997D02*
X13052021Y-12833884D01*
X13052021Y-12833884D02*
X13047909Y-12825660D01*
X13047909Y-12825660D02*
X13047909Y-12800985D01*
X13047909Y-12800985D02*
X13052021Y-12792761D01*
X13052021Y-12792761D02*
X13056133Y-12788648D01*
X13056133Y-12788648D02*
X13064358Y-12784536D01*
X13064358Y-12784536D02*
X13076695Y-12784536D01*
X13076695Y-12784536D02*
X13084920Y-12788648D01*
X13084920Y-12788648D02*
X13089032Y-12792761D01*
X13089032Y-12792761D02*
X13093145Y-12800985D01*
X13093145Y-12800985D02*
X13093145Y-12825660D01*
X13093145Y-12825660D02*
X13089032Y-12833884D01*
X13089032Y-12833884D02*
X13084920Y-12837997D01*
X13084920Y-12837997D02*
X13076695Y-12842109D01*
X13076695Y-12842109D02*
X13064358Y-12842109D01*
X12780604Y-12981149D02*
X12780604Y-12894789D01*
X12780604Y-12935912D02*
X12829952Y-12935912D01*
X12829952Y-12981149D02*
X12829952Y-12894789D01*
X12871076Y-12981149D02*
X12871076Y-12894789D01*
X12871076Y-12894789D02*
X12903975Y-12894789D01*
X12903975Y-12894789D02*
X12912200Y-12898901D01*
X12912200Y-12898901D02*
X12916312Y-12903013D01*
X12916312Y-12903013D02*
X12920425Y-12911238D01*
X12920425Y-12911238D02*
X12920425Y-12923575D01*
X12920425Y-12923575D02*
X12916312Y-12931800D01*
X12916312Y-12931800D02*
X12912200Y-12935912D01*
X12912200Y-12935912D02*
X12903975Y-12940025D01*
X12903975Y-12940025D02*
X12871076Y-12940025D01*
D10*
X14522701Y-12918260D02*
X14528415Y-12921117D01*
X14528415Y-12921117D02*
X14539844Y-12921117D01*
X14539844Y-12921117D02*
X14545558Y-12918260D01*
X14545558Y-12918260D02*
X14548415Y-12912546D01*
X14548415Y-12912546D02*
X14548415Y-12909688D01*
X14548415Y-12909688D02*
X14545558Y-12903974D01*
X14545558Y-12903974D02*
X14539844Y-12901117D01*
X14539844Y-12901117D02*
X14531273Y-12901117D01*
X14531273Y-12901117D02*
X14525558Y-12898260D01*
X14525558Y-12898260D02*
X14522701Y-12892546D01*
X14522701Y-12892546D02*
X14522701Y-12889688D01*
X14522701Y-12889688D02*
X14525558Y-12883974D01*
X14525558Y-12883974D02*
X14531273Y-12881117D01*
X14531273Y-12881117D02*
X14539844Y-12881117D01*
X14539844Y-12881117D02*
X14545558Y-12883974D01*
X14582701Y-12921117D02*
X14576987Y-12918260D01*
X14576987Y-12918260D02*
X14574130Y-12915403D01*
X14574130Y-12915403D02*
X14571273Y-12909688D01*
X14571273Y-12909688D02*
X14571273Y-12892546D01*
X14571273Y-12892546D02*
X14574130Y-12886831D01*
X14574130Y-12886831D02*
X14576987Y-12883974D01*
X14576987Y-12883974D02*
X14582701Y-12881117D01*
X14582701Y-12881117D02*
X14591273Y-12881117D01*
X14591273Y-12881117D02*
X14596987Y-12883974D01*
X14596987Y-12883974D02*
X14599844Y-12886831D01*
X14599844Y-12886831D02*
X14602701Y-12892546D01*
X14602701Y-12892546D02*
X14602701Y-12909688D01*
X14602701Y-12909688D02*
X14599844Y-12915403D01*
X14599844Y-12915403D02*
X14596987Y-12918260D01*
X14596987Y-12918260D02*
X14591273Y-12921117D01*
X14591273Y-12921117D02*
X14582701Y-12921117D01*
X14636987Y-12921117D02*
X14631273Y-12918260D01*
X14631273Y-12918260D02*
X14628415Y-12912546D01*
X14628415Y-12912546D02*
X14628415Y-12861117D01*
X14685558Y-12921117D02*
X14685558Y-12861117D01*
X14685558Y-12918260D02*
X14679844Y-12921117D01*
X14679844Y-12921117D02*
X14668415Y-12921117D01*
X14668415Y-12921117D02*
X14662701Y-12918260D01*
X14662701Y-12918260D02*
X14659844Y-12915403D01*
X14659844Y-12915403D02*
X14656987Y-12909688D01*
X14656987Y-12909688D02*
X14656987Y-12892546D01*
X14656987Y-12892546D02*
X14659844Y-12886831D01*
X14659844Y-12886831D02*
X14662701Y-12883974D01*
X14662701Y-12883974D02*
X14668415Y-12881117D01*
X14668415Y-12881117D02*
X14679844Y-12881117D01*
X14679844Y-12881117D02*
X14685558Y-12883974D01*
X14776987Y-12861117D02*
X14776987Y-12903974D01*
X14776987Y-12903974D02*
X14774130Y-12912546D01*
X14774130Y-12912546D02*
X14768415Y-12918260D01*
X14768415Y-12918260D02*
X14759844Y-12921117D01*
X14759844Y-12921117D02*
X14754130Y-12921117D01*
X14805558Y-12921117D02*
X14805558Y-12861117D01*
X14805558Y-12861117D02*
X14828415Y-12861117D01*
X14828415Y-12861117D02*
X14834130Y-12863974D01*
X14834130Y-12863974D02*
X14836987Y-12866831D01*
X14836987Y-12866831D02*
X14839844Y-12872546D01*
X14839844Y-12872546D02*
X14839844Y-12881117D01*
X14839844Y-12881117D02*
X14836987Y-12886831D01*
X14836987Y-12886831D02*
X14834130Y-12889688D01*
X14834130Y-12889688D02*
X14828415Y-12892546D01*
X14828415Y-12892546D02*
X14805558Y-12892546D01*
X14862701Y-12866831D02*
X14865558Y-12863974D01*
X14865558Y-12863974D02*
X14871273Y-12861117D01*
X14871273Y-12861117D02*
X14885558Y-12861117D01*
X14885558Y-12861117D02*
X14891273Y-12863974D01*
X14891273Y-12863974D02*
X14894130Y-12866831D01*
X14894130Y-12866831D02*
X14896987Y-12872546D01*
X14896987Y-12872546D02*
X14896987Y-12878260D01*
X14896987Y-12878260D02*
X14894130Y-12886831D01*
X14894130Y-12886831D02*
X14859844Y-12921117D01*
X14859844Y-12921117D02*
X14896987Y-12921117D01*
X14479844Y-13017717D02*
X14479844Y-12977717D01*
X14479844Y-12957717D02*
X14476987Y-12960574D01*
X14476987Y-12960574D02*
X14479844Y-12963431D01*
X14479844Y-12963431D02*
X14482701Y-12960574D01*
X14482701Y-12960574D02*
X14479844Y-12957717D01*
X14479844Y-12957717D02*
X14479844Y-12963431D01*
X14499844Y-12977717D02*
X14522701Y-12977717D01*
X14508415Y-13017717D02*
X14508415Y-12966288D01*
X14508415Y-12966288D02*
X14511273Y-12960574D01*
X14511273Y-12960574D02*
X14516987Y-12957717D01*
X14516987Y-12957717D02*
X14522701Y-12957717D01*
X14588415Y-12977717D02*
X14588415Y-13017717D01*
X14588415Y-12983431D02*
X14591273Y-12980574D01*
X14591273Y-12980574D02*
X14596987Y-12977717D01*
X14596987Y-12977717D02*
X14605558Y-12977717D01*
X14605558Y-12977717D02*
X14611273Y-12980574D01*
X14611273Y-12980574D02*
X14614130Y-12986288D01*
X14614130Y-12986288D02*
X14614130Y-13017717D01*
X14651273Y-13017717D02*
X14645558Y-13014860D01*
X14645558Y-13014860D02*
X14642701Y-13012003D01*
X14642701Y-13012003D02*
X14639844Y-13006288D01*
X14639844Y-13006288D02*
X14639844Y-12989146D01*
X14639844Y-12989146D02*
X14642701Y-12983431D01*
X14642701Y-12983431D02*
X14645558Y-12980574D01*
X14645558Y-12980574D02*
X14651273Y-12977717D01*
X14651273Y-12977717D02*
X14659844Y-12977717D01*
X14659844Y-12977717D02*
X14665558Y-12980574D01*
X14665558Y-12980574D02*
X14668415Y-12983431D01*
X14668415Y-12983431D02*
X14671273Y-12989146D01*
X14671273Y-12989146D02*
X14671273Y-13006288D01*
X14671273Y-13006288D02*
X14668415Y-13012003D01*
X14668415Y-13012003D02*
X14665558Y-13014860D01*
X14665558Y-13014860D02*
X14659844Y-13017717D01*
X14659844Y-13017717D02*
X14651273Y-13017717D01*
X14688415Y-12977717D02*
X14711273Y-12977717D01*
X14696987Y-12957717D02*
X14696987Y-13009146D01*
X14696987Y-13009146D02*
X14699844Y-13014860D01*
X14699844Y-13014860D02*
X14705558Y-13017717D01*
X14705558Y-13017717D02*
X14711273Y-13017717D01*
X14776987Y-13017717D02*
X14776987Y-12957717D01*
X14776987Y-12957717D02*
X14791273Y-12957717D01*
X14791273Y-12957717D02*
X14799844Y-12960574D01*
X14799844Y-12960574D02*
X14805558Y-12966288D01*
X14805558Y-12966288D02*
X14808415Y-12972003D01*
X14808415Y-12972003D02*
X14811273Y-12983431D01*
X14811273Y-12983431D02*
X14811273Y-12992003D01*
X14811273Y-12992003D02*
X14808415Y-13003431D01*
X14808415Y-13003431D02*
X14805558Y-13009146D01*
X14805558Y-13009146D02*
X14799844Y-13014860D01*
X14799844Y-13014860D02*
X14791273Y-13017717D01*
X14791273Y-13017717D02*
X14776987Y-13017717D01*
X14868415Y-13017717D02*
X14834130Y-13017717D01*
X14851273Y-13017717D02*
X14851273Y-12957717D01*
X14851273Y-12957717D02*
X14845558Y-12966288D01*
X14845558Y-12966288D02*
X14839844Y-12972003D01*
X14839844Y-12972003D02*
X14834130Y-12974860D01*
D14*
X13216278Y-14784980D02*
X13282076Y-14784980D01*
X13249177Y-14817879D02*
X13249177Y-14752081D01*
X13327312Y-14817879D02*
X13343762Y-14817879D01*
X13343762Y-14817879D02*
X13351987Y-14813766D01*
X13351987Y-14813766D02*
X13356099Y-14809654D01*
X13356099Y-14809654D02*
X13364324Y-14797317D01*
X13364324Y-14797317D02*
X13368436Y-14780867D01*
X13368436Y-14780867D02*
X13368436Y-14747968D01*
X13368436Y-14747968D02*
X13364324Y-14739743D01*
X13364324Y-14739743D02*
X13360211Y-14735631D01*
X13360211Y-14735631D02*
X13351987Y-14731519D01*
X13351987Y-14731519D02*
X13335537Y-14731519D01*
X13335537Y-14731519D02*
X13327312Y-14735631D01*
X13327312Y-14735631D02*
X13323200Y-14739743D01*
X13323200Y-14739743D02*
X13319088Y-14747968D01*
X13319088Y-14747968D02*
X13319088Y-14768530D01*
X13319088Y-14768530D02*
X13323200Y-14776755D01*
X13323200Y-14776755D02*
X13327312Y-14780867D01*
X13327312Y-14780867D02*
X13335537Y-14784980D01*
X13335537Y-14784980D02*
X13351987Y-14784980D01*
X13351987Y-14784980D02*
X13360211Y-14780867D01*
X13360211Y-14780867D02*
X13364324Y-14776755D01*
X13364324Y-14776755D02*
X13368436Y-14768530D01*
X13393110Y-14731519D02*
X13421897Y-14817879D01*
X13421897Y-14817879D02*
X13450684Y-14731519D01*
D15*
X13921771Y-8668680D02*
X13933200Y-8672490D01*
X13933200Y-8672490D02*
X13952247Y-8672490D01*
X13952247Y-8672490D02*
X13959867Y-8668680D01*
X13959867Y-8668680D02*
X13963676Y-8664870D01*
X13963676Y-8664870D02*
X13967486Y-8657251D01*
X13967486Y-8657251D02*
X13967486Y-8649632D01*
X13967486Y-8649632D02*
X13963676Y-8642013D01*
X13963676Y-8642013D02*
X13959867Y-8638204D01*
X13959867Y-8638204D02*
X13952247Y-8634394D01*
X13952247Y-8634394D02*
X13937009Y-8630585D01*
X13937009Y-8630585D02*
X13929390Y-8626775D01*
X13929390Y-8626775D02*
X13925581Y-8622966D01*
X13925581Y-8622966D02*
X13921771Y-8615347D01*
X13921771Y-8615347D02*
X13921771Y-8607728D01*
X13921771Y-8607728D02*
X13925581Y-8600109D01*
X13925581Y-8600109D02*
X13929390Y-8596299D01*
X13929390Y-8596299D02*
X13937009Y-8592490D01*
X13937009Y-8592490D02*
X13956057Y-8592490D01*
X13956057Y-8592490D02*
X13967486Y-8596299D01*
X13997962Y-8600109D02*
X14001771Y-8596299D01*
X14001771Y-8596299D02*
X14009390Y-8592490D01*
X14009390Y-8592490D02*
X14028438Y-8592490D01*
X14028438Y-8592490D02*
X14036057Y-8596299D01*
X14036057Y-8596299D02*
X14039867Y-8600109D01*
X14039867Y-8600109D02*
X14043676Y-8607728D01*
X14043676Y-8607728D02*
X14043676Y-8615347D01*
X14043676Y-8615347D02*
X14039867Y-8626775D01*
X14039867Y-8626775D02*
X13994152Y-8672490D01*
X13994152Y-8672490D02*
X14043676Y-8672490D01*
X14093200Y-8592490D02*
X14100819Y-8592490D01*
X14100819Y-8592490D02*
X14108438Y-8596299D01*
X14108438Y-8596299D02*
X14112248Y-8600109D01*
X14112248Y-8600109D02*
X14116057Y-8607728D01*
X14116057Y-8607728D02*
X14119867Y-8622966D01*
X14119867Y-8622966D02*
X14119867Y-8642013D01*
X14119867Y-8642013D02*
X14116057Y-8657251D01*
X14116057Y-8657251D02*
X14112248Y-8664870D01*
X14112248Y-8664870D02*
X14108438Y-8668680D01*
X14108438Y-8668680D02*
X14100819Y-8672490D01*
X14100819Y-8672490D02*
X14093200Y-8672490D01*
X14093200Y-8672490D02*
X14085581Y-8668680D01*
X14085581Y-8668680D02*
X14081771Y-8664870D01*
X14081771Y-8664870D02*
X14077962Y-8657251D01*
X14077962Y-8657251D02*
X14074152Y-8642013D01*
X14074152Y-8642013D02*
X14074152Y-8622966D01*
X14074152Y-8622966D02*
X14077962Y-8607728D01*
X14077962Y-8607728D02*
X14081771Y-8600109D01*
X14081771Y-8600109D02*
X14085581Y-8596299D01*
X14085581Y-8596299D02*
X14093200Y-8592490D01*
X14150343Y-8600109D02*
X14154152Y-8596299D01*
X14154152Y-8596299D02*
X14161771Y-8592490D01*
X14161771Y-8592490D02*
X14180819Y-8592490D01*
X14180819Y-8592490D02*
X14188438Y-8596299D01*
X14188438Y-8596299D02*
X14192248Y-8600109D01*
X14192248Y-8600109D02*
X14196057Y-8607728D01*
X14196057Y-8607728D02*
X14196057Y-8615347D01*
X14196057Y-8615347D02*
X14192248Y-8626775D01*
X14192248Y-8626775D02*
X14146533Y-8672490D01*
X14146533Y-8672490D02*
X14196057Y-8672490D01*
X14264629Y-8619156D02*
X14264629Y-8672490D01*
X14245581Y-8588680D02*
X14226533Y-8645823D01*
X14226533Y-8645823D02*
X14276057Y-8645823D01*
X14348438Y-8672490D02*
X14302724Y-8672490D01*
X14325581Y-8672490D02*
X14325581Y-8592490D01*
X14325581Y-8592490D02*
X14317962Y-8603918D01*
X14317962Y-8603918D02*
X14310343Y-8611537D01*
X14310343Y-8611537D02*
X14302724Y-8615347D01*
X14386533Y-8672490D02*
X14401771Y-8672490D01*
X14401771Y-8672490D02*
X14409390Y-8668680D01*
X14409390Y-8668680D02*
X14413200Y-8664870D01*
X14413200Y-8664870D02*
X14420819Y-8653442D01*
X14420819Y-8653442D02*
X14424629Y-8638204D01*
X14424629Y-8638204D02*
X14424629Y-8607728D01*
X14424629Y-8607728D02*
X14420819Y-8600109D01*
X14420819Y-8600109D02*
X14417010Y-8596299D01*
X14417010Y-8596299D02*
X14409390Y-8592490D01*
X14409390Y-8592490D02*
X14394152Y-8592490D01*
X14394152Y-8592490D02*
X14386533Y-8596299D01*
X14386533Y-8596299D02*
X14382724Y-8600109D01*
X14382724Y-8600109D02*
X14378914Y-8607728D01*
X14378914Y-8607728D02*
X14378914Y-8626775D01*
X14378914Y-8626775D02*
X14382724Y-8634394D01*
X14382724Y-8634394D02*
X14386533Y-8638204D01*
X14386533Y-8638204D02*
X14394152Y-8642013D01*
X14394152Y-8642013D02*
X14409390Y-8642013D01*
X14409390Y-8642013D02*
X14417010Y-8638204D01*
X14417010Y-8638204D02*
X14420819Y-8634394D01*
X14420819Y-8634394D02*
X14424629Y-8626775D01*
D14*
X12841097Y-14016576D02*
X12844907Y-14005147D01*
X12844907Y-14005147D02*
X12844907Y-13986099D01*
X12844907Y-13986099D02*
X12841097Y-13978480D01*
X12841097Y-13978480D02*
X12837288Y-13974671D01*
X12837288Y-13974671D02*
X12829669Y-13970861D01*
X12829669Y-13970861D02*
X12822050Y-13970861D01*
X12822050Y-13970861D02*
X12814431Y-13974671D01*
X12814431Y-13974671D02*
X12810621Y-13978480D01*
X12810621Y-13978480D02*
X12806812Y-13986099D01*
X12806812Y-13986099D02*
X12803002Y-14001337D01*
X12803002Y-14001337D02*
X12799193Y-14008956D01*
X12799193Y-14008956D02*
X12795383Y-14012766D01*
X12795383Y-14012766D02*
X12787764Y-14016576D01*
X12787764Y-14016576D02*
X12780145Y-14016576D01*
X12780145Y-14016576D02*
X12772526Y-14012766D01*
X12772526Y-14012766D02*
X12768716Y-14008956D01*
X12768716Y-14008956D02*
X12764907Y-14001337D01*
X12764907Y-14001337D02*
X12764907Y-13982290D01*
X12764907Y-13982290D02*
X12768716Y-13970861D01*
X12841097Y-13906099D02*
X12844907Y-13913718D01*
X12844907Y-13913718D02*
X12844907Y-13928956D01*
X12844907Y-13928956D02*
X12841097Y-13936575D01*
X12841097Y-13936575D02*
X12833478Y-13940385D01*
X12833478Y-13940385D02*
X12803002Y-13940385D01*
X12803002Y-13940385D02*
X12795383Y-13936575D01*
X12795383Y-13936575D02*
X12791574Y-13928956D01*
X12791574Y-13928956D02*
X12791574Y-13913718D01*
X12791574Y-13913718D02*
X12795383Y-13906099D01*
X12795383Y-13906099D02*
X12803002Y-13902290D01*
X12803002Y-13902290D02*
X12810621Y-13902290D01*
X12810621Y-13902290D02*
X12818240Y-13940385D01*
X12844907Y-13856576D02*
X12841097Y-13864195D01*
X12841097Y-13864195D02*
X12833478Y-13868004D01*
X12833478Y-13868004D02*
X12764907Y-13868004D01*
X12841097Y-13795623D02*
X12844907Y-13803242D01*
X12844907Y-13803242D02*
X12844907Y-13818480D01*
X12844907Y-13818480D02*
X12841097Y-13826099D01*
X12841097Y-13826099D02*
X12833478Y-13829909D01*
X12833478Y-13829909D02*
X12803002Y-13829909D01*
X12803002Y-13829909D02*
X12795383Y-13826099D01*
X12795383Y-13826099D02*
X12791574Y-13818480D01*
X12791574Y-13818480D02*
X12791574Y-13803242D01*
X12791574Y-13803242D02*
X12795383Y-13795623D01*
X12795383Y-13795623D02*
X12803002Y-13791814D01*
X12803002Y-13791814D02*
X12810621Y-13791814D01*
X12810621Y-13791814D02*
X12818240Y-13829909D01*
X12841097Y-13723242D02*
X12844907Y-13730861D01*
X12844907Y-13730861D02*
X12844907Y-13746099D01*
X12844907Y-13746099D02*
X12841097Y-13753718D01*
X12841097Y-13753718D02*
X12837288Y-13757528D01*
X12837288Y-13757528D02*
X12829669Y-13761337D01*
X12829669Y-13761337D02*
X12806812Y-13761337D01*
X12806812Y-13761337D02*
X12799193Y-13757528D01*
X12799193Y-13757528D02*
X12795383Y-13753718D01*
X12795383Y-13753718D02*
X12791574Y-13746099D01*
X12791574Y-13746099D02*
X12791574Y-13730861D01*
X12791574Y-13730861D02*
X12795383Y-13723242D01*
X12791574Y-13700385D02*
X12791574Y-13669909D01*
X12764907Y-13688956D02*
X12833478Y-13688956D01*
X12833478Y-13688956D02*
X12841097Y-13685147D01*
X12841097Y-13685147D02*
X12844907Y-13677528D01*
X12844907Y-13677528D02*
X12844907Y-13669909D01*
X12844907Y-13631814D02*
X12841097Y-13639433D01*
X12841097Y-13639433D02*
X12837288Y-13643242D01*
X12837288Y-13643242D02*
X12829669Y-13647052D01*
X12829669Y-13647052D02*
X12806812Y-13647052D01*
X12806812Y-13647052D02*
X12799193Y-13643242D01*
X12799193Y-13643242D02*
X12795383Y-13639433D01*
X12795383Y-13639433D02*
X12791574Y-13631814D01*
X12791574Y-13631814D02*
X12791574Y-13620385D01*
X12791574Y-13620385D02*
X12795383Y-13612766D01*
X12795383Y-13612766D02*
X12799193Y-13608956D01*
X12799193Y-13608956D02*
X12806812Y-13605147D01*
X12806812Y-13605147D02*
X12829669Y-13605147D01*
X12829669Y-13605147D02*
X12837288Y-13608956D01*
X12837288Y-13608956D02*
X12841097Y-13612766D01*
X12841097Y-13612766D02*
X12844907Y-13620385D01*
X12844907Y-13620385D02*
X12844907Y-13631814D01*
X12844907Y-13570861D02*
X12791574Y-13570861D01*
X12806812Y-13570861D02*
X12799193Y-13567052D01*
X12799193Y-13567052D02*
X12795383Y-13563242D01*
X12795383Y-13563242D02*
X12791574Y-13555623D01*
X12791574Y-13555623D02*
X12791574Y-13548004D01*
X12853739Y-14519499D02*
X12853739Y-14503050D01*
X12853739Y-14503050D02*
X12849626Y-14494825D01*
X12849626Y-14494825D02*
X12845514Y-14490713D01*
X12845514Y-14490713D02*
X12833177Y-14482488D01*
X12833177Y-14482488D02*
X12816727Y-14478376D01*
X12816727Y-14478376D02*
X12783828Y-14478376D01*
X12783828Y-14478376D02*
X12775603Y-14482488D01*
X12775603Y-14482488D02*
X12771491Y-14486600D01*
X12771491Y-14486600D02*
X12767379Y-14494825D01*
X12767379Y-14494825D02*
X12767379Y-14511275D01*
X12767379Y-14511275D02*
X12771491Y-14519499D01*
X12771491Y-14519499D02*
X12775603Y-14523612D01*
X12775603Y-14523612D02*
X12783828Y-14527724D01*
X12783828Y-14527724D02*
X12804390Y-14527724D01*
X12804390Y-14527724D02*
X12812615Y-14523612D01*
X12812615Y-14523612D02*
X12816727Y-14519499D01*
X12816727Y-14519499D02*
X12820840Y-14511275D01*
X12820840Y-14511275D02*
X12820840Y-14494825D01*
X12820840Y-14494825D02*
X12816727Y-14486600D01*
X12816727Y-14486600D02*
X12812615Y-14482488D01*
X12812615Y-14482488D02*
X12804390Y-14478376D01*
X12767379Y-14453701D02*
X12853739Y-14424915D01*
X12853739Y-14424915D02*
X12767379Y-14396128D01*
X13609389Y-13710812D02*
X13523029Y-13710812D01*
X13551815Y-13669688D02*
X13609389Y-13669688D01*
X13560040Y-13669688D02*
X13555928Y-13665576D01*
X13555928Y-13665576D02*
X13551815Y-13657351D01*
X13551815Y-13657351D02*
X13551815Y-13645014D01*
X13551815Y-13645014D02*
X13555928Y-13636789D01*
X13555928Y-13636789D02*
X13564152Y-13632676D01*
X13564152Y-13632676D02*
X13609389Y-13632676D01*
D10*
X14265210Y-13332838D02*
X14268543Y-13322838D01*
X14268543Y-13322838D02*
X14268543Y-13306172D01*
X14268543Y-13306172D02*
X14265210Y-13299505D01*
X14265210Y-13299505D02*
X14261877Y-13296172D01*
X14261877Y-13296172D02*
X14255210Y-13292838D01*
X14255210Y-13292838D02*
X14248543Y-13292838D01*
X14248543Y-13292838D02*
X14241877Y-13296172D01*
X14241877Y-13296172D02*
X14238543Y-13299505D01*
X14238543Y-13299505D02*
X14235210Y-13306172D01*
X14235210Y-13306172D02*
X14231877Y-13319505D01*
X14231877Y-13319505D02*
X14228543Y-13326172D01*
X14228543Y-13326172D02*
X14225210Y-13329505D01*
X14225210Y-13329505D02*
X14218543Y-13332838D01*
X14218543Y-13332838D02*
X14211877Y-13332838D01*
X14211877Y-13332838D02*
X14205210Y-13329505D01*
X14205210Y-13329505D02*
X14201877Y-13326172D01*
X14201877Y-13326172D02*
X14198543Y-13319505D01*
X14198543Y-13319505D02*
X14198543Y-13302838D01*
X14198543Y-13302838D02*
X14201877Y-13292838D01*
X14268543Y-13262838D02*
X14198543Y-13262838D01*
X14268543Y-13222838D02*
X14228543Y-13252838D01*
X14198543Y-13222838D02*
X14238543Y-13262838D01*
X14198543Y-13199505D02*
X14198543Y-13156171D01*
X14198543Y-13156171D02*
X14225210Y-13179505D01*
X14225210Y-13179505D02*
X14225210Y-13169505D01*
X14225210Y-13169505D02*
X14228543Y-13162838D01*
X14228543Y-13162838D02*
X14231877Y-13159505D01*
X14231877Y-13159505D02*
X14238543Y-13156171D01*
X14238543Y-13156171D02*
X14255210Y-13156171D01*
X14255210Y-13156171D02*
X14261877Y-13159505D01*
X14261877Y-13159505D02*
X14265210Y-13162838D01*
X14265210Y-13162838D02*
X14268543Y-13169505D01*
X14268543Y-13169505D02*
X14268543Y-13189505D01*
X14268543Y-13189505D02*
X14265210Y-13196171D01*
X14265210Y-13196171D02*
X14261877Y-13199505D01*
X14198543Y-13096171D02*
X14198543Y-13109505D01*
X14198543Y-13109505D02*
X14201877Y-13116171D01*
X14201877Y-13116171D02*
X14205210Y-13119505D01*
X14205210Y-13119505D02*
X14215210Y-13126171D01*
X14215210Y-13126171D02*
X14228543Y-13129505D01*
X14228543Y-13129505D02*
X14255210Y-13129505D01*
X14255210Y-13129505D02*
X14261877Y-13126171D01*
X14261877Y-13126171D02*
X14265210Y-13122838D01*
X14265210Y-13122838D02*
X14268543Y-13116171D01*
X14268543Y-13116171D02*
X14268543Y-13102838D01*
X14268543Y-13102838D02*
X14265210Y-13096171D01*
X14265210Y-13096171D02*
X14261877Y-13092838D01*
X14261877Y-13092838D02*
X14255210Y-13089505D01*
X14255210Y-13089505D02*
X14238543Y-13089505D01*
X14238543Y-13089505D02*
X14231877Y-13092838D01*
X14231877Y-13092838D02*
X14228543Y-13096171D01*
X14228543Y-13096171D02*
X14225210Y-13102838D01*
X14225210Y-13102838D02*
X14225210Y-13116171D01*
X14225210Y-13116171D02*
X14228543Y-13122838D01*
X14228543Y-13122838D02*
X14231877Y-13126171D01*
X14231877Y-13126171D02*
X14238543Y-13129505D01*
D13*
X13207070Y-13121792D02*
X13259709Y-13121792D01*
X13233390Y-13148111D02*
X13233390Y-13095472D01*
X13295898Y-13148111D02*
X13309057Y-13148111D01*
X13309057Y-13148111D02*
X13315637Y-13144821D01*
X13315637Y-13144821D02*
X13318927Y-13141531D01*
X13318927Y-13141531D02*
X13325507Y-13131661D01*
X13325507Y-13131661D02*
X13328797Y-13118502D01*
X13328797Y-13118502D02*
X13328797Y-13092183D01*
X13328797Y-13092183D02*
X13325507Y-13085603D01*
X13325507Y-13085603D02*
X13322217Y-13082313D01*
X13322217Y-13082313D02*
X13315637Y-13079023D01*
X13315637Y-13079023D02*
X13302478Y-13079023D01*
X13302478Y-13079023D02*
X13295898Y-13082313D01*
X13295898Y-13082313D02*
X13292608Y-13085603D01*
X13292608Y-13085603D02*
X13289318Y-13092183D01*
X13289318Y-13092183D02*
X13289318Y-13108632D01*
X13289318Y-13108632D02*
X13292608Y-13115212D01*
X13292608Y-13115212D02*
X13295898Y-13118502D01*
X13295898Y-13118502D02*
X13302478Y-13121792D01*
X13302478Y-13121792D02*
X13315637Y-13121792D01*
X13315637Y-13121792D02*
X13322217Y-13118502D01*
X13322217Y-13118502D02*
X13325507Y-13115212D01*
X13325507Y-13115212D02*
X13328797Y-13108632D01*
X13348536Y-13079023D02*
X13371566Y-13148111D01*
X13371566Y-13148111D02*
X13394595Y-13079023D01*
D14*
X13871152Y-14623038D02*
X13877818Y-14626371D01*
X13877818Y-14626371D02*
X13891152Y-14626371D01*
X13891152Y-14626371D02*
X13897818Y-14623038D01*
X13897818Y-14623038D02*
X13901152Y-14616371D01*
X13901152Y-14616371D02*
X13901152Y-14613038D01*
X13901152Y-14613038D02*
X13897818Y-14606371D01*
X13897818Y-14606371D02*
X13891152Y-14603038D01*
X13891152Y-14603038D02*
X13881152Y-14603038D01*
X13881152Y-14603038D02*
X13874485Y-14599705D01*
X13874485Y-14599705D02*
X13871152Y-14593038D01*
X13871152Y-14593038D02*
X13871152Y-14589705D01*
X13871152Y-14589705D02*
X13874485Y-14583038D01*
X13874485Y-14583038D02*
X13881152Y-14579705D01*
X13881152Y-14579705D02*
X13891152Y-14579705D01*
X13891152Y-14579705D02*
X13897818Y-14583038D01*
X13941152Y-14626371D02*
X13934485Y-14623038D01*
X13934485Y-14623038D02*
X13931152Y-14619705D01*
X13931152Y-14619705D02*
X13927818Y-14613038D01*
X13927818Y-14613038D02*
X13927818Y-14593038D01*
X13927818Y-14593038D02*
X13931152Y-14586371D01*
X13931152Y-14586371D02*
X13934485Y-14583038D01*
X13934485Y-14583038D02*
X13941152Y-14579705D01*
X13941152Y-14579705D02*
X13951152Y-14579705D01*
X13951152Y-14579705D02*
X13957818Y-14583038D01*
X13957818Y-14583038D02*
X13961152Y-14586371D01*
X13961152Y-14586371D02*
X13964485Y-14593038D01*
X13964485Y-14593038D02*
X13964485Y-14613038D01*
X13964485Y-14613038D02*
X13961152Y-14619705D01*
X13961152Y-14619705D02*
X13957818Y-14623038D01*
X13957818Y-14623038D02*
X13951152Y-14626371D01*
X13951152Y-14626371D02*
X13941152Y-14626371D01*
X14004485Y-14626371D02*
X13997818Y-14623038D01*
X13997818Y-14623038D02*
X13994485Y-14616371D01*
X13994485Y-14616371D02*
X13994485Y-14556371D01*
X14061152Y-14626371D02*
X14061152Y-14556371D01*
X14061152Y-14623038D02*
X14054485Y-14626371D01*
X14054485Y-14626371D02*
X14041152Y-14626371D01*
X14041152Y-14626371D02*
X14034485Y-14623038D01*
X14034485Y-14623038D02*
X14031152Y-14619705D01*
X14031152Y-14619705D02*
X14027818Y-14613038D01*
X14027818Y-14613038D02*
X14027818Y-14593038D01*
X14027818Y-14593038D02*
X14031152Y-14586371D01*
X14031152Y-14586371D02*
X14034485Y-14583038D01*
X14034485Y-14583038D02*
X14041152Y-14579705D01*
X14041152Y-14579705D02*
X14054485Y-14579705D01*
X14054485Y-14579705D02*
X14061152Y-14583038D01*
X14167818Y-14556371D02*
X14167818Y-14606371D01*
X14167818Y-14606371D02*
X14164485Y-14616371D01*
X14164485Y-14616371D02*
X14157818Y-14623038D01*
X14157818Y-14623038D02*
X14147818Y-14626371D01*
X14147818Y-14626371D02*
X14141152Y-14626371D01*
X14201151Y-14626371D02*
X14201151Y-14556371D01*
X14201151Y-14556371D02*
X14227818Y-14556371D01*
X14227818Y-14556371D02*
X14234485Y-14559705D01*
X14234485Y-14559705D02*
X14237818Y-14563038D01*
X14237818Y-14563038D02*
X14241151Y-14569705D01*
X14241151Y-14569705D02*
X14241151Y-14579705D01*
X14241151Y-14579705D02*
X14237818Y-14586371D01*
X14237818Y-14586371D02*
X14234485Y-14589705D01*
X14234485Y-14589705D02*
X14227818Y-14593038D01*
X14227818Y-14593038D02*
X14201151Y-14593038D01*
X14307818Y-14626371D02*
X14267818Y-14626371D01*
X14287818Y-14626371D02*
X14287818Y-14556371D01*
X14287818Y-14556371D02*
X14281151Y-14566371D01*
X14281151Y-14566371D02*
X14274485Y-14573038D01*
X14274485Y-14573038D02*
X14267818Y-14576371D01*
X13821152Y-14851771D02*
X13821152Y-14805105D01*
X13821152Y-14781771D02*
X13817818Y-14785105D01*
X13817818Y-14785105D02*
X13821152Y-14788438D01*
X13821152Y-14788438D02*
X13824485Y-14785105D01*
X13824485Y-14785105D02*
X13821152Y-14781771D01*
X13821152Y-14781771D02*
X13821152Y-14788438D01*
X13844485Y-14805105D02*
X13871152Y-14805105D01*
X13854485Y-14851771D02*
X13854485Y-14791771D01*
X13854485Y-14791771D02*
X13857818Y-14785105D01*
X13857818Y-14785105D02*
X13864485Y-14781771D01*
X13864485Y-14781771D02*
X13871152Y-14781771D01*
X13947818Y-14805105D02*
X13947818Y-14851771D01*
X13947818Y-14811771D02*
X13951152Y-14808438D01*
X13951152Y-14808438D02*
X13957818Y-14805105D01*
X13957818Y-14805105D02*
X13967818Y-14805105D01*
X13967818Y-14805105D02*
X13974485Y-14808438D01*
X13974485Y-14808438D02*
X13977818Y-14815105D01*
X13977818Y-14815105D02*
X13977818Y-14851771D01*
X14021151Y-14851771D02*
X14014485Y-14848438D01*
X14014485Y-14848438D02*
X14011151Y-14845105D01*
X14011151Y-14845105D02*
X14007818Y-14838438D01*
X14007818Y-14838438D02*
X14007818Y-14818438D01*
X14007818Y-14818438D02*
X14011151Y-14811771D01*
X14011151Y-14811771D02*
X14014485Y-14808438D01*
X14014485Y-14808438D02*
X14021151Y-14805105D01*
X14021151Y-14805105D02*
X14031151Y-14805105D01*
X14031151Y-14805105D02*
X14037818Y-14808438D01*
X14037818Y-14808438D02*
X14041151Y-14811771D01*
X14041151Y-14811771D02*
X14044485Y-14818438D01*
X14044485Y-14818438D02*
X14044485Y-14838438D01*
X14044485Y-14838438D02*
X14041151Y-14845105D01*
X14041151Y-14845105D02*
X14037818Y-14848438D01*
X14037818Y-14848438D02*
X14031151Y-14851771D01*
X14031151Y-14851771D02*
X14021151Y-14851771D01*
X14064485Y-14805105D02*
X14091151Y-14805105D01*
X14074485Y-14781771D02*
X14074485Y-14841771D01*
X14074485Y-14841771D02*
X14077818Y-14848438D01*
X14077818Y-14848438D02*
X14084485Y-14851771D01*
X14084485Y-14851771D02*
X14091151Y-14851771D01*
X14167818Y-14851771D02*
X14167818Y-14781771D01*
X14241151Y-14845105D02*
X14237818Y-14848438D01*
X14237818Y-14848438D02*
X14227818Y-14851771D01*
X14227818Y-14851771D02*
X14221151Y-14851771D01*
X14221151Y-14851771D02*
X14211151Y-14848438D01*
X14211151Y-14848438D02*
X14204485Y-14841771D01*
X14204485Y-14841771D02*
X14201151Y-14835105D01*
X14201151Y-14835105D02*
X14197818Y-14821771D01*
X14197818Y-14821771D02*
X14197818Y-14811771D01*
X14197818Y-14811771D02*
X14201151Y-14798438D01*
X14201151Y-14798438D02*
X14204485Y-14791771D01*
X14204485Y-14791771D02*
X14211151Y-14785105D01*
X14211151Y-14785105D02*
X14221151Y-14781771D01*
X14221151Y-14781771D02*
X14227818Y-14781771D01*
X14227818Y-14781771D02*
X14237818Y-14785105D01*
X14237818Y-14785105D02*
X14241151Y-14788438D01*
X14307818Y-14851771D02*
X14267818Y-14851771D01*
X14287818Y-14851771D02*
X14287818Y-14781771D01*
X14287818Y-14781771D02*
X14281151Y-14791771D01*
X14281151Y-14791771D02*
X14274485Y-14798438D01*
X14274485Y-14798438D02*
X14267818Y-14801771D01*
D16*
X14112696Y-13757317D02*
X14088566Y-13722845D01*
X14071330Y-13757317D02*
X14071330Y-13684927D01*
X14071330Y-13684927D02*
X14098907Y-13684927D01*
X14098907Y-13684927D02*
X14105802Y-13688374D01*
X14105802Y-13688374D02*
X14109249Y-13691821D01*
X14109249Y-13691821D02*
X14112696Y-13698715D01*
X14112696Y-13698715D02*
X14112696Y-13709057D01*
X14112696Y-13709057D02*
X14109249Y-13715951D01*
X14109249Y-13715951D02*
X14105802Y-13719398D01*
X14105802Y-13719398D02*
X14098907Y-13722845D01*
X14098907Y-13722845D02*
X14071330Y-13722845D01*
X14136826Y-13684927D02*
X14185086Y-13684927D01*
X14185086Y-13684927D02*
X14154062Y-13757317D01*
X14297903Y-13855606D02*
X14297903Y-13902272D01*
X14281237Y-13828939D02*
X14264570Y-13878939D01*
X14264570Y-13878939D02*
X14307903Y-13878939D01*
X14334570Y-13895606D02*
X14337903Y-13898939D01*
X14337903Y-13898939D02*
X14334570Y-13902272D01*
X14334570Y-13902272D02*
X14331237Y-13898939D01*
X14331237Y-13898939D02*
X14334570Y-13895606D01*
X14334570Y-13895606D02*
X14334570Y-13902272D01*
X14361237Y-13832272D02*
X14407903Y-13832272D01*
X14407903Y-13832272D02*
X14377903Y-13902272D01*
X14434570Y-13902272D02*
X14434570Y-13832272D01*
X14474570Y-13902272D02*
X14444570Y-13862272D01*
X14474570Y-13832272D02*
X14434570Y-13872272D01*
X15104321Y-14082424D02*
X15100873Y-14085872D01*
X15100873Y-14085872D02*
X15090532Y-14089319D01*
X15090532Y-14089319D02*
X15083638Y-14089319D01*
X15083638Y-14089319D02*
X15073296Y-14085872D01*
X15073296Y-14085872D02*
X15066402Y-14078977D01*
X15066402Y-14078977D02*
X15062955Y-14072083D01*
X15062955Y-14072083D02*
X15059508Y-14058294D01*
X15059508Y-14058294D02*
X15059508Y-14047953D01*
X15059508Y-14047953D02*
X15062955Y-14034164D01*
X15062955Y-14034164D02*
X15066402Y-14027270D01*
X15066402Y-14027270D02*
X15073296Y-14020376D01*
X15073296Y-14020376D02*
X15083638Y-14016929D01*
X15083638Y-14016929D02*
X15090532Y-14016929D01*
X15090532Y-14016929D02*
X15100873Y-14020376D01*
X15100873Y-14020376D02*
X15104321Y-14023823D01*
X15173263Y-14089319D02*
X15131898Y-14089319D01*
X15152581Y-14089319D02*
X15152581Y-14016929D01*
X15152581Y-14016929D02*
X15145686Y-14027270D01*
X15145686Y-14027270D02*
X15138792Y-14034164D01*
X15138792Y-14034164D02*
X15131898Y-14037612D01*
X14821718Y-14240209D02*
X14781718Y-14240209D01*
X14801718Y-14240209D02*
X14801718Y-14170209D01*
X14801718Y-14170209D02*
X14795051Y-14180209D01*
X14795051Y-14180209D02*
X14788385Y-14186876D01*
X14788385Y-14186876D02*
X14781718Y-14190209D01*
X14865051Y-14170209D02*
X14871718Y-14170209D01*
X14871718Y-14170209D02*
X14878385Y-14173543D01*
X14878385Y-14173543D02*
X14881718Y-14176876D01*
X14881718Y-14176876D02*
X14885051Y-14183543D01*
X14885051Y-14183543D02*
X14888385Y-14196876D01*
X14888385Y-14196876D02*
X14888385Y-14213543D01*
X14888385Y-14213543D02*
X14885051Y-14226876D01*
X14885051Y-14226876D02*
X14881718Y-14233543D01*
X14881718Y-14233543D02*
X14878385Y-14236876D01*
X14878385Y-14236876D02*
X14871718Y-14240209D01*
X14871718Y-14240209D02*
X14865051Y-14240209D01*
X14865051Y-14240209D02*
X14858385Y-14236876D01*
X14858385Y-14236876D02*
X14855051Y-14233543D01*
X14855051Y-14233543D02*
X14851718Y-14226876D01*
X14851718Y-14226876D02*
X14848385Y-14213543D01*
X14848385Y-14213543D02*
X14848385Y-14196876D01*
X14848385Y-14196876D02*
X14851718Y-14183543D01*
X14851718Y-14183543D02*
X14855051Y-14176876D01*
X14855051Y-14176876D02*
X14858385Y-14173543D01*
X14858385Y-14173543D02*
X14865051Y-14170209D01*
X14918385Y-14193543D02*
X14918385Y-14240209D01*
X14918385Y-14200209D02*
X14921718Y-14196876D01*
X14921718Y-14196876D02*
X14928385Y-14193543D01*
X14928385Y-14193543D02*
X14938385Y-14193543D01*
X14938385Y-14193543D02*
X14945051Y-14196876D01*
X14945051Y-14196876D02*
X14948385Y-14203543D01*
X14948385Y-14203543D02*
X14948385Y-14240209D01*
X15005051Y-14203543D02*
X14981718Y-14203543D01*
X14981718Y-14240209D02*
X14981718Y-14170209D01*
X14981718Y-14170209D02*
X15015051Y-14170209D01*
X14066057Y-9467679D02*
X14032723Y-9491013D01*
X14066057Y-9507679D02*
X13996057Y-9507679D01*
X13996057Y-9507679D02*
X13996057Y-9481013D01*
X13996057Y-9481013D02*
X13999390Y-9474346D01*
X13999390Y-9474346D02*
X14002723Y-9471013D01*
X14002723Y-9471013D02*
X14009390Y-9467679D01*
X14009390Y-9467679D02*
X14019390Y-9467679D01*
X14019390Y-9467679D02*
X14026057Y-9471013D01*
X14026057Y-9471013D02*
X14029390Y-9474346D01*
X14029390Y-9474346D02*
X14032723Y-9481013D01*
X14032723Y-9481013D02*
X14032723Y-9507679D01*
X14066057Y-9401013D02*
X14066057Y-9441013D01*
X14066057Y-9421013D02*
X13996057Y-9421013D01*
X13996057Y-9421013D02*
X14006057Y-9427679D01*
X14006057Y-9427679D02*
X14012723Y-9434346D01*
X14012723Y-9434346D02*
X14016057Y-9441013D01*
X13996057Y-9357679D02*
X13996057Y-9351013D01*
X13996057Y-9351013D02*
X13999390Y-9344346D01*
X13999390Y-9344346D02*
X14002723Y-9341013D01*
X14002723Y-9341013D02*
X14009390Y-9337679D01*
X14009390Y-9337679D02*
X14022723Y-9334346D01*
X14022723Y-9334346D02*
X14039390Y-9334346D01*
X14039390Y-9334346D02*
X14052723Y-9337679D01*
X14052723Y-9337679D02*
X14059390Y-9341013D01*
X14059390Y-9341013D02*
X14062723Y-9344346D01*
X14062723Y-9344346D02*
X14066057Y-9351013D01*
X14066057Y-9351013D02*
X14066057Y-9357679D01*
X14066057Y-9357679D02*
X14062723Y-9364346D01*
X14062723Y-9364346D02*
X14059390Y-9367679D01*
X14059390Y-9367679D02*
X14052723Y-9371013D01*
X14052723Y-9371013D02*
X14039390Y-9374346D01*
X14039390Y-9374346D02*
X14022723Y-9374346D01*
X14022723Y-9374346D02*
X14009390Y-9371013D01*
X14009390Y-9371013D02*
X14002723Y-9367679D01*
X14002723Y-9367679D02*
X13999390Y-9364346D01*
X13999390Y-9364346D02*
X13996057Y-9357679D01*
X13996057Y-9291013D02*
X13996057Y-9284346D01*
X13996057Y-9284346D02*
X13999390Y-9277679D01*
X13999390Y-9277679D02*
X14002723Y-9274346D01*
X14002723Y-9274346D02*
X14009390Y-9271013D01*
X14009390Y-9271013D02*
X14022723Y-9267679D01*
X14022723Y-9267679D02*
X14039390Y-9267679D01*
X14039390Y-9267679D02*
X14052723Y-9271013D01*
X14052723Y-9271013D02*
X14059390Y-9274346D01*
X14059390Y-9274346D02*
X14062723Y-9277679D01*
X14062723Y-9277679D02*
X14066057Y-9284346D01*
X14066057Y-9284346D02*
X14066057Y-9291013D01*
X14066057Y-9291013D02*
X14062723Y-9297679D01*
X14062723Y-9297679D02*
X14059390Y-9301013D01*
X14059390Y-9301013D02*
X14052723Y-9304346D01*
X14052723Y-9304346D02*
X14039390Y-9307679D01*
X14039390Y-9307679D02*
X14022723Y-9307679D01*
X14022723Y-9307679D02*
X14009390Y-9304346D01*
X14009390Y-9304346D02*
X14002723Y-9301013D01*
X14002723Y-9301013D02*
X13999390Y-9297679D01*
X13999390Y-9297679D02*
X13996057Y-9291013D01*
X14346359Y-9427243D02*
X14346359Y-9467243D01*
X14346359Y-9447243D02*
X14276359Y-9447243D01*
X14276359Y-9447243D02*
X14286359Y-9453910D01*
X14286359Y-9453910D02*
X14293026Y-9460577D01*
X14293026Y-9460577D02*
X14296359Y-9467243D01*
X14346359Y-9397243D02*
X14276359Y-9397243D01*
X14346359Y-9357243D02*
X14306359Y-9387243D01*
X14276359Y-9357243D02*
X14316359Y-9397243D01*
X13273035Y-8210895D02*
X13232501Y-8214436D01*
X13253035Y-8245536D02*
X13192413Y-8210536D01*
X13192413Y-8210536D02*
X13205747Y-8187442D01*
X13205747Y-8187442D02*
X13211967Y-8183335D01*
X13211967Y-8183335D02*
X13216520Y-8182115D01*
X13216520Y-8182115D02*
X13223960Y-8182562D01*
X13223960Y-8182562D02*
X13232621Y-8187562D01*
X13232621Y-8187562D02*
X13236727Y-8193782D01*
X13236727Y-8193782D02*
X13237947Y-8198335D01*
X13237947Y-8198335D02*
X13237501Y-8205776D01*
X13237501Y-8205776D02*
X13224168Y-8228870D01*
X13306368Y-8153160D02*
X13286368Y-8187801D01*
X13296368Y-8170481D02*
X13235747Y-8135481D01*
X13235747Y-8135481D02*
X13241074Y-8146254D01*
X13241074Y-8146254D02*
X13243514Y-8155361D01*
X13243514Y-8155361D02*
X13243067Y-8162801D01*
X13267413Y-8080632D02*
X13270747Y-8074859D01*
X13270747Y-8074859D02*
X13276967Y-8070752D01*
X13276967Y-8070752D02*
X13281520Y-8069532D01*
X13281520Y-8069532D02*
X13288960Y-8069979D01*
X13288960Y-8069979D02*
X13302174Y-8073759D01*
X13302174Y-8073759D02*
X13316608Y-8082092D01*
X13316608Y-8082092D02*
X13326488Y-8091645D01*
X13326488Y-8091645D02*
X13330595Y-8097865D01*
X13330595Y-8097865D02*
X13331815Y-8102419D01*
X13331815Y-8102419D02*
X13331368Y-8109859D01*
X13331368Y-8109859D02*
X13328035Y-8115632D01*
X13328035Y-8115632D02*
X13321815Y-8119739D01*
X13321815Y-8119739D02*
X13317262Y-8120959D01*
X13317262Y-8120959D02*
X13309821Y-8120513D01*
X13309821Y-8120513D02*
X13296608Y-8116733D01*
X13296608Y-8116733D02*
X13282174Y-8108400D01*
X13282174Y-8108400D02*
X13272294Y-8098846D01*
X13272294Y-8098846D02*
X13268187Y-8092626D01*
X13268187Y-8092626D02*
X13266967Y-8088073D01*
X13266967Y-8088073D02*
X13267413Y-8080632D01*
X13325061Y-8040784D02*
X13318841Y-8044891D01*
X13318841Y-8044891D02*
X13314287Y-8046111D01*
X13314287Y-8046111D02*
X13306847Y-8045664D01*
X13306847Y-8045664D02*
X13303960Y-8043998D01*
X13303960Y-8043998D02*
X13299853Y-8037778D01*
X13299853Y-8037778D02*
X13298633Y-8033224D01*
X13298633Y-8033224D02*
X13299080Y-8025784D01*
X13299080Y-8025784D02*
X13305747Y-8014237D01*
X13305747Y-8014237D02*
X13311967Y-8010130D01*
X13311967Y-8010130D02*
X13316520Y-8008910D01*
X13316520Y-8008910D02*
X13323960Y-8009357D01*
X13323960Y-8009357D02*
X13326847Y-8011023D01*
X13326847Y-8011023D02*
X13330954Y-8017244D01*
X13330954Y-8017244D02*
X13332174Y-8021797D01*
X13332174Y-8021797D02*
X13331727Y-8029237D01*
X13331727Y-8029237D02*
X13325061Y-8040784D01*
X13325061Y-8040784D02*
X13324614Y-8048224D01*
X13324614Y-8048224D02*
X13325834Y-8052778D01*
X13325834Y-8052778D02*
X13329941Y-8058998D01*
X13329941Y-8058998D02*
X13341488Y-8065664D01*
X13341488Y-8065664D02*
X13348928Y-8066111D01*
X13348928Y-8066111D02*
X13353482Y-8064891D01*
X13353482Y-8064891D02*
X13359702Y-8060784D01*
X13359702Y-8060784D02*
X13366368Y-8049237D01*
X13366368Y-8049237D02*
X13366815Y-8041797D01*
X13366815Y-8041797D02*
X13365595Y-8037244D01*
X13365595Y-8037244D02*
X13361488Y-8031023D01*
X13361488Y-8031023D02*
X13349941Y-8024357D01*
X13349941Y-8024357D02*
X13342501Y-8023910D01*
X13342501Y-8023910D02*
X13337947Y-8025130D01*
X13337947Y-8025130D02*
X13331727Y-8029237D01*
X13560855Y-8298980D02*
X13540855Y-8333621D01*
X13550855Y-8316300D02*
X13490233Y-8281300D01*
X13490233Y-8281300D02*
X13495560Y-8292074D01*
X13495560Y-8292074D02*
X13498000Y-8301180D01*
X13498000Y-8301180D02*
X13497553Y-8308621D01*
X13575855Y-8272999D02*
X13515233Y-8237999D01*
X13595855Y-8238358D02*
X13546214Y-8244339D01*
X13535233Y-8203358D02*
X13549874Y-8257999D01*
D11*
X13339536Y-11833568D02*
X13331917Y-11829759D01*
X13331917Y-11829759D02*
X13324298Y-11822140D01*
X13324298Y-11822140D02*
X13312869Y-11810711D01*
X13312869Y-11810711D02*
X13305250Y-11806901D01*
X13305250Y-11806901D02*
X13297631Y-11806901D01*
X13301441Y-11825949D02*
X13293822Y-11822140D01*
X13293822Y-11822140D02*
X13286203Y-11814520D01*
X13286203Y-11814520D02*
X13282393Y-11799282D01*
X13282393Y-11799282D02*
X13282393Y-11772616D01*
X13282393Y-11772616D02*
X13286203Y-11757378D01*
X13286203Y-11757378D02*
X13293822Y-11749759D01*
X13293822Y-11749759D02*
X13301441Y-11745949D01*
X13301441Y-11745949D02*
X13316679Y-11745949D01*
X13316679Y-11745949D02*
X13324298Y-11749759D01*
X13324298Y-11749759D02*
X13331917Y-11757378D01*
X13331917Y-11757378D02*
X13335727Y-11772616D01*
X13335727Y-11772616D02*
X13335727Y-11799282D01*
X13335727Y-11799282D02*
X13331917Y-11814520D01*
X13331917Y-11814520D02*
X13324298Y-11822140D01*
X13324298Y-11822140D02*
X13316679Y-11825949D01*
X13316679Y-11825949D02*
X13301441Y-11825949D01*
X13411917Y-11825949D02*
X13366203Y-11825949D01*
X13389060Y-11825949D02*
X13389060Y-11745949D01*
X13389060Y-11745949D02*
X13381441Y-11757378D01*
X13381441Y-11757378D02*
X13373822Y-11764997D01*
X13373822Y-11764997D02*
X13366203Y-11768806D01*
D17*
X12833489Y-11749849D02*
X12841290Y-11752450D01*
X12841290Y-11752450D02*
X12843890Y-11755050D01*
X12843890Y-11755050D02*
X12846491Y-11760251D01*
X12846491Y-11760251D02*
X12846491Y-11768052D01*
X12846491Y-11768052D02*
X12843890Y-11773253D01*
X12843890Y-11773253D02*
X12841290Y-11775854D01*
X12841290Y-11775854D02*
X12836089Y-11778454D01*
X12836089Y-11778454D02*
X12815285Y-11778454D01*
X12815285Y-11778454D02*
X12815285Y-11723844D01*
X12815285Y-11723844D02*
X12833489Y-11723844D01*
X12833489Y-11723844D02*
X12838689Y-11726445D01*
X12838689Y-11726445D02*
X12841290Y-11729045D01*
X12841290Y-11729045D02*
X12843890Y-11734246D01*
X12843890Y-11734246D02*
X12843890Y-11739447D01*
X12843890Y-11739447D02*
X12841290Y-11744648D01*
X12841290Y-11744648D02*
X12838689Y-11747249D01*
X12838689Y-11747249D02*
X12833489Y-11749849D01*
X12833489Y-11749849D02*
X12815285Y-11749849D01*
X12867295Y-11775854D02*
X12875096Y-11778454D01*
X12875096Y-11778454D02*
X12888099Y-11778454D01*
X12888099Y-11778454D02*
X12893299Y-11775854D01*
X12893299Y-11775854D02*
X12895900Y-11773253D01*
X12895900Y-11773253D02*
X12898500Y-11768052D01*
X12898500Y-11768052D02*
X12898500Y-11762852D01*
X12898500Y-11762852D02*
X12895900Y-11757651D01*
X12895900Y-11757651D02*
X12893299Y-11755050D01*
X12893299Y-11755050D02*
X12888099Y-11752450D01*
X12888099Y-11752450D02*
X12877697Y-11749849D01*
X12877697Y-11749849D02*
X12872496Y-11747249D01*
X12872496Y-11747249D02*
X12869895Y-11744648D01*
X12869895Y-11744648D02*
X12867295Y-11739447D01*
X12867295Y-11739447D02*
X12867295Y-11734246D01*
X12867295Y-11734246D02*
X12869895Y-11729045D01*
X12869895Y-11729045D02*
X12872496Y-11726445D01*
X12872496Y-11726445D02*
X12877697Y-11723844D01*
X12877697Y-11723844D02*
X12890699Y-11723844D01*
X12890699Y-11723844D02*
X12898500Y-11726445D01*
X12950510Y-11778454D02*
X12919304Y-11778454D01*
X12934907Y-11778454D02*
X12934907Y-11723844D01*
X12934907Y-11723844D02*
X12929706Y-11731646D01*
X12929706Y-11731646D02*
X12924505Y-11736847D01*
X12924505Y-11736847D02*
X12919304Y-11739447D01*
X12968713Y-11723844D02*
X13005120Y-11723844D01*
X13005120Y-11723844D02*
X12981716Y-11778454D01*
X13036326Y-11723844D02*
X13041527Y-11723844D01*
X13041527Y-11723844D02*
X13046727Y-11726445D01*
X13046727Y-11726445D02*
X13049328Y-11729045D01*
X13049328Y-11729045D02*
X13051928Y-11734246D01*
X13051928Y-11734246D02*
X13054529Y-11744648D01*
X13054529Y-11744648D02*
X13054529Y-11757651D01*
X13054529Y-11757651D02*
X13051928Y-11768052D01*
X13051928Y-11768052D02*
X13049328Y-11773253D01*
X13049328Y-11773253D02*
X13046727Y-11775854D01*
X13046727Y-11775854D02*
X13041527Y-11778454D01*
X13041527Y-11778454D02*
X13036326Y-11778454D01*
X13036326Y-11778454D02*
X13031125Y-11775854D01*
X13031125Y-11775854D02*
X13028524Y-11773253D01*
X13028524Y-11773253D02*
X13025924Y-11768052D01*
X13025924Y-11768052D02*
X13023323Y-11757651D01*
X13023323Y-11757651D02*
X13023323Y-11744648D01*
X13023323Y-11744648D02*
X13025924Y-11734246D01*
X13025924Y-11734246D02*
X13028524Y-11729045D01*
X13028524Y-11729045D02*
X13031125Y-11726445D01*
X13031125Y-11726445D02*
X13036326Y-11723844D01*
X13077933Y-11757651D02*
X13119541Y-11757651D01*
X13171550Y-11778454D02*
X13145546Y-11778454D01*
X13145546Y-11778454D02*
X13145546Y-11723844D01*
D16*
X13582336Y-9503182D02*
X13578796Y-9462647D01*
X13547695Y-9483182D02*
X13582695Y-9422560D01*
X13582695Y-9422560D02*
X13605789Y-9435893D01*
X13605789Y-9435893D02*
X13609896Y-9442113D01*
X13609896Y-9442113D02*
X13611116Y-9446667D01*
X13611116Y-9446667D02*
X13610670Y-9454107D01*
X13610670Y-9454107D02*
X13605670Y-9462767D01*
X13605670Y-9462767D02*
X13599450Y-9466874D01*
X13599450Y-9466874D02*
X13594896Y-9468094D01*
X13594896Y-9468094D02*
X13587456Y-9467647D01*
X13587456Y-9467647D02*
X13564362Y-9454314D01*
X13640071Y-9536515D02*
X13605430Y-9516515D01*
X13622751Y-9526515D02*
X13657751Y-9465893D01*
X13657751Y-9465893D02*
X13646977Y-9471220D01*
X13646977Y-9471220D02*
X13637870Y-9473660D01*
X13637870Y-9473660D02*
X13630430Y-9473214D01*
X13712599Y-9497560D02*
X13718373Y-9500893D01*
X13718373Y-9500893D02*
X13722479Y-9507113D01*
X13722479Y-9507113D02*
X13723700Y-9511667D01*
X13723700Y-9511667D02*
X13723253Y-9519107D01*
X13723253Y-9519107D02*
X13719473Y-9532320D01*
X13719473Y-9532320D02*
X13711140Y-9546754D01*
X13711140Y-9546754D02*
X13701586Y-9556635D01*
X13701586Y-9556635D02*
X13695366Y-9560741D01*
X13695366Y-9560741D02*
X13690813Y-9561961D01*
X13690813Y-9561961D02*
X13683373Y-9561515D01*
X13683373Y-9561515D02*
X13677599Y-9558182D01*
X13677599Y-9558182D02*
X13673492Y-9551961D01*
X13673492Y-9551961D02*
X13672272Y-9547408D01*
X13672272Y-9547408D02*
X13672719Y-9539968D01*
X13672719Y-9539968D02*
X13676499Y-9526754D01*
X13676499Y-9526754D02*
X13684832Y-9512320D01*
X13684832Y-9512320D02*
X13694385Y-9502440D01*
X13694385Y-9502440D02*
X13700606Y-9498333D01*
X13700606Y-9498333D02*
X13705159Y-9497113D01*
X13705159Y-9497113D02*
X13712599Y-9497560D01*
X13752567Y-9528333D02*
X13757121Y-9527113D01*
X13757121Y-9527113D02*
X13764561Y-9527560D01*
X13764561Y-9527560D02*
X13778994Y-9535893D01*
X13778994Y-9535893D02*
X13783101Y-9542113D01*
X13783101Y-9542113D02*
X13784321Y-9546667D01*
X13784321Y-9546667D02*
X13783875Y-9554107D01*
X13783875Y-9554107D02*
X13780541Y-9559880D01*
X13780541Y-9559880D02*
X13772655Y-9566874D01*
X13772655Y-9566874D02*
X13718014Y-9581515D01*
X13718014Y-9581515D02*
X13755541Y-9603182D01*
X13801701Y-9288109D02*
X13767060Y-9268109D01*
X13784381Y-9278109D02*
X13819381Y-9217487D01*
X13819381Y-9217487D02*
X13808607Y-9222814D01*
X13808607Y-9222814D02*
X13799501Y-9225254D01*
X13799501Y-9225254D02*
X13792060Y-9224808D01*
X13827682Y-9303109D02*
X13862682Y-9242487D01*
X13862323Y-9323109D02*
X13856342Y-9273468D01*
X13897323Y-9262487D02*
X13842682Y-9277128D01*
X15203853Y-8714166D02*
X15170520Y-8737499D01*
X15203853Y-8754166D02*
X15133853Y-8754166D01*
X15133853Y-8754166D02*
X15133853Y-8727499D01*
X15133853Y-8727499D02*
X15137187Y-8720833D01*
X15137187Y-8720833D02*
X15140520Y-8717499D01*
X15140520Y-8717499D02*
X15147187Y-8714166D01*
X15147187Y-8714166D02*
X15157187Y-8714166D01*
X15157187Y-8714166D02*
X15163853Y-8717499D01*
X15163853Y-8717499D02*
X15167187Y-8720833D01*
X15167187Y-8720833D02*
X15170520Y-8727499D01*
X15170520Y-8727499D02*
X15170520Y-8754166D01*
X15203853Y-8647499D02*
X15203853Y-8687499D01*
X15203853Y-8667499D02*
X15133853Y-8667499D01*
X15133853Y-8667499D02*
X15143853Y-8674166D01*
X15143853Y-8674166D02*
X15150520Y-8680833D01*
X15150520Y-8680833D02*
X15153853Y-8687499D01*
X15133853Y-8604166D02*
X15133853Y-8597499D01*
X15133853Y-8597499D02*
X15137187Y-8590832D01*
X15137187Y-8590832D02*
X15140520Y-8587499D01*
X15140520Y-8587499D02*
X15147187Y-8584166D01*
X15147187Y-8584166D02*
X15160520Y-8580832D01*
X15160520Y-8580832D02*
X15177187Y-8580832D01*
X15177187Y-8580832D02*
X15190520Y-8584166D01*
X15190520Y-8584166D02*
X15197187Y-8587499D01*
X15197187Y-8587499D02*
X15200520Y-8590832D01*
X15200520Y-8590832D02*
X15203853Y-8597499D01*
X15203853Y-8597499D02*
X15203853Y-8604166D01*
X15203853Y-8604166D02*
X15200520Y-8610832D01*
X15200520Y-8610832D02*
X15197187Y-8614166D01*
X15197187Y-8614166D02*
X15190520Y-8617499D01*
X15190520Y-8617499D02*
X15177187Y-8620832D01*
X15177187Y-8620832D02*
X15160520Y-8620832D01*
X15160520Y-8620832D02*
X15147187Y-8617499D01*
X15147187Y-8617499D02*
X15140520Y-8614166D01*
X15140520Y-8614166D02*
X15137187Y-8610832D01*
X15137187Y-8610832D02*
X15133853Y-8604166D01*
X15133853Y-8517499D02*
X15133853Y-8550832D01*
X15133853Y-8550832D02*
X15167187Y-8554166D01*
X15167187Y-8554166D02*
X15163853Y-8550832D01*
X15163853Y-8550832D02*
X15160520Y-8544166D01*
X15160520Y-8544166D02*
X15160520Y-8527499D01*
X15160520Y-8527499D02*
X15163853Y-8520832D01*
X15163853Y-8520832D02*
X15167187Y-8517499D01*
X15167187Y-8517499D02*
X15173853Y-8514166D01*
X15173853Y-8514166D02*
X15190520Y-8514166D01*
X15190520Y-8514166D02*
X15197187Y-8517499D01*
X15197187Y-8517499D02*
X15200520Y-8520832D01*
X15200520Y-8520832D02*
X15203853Y-8527499D01*
X15203853Y-8527499D02*
X15203853Y-8544166D01*
X15203853Y-8544166D02*
X15200520Y-8550832D01*
X15200520Y-8550832D02*
X15197187Y-8554166D01*
X14916916Y-8637887D02*
X14916916Y-8677887D01*
X14916916Y-8657887D02*
X14846916Y-8657887D01*
X14846916Y-8657887D02*
X14856916Y-8664553D01*
X14856916Y-8664553D02*
X14863583Y-8671220D01*
X14863583Y-8671220D02*
X14866916Y-8677887D01*
X14916916Y-8607887D02*
X14846916Y-8607887D01*
X14916916Y-8567887D02*
X14876916Y-8597887D01*
X14846916Y-8567887D02*
X14886916Y-8607887D01*
X14637411Y-9571102D02*
X14600537Y-9553901D01*
X14602770Y-9591102D02*
X14567770Y-9530480D01*
X14567770Y-9530480D02*
X14590864Y-9517147D01*
X14590864Y-9517147D02*
X14598304Y-9516701D01*
X14598304Y-9516701D02*
X14602858Y-9517921D01*
X14602858Y-9517921D02*
X14609078Y-9522027D01*
X14609078Y-9522027D02*
X14614078Y-9530688D01*
X14614078Y-9530688D02*
X14614524Y-9538128D01*
X14614524Y-9538128D02*
X14613304Y-9542681D01*
X14613304Y-9542681D02*
X14609198Y-9548901D01*
X14609198Y-9548901D02*
X14586104Y-9562235D01*
X14695146Y-9537769D02*
X14660505Y-9557769D01*
X14677826Y-9547769D02*
X14642826Y-9487147D01*
X14642826Y-9487147D02*
X14642052Y-9499141D01*
X14642052Y-9499141D02*
X14639612Y-9508248D01*
X14639612Y-9508248D02*
X14635505Y-9514468D01*
X14697674Y-9455480D02*
X14703448Y-9452147D01*
X14703448Y-9452147D02*
X14710888Y-9451701D01*
X14710888Y-9451701D02*
X14715441Y-9452921D01*
X14715441Y-9452921D02*
X14721661Y-9457027D01*
X14721661Y-9457027D02*
X14731215Y-9466908D01*
X14731215Y-9466908D02*
X14739548Y-9481342D01*
X14739548Y-9481342D02*
X14743328Y-9494555D01*
X14743328Y-9494555D02*
X14743774Y-9501995D01*
X14743774Y-9501995D02*
X14742554Y-9506549D01*
X14742554Y-9506549D02*
X14738448Y-9512769D01*
X14738448Y-9512769D02*
X14732674Y-9516102D01*
X14732674Y-9516102D02*
X14725234Y-9516549D01*
X14725234Y-9516549D02*
X14720680Y-9515329D01*
X14720680Y-9515329D02*
X14714460Y-9511222D01*
X14714460Y-9511222D02*
X14704907Y-9501342D01*
X14704907Y-9501342D02*
X14696574Y-9486908D01*
X14696574Y-9486908D02*
X14692794Y-9473694D01*
X14692794Y-9473694D02*
X14692347Y-9466254D01*
X14692347Y-9466254D02*
X14693567Y-9461701D01*
X14693567Y-9461701D02*
X14697674Y-9455480D01*
X14810616Y-9471102D02*
X14775975Y-9491102D01*
X14793296Y-9481102D02*
X14758296Y-9420480D01*
X14758296Y-9420480D02*
X14757522Y-9432474D01*
X14757522Y-9432474D02*
X14755082Y-9441581D01*
X14755082Y-9441581D02*
X14750975Y-9447801D01*
X14541643Y-9300759D02*
X14507002Y-9320759D01*
X14524323Y-9310759D02*
X14489323Y-9250137D01*
X14489323Y-9250137D02*
X14488549Y-9262131D01*
X14488549Y-9262131D02*
X14486109Y-9271238D01*
X14486109Y-9271238D02*
X14482002Y-9277458D01*
X14567624Y-9285759D02*
X14532624Y-9225137D01*
X14602265Y-9265759D02*
X14556284Y-9246118D01*
X14567265Y-9205137D02*
X14552624Y-9259778D01*
D18*
X15046695Y-13269009D02*
X15046695Y-13189009D01*
X15046695Y-13189009D02*
X15065743Y-13189009D01*
X15065743Y-13189009D02*
X15077172Y-13192819D01*
X15077172Y-13192819D02*
X15084791Y-13200438D01*
X15084791Y-13200438D02*
X15088600Y-13208057D01*
X15088600Y-13208057D02*
X15092410Y-13223295D01*
X15092410Y-13223295D02*
X15092410Y-13234724D01*
X15092410Y-13234724D02*
X15088600Y-13249962D01*
X15088600Y-13249962D02*
X15084791Y-13257581D01*
X15084791Y-13257581D02*
X15077172Y-13265200D01*
X15077172Y-13265200D02*
X15065743Y-13269009D01*
X15065743Y-13269009D02*
X15046695Y-13269009D01*
X15168600Y-13269009D02*
X15122886Y-13269009D01*
X15145743Y-13269009D02*
X15145743Y-13189009D01*
X15145743Y-13189009D02*
X15138124Y-13200438D01*
X15138124Y-13200438D02*
X15130505Y-13208057D01*
X15130505Y-13208057D02*
X15122886Y-13211867D01*
D19*
X14293835Y-13459733D02*
X14293835Y-13506542D01*
X14293835Y-13506542D02*
X14290714Y-13515904D01*
X14290714Y-13515904D02*
X14284473Y-13522145D01*
X14284473Y-13522145D02*
X14275111Y-13525265D01*
X14275111Y-13525265D02*
X14268870Y-13525265D01*
X14325040Y-13525265D02*
X14325040Y-13459733D01*
X14325040Y-13459733D02*
X14350005Y-13459733D01*
X14350005Y-13459733D02*
X14356246Y-13462854D01*
X14356246Y-13462854D02*
X14359367Y-13465974D01*
X14359367Y-13465974D02*
X14362487Y-13472216D01*
X14362487Y-13472216D02*
X14362487Y-13481577D01*
X14362487Y-13481577D02*
X14359367Y-13487818D01*
X14359367Y-13487818D02*
X14356246Y-13490939D01*
X14356246Y-13490939D02*
X14350005Y-13494060D01*
X14350005Y-13494060D02*
X14325040Y-13494060D01*
X14387452Y-13465974D02*
X14390572Y-13462854D01*
X14390572Y-13462854D02*
X14396813Y-13459733D01*
X14396813Y-13459733D02*
X14412416Y-13459733D01*
X14412416Y-13459733D02*
X14418657Y-13462854D01*
X14418657Y-13462854D02*
X14421778Y-13465974D01*
X14421778Y-13465974D02*
X14424899Y-13472216D01*
X14424899Y-13472216D02*
X14424899Y-13478457D01*
X14424899Y-13478457D02*
X14421778Y-13487818D01*
X14421778Y-13487818D02*
X14384331Y-13525265D01*
X14384331Y-13525265D02*
X14424899Y-13525265D01*
X14373621Y-12386625D02*
X14373621Y-12321093D01*
X14442274Y-12380384D02*
X14439153Y-12383505D01*
X14439153Y-12383505D02*
X14429791Y-12386625D01*
X14429791Y-12386625D02*
X14423550Y-12386625D01*
X14423550Y-12386625D02*
X14414189Y-12383505D01*
X14414189Y-12383505D02*
X14407947Y-12377264D01*
X14407947Y-12377264D02*
X14404827Y-12371022D01*
X14404827Y-12371022D02*
X14401706Y-12358540D01*
X14401706Y-12358540D02*
X14401706Y-12349178D01*
X14401706Y-12349178D02*
X14404827Y-12336696D01*
X14404827Y-12336696D02*
X14407947Y-12330455D01*
X14407947Y-12330455D02*
X14414189Y-12324214D01*
X14414189Y-12324214D02*
X14423550Y-12321093D01*
X14423550Y-12321093D02*
X14429791Y-12321093D01*
X14429791Y-12321093D02*
X14439153Y-12324214D01*
X14439153Y-12324214D02*
X14442274Y-12327334D01*
X14504685Y-12386625D02*
X14467238Y-12386625D01*
X14485962Y-12386625D02*
X14485962Y-12321093D01*
X14485962Y-12321093D02*
X14479721Y-12330455D01*
X14479721Y-12330455D02*
X14473479Y-12336696D01*
X14473479Y-12336696D02*
X14467238Y-12339817D01*
D17*
X14268740Y-11987092D02*
X14294745Y-11987092D01*
X14263539Y-12002694D02*
X14281743Y-11948084D01*
X14281743Y-11948084D02*
X14299946Y-12002694D01*
X14318149Y-12002694D02*
X14318149Y-11948084D01*
X14318149Y-11948084D02*
X14336353Y-11987092D01*
X14336353Y-11987092D02*
X14354556Y-11948084D01*
X14354556Y-11948084D02*
X14354556Y-12002694D01*
X14377960Y-12000094D02*
X14385762Y-12002694D01*
X14385762Y-12002694D02*
X14398764Y-12002694D01*
X14398764Y-12002694D02*
X14403965Y-12000094D01*
X14403965Y-12000094D02*
X14406566Y-11997493D01*
X14406566Y-11997493D02*
X14409166Y-11992292D01*
X14409166Y-11992292D02*
X14409166Y-11987092D01*
X14409166Y-11987092D02*
X14406566Y-11981891D01*
X14406566Y-11981891D02*
X14403965Y-11979290D01*
X14403965Y-11979290D02*
X14398764Y-11976690D01*
X14398764Y-11976690D02*
X14388362Y-11974089D01*
X14388362Y-11974089D02*
X14383161Y-11971489D01*
X14383161Y-11971489D02*
X14380561Y-11968888D01*
X14380561Y-11968888D02*
X14377960Y-11963687D01*
X14377960Y-11963687D02*
X14377960Y-11958486D01*
X14377960Y-11958486D02*
X14380561Y-11953285D01*
X14380561Y-11953285D02*
X14383161Y-11950685D01*
X14383161Y-11950685D02*
X14388362Y-11948084D01*
X14388362Y-11948084D02*
X14401365Y-11948084D01*
X14401365Y-11948084D02*
X14409166Y-11950685D01*
X14461176Y-12002694D02*
X14429970Y-12002694D01*
X14445573Y-12002694D02*
X14445573Y-11948084D01*
X14445573Y-11948084D02*
X14440372Y-11955886D01*
X14440372Y-11955886D02*
X14435171Y-11961087D01*
X14435171Y-11961087D02*
X14429970Y-11963687D01*
X14513185Y-12002694D02*
X14481979Y-12002694D01*
X14497582Y-12002694D02*
X14497582Y-11948084D01*
X14497582Y-11948084D02*
X14492381Y-11955886D01*
X14492381Y-11955886D02*
X14487180Y-11961087D01*
X14487180Y-11961087D02*
X14481979Y-11963687D01*
X14565195Y-12002694D02*
X14533989Y-12002694D01*
X14549592Y-12002694D02*
X14549592Y-11948084D01*
X14549592Y-11948084D02*
X14544391Y-11955886D01*
X14544391Y-11955886D02*
X14539190Y-11961087D01*
X14539190Y-11961087D02*
X14533989Y-11963687D01*
X14583398Y-11948084D02*
X14619805Y-11948084D01*
X14619805Y-11948084D02*
X14596400Y-12002694D01*
X14640608Y-11981891D02*
X14682216Y-11981891D01*
X14734226Y-11948084D02*
X14708221Y-11948084D01*
X14708221Y-11948084D02*
X14705620Y-11974089D01*
X14705620Y-11974089D02*
X14708221Y-11971489D01*
X14708221Y-11971489D02*
X14713422Y-11968888D01*
X14713422Y-11968888D02*
X14726424Y-11968888D01*
X14726424Y-11968888D02*
X14731625Y-11971489D01*
X14731625Y-11971489D02*
X14734226Y-11974089D01*
X14734226Y-11974089D02*
X14736826Y-11979290D01*
X14736826Y-11979290D02*
X14736826Y-11992292D01*
X14736826Y-11992292D02*
X14734226Y-11997493D01*
X14734226Y-11997493D02*
X14731625Y-12000094D01*
X14731625Y-12000094D02*
X14726424Y-12002694D01*
X14726424Y-12002694D02*
X14713422Y-12002694D01*
X14713422Y-12002694D02*
X14708221Y-12000094D01*
X14708221Y-12000094D02*
X14705620Y-11997493D01*
X14752429Y-11948084D02*
X14770632Y-12002694D01*
X14770632Y-12002694D02*
X14788836Y-11948084D01*
D16*
X14620696Y-14087517D02*
X14596566Y-14053045D01*
X14579330Y-14087517D02*
X14579330Y-14015127D01*
X14579330Y-14015127D02*
X14606907Y-14015127D01*
X14606907Y-14015127D02*
X14613802Y-14018574D01*
X14613802Y-14018574D02*
X14617249Y-14022021D01*
X14617249Y-14022021D02*
X14620696Y-14028915D01*
X14620696Y-14028915D02*
X14620696Y-14039257D01*
X14620696Y-14039257D02*
X14617249Y-14046151D01*
X14617249Y-14046151D02*
X14613802Y-14049598D01*
X14613802Y-14049598D02*
X14606907Y-14053045D01*
X14606907Y-14053045D02*
X14579330Y-14053045D01*
X14689639Y-14087517D02*
X14648273Y-14087517D01*
X14668956Y-14087517D02*
X14668956Y-14015127D01*
X14668956Y-14015127D02*
X14662062Y-14025468D01*
X14662062Y-14025468D02*
X14655167Y-14032362D01*
X14655167Y-14032362D02*
X14648273Y-14035810D01*
X14296028Y-14176876D02*
X14299361Y-14173543D01*
X14299361Y-14173543D02*
X14306028Y-14170209D01*
X14306028Y-14170209D02*
X14322695Y-14170209D01*
X14322695Y-14170209D02*
X14329361Y-14173543D01*
X14329361Y-14173543D02*
X14332695Y-14176876D01*
X14332695Y-14176876D02*
X14336028Y-14183543D01*
X14336028Y-14183543D02*
X14336028Y-14190209D01*
X14336028Y-14190209D02*
X14332695Y-14200209D01*
X14332695Y-14200209D02*
X14292695Y-14240209D01*
X14292695Y-14240209D02*
X14336028Y-14240209D01*
X14362695Y-14176876D02*
X14366028Y-14173543D01*
X14366028Y-14173543D02*
X14372695Y-14170209D01*
X14372695Y-14170209D02*
X14389361Y-14170209D01*
X14389361Y-14170209D02*
X14396028Y-14173543D01*
X14396028Y-14173543D02*
X14399361Y-14176876D01*
X14399361Y-14176876D02*
X14402695Y-14183543D01*
X14402695Y-14183543D02*
X14402695Y-14190209D01*
X14402695Y-14190209D02*
X14399361Y-14200209D01*
X14399361Y-14200209D02*
X14359361Y-14240209D01*
X14359361Y-14240209D02*
X14402695Y-14240209D01*
X14432695Y-14240209D02*
X14432695Y-14170209D01*
X14472695Y-14240209D02*
X14442695Y-14200209D01*
X14472695Y-14170209D02*
X14432695Y-14210209D01*
D19*
X13186689Y-13460575D02*
X13186689Y-13498022D01*
X13186689Y-13479299D02*
X13121157Y-13479299D01*
X13121157Y-13479299D02*
X13130518Y-13485540D01*
X13130518Y-13485540D02*
X13136760Y-13491781D01*
X13136760Y-13491781D02*
X13139880Y-13498022D01*
D16*
X13170968Y-8714371D02*
X13137634Y-8737705D01*
X13170968Y-8754371D02*
X13100968Y-8754371D01*
X13100968Y-8754371D02*
X13100968Y-8727705D01*
X13100968Y-8727705D02*
X13104301Y-8721038D01*
X13104301Y-8721038D02*
X13107634Y-8717705D01*
X13107634Y-8717705D02*
X13114301Y-8714371D01*
X13114301Y-8714371D02*
X13124301Y-8714371D01*
X13124301Y-8714371D02*
X13130968Y-8717705D01*
X13130968Y-8717705D02*
X13134301Y-8721038D01*
X13134301Y-8721038D02*
X13137634Y-8727705D01*
X13137634Y-8727705D02*
X13137634Y-8754371D01*
X13170968Y-8647705D02*
X13170968Y-8687705D01*
X13170968Y-8667705D02*
X13100968Y-8667705D01*
X13100968Y-8667705D02*
X13110968Y-8674371D01*
X13110968Y-8674371D02*
X13117634Y-8681038D01*
X13117634Y-8681038D02*
X13120968Y-8687705D01*
X13100968Y-8604371D02*
X13100968Y-8597705D01*
X13100968Y-8597705D02*
X13104301Y-8591038D01*
X13104301Y-8591038D02*
X13107634Y-8587705D01*
X13107634Y-8587705D02*
X13114301Y-8584371D01*
X13114301Y-8584371D02*
X13127634Y-8581038D01*
X13127634Y-8581038D02*
X13144301Y-8581038D01*
X13144301Y-8581038D02*
X13157634Y-8584371D01*
X13157634Y-8584371D02*
X13164301Y-8587705D01*
X13164301Y-8587705D02*
X13167634Y-8591038D01*
X13167634Y-8591038D02*
X13170968Y-8597705D01*
X13170968Y-8597705D02*
X13170968Y-8604371D01*
X13170968Y-8604371D02*
X13167634Y-8611038D01*
X13167634Y-8611038D02*
X13164301Y-8614371D01*
X13164301Y-8614371D02*
X13157634Y-8617705D01*
X13157634Y-8617705D02*
X13144301Y-8621038D01*
X13144301Y-8621038D02*
X13127634Y-8621038D01*
X13127634Y-8621038D02*
X13114301Y-8617705D01*
X13114301Y-8617705D02*
X13107634Y-8614371D01*
X13107634Y-8614371D02*
X13104301Y-8611038D01*
X13104301Y-8611038D02*
X13100968Y-8604371D01*
X13100968Y-8521038D02*
X13100968Y-8534371D01*
X13100968Y-8534371D02*
X13104301Y-8541038D01*
X13104301Y-8541038D02*
X13107634Y-8544371D01*
X13107634Y-8544371D02*
X13117634Y-8551038D01*
X13117634Y-8551038D02*
X13130968Y-8554371D01*
X13130968Y-8554371D02*
X13157634Y-8554371D01*
X13157634Y-8554371D02*
X13164301Y-8551038D01*
X13164301Y-8551038D02*
X13167634Y-8547705D01*
X13167634Y-8547705D02*
X13170968Y-8541038D01*
X13170968Y-8541038D02*
X13170968Y-8527705D01*
X13170968Y-8527705D02*
X13167634Y-8521038D01*
X13167634Y-8521038D02*
X13164301Y-8517705D01*
X13164301Y-8517705D02*
X13157634Y-8514371D01*
X13157634Y-8514371D02*
X13140968Y-8514371D01*
X13140968Y-8514371D02*
X13134301Y-8517705D01*
X13134301Y-8517705D02*
X13130968Y-8521038D01*
X13130968Y-8521038D02*
X13127634Y-8527705D01*
X13127634Y-8527705D02*
X13127634Y-8541038D01*
X13127634Y-8541038D02*
X13130968Y-8547705D01*
X13130968Y-8547705D02*
X13134301Y-8551038D01*
X13134301Y-8551038D02*
X13140968Y-8554371D01*
X13489418Y-8630352D02*
X13489418Y-8670352D01*
X13489418Y-8650352D02*
X13419418Y-8650352D01*
X13419418Y-8650352D02*
X13429418Y-8657019D01*
X13429418Y-8657019D02*
X13436085Y-8663685D01*
X13436085Y-8663685D02*
X13439418Y-8670352D01*
X13489418Y-8600352D02*
X13419418Y-8600352D01*
X13489418Y-8560352D02*
X13449418Y-8590352D01*
X13419418Y-8560352D02*
X13459418Y-8600352D01*
D19*
X13608035Y-14852373D02*
X13608035Y-14899182D01*
X13608035Y-14899182D02*
X13604914Y-14908544D01*
X13604914Y-14908544D02*
X13598673Y-14914785D01*
X13598673Y-14914785D02*
X13589311Y-14917905D01*
X13589311Y-14917905D02*
X13583070Y-14917905D01*
X13639240Y-14917905D02*
X13639240Y-14852373D01*
X13639240Y-14852373D02*
X13664205Y-14852373D01*
X13664205Y-14852373D02*
X13670446Y-14855494D01*
X13670446Y-14855494D02*
X13673567Y-14858614D01*
X13673567Y-14858614D02*
X13676687Y-14864856D01*
X13676687Y-14864856D02*
X13676687Y-14874217D01*
X13676687Y-14874217D02*
X13673567Y-14880458D01*
X13673567Y-14880458D02*
X13670446Y-14883579D01*
X13670446Y-14883579D02*
X13664205Y-14886700D01*
X13664205Y-14886700D02*
X13639240Y-14886700D01*
X13739099Y-14917905D02*
X13701652Y-14917905D01*
X13720375Y-14917905D02*
X13720375Y-14852373D01*
X13720375Y-14852373D02*
X13714134Y-14861735D01*
X13714134Y-14861735D02*
X13707893Y-14867976D01*
X13707893Y-14867976D02*
X13701652Y-14871097D01*
D16*
X13574574Y-12614317D02*
X13550444Y-12579845D01*
X13533208Y-12614317D02*
X13533208Y-12541927D01*
X13533208Y-12541927D02*
X13560785Y-12541927D01*
X13560785Y-12541927D02*
X13567679Y-12545374D01*
X13567679Y-12545374D02*
X13571127Y-12548821D01*
X13571127Y-12548821D02*
X13574574Y-12555715D01*
X13574574Y-12555715D02*
X13574574Y-12566057D01*
X13574574Y-12566057D02*
X13571127Y-12572951D01*
X13571127Y-12572951D02*
X13567679Y-12576398D01*
X13567679Y-12576398D02*
X13560785Y-12579845D01*
X13560785Y-12579845D02*
X13533208Y-12579845D01*
X13602151Y-12548821D02*
X13605598Y-12545374D01*
X13605598Y-12545374D02*
X13612492Y-12541927D01*
X13612492Y-12541927D02*
X13629728Y-12541927D01*
X13629728Y-12541927D02*
X13636622Y-12545374D01*
X13636622Y-12545374D02*
X13640069Y-12548821D01*
X13640069Y-12548821D02*
X13643517Y-12555715D01*
X13643517Y-12555715D02*
X13643517Y-12562610D01*
X13643517Y-12562610D02*
X13640069Y-12572951D01*
X13640069Y-12572951D02*
X13598704Y-12614317D01*
X13598704Y-12614317D02*
X13643517Y-12614317D01*
X13561808Y-13076410D02*
X13521808Y-13076410D01*
X13541808Y-13076410D02*
X13541808Y-13006410D01*
X13541808Y-13006410D02*
X13535142Y-13016410D01*
X13535142Y-13016410D02*
X13528475Y-13023077D01*
X13528475Y-13023077D02*
X13521808Y-13026410D01*
X13591808Y-13076410D02*
X13591808Y-13006410D01*
X13631808Y-13076410D02*
X13601808Y-13036410D01*
X13631808Y-13006410D02*
X13591808Y-13046410D01*
D10*
X15557100Y-14419324D02*
X15557100Y-14371705D01*
X15585672Y-14428848D02*
X15485672Y-14395514D01*
X15485672Y-14395514D02*
X15585672Y-14362181D01*
X15585672Y-14271705D02*
X15538053Y-14305038D01*
X15585672Y-14328848D02*
X15485672Y-14328848D01*
X15485672Y-14328848D02*
X15485672Y-14290752D01*
X15485672Y-14290752D02*
X15490434Y-14281229D01*
X15490434Y-14281229D02*
X15495196Y-14276467D01*
X15495196Y-14276467D02*
X15504719Y-14271705D01*
X15504719Y-14271705D02*
X15519005Y-14271705D01*
X15519005Y-14271705D02*
X15528529Y-14276467D01*
X15528529Y-14276467D02*
X15533291Y-14281229D01*
X15533291Y-14281229D02*
X15538053Y-14290752D01*
X15538053Y-14290752D02*
X15538053Y-14328848D01*
X15585672Y-14228848D02*
X15485672Y-14228848D01*
X15485672Y-14228848D02*
X15485672Y-14205038D01*
X15485672Y-14205038D02*
X15490434Y-14190752D01*
X15490434Y-14190752D02*
X15499958Y-14181229D01*
X15499958Y-14181229D02*
X15509481Y-14176467D01*
X15509481Y-14176467D02*
X15528529Y-14171705D01*
X15528529Y-14171705D02*
X15542815Y-14171705D01*
X15542815Y-14171705D02*
X15561862Y-14176467D01*
X15561862Y-14176467D02*
X15571386Y-14181229D01*
X15571386Y-14181229D02*
X15580910Y-14190752D01*
X15580910Y-14190752D02*
X15585672Y-14205038D01*
X15585672Y-14205038D02*
X15585672Y-14228848D01*
X15585672Y-14076467D02*
X15585672Y-14133610D01*
X15585672Y-14105038D02*
X15485672Y-14105038D01*
X15485672Y-14105038D02*
X15499958Y-14114562D01*
X15499958Y-14114562D02*
X15509481Y-14124086D01*
X15509481Y-14124086D02*
X15514243Y-14133610D01*
D16*
X14601820Y-7741547D02*
X14598279Y-7701013D01*
X14567179Y-7721547D02*
X14602179Y-7660925D01*
X14602179Y-7660925D02*
X14625273Y-7674259D01*
X14625273Y-7674259D02*
X14629380Y-7680479D01*
X14629380Y-7680479D02*
X14630600Y-7685032D01*
X14630600Y-7685032D02*
X14630153Y-7692472D01*
X14630153Y-7692472D02*
X14625153Y-7701133D01*
X14625153Y-7701133D02*
X14618933Y-7705239D01*
X14618933Y-7705239D02*
X14614380Y-7706460D01*
X14614380Y-7706460D02*
X14606939Y-7706013D01*
X14606939Y-7706013D02*
X14583845Y-7692680D01*
X14659555Y-7774880D02*
X14624914Y-7754880D01*
X14642234Y-7764880D02*
X14677234Y-7704259D01*
X14677234Y-7704259D02*
X14666461Y-7709586D01*
X14666461Y-7709586D02*
X14657354Y-7712026D01*
X14657354Y-7712026D02*
X14649914Y-7711579D01*
X14732083Y-7735925D02*
X14737856Y-7739259D01*
X14737856Y-7739259D02*
X14741963Y-7745479D01*
X14741963Y-7745479D02*
X14743183Y-7750032D01*
X14743183Y-7750032D02*
X14742736Y-7757472D01*
X14742736Y-7757472D02*
X14738957Y-7770686D01*
X14738957Y-7770686D02*
X14730623Y-7785120D01*
X14730623Y-7785120D02*
X14721070Y-7795000D01*
X14721070Y-7795000D02*
X14714850Y-7799107D01*
X14714850Y-7799107D02*
X14710296Y-7800327D01*
X14710296Y-7800327D02*
X14702856Y-7799880D01*
X14702856Y-7799880D02*
X14697083Y-7796547D01*
X14697083Y-7796547D02*
X14692976Y-7790327D01*
X14692976Y-7790327D02*
X14691756Y-7785774D01*
X14691756Y-7785774D02*
X14692202Y-7778333D01*
X14692202Y-7778333D02*
X14695982Y-7765120D01*
X14695982Y-7765120D02*
X14704316Y-7750686D01*
X14704316Y-7750686D02*
X14713869Y-7740806D01*
X14713869Y-7740806D02*
X14720089Y-7736699D01*
X14720089Y-7736699D02*
X14724642Y-7735479D01*
X14724642Y-7735479D02*
X14732083Y-7735925D01*
X14746157Y-7824880D02*
X14757704Y-7831547D01*
X14757704Y-7831547D02*
X14765145Y-7831994D01*
X14765145Y-7831994D02*
X14769698Y-7830774D01*
X14769698Y-7830774D02*
X14780472Y-7825447D01*
X14780472Y-7825447D02*
X14790025Y-7815566D01*
X14790025Y-7815566D02*
X14803358Y-7792472D01*
X14803358Y-7792472D02*
X14803805Y-7785032D01*
X14803805Y-7785032D02*
X14802585Y-7780479D01*
X14802585Y-7780479D02*
X14798478Y-7774259D01*
X14798478Y-7774259D02*
X14786931Y-7767592D01*
X14786931Y-7767592D02*
X14779491Y-7767145D01*
X14779491Y-7767145D02*
X14774937Y-7768366D01*
X14774937Y-7768366D02*
X14768717Y-7772472D01*
X14768717Y-7772472D02*
X14760384Y-7786906D01*
X14760384Y-7786906D02*
X14759937Y-7794346D01*
X14759937Y-7794346D02*
X14761157Y-7798900D01*
X14761157Y-7798900D02*
X14765264Y-7805120D01*
X14765264Y-7805120D02*
X14776811Y-7811786D01*
X14776811Y-7811786D02*
X14784251Y-7812233D01*
X14784251Y-7812233D02*
X14788805Y-7811013D01*
X14788805Y-7811013D02*
X14795025Y-7806906D01*
X14527614Y-8023500D02*
X14492973Y-8003500D01*
X14510293Y-8013500D02*
X14545293Y-7952879D01*
X14545293Y-7952879D02*
X14534520Y-7958206D01*
X14534520Y-7958206D02*
X14525413Y-7960646D01*
X14525413Y-7960646D02*
X14517973Y-7960199D01*
X14553594Y-8038500D02*
X14588594Y-7977879D01*
X14588235Y-8058500D02*
X14582255Y-8008859D01*
X14623235Y-7997879D02*
X14568594Y-8012520D01*
X14994543Y-8083675D02*
X15011744Y-8046802D01*
X14974543Y-8049034D02*
X15035165Y-8014034D01*
X15035165Y-8014034D02*
X15048498Y-8037128D01*
X15048498Y-8037128D02*
X15048945Y-8044569D01*
X15048945Y-8044569D02*
X15047725Y-8049122D01*
X15047725Y-8049122D02*
X15043618Y-8055342D01*
X15043618Y-8055342D02*
X15034958Y-8060342D01*
X15034958Y-8060342D02*
X15027517Y-8060789D01*
X15027517Y-8060789D02*
X15022964Y-8059569D01*
X15022964Y-8059569D02*
X15016744Y-8055462D01*
X15016744Y-8055462D02*
X15003411Y-8032368D01*
X15027876Y-8141410D02*
X15007876Y-8106769D01*
X15017876Y-8124090D02*
X15078498Y-8089090D01*
X15078498Y-8089090D02*
X15066505Y-8088316D01*
X15066505Y-8088316D02*
X15057398Y-8085876D01*
X15057398Y-8085876D02*
X15051178Y-8081769D01*
X15110165Y-8143938D02*
X15113498Y-8149712D01*
X15113498Y-8149712D02*
X15113945Y-8157152D01*
X15113945Y-8157152D02*
X15112725Y-8161705D01*
X15112725Y-8161705D02*
X15108618Y-8167925D01*
X15108618Y-8167925D02*
X15098738Y-8177479D01*
X15098738Y-8177479D02*
X15084304Y-8185812D01*
X15084304Y-8185812D02*
X15071090Y-8189592D01*
X15071090Y-8189592D02*
X15063650Y-8190039D01*
X15063650Y-8190039D02*
X15059097Y-8188819D01*
X15059097Y-8188819D02*
X15052876Y-8184712D01*
X15052876Y-8184712D02*
X15049543Y-8178938D01*
X15049543Y-8178938D02*
X15049097Y-8171498D01*
X15049097Y-8171498D02*
X15050317Y-8166945D01*
X15050317Y-8166945D02*
X15054423Y-8160725D01*
X15054423Y-8160725D02*
X15064304Y-8151171D01*
X15064304Y-8151171D02*
X15078738Y-8142838D01*
X15078738Y-8142838D02*
X15091951Y-8139058D01*
X15091951Y-8139058D02*
X15099391Y-8138611D01*
X15099391Y-8138611D02*
X15103945Y-8139831D01*
X15103945Y-8139831D02*
X15110165Y-8143938D01*
X15133498Y-8184353D02*
X15156832Y-8224767D01*
X15156832Y-8224767D02*
X15081210Y-8233787D01*
X14767307Y-8284796D02*
X14747307Y-8250155D01*
X14757307Y-8267475D02*
X14817929Y-8232475D01*
X14817929Y-8232475D02*
X14805936Y-8231702D01*
X14805936Y-8231702D02*
X14796829Y-8229262D01*
X14796829Y-8229262D02*
X14790609Y-8225155D01*
X14782307Y-8310777D02*
X14842929Y-8275777D01*
X14802307Y-8345418D02*
X14821948Y-8299437D01*
X14862929Y-8310418D02*
X14808288Y-8295777D01*
X15097794Y-13752045D02*
X15073664Y-13717573D01*
X15056428Y-13752045D02*
X15056428Y-13679655D01*
X15056428Y-13679655D02*
X15084005Y-13679655D01*
X15084005Y-13679655D02*
X15090899Y-13683102D01*
X15090899Y-13683102D02*
X15094346Y-13686549D01*
X15094346Y-13686549D02*
X15097794Y-13693443D01*
X15097794Y-13693443D02*
X15097794Y-13703785D01*
X15097794Y-13703785D02*
X15094346Y-13710679D01*
X15094346Y-13710679D02*
X15090899Y-13714126D01*
X15090899Y-13714126D02*
X15084005Y-13717573D01*
X15084005Y-13717573D02*
X15056428Y-13717573D01*
X15139159Y-13710679D02*
X15132265Y-13707232D01*
X15132265Y-13707232D02*
X15128818Y-13703785D01*
X15128818Y-13703785D02*
X15125371Y-13696890D01*
X15125371Y-13696890D02*
X15125371Y-13693443D01*
X15125371Y-13693443D02*
X15128818Y-13686549D01*
X15128818Y-13686549D02*
X15132265Y-13683102D01*
X15132265Y-13683102D02*
X15139159Y-13679655D01*
X15139159Y-13679655D02*
X15152948Y-13679655D01*
X15152948Y-13679655D02*
X15159842Y-13683102D01*
X15159842Y-13683102D02*
X15163289Y-13686549D01*
X15163289Y-13686549D02*
X15166736Y-13693443D01*
X15166736Y-13693443D02*
X15166736Y-13696890D01*
X15166736Y-13696890D02*
X15163289Y-13703785D01*
X15163289Y-13703785D02*
X15159842Y-13707232D01*
X15159842Y-13707232D02*
X15152948Y-13710679D01*
X15152948Y-13710679D02*
X15139159Y-13710679D01*
X15139159Y-13710679D02*
X15132265Y-13714126D01*
X15132265Y-13714126D02*
X15128818Y-13717573D01*
X15128818Y-13717573D02*
X15125371Y-13724467D01*
X15125371Y-13724467D02*
X15125371Y-13738256D01*
X15125371Y-13738256D02*
X15128818Y-13745150D01*
X15128818Y-13745150D02*
X15132265Y-13748597D01*
X15132265Y-13748597D02*
X15139159Y-13752045D01*
X15139159Y-13752045D02*
X15152948Y-13752045D01*
X15152948Y-13752045D02*
X15159842Y-13748597D01*
X15159842Y-13748597D02*
X15163289Y-13745150D01*
X15163289Y-13745150D02*
X15166736Y-13738256D01*
X15166736Y-13738256D02*
X15166736Y-13724467D01*
X15166736Y-13724467D02*
X15163289Y-13717573D01*
X15163289Y-13717573D02*
X15159842Y-13714126D01*
X15159842Y-13714126D02*
X15152948Y-13710679D01*
X14786561Y-13863343D02*
X14786561Y-13910009D01*
X14769895Y-13836676D02*
X14753228Y-13886676D01*
X14753228Y-13886676D02*
X14796561Y-13886676D01*
X14823228Y-13903343D02*
X14826561Y-13906676D01*
X14826561Y-13906676D02*
X14823228Y-13910009D01*
X14823228Y-13910009D02*
X14819895Y-13906676D01*
X14819895Y-13906676D02*
X14823228Y-13903343D01*
X14823228Y-13903343D02*
X14823228Y-13910009D01*
X14849895Y-13840009D02*
X14896561Y-13840009D01*
X14896561Y-13840009D02*
X14866561Y-13910009D01*
X14923228Y-13910009D02*
X14923228Y-13840009D01*
X14963228Y-13910009D02*
X14933228Y-13870009D01*
X14963228Y-13840009D02*
X14923228Y-13880009D01*
D19*
X13117824Y-13742939D02*
X13114704Y-13739819D01*
X13114704Y-13739819D02*
X13111583Y-13733578D01*
X13111583Y-13733578D02*
X13111583Y-13717975D01*
X13111583Y-13717975D02*
X13114704Y-13711734D01*
X13114704Y-13711734D02*
X13117824Y-13708613D01*
X13117824Y-13708613D02*
X13124066Y-13705492D01*
X13124066Y-13705492D02*
X13130307Y-13705492D01*
X13130307Y-13705492D02*
X13139668Y-13708613D01*
X13139668Y-13708613D02*
X13177115Y-13746060D01*
X13177115Y-13746060D02*
X13177115Y-13705492D01*
D16*
X13217081Y-9090096D02*
X13234282Y-9053222D01*
X13197081Y-9055455D02*
X13257703Y-9020455D01*
X13257703Y-9020455D02*
X13271036Y-9043549D01*
X13271036Y-9043549D02*
X13271483Y-9050989D01*
X13271483Y-9050989D02*
X13270263Y-9055542D01*
X13270263Y-9055542D02*
X13266156Y-9061763D01*
X13266156Y-9061763D02*
X13257496Y-9066763D01*
X13257496Y-9066763D02*
X13250056Y-9067209D01*
X13250056Y-9067209D02*
X13245502Y-9065989D01*
X13245502Y-9065989D02*
X13239282Y-9061882D01*
X13239282Y-9061882D02*
X13225949Y-9038788D01*
X13250415Y-9147831D02*
X13230415Y-9113190D01*
X13240415Y-9130510D02*
X13301036Y-9095510D01*
X13301036Y-9095510D02*
X13289043Y-9094737D01*
X13289043Y-9094737D02*
X13279936Y-9092297D01*
X13279936Y-9092297D02*
X13273716Y-9088190D01*
X13332703Y-9150359D02*
X13336036Y-9156132D01*
X13336036Y-9156132D02*
X13336483Y-9163572D01*
X13336483Y-9163572D02*
X13335263Y-9168126D01*
X13335263Y-9168126D02*
X13331156Y-9174346D01*
X13331156Y-9174346D02*
X13321276Y-9183899D01*
X13321276Y-9183899D02*
X13306842Y-9192233D01*
X13306842Y-9192233D02*
X13293628Y-9196013D01*
X13293628Y-9196013D02*
X13286188Y-9196459D01*
X13286188Y-9196459D02*
X13281635Y-9195239D01*
X13281635Y-9195239D02*
X13275415Y-9191132D01*
X13275415Y-9191132D02*
X13272081Y-9185359D01*
X13272081Y-9185359D02*
X13271635Y-9177919D01*
X13271635Y-9177919D02*
X13272855Y-9173365D01*
X13272855Y-9173365D02*
X13276962Y-9167145D01*
X13276962Y-9167145D02*
X13286842Y-9157592D01*
X13286842Y-9157592D02*
X13301276Y-9149258D01*
X13301276Y-9149258D02*
X13314489Y-9145478D01*
X13314489Y-9145478D02*
X13321930Y-9145032D01*
X13321930Y-9145032D02*
X13326483Y-9146252D01*
X13326483Y-9146252D02*
X13332703Y-9150359D01*
X13354162Y-9234194D02*
X13313748Y-9257527D01*
X13368923Y-9206427D02*
X13317289Y-9216993D01*
X13317289Y-9216993D02*
X13338955Y-9254521D01*
X13513962Y-8975530D02*
X13493962Y-8940889D01*
X13503962Y-8958210D02*
X13564584Y-8923210D01*
X13564584Y-8923210D02*
X13552590Y-8922436D01*
X13552590Y-8922436D02*
X13543483Y-8919996D01*
X13543483Y-8919996D02*
X13537263Y-8915889D01*
X13528962Y-9001511D02*
X13589584Y-8966511D01*
X13548962Y-9036152D02*
X13568603Y-8990171D01*
X13609584Y-9001152D02*
X13554943Y-8986511D01*
X15155592Y-12226554D02*
X15159040Y-12230001D01*
X15159040Y-12230001D02*
X15162487Y-12240342D01*
X15162487Y-12240342D02*
X15162487Y-12247237D01*
X15162487Y-12247237D02*
X15159040Y-12257578D01*
X15159040Y-12257578D02*
X15152145Y-12264472D01*
X15152145Y-12264472D02*
X15145251Y-12267919D01*
X15145251Y-12267919D02*
X15131462Y-12271367D01*
X15131462Y-12271367D02*
X15121121Y-12271367D01*
X15121121Y-12271367D02*
X15107332Y-12267919D01*
X15107332Y-12267919D02*
X15100438Y-12264472D01*
X15100438Y-12264472D02*
X15093544Y-12257578D01*
X15093544Y-12257578D02*
X15090097Y-12247237D01*
X15090097Y-12247237D02*
X15090097Y-12240342D01*
X15090097Y-12240342D02*
X15093544Y-12230001D01*
X15093544Y-12230001D02*
X15096991Y-12226554D01*
X15096991Y-12198977D02*
X15093544Y-12195529D01*
X15093544Y-12195529D02*
X15090097Y-12188635D01*
X15090097Y-12188635D02*
X15090097Y-12171399D01*
X15090097Y-12171399D02*
X15093544Y-12164505D01*
X15093544Y-12164505D02*
X15096991Y-12161058D01*
X15096991Y-12161058D02*
X15103885Y-12157611D01*
X15103885Y-12157611D02*
X15110780Y-12157611D01*
X15110780Y-12157611D02*
X15121121Y-12161058D01*
X15121121Y-12161058D02*
X15162487Y-12202424D01*
X15162487Y-12202424D02*
X15162487Y-12157611D01*
X15046627Y-9222433D02*
X15006093Y-9225974D01*
X15026627Y-9257074D02*
X14966005Y-9222074D01*
X14966005Y-9222074D02*
X14979338Y-9198980D01*
X14979338Y-9198980D02*
X14985558Y-9194873D01*
X14985558Y-9194873D02*
X14990112Y-9193653D01*
X14990112Y-9193653D02*
X14997552Y-9194100D01*
X14997552Y-9194100D02*
X15006212Y-9199100D01*
X15006212Y-9199100D02*
X15010319Y-9205320D01*
X15010319Y-9205320D02*
X15011539Y-9209873D01*
X15011539Y-9209873D02*
X15011093Y-9217314D01*
X15011093Y-9217314D02*
X14997759Y-9240408D01*
X15079960Y-9164698D02*
X15059960Y-9199339D01*
X15069960Y-9182019D02*
X15009338Y-9147019D01*
X15009338Y-9147019D02*
X15014665Y-9157792D01*
X15014665Y-9157792D02*
X15017105Y-9166899D01*
X15017105Y-9166899D02*
X15016659Y-9174339D01*
X15041005Y-9092170D02*
X15044338Y-9086397D01*
X15044338Y-9086397D02*
X15050558Y-9082290D01*
X15050558Y-9082290D02*
X15055112Y-9081070D01*
X15055112Y-9081070D02*
X15062552Y-9081517D01*
X15062552Y-9081517D02*
X15075766Y-9085297D01*
X15075766Y-9085297D02*
X15090200Y-9093630D01*
X15090200Y-9093630D02*
X15100080Y-9103183D01*
X15100080Y-9103183D02*
X15104187Y-9109403D01*
X15104187Y-9109403D02*
X15105407Y-9113957D01*
X15105407Y-9113957D02*
X15104960Y-9121397D01*
X15104960Y-9121397D02*
X15101627Y-9127170D01*
X15101627Y-9127170D02*
X15095407Y-9131277D01*
X15095407Y-9131277D02*
X15090853Y-9132497D01*
X15090853Y-9132497D02*
X15083413Y-9132051D01*
X15083413Y-9132051D02*
X15070200Y-9128271D01*
X15070200Y-9128271D02*
X15055766Y-9119938D01*
X15055766Y-9119938D02*
X15045885Y-9110384D01*
X15045885Y-9110384D02*
X15041779Y-9104164D01*
X15041779Y-9104164D02*
X15040558Y-9099611D01*
X15040558Y-9099611D02*
X15041005Y-9092170D01*
X15064338Y-9051756D02*
X15086005Y-9014228D01*
X15086005Y-9014228D02*
X15097432Y-9047769D01*
X15097432Y-9047769D02*
X15102432Y-9039108D01*
X15102432Y-9039108D02*
X15108653Y-9035002D01*
X15108653Y-9035002D02*
X15113206Y-9033782D01*
X15113206Y-9033782D02*
X15120646Y-9034228D01*
X15120646Y-9034228D02*
X15135080Y-9042561D01*
X15135080Y-9042561D02*
X15139187Y-9048782D01*
X15139187Y-9048782D02*
X15140407Y-9053335D01*
X15140407Y-9053335D02*
X15139960Y-9060775D01*
X15139960Y-9060775D02*
X15129960Y-9078096D01*
X15129960Y-9078096D02*
X15123740Y-9082202D01*
X15123740Y-9082202D02*
X15119187Y-9083423D01*
X14811098Y-9039557D02*
X14791098Y-9074198D01*
X14801098Y-9056878D02*
X14740476Y-9021878D01*
X14740476Y-9021878D02*
X14745803Y-9032651D01*
X14745803Y-9032651D02*
X14748243Y-9041758D01*
X14748243Y-9041758D02*
X14747797Y-9049198D01*
X14826098Y-9013576D02*
X14765476Y-8978576D01*
X14846098Y-8978935D02*
X14796457Y-8984916D01*
X14785476Y-8943935D02*
X14800117Y-8998576D01*
D19*
X13111583Y-14000060D02*
X13111583Y-13959492D01*
X13111583Y-13959492D02*
X13136548Y-13981336D01*
X13136548Y-13981336D02*
X13136548Y-13971975D01*
X13136548Y-13971975D02*
X13139668Y-13965734D01*
X13139668Y-13965734D02*
X13142789Y-13962613D01*
X13142789Y-13962613D02*
X13149030Y-13959492D01*
X13149030Y-13959492D02*
X13164633Y-13959492D01*
X13164633Y-13959492D02*
X13170874Y-13962613D01*
X13170874Y-13962613D02*
X13173995Y-13965734D01*
X13173995Y-13965734D02*
X13177115Y-13971975D01*
X13177115Y-13971975D02*
X13177115Y-13990698D01*
X13177115Y-13990698D02*
X13173995Y-13996939D01*
X13173995Y-13996939D02*
X13170874Y-14000060D01*
D10*
X12946381Y-12261248D02*
X12938762Y-12257439D01*
X12938762Y-12257439D02*
X12931143Y-12249820D01*
X12931143Y-12249820D02*
X12919714Y-12238391D01*
X12919714Y-12238391D02*
X12912095Y-12234582D01*
X12912095Y-12234582D02*
X12904476Y-12234582D01*
X12908286Y-12253629D02*
X12900667Y-12249820D01*
X12900667Y-12249820D02*
X12893048Y-12242201D01*
X12893048Y-12242201D02*
X12889238Y-12226963D01*
X12889238Y-12226963D02*
X12889238Y-12200296D01*
X12889238Y-12200296D02*
X12893048Y-12185058D01*
X12893048Y-12185058D02*
X12900667Y-12177439D01*
X12900667Y-12177439D02*
X12908286Y-12173629D01*
X12908286Y-12173629D02*
X12923524Y-12173629D01*
X12923524Y-12173629D02*
X12931143Y-12177439D01*
X12931143Y-12177439D02*
X12938762Y-12185058D01*
X12938762Y-12185058D02*
X12942571Y-12200296D01*
X12942571Y-12200296D02*
X12942571Y-12226963D01*
X12942571Y-12226963D02*
X12938762Y-12242201D01*
X12938762Y-12242201D02*
X12931143Y-12249820D01*
X12931143Y-12249820D02*
X12923524Y-12253629D01*
X12923524Y-12253629D02*
X12908286Y-12253629D01*
X12973047Y-12181248D02*
X12976857Y-12177439D01*
X12976857Y-12177439D02*
X12984476Y-12173629D01*
X12984476Y-12173629D02*
X13003524Y-12173629D01*
X13003524Y-12173629D02*
X13011143Y-12177439D01*
X13011143Y-12177439D02*
X13014952Y-12181248D01*
X13014952Y-12181248D02*
X13018762Y-12188868D01*
X13018762Y-12188868D02*
X13018762Y-12196487D01*
X13018762Y-12196487D02*
X13014952Y-12207915D01*
X13014952Y-12207915D02*
X12969238Y-12253629D01*
X12969238Y-12253629D02*
X13018762Y-12253629D01*
D20*
X12810028Y-12340393D02*
X12807171Y-12343250D01*
X12807171Y-12343250D02*
X12798600Y-12346107D01*
X12798600Y-12346107D02*
X12792886Y-12346107D01*
X12792886Y-12346107D02*
X12784314Y-12343250D01*
X12784314Y-12343250D02*
X12778600Y-12337536D01*
X12778600Y-12337536D02*
X12775743Y-12331821D01*
X12775743Y-12331821D02*
X12772886Y-12320393D01*
X12772886Y-12320393D02*
X12772886Y-12311821D01*
X12772886Y-12311821D02*
X12775743Y-12300393D01*
X12775743Y-12300393D02*
X12778600Y-12294678D01*
X12778600Y-12294678D02*
X12784314Y-12288964D01*
X12784314Y-12288964D02*
X12792886Y-12286107D01*
X12792886Y-12286107D02*
X12798600Y-12286107D01*
X12798600Y-12286107D02*
X12807171Y-12288964D01*
X12807171Y-12288964D02*
X12810028Y-12291821D01*
X12852886Y-12286107D02*
X12852886Y-12328964D01*
X12852886Y-12328964D02*
X12850028Y-12337536D01*
X12850028Y-12337536D02*
X12844314Y-12343250D01*
X12844314Y-12343250D02*
X12835743Y-12346107D01*
X12835743Y-12346107D02*
X12830028Y-12346107D01*
X12878600Y-12291821D02*
X12881457Y-12288964D01*
X12881457Y-12288964D02*
X12887171Y-12286107D01*
X12887171Y-12286107D02*
X12901457Y-12286107D01*
X12901457Y-12286107D02*
X12907171Y-12288964D01*
X12907171Y-12288964D02*
X12910028Y-12291821D01*
X12910028Y-12291821D02*
X12912886Y-12297536D01*
X12912886Y-12297536D02*
X12912886Y-12303250D01*
X12912886Y-12303250D02*
X12910028Y-12311821D01*
X12910028Y-12311821D02*
X12875743Y-12346107D01*
X12875743Y-12346107D02*
X12912886Y-12346107D01*
X12932886Y-12286107D02*
X12970028Y-12286107D01*
X12970028Y-12286107D02*
X12950028Y-12308964D01*
X12950028Y-12308964D02*
X12958600Y-12308964D01*
X12958600Y-12308964D02*
X12964314Y-12311821D01*
X12964314Y-12311821D02*
X12967171Y-12314678D01*
X12967171Y-12314678D02*
X12970028Y-12320393D01*
X12970028Y-12320393D02*
X12970028Y-12334678D01*
X12970028Y-12334678D02*
X12967171Y-12340393D01*
X12967171Y-12340393D02*
X12964314Y-12343250D01*
X12964314Y-12343250D02*
X12958600Y-12346107D01*
X12958600Y-12346107D02*
X12941457Y-12346107D01*
X12941457Y-12346107D02*
X12935743Y-12343250D01*
X12935743Y-12343250D02*
X12932886Y-12340393D01*
X13027171Y-12346107D02*
X12992886Y-12346107D01*
X13010029Y-12346107D02*
X13010029Y-12286107D01*
X13010029Y-12286107D02*
X13004314Y-12294678D01*
X13004314Y-12294678D02*
X12998600Y-12300393D01*
X12998600Y-12300393D02*
X12992886Y-12303250D01*
X13064314Y-12286107D02*
X13070029Y-12286107D01*
X13070029Y-12286107D02*
X13075743Y-12288964D01*
X13075743Y-12288964D02*
X13078600Y-12291821D01*
X13078600Y-12291821D02*
X13081457Y-12297536D01*
X13081457Y-12297536D02*
X13084314Y-12308964D01*
X13084314Y-12308964D02*
X13084314Y-12323250D01*
X13084314Y-12323250D02*
X13081457Y-12334678D01*
X13081457Y-12334678D02*
X13078600Y-12340393D01*
X13078600Y-12340393D02*
X13075743Y-12343250D01*
X13075743Y-12343250D02*
X13070029Y-12346107D01*
X13070029Y-12346107D02*
X13064314Y-12346107D01*
X13064314Y-12346107D02*
X13058600Y-12343250D01*
X13058600Y-12343250D02*
X13055743Y-12340393D01*
X13055743Y-12340393D02*
X13052886Y-12334678D01*
X13052886Y-12334678D02*
X13050029Y-12323250D01*
X13050029Y-12323250D02*
X13050029Y-12308964D01*
X13050029Y-12308964D02*
X13052886Y-12297536D01*
X13052886Y-12297536D02*
X13055743Y-12291821D01*
X13055743Y-12291821D02*
X13058600Y-12288964D01*
X13058600Y-12288964D02*
X13064314Y-12286107D01*
D16*
X13272864Y-11466957D02*
X13248734Y-11432485D01*
X13231498Y-11466957D02*
X13231498Y-11394567D01*
X13231498Y-11394567D02*
X13259075Y-11394567D01*
X13259075Y-11394567D02*
X13265969Y-11398014D01*
X13265969Y-11398014D02*
X13269417Y-11401461D01*
X13269417Y-11401461D02*
X13272864Y-11408355D01*
X13272864Y-11408355D02*
X13272864Y-11418697D01*
X13272864Y-11418697D02*
X13269417Y-11425591D01*
X13269417Y-11425591D02*
X13265969Y-11429038D01*
X13265969Y-11429038D02*
X13259075Y-11432485D01*
X13259075Y-11432485D02*
X13231498Y-11432485D01*
X13296994Y-11394567D02*
X13341807Y-11394567D01*
X13341807Y-11394567D02*
X13317677Y-11422144D01*
X13317677Y-11422144D02*
X13328018Y-11422144D01*
X13328018Y-11422144D02*
X13334912Y-11425591D01*
X13334912Y-11425591D02*
X13338359Y-11429038D01*
X13338359Y-11429038D02*
X13341807Y-11435932D01*
X13341807Y-11435932D02*
X13341807Y-11453168D01*
X13341807Y-11453168D02*
X13338359Y-11460062D01*
X13338359Y-11460062D02*
X13334912Y-11463510D01*
X13334912Y-11463510D02*
X13328018Y-11466957D01*
X13328018Y-11466957D02*
X13307335Y-11466957D01*
X13307335Y-11466957D02*
X13300441Y-11463510D01*
X13300441Y-11463510D02*
X13296994Y-11460062D01*
X13449281Y-11366873D02*
X13414995Y-11366873D01*
X13432138Y-11366873D02*
X13432138Y-11306873D01*
X13432138Y-11306873D02*
X13426424Y-11315444D01*
X13426424Y-11315444D02*
X13420709Y-11321159D01*
X13420709Y-11321159D02*
X13414995Y-11324016D01*
X13486424Y-11306873D02*
X13492138Y-11306873D01*
X13492138Y-11306873D02*
X13497852Y-11309730D01*
X13497852Y-11309730D02*
X13500709Y-11312587D01*
X13500709Y-11312587D02*
X13503567Y-11318302D01*
X13503567Y-11318302D02*
X13506424Y-11329730D01*
X13506424Y-11329730D02*
X13506424Y-11344016D01*
X13506424Y-11344016D02*
X13503567Y-11355444D01*
X13503567Y-11355444D02*
X13500709Y-11361159D01*
X13500709Y-11361159D02*
X13497852Y-11364016D01*
X13497852Y-11364016D02*
X13492138Y-11366873D01*
X13492138Y-11366873D02*
X13486424Y-11366873D01*
X13486424Y-11366873D02*
X13480709Y-11364016D01*
X13480709Y-11364016D02*
X13477852Y-11361159D01*
X13477852Y-11361159D02*
X13474995Y-11355444D01*
X13474995Y-11355444D02*
X13472138Y-11344016D01*
X13472138Y-11344016D02*
X13472138Y-11329730D01*
X13472138Y-11329730D02*
X13474995Y-11318302D01*
X13474995Y-11318302D02*
X13477852Y-11312587D01*
X13477852Y-11312587D02*
X13480709Y-11309730D01*
X13480709Y-11309730D02*
X13486424Y-11306873D01*
X13543567Y-11306873D02*
X13549281Y-11306873D01*
X13549281Y-11306873D02*
X13554995Y-11309730D01*
X13554995Y-11309730D02*
X13557852Y-11312587D01*
X13557852Y-11312587D02*
X13560709Y-11318302D01*
X13560709Y-11318302D02*
X13563567Y-11329730D01*
X13563567Y-11329730D02*
X13563567Y-11344016D01*
X13563567Y-11344016D02*
X13560709Y-11355444D01*
X13560709Y-11355444D02*
X13557852Y-11361159D01*
X13557852Y-11361159D02*
X13554995Y-11364016D01*
X13554995Y-11364016D02*
X13549281Y-11366873D01*
X13549281Y-11366873D02*
X13543567Y-11366873D01*
X13543567Y-11366873D02*
X13537852Y-11364016D01*
X13537852Y-11364016D02*
X13534995Y-11361159D01*
X13534995Y-11361159D02*
X13532138Y-11355444D01*
X13532138Y-11355444D02*
X13529281Y-11344016D01*
X13529281Y-11344016D02*
X13529281Y-11329730D01*
X13529281Y-11329730D02*
X13532138Y-11318302D01*
X13532138Y-11318302D02*
X13534995Y-11312587D01*
X13534995Y-11312587D02*
X13537852Y-11309730D01*
X13537852Y-11309730D02*
X13543567Y-11306873D01*
X13623567Y-11366873D02*
X13603567Y-11338302D01*
X13589281Y-11366873D02*
X13589281Y-11306873D01*
X13589281Y-11306873D02*
X13612138Y-11306873D01*
X13612138Y-11306873D02*
X13617852Y-11309730D01*
X13617852Y-11309730D02*
X13620709Y-11312587D01*
X13620709Y-11312587D02*
X13623567Y-11318302D01*
X13623567Y-11318302D02*
X13623567Y-11326873D01*
X13623567Y-11326873D02*
X13620709Y-11332587D01*
X13620709Y-11332587D02*
X13617852Y-11335444D01*
X13617852Y-11335444D02*
X13612138Y-11338302D01*
X13612138Y-11338302D02*
X13589281Y-11338302D01*
D10*
X14016734Y-10048436D02*
X14011973Y-10053198D01*
X14011973Y-10053198D02*
X13997687Y-10057959D01*
X13997687Y-10057959D02*
X13988163Y-10057959D01*
X13988163Y-10057959D02*
X13973877Y-10053198D01*
X13973877Y-10053198D02*
X13964354Y-10043674D01*
X13964354Y-10043674D02*
X13959592Y-10034150D01*
X13959592Y-10034150D02*
X13954830Y-10015102D01*
X13954830Y-10015102D02*
X13954830Y-10000817D01*
X13954830Y-10000817D02*
X13959592Y-9981769D01*
X13959592Y-9981769D02*
X13964354Y-9972245D01*
X13964354Y-9972245D02*
X13973877Y-9962721D01*
X13973877Y-9962721D02*
X13988163Y-9957959D01*
X13988163Y-9957959D02*
X13997687Y-9957959D01*
X13997687Y-9957959D02*
X14011973Y-9962721D01*
X14011973Y-9962721D02*
X14016734Y-9967483D01*
X14059592Y-10057959D02*
X14059592Y-9957959D01*
X14059592Y-9957959D02*
X14116734Y-10057959D01*
X14116734Y-10057959D02*
X14116734Y-9957959D01*
X14216734Y-10057959D02*
X14159592Y-10057959D01*
X14188163Y-10057959D02*
X14188163Y-9957959D01*
X14188163Y-9957959D02*
X14178639Y-9972245D01*
X14178639Y-9972245D02*
X14169115Y-9981769D01*
X14169115Y-9981769D02*
X14159592Y-9986531D01*
X14278639Y-9957959D02*
X14288163Y-9957959D01*
X14288163Y-9957959D02*
X14297687Y-9962721D01*
X14297687Y-9962721D02*
X14302449Y-9967483D01*
X14302449Y-9967483D02*
X14307211Y-9977007D01*
X14307211Y-9977007D02*
X14311973Y-9996055D01*
X14311973Y-9996055D02*
X14311973Y-10019864D01*
X14311973Y-10019864D02*
X14307211Y-10038912D01*
X14307211Y-10038912D02*
X14302449Y-10048436D01*
X14302449Y-10048436D02*
X14297687Y-10053198D01*
X14297687Y-10053198D02*
X14288163Y-10057959D01*
X14288163Y-10057959D02*
X14278639Y-10057959D01*
X14278639Y-10057959D02*
X14269115Y-10053198D01*
X14269115Y-10053198D02*
X14264354Y-10048436D01*
X14264354Y-10048436D02*
X14259592Y-10038912D01*
X14259592Y-10038912D02*
X14254830Y-10019864D01*
X14254830Y-10019864D02*
X14254830Y-9996055D01*
X14254830Y-9996055D02*
X14259592Y-9977007D01*
X14259592Y-9977007D02*
X14264354Y-9967483D01*
X14264354Y-9967483D02*
X14269115Y-9962721D01*
X14269115Y-9962721D02*
X14278639Y-9957959D01*
X14373877Y-9957959D02*
X14383401Y-9957959D01*
X14383401Y-9957959D02*
X14392925Y-9962721D01*
X14392925Y-9962721D02*
X14397687Y-9967483D01*
X14397687Y-9967483D02*
X14402449Y-9977007D01*
X14402449Y-9977007D02*
X14407211Y-9996055D01*
X14407211Y-9996055D02*
X14407211Y-10019864D01*
X14407211Y-10019864D02*
X14402449Y-10038912D01*
X14402449Y-10038912D02*
X14397687Y-10048436D01*
X14397687Y-10048436D02*
X14392925Y-10053198D01*
X14392925Y-10053198D02*
X14383401Y-10057959D01*
X14383401Y-10057959D02*
X14373877Y-10057959D01*
X14373877Y-10057959D02*
X14364354Y-10053198D01*
X14364354Y-10053198D02*
X14359592Y-10048436D01*
X14359592Y-10048436D02*
X14354830Y-10038912D01*
X14354830Y-10038912D02*
X14350068Y-10019864D01*
X14350068Y-10019864D02*
X14350068Y-9996055D01*
X14350068Y-9996055D02*
X14354830Y-9977007D01*
X14354830Y-9977007D02*
X14359592Y-9967483D01*
X14359592Y-9967483D02*
X14364354Y-9962721D01*
X14364354Y-9962721D02*
X14373877Y-9957959D01*
X14146219Y-10916682D02*
X14146219Y-10816682D01*
X14193838Y-10916682D02*
X14193838Y-10816682D01*
X14193838Y-10816682D02*
X14250981Y-10916682D01*
X14250981Y-10916682D02*
X14250981Y-10816682D01*
D19*
X13873919Y-10014487D02*
X13839633Y-10014487D01*
X13856776Y-10014487D02*
X13856776Y-9954487D01*
X13856776Y-9954487D02*
X13851062Y-9963058D01*
X13851062Y-9963058D02*
X13845348Y-9968772D01*
X13845348Y-9968772D02*
X13839633Y-9971630D01*
D16*
X14117141Y-7655166D02*
X14093808Y-7621832D01*
X14077141Y-7655166D02*
X14077141Y-7585166D01*
X14077141Y-7585166D02*
X14103808Y-7585166D01*
X14103808Y-7585166D02*
X14110475Y-7588499D01*
X14110475Y-7588499D02*
X14113808Y-7591832D01*
X14113808Y-7591832D02*
X14117141Y-7598499D01*
X14117141Y-7598499D02*
X14117141Y-7608499D01*
X14117141Y-7608499D02*
X14113808Y-7615166D01*
X14113808Y-7615166D02*
X14110475Y-7618499D01*
X14110475Y-7618499D02*
X14103808Y-7621832D01*
X14103808Y-7621832D02*
X14077141Y-7621832D01*
X14183808Y-7655166D02*
X14143808Y-7655166D01*
X14163808Y-7655166D02*
X14163808Y-7585166D01*
X14163808Y-7585166D02*
X14157141Y-7595166D01*
X14157141Y-7595166D02*
X14150475Y-7601832D01*
X14150475Y-7601832D02*
X14143808Y-7605166D01*
X14250475Y-7655166D02*
X14210475Y-7655166D01*
X14230475Y-7655166D02*
X14230475Y-7585166D01*
X14230475Y-7585166D02*
X14223808Y-7595166D01*
X14223808Y-7595166D02*
X14217141Y-7601832D01*
X14217141Y-7601832D02*
X14210475Y-7605166D01*
X14317141Y-7655166D02*
X14277141Y-7655166D01*
X14297141Y-7655166D02*
X14297141Y-7585166D01*
X14297141Y-7585166D02*
X14290475Y-7595166D01*
X14290475Y-7595166D02*
X14283808Y-7601832D01*
X14283808Y-7601832D02*
X14277141Y-7605166D01*
X14183628Y-7941009D02*
X14143628Y-7941009D01*
X14163628Y-7941009D02*
X14163628Y-7871009D01*
X14163628Y-7871009D02*
X14156961Y-7881009D01*
X14156961Y-7881009D02*
X14150295Y-7887676D01*
X14150295Y-7887676D02*
X14143628Y-7891009D01*
X14213628Y-7941009D02*
X14213628Y-7871009D01*
X14253628Y-7941009D02*
X14223628Y-7901009D01*
X14253628Y-7871009D02*
X14213628Y-7911009D01*
X13624009Y-7836416D02*
X13587135Y-7819216D01*
X13589368Y-7856416D02*
X13554368Y-7795795D01*
X13554368Y-7795795D02*
X13577462Y-7782461D01*
X13577462Y-7782461D02*
X13584902Y-7782015D01*
X13584902Y-7782015D02*
X13589456Y-7783235D01*
X13589456Y-7783235D02*
X13595676Y-7787342D01*
X13595676Y-7787342D02*
X13600676Y-7796002D01*
X13600676Y-7796002D02*
X13601122Y-7803442D01*
X13601122Y-7803442D02*
X13599902Y-7807996D01*
X13599902Y-7807996D02*
X13595796Y-7814216D01*
X13595796Y-7814216D02*
X13572702Y-7827549D01*
X13681744Y-7803083D02*
X13647103Y-7823083D01*
X13664424Y-7813083D02*
X13629424Y-7752461D01*
X13629424Y-7752461D02*
X13628650Y-7764455D01*
X13628650Y-7764455D02*
X13626210Y-7773562D01*
X13626210Y-7773562D02*
X13622103Y-7779782D01*
X13739479Y-7769750D02*
X13704838Y-7789750D01*
X13722159Y-7779750D02*
X13687159Y-7719128D01*
X13687159Y-7719128D02*
X13686385Y-7731122D01*
X13686385Y-7731122D02*
X13683945Y-7740228D01*
X13683945Y-7740228D02*
X13679838Y-7746449D01*
X13742007Y-7687461D02*
X13747781Y-7684128D01*
X13747781Y-7684128D02*
X13755221Y-7683681D01*
X13755221Y-7683681D02*
X13759774Y-7684901D01*
X13759774Y-7684901D02*
X13765994Y-7689008D01*
X13765994Y-7689008D02*
X13775548Y-7698889D01*
X13775548Y-7698889D02*
X13783881Y-7713322D01*
X13783881Y-7713322D02*
X13787661Y-7726536D01*
X13787661Y-7726536D02*
X13788108Y-7733976D01*
X13788108Y-7733976D02*
X13786887Y-7738530D01*
X13786887Y-7738530D02*
X13782781Y-7744750D01*
X13782781Y-7744750D02*
X13777007Y-7748083D01*
X13777007Y-7748083D02*
X13769567Y-7748530D01*
X13769567Y-7748530D02*
X13765014Y-7747310D01*
X13765014Y-7747310D02*
X13758793Y-7743203D01*
X13758793Y-7743203D02*
X13749240Y-7733322D01*
X13749240Y-7733322D02*
X13740907Y-7718889D01*
X13740907Y-7718889D02*
X13737127Y-7705675D01*
X13737127Y-7705675D02*
X13736680Y-7698235D01*
X13736680Y-7698235D02*
X13737900Y-7693681D01*
X13737900Y-7693681D02*
X13742007Y-7687461D01*
X13840630Y-8064027D02*
X13805989Y-8084027D01*
X13823309Y-8074027D02*
X13788309Y-8013405D01*
X13788309Y-8013405D02*
X13787536Y-8025398D01*
X13787536Y-8025398D02*
X13785095Y-8034505D01*
X13785095Y-8034505D02*
X13780989Y-8040725D01*
X13866610Y-8049027D02*
X13831610Y-7988405D01*
X13901251Y-8029027D02*
X13855271Y-8009385D01*
X13866251Y-7968405D02*
X13851610Y-8023046D01*
D11*
%TO.C,R7*%
X14355960Y-13643610D02*
X14396720Y-13643610D01*
X14356080Y-13643610D02*
X14355960Y-13789660D01*
X14396720Y-13643610D02*
X14396720Y-13789660D01*
X14396720Y-13789660D02*
X14355960Y-13789660D01*
%TO.C,C1*%
X14841650Y-13973810D02*
X14882410Y-13973810D01*
X14841770Y-13973810D02*
X14841650Y-14119860D01*
X14882410Y-13973810D02*
X14882410Y-14119860D01*
X14882410Y-14119860D02*
X14841650Y-14119860D01*
D21*
%TO.C,+9V0*%
X13176320Y-14600640D02*
X13138220Y-14600640D01*
D11*
%TO.C,R100*%
X14247236Y-9380059D02*
X14247236Y-9420819D01*
X14247236Y-9380179D02*
X14101186Y-9380059D01*
X14247236Y-9420819D02*
X14101186Y-9420819D01*
X14101186Y-9420819D02*
X14101186Y-9380059D01*
%TO.C,R108*%
X13352769Y-8176818D02*
X13373149Y-8141519D01*
X13352829Y-8176714D02*
X13479252Y-8249843D01*
X13373149Y-8141519D02*
X13499632Y-8214544D01*
X13499632Y-8214544D02*
X13479252Y-8249843D01*
D16*
%TO.C,Q1*%
X13220700Y-11722100D02*
X13220700Y-11874500D01*
X13576300Y-11684000D02*
G75*
G03*
X13397824Y-11547681I-228600J-114299D01*
G01*
X13399157Y-12049700D02*
G75*
G03*
X13578602Y-11910257I-51457J251400D01*
G01*
D11*
%TO.C,R102*%
X13727187Y-9458223D02*
X13691888Y-9437843D01*
X13727083Y-9458163D02*
X13800212Y-9331740D01*
X13691888Y-9437843D02*
X13764913Y-9311360D01*
X13764913Y-9311360D02*
X13800212Y-9331740D01*
%TO.C,R105*%
X14953291Y-8661003D02*
X14953291Y-8620243D01*
X14953291Y-8660883D02*
X15099341Y-8661003D01*
X14953291Y-8620243D02*
X15099341Y-8620243D01*
X15099341Y-8620243D02*
X15099341Y-8661003D01*
%TO.C,R101*%
X14559295Y-9330465D02*
X14594594Y-9310085D01*
X14559399Y-9330405D02*
X14632320Y-9456948D01*
X14594594Y-9310085D02*
X14667619Y-9436568D01*
X14667619Y-9436568D02*
X14632320Y-9456948D01*
D22*
%TO.C,D1*%
X14763014Y-13231286D02*
X14638014Y-13301286D01*
X14638014Y-13301286D02*
X14638014Y-13161286D01*
X14638014Y-13161286D02*
X14763014Y-13231286D01*
G36*
X14783014Y-13336286D02*
G01*
X14753014Y-13336286D01*
X14753014Y-13126286D01*
X14783014Y-13126286D01*
X14783014Y-13336286D01*
G37*
D21*
%TO.C,HP2*%
X13169900Y-12687300D02*
X13131800Y-12687300D01*
D23*
%TO.C,JP2*%
X14798590Y-13406840D02*
X14798590Y-13559240D01*
X14773190Y-13584640D02*
X14493790Y-13584640D01*
X14493790Y-13381440D02*
X14773190Y-13381440D01*
X14468390Y-13406840D02*
X14468390Y-13559240D01*
X14773190Y-13584640D02*
G75*
G03*
X14798590Y-13559240I0J25400D01*
G01*
X14798590Y-13406840D02*
G75*
G03*
X14773190Y-13381440I-25400J0D01*
G01*
X14468390Y-13559240D02*
G75*
G03*
X14493790Y-13584640I25400J0D01*
G01*
X14493790Y-13381440D02*
G75*
G03*
X14468390Y-13406840I0J-25400D01*
G01*
D21*
%TO.C,S-0*%
X13169900Y-14338300D02*
X13131800Y-14338300D01*
D11*
%TO.C,IC1*%
X14599920Y-12057380D02*
X14254480Y-12057380D01*
X14599920Y-12057380D02*
X14599920Y-12682220D01*
X14254480Y-12682220D02*
X14254480Y-12057380D01*
X14254480Y-12682220D02*
X14599920Y-12682220D01*
%TO.C,R1*%
X14396840Y-14118590D02*
X14356080Y-14118590D01*
X14396720Y-14118590D02*
X14396840Y-13972540D01*
X14356080Y-14118590D02*
X14356080Y-13972540D01*
X14356080Y-13972540D02*
X14396840Y-13972540D01*
D21*
%TO.C,S+0*%
X13169900Y-13385800D02*
X13131800Y-13385800D01*
D11*
%TO.C,R106*%
X13233290Y-8645752D02*
X13233290Y-8604992D01*
X13233290Y-8645632D02*
X13379340Y-8645752D01*
X13233290Y-8604992D02*
X13379340Y-8604992D01*
X13379340Y-8604992D02*
X13379340Y-8645752D01*
D23*
%TO.C,JP1*%
X13728700Y-14816540D02*
X13576300Y-14816540D01*
X13550900Y-14791140D02*
X13550900Y-14511740D01*
X13754100Y-14511740D02*
X13754100Y-14791140D01*
X13728700Y-14486340D02*
X13576300Y-14486340D01*
X13550900Y-14791140D02*
G75*
G03*
X13576300Y-14816540I25400J0D01*
G01*
X13728700Y-14816540D02*
G75*
G03*
X13754100Y-14791140I0J25400D01*
G01*
X13576300Y-14486340D02*
G75*
G03*
X13550900Y-14511740I0J-25400D01*
G01*
X13754100Y-14511740D02*
G75*
G03*
X13728700Y-14486340I-25400J0D01*
G01*
D11*
%TO.C,R2*%
X13637200Y-12790187D02*
X13535600Y-12789793D01*
X13637200Y-12790187D02*
X13637200Y-12830827D01*
X13637200Y-12830827D02*
X13535600Y-12830827D01*
X13535600Y-12830827D02*
X13535600Y-12789793D01*
%TO.C,ARD1*%
X15443200Y-14401800D02*
X15443200Y-14274800D01*
X15443200Y-14274800D02*
X15379700Y-14211300D01*
X15443200Y-14147800D02*
X15443200Y-14020800D01*
X15443200Y-14020800D02*
X15379700Y-13957300D01*
X15443200Y-13893800D02*
X15443200Y-13766800D01*
X15443200Y-13766800D02*
X15379700Y-13703300D01*
X15443200Y-13639800D02*
X15443200Y-13512800D01*
X15443200Y-13512800D02*
X15379700Y-13449300D01*
X15443200Y-13385800D02*
X15443200Y-13258800D01*
X15443200Y-13258800D02*
X15379700Y-13195300D01*
X15443200Y-13131800D02*
X15443200Y-13004800D01*
X15443200Y-13004800D02*
X15379700Y-12941300D01*
X15443200Y-12877800D02*
X15443200Y-12750800D01*
X15443200Y-12750800D02*
X15379700Y-12687300D01*
X15443200Y-12623800D02*
X15443200Y-12496800D01*
X15443200Y-12496800D02*
X15379700Y-12433300D01*
X15443200Y-12369800D02*
X15443200Y-12242800D01*
X15443200Y-12242800D02*
X15379700Y-12179300D01*
X15443200Y-12115800D02*
X15443200Y-11988800D01*
X15443200Y-11988800D02*
X15379700Y-11925300D01*
X15443200Y-11861800D02*
X15443200Y-11734800D01*
X15443200Y-11734800D02*
X15379700Y-11671300D01*
X15443200Y-11607800D02*
X15443200Y-11480800D01*
X15443200Y-11480800D02*
X15379700Y-11417300D01*
X15379700Y-14465300D02*
X15443200Y-14401800D01*
X15379700Y-14211300D02*
X15443200Y-14147800D01*
X15379700Y-13957300D02*
X15443200Y-13893800D01*
X15379700Y-13703300D02*
X15443200Y-13639800D01*
X15379700Y-13449300D02*
X15443200Y-13385800D01*
X15379700Y-13195300D02*
X15443200Y-13131800D01*
X15379700Y-12941300D02*
X15443200Y-12877800D01*
X15379700Y-12687300D02*
X15443200Y-12623800D01*
X15379700Y-12433300D02*
X15443200Y-12369800D01*
X15379700Y-12179300D02*
X15443200Y-12115800D01*
X15379700Y-11925300D02*
X15443200Y-11861800D01*
X15379700Y-11671300D02*
X15443200Y-11607800D01*
X15379700Y-11417300D02*
X15252700Y-11417300D01*
X15316200Y-14655800D02*
X15252700Y-14719300D01*
X15316200Y-14528800D02*
X15316200Y-14655800D01*
X15252700Y-14719300D02*
X15125700Y-14719300D01*
X15252700Y-14465300D02*
X15379700Y-14465300D01*
X15252700Y-14465300D02*
X15316200Y-14528800D01*
X15252700Y-14211300D02*
X15189200Y-14274800D01*
X15252700Y-13957300D02*
X15189200Y-14020800D01*
X15252700Y-13703300D02*
X15189200Y-13766800D01*
X15252700Y-13449300D02*
X15189200Y-13512800D01*
X15252700Y-13195300D02*
X15189200Y-13258800D01*
X15252700Y-12941300D02*
X15189200Y-13004800D01*
X15252700Y-12687300D02*
X15189200Y-12750800D01*
X15252700Y-12433300D02*
X15189200Y-12496800D01*
X15252700Y-12179300D02*
X15189200Y-12242800D01*
X15252700Y-11925300D02*
X15189200Y-11988800D01*
X15252700Y-11671300D02*
X15189200Y-11734800D01*
X15252700Y-11417300D02*
X15189200Y-11480800D01*
X15189200Y-14401800D02*
X15252700Y-14465300D01*
X15189200Y-14274800D02*
X15189200Y-14401800D01*
X15189200Y-14147800D02*
X15252700Y-14211300D01*
X15189200Y-14020800D02*
X15189200Y-14147800D01*
X15189200Y-13893800D02*
X15252700Y-13957300D01*
X15189200Y-13766800D02*
X15189200Y-13893800D01*
X15189200Y-13639800D02*
X15252700Y-13703300D01*
X15189200Y-13512800D02*
X15189200Y-13639800D01*
X15189200Y-13385800D02*
X15252700Y-13449300D01*
X15189200Y-13258800D02*
X15189200Y-13385800D01*
X15189200Y-13131800D02*
X15252700Y-13195300D01*
X15189200Y-13004800D02*
X15189200Y-13131800D01*
X15189200Y-12877800D02*
X15252700Y-12941300D01*
X15189200Y-12750800D02*
X15189200Y-12877800D01*
X15189200Y-12623800D02*
X15252700Y-12687300D01*
X15189200Y-12496800D02*
X15189200Y-12623800D01*
X15189200Y-12369800D02*
X15252700Y-12433300D01*
X15189200Y-12242800D02*
X15189200Y-12369800D01*
X15189200Y-12115800D02*
X15252700Y-12179300D01*
X15189200Y-11988800D02*
X15189200Y-12115800D01*
X15189200Y-11861800D02*
X15252700Y-11925300D01*
X15189200Y-11734800D02*
X15189200Y-11861800D01*
X15189200Y-11607800D02*
X15252700Y-11671300D01*
X15189200Y-11480800D02*
X15189200Y-11607800D01*
X15125700Y-14719300D02*
X15062200Y-14655800D01*
X15125700Y-14465300D02*
X15252700Y-14465300D01*
X15062200Y-14655800D02*
X14998700Y-14719300D01*
X15062200Y-14528800D02*
X15125700Y-14465300D01*
X14998700Y-14719300D02*
X14871700Y-14719300D01*
X14998700Y-14465300D02*
X15062200Y-14528800D01*
X14871700Y-14719300D02*
X14808200Y-14655800D01*
X14871700Y-14465300D02*
X14998700Y-14465300D01*
X14808200Y-14655800D02*
X14744700Y-14719300D01*
X14808200Y-14528800D02*
X14871700Y-14465300D01*
X14744700Y-14719300D02*
X14617700Y-14719300D01*
X14744700Y-14465300D02*
X14808200Y-14528800D01*
X14681200Y-11607800D02*
X14617700Y-11671300D01*
X14681200Y-11480800D02*
X14681200Y-11607800D01*
X14617700Y-14719300D02*
X14554200Y-14655800D01*
X14617700Y-14465300D02*
X14744700Y-14465300D01*
X14617700Y-11671300D02*
X14490700Y-11671300D01*
X14617700Y-11417300D02*
X14681200Y-11480800D01*
X14554200Y-14655800D02*
X14490700Y-14719300D01*
X14554200Y-14528800D02*
X14617700Y-14465300D01*
X14490700Y-14719300D02*
X14363700Y-14719300D01*
X14490700Y-14465300D02*
X14554200Y-14528800D01*
X14490700Y-11671300D02*
X14427200Y-11607800D01*
X14490700Y-11417300D02*
X14617700Y-11417300D01*
X14427200Y-11480800D02*
X14490700Y-11417300D01*
X14363700Y-14719300D02*
X14300200Y-14655800D01*
X14363700Y-14465300D02*
X14490700Y-14465300D01*
X14363700Y-11671300D02*
X14427200Y-11607800D01*
X14363700Y-11417300D02*
X14427200Y-11480800D01*
X14300200Y-14655800D02*
X14236700Y-14719300D01*
X14300200Y-14528800D02*
X14363700Y-14465300D01*
X14236700Y-14719300D02*
X14109700Y-14719300D01*
X14236700Y-14465300D02*
X14300200Y-14528800D01*
X14236700Y-11671300D02*
X14363700Y-11671300D01*
X14236700Y-11417300D02*
X14363700Y-11417300D01*
X14173200Y-13512800D02*
X14173200Y-13385800D01*
X14173200Y-13385800D02*
X14109700Y-13322300D01*
X14173200Y-13258800D02*
X14173200Y-13131800D01*
X14173200Y-13131800D02*
X14109700Y-13068300D01*
X14173200Y-11607800D02*
X14236700Y-11671300D01*
X14173200Y-11480800D02*
X14236700Y-11417300D01*
X14109700Y-14719300D02*
X14046200Y-14655800D01*
X14109700Y-14465300D02*
X14236700Y-14465300D01*
X14109700Y-13576300D02*
X14173200Y-13512800D01*
X14109700Y-13576300D02*
X13982700Y-13576300D01*
X14109700Y-13322300D02*
X14173200Y-13258800D01*
X14109700Y-13068300D02*
X13982700Y-13068300D01*
X14109700Y-11671300D02*
X14173200Y-11607800D01*
X14109700Y-11417300D02*
X14173200Y-11480800D01*
X14046200Y-14655800D02*
X13982700Y-14719300D01*
X14046200Y-14528800D02*
X14109700Y-14465300D01*
X13982700Y-14719300D02*
X13855700Y-14719300D01*
X13982700Y-14465300D02*
X14046200Y-14528800D01*
X13982700Y-13068300D02*
X13919200Y-13131800D01*
X13982700Y-11671300D02*
X14109700Y-11671300D01*
X13982700Y-11671300D02*
X13919200Y-11607800D01*
X13982700Y-11417300D02*
X14109700Y-11417300D01*
X13982700Y-11417300D02*
X13919200Y-11480800D01*
X13919200Y-14401800D02*
X13855700Y-14465300D01*
X13919200Y-14274800D02*
X13919200Y-14401800D01*
X13919200Y-14147800D02*
X13855700Y-14211300D01*
X13919200Y-14020800D02*
X13919200Y-14147800D01*
X13919200Y-13893800D02*
X13855700Y-13957300D01*
X13919200Y-13766800D02*
X13919200Y-13893800D01*
X13919200Y-13639800D02*
X13855700Y-13703300D01*
X13919200Y-13512800D02*
X13982700Y-13576300D01*
X13919200Y-13512800D02*
X13919200Y-13639800D01*
X13919200Y-13004800D02*
X13919200Y-13131800D01*
X13919200Y-12877800D02*
X13855700Y-12941300D01*
X13919200Y-12750800D02*
X13919200Y-12877800D01*
X13919200Y-12623800D02*
X13855700Y-12687300D01*
X13919200Y-12496800D02*
X13919200Y-12623800D01*
X13919200Y-12369800D02*
X13855700Y-12433300D01*
X13919200Y-12242800D02*
X13919200Y-12369800D01*
X13919200Y-12115800D02*
X13855700Y-12179300D01*
X13919200Y-11988800D02*
X13919200Y-12115800D01*
X13919200Y-11861800D02*
X13855700Y-11925300D01*
X13919200Y-11734800D02*
X13919200Y-11861800D01*
X13919200Y-11607800D02*
X13855700Y-11671300D01*
X13919200Y-11480800D02*
X13855700Y-11417300D01*
X13855700Y-14719300D02*
X13792200Y-14655800D01*
X13855700Y-14465300D02*
X13982700Y-14465300D01*
X13855700Y-14465300D02*
X13728700Y-14465300D01*
X13855700Y-14211300D02*
X13919200Y-14274800D01*
X13855700Y-13957300D02*
X13919200Y-14020800D01*
X13855700Y-13703300D02*
X13919200Y-13766800D01*
X13855700Y-12941300D02*
X13919200Y-13004800D01*
X13855700Y-12687300D02*
X13919200Y-12750800D01*
X13855700Y-12433300D02*
X13919200Y-12496800D01*
X13855700Y-12179300D02*
X13919200Y-12242800D01*
X13855700Y-11925300D02*
X13919200Y-11988800D01*
X13855700Y-11671300D02*
X13919200Y-11734800D01*
X13792200Y-14655800D02*
X13792200Y-14528800D01*
X13792200Y-14528800D02*
X13855700Y-14465300D01*
X13728700Y-14465300D02*
X13665200Y-14401800D01*
X13728700Y-14211300D02*
X13665200Y-14147800D01*
X13728700Y-13957300D02*
X13665200Y-13893800D01*
X13728700Y-13703300D02*
X13665200Y-13639800D01*
X13728700Y-13449300D02*
X13665200Y-13385800D01*
X13728700Y-13195300D02*
X13665200Y-13131800D01*
X13728700Y-12941300D02*
X13665200Y-12877800D01*
X13728700Y-12687300D02*
X13665200Y-12623800D01*
X13728700Y-12433300D02*
X13665200Y-12369800D01*
X13728700Y-12179300D02*
X13665200Y-12115800D01*
X13728700Y-11925300D02*
X13665200Y-11861800D01*
X13728700Y-11671300D02*
X13665200Y-11607800D01*
X13728700Y-11417300D02*
X13855700Y-11417300D01*
X13665200Y-14401800D02*
X13665200Y-14274800D01*
X13665200Y-14274800D02*
X13728700Y-14211300D01*
X13665200Y-14147800D02*
X13665200Y-14020800D01*
X13665200Y-14020800D02*
X13728700Y-13957300D01*
X13665200Y-13893800D02*
X13665200Y-13766800D01*
X13665200Y-13766800D02*
X13728700Y-13703300D01*
X13665200Y-13639800D02*
X13665200Y-13512800D01*
X13665200Y-13512800D02*
X13728700Y-13449300D01*
X13665200Y-13385800D02*
X13665200Y-13258800D01*
X13665200Y-13258800D02*
X13728700Y-13195300D01*
X13665200Y-13131800D02*
X13665200Y-13004800D01*
X13665200Y-13004800D02*
X13728700Y-12941300D01*
X13665200Y-12877800D02*
X13665200Y-12750800D01*
X13665200Y-12750800D02*
X13728700Y-12687300D01*
X13665200Y-12623800D02*
X13665200Y-12496800D01*
X13665200Y-12496800D02*
X13728700Y-12433300D01*
X13665200Y-12369800D02*
X13665200Y-12242800D01*
X13665200Y-12242800D02*
X13728700Y-12179300D01*
X13665200Y-12115800D02*
X13665200Y-11988800D01*
X13665200Y-11988800D02*
X13728700Y-11925300D01*
X13665200Y-11861800D02*
X13665200Y-11734800D01*
X13665200Y-11734800D02*
X13728700Y-11671300D01*
X13665200Y-11607800D02*
X13665200Y-11480800D01*
X13665200Y-11480800D02*
X13728700Y-11417300D01*
%TO.C,R109*%
X14617187Y-7958223D02*
X14581888Y-7937843D01*
X14617083Y-7958163D02*
X14690212Y-7831740D01*
X14581888Y-7937843D02*
X14654913Y-7811360D01*
X14654913Y-7811360D02*
X14690212Y-7831740D01*
D16*
%TO.C,J100*%
X13665200Y-7454900D02*
X13728700Y-7632700D01*
X14960600Y-7594600D02*
X14833600Y-7747000D01*
X14643100Y-7632700D02*
X14719300Y-7454900D01*
X13728700Y-7632700D02*
X13525500Y-7747000D01*
X14833600Y-7747000D02*
X14643100Y-7632700D01*
X13525500Y-7747000D02*
X13411200Y-7594600D01*
X14833600Y-9525000D02*
X14630400Y-9639300D01*
X14833600Y-9525000D02*
X14947900Y-9664700D01*
X13525500Y-9525000D02*
X13741400Y-9652000D01*
X13525500Y-9525000D02*
X13411200Y-9690100D01*
X14630400Y-9639300D02*
X14706600Y-9829800D01*
X13741400Y-9652000D02*
X13665200Y-9829800D01*
X14947900Y-9664700D02*
X14833600Y-9525000D01*
X14923948Y-7643486D02*
G75*
G03*
X14693900Y-7505700I-749196J-989923D01*
G01*
X13678312Y-7493951D02*
G75*
G03*
X13436600Y-7632700I494888J-1142049D01*
G01*
X14537874Y-8801626D02*
G75*
G03*
X14342547Y-8998961I-364674J165626D01*
G01*
X14688118Y-9766309D02*
G75*
G03*
X14922500Y-9626600I-514922J1130314D01*
G01*
X13450351Y-9650525D02*
G75*
G03*
X13677900Y-9779000I722845J1014518D01*
G01*
X15473200Y-8636000D02*
G75*
G03*
X15473200Y-8636000I-1300000J0D01*
G01*
D11*
%TO.C,R107*%
X14873209Y-8259208D02*
X14852829Y-8223909D01*
X14873149Y-8259104D02*
X14999692Y-8186183D01*
X14852829Y-8223909D02*
X14979312Y-8150884D01*
X14979312Y-8150884D02*
X14999692Y-8186183D01*
%TO.C,R8*%
X14880927Y-13788390D02*
X14840167Y-13788390D01*
X14880807Y-13788390D02*
X14880927Y-13642340D01*
X14840167Y-13788390D02*
X14840167Y-13642340D01*
X14840167Y-13642340D02*
X14880927Y-13642340D01*
D21*
%TO.C,SIN0*%
X13169900Y-13639800D02*
X13131800Y-13639800D01*
D11*
%TO.C,R104*%
X13363209Y-9099208D02*
X13342829Y-9063909D01*
X13363149Y-9099104D02*
X13489692Y-9026183D01*
X13342829Y-9063909D02*
X13469312Y-8990884D01*
X13469312Y-8990884D02*
X13489692Y-9026183D01*
%TO.C,C2*%
X15137680Y-12452950D02*
X15137680Y-12493710D01*
X15137680Y-12453070D02*
X14991630Y-12452950D01*
X15137680Y-12493710D02*
X14991630Y-12493710D01*
X14991630Y-12493710D02*
X14991630Y-12452950D01*
%TO.C,R103*%
X14845144Y-9059307D02*
X14865524Y-9024007D01*
X14845204Y-9059203D02*
X14971627Y-9132332D01*
X14865524Y-9024007D02*
X14992007Y-9097032D01*
X14992007Y-9097032D02*
X14971627Y-9132332D01*
D21*
%TO.C,GND0*%
X13169900Y-13893800D02*
X13131800Y-13893800D01*
D16*
%TO.C,Q2*%
X13436400Y-12161000D02*
X13120400Y-12161000D01*
X13436400Y-12161000D02*
X13436400Y-12254000D01*
X13436400Y-12477000D02*
X13290400Y-12477000D01*
X13436400Y-12477000D02*
X13436400Y-12384000D01*
D11*
%TO.C,R3*%
X13495570Y-11400240D02*
X13495175Y-11501840D01*
X13495570Y-11400240D02*
X13536210Y-11400240D01*
X13536210Y-11400240D02*
X13536210Y-11501840D01*
X13536210Y-11501840D02*
X13495175Y-11501840D01*
D21*
%TO.C,HP1*%
X13169900Y-12941300D02*
X13131800Y-12941300D01*
D16*
%TO.C,CN100*%
X13924592Y-10426946D02*
X13924592Y-10467586D01*
X14178592Y-10421866D02*
X14178592Y-10467586D01*
X14432592Y-10421866D02*
X14432592Y-10467586D01*
D11*
%TO.C,R111*%
X14175240Y-7692921D02*
X14216000Y-7692921D01*
X14175360Y-7692921D02*
X14175240Y-7838971D01*
X14216000Y-7692921D02*
X14216000Y-7838971D01*
X14216000Y-7838971D02*
X14175240Y-7838971D01*
%TO.C,R110*%
X13711784Y-7842841D02*
X13747083Y-7822461D01*
X13711888Y-7842781D02*
X13784809Y-7969324D01*
X13747083Y-7822461D02*
X13820108Y-7948944D01*
X13820108Y-7948944D02*
X13784809Y-7969324D01*
%TD*%
M02*
