%TF.GenerationSoftware,KiCad,Pcbnew,7.0.6*%
%TF.CreationDate,2024-06-04T12:28:42+02:00*%
%TF.ProjectId,ToneGenerator,546f6e65-4765-46e6-9572-61746f722e6b,rev?*%
%TF.SameCoordinates,Original*%
%TF.FileFunction,Soldermask,Top*%
%TF.FilePolarity,Negative*%
%FSLAX45Y45*%
G04 Gerber Fmt 4.5, Leading zero omitted, Abs format (unit mm)*
G04 Created by KiCad (PCBNEW 7.0.6) date 2024-06-04 12:28:42*
%MOMM*%
%LPD*%
G01*
G04 APERTURE LIST*
G04 Aperture macros list*
%AMRoundRect*
0 Rectangle with rounded corners*
0 $1 Rounding radius*
0 $2 $3 $4 $5 $6 $7 $8 $9 X,Y pos of 4 corners*
0 Add a 4 corners polygon primitive as box body*
4,1,4,$2,$3,$4,$5,$6,$7,$8,$9,$2,$3,0*
0 Add four circle primitives for the rounded corners*
1,1,$1+$1,$2,$3*
1,1,$1+$1,$4,$5*
1,1,$1+$1,$6,$7*
1,1,$1+$1,$8,$9*
0 Add four rect primitives between the rounded corners*
20,1,$1+$1,$2,$3,$4,$5,0*
20,1,$1+$1,$4,$5,$6,$7,0*
20,1,$1+$1,$6,$7,$8,$9,0*
20,1,$1+$1,$8,$9,$2,$3,0*%
%AMFreePoly0*
4,1,47,0.799497,0.949497,1.249497,0.499497,1.270000,0.450000,1.270000,-0.451637,1.269847,-0.454906,1.261849,-0.540195,1.258227,-0.556779,1.213924,-0.683390,1.204174,-0.701838,1.124520,-0.809765,1.109765,-0.824520,1.001838,-0.904174,0.983390,-0.913924,0.856779,-0.958226,0.840195,-0.961849,0.754906,-0.969847,0.751637,-0.970000,-0.751637,-0.970000,-0.754906,-0.969847,-0.840195,-0.961849,
-0.856779,-0.958227,-0.983390,-0.913924,-1.001838,-0.904174,-1.109765,-0.824520,-1.124520,-0.809765,-1.204174,-0.701838,-1.213924,-0.683390,-1.258227,-0.556779,-1.261849,-0.540195,-1.269847,-0.454906,-1.270000,-0.451637,-1.270000,0.451637,-1.269847,0.454906,-1.261849,0.540195,-1.258227,0.556779,-1.213924,0.683390,-1.204174,0.701838,-1.124520,0.809765,-1.109765,0.824520,-1.001838,0.904174,
-0.983390,0.913924,-0.856779,0.958226,-0.840195,0.961849,-0.754906,0.969847,-0.751637,0.970000,0.750000,0.970000,0.799497,0.949497,0.799497,0.949497,$1*%
G04 Aperture macros list end*
%ADD10RoundRect,0.101600X-0.571500X-0.698500X0.571500X-0.698500X0.571500X0.698500X-0.571500X0.698500X0*%
%ADD11C,1.340000*%
%ADD12O,3.048000X1.625600*%
%ADD13RoundRect,0.101600X-0.698500X0.571500X-0.698500X-0.571500X0.698500X-0.571500X0.698500X0.571500X0*%
%ADD14RoundRect,0.101600X0.319169X-0.844184X0.890669X0.145684X-0.319169X0.844184X-0.890669X-0.145684X0*%
%ADD15C,2.133600*%
%ADD16RoundRect,0.101600X0.844184X0.319169X-0.145684X0.890669X-0.844184X-0.319169X0.145684X-0.890669X0*%
%ADD17RoundRect,0.101600X0.698500X-0.571500X0.698500X0.571500X-0.698500X0.571500X-0.698500X-0.571500X0*%
%ADD18RoundRect,0.101600X-0.145684X-0.890669X0.844184X-0.319169X0.145684X0.890669X-0.844184X0.319169X0*%
%ADD19RoundRect,0.101600X0.900000X1.100000X-0.900000X1.100000X-0.900000X-1.100000X0.900000X-1.100000X0*%
%ADD20RoundRect,0.101600X-1.003300X0.749300X-1.003300X-0.749300X1.003300X-0.749300X1.003300X0.749300X0*%
%ADD21RoundRect,0.101600X-1.003300X1.905000X-1.003300X-1.905000X1.003300X-1.905000X1.003300X1.905000X0*%
%ADD22RoundRect,0.101600X0.571500X0.698500X-0.571500X0.698500X-0.571500X-0.698500X0.571500X-0.698500X0*%
%ADD23RoundRect,0.101600X-0.482600X0.381000X-0.482600X-0.381000X0.482600X-0.381000X0.482600X0.381000X0*%
%ADD24C,1.879600*%
%ADD25FreePoly0,195.000000*%
%ADD26RoundRect,0.520000X0.212132X0.848528X-0.848528X-0.212132X-0.212132X-0.848528X0.848528X0.212132X0*%
%ADD27RoundRect,0.520000X-0.240552X0.840913X-0.628781X-0.607976X0.240552X-0.840913X0.628781X0.607976X0*%
%ADD28RoundRect,0.520000X-0.628781X0.607976X-0.240552X-0.840913X0.628781X-0.607976X0.240552X0.840913X0*%
%ADD29RoundRect,0.520000X-0.848528X0.212132X0.212132X-0.848528X0.848528X-0.212132X-0.212132X0.848528X0*%
%ADD30RoundRect,0.520000X-0.840913X-0.240552X0.607976X-0.628781X0.840913X0.240552X-0.607976X0.628781X0*%
%ADD31RoundRect,0.520000X-0.607976X-0.628781X0.840913X-0.240552X0.607976X0.628781X-0.840913X0.240552X0*%
%ADD32RoundRect,0.520000X-0.212132X-0.848528X0.848528X0.212132X0.212132X0.848528X-0.848528X-0.212132X0*%
%ADD33RoundRect,0.520000X0.240552X-0.840913X0.628781X0.607976X-0.240552X0.840913X-0.628781X-0.607976X0*%
%ADD34RoundRect,0.520000X0.628781X-0.607976X0.240552X0.840913X-0.628781X0.607976X-0.240552X-0.840913X0*%
%ADD35RoundRect,0.520000X0.848528X-0.212132X-0.212132X0.848528X-0.848528X0.212132X0.212132X-0.848528X0*%
%ADD36RoundRect,0.520000X0.840913X0.240552X-0.607976X0.628781X-0.840913X-0.240552X0.607976X-0.628781X0*%
%ADD37RoundRect,0.101600X0.890669X-0.145684X0.319169X0.844184X-0.890669X0.145684X-0.319169X-0.844184X0*%
%ADD38RoundRect,0.070000X-0.950000X-0.400000X0.950000X-0.400000X0.950000X0.400000X-0.950000X0.400000X0*%
%ADD39RoundRect,0.101600X-0.381000X-0.482600X0.381000X-0.482600X0.381000X0.482600X-0.381000X0.482600X0*%
%ADD40O,1.625600X3.048000*%
G04 APERTURE END LIST*
%TO.C,JP2*%
G36*
X14779540Y-13565590D02*
G01*
X14487440Y-13565590D01*
X14487440Y-13400490D01*
X14779540Y-13400490D01*
X14779540Y-13565590D01*
G37*
%TO.C,JP1*%
G36*
X13735050Y-14797490D02*
G01*
X13569950Y-14797490D01*
X13569950Y-14505390D01*
X13735050Y-14505390D01*
X13735050Y-14797490D01*
G37*
%TD*%
D10*
%TO.C,R7*%
X14281150Y-13716000D03*
X14471650Y-13716000D03*
%TD*%
%TO.C,C1*%
X14766840Y-14046200D03*
X14957340Y-14046200D03*
%TD*%
D11*
%TO.C,+9V0*%
X13036620Y-14600640D03*
D12*
X13354120Y-14600640D03*
%TD*%
D13*
%TO.C,R100*%
X14174846Y-9305249D03*
X14174846Y-9495749D03*
%TD*%
D14*
%TO.C,R108*%
X13378056Y-8277800D03*
X13473306Y-8112823D03*
%TD*%
D15*
%TO.C,Q1*%
X13284200Y-11607800D03*
X13538200Y-11798300D03*
X13284200Y-11988800D03*
%TD*%
D16*
%TO.C,R102*%
X13828169Y-9432937D03*
X13663192Y-9337687D03*
%TD*%
D17*
%TO.C,R105*%
X15025681Y-8735813D03*
X15025681Y-8545313D03*
%TD*%
D18*
%TO.C,R101*%
X14530703Y-9430562D03*
X14695680Y-9335312D03*
%TD*%
D19*
%TO.C,D1*%
X14388014Y-13231286D03*
X14898014Y-13231286D03*
%TD*%
D11*
%TO.C,HP2*%
X13030200Y-12687300D03*
D12*
X13347700Y-12687300D03*
%TD*%
D11*
%TO.C,S-0*%
X13030200Y-14338300D03*
D12*
X13347700Y-14338300D03*
%TD*%
D20*
%TO.C,IC1*%
X14112240Y-12600940D03*
X14112240Y-12372340D03*
X14112240Y-12143740D03*
D21*
X14742160Y-12369800D03*
%TD*%
D22*
%TO.C,R1*%
X14471650Y-14046200D03*
X14281150Y-14046200D03*
%TD*%
D11*
%TO.C,S+0*%
X13030200Y-13385800D03*
D12*
X13347700Y-13385800D03*
%TD*%
D17*
%TO.C,R106*%
X13305680Y-8720562D03*
X13305680Y-8530062D03*
%TD*%
D23*
%TO.C,R2*%
X13586400Y-12731767D03*
X13586400Y-12889247D03*
%TD*%
D24*
%TO.C,ARD1*%
X13792200Y-12560300D03*
X13792200Y-12814300D03*
X13792200Y-13068300D03*
X13792200Y-13322300D03*
X14046200Y-13195300D03*
X14046200Y-13449300D03*
X14300200Y-11544300D03*
X14046200Y-11544300D03*
X15316200Y-13322300D03*
X15316200Y-13068300D03*
X15316200Y-12814300D03*
X15316200Y-12560300D03*
X15316200Y-12306300D03*
X15316200Y-12052300D03*
X15316200Y-11798300D03*
X15316200Y-11544300D03*
X13792200Y-11544300D03*
X13792200Y-11798300D03*
X13792200Y-12052300D03*
X13792200Y-12306300D03*
X15316200Y-13576300D03*
X13792200Y-14084300D03*
X14554200Y-11544300D03*
X13792200Y-14338300D03*
X13792200Y-13830300D03*
X15316200Y-13830300D03*
X15316200Y-14084300D03*
X15316200Y-14338300D03*
X13792200Y-13576300D03*
%TD*%
D16*
%TO.C,R109*%
X14718170Y-7932937D03*
X14553192Y-7837687D03*
%TD*%
D25*
%TO.C,J100*%
X14465300Y-9690100D03*
D26*
X14960600Y-9410700D03*
D27*
X15240000Y-8915400D03*
D28*
X15240000Y-8356600D03*
D29*
X14947900Y-7861300D03*
D30*
X14465300Y-7569200D03*
D31*
X13893800Y-7569200D03*
D32*
X13385800Y-7861300D03*
D33*
X13119100Y-8356600D03*
D34*
X13106400Y-8915400D03*
D35*
X13385800Y-9410700D03*
D36*
X13893800Y-9702800D03*
D26*
X14452600Y-8915400D03*
%TD*%
D37*
%TO.C,R107*%
X14973305Y-8287800D03*
X14878055Y-8122822D03*
%TD*%
D22*
%TO.C,R8*%
X14955737Y-13716000D03*
X14765237Y-13716000D03*
%TD*%
D11*
%TO.C,SIN0*%
X13030200Y-13639800D03*
D12*
X13347700Y-13639800D03*
%TD*%
D37*
%TO.C,R104*%
X13463305Y-9127800D03*
X13368055Y-8962823D03*
%TD*%
D13*
%TO.C,C2*%
X15065290Y-12378140D03*
X15065290Y-12568640D03*
%TD*%
D14*
%TO.C,R103*%
X14870431Y-9160289D03*
X14965681Y-8995311D03*
%TD*%
D11*
%TO.C,GND0*%
X13030200Y-13893800D03*
D12*
X13347700Y-13893800D03*
%TD*%
D38*
%TO.C,Q2*%
X13210400Y-12224000D03*
X13210400Y-12414000D03*
X13510400Y-12319000D03*
%TD*%
D39*
%TO.C,R3*%
X13437150Y-11451040D03*
X13594630Y-11451040D03*
%TD*%
D11*
%TO.C,HP1*%
X13030200Y-12941300D03*
D12*
X13347700Y-12941300D03*
%TD*%
D40*
%TO.C,CN100*%
X13926089Y-10258662D03*
X14180089Y-10258662D03*
X14432592Y-10258662D03*
%TD*%
D10*
%TO.C,R111*%
X14100430Y-7765311D03*
X14290930Y-7765311D03*
%TD*%
D18*
%TO.C,R110*%
X13683191Y-7942937D03*
X13848169Y-7847687D03*
%TD*%
M02*
