%TF.GenerationSoftware,KiCad,Pcbnew,7.0.6*%
%TF.CreationDate,2024-06-26T11:04:28+02:00*%
%TF.ProjectId,ToneGenerator,546f6e65-4765-46e6-9572-61746f722e6b,rev?*%
%TF.SameCoordinates,PX791ddc0PY9157080*%
%TF.FileFunction,Legend,Bot*%
%TF.FilePolarity,Positive*%
%FSLAX45Y45*%
G04 Gerber Fmt 4.5, Leading zero omitted, Abs format (unit mm)*
G04 Created by KiCad (PCBNEW 7.0.6) date 2024-06-26 11:04:28*
%MOMM*%
%LPD*%
G01*
G04 APERTURE LIST*
%ADD10C,0.150000*%
%ADD11C,0.190500*%
%ADD12C,0.089408*%
%ADD13C,0.254000*%
G04 APERTURE END LIST*
D10*
X2208631Y3981903D02*
X2118631Y3981903D01*
X2208631Y3943332D02*
X2161488Y3943332D01*
X2161488Y3943332D02*
X2152916Y3947617D01*
X2152916Y3947617D02*
X2148631Y3956189D01*
X2148631Y3956189D02*
X2148631Y3969046D01*
X2148631Y3969046D02*
X2152916Y3977617D01*
X2152916Y3977617D02*
X2157202Y3981903D01*
X2148631Y3913332D02*
X2148631Y3879046D01*
X2118631Y3900474D02*
X2195774Y3900474D01*
X2195774Y3900474D02*
X2204345Y3896189D01*
X2204345Y3896189D02*
X2208631Y3887617D01*
X2208631Y3887617D02*
X2208631Y3879046D01*
X2148631Y3861903D02*
X2148631Y3827617D01*
X2118631Y3849046D02*
X2195774Y3849046D01*
X2195774Y3849046D02*
X2204345Y3844760D01*
X2204345Y3844760D02*
X2208631Y3836189D01*
X2208631Y3836189D02*
X2208631Y3827617D01*
X2148631Y3797617D02*
X2238631Y3797617D01*
X2152916Y3797617D02*
X2148631Y3789046D01*
X2148631Y3789046D02*
X2148631Y3771903D01*
X2148631Y3771903D02*
X2152916Y3763332D01*
X2152916Y3763332D02*
X2157202Y3759046D01*
X2157202Y3759046D02*
X2165774Y3754760D01*
X2165774Y3754760D02*
X2191488Y3754760D01*
X2191488Y3754760D02*
X2200059Y3759046D01*
X2200059Y3759046D02*
X2204345Y3763332D01*
X2204345Y3763332D02*
X2208631Y3771903D01*
X2208631Y3771903D02*
X2208631Y3789046D01*
X2208631Y3789046D02*
X2204345Y3797617D01*
X2204345Y3720474D02*
X2208631Y3711903D01*
X2208631Y3711903D02*
X2208631Y3694760D01*
X2208631Y3694760D02*
X2204345Y3686189D01*
X2204345Y3686189D02*
X2195774Y3681903D01*
X2195774Y3681903D02*
X2191488Y3681903D01*
X2191488Y3681903D02*
X2182916Y3686189D01*
X2182916Y3686189D02*
X2178631Y3694760D01*
X2178631Y3694760D02*
X2178631Y3707617D01*
X2178631Y3707617D02*
X2174345Y3716189D01*
X2174345Y3716189D02*
X2165774Y3720474D01*
X2165774Y3720474D02*
X2161488Y3720474D01*
X2161488Y3720474D02*
X2152916Y3716189D01*
X2152916Y3716189D02*
X2148631Y3707617D01*
X2148631Y3707617D02*
X2148631Y3694760D01*
X2148631Y3694760D02*
X2152916Y3686189D01*
X2200059Y3643332D02*
X2204345Y3639046D01*
X2204345Y3639046D02*
X2208631Y3643332D01*
X2208631Y3643332D02*
X2204345Y3647617D01*
X2204345Y3647617D02*
X2200059Y3643332D01*
X2200059Y3643332D02*
X2208631Y3643332D01*
X2152916Y3643332D02*
X2157202Y3639046D01*
X2157202Y3639046D02*
X2161488Y3643332D01*
X2161488Y3643332D02*
X2157202Y3647617D01*
X2157202Y3647617D02*
X2152916Y3643332D01*
X2152916Y3643332D02*
X2161488Y3643332D01*
X2114345Y3536189D02*
X2230059Y3613332D01*
X2114345Y3441903D02*
X2230059Y3519046D01*
X2148631Y3373332D02*
X2221488Y3373332D01*
X2221488Y3373332D02*
X2230059Y3377617D01*
X2230059Y3377617D02*
X2234345Y3381903D01*
X2234345Y3381903D02*
X2238631Y3390474D01*
X2238631Y3390474D02*
X2238631Y3403332D01*
X2238631Y3403332D02*
X2234345Y3411903D01*
X2204345Y3373332D02*
X2208631Y3381903D01*
X2208631Y3381903D02*
X2208631Y3399046D01*
X2208631Y3399046D02*
X2204345Y3407617D01*
X2204345Y3407617D02*
X2200059Y3411903D01*
X2200059Y3411903D02*
X2191488Y3416189D01*
X2191488Y3416189D02*
X2165774Y3416189D01*
X2165774Y3416189D02*
X2157202Y3411903D01*
X2157202Y3411903D02*
X2152916Y3407617D01*
X2152916Y3407617D02*
X2148631Y3399046D01*
X2148631Y3399046D02*
X2148631Y3381903D01*
X2148631Y3381903D02*
X2152916Y3373332D01*
X2208631Y3330474D02*
X2148631Y3330474D01*
X2118631Y3330474D02*
X2122916Y3334760D01*
X2122916Y3334760D02*
X2127202Y3330474D01*
X2127202Y3330474D02*
X2122916Y3326189D01*
X2122916Y3326189D02*
X2118631Y3330474D01*
X2118631Y3330474D02*
X2127202Y3330474D01*
X2148631Y3300474D02*
X2148631Y3266189D01*
X2118631Y3287617D02*
X2195774Y3287617D01*
X2195774Y3287617D02*
X2204345Y3283332D01*
X2204345Y3283332D02*
X2208631Y3274760D01*
X2208631Y3274760D02*
X2208631Y3266189D01*
X2208631Y3236189D02*
X2118631Y3236189D01*
X2208631Y3197617D02*
X2161488Y3197617D01*
X2161488Y3197617D02*
X2152916Y3201903D01*
X2152916Y3201903D02*
X2148631Y3210474D01*
X2148631Y3210474D02*
X2148631Y3223332D01*
X2148631Y3223332D02*
X2152916Y3231903D01*
X2152916Y3231903D02*
X2157202Y3236189D01*
X2148631Y3116189D02*
X2208631Y3116189D01*
X2148631Y3154760D02*
X2195774Y3154760D01*
X2195774Y3154760D02*
X2204345Y3150474D01*
X2204345Y3150474D02*
X2208631Y3141903D01*
X2208631Y3141903D02*
X2208631Y3129046D01*
X2208631Y3129046D02*
X2204345Y3120474D01*
X2204345Y3120474D02*
X2200059Y3116189D01*
X2208631Y3073332D02*
X2118631Y3073332D01*
X2152916Y3073332D02*
X2148631Y3064760D01*
X2148631Y3064760D02*
X2148631Y3047617D01*
X2148631Y3047617D02*
X2152916Y3039046D01*
X2152916Y3039046D02*
X2157202Y3034760D01*
X2157202Y3034760D02*
X2165774Y3030474D01*
X2165774Y3030474D02*
X2191488Y3030474D01*
X2191488Y3030474D02*
X2200059Y3034760D01*
X2200059Y3034760D02*
X2204345Y3039046D01*
X2204345Y3039046D02*
X2208631Y3047617D01*
X2208631Y3047617D02*
X2208631Y3064760D01*
X2208631Y3064760D02*
X2204345Y3073332D01*
X2200059Y2991903D02*
X2204345Y2987617D01*
X2204345Y2987617D02*
X2208631Y2991903D01*
X2208631Y2991903D02*
X2204345Y2996189D01*
X2204345Y2996189D02*
X2200059Y2991903D01*
X2200059Y2991903D02*
X2208631Y2991903D01*
X2204345Y2910474D02*
X2208631Y2919046D01*
X2208631Y2919046D02*
X2208631Y2936189D01*
X2208631Y2936189D02*
X2204345Y2944760D01*
X2204345Y2944760D02*
X2200059Y2949046D01*
X2200059Y2949046D02*
X2191488Y2953332D01*
X2191488Y2953332D02*
X2165774Y2953332D01*
X2165774Y2953332D02*
X2157202Y2949046D01*
X2157202Y2949046D02*
X2152916Y2944760D01*
X2152916Y2944760D02*
X2148631Y2936189D01*
X2148631Y2936189D02*
X2148631Y2919046D01*
X2148631Y2919046D02*
X2152916Y2910474D01*
X2208631Y2859046D02*
X2204345Y2867617D01*
X2204345Y2867617D02*
X2200059Y2871903D01*
X2200059Y2871903D02*
X2191488Y2876189D01*
X2191488Y2876189D02*
X2165774Y2876189D01*
X2165774Y2876189D02*
X2157202Y2871903D01*
X2157202Y2871903D02*
X2152916Y2867617D01*
X2152916Y2867617D02*
X2148631Y2859046D01*
X2148631Y2859046D02*
X2148631Y2846189D01*
X2148631Y2846189D02*
X2152916Y2837617D01*
X2152916Y2837617D02*
X2157202Y2833331D01*
X2157202Y2833331D02*
X2165774Y2829046D01*
X2165774Y2829046D02*
X2191488Y2829046D01*
X2191488Y2829046D02*
X2200059Y2833331D01*
X2200059Y2833331D02*
X2204345Y2837617D01*
X2204345Y2837617D02*
X2208631Y2846189D01*
X2208631Y2846189D02*
X2208631Y2859046D01*
X2208631Y2790474D02*
X2148631Y2790474D01*
X2157202Y2790474D02*
X2152916Y2786189D01*
X2152916Y2786189D02*
X2148631Y2777617D01*
X2148631Y2777617D02*
X2148631Y2764760D01*
X2148631Y2764760D02*
X2152916Y2756189D01*
X2152916Y2756189D02*
X2161488Y2751903D01*
X2161488Y2751903D02*
X2208631Y2751903D01*
X2161488Y2751903D02*
X2152916Y2747617D01*
X2152916Y2747617D02*
X2148631Y2739046D01*
X2148631Y2739046D02*
X2148631Y2726189D01*
X2148631Y2726189D02*
X2152916Y2717617D01*
X2152916Y2717617D02*
X2161488Y2713332D01*
X2161488Y2713332D02*
X2208631Y2713332D01*
X2114345Y2606189D02*
X2230059Y2683332D01*
X2208631Y2537617D02*
X2161488Y2537617D01*
X2161488Y2537617D02*
X2152916Y2541903D01*
X2152916Y2541903D02*
X2148631Y2550474D01*
X2148631Y2550474D02*
X2148631Y2567617D01*
X2148631Y2567617D02*
X2152916Y2576189D01*
X2204345Y2537617D02*
X2208631Y2546189D01*
X2208631Y2546189D02*
X2208631Y2567617D01*
X2208631Y2567617D02*
X2204345Y2576189D01*
X2204345Y2576189D02*
X2195774Y2580474D01*
X2195774Y2580474D02*
X2187202Y2580474D01*
X2187202Y2580474D02*
X2178631Y2576189D01*
X2178631Y2576189D02*
X2174345Y2567617D01*
X2174345Y2567617D02*
X2174345Y2546189D01*
X2174345Y2546189D02*
X2170059Y2537617D01*
X2208631Y2481903D02*
X2204345Y2490474D01*
X2204345Y2490474D02*
X2195774Y2494760D01*
X2195774Y2494760D02*
X2118631Y2494760D01*
X2204345Y2409046D02*
X2208631Y2417617D01*
X2208631Y2417617D02*
X2208631Y2434760D01*
X2208631Y2434760D02*
X2204345Y2443332D01*
X2204345Y2443332D02*
X2200059Y2447617D01*
X2200059Y2447617D02*
X2191488Y2451903D01*
X2191488Y2451903D02*
X2165774Y2451903D01*
X2165774Y2451903D02*
X2157202Y2447617D01*
X2157202Y2447617D02*
X2152916Y2443332D01*
X2152916Y2443332D02*
X2148631Y2434760D01*
X2148631Y2434760D02*
X2148631Y2417617D01*
X2148631Y2417617D02*
X2152916Y2409046D01*
X2208631Y2331903D02*
X2161488Y2331903D01*
X2161488Y2331903D02*
X2152916Y2336189D01*
X2152916Y2336189D02*
X2148631Y2344760D01*
X2148631Y2344760D02*
X2148631Y2361903D01*
X2148631Y2361903D02*
X2152916Y2370474D01*
X2204345Y2331903D02*
X2208631Y2340474D01*
X2208631Y2340474D02*
X2208631Y2361903D01*
X2208631Y2361903D02*
X2204345Y2370474D01*
X2204345Y2370474D02*
X2195774Y2374760D01*
X2195774Y2374760D02*
X2187202Y2374760D01*
X2187202Y2374760D02*
X2178631Y2370474D01*
X2178631Y2370474D02*
X2174345Y2361903D01*
X2174345Y2361903D02*
X2174345Y2340474D01*
X2174345Y2340474D02*
X2170059Y2331903D01*
X2208631Y2289046D02*
X2148631Y2289046D01*
X2165774Y2289046D02*
X2157202Y2284760D01*
X2157202Y2284760D02*
X2152916Y2280474D01*
X2152916Y2280474D02*
X2148631Y2271903D01*
X2148631Y2271903D02*
X2148631Y2263331D01*
X2208631Y2233331D02*
X2118631Y2233331D01*
X2152916Y2233331D02*
X2148631Y2224760D01*
X2148631Y2224760D02*
X2148631Y2207617D01*
X2148631Y2207617D02*
X2152916Y2199046D01*
X2152916Y2199046D02*
X2157202Y2194760D01*
X2157202Y2194760D02*
X2165774Y2190474D01*
X2165774Y2190474D02*
X2191488Y2190474D01*
X2191488Y2190474D02*
X2200059Y2194760D01*
X2200059Y2194760D02*
X2204345Y2199046D01*
X2204345Y2199046D02*
X2208631Y2207617D01*
X2208631Y2207617D02*
X2208631Y2224760D01*
X2208631Y2224760D02*
X2204345Y2233331D01*
X2148631Y2113331D02*
X2208631Y2113331D01*
X2148631Y2151903D02*
X2195774Y2151903D01*
X2195774Y2151903D02*
X2204345Y2147617D01*
X2204345Y2147617D02*
X2208631Y2139046D01*
X2208631Y2139046D02*
X2208631Y2126189D01*
X2208631Y2126189D02*
X2204345Y2117617D01*
X2204345Y2117617D02*
X2200059Y2113331D01*
X2208631Y2070474D02*
X2148631Y2070474D01*
X2165774Y2070474D02*
X2157202Y2066188D01*
X2157202Y2066188D02*
X2152916Y2061903D01*
X2152916Y2061903D02*
X2148631Y2053331D01*
X2148631Y2053331D02*
X2148631Y2044760D01*
X2204345Y1980474D02*
X2208631Y1989046D01*
X2208631Y1989046D02*
X2208631Y2006188D01*
X2208631Y2006188D02*
X2204345Y2014760D01*
X2204345Y2014760D02*
X2195774Y2019046D01*
X2195774Y2019046D02*
X2161488Y2019046D01*
X2161488Y2019046D02*
X2152916Y2014760D01*
X2152916Y2014760D02*
X2148631Y2006188D01*
X2148631Y2006188D02*
X2148631Y1989046D01*
X2148631Y1989046D02*
X2152916Y1980474D01*
X2152916Y1980474D02*
X2161488Y1976188D01*
X2161488Y1976188D02*
X2170059Y1976188D01*
X2170059Y1976188D02*
X2178631Y2019046D01*
X2114345Y1873331D02*
X2230059Y1950474D01*
X2118631Y1856188D02*
X2118631Y1804760D01*
X2208631Y1830474D02*
X2118631Y1830474D01*
X2208631Y1761903D02*
X2204345Y1770474D01*
X2204345Y1770474D02*
X2200059Y1774760D01*
X2200059Y1774760D02*
X2191488Y1779046D01*
X2191488Y1779046D02*
X2165774Y1779046D01*
X2165774Y1779046D02*
X2157202Y1774760D01*
X2157202Y1774760D02*
X2152916Y1770474D01*
X2152916Y1770474D02*
X2148631Y1761903D01*
X2148631Y1761903D02*
X2148631Y1749046D01*
X2148631Y1749046D02*
X2152916Y1740474D01*
X2152916Y1740474D02*
X2157202Y1736188D01*
X2157202Y1736188D02*
X2165774Y1731903D01*
X2165774Y1731903D02*
X2191488Y1731903D01*
X2191488Y1731903D02*
X2200059Y1736188D01*
X2200059Y1736188D02*
X2204345Y1740474D01*
X2204345Y1740474D02*
X2208631Y1749046D01*
X2208631Y1749046D02*
X2208631Y1761903D01*
X2148631Y1693331D02*
X2208631Y1693331D01*
X2157202Y1693331D02*
X2152916Y1689046D01*
X2152916Y1689046D02*
X2148631Y1680474D01*
X2148631Y1680474D02*
X2148631Y1667617D01*
X2148631Y1667617D02*
X2152916Y1659046D01*
X2152916Y1659046D02*
X2161488Y1654760D01*
X2161488Y1654760D02*
X2208631Y1654760D01*
X2204345Y1577617D02*
X2208631Y1586188D01*
X2208631Y1586188D02*
X2208631Y1603331D01*
X2208631Y1603331D02*
X2204345Y1611903D01*
X2204345Y1611903D02*
X2195774Y1616188D01*
X2195774Y1616188D02*
X2161488Y1616188D01*
X2161488Y1616188D02*
X2152916Y1611903D01*
X2152916Y1611903D02*
X2148631Y1603331D01*
X2148631Y1603331D02*
X2148631Y1586188D01*
X2148631Y1586188D02*
X2152916Y1577617D01*
X2152916Y1577617D02*
X2161488Y1573331D01*
X2161488Y1573331D02*
X2170059Y1573331D01*
X2170059Y1573331D02*
X2178631Y1616188D01*
X2122916Y1487617D02*
X2118631Y1496188D01*
X2118631Y1496188D02*
X2118631Y1509045D01*
X2118631Y1509045D02*
X2122916Y1521903D01*
X2122916Y1521903D02*
X2131488Y1530474D01*
X2131488Y1530474D02*
X2140059Y1534760D01*
X2140059Y1534760D02*
X2157202Y1539045D01*
X2157202Y1539045D02*
X2170059Y1539045D01*
X2170059Y1539045D02*
X2187202Y1534760D01*
X2187202Y1534760D02*
X2195774Y1530474D01*
X2195774Y1530474D02*
X2204345Y1521903D01*
X2204345Y1521903D02*
X2208631Y1509045D01*
X2208631Y1509045D02*
X2208631Y1500474D01*
X2208631Y1500474D02*
X2204345Y1487617D01*
X2204345Y1487617D02*
X2200059Y1483331D01*
X2200059Y1483331D02*
X2170059Y1483331D01*
X2170059Y1483331D02*
X2170059Y1500474D01*
X2204345Y1410474D02*
X2208631Y1419045D01*
X2208631Y1419045D02*
X2208631Y1436188D01*
X2208631Y1436188D02*
X2204345Y1444760D01*
X2204345Y1444760D02*
X2195774Y1449045D01*
X2195774Y1449045D02*
X2161488Y1449045D01*
X2161488Y1449045D02*
X2152916Y1444760D01*
X2152916Y1444760D02*
X2148631Y1436188D01*
X2148631Y1436188D02*
X2148631Y1419045D01*
X2148631Y1419045D02*
X2152916Y1410474D01*
X2152916Y1410474D02*
X2161488Y1406188D01*
X2161488Y1406188D02*
X2170059Y1406188D01*
X2170059Y1406188D02*
X2178631Y1449045D01*
X2148631Y1367617D02*
X2208631Y1367617D01*
X2157202Y1367617D02*
X2152916Y1363331D01*
X2152916Y1363331D02*
X2148631Y1354760D01*
X2148631Y1354760D02*
X2148631Y1341903D01*
X2148631Y1341903D02*
X2152916Y1333331D01*
X2152916Y1333331D02*
X2161488Y1329045D01*
X2161488Y1329045D02*
X2208631Y1329045D01*
X2204345Y1251903D02*
X2208631Y1260474D01*
X2208631Y1260474D02*
X2208631Y1277617D01*
X2208631Y1277617D02*
X2204345Y1286188D01*
X2204345Y1286188D02*
X2195774Y1290474D01*
X2195774Y1290474D02*
X2161488Y1290474D01*
X2161488Y1290474D02*
X2152916Y1286188D01*
X2152916Y1286188D02*
X2148631Y1277617D01*
X2148631Y1277617D02*
X2148631Y1260474D01*
X2148631Y1260474D02*
X2152916Y1251903D01*
X2152916Y1251903D02*
X2161488Y1247617D01*
X2161488Y1247617D02*
X2170059Y1247617D01*
X2170059Y1247617D02*
X2178631Y1290474D01*
X2208631Y1209045D02*
X2148631Y1209045D01*
X2165774Y1209045D02*
X2157202Y1204760D01*
X2157202Y1204760D02*
X2152916Y1200474D01*
X2152916Y1200474D02*
X2148631Y1191903D01*
X2148631Y1191903D02*
X2148631Y1183331D01*
X2208631Y1114760D02*
X2161488Y1114760D01*
X2161488Y1114760D02*
X2152916Y1119045D01*
X2152916Y1119045D02*
X2148631Y1127617D01*
X2148631Y1127617D02*
X2148631Y1144760D01*
X2148631Y1144760D02*
X2152916Y1153331D01*
X2204345Y1114760D02*
X2208631Y1123331D01*
X2208631Y1123331D02*
X2208631Y1144760D01*
X2208631Y1144760D02*
X2204345Y1153331D01*
X2204345Y1153331D02*
X2195774Y1157617D01*
X2195774Y1157617D02*
X2187202Y1157617D01*
X2187202Y1157617D02*
X2178631Y1153331D01*
X2178631Y1153331D02*
X2174345Y1144760D01*
X2174345Y1144760D02*
X2174345Y1123331D01*
X2174345Y1123331D02*
X2170059Y1114760D01*
X2148631Y1084760D02*
X2148631Y1050474D01*
X2118631Y1071903D02*
X2195774Y1071903D01*
X2195774Y1071903D02*
X2204345Y1067617D01*
X2204345Y1067617D02*
X2208631Y1059045D01*
X2208631Y1059045D02*
X2208631Y1050474D01*
X2208631Y1007617D02*
X2204345Y1016188D01*
X2204345Y1016188D02*
X2200059Y1020474D01*
X2200059Y1020474D02*
X2191488Y1024760D01*
X2191488Y1024760D02*
X2165774Y1024760D01*
X2165774Y1024760D02*
X2157202Y1020474D01*
X2157202Y1020474D02*
X2152916Y1016188D01*
X2152916Y1016188D02*
X2148631Y1007617D01*
X2148631Y1007617D02*
X2148631Y994760D01*
X2148631Y994760D02*
X2152916Y986188D01*
X2152916Y986188D02*
X2157202Y981902D01*
X2157202Y981902D02*
X2165774Y977617D01*
X2165774Y977617D02*
X2191488Y977617D01*
X2191488Y977617D02*
X2200059Y981902D01*
X2200059Y981902D02*
X2204345Y986188D01*
X2204345Y986188D02*
X2208631Y994760D01*
X2208631Y994760D02*
X2208631Y1007617D01*
X2208631Y939045D02*
X2148631Y939045D01*
X2165774Y939045D02*
X2157202Y934760D01*
X2157202Y934760D02*
X2152916Y930474D01*
X2152916Y930474D02*
X2148631Y921902D01*
X2148631Y921902D02*
X2148631Y913331D01*
X2174345Y883331D02*
X2174345Y814759D01*
X2148631Y784759D02*
X2148631Y750474D01*
X2208631Y771902D02*
X2131488Y771902D01*
X2131488Y771902D02*
X2122916Y767617D01*
X2122916Y767617D02*
X2118631Y759045D01*
X2118631Y759045D02*
X2118631Y750474D01*
X2208631Y707617D02*
X2204345Y716188D01*
X2204345Y716188D02*
X2200059Y720474D01*
X2200059Y720474D02*
X2191488Y724759D01*
X2191488Y724759D02*
X2165774Y724759D01*
X2165774Y724759D02*
X2157202Y720474D01*
X2157202Y720474D02*
X2152916Y716188D01*
X2152916Y716188D02*
X2148631Y707617D01*
X2148631Y707617D02*
X2148631Y694760D01*
X2148631Y694760D02*
X2152916Y686188D01*
X2152916Y686188D02*
X2157202Y681902D01*
X2157202Y681902D02*
X2165774Y677617D01*
X2165774Y677617D02*
X2191488Y677617D01*
X2191488Y677617D02*
X2200059Y681902D01*
X2200059Y681902D02*
X2204345Y686188D01*
X2204345Y686188D02*
X2208631Y694760D01*
X2208631Y694760D02*
X2208631Y707617D01*
X2208631Y639045D02*
X2148631Y639045D01*
X2165774Y639045D02*
X2157202Y634760D01*
X2157202Y634760D02*
X2152916Y630474D01*
X2152916Y630474D02*
X2148631Y621902D01*
X2148631Y621902D02*
X2148631Y613331D01*
X2174345Y583331D02*
X2174345Y514759D01*
X2208631Y471902D02*
X2118631Y471902D01*
X2118631Y471902D02*
X2208631Y420474D01*
X2208631Y420474D02*
X2118631Y420474D01*
X2161488Y377617D02*
X2161488Y347617D01*
X2208631Y334759D02*
X2208631Y377617D01*
X2208631Y377617D02*
X2118631Y377617D01*
X2118631Y377617D02*
X2118631Y334759D01*
X2200059Y244759D02*
X2204345Y249045D01*
X2204345Y249045D02*
X2208631Y261902D01*
X2208631Y261902D02*
X2208631Y270474D01*
X2208631Y270474D02*
X2204345Y283331D01*
X2204345Y283331D02*
X2195774Y291902D01*
X2195774Y291902D02*
X2187202Y296188D01*
X2187202Y296188D02*
X2170059Y300474D01*
X2170059Y300474D02*
X2157202Y300474D01*
X2157202Y300474D02*
X2140059Y296188D01*
X2140059Y296188D02*
X2131488Y291902D01*
X2131488Y291902D02*
X2122916Y283331D01*
X2122916Y283331D02*
X2118631Y270474D01*
X2118631Y270474D02*
X2118631Y261902D01*
X2118631Y261902D02*
X2122916Y249045D01*
X2122916Y249045D02*
X2127202Y244759D01*
D11*
X1836881Y263894D02*
X1821459Y258754D01*
X1821459Y258754D02*
X1795757Y258754D01*
X1795757Y258754D02*
X1785476Y263894D01*
X1785476Y263894D02*
X1780336Y269035D01*
X1780336Y269035D02*
X1775195Y279316D01*
X1775195Y279316D02*
X1775195Y289597D01*
X1775195Y289597D02*
X1780336Y299878D01*
X1780336Y299878D02*
X1785476Y305018D01*
X1785476Y305018D02*
X1795757Y310159D01*
X1795757Y310159D02*
X1816319Y315299D01*
X1816319Y315299D02*
X1826600Y320440D01*
X1826600Y320440D02*
X1831740Y325580D01*
X1831740Y325580D02*
X1836881Y335861D01*
X1836881Y335861D02*
X1836881Y346142D01*
X1836881Y346142D02*
X1831740Y356423D01*
X1831740Y356423D02*
X1826600Y361563D01*
X1826600Y361563D02*
X1816319Y366704D01*
X1816319Y366704D02*
X1790617Y366704D01*
X1790617Y366704D02*
X1775195Y361563D01*
X1734071Y356423D02*
X1728931Y361563D01*
X1728931Y361563D02*
X1718650Y366704D01*
X1718650Y366704D02*
X1692947Y366704D01*
X1692947Y366704D02*
X1682667Y361563D01*
X1682667Y361563D02*
X1677526Y356423D01*
X1677526Y356423D02*
X1672386Y346142D01*
X1672386Y346142D02*
X1672386Y335861D01*
X1672386Y335861D02*
X1677526Y320440D01*
X1677526Y320440D02*
X1739212Y258754D01*
X1739212Y258754D02*
X1672386Y258754D01*
X1605559Y366704D02*
X1595278Y366704D01*
X1595278Y366704D02*
X1584998Y361563D01*
X1584998Y361563D02*
X1579857Y356423D01*
X1579857Y356423D02*
X1574717Y346142D01*
X1574717Y346142D02*
X1569576Y325580D01*
X1569576Y325580D02*
X1569576Y299878D01*
X1569576Y299878D02*
X1574717Y279316D01*
X1574717Y279316D02*
X1579857Y269035D01*
X1579857Y269035D02*
X1584998Y263894D01*
X1584998Y263894D02*
X1595278Y258754D01*
X1595278Y258754D02*
X1605559Y258754D01*
X1605559Y258754D02*
X1615840Y263894D01*
X1615840Y263894D02*
X1620981Y269035D01*
X1620981Y269035D02*
X1626121Y279316D01*
X1626121Y279316D02*
X1631262Y299878D01*
X1631262Y299878D02*
X1631262Y325580D01*
X1631262Y325580D02*
X1626121Y346142D01*
X1626121Y346142D02*
X1620981Y356423D01*
X1620981Y356423D02*
X1615840Y361563D01*
X1615840Y361563D02*
X1605559Y366704D01*
X1528452Y356423D02*
X1523312Y361563D01*
X1523312Y361563D02*
X1513031Y366704D01*
X1513031Y366704D02*
X1487328Y366704D01*
X1487328Y366704D02*
X1477048Y361563D01*
X1477048Y361563D02*
X1471907Y356423D01*
X1471907Y356423D02*
X1466767Y346142D01*
X1466767Y346142D02*
X1466767Y335861D01*
X1466767Y335861D02*
X1471907Y320440D01*
X1471907Y320440D02*
X1533593Y258754D01*
X1533593Y258754D02*
X1466767Y258754D01*
X1374238Y330720D02*
X1374238Y258754D01*
X1399940Y371844D02*
X1425643Y294737D01*
X1425643Y294737D02*
X1358817Y294737D01*
X1261148Y258754D02*
X1322833Y258754D01*
X1291991Y258754D02*
X1291991Y366704D01*
X1291991Y366704D02*
X1302271Y351282D01*
X1302271Y351282D02*
X1312552Y341001D01*
X1312552Y341001D02*
X1322833Y335861D01*
X1209743Y258754D02*
X1189181Y258754D01*
X1189181Y258754D02*
X1178900Y263894D01*
X1178900Y263894D02*
X1173760Y269035D01*
X1173760Y269035D02*
X1163479Y284456D01*
X1163479Y284456D02*
X1158338Y305018D01*
X1158338Y305018D02*
X1158338Y346142D01*
X1158338Y346142D02*
X1163479Y356423D01*
X1163479Y356423D02*
X1168619Y361563D01*
X1168619Y361563D02*
X1178900Y366704D01*
X1178900Y366704D02*
X1199462Y366704D01*
X1199462Y366704D02*
X1209743Y361563D01*
X1209743Y361563D02*
X1214883Y356423D01*
X1214883Y356423D02*
X1220024Y346142D01*
X1220024Y346142D02*
X1220024Y320440D01*
X1220024Y320440D02*
X1214883Y310159D01*
X1214883Y310159D02*
X1209743Y305018D01*
X1209743Y305018D02*
X1199462Y299878D01*
X1199462Y299878D02*
X1178900Y299878D01*
X1178900Y299878D02*
X1168619Y305018D01*
X1168619Y305018D02*
X1163479Y310159D01*
X1163479Y310159D02*
X1158338Y320440D01*
D12*
X1843414Y3073139D02*
X1843414Y3038692D01*
X1864082Y3080028D02*
X1791743Y3055915D01*
X1791743Y3055915D02*
X1864082Y3031802D01*
X1864082Y3007689D02*
X1791743Y3007689D01*
X1791743Y3007689D02*
X1791743Y2990466D01*
X1791743Y2990466D02*
X1795188Y2980131D01*
X1795188Y2980131D02*
X1802077Y2973242D01*
X1802077Y2973242D02*
X1808966Y2969797D01*
X1808966Y2969797D02*
X1822745Y2966353D01*
X1822745Y2966353D02*
X1833080Y2966353D01*
X1833080Y2966353D02*
X1846858Y2969797D01*
X1846858Y2969797D02*
X1853748Y2973242D01*
X1853748Y2973242D02*
X1860637Y2980131D01*
X1860637Y2980131D02*
X1864082Y2990466D01*
X1864082Y2990466D02*
X1864082Y3007689D01*
X1798632Y2938795D02*
X1795188Y2935350D01*
X1795188Y2935350D02*
X1791743Y2928461D01*
X1791743Y2928461D02*
X1791743Y2911237D01*
X1791743Y2911237D02*
X1795188Y2904348D01*
X1795188Y2904348D02*
X1798632Y2900903D01*
X1798632Y2900903D02*
X1805522Y2897458D01*
X1805522Y2897458D02*
X1812411Y2897458D01*
X1812411Y2897458D02*
X1822745Y2900903D01*
X1822745Y2900903D02*
X1864082Y2942240D01*
X1864082Y2942240D02*
X1864082Y2897458D01*
X1791743Y2852677D02*
X1791743Y2845787D01*
X1791743Y2845787D02*
X1795188Y2838898D01*
X1795188Y2838898D02*
X1798632Y2835453D01*
X1798632Y2835453D02*
X1805522Y2832008D01*
X1805522Y2832008D02*
X1819301Y2828564D01*
X1819301Y2828564D02*
X1836524Y2828564D01*
X1836524Y2828564D02*
X1850303Y2832008D01*
X1850303Y2832008D02*
X1857193Y2835453D01*
X1857193Y2835453D02*
X1860637Y2838898D01*
X1860637Y2838898D02*
X1864082Y2845787D01*
X1864082Y2845787D02*
X1864082Y2852677D01*
X1864082Y2852677D02*
X1860637Y2859566D01*
X1860637Y2859566D02*
X1857193Y2863011D01*
X1857193Y2863011D02*
X1850303Y2866456D01*
X1850303Y2866456D02*
X1836524Y2869900D01*
X1836524Y2869900D02*
X1819301Y2869900D01*
X1819301Y2869900D02*
X1805522Y2866456D01*
X1805522Y2866456D02*
X1798632Y2863011D01*
X1798632Y2863011D02*
X1795188Y2859566D01*
X1795188Y2859566D02*
X1791743Y2852677D01*
X1798632Y2801006D02*
X1795188Y2797561D01*
X1795188Y2797561D02*
X1791743Y2790672D01*
X1791743Y2790672D02*
X1791743Y2773448D01*
X1791743Y2773448D02*
X1795188Y2766559D01*
X1795188Y2766559D02*
X1798632Y2763114D01*
X1798632Y2763114D02*
X1805522Y2759669D01*
X1805522Y2759669D02*
X1812411Y2759669D01*
X1812411Y2759669D02*
X1822745Y2763114D01*
X1822745Y2763114D02*
X1864082Y2804451D01*
X1864082Y2804451D02*
X1864082Y2759669D01*
X1815856Y2697664D02*
X1864082Y2697664D01*
X1788298Y2714888D02*
X1839969Y2732111D01*
X1839969Y2732111D02*
X1839969Y2687330D01*
X1676139Y6944986D02*
X1641692Y6944986D01*
X1683028Y6924318D02*
X1658915Y6996657D01*
X1658915Y6996657D02*
X1634802Y6924318D01*
X1610689Y6924318D02*
X1610689Y6996657D01*
X1610689Y6996657D02*
X1593466Y6996657D01*
X1593466Y6996657D02*
X1583131Y6993212D01*
X1583131Y6993212D02*
X1576242Y6986323D01*
X1576242Y6986323D02*
X1572797Y6979433D01*
X1572797Y6979433D02*
X1569352Y6965655D01*
X1569352Y6965655D02*
X1569352Y6955320D01*
X1569352Y6955320D02*
X1572797Y6941541D01*
X1572797Y6941541D02*
X1576242Y6934652D01*
X1576242Y6934652D02*
X1583131Y6927763D01*
X1583131Y6927763D02*
X1593466Y6924318D01*
X1593466Y6924318D02*
X1610689Y6924318D01*
X1541795Y6989768D02*
X1538350Y6993212D01*
X1538350Y6993212D02*
X1531461Y6996657D01*
X1531461Y6996657D02*
X1514237Y6996657D01*
X1514237Y6996657D02*
X1507347Y6993212D01*
X1507347Y6993212D02*
X1503903Y6989768D01*
X1503903Y6989768D02*
X1500458Y6982878D01*
X1500458Y6982878D02*
X1500458Y6975989D01*
X1500458Y6975989D02*
X1503903Y6965655D01*
X1503903Y6965655D02*
X1545239Y6924318D01*
X1545239Y6924318D02*
X1500458Y6924318D01*
X1455677Y6996657D02*
X1448787Y6996657D01*
X1448787Y6996657D02*
X1441898Y6993212D01*
X1441898Y6993212D02*
X1438453Y6989768D01*
X1438453Y6989768D02*
X1435008Y6982878D01*
X1435008Y6982878D02*
X1431564Y6969099D01*
X1431564Y6969099D02*
X1431564Y6951876D01*
X1431564Y6951876D02*
X1435008Y6938097D01*
X1435008Y6938097D02*
X1438453Y6931207D01*
X1438453Y6931207D02*
X1441898Y6927763D01*
X1441898Y6927763D02*
X1448787Y6924318D01*
X1448787Y6924318D02*
X1455677Y6924318D01*
X1455677Y6924318D02*
X1462566Y6927763D01*
X1462566Y6927763D02*
X1466011Y6931207D01*
X1466011Y6931207D02*
X1469455Y6938097D01*
X1469455Y6938097D02*
X1472900Y6951876D01*
X1472900Y6951876D02*
X1472900Y6969099D01*
X1472900Y6969099D02*
X1469455Y6982878D01*
X1469455Y6982878D02*
X1466011Y6989768D01*
X1466011Y6989768D02*
X1462566Y6993212D01*
X1462566Y6993212D02*
X1455677Y6996657D01*
X1404006Y6989768D02*
X1400561Y6993212D01*
X1400561Y6993212D02*
X1393672Y6996657D01*
X1393672Y6996657D02*
X1376448Y6996657D01*
X1376448Y6996657D02*
X1369559Y6993212D01*
X1369559Y6993212D02*
X1366114Y6989768D01*
X1366114Y6989768D02*
X1362669Y6982878D01*
X1362669Y6982878D02*
X1362669Y6975989D01*
X1362669Y6975989D02*
X1366114Y6965655D01*
X1366114Y6965655D02*
X1407450Y6924318D01*
X1407450Y6924318D02*
X1362669Y6924318D01*
X1300664Y6972544D02*
X1300664Y6924318D01*
X1317888Y7000102D02*
X1335111Y6948431D01*
X1335111Y6948431D02*
X1290330Y6948431D01*
D13*
%TO.C,REF\u002A\u002A*%
X1830300Y3159600D02*
X1639800Y3159600D01*
X1639800Y3159600D02*
X1639800Y2969100D01*
X1893800Y3096100D02*
X1830300Y3159600D01*
X1766800Y3096100D02*
X1766800Y3032600D01*
X1703300Y3096100D02*
X1766800Y3096100D01*
X1766800Y3032600D02*
X1703300Y3032600D01*
X1703300Y3032600D02*
X1703300Y3096100D01*
X1893800Y2969100D02*
X1893800Y3096100D01*
X1766800Y2969100D02*
X1766800Y2778600D01*
X1639800Y2969100D02*
X1766800Y2969100D01*
X1893800Y2842100D02*
X1893800Y2969100D01*
X1766800Y2778600D02*
X1703300Y2778600D01*
X1766800Y2778600D02*
X1766800Y2715100D01*
X1703300Y2778600D02*
X1703300Y2715100D01*
X1893800Y2715100D02*
X1893800Y2842100D01*
X1766800Y2715100D02*
X1766800Y2651600D01*
X1703300Y2715100D02*
X1766800Y2715100D01*
X1893800Y2651600D02*
X1893800Y2715100D01*
X1766800Y2651600D02*
X1893800Y2651600D01*
X1893800Y2969100D02*
G75*
G03*
X1893800Y3096100I0J63500D01*
G01*
X1893800Y2715100D02*
G75*
G03*
X1893800Y2842100I0J63500D01*
G01*
X1762600Y6958100D02*
X1762600Y7148600D01*
X1762600Y7148600D02*
X1572100Y7148600D01*
X1699100Y6894600D02*
X1762600Y6958100D01*
X1699100Y7021600D02*
X1635600Y7021600D01*
X1699100Y7085100D02*
X1699100Y7021600D01*
X1635600Y7021600D02*
X1635600Y7085100D01*
X1635600Y7085100D02*
X1699100Y7085100D01*
X1572100Y6894600D02*
X1699100Y6894600D01*
X1572100Y7021600D02*
X1381600Y7021600D01*
X1572100Y7148600D02*
X1572100Y7021600D01*
X1445100Y6894600D02*
X1572100Y6894600D01*
X1381600Y7021600D02*
X1381600Y7085100D01*
X1381600Y7021600D02*
X1318100Y7021600D01*
X1381600Y7085100D02*
X1318100Y7085100D01*
X1318100Y6894600D02*
X1445100Y6894600D01*
X1318100Y7021600D02*
X1254600Y7021600D01*
X1318100Y7085100D02*
X1318100Y7021600D01*
X1254600Y6894600D02*
X1318100Y6894600D01*
X1254600Y7021600D02*
X1254600Y6894600D01*
X1572100Y6894600D02*
G75*
G03*
X1699100Y6894600I63500J0D01*
G01*
X1318100Y6894600D02*
G75*
G03*
X1445100Y6894600I63500J0D01*
G01*
%TD*%
M02*
