%TF.GenerationSoftware,KiCad,Pcbnew,7.0.6*%
%TF.CreationDate,2024-06-26T11:04:28+02:00*%
%TF.ProjectId,ToneGenerator,546f6e65-4765-46e6-9572-61746f722e6b,rev?*%
%TF.SameCoordinates,PX791ddc0PY9157080*%
%TF.FileFunction,Soldermask,Bot*%
%TF.FilePolarity,Negative*%
%FSLAX45Y45*%
G04 Gerber Fmt 4.5, Leading zero omitted, Abs format (unit mm)*
G04 Created by KiCad (PCBNEW 7.0.6) date 2024-06-26 11:04:28*
%MOMM*%
%LPD*%
G01*
G04 APERTURE LIST*
G04 Aperture macros list*
%AMRoundRect*
0 Rectangle with rounded corners*
0 $1 Rounding radius*
0 $2 $3 $4 $5 $6 $7 $8 $9 X,Y pos of 4 corners*
0 Add a 4 corners polygon primitive as box body*
4,1,4,$2,$3,$4,$5,$6,$7,$8,$9,$2,$3,0*
0 Add four circle primitives for the rounded corners*
1,1,$1+$1,$2,$3*
1,1,$1+$1,$4,$5*
1,1,$1+$1,$6,$7*
1,1,$1+$1,$8,$9*
0 Add four rect primitives between the rounded corners*
20,1,$1+$1,$2,$3,$4,$5,0*
20,1,$1+$1,$4,$5,$6,$7,0*
20,1,$1+$1,$6,$7,$8,$9,0*
20,1,$1+$1,$8,$9,$2,$3,0*%
%AMFreePoly0*
4,1,47,0.799497,0.949497,1.249497,0.499497,1.270000,0.450000,1.270000,-0.451637,1.269847,-0.454906,1.261849,-0.540195,1.258227,-0.556779,1.213924,-0.683390,1.204174,-0.701838,1.124520,-0.809765,1.109765,-0.824520,1.001838,-0.904174,0.983390,-0.913924,0.856779,-0.958226,0.840195,-0.961849,0.754906,-0.969847,0.751637,-0.970000,-0.751637,-0.970000,-0.754906,-0.969847,-0.840195,-0.961849,
-0.856779,-0.958227,-0.983390,-0.913924,-1.001838,-0.904174,-1.109765,-0.824520,-1.124520,-0.809765,-1.204174,-0.701838,-1.213924,-0.683390,-1.258227,-0.556779,-1.261849,-0.540195,-1.269847,-0.454906,-1.270000,-0.451637,-1.270000,0.451637,-1.269847,0.454906,-1.261849,0.540195,-1.258227,0.556779,-1.213924,0.683390,-1.204174,0.701838,-1.124520,0.809765,-1.109765,0.824520,-1.001838,0.904174,
-0.983390,0.913924,-0.856779,0.958226,-0.840195,0.961849,-0.754906,0.969847,-0.751637,0.970000,0.750000,0.970000,0.799497,0.949497,0.799497,0.949497,$1*%
G04 Aperture macros list end*
%ADD10C,1.340000*%
%ADD11O,3.048000X1.625600*%
%ADD12C,2.133600*%
%ADD13C,1.879600*%
%ADD14FreePoly0,195.000000*%
%ADD15RoundRect,0.520000X0.212132X0.848528X-0.848528X-0.212132X-0.212132X-0.848528X0.848528X0.212132X0*%
%ADD16RoundRect,0.520000X-0.240552X0.840913X-0.628781X-0.607976X0.240552X-0.840913X0.628781X0.607976X0*%
%ADD17RoundRect,0.520000X-0.628781X0.607976X-0.240552X-0.840913X0.628781X-0.607976X0.240552X0.840913X0*%
%ADD18RoundRect,0.520000X-0.848528X0.212132X0.212132X-0.848528X0.848528X-0.212132X-0.212132X0.848528X0*%
%ADD19RoundRect,0.520000X-0.840913X-0.240552X0.607976X-0.628781X0.840913X0.240552X-0.607976X0.628781X0*%
%ADD20RoundRect,0.520000X-0.607976X-0.628781X0.840913X-0.240552X0.607976X0.628781X-0.840913X0.240552X0*%
%ADD21RoundRect,0.520000X-0.212132X-0.848528X0.848528X0.212132X0.212132X0.848528X-0.848528X-0.212132X0*%
%ADD22RoundRect,0.520000X0.240552X-0.840913X0.628781X0.607976X-0.240552X0.840913X-0.628781X-0.607976X0*%
%ADD23RoundRect,0.520000X0.628781X-0.607976X0.240552X0.840913X-0.628781X0.607976X-0.240552X-0.840913X0*%
%ADD24RoundRect,0.520000X0.848528X-0.212132X-0.212132X0.848528X-0.848528X0.212132X0.212132X-0.848528X0*%
%ADD25RoundRect,0.520000X0.840913X0.240552X-0.607976X0.628781X-0.840913X-0.240552X0.607976X-0.628781X0*%
%ADD26O,1.625600X3.048000*%
G04 APERTURE END LIST*
D10*
%TO.C,+9V0*%
X336620Y639360D03*
D11*
X654120Y639360D03*
%TD*%
D12*
%TO.C,Q1*%
X584200Y3632200D03*
X838200Y3441700D03*
X584200Y3251200D03*
%TD*%
D10*
%TO.C,HP2*%
X330200Y2552700D03*
D11*
X647700Y2552700D03*
%TD*%
D10*
%TO.C,S-0*%
X330200Y901700D03*
D11*
X647700Y901700D03*
%TD*%
D10*
%TO.C,S+0*%
X330200Y1854200D03*
D11*
X647700Y1854200D03*
%TD*%
D13*
%TO.C,ARD1*%
X1092200Y2679700D03*
X1092200Y2425700D03*
X1092200Y2171700D03*
X1092200Y1917700D03*
X1346200Y2044700D03*
X1346200Y1790700D03*
X1600200Y3695700D03*
X1346200Y3695700D03*
X2616200Y1917700D03*
X2616200Y2171700D03*
X2616200Y2425700D03*
X2616200Y2679700D03*
X2616200Y2933700D03*
X2616200Y3187700D03*
X2616200Y3441700D03*
X2616200Y3695700D03*
X1092200Y3695700D03*
X1092200Y3441700D03*
X1092200Y3187700D03*
X1092200Y2933700D03*
X2616200Y1663700D03*
X1092200Y1155700D03*
X1854200Y3695700D03*
X1092200Y901700D03*
X1092200Y1409700D03*
X2616200Y1409700D03*
X2616200Y1155700D03*
X2616200Y901700D03*
X1092200Y1663700D03*
%TD*%
D14*
%TO.C,J100*%
X1765300Y5549900D03*
D15*
X2260600Y5829300D03*
D16*
X2540000Y6324600D03*
D17*
X2540000Y6883400D03*
D18*
X2247900Y7378700D03*
D19*
X1765300Y7670800D03*
D20*
X1193800Y7670800D03*
D21*
X685800Y7378700D03*
D22*
X419100Y6883400D03*
D23*
X406400Y6324600D03*
D24*
X685800Y5829300D03*
D25*
X1193800Y5537200D03*
D15*
X1752600Y6324600D03*
%TD*%
D10*
%TO.C,SIN0*%
X330200Y1600200D03*
D11*
X647700Y1600200D03*
%TD*%
D10*
%TO.C,GND0*%
X330200Y1346200D03*
D11*
X647700Y1346200D03*
%TD*%
D10*
%TO.C,HP1*%
X330200Y2298700D03*
D11*
X647700Y2298700D03*
%TD*%
D26*
%TO.C,CN100*%
X1226090Y4981339D03*
X1480089Y4981339D03*
X1732592Y4981339D03*
%TD*%
M02*
