M48
; DRILL file {KiCad 7.0.6} date Wed Jun 26 11:04:31 2024
; FORMAT={-:-/ absolute / inch / decimal}
; #@! TF.CreationDate,2024-06-26T11:04:31+02:00
; #@! TF.GenerationSoftware,Kicad,Pcbnew,7.0.6
; #@! TF.FileFunction,Plated,1,2,PTH
FMAT,2
INCH
; #@! TA.AperFunction,Plated,PTH,ViaDrill
T1C0.0236
; #@! TA.AperFunction,Plated,PTH,ViaDrill
T2C0.0315
; #@! TA.AperFunction,Plated,PTH,ComponentDrill
T3C0.0315
; #@! TA.AperFunction,Plated,PTH,ViaDrill
T4C0.0320
; #@! TA.AperFunction,Plated,PTH,ComponentDrill
T5C0.0320
; #@! TA.AperFunction,Plated,PTH,ViaDrill
T6C0.0354
; #@! TA.AperFunction,Plated,PTH,ComponentDrill
T7C0.0360
; #@! TA.AperFunction,Plated,PTH,ComponentDrill
T8C0.0394
%
G90
G05
T1
X0.9319Y1.2052
T2
X0.9312Y0.9917
T4
X0.6512Y0.9317
T5
X0.23Y1.43
X0.23Y1.28
X0.33Y1.355
T6
X0.556Y1.2917
T7
X0.255Y1.005
X0.255Y0.905
X0.255Y0.73
X0.255Y0.63
X0.255Y0.53
X0.255Y0.355
X0.2575Y0.2517
T8
X0.43Y1.455
X0.43Y1.355
X0.43Y1.255
X0.43Y1.155
X0.43Y1.055
X0.43Y0.955
X0.43Y0.855
X0.43Y0.755
X0.43Y0.655
X0.43Y0.555
X0.43Y0.455
X0.43Y0.355
X0.4827Y1.9612
X0.53Y1.455
X0.53Y0.805
X0.53Y0.705
X0.5827Y1.9612
X0.63Y1.455
X0.6821Y1.9612
X0.73Y1.455
X1.03Y1.455
X1.03Y1.355
X1.03Y1.255
X1.03Y1.155
X1.03Y1.055
X1.03Y0.955
X1.03Y0.855
X1.03Y0.755
X1.03Y0.655
X1.03Y0.555
X1.03Y0.455
X1.03Y0.355
T3
G00X0.1631Y2.4786
M15
G01X0.1569Y2.5014
M16
G05
G00X0.1619Y2.6986
M15
G01X0.1681Y2.7214
M16
G05
G00X0.2616Y2.8966
M15
G01X0.2784Y2.9134
M16
G05
G00X0.2784Y2.2866
M15
G01X0.2616Y2.3034
M16
G05
G00X0.4586Y3.0169
M15
G01X0.4814Y3.0231
M16
G05
G00X0.4814Y2.1769
M15
G01X0.4586Y2.1831
M16
G05
G00X0.6984Y2.4984
M15
G01X0.6816Y2.4816
M16
G05
G00X0.6836Y3.0231
M15
G01X0.7064Y3.0169
M16
G05
G00X0.7064Y2.1881
M15
G01X0.6836Y2.1819
M16
G05
G00X0.8766Y2.9134
M15
G01X0.8934Y2.8966
M16
G05
G00X0.8984Y2.3034
M15
G01X0.8816Y2.2866
M16
G05
G00X0.9969Y2.7214
M15
G01X1.0031Y2.6986
M16
G05
G00X1.0031Y2.5014
M15
G01X0.9969Y2.4786
M16
G05
T0
M30
